<svg width="171" height="170" viewBox="0 0 171 170" fill="none" xmlns="http://www.w3.org/2000/svg">
<path d="M69.3822 32.4018C77.1524 15.5279 100.405 8.42231 116.033 18.1392C131.291 27.6206 149.545 58.235 150.666 76.3741C151.375 87.8196 154.645 104.789 150.695 115.528C142.968 136.551 136.782 140.883 121.075 150.564C110.925 156.816 98.8788 156.683 87.0208 157.147H77.601C60.0781 155.293 43.9516 144.833 33.5406 130.38C23.1369 115.926 18.2244 97.8012 18.1955 79.8901C18.1665 64.5315 22.124 48.2607 33.1572 37.7715C34.7706 36.0061 40.6959 29.9524 50.5353 28.5622C60.1216 27.2087 67.2985 31.144 69.375 32.3945L69.3822 32.4018Z" fill="#2780C4"/>
<path d="M72.5052 34.2551C73.2287 32.703 74.0752 31.2172 75.0519 29.8122C75.1387 29.6872 75.2328 29.5621 75.3196 29.4371L75.457 29.2532C75.6886 28.9443 75.6379 29.0031 75.3051 29.4444C75.5149 29.3562 75.8694 28.7236 76.0214 28.5397C76.564 27.8924 77.1283 27.2598 77.7216 26.6566C78.3148 26.0535 78.8719 25.5239 79.4796 24.9943C79.769 24.7442 80.0657 24.4941 80.3551 24.2513C80.7891 23.8835 80.6444 24.2881 80.2538 24.3249C80.4202 24.3102 80.753 23.9424 80.8977 23.8394C82.2289 22.8538 83.6325 21.9711 85.0867 21.184C85.7667 20.8162 86.454 20.4779 87.1558 20.1542C87.3367 20.0733 87.6406 19.9997 87.7925 19.8747C87.3512 20.2425 87.2354 20.1027 87.5682 19.9777C88.0023 19.8085 88.4292 19.632 88.8633 19.4775C90.4549 18.8964 92.09 18.4256 93.7468 18.0726C94.4558 17.9181 95.3457 17.9328 96.0186 17.668C95.2082 17.9916 95.5917 17.7268 95.9679 17.6753C96.1198 17.6606 96.2718 17.6386 96.4237 17.6239C96.8795 17.5724 97.3425 17.5356 97.7983 17.5062C99.4406 17.3958 101.09 17.4032 102.725 17.5429C103.145 17.5797 103.557 17.6239 103.977 17.668C104.245 17.6974 104.52 17.8519 103.695 17.6239C103.912 17.6827 104.151 17.6901 104.375 17.7268C105.2 17.8592 106.024 18.0284 106.835 18.2344C107.573 18.4183 108.303 18.6316 109.027 18.8743C109.389 18.992 109.75 19.1244 110.105 19.2568C110.322 19.3377 110.532 19.4186 110.749 19.5069C111.443 19.7864 110.865 19.7276 110.727 19.4922C110.843 19.6982 111.646 19.9188 111.87 20.0292C112.246 20.2204 112.623 20.4117 112.999 20.6176C113.679 20.9928 114.337 21.3973 114.988 21.8313C115.524 22.1917 116.052 22.5595 116.573 22.9494C116.797 23.1186 117.68 23.8762 116.797 23.1112C117.108 23.3834 117.441 23.6335 117.759 23.8983C120.248 25.9799 122.534 28.3117 124.676 30.7538C125.819 32.0557 126.926 33.3944 127.989 34.7626C128.149 34.9612 128.301 35.1598 128.452 35.3658C128.489 35.4099 128.995 36.0866 128.633 35.6011C128.272 35.1157 128.778 35.7998 128.814 35.8439C128.966 36.0498 129.118 36.2558 129.277 36.4618C129.842 37.2268 130.391 37.9991 130.941 38.7862C135.188 44.884 138.892 51.3938 141.895 58.2125C142.083 58.6391 142.264 59.0658 142.445 59.4924C142.539 59.7057 142.806 60.2648 142.423 59.4262C142.524 59.6542 142.611 59.8896 142.705 60.1176C143.045 60.9562 143.371 61.7947 143.682 62.6406C144.253 64.1927 144.782 65.7594 145.245 67.3483C145.708 68.9371 146.084 70.4009 146.402 71.9456C146.547 72.6591 146.677 73.3726 146.793 74.0861C146.844 74.4024 146.945 75.594 146.829 74.2994C146.865 74.6892 146.923 75.0717 146.952 75.4616C147.292 79.1321 147.574 82.8099 147.95 86.4804C148.377 90.6584 148.775 94.8365 148.92 99.0366C148.985 101.045 149 103.053 148.905 105.061C148.862 105.98 148.797 106.9 148.71 107.812C148.681 108.084 148.652 108.349 148.623 108.621C148.551 109.298 148.645 108.54 148.652 108.437C148.631 108.952 148.5 109.489 148.406 109.997C148.066 111.872 147.538 113.667 146.872 115.447C146.525 116.367 146.178 117.286 145.816 118.198C145.643 118.632 145.469 119.066 145.288 119.5C144.934 120.375 145.599 118.772 145.237 119.625C145.136 119.868 145.028 120.118 144.926 120.361C143.602 123.428 142.134 126.436 140.383 129.276C140.028 129.85 139.659 130.423 139.276 130.982C139.088 131.254 138.9 131.527 138.712 131.791C138.596 131.953 138.487 132.108 138.371 132.262C138.01 132.755 138.241 132.424 138.473 132.137C137.605 133.204 136.758 134.27 135.81 135.271C134.928 136.212 133.994 137.102 133.025 137.955C132.533 138.389 132.034 138.809 131.527 139.221C131.404 139.324 131.281 139.419 131.158 139.515C130.594 139.971 131.867 138.971 131.289 139.412C130.985 139.647 130.674 139.883 130.362 140.118C127.982 141.898 125.486 143.516 122.976 145.098C121.384 146.098 119.792 147.135 118.157 148.055C117.253 148.562 116.327 149.018 115.386 149.46C114.446 149.901 116.066 149.202 115.119 149.577C114.931 149.651 114.742 149.732 114.547 149.805C113.976 150.026 113.404 150.239 112.818 150.431C110.691 151.152 108.506 151.689 106.299 152.093C105.793 152.189 105.286 152.27 104.78 152.351C104.577 152.38 104.375 152.409 104.172 152.446C103.152 152.608 104.939 152.358 103.912 152.483C102.783 152.623 101.647 152.748 100.511 152.843C94.246 153.388 87.9589 153.498 81.679 153.498H78.4812C78.2208 153.498 77.9603 153.505 77.6999 153.498C77.6637 153.498 77.6275 153.498 77.5913 153.498C77.3164 153.483 77.027 153.439 76.7521 153.402C76.3469 153.351 75.978 153.336 76.6002 153.388C74.5816 153.233 72.5125 152.682 70.559 152.174C68.6056 151.666 66.7897 151.093 64.952 150.409C64.5107 150.247 64.0766 150.078 63.6425 149.908C63.382 149.805 63.1216 149.703 62.8611 149.592C62.8394 149.585 61.9857 149.217 62.5211 149.452C63.0565 149.688 62.2028 149.313 62.1811 149.298C61.9278 149.18 61.6674 149.07 61.4142 148.952C60.9005 148.717 60.394 148.474 59.8948 148.224C58.1295 147.349 56.4076 146.385 54.7219 145.348C53.0362 144.311 51.4011 143.193 49.8167 142.001C49.5924 141.832 49.3681 141.655 49.1366 141.486C48.3986 140.927 49.5345 141.81 49.0859 141.449C48.6808 141.126 48.2756 140.795 47.8777 140.464C47.0746 139.802 46.2933 139.11 45.5264 138.412C42.5456 135.69 39.6734 132.689 37.2786 129.416C37.351 129.511 37.7272 130.019 37.3293 129.482C37.1629 129.254 36.9892 129.026 36.8228 128.798C36.5262 128.386 36.2296 127.974 35.9402 127.555C35.289 126.62 34.6668 125.671 34.0591 124.708C32.9088 122.869 31.8308 120.979 30.8396 119.051C30.3187 118.036 29.8195 117.014 29.342 115.984C29.1249 115.513 28.9151 115.043 28.7053 114.564C28.6257 114.373 28.5389 114.182 28.4593 113.991C28.3797 113.799 28.3001 113.608 28.2133 113.417C28.3797 113.814 28.3797 113.821 28.2206 113.432C27.4103 111.409 26.6651 109.364 25.9995 107.282C24.6393 103.016 23.612 98.6467 22.8957 94.2186C22.8161 93.7037 22.7365 93.1888 22.6569 92.6739C22.6135 92.365 22.5701 92.056 22.5267 91.7471C22.5484 91.8795 22.6208 92.5047 22.534 91.7912C22.3965 90.6511 22.2735 89.5109 22.1722 88.3635C21.9696 86.0758 21.8466 83.7882 21.8105 81.4933C21.7743 79.4484 21.8032 77.4035 21.9045 75.3586C21.9552 74.3509 22.0275 73.3505 22.1143 72.3501C22.1577 71.8279 22.2084 71.2983 22.2663 70.776C22.288 70.5848 22.3097 70.3935 22.3314 70.2023C22.3531 70.011 22.505 68.7311 22.382 69.7536C22.8595 65.7815 23.7711 61.8242 25.001 58.0286C25.3194 57.043 25.6667 56.0573 26.0429 55.0937C26.108 54.9172 26.1803 54.7406 26.2454 54.5715C26.325 54.3655 26.4914 53.5564 26.3106 54.4096C26.4263 53.8947 26.7736 53.3431 26.9906 52.8649C27.8154 51.0849 28.7415 49.3563 29.7761 47.6939C30.2897 46.8627 30.8324 46.0536 31.4039 45.2665C31.5414 45.0826 31.6644 44.8767 31.8163 44.7075C31.223 45.3989 31.8308 44.6928 31.9321 44.5677C32.2793 44.1264 32.6338 43.6998 32.9956 43.2731C33.9868 42.1183 35.072 41.0738 36.121 39.9778C36.7794 39.2863 37.474 38.6317 38.2047 38.0138C38.4507 37.8005 38.7039 37.6019 38.9499 37.3959C39.3116 37.087 38.1757 37.9844 38.7328 37.5651C38.892 37.4474 39.0439 37.3297 39.2031 37.212C39.8325 36.7486 40.4692 36.3146 41.1348 35.9027C41.8004 35.4908 42.4733 35.101 43.1678 34.7405C43.5368 34.5493 43.9058 34.3654 44.282 34.1889C44.5135 34.0785 44.745 33.9608 44.9838 33.8726C44.0722 34.2183 44.9404 33.902 45.0923 33.8431C47.0602 33.0708 49.1004 32.5485 51.1768 32.2102C51.0321 32.2322 50.4533 32.2911 51.1841 32.2102C51.5096 32.1734 51.8352 32.1366 52.168 32.1146C52.6961 32.0704 53.2315 32.041 53.7669 32.0263C54.8738 31.9969 55.9735 32.0336 57.0805 32.1366C57.3626 32.166 57.6448 32.1955 57.9342 32.2249C58.1585 32.247 58.5709 32.1955 57.804 32.2102C58.2308 32.2102 58.7155 32.3573 59.1352 32.4456C60.0323 32.6221 60.9294 32.8501 61.8121 33.1076C62.5934 33.343 63.3603 33.6078 64.12 33.902C64.4094 34.0123 65.4585 34.5199 64.3443 33.9829C64.612 34.1153 64.8869 34.2256 65.1546 34.3507C65.9721 34.7405 66.7752 35.1672 67.5493 35.6306C69.1844 36.6015 71.5864 36.0646 72.498 34.3139C73.4096 32.5633 72.9465 30.3198 71.2029 29.2826C64.6916 25.3988 57.0226 23.9939 49.5779 25.0825C42.6831 26.0903 36.1066 29.5695 31.2158 34.5934C28.5678 37.3077 26.0863 40.0808 24.0026 43.2878C21.6441 46.9215 19.8281 50.9157 18.4101 55.0128C15.574 63.1555 14.5105 72.0191 14.5901 80.6768C14.7709 99.4264 20.103 118.632 31.4401 133.608C41.8872 147.422 57.2686 157.867 74.4152 160.405C78.5753 161.023 82.8221 160.891 87.0256 160.817C91.627 160.743 96.2573 160.545 100.837 160.133C105.417 159.721 110.474 158.978 115.046 157.389C119.214 155.947 122.918 153.755 126.637 151.409C129.256 149.761 131.86 148.07 134.334 146.194C139.276 142.457 143.472 138.11 146.742 132.777C148.544 129.842 150.041 126.723 151.387 123.546C153.022 119.699 154.722 115.8 155.439 111.652C156.936 103.031 156.003 94.2186 155.12 85.583C154.751 81.9419 154.549 78.2788 154.129 74.6451C153.738 71.2541 153.029 67.9441 152.038 64.6929C149.774 57.2931 146.431 50.1875 142.582 43.5085C138.733 36.8295 134.197 30.3565 129.01 24.6191C124.329 19.4481 118.975 14.8655 112.471 12.291C98.9631 6.95812 82.2578 11.2685 72.2882 21.7651C69.85 24.3322 67.7591 27.2966 66.2615 30.5184C65.4512 32.2543 65.7334 34.5714 67.5566 35.5497C69.1627 36.4103 71.6443 36.0866 72.5052 34.233V34.2551Z" fill="#2780C4"/>
<path d="M62.9478 38.1079C57.7387 47.7586 56.3496 59.2849 58.9469 69.958C59.6921 73.0033 60.8062 75.9529 62.1736 78.7628C63.0129 80.4914 65.5596 81.1092 67.1223 80.0794C68.8659 78.9393 69.3217 76.8944 68.4173 75.0482C68.2437 74.6877 68.0701 74.3199 67.9037 73.9595C67.8385 73.8124 67.3393 72.6061 67.6721 73.452C67.3755 72.7017 67.0934 71.9514 66.8401 71.1864C66.3626 69.7594 65.9647 68.2956 65.6536 66.8171C65.4872 66.0301 65.3425 65.2357 65.2195 64.4413C65.1978 64.3015 64.9952 63.3158 65.1833 64.2206C65.1038 63.8307 65.0893 63.4115 65.0531 63.0216C64.9084 61.4622 64.8578 59.9028 64.8867 58.336C64.9012 57.5784 64.9374 56.8208 64.9952 56.0705C65.0242 55.6659 65.0604 55.2687 65.1038 54.8642C65.1255 54.6876 65.2268 53.3636 65.1616 54.3419C65.2702 52.8634 65.6753 51.3334 66.0443 49.8991C66.4133 48.4647 66.8763 46.9936 67.4117 45.5886C67.4696 45.4342 67.976 44.2352 67.6143 45.0664C67.7734 44.6986 67.9326 44.3308 68.1062 43.963C68.4463 43.2348 68.808 42.514 69.1915 41.8078C70.1031 40.1234 69.6545 37.7181 67.8964 36.7765C66.1383 35.835 63.9172 36.2911 62.9478 38.0932V38.1079Z" fill="#134872"/>
<path d="M97.9505 145.641C98.2472 147.282 98.5438 148.929 98.8404 150.57C98.9489 151.048 99.166 151.467 99.4843 151.82C99.7376 152.217 100.078 152.534 100.497 152.769C100.91 153.041 101.358 153.181 101.843 153.203C102.32 153.313 102.805 153.291 103.283 153.137C104.158 152.85 105.005 152.298 105.446 151.445L105.808 150.57C105.981 149.915 105.981 149.268 105.808 148.613C105.511 146.973 105.214 145.325 104.918 143.685C104.809 143.207 104.592 142.787 104.274 142.434C104.021 142.037 103.681 141.721 103.261 141.485C102.849 141.213 102.4 141.073 101.915 141.051C101.438 140.941 100.953 140.963 100.476 141.118C99.6001 141.404 98.7536 141.956 98.3123 142.809L97.9505 143.685C97.7769 144.339 97.7769 144.987 97.9505 145.641Z" fill="#134872"/>
<path d="M136.093 74.8583C136.267 75.2114 136.44 75.5644 136.599 75.9249C136.679 76.1014 137.026 76.9326 136.701 76.1308C136.961 76.7708 137.2 77.4181 137.424 78.0727C137.829 79.2864 138.169 80.5295 138.43 81.7874C138.575 82.4641 138.69 83.1482 138.792 83.8322C138.907 84.5972 138.726 83.1849 138.828 84.1779C138.864 84.5237 138.9 84.8694 138.922 85.2151C139.023 86.5465 139.052 87.8852 139.001 89.2166C138.98 89.8565 138.936 90.5038 138.878 91.1438C138.849 91.4895 138.806 91.8352 138.77 92.1736C138.734 92.4531 138.748 92.3722 138.799 91.9308C138.77 92.1294 138.741 92.3207 138.712 92.5193C138.502 93.836 138.213 95.1379 137.851 96.4252C137.677 97.043 137.482 97.6536 137.272 98.2641C137.142 98.6392 137.005 99.007 136.867 99.3748C136.795 99.5587 136.44 100.375 136.788 99.5881C136.23 100.853 135.615 102.082 134.914 103.273C133.944 104.928 134.494 107.385 136.209 108.305C137.923 109.224 140.123 108.746 141.157 106.988C147.524 96.1677 147.871 82.3758 142.329 71.1437C141.483 69.4224 138.951 68.7972 137.381 69.827C135.644 70.9598 135.174 73.012 136.086 74.8583H136.093Z" fill="#134872"/>
<path d="M60.2138 23.192C60.0691 25.8769 60.1414 28.569 60.4091 31.2391C60.5104 32.1954 60.7347 33.1516 61.4654 33.8431C62.1962 34.5345 63.0354 34.9023 64.0266 34.917C65.7557 34.9538 67.4631 34.7772 69.1706 34.5051C69.8072 34.4021 70.4656 34.3138 71.0733 34.0932C71.8547 33.8063 72.5131 33.4679 73.1208 32.8795C73.7285 32.291 74.1337 31.5113 74.3869 30.7095C74.5461 30.1873 74.5822 29.6062 74.6329 29.0619C74.6546 28.8044 74.6618 28.5396 74.6474 28.2822C74.5967 27.4877 74.4954 26.6492 74.235 25.8916C73.7213 24.391 72.9327 23.0081 71.8041 21.8901C70.5814 20.6764 68.9897 19.7275 67.3184 19.345C66.3779 19.1317 65.3795 19.2126 64.533 19.7128C63.7806 20.1615 63.0643 21.0368 62.869 21.9121C62.6592 22.8537 62.7026 23.9129 63.2307 24.7441C63.7299 25.5311 64.4679 26.2226 65.394 26.4359C65.734 26.5168 66.0668 26.6198 66.3924 26.7522L65.5314 26.3844C66.0234 26.5977 66.4864 26.8772 66.9133 27.2082L66.1826 26.6345C66.6022 26.9728 66.9712 27.3553 67.2967 27.782L66.7324 27.039C67.0508 27.4657 67.3112 27.9217 67.5138 28.4146L67.152 27.5392C67.3329 27.9879 67.4559 28.4513 67.521 28.9368L67.3908 27.9585C67.4414 28.4072 67.4414 28.8485 67.3908 29.2899L67.521 28.3116C67.4848 28.5323 67.4414 28.7382 67.3546 28.9515L67.7164 28.0762C67.6802 28.1571 67.6295 28.238 67.5717 28.3116L68.136 27.5687C68.0853 27.6275 68.0347 27.6863 67.9696 27.7305L68.7003 27.1567C68.599 27.2303 68.5122 27.2818 68.4037 27.3333L69.2646 26.9655C68.476 27.2965 67.5427 27.3921 66.7035 27.5098L67.6657 27.3774C66.4575 27.5319 65.2493 27.5981 64.0338 27.576L67.6512 31.2539C67.3763 28.5764 67.3112 25.8916 67.4559 23.2067C67.5065 22.2946 67.0218 21.2354 66.3996 20.6028C65.7774 19.9702 64.7428 19.4848 63.8385 19.5289C61.791 19.6245 60.3296 21.1471 60.221 23.2067L60.2138 23.192Z" fill="#20692E"/>
</svg>
