{
	"asset":{
		"generator":"Khronos glTF Blender I/O v3.6.28",
		"version":"2.0"
	},
	"scene":0,
	"scenes":[
		{
			"name":"Scene",
			"nodes":[
				0,
				1
			]
		}
	],
	"nodes":[
		{
			"mesh":0,
			"name":"Wall_Art_Classical_Plane",
			"rotation":[
				0.7071068286895752,
				0,
				0,
				0.7071068286895752
			]
		},
		{
			"mesh":1,
			"name":"Cube",
			"rotation":[
				-0.7071068286895752,
				0,
				0,
				0.7071068286895752
			],
			"scale":[
				0.33632776141166687,
				0.37022286653518677,
				1.0317790508270264
			],
			"translation":[
				2.4017281532287598,
				10.889996528625488,
				0.2279447466135025
			]
		}
	],
	"animations":[
		{
			"channels":[
				{
					"sampler":0,
					"target":{
						"node":1,
						"path":"translation"
					}
				}
			],
			"name":"CubeAction",
			"samplers":[
				{
					"input":20,
					"interpolation":"LINEAR",
					"output":21
				}
			]
		}
	],
	"materials":[
		{
			"doubleSided":true,
			"name":"green",
			"pbrMetallicRoughness":{
				"baseColorFactor":[
					0.07227148860692978,
					0.4286902844905853,
					0.08021994680166245,
					1
				],
				"metallicFactor":0,
				"roughnessFactor":0.5
			}
		},
		{
			"doubleSided":true,
			"name":"lightGreen",
			"pbrMetallicRoughness":{
				"baseColorFactor":[
					0.2581826150417328,
					0.5457245111465454,
					0.06847833096981049,
					1
				],
				"metallicFactor":0,
				"roughnessFactor":0.5
			}
		},
		{
			"doubleSided":true,
			"name":"Black",
			"pbrMetallicRoughness":{
				"baseColorFactor":[
					0.010329809971153736,
					0.01032981276512146,
					0.010329822078347206,
					1
				],
				"metallicFactor":0,
				"roughnessFactor":0.5
			}
		},
		{
			"doubleSided":true,
			"name":"orange",
			"pbrMetallicRoughness":{
				"baseColorFactor":[
					0.7230550646781921,
					0.3185465335845947,
					0.05780551955103874,
					1
				],
				"metallicFactor":0,
				"roughnessFactor":0.5
			}
		}
	],
	"meshes":[
		{
			"name":"Wall_Art_Classical_Plane",
			"primitives":[
				{
					"attributes":{
						"POSITION":0,
						"NORMAL":1
					},
					"indices":2,
					"material":0
				},
				{
					"attributes":{
						"POSITION":3,
						"NORMAL":4
					},
					"indices":5,
					"material":1
				},
				{
					"attributes":{
						"POSITION":6,
						"NORMAL":7
					},
					"indices":8,
					"material":2
				},
				{
					"attributes":{
						"POSITION":9,
						"NORMAL":10
					},
					"indices":11,
					"material":3
				}
			]
		},
		{
			"name":"Cube.001",
			"primitives":[
				{
					"attributes":{
						"POSITION":12,
						"NORMAL":13,
						"TEXCOORD_0":14
					},
					"indices":15,
					"material":0
				},
				{
					"attributes":{
						"POSITION":16,
						"NORMAL":17,
						"TEXCOORD_0":18
					},
					"indices":19,
					"material":2
				}
			]
		}
	],
	"accessors":[
		{
			"bufferView":0,
			"componentType":5126,
			"count":52,
			"max":[
				3.764364004135132,
				0.33882400393486023,
				-1.5350159406661987
			],
			"min":[
				-3.782654047012329,
				-0.15291555225849152,
				-12.262117385864258
			],
			"type":"VEC3"
		},
		{
			"bufferView":1,
			"componentType":5126,
			"count":52,
			"type":"VEC3"
		},
		{
			"bufferView":2,
			"componentType":5123,
			"count":120,
			"type":"SCALAR"
		},
		{
			"bufferView":3,
			"componentType":5126,
			"count":26,
			"max":[
				3.764364004135132,
				9.999999974752427e-07,
				-3.6253459453582764
			],
			"min":[
				-3.782654047012329,
				-9.999999974752427e-07,
				-9.965184211730957
			],
			"type":"VEC3"
		},
		{
			"bufferView":4,
			"componentType":5126,
			"count":26,
			"type":"VEC3"
		},
		{
			"bufferView":5,
			"componentType":5123,
			"count":66,
			"type":"SCALAR"
		},
		{
			"bufferView":6,
			"componentType":5126,
			"count":75,
			"max":[
				3.764364004135132,
				0.33882400393486023,
				-1.2637419700622559
			],
			"min":[
				-3.782654047012329,
				-0.1707019954919815,
				-12.153741836547852
			],
			"type":"VEC3"
		},
		{
			"bufferView":7,
			"componentType":5126,
			"count":75,
			"type":"VEC3"
		},
		{
			"bufferView":8,
			"componentType":5123,
			"count":216,
			"type":"SCALAR"
		},
		{
			"bufferView":9,
			"componentType":5126,
			"count":100,
			"max":[
				4.945537090301514,
				0.6173009872436523,
				-0.005464000161737204
			],
			"min":[
				-4.945537090301514,
				-0.22944599390029907,
				-13.490951538085938
			],
			"type":"VEC3"
		},
		{
			"bufferView":10,
			"componentType":5126,
			"count":100,
			"type":"VEC3"
		},
		{
			"bufferView":11,
			"componentType":5123,
			"count":183,
			"type":"SCALAR"
		},
		{
			"bufferView":12,
			"componentType":5126,
			"count":64,
			"max":[
				1.2263864278793335,
				1,
				1.0039641857147217
			],
			"min":[
				-1.226386547088623,
				0.5504098534584045,
				-2.204223394393921
			],
			"type":"VEC3"
		},
		{
			"bufferView":13,
			"componentType":5126,
			"count":64,
			"type":"VEC3"
		},
		{
			"bufferView":14,
			"componentType":5126,
			"count":64,
			"type":"VEC2"
		},
		{
			"bufferView":15,
			"componentType":5123,
			"count":96,
			"type":"SCALAR"
		},
		{
			"bufferView":16,
			"componentType":5126,
			"count":124,
			"max":[
				0.8676938414573669,
				1,
				1.0039641857147217
			],
			"min":[
				-0.8676938414573669,
				0.49199092388153076,
				-2.204223394393921
			],
			"type":"VEC3"
		},
		{
			"bufferView":17,
			"componentType":5126,
			"count":124,
			"type":"VEC3"
		},
		{
			"bufferView":18,
			"componentType":5126,
			"count":124,
			"type":"VEC2"
		},
		{
			"bufferView":19,
			"componentType":5123,
			"count":192,
			"type":"SCALAR"
		},
		{
			"bufferView":20,
			"componentType":5126,
			"count":41,
			"max":[
				1.6666666666666667
			],
			"min":[
				0
			],
			"type":"SCALAR"
		},
		{
			"bufferView":21,
			"componentType":5126,
			"count":41,
			"type":"VEC3"
		}
	],
	"bufferViews":[
		{
			"buffer":0,
			"byteLength":624,
			"byteOffset":0,
			"target":34962
		},
		{
			"buffer":0,
			"byteLength":624,
			"byteOffset":624,
			"target":34962
		},
		{
			"buffer":0,
			"byteLength":240,
			"byteOffset":1248,
			"target":34963
		},
		{
			"buffer":0,
			"byteLength":312,
			"byteOffset":1488,
			"target":34962
		},
		{
			"buffer":0,
			"byteLength":312,
			"byteOffset":1800,
			"target":34962
		},
		{
			"buffer":0,
			"byteLength":132,
			"byteOffset":2112,
			"target":34963
		},
		{
			"buffer":0,
			"byteLength":900,
			"byteOffset":2244,
			"target":34962
		},
		{
			"buffer":0,
			"byteLength":900,
			"byteOffset":3144,
			"target":34962
		},
		{
			"buffer":0,
			"byteLength":432,
			"byteOffset":4044,
			"target":34963
		},
		{
			"buffer":0,
			"byteLength":1200,
			"byteOffset":4476,
			"target":34962
		},
		{
			"buffer":0,
			"byteLength":1200,
			"byteOffset":5676,
			"target":34962
		},
		{
			"buffer":0,
			"byteLength":366,
			"byteOffset":6876,
			"target":34963
		},
		{
			"buffer":0,
			"byteLength":768,
			"byteOffset":7244,
			"target":34962
		},
		{
			"buffer":0,
			"byteLength":768,
			"byteOffset":8012,
			"target":34962
		},
		{
			"buffer":0,
			"byteLength":512,
			"byteOffset":8780,
			"target":34962
		},
		{
			"buffer":0,
			"byteLength":192,
			"byteOffset":9292,
			"target":34963
		},
		{
			"buffer":0,
			"byteLength":1488,
			"byteOffset":9484,
			"target":34962
		},
		{
			"buffer":0,
			"byteLength":1488,
			"byteOffset":10972,
			"target":34962
		},
		{
			"buffer":0,
			"byteLength":992,
			"byteOffset":12460,
			"target":34962
		},
		{
			"buffer":0,
			"byteLength":384,
			"byteOffset":13452,
			"target":34963
		},
		{
			"buffer":0,
			"byteLength":164,
			"byteOffset":13836
		},
		{
			"buffer":0,
			"byteLength":492,
			"byteOffset":14000
		}
	],
	"buffers":[
		{
			"byteLength":14492,
			"uri":"data:application/octet-stream;base64,"
		}
	]
}
