<?xml version="1.0" encoding="UTF-8"?>
<svg id="Calque_1" data-name="Calque 1" xmlns="http://www.w3.org/2000/svg" viewBox="0 0 442 442">
  <polygon class="canvas-ur" points="310.64 48.25 199.64 196.25 118.64 247.25 44.64 176.25 1 278.25 1 1 143.64 1 310.64 48.25" style="fill: none; stroke: #1d1d1b; stroke-miterlimit: 10; stroke-width: 2px;"/>
  <polygon class='canvas-dr' points="310.64 226.25 226.64 360.25 82.64 441 1 441 1 278.25 44.64 176.25 118.64 247.25 221 256.25 310.64 226.25" style="fill: none; stroke: #1d1d1b; stroke-miterlimit: 10; stroke-width: 2px;"/>
  <polygon class='canvas-dl' points="441 150.25 441 441 82.64 441 226.64 360.25 310.64 226.25 395.64 304.25 441 150.25" style="fill: none; stroke: #1d1d1b; stroke-miterlimit: 10; stroke-width: 2px;"/>
  <polygon class="canvas-ul" points="441 1 441 150.25 395.64 304.25 310.64 226.25 221 256.25 118.64 247.25 199.64 196.25 310.64 48.25 143.64 1 441 1" style="fill: none; stroke: #1d1d1b; stroke-miterlimit: 10; stroke-width: 2px;"/>
</svg>
