<svg width="902" height="31" viewBox="0 0 902 31" fill="none" xmlns="http://www.w3.org/2000/svg">
<path d="M2 8.78609C60.2554 8.78609 118.511 8.78609 176.766 8.78609C177.888 8.78609 193.177 7.24144 192.735 10.7821C192.199 15.0704 160.294 13.0605 157.249 13.2218C133.47 14.4816 109.654 16.6049 85.8345 16.7703C70.9108 16.874 55.2127 15.3289 40.3687 17.2139C36.7865 17.6688 19.9537 21.8605 16.416 18.3228C12.6786 14.5854 21.2362 12.5936 22.8477 12.3346C39.8242 9.60628 57.3936 10.7821 74.5235 10.7821C95.1971 10.7821 156.41 20.7624 135.736 20.7624C126.567 20.7624 116.427 14.5207 107.348 12.7782C92.2278 9.87643 77.5643 9.58652 62.3253 8.34252C46.6341 7.0616 29.5071 2.79791 13.9764 2.79791" stroke="black" stroke-width="3" stroke-linecap="round"/>
<path d="M185.663 9.97058C268.74 9.97058 351.818 9.97058 434.895 9.97058C470.275 9.97058 505.656 9.97058 541.037 9.97058C544.957 9.97058 566.405 6.92486 568.911 11.9382C570.364 14.8432 535.437 11.8819 534.15 11.7196C496.072 6.91694 458.719 2.33327 420.247 2.10011C385.15 1.8874 350.512 1.34377 316.073 8.87746C299.414 12.5215 281.942 17.4913 264.805 17.841C235.992 18.4291 201.195 22.6555 175.825 9.97058" stroke="black" stroke-width="3" stroke-linecap="round"/>
<path d="M555.575 17.841C642.66 17.841 729.746 17.841 816.831 17.841C818.988 17.841 843.679 19.8087 832.572 19.8087C805.691 19.8087 778.493 11.3573 751.681 9.09607C706.793 5.31031 662.37 11.9382 617.555 11.9382C597.551 11.9382 577.547 11.9382 557.543 11.9382" stroke="black" stroke-width="3" stroke-linecap="round"/>
<path d="M823.707 20.7733C840.15 20.7733 856.593 20.7733 873.036 20.7733C878.764 20.7733 884.492 20.7733 890.221 20.7733C892.722 20.7733 896.357 21.4991 898.7 20.4341C900.832 19.465 898.654 20.0949 897.192 20.0949C891.895 20.0949 886.585 19.9855 881.289 20.1326C868.605 20.485 856.16 24.8419 843.755 27.2174C838.063 28.3073 832.879 28.9132 827.098 28.9132C823.641 28.9132 823.979 27.7216 827.4 26.8782C843.01 23.0291 859.12 22.8082 875.109 22.8082C879.627 22.8082 884.716 22.11 888.826 24.1649" stroke="black" stroke-width="3" stroke-linecap="round"/>
</svg>
