<svg width="908" height="463" viewBox="0 0 908 463" fill="none" xmlns="http://www.w3.org/2000/svg">
<path d="M7.60657 15.3463C7.60657 123.081 7.60657 230.816 7.60657 338.552C7.60657 347.498 13.1353 356.369 13.1353 366.119C13.1353 380.216 14.9782 394.559 14.9782 408.896C14.9782 415.994 14.9782 423.092 14.9782 430.19C14.9782 441.427 10.2889 408.132 8.52802 397.014C6.0073 381.099 9.44947 365.523 9.44947 350.149C9.44947 325.723 13.1353 398.92 13.1353 423.345C13.1353 430.882 11.9892 450.588 11.2924 432.471C9.68667 390.727 7.91533 348.552 10.8828 306.611C13.9586 263.14 6.48502 222.832 15 179.914C15 154.914 14.9666 129.957 6.68513 106.889C1.02205 91.1153 2.07789 76.0032 2.07789 59.4543C2.07789 44.6498 1.90904 30.5858 6.68513 16.2969C9.11065 9.04031 12.1895 2.49235 10.8828 14.7759C7.22834 49.1312 9.44947 84.2855 9.44947 118.772C9.44947 153.501 9.44947 188.229 9.44947 222.958C9.44947 233.014 6.75934 266.483 18.6639 272.009" stroke="black" stroke-width="3" stroke-linecap="round"/>
<path d="M8.63599 440.623C66.8913 440.623 125.147 440.623 183.402 440.623C184.524 440.623 199.813 439.079 199.371 442.619C198.835 446.908 166.93 444.898 163.885 445.059C140.106 446.319 116.29 448.442 92.4705 448.608C77.5468 448.711 61.8487 447.166 47.0047 449.051C43.4225 449.506 26.5897 453.698 23.052 450.16C19.3145 446.423 27.8722 444.431 29.4837 444.172C46.4602 441.443 64.0295 442.619 81.1595 442.619C101.833 442.619 163.046 452.6 142.372 452.6C133.203 452.6 123.063 446.358 113.984 444.615C98.8638 441.714 84.2003 441.424 68.9613 440.18C53.27 438.899 36.1431 434.635 20.6123 434.635" stroke="black" stroke-width="3" stroke-linecap="round"/>
<path d="M192.299 441.808C275.376 441.808 358.454 441.808 441.531 441.808C476.911 441.808 512.292 441.808 547.673 441.808C551.593 441.808 573.041 438.762 575.547 443.775C577 446.68 542.073 443.719 540.786 443.557C502.708 438.754 465.355 434.17 426.883 433.937C391.786 433.725 357.148 433.181 322.709 440.715C306.05 444.359 288.578 449.329 271.441 449.678C242.628 450.266 207.831 454.493 182.461 441.808" stroke="black" stroke-width="3" stroke-linecap="round"/>
<path d="M562.211 449.678C649.296 449.678 736.382 449.678 823.467 449.678C825.624 449.678 850.315 451.646 839.208 451.646C812.327 451.646 785.129 443.195 758.317 440.933C713.429 437.148 669.006 443.775 624.191 443.775C604.187 443.775 584.183 443.775 564.179 443.775" stroke="black" stroke-width="3" stroke-linecap="round"/>
<path d="M830.343 452.61C846.786 452.61 863.229 452.61 879.672 452.61C885.4 452.61 891.128 452.61 896.857 452.61C899.358 452.61 902.992 453.336 905.336 452.271C907.468 451.302 905.29 451.932 903.828 451.932C898.531 451.932 893.221 451.823 887.925 451.97C875.241 452.322 862.796 456.679 850.391 459.055C844.699 460.145 839.515 460.75 833.734 460.75C830.277 460.75 830.615 459.559 834.036 458.715C849.646 454.866 865.756 454.645 881.745 454.645C886.263 454.645 891.352 453.947 895.462 456.002" stroke="black" stroke-width="3" stroke-linecap="round"/>
<path d="M902.259 445.916C902.259 437.161 900.732 428.437 900.481 419.671C900.081 405.731 900.339 391.758 900.339 377.813C900.339 366.74 898.797 355.893 898.418 344.917C898.267 340.521 898.418 327.324 898.418 331.722C898.418 346.237 900.409 360.413 901.619 374.861C903.304 394.987 906.249 416.235 903.682 436.457C903.208 440.188 903.539 444.104 903.539 447.872C903.539 448.953 903.539 454.099 903.539 450.397" stroke="black" stroke-width="3" stroke-linecap="round"/>
<path d="M902.899 368.459C902.899 331.38 903.539 294.275 903.539 257.217C903.539 253.945 902.899 255.061 902.899 258.106C902.899 263.428 902.557 268.794 903.504 274.003C905.126 282.924 902.559 255.893 902.224 246.833C901.921 238.666 900.409 230.514 900.339 222.365C900.302 218.161 899.82 213.538 901.014 209.456C901.57 207.557 902.259 205.938 902.259 203.943" stroke="black" stroke-width="3" stroke-linecap="round"/>
<path d="M901.619 202.023C901.619 177.887 901.619 153.752 901.619 129.616C901.619 126.486 901.212 117.129 901.654 120.227C902.268 124.526 903.887 128.629 904.428 132.959C905.884 144.602 905.85 156.864 906.1 168.593C906.23 174.723 903.974 164.033 903.539 162.512C898.561 145.087 897.331 126.373 899.414 108.385C900.587 98.2564 902.259 88.7235 902.259 78.4759C902.259 73.2911 903.539 68.1869 903.539 63.1125C903.539 61.4173 904.347 56.795 902.899 56.071" stroke="black" stroke-width="3" stroke-linecap="round"/>
<path d="M902.899 55.4308C902.899 38.6657 902.259 21.4068 902.259 4.85974" stroke="black" stroke-width="3" stroke-linecap="round"/>
<path d="M898.52 12.466C854.44 13.4243 810.631 16.9515 766.449 16.9515C721.483 16.9515 676.518 16.9515 631.553 16.9515C612.005 16.9515 592.458 16.9515 572.91 16.9515C563.703 16.9515 574.756 16.9515 577.395 16.9515C618.023 16.9515 658.213 16.3814 698.752 13.9612C714.868 12.999 730.276 8.59623 746.015 5.32255C761.329 2.13721 776.478 2 792.032 2C811.521 2 830.919 3.49515 850.343 3.49515C860.084 3.49515 871.034 2.37029 879.914 4.90723C880.354 5.03302 886.33 7.0966 884.399 7.64834C876.587 9.88026 865.848 7.76273 857.902 7.23302C846.293 6.4591 834.731 6.48544 823.098 6.48544C795.604 6.48544 768.11 6.48544 740.616 6.48544C702.614 6.48544 666.046 14.9922 627.898 13.9612C598.665 13.1711 569.329 15.4563 539.767 15.4563C531.766 15.4563 523.764 15.4563 515.762 15.4563C511.819 15.4563 505.817 15.4563 513.768 15.4563C538.895 15.4563 564.357 16.7324 589.357 14.2934C604.965 12.7707 620.372 15.4563 635.955 15.4563C638.688 15.4563 647.547 15.5774 639.195 15.4563C619.23 15.167 599.061 12.2176 579.057 11.3031C549.634 9.95813 520.81 13.7149 491.507 13.9612C456.972 14.2514 422.602 9.47574 388.093 9.47574C360.903 9.47574 333.714 9.47574 306.524 9.47574C304.738 9.47574 293.164 10.8534 292.985 7.98059C292.793 4.91572 309.053 6.48544 310.927 6.48544C341.862 6.48544 372.755 7.69208 403.626 7.98059C423.587 8.16715 444.177 10.2551 464.013 9.39268C489.906 8.2669 517.746 -0.710192 543.838 3.8274C547.325 4.43388 550.341 4.9903 553.888 4.9903C559.713 4.9903 545.786 9.29449 543.921 9.39268C525.272 10.3742 506.355 9.47574 487.686 9.47574C467.738 9.47574 448.258 11.4595 428.379 12.466C404.043 13.6982 379.371 15.5956 355.117 12.466C304.658 5.95527 251.815 12.466 201.116 12.466C182.869 12.466 164.7 10.9709 146.543 10.9709C141.661 10.9709 140.141 10.9709 145.962 10.9709C155.706 10.9709 165.18 10.8697 174.868 9.808C193.468 7.76969 213.062 9.47574 231.767 9.47574C236.725 9.47574 261.874 4.0698 264.577 9.47574" stroke="black" stroke-width="3" stroke-linecap="round"/>
<path d="M141.797 13.3961C117.074 13.3961 92.3524 13.3961 67.6303 13.3961C55.6098 13.3961 41.6626 11.4229 29.9285 14.4402C23.1755 16.1767 15.2018 16.8636 8.31275 15.6389C6.5812 15.3311 4.91412 15.7091 3.28584 14.9429C0.760637 13.7546 8.86837 14.7043 11.6382 14.3629C26.904 12.4808 41.9798 9.36483 57.3058 7.90521C78.1315 5.92181 99.1957 5.73977 120.103 5.73977C129.486 5.73977 138.914 5.47095 148.293 5.77844C152.087 5.90286 157.199 6.19439 160.435 8.52391C162.472 9.99083 158.168 9.9967 157.651 10.0706C150.068 11.1538 142.694 12.5089 134.991 12.6614C104.183 13.2715 73.7585 8.52391 42.9598 8.52391" stroke="black" stroke-width="3" stroke-linecap="round"/>
</svg>
