<svg width="900" height="19" viewBox="0 0 900 19" fill="none" xmlns="http://www.w3.org/2000/svg">
<path d="M897.715 12.466C853.635 13.4243 809.826 16.9515 765.644 16.9515C720.678 16.9515 675.713 16.9515 630.748 16.9515C611.2 16.9515 591.653 16.9515 572.105 16.9515C562.898 16.9515 573.951 16.9515 576.59 16.9515C617.218 16.9515 657.408 16.3814 697.947 13.9612C714.063 12.999 729.471 8.59623 745.21 5.32255C760.524 2.13721 775.674 2 791.227 2C810.716 2 830.114 3.49515 849.538 3.49515C859.279 3.49515 870.229 2.37029 879.109 4.90723C879.549 5.03302 885.525 7.0966 883.594 7.64834C875.782 9.88026 865.043 7.76273 857.097 7.23302C845.488 6.4591 833.926 6.48544 822.293 6.48544C794.799 6.48544 767.305 6.48544 739.811 6.48544C701.81 6.48544 665.241 14.9922 627.093 13.9612C597.86 13.1711 568.524 15.4563 538.963 15.4563C530.961 15.4563 522.959 15.4563 514.957 15.4563C511.014 15.4563 505.012 15.4563 512.964 15.4563C538.09 15.4563 563.552 16.7324 588.552 14.2934C604.16 12.7707 619.567 15.4563 635.15 15.4563C637.883 15.4563 646.742 15.5774 638.39 15.4563C618.425 15.167 598.256 12.2176 578.252 11.3031C548.829 9.95813 520.005 13.7149 490.702 13.9612C456.167 14.2514 421.797 9.47574 387.288 9.47574C360.098 9.47574 332.909 9.47574 305.719 9.47574C303.933 9.47574 292.36 10.8534 292.18 7.98059C291.988 4.91572 308.248 6.48544 310.122 6.48544C341.057 6.48544 371.95 7.69208 402.821 7.98059C422.782 8.16715 443.372 10.2551 463.208 9.39268C489.101 8.2669 516.941 -0.710192 543.033 3.8274C546.52 4.43388 549.536 4.9903 553.083 4.9903C558.909 4.9903 544.981 9.29449 543.116 9.39268C524.467 10.3742 505.55 9.47574 486.882 9.47574C466.933 9.47574 447.453 11.4595 427.574 12.466C403.238 13.6982 378.566 15.5956 354.312 12.466C303.853 5.95527 251.01 12.466 200.311 12.466C182.064 12.466 163.895 10.9709 145.739 10.9709C140.856 10.9709 139.336 10.9709 145.157 10.9709C154.901 10.9709 164.375 10.8697 174.063 9.808C192.663 7.76969 212.257 9.47574 230.962 9.47574C235.92 9.47574 261.069 4.0698 263.772 9.47574" stroke="black" stroke-width="3" stroke-linecap="round"/>
<path d="M140.992 13.3961C116.269 13.3961 91.5474 13.3961 66.8253 13.3961C54.8048 13.3961 40.8576 11.4229 29.1235 14.4402C22.3705 16.1767 14.3969 16.8636 7.50782 15.6389C5.77627 15.3311 4.10919 15.7091 2.48091 14.9429C-0.0442945 13.7546 8.06344 14.7043 10.8333 14.3629C26.099 12.4808 41.1749 9.36483 56.5008 7.90521C77.3266 5.92181 98.3908 5.73977 119.299 5.73977C128.681 5.73977 138.109 5.47095 147.488 5.77844C151.282 5.90286 156.394 6.19439 159.63 8.52391C161.667 9.99083 157.363 9.9967 156.846 10.0706C149.263 11.1538 141.889 12.5089 134.186 12.6614C103.378 13.2715 72.9535 8.52391 42.1548 8.52391" stroke="black" stroke-width="3" stroke-linecap="round"/>
</svg>
