<svg width="181" height="38" viewBox="0 0 181 38" fill="none" xmlns="http://www.w3.org/2000/svg">
<path d="M0 27.8906L0.234375 26.8359C1.60156 26.5755 2.51302 26.276 2.96875 25.9375C3.4375 25.599 3.85417 25 4.21875 24.1406C4.59635 23.2682 5.10417 21.4779 5.74219 18.7695C6.58854 15.1888 7.35677 12.6107 8.04688 11.0352C9.10156 8.66536 10.4102 6.90755 11.9727 5.76172C13.5482 4.61589 15.1367 4.04297 16.7383 4.04297C17.7669 4.04297 18.6328 4.30339 19.3359 4.82422C20.0391 5.34505 20.3906 5.88542 20.3906 6.44531C20.3906 6.75781 20.2799 7.02474 20.0586 7.24609C19.8503 7.46745 19.5964 7.57812 19.2969 7.57812C18.9062 7.57812 18.431 7.32422 17.8711 6.81641C17.2461 6.26953 16.7578 5.91146 16.4062 5.74219C16.0677 5.57292 15.7357 5.48828 15.4102 5.48828C15.0326 5.48828 14.6615 5.59245 14.2969 5.80078C13.7891 6.08724 13.2422 6.63411 12.6562 7.44141C12.0833 8.23568 11.4844 9.42057 10.8594 10.9961C10.4557 12.0638 9.94141 13.8216 9.31641 16.2695C8.33984 20.1628 7.59766 22.7474 7.08984 24.0234C6.72526 24.9349 6.28255 25.6901 5.76172 26.2891C7.6237 25.8724 9.10807 25.6641 10.2148 25.6641C10.9049 25.6641 11.543 25.7096 12.1289 25.8008C12.7148 25.8789 13.737 26.0872 15.1953 26.4258C16.4583 26.7253 17.3438 26.875 17.8516 26.875C18.3464 26.875 18.763 26.7253 19.1016 26.4258C19.4531 26.1133 19.6289 25.7617 19.6289 25.3711C19.6289 25.1237 19.5378 24.7786 19.3555 24.3359C19.1862 23.9193 19.1016 23.5872 19.1016 23.3398C19.1016 22.9883 19.2057 22.7148 19.4141 22.5195C19.6224 22.3112 19.8958 22.207 20.2344 22.207C20.625 22.207 20.957 22.3828 21.2305 22.7344C21.5039 23.0729 21.6406 23.5417 21.6406 24.1406C21.6406 25.2734 21.1719 26.25 20.2344 27.0703C19.2969 27.8906 18.0273 28.3008 16.4258 28.3008C15.6315 28.3008 14.6094 28.2422 13.3594 28.125C9.14062 27.7474 6.38021 27.5586 5.07812 27.5586C3.16406 27.5586 1.47135 27.6693 0 27.8906Z" fill="#053225"/>
<path d="M29.4336 9.62891L29.1016 8.37891C30.1953 7.41536 30.9049 6.64714 31.2305 6.07422C31.569 5.48828 31.7383 4.9349 31.7383 4.41406C31.7383 4.1276 31.582 3.69141 31.2695 3.10547C31.0221 2.63672 30.8984 2.20052 30.8984 1.79688C30.8984 1.26302 31.0547 0.833333 31.3672 0.507812C31.6797 0.169271 32.0768 0 32.5586 0C33.0664 0 33.4896 0.195312 33.8281 0.585938C34.1667 0.963542 34.3359 1.46484 34.3359 2.08984C34.3359 3.18359 33.9779 4.32943 33.2617 5.52734C32.5586 6.71224 31.2826 8.07943 29.4336 9.62891Z" fill="#053225"/>
<path d="M49.8438 4.45312L49.5117 5.50781C48.0404 5.59896 47.0638 5.78125 46.582 6.05469C46.2695 6.23698 46.0091 6.51042 45.8008 6.875C45.5534 7.34375 44.8307 9.83073 43.6328 14.3359C43.2422 15.8203 42.2461 19.8763 40.6445 26.5039C41.556 26.8034 42.7083 26.9336 44.1016 26.8945L43.7891 27.832C43.3724 27.8451 42.5391 27.793 41.2891 27.6758C40.3906 27.5977 39.3424 27.5586 38.1445 27.5586C36.4909 27.5586 34.974 27.6823 33.5938 27.9297L33.8281 26.8945C35.2604 26.6732 36.3477 26.3867 37.0898 26.0352C37.2721 25.944 37.4154 25.8333 37.5195 25.7031C37.7148 25.4688 37.9232 25 38.1445 24.2969C38.3789 23.5807 39.1602 20.6771 40.4883 15.5859C40.8789 14.1146 41.6732 10.8984 42.8711 5.9375C41.9727 5.91146 40.8724 6.03516 39.5703 6.30859L39.9414 5.23438C40.4883 5.09115 41.0482 4.99349 41.6211 4.94141C42.194 4.8763 43.4896 4.81771 45.5078 4.76562C47.3958 4.71354 48.8411 4.60938 49.8438 4.45312Z" fill="#053225"/>
<path d="M60.2148 23.3203L60.625 24.4531C57.526 26.888 54.9089 28.1055 52.7734 28.1055C51.6406 28.1055 50.8138 27.7018 50.293 26.8945C49.7852 26.0872 49.5312 25.0651 49.5312 23.8281C49.5312 21.7708 50.0781 19.6549 51.1719 17.4805C52.2656 15.306 53.5938 13.6393 55.1562 12.4805C56.3802 11.582 57.7604 11.1328 59.2969 11.1328C60.2604 11.1328 60.9896 11.3151 61.4844 11.6797C61.9792 12.0443 62.2266 12.487 62.2266 13.0078C62.2266 13.4115 62.0964 13.7435 61.8359 14.0039C61.5755 14.2513 61.2109 14.375 60.7422 14.375C60.2865 14.375 59.7005 14.1667 58.9844 13.75C58.2422 13.3073 57.6237 13.0859 57.1289 13.0859C56.4909 13.0859 55.8529 13.3789 55.2148 13.9648C54.5898 14.5378 53.9909 15.6576 53.418 17.3242C52.8451 18.9909 52.5586 20.6641 52.5586 22.3438C52.5586 23.5807 52.7995 24.5378 53.2812 25.2148C53.6328 25.7357 54.1276 25.9961 54.7656 25.9961C56.2891 25.9961 58.1055 25.1042 60.2148 23.3203Z" fill="#053225"/>
<path d="M72.7734 11.1328C74.0495 11.1328 75.1107 11.6406 75.957 12.6562C76.8034 13.6719 77.2266 15.0846 77.2266 16.8945C77.2266 19.7852 76.2109 22.3828 74.1797 24.6875C72.1484 26.9792 70 28.125 67.7344 28.125C66.3411 28.125 65.2148 27.6693 64.3555 26.7578C63.5091 25.8464 63.0859 24.6029 63.0859 23.0273C63.0859 20.293 63.8672 17.7669 65.4297 15.4492C67.3958 12.5716 69.8438 11.1328 72.7734 11.1328ZM71.1133 12.5977C70.0065 12.5977 68.9323 13.3919 67.8906 14.9805C66.862 16.556 66.3477 18.737 66.3477 21.5234C66.3477 23.2161 66.6667 24.5508 67.3047 25.5273C67.7734 26.2435 68.3984 26.6016 69.1797 26.6016C70.2734 26.6016 71.2695 25.9245 72.168 24.5703C73.3138 22.8125 73.8867 20.6315 73.8867 18.0273C73.8867 16.0742 73.6198 14.681 73.0859 13.8477C72.5651 13.0143 71.9076 12.5977 71.1133 12.5977Z" fill="#053225"/>
<path d="M79.6875 15.7031L79.0234 15.0195C80.6901 13.431 82.0182 12.3763 83.0078 11.8555C83.9974 11.3346 84.8438 11.0742 85.5469 11.0742C85.8203 11.0742 86.0352 11.1328 86.1914 11.25C86.3477 11.3672 86.4258 11.5039 86.4258 11.6602C86.4258 11.7773 86.3932 11.9857 86.3281 12.2852L85.4492 16.2109C86.7773 14.7396 88.444 13.3659 90.4492 12.0898C91.5169 11.4258 92.3958 11.0938 93.0859 11.0938C93.5938 11.0938 93.9909 11.2565 94.2773 11.582C94.5638 11.9076 94.707 12.3763 94.707 12.9883C94.707 13.3919 94.6484 13.8477 94.5312 14.3555C94.3229 15.2018 93.776 17.0443 92.8906 19.8828C92.0573 22.5391 91.6406 24.3034 91.6406 25.1758C91.6406 25.4362 91.6797 25.6315 91.7578 25.7617C91.8359 25.8919 91.9466 25.957 92.0898 25.957C92.4674 25.957 93.0599 25.5924 93.8672 24.8633C94.4401 24.3424 95.013 23.8607 95.5859 23.418L96.0742 24.1211C94.8763 25.4492 93.6328 26.5169 92.3438 27.3242C91.5234 27.8451 90.8464 28.1055 90.3125 28.1055C89.8177 28.1055 89.4336 27.9232 89.1602 27.5586C88.8867 27.207 88.75 26.6276 88.75 25.8203C88.75 24.6615 89.4727 21.7773 90.918 17.168C91.3607 15.5273 91.582 14.5703 91.582 14.2969C91.582 13.8932 91.3411 13.6914 90.8594 13.6914C90.3385 13.6914 89.668 13.9648 88.8477 14.5117C87.6237 15.319 86.6016 16.2695 85.7812 17.3633C85.2604 18.0664 84.8242 19.1862 84.4727 20.7227L82.8906 27.5391H79.9805C80.5273 25.5859 81.0026 23.7174 81.4062 21.9336L83.1445 14.5117C83.2096 14.2122 83.2422 13.9974 83.2422 13.8672C83.2422 13.5156 83.112 13.3398 82.8516 13.3398C82.6432 13.3398 82.3438 13.4766 81.9531 13.75C81.1458 14.2839 80.3906 14.9349 79.6875 15.7031Z" fill="#053225"/>
<path d="M107.188 11.1328C108.464 11.1328 109.525 11.6406 110.371 12.6562C111.217 13.6719 111.641 15.0846 111.641 16.8945C111.641 19.7852 110.625 22.3828 108.594 24.6875C106.562 26.9792 104.414 28.125 102.148 28.125C100.755 28.125 99.6289 27.6693 98.7695 26.7578C97.9232 25.8464 97.5 24.6029 97.5 23.0273C97.5 20.293 98.2812 17.7669 99.8438 15.4492C101.81 12.5716 104.258 11.1328 107.188 11.1328ZM105.527 12.5977C104.421 12.5977 103.346 13.3919 102.305 14.9805C101.276 16.556 100.762 18.737 100.762 21.5234C100.762 23.2161 101.081 24.5508 101.719 25.5273C102.188 26.2435 102.812 26.6016 103.594 26.6016C104.688 26.6016 105.684 25.9245 106.582 24.5703C107.728 22.8125 108.301 20.6315 108.301 18.0273C108.301 16.0742 108.034 14.681 107.5 13.8477C106.979 13.0143 106.322 12.5977 105.527 12.5977Z" fill="#053225"/>
<path d="M121.641 22.8516L122.305 23.5547C121.289 24.7005 120.085 25.7487 118.691 26.6992C117.311 27.6367 116.172 28.1055 115.273 28.1055C114.87 28.1055 114.538 27.9492 114.277 27.6367C114.017 27.3372 113.887 26.9206 113.887 26.3867C113.887 25.3451 114.29 23.1836 115.098 19.9023L117.207 11.3281C117.975 8.22917 118.62 6.15234 119.141 5.09766C119.948 3.49609 121.087 2.2526 122.559 1.36719C124.043 0.481771 125.605 0.0390625 127.246 0.0390625C127.806 0.0390625 128.242 0.175781 128.555 0.449219C128.88 0.709635 129.043 1.02865 129.043 1.40625C129.043 1.82292 128.887 2.16797 128.574 2.44141C128.262 2.70182 127.806 2.83203 127.207 2.83203C126.816 2.83203 126.263 2.76693 125.547 2.63672C124.922 2.53255 124.342 2.48047 123.809 2.48047C123.275 2.48047 122.871 2.59115 122.598 2.8125C122.22 3.125 121.875 3.78255 121.562 4.78516C121.263 5.78776 120.768 7.76693 120.078 10.7227L118.145 18.9062C117.181 23.0078 116.699 25.1497 116.699 25.332C116.699 25.7487 116.849 25.957 117.148 25.957C117.435 25.957 117.852 25.7878 118.398 25.4492C119.479 24.7721 120.56 23.9062 121.641 22.8516Z" fill="#053225"/>
<path d="M132.812 11.1328C134.089 11.1328 135.15 11.6406 135.996 12.6562C136.842 13.6719 137.266 15.0846 137.266 16.8945C137.266 19.7852 136.25 22.3828 134.219 24.6875C132.188 26.9792 130.039 28.125 127.773 28.125C126.38 28.125 125.254 27.6693 124.395 26.7578C123.548 25.8464 123.125 24.6029 123.125 23.0273C123.125 20.293 123.906 17.7669 125.469 15.4492C127.435 12.5716 129.883 11.1328 132.812 11.1328ZM131.152 12.5977C130.046 12.5977 128.971 13.3919 127.93 14.9805C126.901 16.556 126.387 18.737 126.387 21.5234C126.387 23.2161 126.706 24.5508 127.344 25.5273C127.812 26.2435 128.438 26.6016 129.219 26.6016C130.312 26.6016 131.309 25.9245 132.207 24.5703C133.353 22.8125 133.926 20.6315 133.926 18.0273C133.926 16.0742 133.659 14.681 133.125 13.8477C132.604 13.0143 131.947 12.5977 131.152 12.5977Z" fill="#053225"/>
<path d="M152.285 10.9961L153.867 10.6445C152.917 13.6914 152.044 16.7448 151.25 19.8047C150.677 21.9922 150.28 23.8151 150.059 25.2734C149.941 26.0026 149.876 26.9271 149.863 28.0469C149.837 29.9219 149.629 31.4323 149.238 32.5781C148.691 34.1797 147.669 35.4688 146.172 36.4453C144.688 37.4219 142.923 37.9102 140.879 37.9102C139.121 37.9102 137.734 37.4935 136.719 36.6602C135.716 35.8398 135.215 34.8958 135.215 33.8281C135.215 32.7734 135.618 31.7904 136.426 30.8789C137.025 30.1888 138.275 29.3555 140.176 28.3789C141.139 27.8711 142.044 27.3503 142.891 26.8164C141.927 27.3112 141.178 27.5586 140.645 27.5586C140.163 27.5586 139.733 27.3372 139.355 26.8945C138.991 26.4388 138.809 25.8398 138.809 25.0977C138.809 22.7018 139.518 20.3255 140.938 17.9688C142.37 15.599 144.089 13.8216 146.094 12.6367C147.331 11.9076 148.88 11.543 150.742 11.543C151.107 11.543 151.556 11.556 152.09 11.582L152.285 10.9961ZM150.098 13.8867C149.473 13.7695 148.919 13.7109 148.438 13.7109C147.201 13.7109 146.139 14.0365 145.254 14.6875C144.368 15.3385 143.613 16.4323 142.988 17.9688C142.116 20.1432 141.68 21.9727 141.68 23.457C141.68 24.069 141.849 24.5833 142.188 25C142.539 25.4167 142.93 25.625 143.359 25.625C143.88 25.625 144.525 25.3776 145.293 24.8828C146.061 24.375 146.686 23.7435 147.168 22.9883C147.663 22.2331 148.164 20.931 148.672 19.082L150.098 13.8867ZM147.441 24.5312C146.556 25.3255 144.85 26.5951 142.324 28.3398C140.098 29.8503 138.73 30.9375 138.223 31.6016C137.715 32.2786 137.461 32.9948 137.461 33.75C137.461 34.4922 137.786 35.1562 138.438 35.7422C139.102 36.3411 139.902 36.6406 140.84 36.6406C141.725 36.6406 142.585 36.4193 143.418 35.9766C144.251 35.5469 144.974 34.9154 145.586 34.082C146.211 33.2617 146.641 32.3307 146.875 31.2891C147.109 30.2474 147.233 28.8672 147.246 27.1484C147.259 26.7708 147.324 25.8984 147.441 24.5312Z" fill="#053225"/>
<path d="M163.477 2.73438C163.88 2.73438 164.212 2.87109 164.473 3.14453C164.733 3.40495 164.863 3.74349 164.863 4.16016C164.863 4.73307 164.661 5.24089 164.258 5.68359C163.867 6.11328 163.424 6.32812 162.93 6.32812C162.539 6.32812 162.214 6.19141 161.953 5.91797C161.693 5.64453 161.562 5.28646 161.562 4.84375C161.562 4.25781 161.751 3.76302 162.129 3.35938C162.507 2.94271 162.956 2.73438 163.477 2.73438ZM155.781 15.6641L154.922 15C156.224 13.5677 157.409 12.5521 158.477 11.9531C159.557 11.3411 160.475 11.0352 161.23 11.0352C161.647 11.0352 161.966 11.1263 162.188 11.3086C162.409 11.4909 162.52 11.7383 162.52 12.0508C162.52 12.4284 162.096 14.0299 161.25 16.8555C159.87 21.4779 159.18 24.2643 159.18 25.2148C159.18 25.3971 159.225 25.5534 159.316 25.6836C159.408 25.8008 159.505 25.8594 159.609 25.8594C160.026 25.8594 161.094 25.0521 162.812 23.4375L163.574 24.1797C161.79 25.8594 160.488 26.9336 159.668 27.4023C158.848 27.8711 158.177 28.1055 157.656 28.1055C157.201 28.1055 156.836 27.9622 156.562 27.6758C156.302 27.3893 156.172 26.9922 156.172 26.4844C156.172 24.8568 157.148 20.8789 159.102 14.5508C159.193 14.2513 159.238 13.9844 159.238 13.75C159.238 13.4896 159.121 13.3594 158.887 13.3594C158.626 13.3594 158.327 13.4635 157.988 13.6719C157.663 13.8802 156.927 14.5443 155.781 15.6641Z" fill="#053225"/>
<path d="M178.086 10.8008L179.375 10.5273L177.91 15.4688C177.324 17.4349 176.771 19.7005 176.25 22.2656C175.964 23.6589 175.82 24.5573 175.82 24.9609C175.82 25.3646 175.983 25.5664 176.309 25.5664C176.517 25.5664 176.849 25.4297 177.305 25.1562C178.112 24.6745 178.887 24.0755 179.629 23.3594L180.254 24.1211C178.77 25.4753 177.819 26.2956 177.402 26.582C176.569 27.1549 175.775 27.5781 175.02 27.8516C174.525 28.0339 174.043 28.125 173.574 28.125C173.236 28.125 172.982 28.0469 172.812 27.8906C172.643 27.7344 172.559 27.5065 172.559 27.207C172.559 27.0117 172.611 26.7448 172.715 26.4062L173.496 23.75C172.376 25.0911 171.042 26.2435 169.492 27.207C168.542 27.806 167.669 28.1055 166.875 28.1055C166.12 28.1055 165.54 27.8385 165.137 27.3047C164.59 26.5885 164.316 25.651 164.316 24.4922C164.316 23.112 164.681 21.5755 165.41 19.8828C166.152 18.1901 167.142 16.6536 168.379 15.2734C169.616 13.8932 170.918 12.8776 172.285 12.2266C173.34 11.7318 174.694 11.4844 176.348 11.4844C176.764 11.4844 177.188 11.5104 177.617 11.5625L178.086 10.8008ZM175.664 13.7891C174.961 13.6458 174.368 13.5742 173.887 13.5742C172.715 13.5742 171.693 13.8997 170.82 14.5508C169.948 15.1888 169.134 16.3477 168.379 18.0273C167.637 19.694 167.266 21.3607 167.266 23.0273C167.266 23.9128 167.415 24.5508 167.715 24.9414C168.014 25.332 168.405 25.5273 168.887 25.5273C169.785 25.5273 170.749 25.0456 171.777 24.082C172.806 23.1055 173.561 21.7057 174.043 19.8828L175.664 13.7891Z" fill="#053225"/>
</svg>
