<svg width="64" height="64" viewBox="0 0 64 64" fill="none" xmlns="http://www.w3.org/2000/svg">
<path fill-rule="evenodd" clip-rule="evenodd" d="M0 17.1163C0 7.66322 7.66322 0 17.1163 0H46.8837C56.3368 0 64 7.66322 64 17.1163V46.8837C64 56.3368 56.3368 64 46.8837 64H17.1163C7.66322 64 0 56.3368 0 46.8837V17.1163ZM22.9795 32.0903L28.933 38.0438C29.8048 38.9156 31.2184 38.9156 32.0903 38.0438L43.9973 26.1368C44.8691 25.2649 44.8691 23.8514 43.9973 22.9795C43.1254 22.1076 41.7118 22.1076 40.8399 22.9795L30.5116 33.3078L26.1368 28.933C25.2649 28.0611 23.8513 28.0611 22.9795 28.933C22.1076 29.8048 22.1076 31.2184 22.9795 32.0903Z" fill="#242424"/>
</svg>
