<svg width="64" height="64" viewBox="0 0 64 64" fill="none" xmlns="http://www.w3.org/2000/svg">
<path fill-rule="evenodd" clip-rule="evenodd" d="M5.33325 19.5971C5.33325 11.7195 11.7193 5.3335 19.5968 5.3335H44.403C52.2806 5.3335 58.6666 11.7195 58.6666 19.5971V44.4033C58.6666 52.2808 52.2806 58.6668 44.403 58.6668H19.5968C11.7193 58.6668 5.33325 52.2808 5.33325 44.4033V19.5971ZM24.4828 32.0754L29.4441 37.0366C30.1706 37.7632 31.3486 37.7632 32.0752 37.0366L41.9976 27.1142C42.7242 26.3876 42.7242 25.2096 41.9976 24.4831C41.2711 23.7565 40.0931 23.7565 39.3665 24.4831L30.7596 33.09L27.1139 29.4443C26.3874 28.7178 25.2094 28.7178 24.4828 29.4443C23.7563 30.1709 23.7563 31.3488 24.4828 32.0754Z" fill="white"/>
</svg>
