<svg width="64" height="64" viewBox="0 0 64 64" fill="none" xmlns="http://www.w3.org/2000/svg">
<path fill-rule="evenodd" clip-rule="evenodd" d="M17.1163 0C7.66322 0 0 7.66322 0 17.1163V46.8837C0 56.3368 7.66322 64 17.1163 64H46.8837C56.3368 64 64 56.3368 64 46.8837V17.1163C64 7.66322 56.3368 0 46.8837 0H17.1163ZM39.894 24.1074C40.7658 24.9793 40.7658 26.3928 39.894 27.2647L35.1579 32.0007L39.894 36.7367C40.7658 37.6086 40.7658 39.0222 39.894 39.8941C39.0221 40.7659 37.6085 40.7659 36.7366 39.8941L32.0006 35.158L27.2647 39.894C26.3928 40.7658 24.9793 40.7658 24.1074 39.894C23.2355 39.0221 23.2355 37.6085 24.1074 36.7366L28.8433 32.0007L24.1074 27.2648C23.2355 26.3929 23.2355 24.9794 24.1074 24.1075C24.9793 23.2356 26.3928 23.2356 27.2647 24.1075L32.0006 28.8434L36.7366 24.1074C37.6085 23.2355 39.0221 23.2355 39.894 24.1074Z" fill="#242424"/>
</svg>
