<svg width="64" height="64" viewBox="0 0 64 64" fill="none" xmlns="http://www.w3.org/2000/svg">
<path fill-rule="evenodd" clip-rule="evenodd" d="M19.5968 5.3335C11.7193 5.3335 5.33325 11.7195 5.33325 19.5971V44.4033C5.33325 52.2808 11.7193 58.6668 19.5968 58.6668H44.403C52.2806 58.6668 58.6666 52.2808 58.6666 44.4033V19.5971C58.6666 11.7195 52.2806 5.3335 44.403 5.3335H19.5968ZM38.5782 25.423C39.3048 26.1495 39.3048 27.3275 38.5782 28.0541L34.6315 32.0008L38.5782 35.9475C39.3048 36.674 39.3048 37.852 38.5782 38.5786C37.8517 39.3051 36.6737 39.3051 35.9471 38.5786L32.0004 34.6319L28.0538 38.5785C27.3273 39.305 26.1493 39.305 25.4227 38.5785C24.6962 37.8519 24.6962 36.6739 25.4227 35.9474L29.3693 32.0008L25.4227 28.0542C24.6962 27.3276 24.6962 26.1496 25.4227 25.4231C26.1493 24.6965 27.3273 24.6965 28.0538 25.4231L32.0004 29.3697L35.9471 25.423C36.6737 24.6964 37.8517 24.6964 38.5782 25.423Z" fill="white"/>
</svg>
