<svg width="64" height="64" viewBox="0 0 64 64" fill="none" xmlns="http://www.w3.org/2000/svg">
<path fill-rule="evenodd" clip-rule="evenodd" d="M64 48C64 56.8366 56.8366 64 48 64H16C7.16345 64 0 56.8366 0 48V16C0 7.16345 7.16345 0 16 0H48C56.8366 0 64 7.16345 64 16V48ZM32.5657 34.4402C32.2533 34.7526 31.7467 34.7526 31.4343 34.4402L24.0971 27.1029C23.1598 26.1657 21.6402 26.1657 20.7029 27.1029C19.7657 28.0402 19.7657 29.5598 20.7029 30.4971L28.0402 37.8343C30.2271 40.0213 33.7729 40.0212 35.9598 37.8343L43.2971 30.4971C44.2343 29.5598 44.2343 28.0402 43.2971 27.1029C42.3598 26.1657 40.8402 26.1657 39.9029 27.1029L32.5657 34.4402Z" fill="#242424"/>
</svg>
