<svg width="65" height="65" viewBox="0 0 65 65" fill="none" xmlns="http://www.w3.org/2000/svg">
<path fill-rule="evenodd" clip-rule="evenodd" d="M17.3837 0C7.78296 0 0 7.78296 0 17.3837V47.6163C0 57.217 7.78296 65 17.3837 65H47.6163C57.217 65 65 57.217 65 47.6163V17.3837C65 7.78296 57.217 0 47.6163 0H17.3837ZM32.5003 49.8837C31.248 49.8837 30.2329 48.8686 30.2329 47.6163V44.593C30.2329 43.3408 31.248 42.3256 32.5003 42.3256C33.7526 42.3256 34.7677 43.3408 34.7677 44.593V47.6163C34.7677 48.8686 33.7526 49.8837 32.5003 49.8837ZM28.7212 23.4302C28.7212 21.6909 29.2873 20.5912 29.9466 19.9318C30.6273 19.2511 31.5496 18.8954 32.5003 18.8954C33.4511 18.8954 34.3733 19.2511 35.054 19.9318C35.7133 20.5912 36.2794 21.6909 36.2794 23.4302C36.2794 24.4785 36.0482 24.7793 35.8599 24.9933C35.6985 25.1768 35.4752 25.3729 35.0812 25.6888L34.8925 25.8393C34.5517 26.1104 34.1195 26.4542 33.6811 26.8524C33.412 27.0969 33.1285 27.3464 32.8593 27.5832C32.4817 27.9155 32.1322 28.223 31.8908 28.4567C31.3725 28.9581 30.8503 29.5649 30.5411 30.4576C30.267 31.2487 30.2274 32.089 30.2172 32.8871C30.2119 33.3087 30.2168 33.8462 30.2224 34.4721C30.2273 35.0141 30.2329 35.6227 30.2329 36.2791C30.2329 37.5313 31.248 38.5465 32.5003 38.5465C33.7526 38.5465 34.7677 37.5313 34.7677 36.2791C34.7677 35.4986 34.7616 34.8766 34.7565 34.3528C34.751 33.7973 34.7466 33.3514 34.7518 32.9447C34.7608 32.2274 34.8057 32.0115 34.8224 31.9536C34.8421 31.9266 34.8981 31.857 35.044 31.7159C35.2429 31.5234 35.4423 31.3493 35.7138 31.1123C35.969 30.8894 36.2881 30.6109 36.7303 30.2091C37.0493 29.9193 37.3478 29.6815 37.6847 29.4131L37.9179 29.2269C38.3219 28.903 38.8195 28.4948 39.2647 27.9887C40.2896 26.8237 40.8143 25.4052 40.8143 23.4302C40.8143 20.6347 39.8687 18.3332 38.2606 16.7252C36.6739 15.1384 34.5728 14.3605 32.5003 14.3605C30.4278 14.3605 28.3267 15.1384 26.74 16.7252C25.1319 18.3332 24.1864 20.6347 24.1864 23.4302C24.1864 24.6825 25.2015 25.6977 26.4538 25.6977C27.7061 25.6977 28.7212 24.6825 28.7212 23.4302Z" fill="#242424"/>
</svg>
