<svg width="64" height="64" viewBox="0 0 64 64" fill="none" xmlns="http://www.w3.org/2000/svg">
<path fill-rule="evenodd" clip-rule="evenodd" d="M22.8111 3.20509C28.1987 -1.06837 35.8013 -1.06836 41.1889 3.20509L58.3596 16.8249C61.9218 19.6504 64 23.9592 64 28.5191V49.1007C64 57.3294 57.3607 64 49.1707 64H44.4878C41.4704 64 39.0244 61.5424 39.0244 58.5108V49.1007C39.0244 46.9353 37.2772 45.1799 35.1219 45.1799H28.878C26.7228 45.1799 24.9756 46.9353 24.9756 49.1007V58.5108C24.9756 61.5424 22.5296 64 19.5122 64H14.8293C6.63929 64 0 57.3294 0 49.1007V28.5191C0 23.9592 2.07825 19.6504 5.6404 16.8249L22.8111 3.20509Z" fill="#242424"/>
</svg>
