<svg width="64" height="64" viewBox="0 0 64 64" fill="none" xmlns="http://www.w3.org/2000/svg">
<path fill-rule="evenodd" clip-rule="evenodd" d="M24.3425 8.0044C28.8322 4.44319 35.1676 4.4432 39.6573 8.0044L53.9663 19.3543C56.9347 21.7088 58.6666 25.2995 58.6666 29.0994V46.2508C58.6666 53.108 53.1338 58.6668 46.3089 58.6668H42.4064C39.892 58.6668 37.8536 56.6188 37.8536 54.0925V46.2508C37.8536 44.4463 36.3976 42.9834 34.6015 42.9834H29.3983C27.6022 42.9834 26.1463 44.4463 26.1463 46.2508V54.0925C26.1463 56.6188 24.1079 58.6668 21.5934 58.6668H17.691C10.866 58.6668 5.33325 53.108 5.33325 46.2508V29.0994C5.33325 25.2995 7.06512 21.7088 10.0336 19.3543L24.3425 8.0044Z" fill="white"/>
</svg>
