<svg width="64" height="64" viewBox="0 0 64 64" fill="none" xmlns="http://www.w3.org/2000/svg">
<path fill-rule="evenodd" clip-rule="evenodd" d="M0 17.1163C0 7.66322 7.66322 0 17.1163 0H46.8837C56.3368 0 64 7.66322 64 17.1163V46.8837C64 56.3368 56.3368 64 46.8837 64H17.1163C7.66322 64 0 56.3368 0 46.8837V17.1163ZM35.7209 29.0233C35.7209 27.7902 34.7214 26.7907 33.4884 26.7907H27.5349C26.3019 26.7907 25.3023 27.7902 25.3023 29.0233C25.3023 30.2563 26.3019 31.2558 27.5349 31.2558H31.2558V46.8837C31.2558 48.1167 32.2554 49.1163 33.4884 49.1163C34.7214 49.1163 35.7209 48.1167 35.7209 46.8837V29.0233ZM35.7209 17.1163C35.7209 15.8833 34.7214 14.8837 33.4884 14.8837C32.2554 14.8837 31.2558 15.8833 31.2558 17.1163V20.093C31.2558 21.326 32.2554 22.3256 33.4884 22.3256C34.7214 22.3256 35.7209 21.326 35.7209 20.093V17.1163Z" fill="#242424"/>
</svg>
