<svg width="64" height="64" viewBox="0 0 64 64" fill="none" xmlns="http://www.w3.org/2000/svg">
<path fill-rule="evenodd" clip-rule="evenodd" d="M5.33325 19.5971C5.33325 11.7195 11.7193 5.3335 19.5968 5.3335H44.403C52.2806 5.3335 58.6666 11.7195 58.6666 19.5971V44.4033C58.6666 52.2808 52.2806 58.6668 44.403 58.6668H19.5968C11.7193 58.6668 5.33325 52.2808 5.33325 44.4033V19.5971ZM35.1007 29.5195C35.1007 28.492 34.2677 27.6591 33.2402 27.6591H28.279C27.2515 27.6591 26.4185 28.492 26.4185 29.5195C26.4185 30.5471 27.2515 31.38 28.279 31.38H31.3798V44.4033C31.3798 45.4308 32.2127 46.2637 33.2402 46.2637C34.2677 46.2637 35.1007 45.4308 35.1007 44.4033V29.5195ZM35.1007 19.5971C35.1007 18.5696 34.2677 17.7366 33.2402 17.7366C32.2127 17.7366 31.3798 18.5696 31.3798 19.5971V22.0777C31.3798 23.1052 32.2127 23.9381 33.2402 23.9381C34.2677 23.9381 35.1007 23.1052 35.1007 22.0777V19.5971Z" fill="white"/>
</svg>
