<svg width="64" height="64" viewBox="0 0 64 64" fill="none" xmlns="http://www.w3.org/2000/svg">
<path fill-rule="evenodd" clip-rule="evenodd" d="M18.6666 5.3335C11.3028 5.3335 5.33325 11.303 5.33325 18.6668V45.3335C5.33325 52.6973 11.3028 58.6668 18.6666 58.6668H45.3333C52.697 58.6668 58.6666 52.6973 58.6666 45.3335V18.6668C58.6666 11.303 52.697 5.3335 45.3333 5.3335H18.6666ZM29.9664 31.5288C29.7061 31.7891 29.7061 32.2112 29.9664 32.4716L36.0808 38.586C36.8618 39.367 36.8618 40.6333 36.0808 41.4144C35.2997 42.1954 34.0334 42.1954 33.2524 41.4144L27.138 35.3C25.3155 33.4775 25.3155 30.5228 27.138 28.7003L33.2524 22.5859C34.0334 21.8049 35.2998 21.8049 36.0808 22.5859C36.8618 23.367 36.8618 24.6333 36.0808 25.4144L29.9664 31.5288Z" fill="white"/>
</svg>
