<svg width="64" height="64" viewBox="0 0 64 64" fill="none" xmlns="http://www.w3.org/2000/svg">
<path fill-rule="evenodd" clip-rule="evenodd" d="M16 0C7.16344 0 0 7.16344 0 16V48C0 56.8366 7.16344 64 16 64H48C56.8366 64 64 56.8366 64 48V16C64 7.16344 56.8366 0 48 0H16ZM29.5598 31.4343C29.2474 31.7467 29.2474 32.2533 29.5598 32.5657L36.8971 39.9029C37.8343 40.8402 37.8343 42.3598 36.8971 43.2971C35.9598 44.2343 34.4402 44.2343 33.5029 43.2971L26.1657 35.9598C23.9787 33.7729 23.9788 30.2271 26.1657 28.0402L33.5029 20.7029C34.4402 19.7657 35.9598 19.7657 36.8971 20.7029C37.8343 21.6402 37.8343 23.1598 36.8971 24.0971L29.5598 31.4343Z" fill="#242424"/>
</svg>
