<svg width="64" height="64" viewBox="0 0 64 64" fill="none" xmlns="http://www.w3.org/2000/svg">
<path fill-rule="evenodd" clip-rule="evenodd" d="M48 0C56.8366 0 64 7.16344 64 16V48C64 56.8366 56.8366 64 48 64H16C7.16345 64 0 56.8366 0 48V16C0 7.16344 7.16345 0 16 0H48ZM34.4402 31.4343C34.7526 31.7467 34.7526 32.2533 34.4402 32.5657L27.1029 39.9029C26.1657 40.8402 26.1657 42.3598 27.1029 43.2971C28.0402 44.2343 29.5598 44.2343 30.4971 43.2971L37.8343 35.9598C40.0213 33.7729 40.0212 30.2271 37.8343 28.0402L30.4971 20.7029C29.5598 19.7657 28.0402 19.7657 27.1029 20.7029C26.1657 21.6402 26.1657 23.1598 27.1029 24.0971L34.4402 31.4343Z" fill="#242424"/>
</svg>
