<svg width="54" height="54" viewBox="0 0 54 54" fill="none" xmlns="http://www.w3.org/2000/svg">
<path fill-rule="evenodd" clip-rule="evenodd" d="M20 54C8.9543 54 0 45.0457 0 34V20C0 8.9543 8.95431 0 20 0H34C45.0457 0 54 8.95431 54 20V34C54 45.0457 45.0457 54 34 54H20ZM22.3587 26.9516C22.2522 27.0505 22.2522 27.2191 22.3587 27.318L31.0195 35.3602C31.323 35.642 31.3406 36.1166 31.0588 36.4201C30.7769 36.7236 30.3024 36.7412 29.9988 36.4594L21.338 28.4172C20.5924 27.7248 20.5924 26.5447 21.338 25.8524L29.9988 17.8102C30.3024 17.5283 30.7769 17.5459 31.0588 17.8494C31.3406 18.153 31.323 18.6275 31.0195 18.9094L22.3587 26.9516Z" fill="#242424"/>
</svg>
