<svg width="58" height="55" viewBox="0 0 58 55" fill="none" xmlns="http://www.w3.org/2000/svg">
<path d="M39.3906 2.33926L18.7038 16.1304C18.3753 16.3495 17.9893 16.4663 17.5944 16.4663L4.49999 16.4664C3.11928 16.4664 2 17.5857 2 18.9664V35.5664C2 36.9471 3.11929 38.0664 4.5 38.0664H14.8515C15.273 38.0664 15.6838 37.9332 16.0251 37.6858L42.5 18.4987V4.00336C42.5 2.40597 40.7197 1.45319 39.3906 2.33926Z" fill="#242424"/>
<path d="M42.5 50.5293V28.9375C42.5 28.9292 42.4904 28.9245 42.4839 28.9296L25.7202 41.8667C25.6707 41.9049 25.668 41.9787 25.7147 42.0204L30.35 46.1664L39.3906 52.1934C40.7197 53.0795 42.5 52.1267 42.5 50.5293Z" fill="#242424"/>
<path d="M5.375 47.9677L56 8.89839M18.7038 16.1304L39.3906 2.33926C40.7197 1.45319 42.5 2.40597 42.5 4.00336V18.4987L16.0251 37.6858C15.6838 37.9332 15.273 38.0664 14.8515 38.0664H4.5C3.11929 38.0664 2 36.9471 2 35.5664V18.9664C2 17.5857 3.11928 16.4664 4.49999 16.4664L17.5944 16.4663C17.9893 16.4663 18.3753 16.3495 18.7038 16.1304ZM42.5 50.5293C42.5 52.1267 40.7197 53.0795 39.3906 52.1934L30.35 46.1664L25.7147 42.0204C25.668 41.9787 25.6707 41.9049 25.7202 41.8667L42.4839 28.9296C42.4904 28.9245 42.5 28.9292 42.5 28.9375V50.5293Z" stroke="#242424" stroke-width="3" stroke-linecap="round"/>
</svg>
