<svg width="54" height="54" viewBox="0 0 54 54" fill="none" xmlns="http://www.w3.org/2000/svg">
<path fill-rule="evenodd" clip-rule="evenodd" d="M14.4419 0C6.46584 0 0 6.46584 0 14.4419V39.5581C0 47.5342 6.46584 54 14.4419 54H39.5581C47.5342 54 54 47.5342 54 39.5581V14.4419C54 6.46584 47.5342 0 39.5581 0H14.4419ZM30.5357 26.7903L39.4788 17.8472C40.4552 16.8709 40.4552 15.288 39.4788 14.3116C38.5025 13.3353 36.9196 13.3353 35.9433 14.3116L27.5296 22.7253L18.5122 13.7079C17.5359 12.7316 15.953 12.7316 14.9766 13.7079C14.0003 14.6842 14.0003 16.2671 14.9766 17.2434L23.4647 25.7315L14.9703 34.2259C13.9939 35.2022 13.9939 36.7851 14.9702 37.7614C15.9466 38.7377 17.5295 38.7377 18.5058 37.7614L26.4708 29.7964L35.2977 38.6233C36.274 39.5996 37.8569 39.5996 38.8332 38.6233C39.8095 37.6469 39.8095 36.064 38.8332 35.0877L30.5357 26.7903Z" fill="#242424"/>
</svg>
