<svg width="54" height="54" viewBox="0 0 54 54" fill="none" xmlns="http://www.w3.org/2000/svg">
<path fill-rule="evenodd" clip-rule="evenodd" d="M0 14.4419C0 6.46584 6.46584 0 14.4419 0H39.5581C47.5342 0 54 6.46584 54 14.4419V39.5581C54 47.5342 47.5342 54 39.5581 54H14.4419C6.46584 54 0 47.5342 0 39.5581V14.4419ZM30.2559 24.4885C30.2559 23.3839 29.3604 22.4885 28.2559 22.4885H23.2326C22.128 22.4885 21.2326 23.3839 21.2326 24.4885C21.2326 25.5931 22.128 26.4885 23.2326 26.4885H26.2559V39.5583C26.2559 40.6628 27.1513 41.5583 28.2559 41.5583C29.3604 41.5582 30.2559 40.6628 30.2559 39.5582V24.4885ZM30.2558 14.442C30.2558 13.3374 29.3604 12.442 28.2558 12.442C27.1512 12.442 26.2558 13.3374 26.2558 14.442V16.9536C26.2558 18.0582 27.1512 18.9536 28.2558 18.9536C29.3604 18.9536 30.2558 18.0582 30.2558 16.9536V14.442Z" fill="#242424"/>
</svg>
