<svg width="58" height="54" viewBox="0 0 58 54" fill="none" xmlns="http://www.w3.org/2000/svg">
<path d="M36.2692 4.00372C36.2692 2.33362 34.3433 1.39916 33.0315 2.43274L16.2522 15.6528C15.8995 15.9307 15.4635 16.0818 15.0145 16.0818L4.49998 16.0819C3.11928 16.0819 2 17.2012 2 18.5819V35.1819C2 36.5626 3.11929 37.6819 4.5 37.6819H15.0146C15.4636 37.6819 15.8996 37.833 16.2523 38.1109L33.0315 51.3308C34.3433 52.3644 36.2692 51.43 36.2692 49.7599V4.00372Z" fill="#242424"/>
<path d="M44.5769 35.1895C46.5331 32.8753 47.6923 29.9989 47.6923 26.8818C47.6923 23.7647 46.5331 20.8882 44.5769 18.5741M50.8077 42.4587C54.068 38.1197 56 32.7263 56 26.8818C56 21.0373 54.068 15.6439 50.8077 11.3049M33.0315 51.3308L16.2523 38.1109C15.8996 37.833 15.4636 37.6819 15.0146 37.6819H4.5C3.11929 37.6819 2 36.5626 2 35.1819V18.5819C2 17.2012 3.11928 16.0819 4.49998 16.0819L15.0145 16.0818C15.4635 16.0818 15.8995 15.9307 16.2522 15.6528L33.0315 2.43274C34.3433 1.39916 36.2692 2.33362 36.2692 4.00372V49.7599C36.2692 51.43 34.3433 52.3644 33.0315 51.3308Z" stroke="#242424" stroke-width="3" stroke-linecap="round"/>
</svg>
