<svg width="56" height="56" viewBox="0 0 56 56" fill="none" xmlns="http://www.w3.org/2000/svg">
<path d="M1 22.6509C1 21.3682 1.59278 20.1602 2.6 19.3906L25.6 1.81509C27.0222 0.728302 28.9778 0.728302 30.4 1.81509L53.4 19.3906C54.4072 20.1602 55 21.3682 55 22.6509V50.9245C55 53.1753 53.2091 55 51 55H37.5263C36.974 55 36.5263 54.5438 36.5263 53.9811V40.5321C36.5263 39.4067 35.6309 38.4943 34.5263 38.4943H21.4737C20.3691 38.4943 19.4737 39.4067 19.4737 40.5321V53.9811C19.4737 54.5438 19.026 55 18.4737 55H5C2.79086 55 1 53.1753 1 50.9245V22.6509Z" fill="#242424" stroke="#242424" stroke-width="1.5"/>
</svg>
