<svg width="54" height="54" viewBox="0 0 54 54" fill="none" xmlns="http://www.w3.org/2000/svg">
<path fill-rule="evenodd" clip-rule="evenodd" d="M0 14.4419C0 6.46584 6.46584 0 14.4419 0H39.5581C47.5342 0 54 6.46584 54 14.4419V39.5581C54 47.5342 47.5342 54 39.5581 54H14.4419C6.46584 54 0 47.5342 0 39.5581V14.4419ZM23.9759 32.5357C24.9522 33.512 26.5351 33.512 27.5114 32.5357L37.558 22.4892C38.5343 21.5129 38.5343 19.93 37.558 18.9536C36.5816 17.9773 34.9987 17.9773 34.0224 18.9536L25.7437 27.2324L22.4882 23.9769C21.5119 23.0006 19.929 23.0006 18.9527 23.9769C17.9763 24.9532 17.9763 26.5361 18.9527 27.5124L23.9759 32.5357Z" fill="#242424"/>
</svg>
