<svg width="64" height="64" viewBox="0 0 64 64" fill="none" xmlns="http://www.w3.org/2000/svg">
<path fill-rule="evenodd" clip-rule="evenodd" d="M0 16C0 7.16345 7.16344 0 16 0H48C56.8366 0 64 7.16345 64 16V48C64 56.8366 56.8366 64 48 64H16C7.16344 64 0 56.8366 0 48V16ZM31.4343 29.5598C31.7467 29.2474 32.2533 29.2474 32.5657 29.5598L39.9029 36.8971C40.8402 37.8343 42.3598 37.8343 43.2971 36.8971C44.2343 35.9598 44.2343 34.4402 43.2971 33.5029L35.9598 26.1657C33.7729 23.9787 30.2271 23.9788 28.0402 26.1657L20.7029 33.5029C19.7657 34.4402 19.7657 35.9598 20.7029 36.8971C21.6402 37.8343 23.1598 37.8343 24.0971 36.8971L31.4343 29.5598Z" fill="#242424"/>
</svg>
