<svg width="64" height="64" viewBox="0 0 64 64" fill="none" xmlns="http://www.w3.org/2000/svg">
<path fill-rule="evenodd" clip-rule="evenodd" d="M28.2905 11.3949C32.9259 7.3906 40.1219 10.6835 40.1219 16.809V48.0056C40.1219 54.131 32.9258 57.4239 28.2905 53.4196L19.6288 45.9372C19.0381 45.4269 18.2835 45.1462 17.5029 45.1462H13.4553C8.78555 45.1462 5 41.3606 5 36.6909V28.1238C5 23.4541 8.78552 19.6685 13.4552 19.6685L17.5028 19.6685C18.2834 19.6685 19.0379 19.3877 19.6287 18.8774L28.2905 11.3949ZM50.0067 15.2389C50.8683 14.5915 52.0914 14.7651 52.7388 15.6267C56.2512 20.3011 58.3333 26.1145 58.3333 32.4086C58.3333 38.7026 56.2512 44.516 52.7388 49.1904C52.0914 50.052 50.8683 50.2256 50.0067 49.5782C49.1452 48.9309 48.9716 47.7077 49.6189 46.8462C52.641 42.8243 54.4309 37.8282 54.4309 32.4086C54.4309 26.9889 52.641 21.9928 49.6189 17.9709C48.9716 17.1094 49.1452 15.8862 50.0067 15.2389ZM44.8035 23.0438C45.665 22.3964 46.8882 22.57 47.5355 23.4315C49.4143 25.9319 50.5285 29.0429 50.5285 32.4086C50.5285 35.7742 49.4143 38.8852 47.5355 41.3856C46.8882 42.2471 45.665 42.4207 44.8035 41.7733C43.942 41.126 43.7683 39.9028 44.4157 39.0413C45.8041 37.1935 46.626 34.8998 46.626 32.4086C46.626 29.9173 45.8041 27.6236 44.4157 25.7758C43.7683 24.9143 43.942 23.6911 44.8035 23.0438Z" fill="white"/>
</svg>
