<svg width="64" height="64" viewBox="0 0 64 64" fill="none" xmlns="http://www.w3.org/2000/svg">
<path fill-rule="evenodd" clip-rule="evenodd" d="M44.1117 18.7079V16.8069C44.1117 10.6832 36.9177 7.39125 32.2837 11.3943L23.6244 18.8747C23.0339 19.3848 22.2795 19.6655 21.4991 19.6655L17.4528 19.6656C12.7844 19.6656 9 23.4501 9 28.1184V36.683C9 41.1407 12.4506 44.7924 16.8264 45.113L10.8946 50.8535C10.1204 51.6027 10.1002 52.8376 10.8493 53.6117C11.5985 54.3859 12.8334 54.4062 13.6076 53.657L53.9211 14.6439C54.6952 13.8947 54.7155 12.6598 53.9663 11.8857C53.2171 11.1115 51.9822 11.0913 51.208 11.8404L44.1117 18.7079ZM40.7373 32.7141C41.9826 31.4689 44.1117 32.3508 44.1117 34.1119V47.9944C44.1117 54.118 36.9177 57.41 32.2837 53.4069L31.4145 52.6561L27.8377 48.5107C27.0812 47.6339 27.1295 46.322 27.9483 45.5032L40.7373 32.7141Z" fill="white"/>
</svg>
