<svg width="64" height="64" viewBox="0 0 64 64" fill="none" xmlns="http://www.w3.org/2000/svg">
<path fill-rule="evenodd" clip-rule="evenodd" d="M47.4285 15.7222V13.4742C47.4285 6.23291 38.7354 2.34008 33.1357 7.07381L22.6719 15.9194C21.9583 16.5227 21.0468 16.8546 20.1038 16.8546L15.2142 16.8547C9.57304 16.8547 5 21.3299 5 26.8503V36.978C5 42.2493 9.16962 46.5676 14.4573 46.9466L7.28936 53.7348C6.35388 54.6208 6.32941 56.0811 7.23472 56.9965C8.14003 57.912 9.63229 57.9359 10.5678 57.05L59.2821 10.9165C60.2176 10.0306 60.242 8.57025 59.3367 7.65479C58.4314 6.73934 56.9391 6.7154 56.0036 7.60132L47.4285 15.7222ZM43.351 32.2848C44.8557 30.8123 47.4285 31.8552 47.4285 33.9376V50.3539C47.4285 57.5952 38.7354 61.488 33.1357 56.7543L32.0855 55.8665L27.7633 50.9644C26.8491 49.9277 26.9074 48.3763 27.8969 47.4081L43.351 32.2848Z" fill="#242424"/>
</svg>
