<svg width="64" height="64" viewBox="0 0 64 64" fill="none" xmlns="http://www.w3.org/2000/svg">
<path fill-rule="evenodd" clip-rule="evenodd" d="M27.9486 6.11896C33.511 1.28217 42.1463 5.25975 42.1463 12.6587V50.3413C42.1463 57.7403 33.511 61.7178 27.9486 56.881L17.5545 47.843C16.8457 47.2266 15.9402 46.8874 15.0035 46.8874H10.1463C4.54266 46.8874 0 42.3148 0 36.6742V26.326C0 20.6854 4.54262 16.1128 10.1463 16.1127L15.0033 16.1127C15.9401 16.1127 16.8455 15.7735 17.5544 15.1572L27.9486 6.11896ZM54.0081 10.7622C55.0419 9.98023 56.5097 10.1899 57.2865 11.2306C61.5014 16.8769 64 23.899 64 31.5016C64 39.1042 61.5014 46.1263 57.2865 51.7726C56.5097 52.8132 55.0419 53.0229 54.0081 52.241C52.9742 51.459 52.7659 49.9815 53.5427 48.9409C57.1692 44.0829 59.3171 38.048 59.3171 31.5016C59.3171 24.9552 57.1692 18.9203 53.5427 14.0622C52.7659 13.0216 52.9742 11.5441 54.0081 10.7622ZM47.7642 20.1898C48.798 19.4078 50.2658 19.6175 51.0426 20.6582C53.2972 23.6784 54.6341 27.4362 54.6341 31.5016C54.6341 35.5669 53.2972 39.3248 51.0426 42.345C50.2658 43.3856 48.798 43.5953 47.7642 42.8134C46.7303 42.0314 46.522 40.554 47.2988 39.5133C48.9649 37.2814 49.9512 34.5107 49.9512 31.5016C49.9512 28.4924 48.9649 25.7218 47.2988 23.4898C46.522 22.4492 46.7303 20.9717 47.7642 20.1898Z" fill="#242424"/>
</svg>
