{
	"asset":{
		"generator":"Khronos glTF Blender I/O v4.0.44",
		"version":"2.0"
	},
	"scene":0,
	"scenes":[
		{
			"name":"Scene",
			"nodes":[
				0
			]
		}
	],
	"nodes":[
		{
			"mesh":0,
			"name":"Affinage",
			"rotation":[
				0,
				-0.9007378220558167,
				0,
				0.4343632757663727
			],
			"scale":[
				3.713083028793335,
				3.7130825519561768,
				3.713083028793335
			],
			"translation":[
				0,
				0,
				16.59986686706543
			]
		}
	],
	"materials":[
		{
			"name":"Affinage",
			"pbrMetallicRoughness":{
				"baseColorTexture":{
					"index":0
				},
				"metallicFactor":0
			}
		}
	],
	"meshes":[
		{
			"name":"Mesh_0.002",
			"primitives":[
				{
					"attributes":{
						"POSITION":0,
						"NORMAL":1,
						"TEXCOORD_0":2
					},
					"indices":3,
					"material":0
				}
			]
		}
	],
	"textures":[
		{
			"sampler":0,
			"source":0
		}
	],
	"images":[
		{
			"mimeType":"image/png",
			"name":"Baked_Affinage",
			"uri":"Baked_Affinage.png"
		}
	],
	"accessors":[
		{
			"bufferView":0,
			"componentType":5126,
			"count":25385,
			"max":[
				0.8314676284790039,
				1.4922140836715698,
				0.873878002166748
			],
			"min":[
				-0.6301538348197937,
				-0.009817598387598991,
				-0.7837651371955872
			],
			"type":"VEC3"
		},
		{
			"bufferView":1,
			"componentType":5126,
			"count":25385,
			"type":"VEC3"
		},
		{
			"bufferView":2,
			"componentType":5126,
			"count":25385,
			"type":"VEC2"
		},
		{
			"bufferView":3,
			"componentType":5123,
			"count":127164,
			"type":"SCALAR"
		}
	],
	"bufferViews":[
		{
			"buffer":0,
			"byteLength":304620,
			"byteOffset":0,
			"target":34962
		},
		{
			"buffer":0,
			"byteLength":304620,
			"byteOffset":304620,
			"target":34962
		},
		{
			"buffer":0,
			"byteLength":203080,
			"byteOffset":609240,
			"target":34962
		},
		{
			"buffer":0,
			"byteLength":254328,
			"byteOffset":812320,
			"target":34963
		}
	],
	"samplers":[
		{
			"magFilter":9729,
			"minFilter":9987
		}
	],
	"buffers":[
		{
			"byteLength":1066648,
			"uri":"Mozart_Affinage.bin"
		}
	]
}
