<svg width="48" height="48" viewBox="0 0 48 48" fill="none" xmlns="http://www.w3.org/2000/svg">
<path d="M22.9412 9V39H25.0588V9H22.9412Z" fill="#373737" fill-opacity="0.58"/>
<path d="M27.1765 11.1429V34.7143H29.2942V11.1429H27.1765Z" fill="#373737" fill-opacity="0.58"/>
<path d="M14.4707 18.4617V32.2448H16.5884V18.4617H14.4707Z" fill="#373737" fill-opacity="0.58"/>
<path d="M18.7058 13.2857V34.7143H20.8235V13.2857H18.7058Z" fill="#373737" fill-opacity="0.58"/>
<path d="M31.4119 17.5714V28.2857H33.5295V17.5714H31.4119Z" fill="#373737" fill-opacity="0.58"/>
<path d="M10.2354 20.278V30.4286H12.353V20.278H10.2354Z" fill="#373737" fill-opacity="0.58"/>
<path d="M6 21.8571V26.1428H8.11765V21.8571H6Z" fill="#373737" fill-opacity="0.58"/>
<path d="M35.647 19.7143V28.2857H37.7646V19.7143H35.647Z" fill="#373737" fill-opacity="0.58"/>
<path d="M39.8823 24V26.1429H42V24H39.8823Z" fill="#373737" fill-opacity="0.58"/>
<path d="M7.05884 40.9412L40.9412 7.05878" stroke="#373737" stroke-width="2.2857" stroke-linecap="square"/>
</svg>
