<svg width="33" height="33" viewBox="0 0 33 33" fill="none" xmlns="http://www.w3.org/2000/svg">
<path fill-rule="evenodd" clip-rule="evenodd" d="M3.12448 10.5352C3.62406 6.7 6.90366 3.73828 10.875 3.73828H21.75C25.7213 3.73828 29.0009 6.7 29.5005 10.5352H3.12448ZM3.05859 12.5742V22.4297C3.05859 26.7466 6.55812 30.2461 10.875 30.2461H21.75C26.0669 30.2461 29.5664 26.7466 29.5664 22.4297V12.5742H3.05859ZM8.83594 18.0117C8.27287 18.0117 7.81641 17.5553 7.81641 16.9922C7.81641 16.4291 8.27287 15.9727 8.83594 15.9727H10.1953C10.7584 15.9727 11.2148 16.4291 11.2148 16.9922C11.2148 17.5553 10.7584 18.0117 10.1953 18.0117H8.83594ZM14.6133 16.9922C14.6133 17.5553 15.0697 18.0117 15.6328 18.0117H16.9922C17.5553 18.0117 18.0117 17.5553 18.0117 16.9922C18.0117 16.4291 17.5553 15.9727 16.9922 15.9727H15.6328C15.0697 15.9727 14.6133 16.4291 14.6133 16.9922ZM22.4297 18.0117C21.8666 18.0117 21.4102 17.5553 21.4102 16.9922C21.4102 16.4291 21.8666 15.9727 22.4297 15.9727H23.7891C24.3521 15.9727 24.8086 16.4291 24.8086 16.9922C24.8086 17.5553 24.3521 18.0117 23.7891 18.0117H22.4297ZM7.81641 22.4297C7.81641 22.9928 8.27287 23.4492 8.83594 23.4492H10.1953C10.7584 23.4492 11.2148 22.9928 11.2148 22.4297C11.2148 21.8666 10.7584 21.4102 10.1953 21.4102H8.83594C8.27287 21.4102 7.81641 21.8666 7.81641 22.4297ZM15.6328 23.4492C15.0697 23.4492 14.6133 22.9928 14.6133 22.4297C14.6133 21.8666 15.0697 21.4102 15.6328 21.4102H16.9922C17.5553 21.4102 18.0117 21.8666 18.0117 22.4297C18.0117 22.9928 17.5553 23.4492 16.9922 23.4492H15.6328ZM21.4102 22.4297C21.4102 22.9928 21.8666 23.4492 22.4297 23.4492H23.7891C24.3521 23.4492 24.8086 22.9928 24.8086 22.4297C24.8086 21.8666 24.3521 21.4102 23.7891 21.4102H22.4297C21.8666 21.4102 21.4102 21.8666 21.4102 22.4297ZM22.4297 1.69922C21.8666 1.69922 21.4102 2.15568 21.4102 2.71875L21.4102 6.79687C21.4102 7.35995 21.8666 7.81641 22.4297 7.81641C22.9928 7.81641 23.4492 7.35995 23.4492 6.79688L23.4492 2.71875C23.4492 2.15568 22.9928 1.69922 22.4297 1.69922ZM10.1953 1.69922C9.63224 1.69922 9.17578 2.15568 9.17578 2.71875L9.17578 6.79687C9.17578 7.35995 9.63224 7.81641 10.1953 7.81641C10.7584 7.81641 11.2148 7.35995 11.2148 6.79688L11.2148 2.71875C11.2148 2.15568 10.7584 1.69922 10.1953 1.69922Z" fill="white"/>
</svg>
