<svg width="951" height="918" viewBox="0 0 951 918" fill="none" xmlns="http://www.w3.org/2000/svg">
<g clip-path="url(#clip0_329_38392)">
<path d="M-576.499 45.9542L-576.519 45.5542L-576.499 45.9542C-480.955 41.1641 -435.938 44.0666 -393.837 46.7811C-391.283 46.9458 -388.74 47.1098 -386.197 47.2713C-341.702 50.0974 -297.249 52.1722 -196.034 44.0881C-159.817 41.1971 -69.6334 40.668 20.8317 40.1373L22.0624 40.13C112.912 39.597 203.8 39.0515 240.223 36.0928C459.602 18.2708 680.419 39.0696 897.853 74.8063C904.096 75.8348 910.341 76.8955 915.909 79.7877C926.659 85.3897 932.44 95.9695 935.346 108.412C938.252 120.855 938.262 135.085 937.53 147.861C929.997 279.445 930.925 352.318 933.513 426.828C933.966 439.872 934.47 452.965 934.988 466.433C937.43 529.883 940.192 601.627 939.457 715.549C939.408 722.898 939.926 738.737 940.62 759.944C940.914 768.908 941.238 778.83 941.565 789.476C942.664 825.322 943.786 869.391 943.804 912.736C943.822 956.085 942.737 998.696 939.426 1031.63C937.77 1048.1 935.56 1062.13 932.66 1072.62C931.209 1077.86 929.591 1082.2 927.794 1085.51C925.993 1088.83 924.038 1091.06 921.941 1092.16C911.352 1097.72 896.039 1101.41 878.686 1103.83C861.345 1106.24 842.014 1107.36 823.418 1107.8C804.824 1108.24 786.974 1107.99 772.597 1107.66C767.865 1107.56 763.506 1107.44 759.62 1107.33C751.709 1107.12 745.755 1106.96 742.597 1107.04C584.436 1110.86 510.418 1108.67 418.2 1105.93C358.742 1104.17 291.719 1102.18 189.701 1101.44C159.7 1101.22 123.786 1102.24 85.7991 1103.31C79.7901 1103.48 73.7292 1103.65 67.6316 1103.82C22.9812 1105.05 -23.6414 1106.1 -66.2974 1105.17C-90.6374 1104.65 -134.927 1104.88 -181.852 1105.13C-189.031 1105.17 -196.272 1105.21 -203.512 1105.25C-258.089 1105.52 -312.644 1105.66 -340.671 1104.52C-386.893 1102.63 -411.155 1103.4 -433.122 1104.09C-437.144 1104.22 -441.089 1104.34 -445.077 1104.45C-470.834 1105.12 -498.444 1105.01 -560.492 1099.58C-592.482 1096.77 -625.12 1093.06 -650.8 1088.84C-663.641 1086.72 -674.73 1084.49 -683.125 1082.17C-687.322 1081.02 -690.834 1079.84 -693.549 1078.66C-696.281 1077.48 -698.146 1076.31 -699.111 1075.19C-709.61 1062.97 -712.233 1045.55 -713.951 1028.99L-714.378 1029.04L-713.951 1028.99C-724.36 929.027 -718.965 828.266 -713.579 727.668C-712.567 708.762 -711.555 689.862 -710.648 670.974C-703.73 526.992 -702.964 382.678 -708.324 238.624L-707.73 210.113L-707.73 210.103C-707.714 199.724 -708.757 187.711 -709.867 175.124L-709.931 174.401C-711.023 162.024 -712.163 149.105 -712.424 136.604C-712.955 111.07 -709.805 87.4743 -695.293 73.8241L-695.292 73.824C-689.358 68.2397 -680.985 63.7939 -671.23 60.2462C-661.478 56.7003 -650.376 54.0625 -639.009 52.0775C-616.273 48.1074 -592.526 46.7566 -576.499 45.9542Z" fill="#095103" stroke="#759273"/>
<path d="M946.555 715.566C947.149 619.175 943.954 523.087 940.614 426.812C937.38 333.659 939.743 240.94 944.628 147.903C945.75 126.476 945.446 101.305 932.125 83.9699C925.168 74.9048 915.477 70.365 905.021 68.283C889.944 65.2758 874.642 63.2806 859.473 60.9239C798.214 51.4106 736.784 43.184 675.195 36.7502C551.16 23.8103 426.346 18.244 301.822 24.3597C266.439 26.0947 231.176 29.42 195.768 30.4032C162.273 31.3285 128.779 31.6465 95.2849 31.9212C20.3883 32.5429 -54.5347 32.4273 -129.418 33.8731C-199.733 35.2321 -269.785 43.5888 -340.166 41.7671C-369 41.0153 -397.755 38.5575 -426.549 37.1261C-468.176 35.0442 -509.842 35.449 -551.482 37.1117C-593.109 38.7599 -638.908 38.2394 -678.33 54.8371C-695.387 62.0083 -708.391 73.2999 -714.662 92.6013C-721.488 113.565 -720.022 137.32 -718.346 159.094C-716.894 178.048 -714.57 196.916 -714.966 215.971C-715.415 237.398 -714.689 258.622 -714.068 280.063C-712.061 349.1 -711.467 418.195 -712.273 487.275C-713.091 556.312 -715.375 625.32 -718.927 694.255C-722.465 762.902 -726.835 831.577 -726.98 900.382C-727.059 934.98 -726.056 969.607 -723.336 1004.09C-721.422 1028.35 -721.686 1062.76 -703.942 1080.88C-699.823 1085.08 -693.869 1086.96 -688.575 1088.61C-679.227 1091.52 -669.59 1093.35 -660.018 1095.06C-633.323 1099.82 -606.377 1102.92 -579.444 1105.57C-537.105 1109.73 -494.527 1113.16 -451.976 1112.35C-418.561 1111.71 -385.278 1110.7 -351.85 1111.84C-276.254 1114.43 -200.578 1112.81 -124.969 1112.63C-85.296 1112.52 -45.6231 1113.58 -5.96343 1113.13C48.0207 1112.52 101.965 1110.18 155.936 1109.37C248.445 1107.98 341.085 1111.44 433.554 1114.14C515.197 1116.54 596.813 1117.41 678.483 1116.1C715.462 1115.5 752.244 1115.29 789.21 1115.7C826.23 1116.14 864.437 1116.17 900.783 1107.62C910.685 1105.3 923.953 1102.72 930.963 1093.92C936.218 1087.31 938.753 1078.14 940.707 1069.83C947.11 1042.66 948.39 1013.76 949.552 985.858C952.509 914.884 950.384 843.678 948.087 772.733C947.466 753.706 946.41 734.622 946.502 715.581C946.542 706.27 933.34 706.27 933.3 715.581C933.049 768.526 936.68 821.572 937.38 874.517C937.855 910.431 937.881 946.373 936.495 982.258C935.426 1009.92 934.343 1038.48 928.099 1065.45C927.148 1069.57 925.933 1074.25 924.494 1077.84C923.478 1080.4 921.682 1083.69 920.718 1084.81C919.147 1086.63 920.441 1085.4 918.989 1086.27C916.362 1087.84 913.378 1088.86 910.539 1089.85C902.79 1092.6 894.776 1094.39 886.749 1095.83C850.68 1102.24 813.437 1101.78 776.998 1101.04C695.844 1099.4 614.637 1103.08 533.429 1101.98C458.216 1100.96 383.042 1097.88 307.842 1096.33C256.366 1095.28 204.824 1094.1 153.349 1094.93C100.223 1095.78 47.123 1098.05 -6.00305 1098.64C-84.9659 1099.54 -164.021 1098.46 -242.997 1098.67C-310.408 1098.86 -377.727 1095.94 -445.111 1097.72C-483.675 1098.73 -522.16 1096.22 -560.592 1092.85C-588.897 1090.36 -617.229 1087.44 -645.35 1082.99C-655.859 1081.32 -666.382 1079.49 -676.759 1076.94C-682.277 1075.58 -689.882 1074.53 -694.582 1070.71C-702.252 1064.47 -705.249 1048.63 -706.794 1038.25C-709.17 1022.28 -710.174 1005.95 -711.23 989.819C-713.448 955.886 -714.095 921.867 -713.778 887.862C-713.144 820.256 -708.734 752.781 -705.328 685.291C-698.516 550.355 -696.998 415.13 -700.919 280.063C-701.539 258.882 -702.279 237.918 -701.843 216.737C-701.46 198.26 -703.533 179.971 -705.011 161.595C-706.728 140.125 -708.946 116.038 -701.671 95.4495C-694.806 76.0036 -677.379 68.6156 -660.216 63.6999C-617.546 51.454 -571.246 51.9744 -527.467 50.76C-489.933 49.719 -452.412 50.0515 -414.904 52.2202C-386.651 53.854 -358.425 56.0227 -330.119 56.4275C-285.258 57.0781 -240.463 54.201 -195.72 50.7889C-136.402 46.278 -76.5033 47.478 -17.0798 47.1021C54.0938 46.6395 125.294 46.8274 196.441 44.8322C230.529 43.878 264.472 40.7117 298.521 38.9767C359.648 35.8683 420.893 35.5936 482.059 37.6321C604.497 41.7237 726.579 55.0251 847.868 73.618C862.892 75.9168 877.903 78.3024 892.914 80.7603C904.783 82.7121 916.929 84.5049 924.085 96.2881C936.482 116.717 931.386 146.804 930.184 169.648C927.531 220.106 925.683 270.637 925.498 321.182C925.22 399.038 929.775 476.735 931.835 554.533C933.247 608.201 933.643 661.884 933.313 715.566C933.26 724.877 946.463 724.877 946.516 715.566H946.555Z" fill="#095103"/>
<path d="M423.772 36.6173C378.04 40.5498 321.257 40.4486 275.524 36.6173C253.357 34.7522 178.395 31.4268 156.201 32.8004C97.0816 36.4727 113.73 101.317 109.188 124.261L100.145 265.256C103.762 585.355 107.802 680.474 131.064 976.197C131.804 985.638 127.42 1011.68 132.385 1019.57C141.507 1034.12 142.233 1045.99 158.763 1046.84C263.444 1052.27 368.468 1044.16 473.096 1050.67C512.518 1053.13 551.861 1057.65 591.349 1057.99C630.494 1058.32 669.559 1054.53 708.559 1050.76C767.322 1045.06 826.072 1039.36 884.836 1033.67C892.11 1032.96 900.071 1031.92 905.049 1026.28C910.501 1020.11 910.435 1010.68 910.052 1002.25C895.648 688.31 913.762 200.469 911.953 105.191C910.25 15.6387 676.913 32.7859 611.826 36.6028H423.799L423.772 36.6173Z" fill="#F4F4F4"/>
<path d="M423.767 29.3877C384.583 32.7131 345.134 33.1034 305.87 31.3251C278.845 30.0962 251.9 27.7251 224.861 26.6263C210.88 26.0624 196.899 25.5853 182.904 25.3684C172.369 25.1949 161.596 24.7178 151.113 26.0769C138.835 27.6672 126.57 32.207 117.975 42.3854C110.965 50.6843 107.044 61.4266 105.301 72.458C103.611 83.128 103.493 93.9136 103.519 104.714C103.519 109.21 103.572 113.721 103.281 118.203C103.215 119.128 103.149 120.054 103.044 120.964C103.229 119.345 102.965 121.283 102.885 121.817C102.74 122.815 102.608 123.798 102.516 124.796C101.209 140.208 100.535 155.721 99.5451 171.148C98.0532 194.324 96.5746 217.5 95.0827 240.676C94.6338 247.746 94.1718 254.831 93.7229 261.901C92.9308 274.233 93.7493 286.768 93.9078 299.116C94.8451 377.246 95.9541 455.377 98.1721 533.479C99.9676 596.299 102.634 659.09 106.305 721.809C110.582 795.024 116.035 868.167 121.699 941.266C122.557 952.269 123.441 963.286 124.273 974.288C124.801 981.242 124.062 988.168 123.666 995.108C123.256 1002.45 122.715 1010.42 124.497 1017.62C126.28 1024.82 130.94 1031.12 134.228 1037.24C137.7 1043.7 142.03 1049.17 148.552 1051.94C157.279 1055.66 168.091 1054.54 177.307 1054.89C199.618 1055.73 221.944 1056.03 244.255 1056.06C289.222 1056.12 334.203 1055.11 379.17 1055.22C424.137 1055.34 468.866 1057.33 513.674 1060.91C558.483 1064.48 602.486 1066.37 647.163 1063.33C691.839 1060.3 736.331 1055.28 780.862 1050.96C803.135 1048.8 825.394 1046.64 847.666 1044.48C859.112 1043.37 870.545 1042.26 881.992 1041.16C890.587 1040.32 899.828 1039.72 906.984 1033.85C920.675 1022.62 916.463 1000.46 915.803 984.279C915.143 968.1 914.522 950.78 914.021 934.023C911.869 862.571 911.116 791.091 910.997 719.611C910.879 646.006 911.473 572.4 912.436 498.809C913.295 433.401 914.483 367.993 915.737 302.585C916.674 253.862 917.744 205.124 918.351 156.401C918.536 141.509 918.708 126.618 918.576 111.711C918.51 104.555 918.364 97.398 916.278 90.5449C913.823 82.434 909.506 75.205 904 69.1761C891.141 55.0795 873.173 47.2578 856.023 41.7637C833.962 34.7083 810.937 31.2239 788.097 28.9251C741.902 24.2551 695.298 25.007 649.011 27.2769C636.139 27.913 623.201 29.2865 610.315 29.3877C597.43 29.4889 585.548 29.3877 573.164 29.3877C531.894 29.3877 490.623 29.3877 449.353 29.3877H423.727C415.238 29.3877 415.212 43.8457 423.727 43.8457C452.416 43.8457 481.118 43.8457 509.806 43.8457C543.182 43.8457 576.557 44.0336 609.932 43.8457C622.026 43.7734 634.172 42.4866 646.252 41.865C667.745 40.7806 689.265 40.0722 710.785 40.0143C756.676 39.9131 804.27 41.2288 848.801 54.5446C857.792 57.2338 866.691 60.4868 874.678 64.6941C882.032 68.5688 888.501 72.9062 893.768 78.4436C896.818 81.6388 898.112 83.3015 899.973 86.4822C900.805 87.8991 901.545 89.3738 902.231 90.8775C902.403 91.2534 902.561 91.6293 902.72 92.0196C903.485 93.8558 902.429 91.1666 902.838 92.3088C903.182 93.2919 903.498 94.2751 903.789 95.2727C905.452 101.186 905.307 106 905.36 113.114C905.624 149.331 904.74 185.563 904.066 221.765C903.01 278.947 901.835 336.142 900.845 393.324C899.63 462.852 898.653 532.38 898.138 601.923C897.597 674.415 897.557 746.922 898.442 819.4C898.878 854.316 899.525 889.217 900.515 924.119C900.977 940.341 901.505 956.563 902.125 972.77C902.429 980.823 902.772 988.891 903.129 996.944C903.459 1004.25 905.373 1015.25 900.303 1021.15C894.957 1027.38 883.457 1026.54 876.407 1027.22C865.581 1028.27 854.756 1029.32 843.93 1030.37C821.657 1032.52 799.398 1034.69 777.126 1036.85C733.215 1041.11 689.291 1046.07 645.275 1048.98C601.232 1051.9 557.612 1049.92 513.648 1046.42C469.764 1042.92 425.932 1040.91 381.929 1040.75C337.886 1040.58 293.843 1041.56 249.8 1041.58C227.475 1041.58 205.15 1041.36 182.838 1040.61C177.874 1040.43 172.923 1040.25 167.973 1040.03C163.325 1039.83 158.018 1040.35 153.556 1038.58C148.301 1036.52 145.912 1030.6 143.363 1025.6C140.076 1019.15 136.842 1015.39 136.551 1008.11C136.247 1000.37 137.026 992.635 137.449 984.915C137.898 976.659 136.974 968.534 136.327 960.307C135.508 949.825 134.69 939.329 133.884 928.847C130.953 890.895 128.115 852.928 125.461 814.947C121.025 751.361 117.197 687.731 114.503 624.029C111.81 560.328 110.041 490.785 108.853 424.148C108.113 382.466 107.546 340.769 107.044 299.087C106.899 286.855 106.054 274.421 106.846 262.204L108.179 241.443C110.661 202.782 113.777 164.093 115.625 125.374C115.639 125.013 115.665 124.651 115.692 124.29C115.626 125.128 115.467 126.227 115.731 124.565C115.956 123.162 116.101 121.745 116.246 120.343C116.642 116.323 116.642 112.261 116.655 108.227C116.668 98.5546 116.457 88.0148 117.579 78.9063C118.781 69.1182 121.421 59.3013 127.521 52.2458C135.191 43.3686 146.466 40.5059 157.252 39.942C181.65 38.6553 206.338 40.2457 230.723 41.3011C257.656 42.4722 284.536 44.9445 311.468 45.9999C348.857 47.4602 386.391 46.9831 423.688 43.8312C432.098 43.1228 432.177 28.6504 423.688 29.3733L423.767 29.3877Z" fill="#095103"/>
<path d="M-671.051 945.78C-671.051 1021.99 -663.13 1050.44 -634.864 1051.19C-388.522 1057.81 -159.198 1047.23 87.196 1047.23C122.842 1047.23 127.014 1029.12 131.714 1020.04C134.038 1015.54 134.011 1010.18 133.945 1005.07C129.258 691.855 123.251 393.095 118.565 79.878C118.459 73.1695 118.195 65.9261 114.195 60.6634C110.485 55.7766 104.385 53.6657 98.6292 51.8874C-61.6994 2.32549 -232.577 9.87255 -399.704 17.8678C-466.917 21.0775 -534.143 24.3016 -601.356 27.5113C-611.641 28.0028 -622.282 28.5812 -631.484 33.3667C-640.686 38.1523 -656.04 59.9116 -654.482 70.4514L-654.601 93.5119C-659.922 307.866 -665.255 522.219 -670.576 736.573C-671.724 782.954 -672.873 829.538 -667.645 875.615L-671.025 945.766L-671.051 945.78Z" fill="#F1F1F1"/>
<path d="M-677.656 945.781C-677.63 969.911 -677.604 994.895 -672.613 1018.53C-669.748 1032.07 -664.282 1046.65 -652.559 1053.65C-647.199 1056.85 -641.271 1058.13 -635.224 1058.41C-619.791 1059.1 -604.318 1059.17 -588.871 1059.46C-557.925 1060.04 -526.979 1060.37 -496.032 1060.52C-434.721 1060.79 -373.41 1060.3 -312.098 1059.46C-250.787 1058.63 -190.558 1057.51 -129.788 1056.54C-67.8162 1055.55 -5.83145 1054.72 56.1533 1054.5C70.7154 1054.46 85.7264 1055.63 100.183 1053.51C109.24 1052.18 117.98 1049.1 125.122 1042.68C129.598 1038.66 132.819 1033.37 135.446 1027.77C137.057 1024.36 138.879 1020.96 139.684 1017.19C141.308 1009.63 140.463 1001.39 140.344 993.695C139.315 925.178 138.205 856.647 137.057 788.131C135.921 720.699 134.76 653.267 133.585 585.835C132.41 518.201 131.221 450.567 130.06 382.918C128.898 315.139 127.762 247.345 126.68 179.566C126.139 145.33 126.363 110.963 125.069 76.7414C124.818 70.0619 123.894 63.1943 120.29 57.628C116.686 52.0617 111.405 48.9532 105.688 46.7122C92.3804 41.5074 78.1219 38.2688 64.3783 34.7555C6.92193 20.0662 -51.8414 11.9842 -110.684 8.02272C-169.527 4.06124 -230.231 4.22028 -289.984 6.04198C-351.085 7.8926 -412.145 11.2179 -473.219 14.1384C-504.627 15.6421 -536.035 17.1457 -567.444 18.6493C-582.521 19.3722 -597.769 19.4156 -612.793 21.0638C-624.491 22.3506 -635.264 25.4735 -643.858 34.582C-650.842 41.9845 -657.523 51.7581 -660.243 62.11C-661.866 68.298 -661.127 75.5993 -661.153 81.9752C-661.299 108.838 -662.262 135.701 -662.936 162.549C-664.639 231.254 -666.355 299.958 -668.058 368.662C-669.775 437.713 -671.491 506.75 -673.207 575.801C-674.91 644.173 -677.366 712.574 -678.092 780.974C-678.277 797.789 -678.184 814.604 -677.524 831.404C-677.194 839.79 -676.719 848.175 -676.072 856.546C-675.57 862.908 -674.422 869.414 -674.263 875.79C-673.973 888.166 -675.478 900.903 -676.072 913.265C-676.6 924.094 -677.115 934.937 -677.643 945.766C-678.092 955.063 -664.89 955.034 -664.441 945.766C-663.913 934.764 -663.385 923.761 -662.857 912.759C-662.276 900.6 -660.823 888.108 -661.087 875.934C-661.206 870.513 -662.196 864.975 -662.645 859.568C-663.371 850.864 -663.886 842.146 -664.256 833.428C-664.929 817.307 -665.061 801.158 -664.943 785.023C-664.678 751.697 -663.556 718.371 -662.725 685.046C-659.384 550.384 -656.031 415.737 -652.691 281.076C-651.859 247.418 -651.014 213.745 -650.182 180.087C-649.443 150.405 -648.176 120.679 -648.017 90.997C-647.978 84.3319 -647.753 77.6378 -647.912 70.9727C-648.11 63.0208 -643.212 55.5027 -638.564 49.546C-635.964 46.2207 -633.085 42.6929 -629.587 40.4664C-624.636 37.3001 -618.418 36.1724 -612.793 35.5362C-597.782 33.8446 -582.507 33.8446 -567.444 33.1218C-506.198 30.1868 -444.953 27.2229 -383.707 24.3313C-322.462 21.4397 -267.026 19.112 -208.632 19.2855C-150.238 19.459 -92.4253 22.2494 -34.7841 30.1434C-6.14831 34.0615 22.3422 39.3387 50.5291 46.1484C64.3519 49.4882 78.0955 53.1894 91.7335 57.3099C96.8956 58.8714 103.312 59.9702 107.629 63.7148C112.237 67.7052 111.867 75.1366 111.959 80.9198C114.072 213.586 116.21 346.252 118.521 478.919C120.831 611.18 123.168 743.456 125.307 875.718C125.848 909.217 126.376 942.701 126.891 976.2C127.023 984.441 127.142 992.697 127.261 1000.94C127.353 1007.07 127.749 1012.66 125.096 1018.22C124.171 1020.17 123.3 1022.15 122.297 1024.04C120.646 1027.14 119.96 1028.22 117.755 1030.56C112.751 1035.87 105.081 1038.37 97.9386 1039.37C83.3632 1041.41 68.0221 1040 53.3412 1040.06C22.9495 1040.18 -7.44213 1040.44 -37.8338 1040.78C-157.222 1042.17 -276.597 1045.05 -395.999 1045.9C-456.241 1046.34 -516.496 1046.23 -576.738 1045.22C-591.723 1044.98 -606.707 1044.67 -621.692 1044.3C-627.197 1044.17 -632.821 1044.38 -638.3 1043.72C-640.439 1043.46 -637.072 1043.99 -639.145 1043.57C-639.766 1043.44 -640.386 1043.31 -641.007 1043.14C-641.627 1042.97 -642.195 1042.78 -642.789 1042.59C-643.027 1042.52 -645.324 1041.56 -644.043 1042.16C-648.585 1040.02 -651.067 1037.36 -653.417 1033.32C-656.836 1027.44 -658.539 1021.21 -660.005 1014.17C-664.599 991.931 -664.454 968.436 -664.467 945.766C-664.467 936.47 -677.683 936.441 -677.67 945.766L-677.656 945.781Z" fill="#095103"/>
<path d="M412.123 29.3891C367.909 33.177 313.014 33.0903 268.786 29.3891C247.359 27.5963 174.878 24.3866 153.424 25.7167C96.2585 29.2445 112.365 91.7173 107.982 113.809L99.2423 249.613C102.741 557.929 83.9276 674.026 106.411 958.863C107.124 967.957 108.009 977.47 112.801 985.09C121.62 999.099 139.932 1001.6 155.906 1002.42C257.102 1007.66 358.654 999.851 459.797 1006.11C497.912 1008.47 535.934 1012.83 574.115 1013.17C611.966 1013.48 649.738 1009.84 687.431 1006.2C744.24 1000.7 801.05 995.225 857.846 989.731C864.883 989.051 872.579 988.039 877.385 982.617C882.666 976.675 882.587 967.581 882.217 959.47C868.289 657.096 885.795 187.198 884.052 95.4475C882.415 9.19128 656.814 25.7167 593.892 29.3746H412.11L412.123 29.3891Z" fill="#F1F1F1"/>
<path d="M412.123 22.1602C374.496 25.3409 336.619 25.7313 298.926 24.0542C272.931 22.8976 246.989 20.5987 220.98 19.5433C207.421 18.9794 193.862 18.5312 180.291 18.2999C170.151 18.1264 159.827 17.6782 149.714 18.8204C137.634 20.1795 125.541 24.3578 116.867 34.1314C109.909 41.9676 105.948 52.3629 104.153 62.9895C102.357 73.6161 102.265 83.7511 102.278 94.1898C102.278 98.4693 102.344 102.763 102.107 107.028C102.067 107.838 101.988 108.662 101.935 109.472C101.803 111.655 102.054 108.937 101.803 110.614C101.631 111.785 101.433 112.956 101.328 114.142C100.073 128.426 99.4793 142.812 98.5551 157.125C97.1161 179.419 95.6902 201.714 94.2512 223.993C93.7891 231.165 93.327 238.336 92.8649 245.521C92.1784 256.177 92.7857 266.934 92.8649 277.604C93.4326 354.78 92.4953 431.942 90.977 509.09C89.7228 573.255 88.2441 637.419 88.5742 701.612C88.9439 773.324 91.7296 844.992 96.6276 916.501C97.3538 927.012 98.1195 937.523 98.9116 948.034C99.6773 958.053 99.8093 968.68 102.608 978.338C107.797 996.295 122.544 1004.95 138.637 1007.8C157.741 1011.19 177.65 1010.71 196.952 1011.13C218.406 1011.59 239.859 1011.63 261.326 1011.52C303.943 1011.29 346.573 1010.41 389.204 1010.91C431.834 1011.42 474.926 1014.51 517.794 1017.69C560.609 1020.89 603.041 1020.76 645.843 1017.24C688.433 1013.73 730.958 1009.22 773.496 1005.11C795.029 1003.03 816.548 1000.95 838.081 998.868C847.851 997.928 857.938 997.683 867.575 995.586C875.972 993.764 883.26 988.747 886.626 979.87C889.676 971.803 888.937 962.897 888.567 954.381C888.224 946.617 887.894 938.868 887.603 931.104C886.983 915.026 886.455 898.949 886.006 882.872C884.065 813.734 883.418 744.552 883.378 675.386C883.339 605.134 883.959 534.883 884.923 464.646C885.781 402.419 886.93 340.207 888.131 277.979C889.016 232.234 890.019 186.504 890.56 140.759C890.719 127.009 890.864 113.26 890.706 99.5248C890.508 83.3319 885.662 69.351 874.48 58.3774C861.199 45.3508 843.745 38.1362 826.793 33.0615C805.353 26.6422 783.094 23.4614 760.98 21.3795C716.634 17.2011 671.944 18.0108 627.518 20.2517C615.728 20.8445 603.846 22.1602 592.044 22.1602C580.241 22.1602 567.553 22.1602 555.302 22.1602C515.668 22.1602 476.035 22.1602 436.415 22.1602C428.309 22.1602 420.216 22.1602 412.109 22.1602C404.003 22.1602 403.594 36.6182 412.109 36.6182C439.557 36.6182 467.018 36.6182 494.465 36.6182C526.851 36.6182 559.236 36.6182 591.621 36.6182C602.83 36.6182 614.091 35.3892 625.287 34.8109C645.513 33.7699 665.752 33.0615 686.004 32.9458C730.311 32.6856 776.057 33.8422 819.242 45.8279C827.863 48.2279 837.448 51.481 844.881 55.0954C848.59 56.9027 852.234 58.9123 855.733 61.1822C857.317 62.2232 858.888 63.3076 860.406 64.4642C862.532 66.0835 862.44 65.9968 864.248 67.7028C865.463 68.8305 866.625 70.0305 867.734 71.2739C868.341 71.9534 868.935 72.6619 869.516 73.3703C870.176 74.1944 870.968 75.2932 870.651 74.8161C871.602 76.2041 872.487 77.6499 873.292 79.139C873.662 79.833 874.018 80.5415 874.348 81.2644C874.52 81.6403 875.602 84.315 875.048 82.8258C875.668 84.5174 876.183 86.2524 876.579 88.0162C876.764 88.8114 876.909 89.6211 877.054 90.4163C877.411 92.2958 877.134 90.1994 877.292 92.209C877.503 94.985 877.503 97.7754 877.53 100.566C877.886 134.325 877.028 168.128 876.408 201.873C875.417 256.061 874.295 310.235 873.332 364.424C872.157 430.554 871.193 496.7 870.651 562.83C870.084 632.46 869.965 702.104 870.731 771.733C871.1 805.102 871.655 838.486 872.526 871.84C872.949 887.845 873.424 903.85 874.005 919.855C874.586 935.86 876.21 951.215 875.748 966.728C875.47 975.909 871.536 980.145 863.443 981.721C853.99 983.557 844.102 983.774 834.53 984.699C813.301 986.752 792.071 988.805 770.842 990.858C728.608 994.936 686.387 999.446 644.1 1002.87C602.196 1006.27 560.635 1006.36 518.705 1003.25C476.774 1000.14 434.289 996.988 391.91 996.425C349.531 995.861 307.851 996.699 265.828 996.974C244.665 997.104 223.502 997.104 202.352 996.714C183.142 996.352 163.392 996.815 144.301 994.126C137.238 993.128 129.818 991.321 123.824 986.926C117.038 981.967 114.609 973.755 113.579 965.253C111.15 945.2 110.384 924.713 109.064 904.53C106.635 867.561 104.76 830.548 103.532 793.493C101.42 729.82 101.446 666.118 102.437 602.416C103.48 534.97 105.235 467.538 105.896 400.091C106.305 359.248 106.371 318.389 106.067 277.531C105.988 266.919 105.381 256.22 106.067 245.623C106.503 238.784 106.952 231.931 107.387 225.092C108.813 203.029 110.226 180.966 111.652 158.904C112.602 144.128 114.055 129.279 114.517 114.474C114.517 114.229 114.543 113.983 114.57 113.737C114.305 116.845 114.609 114.041 114.702 113.303C114.886 112.002 115.032 110.701 115.15 109.385C115.507 105.322 115.494 101.245 115.494 97.1681C115.494 87.8572 115.335 77.3607 116.55 68.845C117.936 59.216 120.59 50.2665 126.755 43.6303C134.135 35.6929 144.974 33.235 155.101 32.7579C178.891 31.6157 202.919 33.1049 226.683 34.1458C252.613 35.2736 278.476 37.6591 304.392 38.6423C340.276 40.0013 376.292 39.5387 412.096 36.517C420.519 35.8085 420.585 21.3361 412.096 22.059L412.123 22.1602Z" fill="#759273"/>
<path d="M-681.02 895.562C-681.02 968.965 -681.02 1007.51 -653.691 1008.23C-415.535 1014.61 -177.141 1016.79 60.7376 1003.07C70.3357 1002.52 81.6236 1000.9 86.1519 992.141C88.3963 987.804 88.3832 982.643 88.3039 977.727C85.7522 659.896 70.7147 375.652 89.9769 71.0979C89.8845 64.6352 89.6204 57.6665 85.7522 52.5917C82.1612 47.8784 76.2728 45.8543 70.7147 44.1483C-84.2934 -3.59195 -264.765 5.25514 -426.348 12.9612C-491.329 16.0552 -556.324 19.1492 -621.306 22.2577C-631.247 22.7348 -641.532 23.2987 -650.43 27.8963C-659.329 32.4939 -666.511 42.3254 -665.006 52.4749L-665.124 74.6823C-670.273 281.142 -675.422 487.602 -680.571 694.062C-681.68 738.737 -682.789 783.6 -677.733 827.986L-680.994 895.562H-681.02Z" fill="#F1F1F1"/>
<path d="M-687.63 895.562C-687.63 919.591 -688.224 943.924 -685.768 967.837C-684.355 981.601 -682.164 998.213 -672.143 1007.99C-667.681 1012.34 -662.242 1014.58 -656.353 1015.26C-642.993 1016.78 -629.157 1016.11 -615.73 1016.44C-586.183 1017.18 -556.636 1017.83 -527.077 1018.4C-409.497 1020.62 -291.878 1021.33 -174.285 1019.11C-115.205 1017.98 -56.1377 1016.11 2.88976 1013.34C17.3463 1012.66 31.8028 1011.92 46.2593 1011.12C57.8245 1010.49 70.7759 1011.23 81.549 1005.76C86.2622 1003.36 90.2361 999.5 92.5069 994.324C95.5698 987.341 94.9229 979.288 94.8041 971.77C94.5664 955.851 94.3288 939.948 94.0912 924.029C92.1505 794.732 92.8268 665.228 90.8861 535.93C88.9321 405.967 107.992 275.998 106.038 146.036C105.801 130.118 105.563 114.214 105.325 98.2956C105.207 90.3437 105.444 81.8013 105.325 73.8494C105.233 67.5747 105.154 61.112 102.976 55.2131C97.9982 41.7239 84.4263 38.8323 72.9271 35.4346C59.7248 31.5454 22.4292 28.8502 9.06847 25.6983C-45.6154 12.8018 -101.382 5.84754 -157.201 2.56558C-270.305 -4.08508 -383.726 3.67885 -496.738 9.07167C-526.218 10.4741 -555.699 11.8765 -585.193 13.2934C-599.319 13.9729 -613.485 14.3777 -627.612 15.3609C-640.194 16.2428 -653.383 18.6718 -662.849 28.5899C-666.44 32.3634 -669.358 37.1779 -670.81 42.3973C-671.906 46.3588 -671.655 50.2479 -671.628 54.2817C-671.576 60.7878 -671.655 67.3083 -671.734 73.8144C-672.064 103.873 -673.213 133.945 -673.965 164.003C-677.187 293.041 -680.408 422.078 -683.616 551.115C-685.227 615.583 -687.775 680.109 -688.105 744.606C-688.184 760.148 -687.986 775.705 -687.247 791.219C-686.877 798.983 -686.375 806.732 -685.702 814.453C-685.293 819.137 -684.408 823.951 -684.382 828.65C-684.289 840.954 -685.583 853.446 -686.177 865.735C-686.653 875.668 -687.141 885.615 -687.616 895.547C-688.065 904.844 -674.863 904.815 -674.414 895.547C-673.912 885.282 -673.424 875.003 -672.922 864.737C-672.341 852.781 -671.087 840.621 -671.179 828.65C-671.206 825.224 -671.826 821.739 -672.156 818.313C-672.949 809.942 -673.529 801.542 -673.965 793.142C-674.718 778.264 -674.969 763.373 -674.929 748.481C-674.863 717.093 -673.78 685.704 -673.001 654.345C-669.859 528.286 -666.717 402.227 -663.562 276.168C-661.991 212.972 -660.406 149.777 -658.835 86.5808C-658.637 78.5711 -658.518 70.5903 -658.479 62.5806C-658.452 56.9564 -659.601 49.207 -657.277 44.1467C-651.957 32.5514 -638.147 30.5417 -627.625 29.8044C-613.512 28.8212 -599.346 28.402 -585.206 27.7369C-528.238 25.0188 -471.284 22.2862 -414.316 19.5971C-357.348 16.9079 -303.826 14.5946 -248.521 14.5657C-194.075 14.5368 -139.55 16.7778 -85.4204 23.4863C-58.5537 26.8116 -31.8191 31.308 -5.30888 37.1635C7.8142 40.0551 44.8591 42.4757 57.8369 46.0757C64.4777 47.9119 71.092 49.8203 77.6799 51.8733C82.1291 53.2613 87.8985 54.6637 90.3145 59.4782C92.9418 64.6976 92.11 72.1289 92.1892 77.8398C92.308 85.7917 92.0704 94.3341 92.1892 102.286C92.4268 118.204 92.6644 134.108 92.9021 150.026C93.3641 181.183 90.424 214.895 90.8861 246.052C91.8366 309.71 79.6478 371.472 80.5984 435.13C82.4863 561.102 77.3243 686.673 79.2122 812.645C79.6875 844.467 80.1628 876.304 80.6512 908.126C80.8889 924.044 81.1266 939.948 81.3642 955.866C81.4698 963.153 81.6283 970.454 81.6943 977.741C81.7471 983.351 81.8658 988.888 77.0338 992.098C73.0335 994.743 67.8318 995.307 63.2638 995.683C56.4118 996.247 49.5203 996.493 42.6551 996.869C28.1986 997.649 13.7421 998.387 -0.714452 999.052C-29.6275 1000.4 -58.5537 1001.52 -87.4799 1002.45C-202.01 1006.12 -316.606 1006.67 -431.175 1005.4C-488.777 1004.76 -546.365 1003.66 -603.953 1002.28C-618.119 1001.93 -632.299 1001.58 -646.465 1001.21C-650.584 1001.09 -655.073 1001.18 -657.647 1000.47C-658.043 1000.35 -660.67 999.355 -659.39 999.963C-660.591 999.399 -661.753 998.661 -662.809 997.808C-661.793 998.618 -664.05 996.464 -664.446 996.016C-664.539 995.9 -665.753 994.266 -664.922 995.466C-665.291 994.931 -665.635 994.367 -665.965 993.804C-667.575 991.028 -668.156 989.481 -669.014 986.705C-671.232 979.534 -672.249 971.943 -672.896 964.439C-674.889 941.596 -674.44 918.478 -674.44 895.562C-674.44 886.265 -687.643 886.236 -687.643 895.562H-687.63Z" fill="#759273"/>
</g>
<defs>
<clipPath id="clip0_329_38392">
<rect width="951" height="918" fill="white"/>
</clipPath>
</defs>
</svg>
