<svg width="2892" height="673" viewBox="0 0 2892 673" fill="none" xmlns="http://www.w3.org/2000/svg">
<path d="M2250 250V662H2376V250H2250Z" fill="#F1F1F1" stroke="#7CA779" stroke-width="21"/>
<path d="M2475 273.576V661.576H2652V273.576H2475Z" fill="#F1F1F1" stroke="#7CA779" stroke-width="21"/>
<path d="M667 251V662H772V251H667Z" fill="#F1F1F1" stroke="#7CA779" stroke-width="21"/>
<path d="M386 247V662H563V247H386Z" fill="#F1F1F1" stroke="#7CA779" stroke-width="21"/>
<path d="M8.88793 214.692L7.85131 221.057L14.3001 221.076L2879.94 229.575L2882.86 229.584L2884.51 227.168C2887.06 223.405 2886.13 219.107 2884.84 216.052C2883.47 212.827 2881.05 209.359 2878.03 205.795C2871.95 198.603 2862.42 189.862 2850.41 180.2C2826.32 160.819 2791.46 137.104 2751.92 113.765C2712.36 90.4175 2667.99 67.3653 2624.86 49.3547C2581.81 31.3771 2539.66 18.2759 2504.63 15.098C2478.08 12.6886 2406.72 12.1958 2296.33 11.4334L2286.94 11.3686C2171 10.5661 2013.44 9.41609 1819.87 5.57645C1783.56 4.8562 1653.38 9.37845 1526.03 13.9309C1516.26 14.2803 1506.5 14.6299 1496.8 14.9773C1379.86 19.1668 1271.65 23.0437 1247.59 22.5552C1135.21 20.2728 1037.75 17.4388 953.839 14.9987C882.132 12.9134 820.314 11.1158 767.522 10.1957C710.117 9.19527 663.044 9.22238 625.079 11.0411C587.18 12.8567 558.018 16.4691 536.588 22.7783C475.527 40.7541 410.038 59.065 346.996 76.6915C302.44 89.1493 259.107 101.265 219.425 112.679C171.587 126.439 129.094 139.169 96.3698 150.199C80.0118 155.713 66.0202 160.826 54.9885 165.454C44.115 170.015 35.6161 174.305 30.6382 178.276C23.2196 184.195 18.2661 189.22 14.9281 195.047C11.5865 200.88 10.1301 207.065 8.88793 214.692Z" fill="#F1F1F1" stroke="#7CA779" stroke-width="11"/>
<path d="M43.861 302.977H2474.88H2651.65H2779.43C2805.16 304.11 2853.67 263.184 2869 240.52L11.3162 232C8.71379 248.061 22.4065 286.424 43.861 302.977Z" fill="#7CA779"/>
<path d="M40.5012 307.331L41.9858 308.477H43.861H2474.88H2651.65H2779.31C2787.06 308.784 2795.85 305.991 2804.5 301.842C2813.32 297.61 2822.59 291.678 2831.41 285.075C2848.96 271.936 2865.43 255.614 2873.56 243.602L2879.34 235.051L2869.02 235.02L11.3326 226.5L6.6379 226.486L5.88701 231.12C5.08445 236.073 5.58349 242.226 6.89838 248.642C8.23229 255.151 10.4868 262.317 13.5016 269.446C19.4779 283.579 28.7387 298.256 40.5012 307.331Z" stroke="#7CA779" stroke-width="11"/>
</svg>
