<svg width="1487" height="548" viewBox="0 0 1487 548" fill="none" xmlns="http://www.w3.org/2000/svg">
<path d="M38.7384 255.174C18.0975 263.196 -19.0087 469.096 11.7071 532.605C829.972 557.339 1482.37 551.991 1461.49 518.566C1470.7 505.864 1497.73 296.622 1482.37 229.102C1475.87 200.507 1324.5 206.15 1261.84 199.688C1215.56 164.48 1080.74 102.086 911.677 134.175C789.429 39.2465 355.724 193.672 217.504 169.605C79.2831 145.539 64.5396 245.147 38.7384 255.174Z" fill="#CEDECC"/>
<path d="M992.877 477.787C1038.75 428.764 1061.68 344.086 1061.68 225.092M780.827 255.175C815.843 364.141 729.962 423.237 745.197 477.787M358.18 477.787C312.311 428.764 234.334 309.591 289.376 225.092M1326.95 413.611C1425.24 340.075 1223.13 374.169 1223.13 255.175M108.768 225.092C96.0723 265.202 74.4894 359.061 89.7244 413.611" stroke="#5A8157" stroke-width="11.6358"/>
<path d="M139.94 157.887C161.442 259.698 893.631 290.944 1003.72 139.748C1014.54 -44.6823 90.1768 -38.1288 139.94 157.887Z" fill="#F1F1F1" stroke="#5A8157" stroke-width="11.6358"/>
<path d="M861.187 168.418C856.764 233.484 667.665 229.271 568.139 229.271C478.443 229.271 302.738 214.175 317.482 153.79C335.913 78.3094 541.108 79.4796 580.426 79.4796C618.911 79.4795 866.716 87.0862 861.187 168.418Z" fill="#F1F1F1" stroke="#5A8157" stroke-width="11.6358"/>
</svg>
