<svg width="2889" height="673" viewBox="0 0 2889 673" fill="none" xmlns="http://www.w3.org/2000/svg">
<path d="M2247 250V662H2373V250H2247Z" fill="#F1F1F1" stroke="#7CA779" stroke-width="21"/>
<path d="M2472 273.576V661.576H2649V273.576H2472Z" fill="#F1F1F1" stroke="#7CA779" stroke-width="21"/>
<path d="M664 251V662H769V251H664Z" fill="#F1F1F1" stroke="#7CA779" stroke-width="21"/>
<path d="M383 247V662H560V247H383Z" fill="#F1F1F1" stroke="#7CA779" stroke-width="21"/>
<path fill-rule="evenodd" clip-rule="evenodd" d="M11.3171 215.576L2876.96 224.076C2892.33 201.464 2637.96 32.9897 2501.14 20.5755C2447.14 15.6761 2203.98 18.7561 1816.76 11.0754C1744.54 9.64279 1296.99 29.1204 1244.48 28.0541C826.973 19.5749 618.292 3.57531 535.142 28.0544C326.782 89.3945 65.6702 154.969 31.0691 182.576C16.6555 194.076 13.7523 200.623 11.3171 215.576Z" fill="#F1F1F1"/>
<path d="M43.9525 286.386H2481.74H2659H2787.14C2812.94 287.517 2861.58 246.687 2876.96 224.076L11.3171 215.576C8.70743 231.599 22.4383 269.872 43.9525 286.386Z" fill="#7CA779"/>
<path d="M43.9525 291.886H322.649H499.904H783.94H961.195H2156.07H2333.32H2481.74H2659H2787.02C2794.78 292.192 2803.59 289.409 2812.26 285.27C2821.11 281.049 2830.4 275.132 2839.24 268.545C2856.84 255.437 2873.36 239.154 2881.51 227.168C2884.07 223.405 2883.13 219.107 2881.84 216.052C2880.47 212.827 2878.05 209.359 2875.03 205.795C2868.95 198.603 2859.42 189.862 2847.41 180.2C2823.32 160.819 2788.46 137.104 2748.92 113.765C2709.36 90.4175 2664.99 67.3653 2621.86 49.3547C2578.81 31.3771 2536.66 18.2759 2501.63 15.098C2475.08 12.6886 2403.72 12.1958 2293.33 11.4334L2283.94 11.3686C2168 10.5661 2010.44 9.41609 1816.87 5.57645C1780.56 4.8562 1650.38 9.37845 1523.03 13.9309C1513.26 14.2803 1503.5 14.6298 1493.8 14.9772C1376.86 19.1667 1268.65 23.0437 1244.59 22.5552C1132.21 20.2728 1034.75 17.4388 950.84 14.9987C879.133 12.9134 817.315 11.1158 764.523 10.1957C707.118 9.19527 660.045 9.22238 622.08 11.0411C584.181 12.8567 555.019 16.4691 533.588 22.7783C472.528 40.7541 407.038 59.0651 343.997 76.6915C299.441 89.1493 256.108 101.265 216.426 112.679C168.588 126.439 126.095 139.169 93.3705 150.199C77.0124 155.713 63.0209 160.826 51.9892 165.454C41.1157 170.015 32.6167 174.305 27.6389 178.276C20.2203 184.195 15.2667 189.22 11.9288 195.047C8.58717 200.88 7.13074 207.065 5.8886 214.692C5.08269 219.64 5.58411 225.784 6.90309 232.187C8.24126 238.683 10.5028 245.834 13.5266 252.948C19.5212 267.051 28.8093 281.695 40.6035 290.749L42.085 291.886H43.9525Z" stroke="#7CA779" stroke-width="11"/>
</svg>
