<svg width="172" height="874" viewBox="0 0 172 874" fill="none" xmlns="http://www.w3.org/2000/svg">
<g clip-path="url(#clip0_717_513)">
<rect opacity="0.2" x="43.9854" y="33.7031" width="85.6863" height="822.588" rx="42.8431" fill="#F5F5F5"/>
<g clip-path="url(#clip1_717_513)">
<g opacity="0.2">
<path fill-rule="evenodd" clip-rule="evenodd" d="M129.091 76.3475C129.091 99.8994 110.199 118.992 86.8938 118.992C63.5888 118.992 44.6963 99.8994 44.6963 76.3475C44.6963 52.7957 63.5888 33.7031 86.8938 33.7031C110.199 33.7031 129.091 52.7957 129.091 76.3475ZM110.802 75.3475C111.351 88.6925 101.091 99.9604 87.8861 100.515C74.6809 101.07 63.531 90.7011 62.9822 77.3561C62.4334 64.011 72.6933 52.7431 85.8985 52.1885C99.1037 51.6338 110.254 62.0024 110.802 75.3475Z" fill="#F5F5F5"/>
</g>
<path d="M158.582 120.175C153.44 119.879 148.968 122.878 146.982 127.25V121.907C146.982 115.19 141.59 109.762 134.965 109.762C130.576 109.762 126.751 112.148 124.661 115.676V114.958C124.661 108.241 119.269 102.813 112.643 102.813C106.896 102.813 102.089 106.889 100.897 112.36V79.3256C100.897 73.0947 96.4664 67.4764 90.3427 66.7582C83.0485 65.8923 76.862 71.6162 76.862 78.8187V150.167C76.862 150.991 75.7543 151.266 75.3781 150.526L63.4859 126.934C60.6853 120.851 53.5374 118.21 47.5182 121.062C41.4989 123.892 38.8864 131.116 41.7079 137.199C41.7079 137.199 57.0487 179.294 62.1901 192.347C67.3107 205.4 75.7961 217.841 75.7961 217.841C76.5276 219.192 84.5533 235.224 118.307 234.801C152.249 234.358 161.153 215.306 165.207 208.251C172.585 193.128 171.247 173.485 171.394 164.931C171.54 156.377 169.952 132.848 169.952 132.848C169.952 126.511 164.873 120.555 158.603 120.196L158.582 120.175Z" fill="white"/>
</g>
</g>
<defs>
<clipPath id="clip0_717_513">
<rect width="171.373" height="874" fill="white"/>
</clipPath>
<clipPath id="clip1_717_513">
<rect width="130.814" height="201.077" fill="white" transform="translate(40.5581 33.7031)"/>
</clipPath>
</defs>
</svg>
