<svg width="1361" height="389" viewBox="0 0 1361 389" fill="none" xmlns="http://www.w3.org/2000/svg">
<path opacity="0.2" d="M93 113.659C93 83.7887 122.349 62.1733 151.207 69.8856C245.333 95.041 443.962 139.665 675.416 141.923C906.75 144.18 1105.29 97.6541 1199.48 71.0195C1228.17 62.9062 1257.83 84.3184 1257.83 114.134C1257.83 132.631 1246.17 148.971 1228.42 154.196C1151.41 176.874 931.949 234 675.416 234C419.379 234 200.27 177.094 122.856 154.328C104.838 149.029 93 132.44 93 113.659Z" fill="#F5F5F5"/>
<g clip-path="url(#clip0_717_550)">
<g opacity="0.2">
<path fill-rule="evenodd" clip-rule="evenodd" d="M740.533 186.644C740.533 210.196 721.641 229.289 698.336 229.289C675.031 229.289 656.138 210.196 656.138 186.644C656.138 163.093 675.031 144 698.336 144C721.641 144 740.533 163.093 740.533 186.644ZM722.244 185.644C722.793 198.989 712.533 210.257 699.328 210.812C686.123 211.367 674.973 200.998 674.424 187.653C673.875 174.308 684.135 163.04 697.34 162.485C710.546 161.931 721.695 172.299 722.244 185.644Z" fill="#F5F5F5"/>
</g>
<path d="M770.024 230.472C764.882 230.176 760.41 233.175 758.424 237.547V232.203C758.424 225.487 753.032 220.059 746.407 220.059C742.017 220.059 738.193 222.445 736.103 225.973V225.254C736.103 218.538 730.71 213.11 724.085 213.11C718.338 213.11 713.53 217.186 712.339 222.657V189.622C712.339 183.392 707.908 177.773 701.785 177.055C694.49 176.189 688.304 181.913 688.304 189.116V260.464C688.304 261.288 687.196 261.562 686.82 260.823L674.928 237.23C672.127 231.147 664.979 228.507 658.96 231.359C652.941 234.189 650.328 241.412 653.15 247.495C653.15 247.495 668.491 289.591 673.632 302.644C678.753 315.697 687.238 328.138 687.238 328.138C687.97 329.489 695.995 345.521 729.749 345.098C763.691 344.655 772.594 325.603 776.649 318.548C784.027 303.425 782.689 283.782 782.836 275.228C782.982 266.674 781.393 243.144 781.393 243.144C781.393 236.808 776.315 230.852 770.045 230.493L770.024 230.472Z" fill="white"/>
</g>
<defs>
<clipPath id="clip0_717_550">
<rect width="130.814" height="201.077" fill="white" transform="translate(652 144)"/>
</clipPath>
</defs>
</svg>
