<svg width="1361" height="389" viewBox="0 0 1361 389" fill="none" xmlns="http://www.w3.org/2000/svg">
<path opacity="0.2" d="M93 113.659C93 83.7887 122.349 62.1733 151.207 69.8856C245.333 95.041 443.962 139.665 675.416 141.923C906.75 144.18 1105.29 97.6541 1199.48 71.0195C1228.17 62.9062 1257.83 84.3184 1257.83 114.134C1257.83 132.631 1246.17 148.971 1228.42 154.196C1151.41 176.874 931.949 234 675.416 234C419.379 234 200.27 177.094 122.856 154.328C104.838 149.029 93 132.44 93 113.659Z" fill="#F5F5F5"/>
<g clip-path="url(#clip0_717_542)">
<g opacity="0.2">
<path fill-rule="evenodd" clip-rule="evenodd" d="M177.533 112.644C177.533 136.196 158.641 155.289 135.336 155.289C112.031 155.289 93.1382 136.196 93.1382 112.644C93.1382 89.0926 112.031 70 135.336 70C158.641 70 177.533 89.0926 177.533 112.644ZM159.244 111.644C159.793 124.989 149.533 136.257 136.328 136.812C123.123 137.367 111.973 126.998 111.424 113.653C110.875 100.308 121.135 89.04 134.34 88.4853C147.546 87.9307 158.695 98.2993 159.244 111.644Z" fill="#F5F5F5"/>
</g>
<path d="M207.023 156.472C201.882 156.176 197.409 159.175 195.424 163.547V158.203C195.424 151.487 190.032 146.059 183.406 146.059C179.017 146.059 175.192 148.445 173.102 151.973V151.254C173.102 144.538 167.71 139.11 161.085 139.11C155.337 139.11 150.53 143.186 149.339 148.657V115.622C149.339 109.392 144.908 103.773 138.784 103.055C131.49 102.189 125.304 107.913 125.304 115.116V186.464C125.304 187.288 124.196 187.562 123.82 186.823L111.928 163.23C109.127 157.147 101.979 154.507 95.9598 157.359C89.9405 160.189 87.328 167.412 90.1496 173.495C90.1496 173.495 105.49 215.591 110.632 228.644C115.752 241.697 124.238 254.138 124.238 254.138C124.969 255.489 132.995 271.521 166.749 271.098C200.691 270.655 209.594 251.603 213.649 244.548C221.027 229.425 219.689 209.782 219.835 201.228C219.982 192.674 218.393 169.144 218.393 169.144C218.393 162.808 213.314 156.852 207.044 156.493L207.023 156.472Z" fill="white"/>
</g>
<defs>
<clipPath id="clip0_717_542">
<rect width="130.814" height="201.077" fill="white" transform="translate(89 70)"/>
</clipPath>
</defs>
</svg>
