<svg width="1339" height="389" viewBox="0 0 1339 389" fill="none" xmlns="http://www.w3.org/2000/svg">
<path opacity="0.2" d="M93 113.659C93 83.7887 122.349 62.1733 151.207 69.8856C245.333 95.041 443.962 139.665 675.416 141.923C906.75 144.18 1105.29 97.6541 1199.48 71.0195C1228.17 62.9062 1257.83 84.3184 1257.83 114.134C1257.83 132.631 1246.17 148.971 1228.42 154.196C1151.41 176.874 931.949 234 675.416 234C419.379 234 200.27 177.094 122.856 154.328C104.838 149.029 93 132.44 93 113.659Z" fill="#F5F5F5"/>
<g clip-path="url(#clip0_717_558)">
<g opacity="0.2">
<path fill-rule="evenodd" clip-rule="evenodd" d="M1257.53 114.644C1257.53 138.196 1238.64 157.289 1215.34 157.289C1192.03 157.289 1173.14 138.196 1173.14 114.644C1173.14 91.0926 1192.03 72 1215.34 72C1238.64 72 1257.53 91.0926 1257.53 114.644ZM1239.24 113.644C1239.79 126.989 1229.53 138.257 1216.33 138.812C1203.12 139.367 1191.97 128.998 1191.42 115.653C1190.88 102.308 1201.14 91.04 1214.34 90.4853C1227.55 89.9307 1238.7 100.299 1239.24 113.644Z" fill="#F5F5F5"/>
</g>
<path d="M1287.02 158.472C1281.88 158.176 1277.41 161.175 1275.42 165.547V160.203C1275.42 153.487 1270.03 148.059 1263.41 148.059C1259.02 148.059 1255.19 150.445 1253.1 153.973V153.254C1253.1 146.538 1247.71 141.11 1241.09 141.11C1235.34 141.11 1230.53 145.186 1229.34 150.657V117.622C1229.34 111.392 1224.91 105.773 1218.78 105.055C1211.49 104.189 1205.3 109.913 1205.3 117.116V188.464C1205.3 189.288 1204.2 189.562 1203.82 188.823L1191.93 165.23C1189.13 159.147 1181.98 156.507 1175.96 159.359C1169.94 162.189 1167.33 169.412 1170.15 175.495C1170.15 175.495 1185.49 217.591 1190.63 230.644C1195.75 243.697 1204.24 256.138 1204.24 256.138C1204.97 257.489 1213 273.521 1246.75 273.098C1280.69 272.655 1289.59 253.603 1293.65 246.548C1301.03 231.425 1299.69 211.782 1299.84 203.228C1299.98 194.674 1298.39 171.144 1298.39 171.144C1298.39 164.808 1293.31 158.852 1287.04 158.493L1287.02 158.472Z" fill="white"/>
</g>
<defs>
<clipPath id="clip0_717_558">
<rect width="130.814" height="201.077" fill="white" transform="translate(1169 72)"/>
</clipPath>
</defs>
</svg>
