<svg width="172" height="994" viewBox="0 0 172 994" fill="none" xmlns="http://www.w3.org/2000/svg">
<g clip-path="url(#clip0_717_525)">
<rect opacity="0.2" x="44.0127" y="33.7241" width="85.7389" height="823.094" rx="42.8695" fill="#F5F5F5"/>
<g clip-path="url(#clip1_717_525)">
<g opacity="0.2">
<path fill-rule="evenodd" clip-rule="evenodd" d="M129.171 816.607C129.171 840.174 110.266 859.278 86.9471 859.278C63.6277 859.278 44.7236 840.174 44.7236 816.607C44.7236 793.041 63.6277 773.937 86.9471 773.937C110.266 773.937 129.171 793.041 129.171 816.607ZM110.87 815.607C111.42 828.96 101.153 840.235 87.94 840.79C74.7267 841.345 63.57 830.97 63.0208 817.616C62.4716 804.263 72.7379 792.988 85.9512 792.433C99.1645 791.878 110.321 802.253 110.87 815.607Z" fill="#F5F5F5"/>
</g>
<path d="M158.679 860.461C153.534 860.166 149.059 863.167 147.072 867.541V862.194C147.072 855.474 141.676 850.042 135.047 850.042C130.655 850.042 126.828 852.43 124.737 855.96V855.241C124.737 848.52 119.341 843.089 112.712 843.089C106.961 843.089 102.151 847.168 100.959 852.642V819.587C100.959 813.353 96.5252 807.731 90.3977 807.012C83.099 806.146 76.9088 811.873 76.9088 819.08V890.472C76.9088 891.297 75.8004 891.571 75.4239 890.832L63.5244 867.224C60.7221 861.138 53.5698 858.496 47.5468 861.349C41.5239 864.181 38.9098 871.409 41.733 877.496C41.733 877.496 57.0832 919.617 62.2278 932.678C67.3515 945.739 75.8422 958.187 75.8422 958.187C76.5742 959.54 84.6048 975.581 118.379 975.159C152.342 974.715 161.251 955.651 165.308 948.592C172.691 933.46 171.352 913.805 171.498 905.245C171.645 896.686 170.055 873.142 170.055 873.142C170.055 866.802 164.974 860.842 158.7 860.483L158.679 860.461Z" fill="white"/>
</g>
</g>
<defs>
<clipPath id="clip0_717_525">
<rect width="171.478" height="994" fill="white"/>
</clipPath>
<clipPath id="clip1_717_525">
<rect width="130.895" height="201.201" fill="white" transform="translate(40.583 773.937)"/>
</clipPath>
</defs>
</svg>
