<svg width="131" height="202" viewBox="0 0 131 202" fill="none" xmlns="http://www.w3.org/2000/svg">
<g clip-path="url(#clip0_718_381)">
<g opacity="0.2">
<path fill-rule="evenodd" clip-rule="evenodd" d="M88.5332 42.6444C88.5332 66.1963 69.6407 85.2888 46.3357 85.2888C23.0307 85.2888 4.13818 66.1963 4.13818 42.6444C4.13818 19.0926 23.0307 0 46.3357 0C69.6407 0 88.5332 19.0926 88.5332 42.6444ZM70.2443 41.6444C70.7931 54.9894 60.5331 66.2573 47.3279 66.812C34.1228 67.3666 22.9729 56.998 22.4241 43.6529C21.8752 30.3079 32.1352 19.04 45.3404 18.4853C58.5456 17.9307 69.6954 28.2993 70.2443 41.6444Z" fill="#F5F5F5"/>
</g>
<path d="M118.024 86.4715C112.882 86.1758 108.41 89.1751 106.424 93.5472V88.2035C106.424 81.4868 101.032 76.0586 94.4065 76.0586C90.0175 76.0586 86.1927 78.4453 84.1027 81.9726V81.2545C84.1027 74.5378 78.7105 69.1096 72.0851 69.1096C66.3375 69.1096 61.5305 73.1861 60.3392 78.6565V45.6224C60.3392 39.3916 55.9083 33.7733 49.7846 33.0551C42.4904 32.1891 36.3039 37.9131 36.3039 45.1155V116.464C36.3039 117.288 35.1962 117.562 34.82 116.823L22.9278 93.2304C20.1272 87.1474 12.9793 84.5072 6.96005 87.3586C0.940794 90.1889 -1.67173 97.4125 1.1498 103.495C1.1498 103.495 16.4905 145.591 21.632 158.644C26.7525 171.697 35.238 184.138 35.238 184.138C35.9695 185.489 43.9952 201.521 77.749 201.098C111.691 200.655 120.594 181.603 124.649 174.548C132.027 159.425 130.689 139.782 130.836 131.228C130.982 122.674 129.393 99.1444 129.393 99.1444C129.393 92.808 124.315 86.8517 118.045 86.4926L118.024 86.4715Z" fill="white"/>
</g>
<defs>
<clipPath id="clip0_718_381">
<rect width="130.814" height="201.077" fill="white"/>
</clipPath>
</defs>
</svg>
