<svg width="271" height="260" viewBox="0 0 271 260" fill="none" xmlns="http://www.w3.org/2000/svg">
<g clip-path="url(#clip0_291_26275)">
<path d="M4.72613 116.785C0.00363961 148.882 6.77276 159.094 15.8999 187.743C18.0228 194.405 31.2052 213.262 35.292 218.931C44.1459 231.21 61.5295 236.504 75.7161 231.248C84.2077 228.105 91.1166 221.82 98.979 217.328C106.841 212.836 117.011 210.278 124.746 214.986C132.291 219.574 135.31 229.734 143.217 233.66C147.24 235.658 164.77 241.485 169.257 241.492C194.999 241.504 198.406 241.479 224.147 241.492C226.613 241.492 238.766 235.677 240.692 234.137C243.158 232.165 243.469 228.576 243.4 225.421C243.183 215.082 241.048 204.788 237.133 195.219C244.016 194.303 250.9 193.393 257.79 192.477C259.849 192.203 262.054 191.866 263.573 190.441C265.162 188.952 265.614 186.617 265.665 184.441C265.862 175.649 260.942 167.155 262.08 158.432C262.951 151.796 267.254 145.937 267.819 139.269C268.626 129.789 261.902 121.595 257.249 113.298C243.33 88.479 245.275 54.3454 223.41 36.1493C211.226 26.0142 194.567 23.6601 178.848 21.7006C163.225 19.7537 147.596 17.8068 131.973 15.86C121.67 14.5748 111.189 13.296 100.949 14.9947C90.926 16.6616 81.5699 21.1152 72.8241 26.3005C41.9976 44.5666 14.5843 71.6062 5.60326 106.312L4.72613 116.785Z" fill="#CECECE"/>
<path d="M1.66096 115.939C0.56137 123.497 -0.214059 131.119 0.0528917 138.767C0.262639 144.842 1.14612 150.893 2.608 156.791C4.07623 162.714 6.06565 168.497 8.04236 174.268C9.22457 177.729 10.4131 181.184 11.5572 184.658C12.4089 187.247 13.178 189.811 14.3729 192.261C16.7056 197.051 19.6547 201.569 22.5721 206.022C25.4895 210.476 28.3434 214.63 31.3434 218.855C34.9409 223.919 39.104 228.214 44.5702 231.28C50.494 234.608 57.3012 236.434 64.1021 236.447C71.4878 236.466 78.3649 234.137 84.6764 230.402C91.3312 226.464 97.2931 221.247 104.418 218.13C110.564 215.438 118.077 214.249 123.886 218.219C125.965 219.637 128.253 222.392 129.785 224.428C131.755 227.043 133.637 229.76 135.925 232.114C139.624 235.918 144.219 237.655 149.107 239.373C153.995 241.091 159.219 242.79 164.406 243.954C166.802 244.488 169.097 244.679 171.55 244.679C175.294 244.679 179.037 244.679 182.787 244.679C188.368 244.679 193.955 244.679 199.535 244.679C205.929 244.679 212.324 244.679 218.724 244.679C221.565 244.679 224.444 244.959 227.178 244.049C229.682 243.216 232.11 242.122 234.506 241.015C236.642 240.028 238.771 238.998 240.817 237.827C243.411 236.345 245.235 234.194 246.017 231.255C247.015 227.501 246.601 223.334 246.252 219.523C245.845 215.076 245.133 210.641 244.072 206.302C243.08 202.237 241.777 198.254 240.201 194.373L237.137 198.4C241.955 197.764 246.779 197.121 251.597 196.485C254.082 196.154 256.568 195.842 259.053 195.493C261.106 195.2 263.165 194.704 264.869 193.463C268.568 190.772 269.114 185.968 268.752 181.725C268.39 177.481 267.15 173.078 266.152 168.784C265.263 164.96 264.627 161.022 265.542 157.141C266.458 153.26 268.32 149.614 269.604 145.816C270.989 141.706 271.402 137.52 270.614 133.244C269.877 129.255 268.078 125.469 266.108 121.957C264.138 118.445 261.875 115.067 259.904 111.536C258.258 108.578 256.841 105.511 255.678 102.546C253.097 95.9738 251.203 89.1599 249.373 82.3522C245.813 69.1505 242.502 55.2362 234.595 43.835C230.356 37.7209 224.934 32.5801 218.457 28.89C211.472 24.9136 203.654 22.5977 195.811 21.0644C187.281 19.3975 178.611 18.5004 169.999 17.4316C160.363 16.2291 150.728 15.0266 141.092 13.8305C131.456 12.6344 121.967 11.0884 112.35 10.9993C102.734 10.9102 94.1024 12.6789 85.5536 16.2609C77.8438 19.4929 70.6043 23.7111 63.6191 28.2792C57.1232 32.5229 50.869 37.161 44.9388 42.1617C33.3201 51.966 22.9344 63.4117 14.9894 76.4162C11.0233 82.9121 7.71185 89.8088 5.15039 96.9727C4.06987 99.9948 2.72876 103.303 2.41096 106.51C2.22028 108.399 2.09316 110.302 1.93426 112.191C1.80714 113.718 1.68002 115.245 1.5529 116.778C1.40672 118.49 3.11648 119.96 4.73089 119.96C6.56777 119.96 7.7627 118.496 7.90889 116.778C8.1949 113.387 8.37287 109.977 8.76059 106.599C8.83686 105.918 8.59533 107 8.82415 106.561C9.22457 105.791 9.33898 104.671 9.59322 103.831C10.1081 102.094 10.6737 100.37 11.2839 98.6651C12.4852 95.2931 13.8263 92.131 15.3962 88.9117C21.7077 75.9581 30.5425 64.4933 40.8329 54.46C51.3647 44.1976 63.3267 35.4304 76.0514 28.0947C83.2654 23.9338 90.8608 20.3773 99.0346 18.5895C107.85 16.6617 116.984 17.2979 125.876 18.3032C144.467 20.3964 163.039 22.8459 181.592 25.2253C195.912 27.064 211.612 29.6217 222.684 39.7186C232.313 48.5049 236.75 60.8477 240.296 73.2542C244.059 86.4113 246.894 99.9821 253.11 112.28C256.447 118.878 261.436 124.82 263.718 131.921C264.818 135.35 265.008 138.716 264.049 142.247C262.987 146.128 261.125 149.716 259.936 153.552C258.64 157.732 258.544 161.919 259.193 166.226C259.809 170.304 261.068 174.249 261.881 178.289C262.256 180.172 262.504 182.062 262.498 183.983C262.498 185.364 262.396 186.98 261.589 187.947C260.718 188.984 258.722 189.162 257.368 189.353C255.188 189.658 253.008 189.932 250.828 190.218C246.265 190.823 241.707 191.427 237.144 192.031C235.358 192.267 233.209 193.915 234.08 196.059C237.182 203.7 239.241 211.786 239.947 220.006C240.226 223.245 240.786 227.444 239.699 230.237C239.464 230.841 239.209 231.153 238.739 231.637C238.135 232.254 239.057 231.471 238.828 231.579C238.682 231.649 238.542 231.77 238.402 231.859C237.62 232.349 236.807 232.782 235.987 233.214C233.775 234.379 231.506 235.454 229.211 236.453C228.938 236.574 228.665 236.688 228.392 236.809C228.875 236.606 228.252 236.866 228.093 236.93C227.559 237.146 227.025 237.356 226.491 237.554C225.665 237.859 224.819 238.075 223.98 238.336C223.485 238.489 224.324 238.311 224.311 238.298C224.158 238.19 223.561 238.304 223.377 238.304C222.303 238.304 221.222 238.304 220.148 238.304C218.222 238.304 216.29 238.304 214.364 238.304C211.249 238.304 208.135 238.304 205.021 238.304C199.751 238.304 194.482 238.304 189.22 238.304C182.501 238.304 175.713 238.584 169.001 238.298C168.614 238.279 167.819 238.126 168.703 238.298C168.264 238.215 167.825 238.158 167.387 238.075C166.306 237.865 165.238 237.611 164.177 237.344C161.628 236.695 159.111 235.95 156.607 235.155C154.103 234.36 151.649 233.545 149.202 232.655C148.198 232.292 147.2 231.917 146.209 231.516C146.018 231.439 145.827 231.35 145.637 231.28C145.414 231.198 146.279 231.573 145.713 231.312C145.414 231.179 145.115 231.051 144.823 230.905C142.179 229.588 140.272 227.616 138.308 225.192C136.535 223.003 134.641 220.216 132.658 217.85C130.592 215.375 128.145 213.084 125.253 211.615C121.853 209.89 118.033 209.14 114.225 209.305C106.465 209.649 99.3969 213.072 93.0155 217.264C86.8629 221.304 80.901 226.197 73.8204 228.538C62.4178 232.305 49.1211 228.99 40.6485 220.35C37.585 217.22 35.1188 213.237 32.551 209.49C29.3476 204.82 26.2078 200.092 23.2967 195.232C22.0827 193.209 20.9005 191.16 19.8645 189.035C19.6738 188.64 19.4958 188.233 19.3052 187.832C19.0509 187.292 19.5086 188.399 19.3179 187.864C19.248 187.667 19.1653 187.47 19.0954 187.273C18.5107 185.637 18.0276 183.964 17.481 182.316C15.4153 176.069 13.178 169.872 11.1822 163.592C9.45974 158.171 7.97245 152.668 7.1271 147.037C7.07625 146.707 7.03176 146.376 6.98727 146.045C7.04447 146.49 6.94278 145.676 6.93006 145.555C6.84108 144.817 6.76481 144.085 6.69489 143.347C6.55506 141.814 6.45972 140.281 6.40887 138.747C6.29447 135.42 6.37074 132.086 6.58684 128.759C6.83472 125.03 7.24786 121.308 7.78812 117.612C8.036 115.913 7.36863 114.195 5.56988 113.699C4.07623 113.286 1.90884 114.208 1.66096 115.92V115.939Z" fill="#CECECE"/>
<path d="M58.8284 177.093C65.9535 179.936 74.2353 182.469 81.6401 179.167C83.4325 178.365 85.0024 177.15 86.3943 175.776C87.0426 175.133 87.6592 174.465 88.3138 173.829C88.6062 173.542 88.9177 173.275 89.2227 173.002C89.8139 172.461 88.6761 173.332 89.3499 172.9C89.5533 172.766 89.7503 172.626 89.96 172.505C90.1126 172.416 90.4304 172.174 90.6084 172.162C90.0363 172.187 90.2524 172.302 90.5702 172.194C90.9516 172.06 91.3456 171.958 91.7461 171.882C91.8223 171.869 92.0893 171.786 92.1846 171.805L91.7842 171.863C91.9304 171.85 92.0829 171.837 92.2291 171.825C92.6804 171.793 93.138 171.786 93.5893 171.793C95.2927 171.825 96.9834 172.073 98.6804 172.194C100.517 172.327 102.45 172.295 104.223 171.748C106.384 171.087 108.164 169.782 109.479 167.956C111.602 165.017 111.767 161.034 111.392 157.56C111.176 155.575 110.814 153.609 110.522 151.631C110.484 151.363 110.445 151.09 110.407 150.823C110.388 150.689 110.331 150.199 110.407 150.854C110.344 150.307 110.274 149.767 110.217 149.219C110.108 148.221 110.026 147.222 109.975 146.216C109.867 144.238 109.88 142.246 110.083 140.274C110.096 140.153 110.191 139.256 110.096 140.058C110.128 139.797 110.172 139.53 110.217 139.269C110.293 138.83 110.375 138.397 110.471 137.965C110.681 137.017 110.947 136.081 111.278 135.165C111.367 134.917 111.462 134.669 111.564 134.421C111.284 135.133 111.723 134.084 111.786 133.963C112.022 133.479 112.276 133.002 112.543 132.537C113.083 131.602 113.681 130.699 114.234 129.764C115.556 127.53 116.471 125.176 116.623 122.561C116.903 117.764 114.443 113.088 111.208 109.71C110.058 108.507 107.858 108.463 106.714 109.71C105.57 110.957 105.481 112.923 106.714 114.208C107.007 114.513 107.293 114.825 107.566 115.143C107.642 115.232 108.151 115.913 107.706 115.296C107.833 115.468 107.96 115.639 108.081 115.817C108.615 116.587 109.085 117.402 109.479 118.248C109.562 118.432 109.867 118.871 109.511 118.305C109.613 118.471 109.664 118.712 109.727 118.897C109.873 119.329 110.007 119.775 110.108 120.22C110.147 120.379 110.178 120.545 110.21 120.704L110.255 120.945C110.312 121.308 110.306 121.27 110.242 120.837C110.414 121.2 110.306 121.919 110.293 122.313C110.293 122.479 110.274 122.638 110.261 122.803C110.217 123.618 110.433 122.142 110.242 122.937C110.147 123.35 110.064 123.758 109.931 124.165C109.873 124.337 109.81 124.502 109.753 124.667C109.467 125.488 110.045 124.12 109.651 124.89C109.403 125.367 109.161 125.844 108.888 126.309C107.935 127.944 106.854 129.496 106.079 131.227C102.634 138.874 103.39 147.266 104.712 155.314C104.782 155.741 104.852 156.161 104.916 156.587C104.941 156.733 104.96 156.886 104.979 157.032C105.094 157.815 104.903 156.294 104.979 157.083C105.068 157.917 105.151 158.75 105.176 159.59C105.202 160.341 105.164 161.079 105.113 161.829C105.068 162.466 105.144 161.632 105.144 161.632C105.189 161.683 105.049 162.192 105.03 162.268C104.947 162.682 104.839 163.089 104.7 163.49C104.712 163.458 104.56 163.878 104.553 163.878C104.522 163.865 104.884 163.191 104.528 163.859C104.445 164.012 104.35 164.152 104.267 164.298C103.962 164.871 104.344 164.228 104.35 164.241C104.388 164.336 103.702 164.928 103.638 164.998C103.149 165.507 104.229 164.661 103.6 165.036C103.409 165.151 103.231 165.271 103.041 165.38C102.99 165.405 102.354 165.736 102.837 165.494C103.32 165.252 102.691 165.539 102.621 165.558C102.284 165.666 101.935 165.742 101.585 165.812C100.854 165.965 102.329 165.774 101.572 165.812C101.426 165.819 101.28 165.838 101.134 165.844C100.689 165.869 100.244 165.869 99.7991 165.857C96.3351 165.768 92.9283 164.947 89.4961 165.825C87.4431 166.353 85.6888 167.524 84.1507 168.942C83.5405 169.502 82.9748 170.107 82.3964 170.698C82.1041 170.997 81.8117 171.29 81.5129 171.576C81.3922 171.691 81.2714 171.805 81.1507 171.914C81.0299 172.022 80.9028 172.13 80.7757 172.238C80.5023 172.461 80.5214 172.448 80.8456 172.2C80.5786 172.531 80.0066 172.785 79.6506 172.989C79.2629 173.212 78.8307 173.491 78.3985 173.619C78.4811 173.593 79.0595 173.377 78.5129 173.555C78.2587 173.638 78.0044 173.733 77.7502 173.81C77.3053 173.943 76.8604 174.051 76.4027 174.14C76.2438 174.172 75.9896 174.268 75.8307 174.242C76.2883 174.185 76.3392 174.179 75.9832 174.223L75.7481 174.249C75.2777 174.293 74.8074 174.319 74.3307 174.325C73.3646 174.338 72.3985 174.274 71.4387 174.166C70.6061 174.077 72.1379 174.293 71.3052 174.147C71.0574 174.102 70.8158 174.07 70.5679 174.026C70.0722 173.937 69.5828 173.835 69.0934 173.727C68.1018 173.504 67.123 173.237 66.1505 172.938C64.231 172.353 62.3433 171.646 60.4746 170.902C58.9238 170.285 56.9153 171.576 56.5657 173.122C56.1462 174.961 57.125 176.374 58.784 177.035L58.8284 177.093Z" fill="#5E5E5E"/>
<path d="M183.619 113.961C184.75 114.89 185.634 116.086 186.161 117.454C189.263 125.457 189.81 131.037 190.617 140.669C191.31 148.89 190.14 158.757 182.901 162.696C175.318 166.825 166.07 161.824 159.39 156.34C155.697 153.311 152.087 149.984 149.894 145.734C145.699 137.59 147.829 126.838 154.432 120.488C161.036 114.145 170.437 106.905 178.998 110.156L183.619 113.954V113.961Z" fill="#5E5E5E"/>
<path d="M181.366 116.206C181.824 116.595 182.25 117.014 182.625 117.485C182.231 117.002 182.669 117.587 182.784 117.791C182.847 117.899 182.911 118.013 182.974 118.122C182.974 118.122 183.33 118.847 183.146 118.44C182.968 118.058 183.191 118.573 183.229 118.669C183.273 118.79 183.324 118.917 183.369 119.038C183.477 119.318 183.578 119.604 183.68 119.89C183.89 120.476 184.093 121.067 184.29 121.665C184.983 123.797 185.542 125.973 185.968 128.174C186.178 129.262 186.356 130.363 186.515 131.457C186.629 132.284 186.47 131.069 186.547 131.667C186.578 131.947 186.616 132.227 186.648 132.5C186.724 133.117 186.788 133.728 186.852 134.345C187.119 136.871 187.373 139.41 187.519 141.948C187.64 144.08 187.633 146.217 187.43 148.342C187.405 148.597 187.379 148.858 187.347 149.112C187.252 149.939 187.424 148.667 187.328 149.246C187.233 149.825 187.138 150.397 187.017 150.964C186.807 151.937 186.547 152.904 186.21 153.846C186.114 154.113 186.013 154.367 185.911 154.628C185.695 155.182 186.165 154.1 185.905 154.628C185.663 155.125 185.428 155.614 185.155 156.092C184.932 156.473 184.691 156.836 184.443 157.205C184.01 157.848 184.748 156.861 184.392 157.288C184.22 157.491 184.049 157.701 183.864 157.898C183.546 158.248 183.21 158.579 182.854 158.891C182.752 158.98 182.644 159.063 182.542 159.152C182.358 159.171 182.333 159.33 182.542 159.152L182.701 159.025C182.619 159.088 182.536 159.145 182.447 159.203C182.301 159.298 182.161 159.4 182.015 159.489C181.563 159.775 181.093 160.023 180.616 160.259C180.063 160.532 181.036 160.119 180.464 160.322C180.159 160.431 179.854 160.539 179.542 160.628C179.231 160.717 178.919 160.793 178.608 160.857C178.449 160.889 178.017 160.882 177.902 160.978C178.131 160.787 178.443 160.927 178.036 160.946C177.877 160.952 177.718 160.971 177.559 160.978C177.241 160.997 176.917 161.003 176.599 160.997C176.434 160.997 174.909 160.927 174.909 160.882C174.909 160.87 175.532 160.984 175.15 160.914C175.029 160.889 174.909 160.876 174.788 160.851C174.419 160.787 174.057 160.711 173.695 160.622C172.5 160.335 171.337 159.934 170.199 159.47C170.777 159.705 170.104 159.419 169.887 159.317C169.608 159.19 169.335 159.056 169.061 158.916C168.47 158.624 167.892 158.306 167.32 157.981C166.207 157.345 165.133 156.651 164.084 155.913C163.582 155.564 163.093 155.201 162.604 154.832C162.114 154.463 162.902 155.074 162.426 154.692C162.127 154.45 161.822 154.208 161.523 153.967C159.534 152.331 157.595 150.626 155.866 148.718C155.453 148.26 155.065 147.776 154.665 147.305C154.43 147.032 154.728 147.394 154.754 147.426C154.646 147.286 154.544 147.146 154.436 147C154.226 146.714 154.029 146.427 153.832 146.135C153.489 145.619 153.171 145.091 152.873 144.55C152.733 144.296 152.599 144.035 152.472 143.774C152.421 143.672 152.37 143.571 152.326 143.462C152.281 143.373 152.002 142.769 152.205 143.214C152.389 143.609 152.084 142.896 152.027 142.75C151.938 142.502 151.849 142.254 151.767 141.999C151.595 141.458 151.442 140.911 151.315 140.358C151.226 139.957 150.928 139.2 151.017 138.799C151.017 138.799 151.093 139.454 151.055 139.085C151.042 138.933 151.017 138.786 151.004 138.633C150.972 138.334 150.953 138.029 150.934 137.73C150.87 136.629 150.889 135.529 150.998 134.428C151.01 134.301 151.112 133.442 151.042 133.944C150.978 134.409 151.099 133.614 151.125 133.461C151.226 132.895 151.341 132.335 151.487 131.781C151.748 130.744 152.034 129.586 152.529 128.632C152.243 129.186 152.485 128.753 152.625 128.447C152.739 128.206 152.853 127.964 152.974 127.729C153.235 127.22 153.514 126.717 153.813 126.233C154.093 125.775 154.385 125.336 154.697 124.897C154.767 124.802 154.83 124.713 154.9 124.617C155.275 124.108 154.856 124.719 154.824 124.719C154.938 124.719 155.332 124.108 155.409 124.013C156.165 123.141 157.004 122.359 157.849 121.576C158.765 120.73 159.699 119.897 160.659 119.101C161.129 118.707 161.612 118.319 162.095 117.943C161.606 118.325 162.229 117.842 162.4 117.721C162.68 117.511 162.966 117.301 163.258 117.097C164.288 116.366 165.356 115.672 166.455 115.042C166.976 114.743 167.504 114.463 168.044 114.196C168.311 114.062 168.578 113.935 168.845 113.814C168.947 113.77 169.08 113.681 169.188 113.662C168.559 113.795 169.048 113.725 169.239 113.649C170.332 113.216 171.464 112.873 172.621 112.65C172.779 112.618 173.58 112.516 173.135 112.555C172.69 112.593 173.498 112.529 173.65 112.516C174.235 112.478 174.82 112.478 175.404 112.516C175.563 112.529 175.716 112.548 175.868 112.555C176.243 112.574 175.608 112.516 175.608 112.516C175.862 112.497 176.174 112.612 176.421 112.669C177.013 112.796 177.585 112.974 178.15 113.184L176.746 112.364C178.284 113.63 179.828 114.896 181.366 116.162C182.65 117.218 184.621 117.511 185.86 116.162C186.934 114.991 187.233 112.79 185.86 111.664C184.869 110.849 183.877 110.035 182.892 109.221C182.39 108.807 181.888 108.394 181.385 107.98C180.337 107.127 179.078 106.708 177.763 106.459C171.457 105.27 165.349 107.878 160.265 111.447C157.697 113.254 155.281 115.278 152.993 117.422C150.934 119.349 149.116 121.519 147.762 124.007C144.966 129.147 143.993 135.058 144.953 140.828C145.976 146.955 149.803 152.032 154.309 156.117C158.815 160.202 164.186 164.21 170.199 166.227C176.212 168.244 182.727 167.537 187.506 163.224C191.58 159.553 193.169 154.017 193.748 148.743C194.326 143.469 193.652 137.736 192.998 132.341C192.305 126.602 191.142 120.883 188.809 115.564C188.155 114.075 187.106 112.72 185.866 111.67C184.627 110.62 182.599 110.334 181.373 111.67C180.286 112.854 180.019 115.023 181.373 116.168L181.366 116.206Z" fill="#5E5E5E"/>
<path d="M222.794 109.347C215.669 110.352 214.124 116.543 210.66 122.861C207.196 129.178 206.618 137.214 209.955 143.602C212.745 148.952 217.893 152.725 222.152 156.778C224.376 158.897 227.364 160.118 230.427 159.934C237.171 159.526 238.741 153.024 239.3 147.527C240.044 140.179 241.614 130.731 240.864 123.363C240.364 118.464 238.506 114.672 235.29 111.988C235.29 111.988 229.493 108.406 222.8 109.347H222.794Z" fill="#5E5E5E"/>
<path d="M221.944 106.28C219.396 106.662 217.069 107.807 215.143 109.518C213.427 111.039 212.143 113.069 211.069 115.079C209.995 117.089 208.972 119.297 207.853 121.371C206.487 123.903 205.476 126.671 204.993 129.509C203.989 135.438 204.828 141.616 208.095 146.744C211.057 151.395 215.372 154.799 219.351 158.514C221.55 160.563 224.036 162.274 227.048 162.841C230.061 163.407 232.972 163.14 235.591 161.702C239.614 159.488 241.394 154.85 242.074 150.542C242.487 147.94 242.697 145.306 243.008 142.691C243.345 139.866 243.676 137.042 243.917 134.21C244.362 128.885 244.267 123.611 243.428 118.33C243.186 116.816 242.735 115.264 241.839 113.997C240.758 112.464 239.372 111.293 237.949 110.097C236.817 109.149 235.68 108.577 234.313 108.004C231.936 106.999 229.508 106.382 226.934 106.115C225.548 105.968 224.163 105.994 222.783 106.172C221.144 106.388 219.523 107.482 219.605 109.353C219.675 110.893 221.016 112.769 222.783 112.534C224.074 112.362 225.377 112.33 226.68 112.451C226.807 112.464 226.934 112.477 227.061 112.49C227.677 112.547 227.061 112.47 226.959 112.47C227.233 112.47 227.531 112.566 227.798 112.617C228.364 112.725 228.923 112.859 229.483 113.011C229.953 113.145 230.417 113.291 230.881 113.45C231.091 113.527 231.3 113.603 231.51 113.679C231.65 113.73 232.406 114.042 231.86 113.813C231.313 113.584 231.949 113.857 232.057 113.902C232.203 113.966 232.349 114.036 232.495 114.106C232.737 114.22 232.978 114.347 233.214 114.475C233.334 114.538 233.461 114.64 233.595 114.685C233.62 114.691 233.639 114.716 233.665 114.723C233.697 114.729 233.214 114.386 233.207 114.379C233.303 114.481 233.43 114.564 233.538 114.659C234.218 115.225 234.904 115.798 235.546 116.402C235.762 116.606 235.978 116.822 236.188 117.039C236.29 117.147 236.385 117.261 236.481 117.369C236.932 117.872 236.163 116.886 236.353 117.198C236.493 117.427 236.646 117.643 236.773 117.878C236.849 118.018 237.053 118.496 236.811 117.917C236.57 117.338 236.792 117.878 236.843 118.037C237.059 118.68 237.192 119.348 237.3 120.016C237.326 120.162 237.415 120.837 237.345 120.277C237.275 119.717 237.364 120.449 237.383 120.601C237.447 121.142 237.504 121.689 237.561 122.23C237.822 124.718 237.923 127.186 237.841 129.687C237.669 134.917 236.945 140.102 236.353 145.293C236.233 146.381 236.093 147.469 235.997 148.557C235.966 148.914 236.055 148.15 236.048 148.182C236.023 148.303 236.01 148.436 235.991 148.564C235.959 148.786 235.921 149.009 235.883 149.225C235.8 149.702 235.711 150.173 235.603 150.644C235.4 151.548 235.082 152.4 234.809 153.284C234.707 153.609 234.961 152.941 234.955 152.954C234.892 153.049 234.853 153.183 234.803 153.291C234.714 153.488 234.618 153.679 234.517 153.863C234.3 154.264 234.059 154.64 233.805 155.015C233.512 155.454 234.307 154.455 233.805 155.002C233.665 155.155 233.531 155.308 233.385 155.454C233.258 155.581 233.125 155.696 232.997 155.817C232.635 156.16 233.163 155.677 233.226 155.658C233.099 155.708 232.972 155.836 232.858 155.912C232.54 156.122 232.089 156.243 231.809 156.485C232.216 156.141 232.336 156.287 232.038 156.377C231.942 156.402 231.853 156.44 231.758 156.472C231.466 156.561 231.173 156.637 230.875 156.695C230.773 156.714 230.665 156.72 230.563 156.752C230.233 156.841 230.849 156.701 230.868 156.707C230.658 156.65 230.264 156.752 230.036 156.758C229.737 156.765 229.444 156.758 229.146 156.739C229.044 156.733 228.701 156.739 228.644 156.695C228.764 156.784 229.197 156.796 228.739 156.695C228.161 156.567 227.608 156.415 227.042 156.23C226.858 156.173 226.521 156.154 227.099 156.268C226.991 156.249 226.858 156.16 226.756 156.109C226.451 155.963 226.158 155.804 225.866 155.632C225.612 155.479 225.37 155.314 225.122 155.149C225.002 155.072 224.665 154.78 225.154 155.187C225.059 155.104 224.957 155.028 224.862 154.945C224.385 154.538 223.94 154.092 223.476 153.666C222.574 152.839 221.658 152.025 220.743 151.204C218.906 149.556 217.076 147.877 215.449 146.012C215.252 145.79 215.061 145.561 214.87 145.332C214.788 145.236 214.711 145.134 214.629 145.039C214.324 144.689 214.934 145.453 214.66 145.083C214.285 144.575 213.917 144.059 213.574 143.525C213.256 143.022 212.957 142.513 212.684 141.985C212.563 141.756 212.449 141.521 212.341 141.285C212.264 141.126 212.201 140.967 212.124 140.814C212.239 141.063 212.271 141.177 212.15 140.859C211.711 139.682 211.362 138.492 211.139 137.258C211.107 137.086 211.088 136.914 211.05 136.749C210.974 136.38 211.069 136.927 211.069 136.953C211.006 136.666 210.999 136.342 210.974 136.049C210.917 135.4 210.891 134.751 210.898 134.102C210.898 133.498 210.929 132.887 210.98 132.283C210.993 132.111 211.012 131.939 211.031 131.761C211.031 131.697 211.082 131.258 211.031 131.665C210.98 132.073 211.031 131.64 211.044 131.57C211.076 131.354 211.114 131.137 211.152 130.927C211.374 129.687 211.699 128.459 212.118 127.263C212.22 126.976 212.328 126.69 212.436 126.404C212.487 126.283 212.531 126.162 212.582 126.041C212.341 126.646 212.512 126.207 212.569 126.079C212.849 125.494 213.129 124.915 213.44 124.342C213.98 123.35 214.489 122.338 214.991 121.327C215.906 119.469 216.802 117.586 217.966 115.868C218.08 115.703 218.194 115.543 218.309 115.378C218.62 114.926 217.889 115.868 218.353 115.321C218.665 114.952 218.989 114.589 219.338 114.258C219.504 114.106 219.669 113.959 219.841 113.813C220.413 113.317 219.427 114.074 219.885 113.781C220.305 113.514 220.718 113.266 221.156 113.037C221.843 112.68 220.711 113.17 221.245 112.992C221.48 112.916 221.716 112.827 221.951 112.757C222.497 112.598 223.057 112.483 223.622 112.4C225.275 112.152 226.324 109.989 225.841 108.488C225.256 106.687 223.699 106 221.932 106.267L221.944 106.28Z" fill="#5E5E5E"/>
<path d="M204.954 160.87C197.861 170.623 195.827 183.997 196.66 196.028C196.717 196.823 196.799 197.656 197.219 198.337C198.693 200.736 202.666 199.171 203.931 196.657C205.196 194.144 205.151 191.071 206.67 188.705C207.058 188.107 207.566 187.54 208.24 187.311C211.1 186.325 212.308 191.326 215.136 192.401C217.189 193.177 219.516 191.434 220.113 189.315C220.711 187.197 220.05 184.951 219.249 182.902C216.401 175.656 214.463 168.593 208.399 163.72L204.96 160.863L204.954 160.87Z" fill="#5E5E5E"/>
<path d="M202.207 159.266C197.078 166.373 194.625 175.026 193.69 183.646C193.239 187.826 193.125 192.108 193.493 196.295C193.608 197.631 193.824 198.954 194.568 200.093C195.311 201.232 196.474 202.129 197.815 202.491C199.856 203.045 202.163 202.46 203.873 201.27C205.894 199.858 207.013 197.93 207.712 195.588C208.004 194.602 208.207 193.591 208.481 192.592C208.614 192.096 208.773 191.618 208.938 191.135C209.205 190.371 208.602 191.663 209.021 190.969C209.167 190.721 209.301 190.289 209.529 190.11L209.326 190.378C209.428 190.257 209.542 190.142 209.663 190.041C209.771 190.002 208.773 190.46 209.142 190.359C209.415 190.276 209.758 190.295 208.818 190.371C209.11 190.346 209.542 190.492 208.525 190.301C209.085 190.403 208.424 190.499 208.284 190.168C208.284 190.18 208.64 190.39 208.652 190.39C208.398 190.429 208.036 189.843 208.481 190.276C208.633 190.429 208.786 190.581 208.932 190.74C209.885 191.797 210.629 193.037 211.729 193.96C213.845 195.754 216.426 196.237 218.987 195.086C221.269 194.061 222.922 191.771 223.322 189.322C223.767 186.618 223.068 184.073 222.095 181.572C221.358 179.676 220.665 177.761 219.922 175.872C218.167 171.412 216.133 167.073 212.835 163.535C211.144 161.716 209.085 160.201 207.178 158.617C205.9 157.555 203.917 157.268 202.684 158.617C201.61 159.788 201.318 161.983 202.684 163.115C204.051 164.248 205.322 165.272 206.618 166.379C207.286 166.952 207.915 167.563 208.506 168.212C208.824 168.555 209.218 168.924 209.46 169.331C209.104 168.733 209.364 169.204 209.479 169.363C209.644 169.592 209.809 169.821 209.968 170.05C211.017 171.584 211.894 173.225 212.669 174.911C212.841 175.28 213 175.655 213.165 176.031C213.502 176.794 212.911 175.401 213.229 176.177C213.305 176.368 213.388 176.559 213.464 176.75C213.826 177.64 214.169 178.538 214.506 179.435C215.218 181.318 216.019 183.188 216.642 185.103C216.788 185.561 216.922 186.026 217.023 186.503C217.049 186.611 217.15 187.527 217.093 186.789C217.119 187.069 217.138 187.356 217.131 187.636C217.131 187.826 217.119 188.011 217.106 188.195C217.157 187.438 217.03 188.361 217.017 188.463C216.941 189.131 217.347 187.935 217.017 188.526C216.991 188.577 216.661 189.061 216.667 189.099L216.89 188.806C216.794 188.921 216.693 189.029 216.585 189.131C216.146 189.665 217.138 188.851 216.54 189.188C216.381 189.277 216.222 189.366 216.07 189.455C215.676 189.684 216.801 189.188 216.133 189.398C215.466 189.608 216.864 189.398 216.152 189.398C215.441 189.398 216.89 189.557 216.165 189.398C215.79 189.315 216.051 189.143 216.413 189.519C216.311 189.417 215.981 189.226 215.841 189.175C216.432 189.404 216.26 189.519 215.955 189.239C215.866 189.163 215.784 189.08 215.701 188.991C215.447 188.736 215.212 188.463 214.983 188.183C214.544 187.648 214.138 187.095 213.699 186.567C212.542 185.186 210.96 184.054 209.097 184.009C206.51 183.952 204.483 185.759 203.415 187.992C202.506 189.888 202.163 191.905 201.572 193.902C201.502 194.151 201.419 194.392 201.337 194.634C201.286 194.774 200.923 195.493 201.273 194.819C201.159 195.035 200.784 195.48 200.765 195.697L201.019 195.353C200.936 195.448 200.847 195.544 200.752 195.639C200.663 195.735 200.561 195.817 200.466 195.907C199.989 196.384 201.07 195.55 200.485 195.887C200.262 196.015 200.04 196.148 199.811 196.276C199.334 196.543 199.989 196.161 200.046 196.18C199.989 196.155 199.582 196.32 199.512 196.339C198.896 196.543 200.282 196.339 199.652 196.339C199.519 196.339 199.258 196.301 199.137 196.339C199.169 196.333 199.983 196.479 199.493 196.365C198.896 196.225 200.173 196.746 199.652 196.435C199.131 196.123 200.18 196.982 199.773 196.517C200.339 197.173 199.957 196.765 199.818 196.505C200.154 197.128 199.862 196.422 199.824 196.256C199.996 197.007 199.83 196.186 199.824 196.034C199.792 195.614 199.767 195.188 199.748 194.768C199.697 193.743 199.665 192.719 199.652 191.695C199.633 189.792 199.69 187.89 199.83 185.988C199.913 184.862 200.034 183.736 200.161 182.609C200.262 181.731 200.053 183.29 200.186 182.419C200.224 182.158 200.262 181.903 200.301 181.642C200.396 181.038 200.498 180.44 200.606 179.842C201.006 177.717 201.521 175.611 202.169 173.55C202.506 172.487 202.875 171.437 203.288 170.4C203.351 170.241 203.415 170.082 203.479 169.923C203.618 169.592 203.606 169.605 203.453 169.974C203.523 169.815 203.587 169.662 203.657 169.503C203.866 169.039 204.076 168.574 204.305 168.116C205.271 166.137 206.396 164.248 207.686 162.466C208.665 161.111 207.966 158.865 206.549 158.115C204.902 157.243 203.243 157.809 202.201 159.253L202.207 159.266Z" fill="#5E5E5E"/>
<path d="M83.2442 209.961C89.9306 210.846 96.6235 211.73 103.31 212.621C106.704 213.072 110.105 213.518 113.499 213.969C114.293 214.078 115.094 214.179 115.888 214.288C116.111 214.319 117.064 214.491 116.378 214.351C116.708 214.415 117.039 214.472 117.363 214.555C117.655 214.631 117.941 214.72 118.227 214.816C118.336 214.854 118.444 214.892 118.552 214.93C119.136 215.134 118.45 214.924 118.431 214.873C118.475 214.987 119.155 215.216 119.283 215.28C119.607 215.446 119.925 215.624 120.236 215.808C121.405 216.495 122.505 217.291 123.579 218.118C123.077 217.73 123.954 218.423 124.056 218.499C124.361 218.748 124.672 218.989 124.978 219.237C125.613 219.753 126.223 220.332 126.891 220.796C126.84 220.758 126.592 220.249 126.833 220.72C126.897 220.847 126.967 220.968 127.037 221.089C127.158 221.312 127.285 221.534 127.406 221.757C127.73 222.33 128.06 222.889 128.397 223.449C129.09 224.582 129.821 225.689 130.59 226.77C134.327 232.007 138.802 236.549 143.963 240.379C145.145 241.257 146.219 242.065 147.675 242.415C148.882 242.708 150.096 242.994 151.304 243.268C153.954 243.866 156.618 244.419 159.293 244.928C165.294 246.061 171.338 246.958 177.402 247.626C189.898 249.007 202.501 249.356 215.055 248.657C217.781 248.504 220.502 248.307 223.222 248.059C225.529 247.849 227.798 247.537 230.029 246.888C235.858 245.189 241.241 241.785 245.144 237.115C245.938 236.161 246.695 235.175 247.387 234.144C248.322 232.764 247.692 230.556 246.25 229.792C244.642 228.94 242.9 229.462 241.902 230.931C241.642 231.319 241.362 231.701 241.089 232.077C240.631 232.694 241.445 231.638 240.936 232.267C240.72 232.535 240.504 232.795 240.281 233.05C239.43 234.023 238.514 234.946 237.542 235.792C237.256 236.047 236.957 236.288 236.658 236.53C236.589 236.587 236.182 236.88 236.595 236.581C236.43 236.702 236.271 236.823 236.106 236.944C235.438 237.421 234.752 237.866 234.046 238.286C233.43 238.649 232.794 238.992 232.152 239.31C231.866 239.45 231.574 239.584 231.288 239.718C230.741 239.972 231.211 239.756 231.319 239.718C231.122 239.8 230.925 239.877 230.722 239.959C228.745 240.729 226.686 241.264 224.595 241.588C224.468 241.607 224.144 241.696 224.608 241.588C225.129 241.461 224.62 241.575 224.468 241.588C224.182 241.614 223.889 241.645 223.603 241.671C222.936 241.734 222.269 241.792 221.595 241.849C220.216 241.963 218.836 242.072 217.457 242.161C205.165 242.975 192.815 242.791 180.554 241.601C179.01 241.455 177.472 241.289 175.933 241.105C175.202 241.022 174.478 240.933 173.747 240.837C173.41 240.793 173.073 240.748 172.736 240.704C172.107 240.621 172.597 240.685 172.724 240.704C172.489 240.672 172.247 240.64 172.012 240.608C169.12 240.208 166.234 239.749 163.355 239.234C160.705 238.763 158.06 238.242 155.429 237.675C154.183 237.408 152.937 237.128 151.698 236.842C151.113 236.708 150.529 236.568 149.95 236.428C149.645 236.352 149.34 236.263 149.035 236.206C148.863 236.174 148.711 236.027 148.984 236.218C149.378 236.498 148.882 236.104 148.793 236.04C148.317 235.709 147.846 235.372 147.376 235.035C147.115 234.844 146.855 234.64 146.594 234.45C146.308 234.24 146.715 234.545 146.74 234.564C146.537 234.405 146.334 234.246 146.13 234.081C145.012 233.184 143.925 232.236 142.876 231.256C141.713 230.168 140.601 229.029 139.539 227.846C139.024 227.273 138.528 226.694 138.039 226.102C137.817 225.835 137.601 225.568 137.384 225.294C137.264 225.142 137.143 224.989 137.022 224.836C137.295 225.186 137.048 224.862 136.914 224.684C135.357 222.616 133.946 220.434 132.694 218.169C132.312 217.481 132.007 216.839 131.397 216.304C130.787 215.77 130.12 215.261 129.484 214.746C128.175 213.683 126.859 212.633 125.492 211.654C123.357 210.127 120.922 208.727 118.304 208.256C114.935 207.652 111.49 207.34 108.096 206.895C101.46 206.017 94.8248 205.139 88.1891 204.261C86.5429 204.044 84.8967 203.822 83.2505 203.605C81.6043 203.389 80.0026 205.228 80.0725 206.786C80.1551 208.695 81.4772 209.732 83.2505 209.968L83.2442 209.961Z" fill="#5E5E5E"/>
<path d="M153.65 225.828C153.688 226.057 153.707 226.305 153.765 226.534C153.733 226.419 153.676 225.802 153.726 226.248C153.739 226.375 153.758 226.508 153.771 226.636C153.828 227.215 153.873 227.8 153.904 228.385C153.968 229.613 153.981 230.847 153.962 232.082C153.923 234.461 153.784 236.847 153.542 239.214C153.377 240.874 155.125 242.465 156.72 242.395C158.582 242.312 159.72 240.995 159.898 239.214C160.394 234.245 160.667 229.079 159.784 224.135C159.491 222.494 157.407 221.419 155.875 221.915C154.114 222.487 153.339 224.072 153.657 225.828H153.65Z" fill="#5E5E5E"/>
<path d="M171.09 224.205C170.506 227.761 170.137 231.375 169.838 234.97C169.686 236.828 169.559 238.685 169.514 240.543C169.482 242.013 169.476 243.546 169.813 244.984C170.194 246.606 172.133 247.72 173.722 247.205C175.412 246.657 176.347 245.029 175.94 243.292C175.915 243.19 175.902 243.082 175.876 242.974C175.775 242.528 175.978 244.011 175.927 243.336C175.908 243.063 175.883 242.789 175.876 242.516C175.851 241.828 175.851 241.141 175.876 240.454C175.921 238.622 176.048 236.789 176.194 234.963C176.34 233.138 176.537 231.235 176.747 229.377C176.836 228.588 176.951 227.8 177.04 227.011C176.9 228.245 177.033 227.074 177.078 226.775C177.122 226.476 177.167 226.19 177.218 225.891C177.485 224.256 176.792 222.385 174.999 221.978C173.468 221.628 171.376 222.443 171.09 224.199V224.205Z" fill="#5E5E5E"/>
<path d="M186.108 226.82C186.159 227.068 186.019 225.7 186.045 226.368C186.051 226.571 186.064 226.775 186.07 226.972C186.083 227.494 186.07 228.016 186.07 228.537C186.045 230.026 185.981 231.515 185.918 232.997C185.784 236.191 185.612 239.391 185.543 242.585C185.517 243.807 185.479 245.048 185.714 246.25C186.038 247.885 188.072 248.973 189.623 248.47C191.358 247.911 192.191 246.307 191.841 244.558C191.79 244.309 191.93 245.677 191.905 245.009C191.899 244.806 191.886 244.602 191.879 244.405C191.867 243.883 191.879 243.362 191.879 242.84C191.905 241.351 191.968 239.862 192.032 238.38C192.165 235.186 192.337 231.986 192.407 228.792C192.432 227.57 192.471 226.33 192.235 225.127C191.911 223.492 189.877 222.404 188.326 222.907C186.591 223.467 185.759 225.07 186.108 226.82Z" fill="#5E5E5E"/>
<path d="M205.254 225.918C205.152 226.713 205.209 227.546 205.234 228.342C205.279 229.703 205.355 231.065 205.438 232.426C205.609 235.359 205.819 238.299 205.934 241.232C205.972 242.186 206.054 243.185 205.934 244.133C205.724 245.787 207.548 247.384 209.112 247.314C211.012 247.231 212.061 245.908 212.29 244.133C212.391 243.338 212.334 242.504 212.309 241.709C212.264 240.347 212.188 238.986 212.105 237.624C211.934 234.691 211.724 231.752 211.61 228.819C211.571 227.865 211.489 226.866 211.61 225.918C211.819 224.264 209.995 222.667 208.432 222.737C206.531 222.819 205.482 224.143 205.254 225.918Z" fill="#5E5E5E"/>
<path d="M221.306 224.841C220.81 226.253 220.791 227.888 220.759 229.377C220.721 231.311 220.804 233.245 220.918 235.173C221.128 238.666 221.439 242.159 221.942 245.62C222.183 247.274 224.357 248.324 225.851 247.84C227.656 247.255 228.329 245.696 228.069 243.928C228.05 243.813 228.037 243.699 228.018 243.584C228.209 244.844 228.101 244.208 228.062 243.921C228.024 243.635 227.993 243.355 227.961 243.075C227.872 242.324 227.795 241.574 227.719 240.823C227.535 238.94 227.382 237.05 227.268 235.16C227.154 233.271 227.077 231.464 227.103 229.613C227.115 228.868 227.147 228.124 227.211 227.379C227.236 227.087 227.389 226.546 227.16 227.672C227.192 227.526 227.204 227.379 227.23 227.233C227.274 226.991 227.338 226.756 227.414 226.52C227.967 224.949 226.791 222.97 225.196 222.608C223.423 222.2 221.878 223.148 221.287 224.828L221.306 224.841Z" fill="#5E5E5E"/>
</g>
<defs>
<clipPath id="clip0_291_26275">
<rect width="271" height="238" fill="white" transform="translate(0 11)"/>
</clipPath>
</defs>
</svg>
