<svg width="279" height="367" viewBox="0 0 279 367" fill="none" xmlns="http://www.w3.org/2000/svg">
<g opacity="0.86">
<path d="M17.4986 74.2362C40.7555 130.336 57.5926 162.252 86.1001 210.222C69.7321 240.852 55.1913 280.769 53.7911 318.136C53.7071 320.46 53.6581 322.866 54.3372 325.017C55.0512 327.266 56.4724 328.973 57.8796 330.559C79.0782 354.481 113.158 360.332 142.359 363.693C170.489 366.934 195.573 357.542 218.262 336.094C222.029 332.537 225.753 328.529 227.84 323.092C232.04 312.15 228.54 299.058 225.011 287.717C219.684 270.586 214.356 253.448 209.021 236.317C206.641 228.669 204.219 220.39 205.668 212.343C207.047 204.695 216.652 183.849 219.845 177.194C230.703 154.529 236.906 137.27 245.51 115.68C256.858 87.1858 263.341 72.1155 273.961 43.6444C275.2 40.3205 276.405 36.4927 275.375 33.0485C274.395 29.7697 271.728 28.0025 269.236 26.694C258.426 21.0013 246.882 18.2339 235.429 15.4966C227.868 13.6917 220.3 11.8869 212.739 10.0746C205.787 8.41262 198.814 6.75067 191.757 6.29946C183.139 5.75049 169.753 3.01317 161.121 3.00565C147.596 2.99061 134.469 2.35892 120.649 3.00565C103.476 3.8103 91.1197 4.88568 74.0936 7.94637C49.1565 12.4359 23.3373 17.9707 2.59375 36.6732L17.4916 74.2362H17.4986Z" fill="#C0C6BD"/>
<path d="M15.2287 75.6551C23.1887 94.8464 31.4988 113.88 40.5299 132.522C48.6509 149.3 57.381 165.731 66.5241 181.892C72.1808 191.886 77.9775 201.783 83.8302 211.641V208.791C68.7364 237.104 56.9469 268.486 52.6694 300.928C52.1303 304.996 51.6963 309.08 51.4232 313.186C51.1502 317.292 50.6181 321.585 51.7173 325.458C52.7534 329.098 55.3157 331.881 57.794 334.475C60.2723 337.069 62.7156 339.243 65.369 341.378C75.9893 349.936 88.5838 355.381 101.332 359.058C114.081 362.736 127.278 364.721 140.418 366.27C153.559 367.819 167.708 367.037 180.834 362.623C194.353 358.081 206.632 350.222 217.463 340.506C222.986 335.55 228.3 330.143 230.764 322.683C233.229 315.223 232.459 306.357 230.715 298.521C228.818 290.001 225.899 281.721 223.322 273.419C220.585 264.628 217.855 255.837 215.117 247.046C212.534 238.744 209.16 230.239 208.089 221.508C207.34 215.386 208.712 210.198 210.791 204.61C214.739 193.977 219.703 183.832 224.464 173.605C231.212 159.106 237.121 144.201 242.967 129.266C248.813 114.331 254.854 99.4788 260.84 84.6115C263.556 77.866 266.252 71.1054 268.891 64.3148C270.333 60.6149 271.754 56.915 273.162 53.2075C274.688 49.1993 276.452 45.1836 277.6 41.0249C278.671 37.1446 278.811 32.7603 276.543 29.3161C274.583 26.3382 271.558 24.7063 268.548 23.2248C261.148 19.5926 253.356 17.1034 245.459 15.058C237.562 13.0125 228.853 11.0272 220.55 9.04188C212.247 7.05657 204.014 4.84566 195.578 3.82292C192.281 3.42435 188.969 3.26643 185.672 2.86035C182.136 2.42418 178.608 1.90529 175.073 1.43152C167.995 0.483989 161.064 0.205744 153.937 0.115503C137.296 -0.0950605 120.746 -0.155221 104.14 1.17584C89.1229 2.37906 74.204 4.77798 59.4392 7.90634C44.6744 11.0347 31.4638 14.9301 18.6662 21.9389C12.2534 25.4433 6.26063 29.7222 0.736947 34.6704C-0.236173 35.5428 -0.103157 36.9942 0.323896 38.0846C4.67143 49.0489 9.01897 60.0057 13.3665 70.9701C13.9826 72.5267 14.6057 74.0909 15.2217 75.6476C15.7748 77.0463 17.7 77.3622 18.8132 76.6628C20.1574 75.8055 20.3184 74.2187 19.7583 72.805C15.4108 61.8406 11.0632 50.8838 6.71569 39.9195C6.09961 38.3628 5.47653 36.7986 4.86046 35.242L4.44741 38.6561C26.4301 18.9835 56.0368 13.4261 83.5502 9.19981C98.6511 6.87609 113.997 5.78567 129.252 5.56759C137.485 5.44727 145.711 5.66535 153.944 5.77063C160.882 5.86087 167.645 6.094 174.54 7.01145C181.023 7.87626 187.485 8.65836 193.989 9.29757C202.166 10.1022 210.196 12.3507 218.191 14.2608C226.186 16.171 234.258 18.0284 242.267 20.0438C249.8 21.9464 257.347 24.1122 264.474 27.4211C267.092 28.6393 270.606 29.9252 272.287 32.5874C274.345 35.8436 272.378 40.3481 271.187 43.5517C268.415 50.9891 265.58 58.3964 262.688 65.7812C257.41 79.2422 251.921 92.6054 246.537 106.021C240.678 120.618 235.119 135.35 229.105 149.879C224.044 162.114 218.254 173.943 212.856 186.005C210.483 191.315 208.187 196.669 206.114 202.128C204.168 207.25 202.53 212.296 202.614 217.913C202.74 226.524 205.778 234.758 208.285 242.812C210.917 251.265 213.542 259.717 216.175 268.178C218.807 276.638 221.509 284.842 223.925 293.25C226.053 300.657 227.985 308.719 226.844 316.509C225.724 324.157 221.229 329.587 215.979 334.513C210.665 339.491 204.973 343.995 198.896 347.846C187.632 354.982 175.052 359.697 162.009 361.044C149.099 362.375 136.043 360.412 123.301 358.231C110.56 356.05 98.007 353.012 86.2035 347.62C80.3928 344.966 74.7991 341.709 69.6535 337.784C67.1122 335.851 64.7109 333.723 62.4426 331.429C60.1743 329.136 57.402 326.669 56.6529 323.368C55.8478 319.803 56.5129 315.569 56.7859 311.952C57.0799 308.034 57.5 304.131 58.06 300.251C59.2012 292.257 60.8324 284.346 62.8276 276.548C66.8111 261.003 72.2368 245.903 78.7266 231.374C81.723 224.674 84.9504 218.094 88.3878 211.641C88.8429 210.792 88.8919 209.641 88.3878 208.791C78.3976 191.976 68.5823 175.033 59.3482 157.715C50.4641 141.05 42.1681 124.032 34.3971 106.736C29.3495 95.5157 24.5119 84.1829 19.7933 72.805C19.2192 71.4213 17.329 71.0753 16.2019 71.7897C14.8717 72.632 14.6757 74.2488 15.2567 75.6476L15.2287 75.6551Z" fill="#C0C6BD"/>
</g>
<g opacity="0.56">
<path fill-rule="evenodd" clip-rule="evenodd" d="M203.375 233.37C201.198 226.128 198.986 218.292 200.309 210.681C180.264 220.407 130.608 233.615 92.3486 208.636C77.3878 237.626 62.791 275.445 61.5098 310.812C61.4258 313.008 61.3838 315.294 62.0069 317.324C62.651 319.452 63.9531 321.069 65.2413 322.573C84.6127 345.216 115.76 350.751 142.447 353.932C168.161 356.993 191.082 348.104 211.818 327.807C215.256 324.446 218.665 320.648 220.569 315.504C224.413 305.149 221.207 292.748 217.986 282.017C215.55 273.909 213.115 265.8 210.68 257.69C208.246 249.583 205.811 241.475 203.375 233.37Z" fill="#C0C6BD"/>
<path d="M66.2144 163.936C73.2013 177.442 78.3889 187.128 85.3338 198.86H85.3478L92.3486 208.636C130.608 233.615 180.264 220.407 200.309 210.681C201.73 202.507 203.284 198.702 213.261 177.412C223.489 155.574 227.073 146.58 228.088 144C232.184 133.608 229.93 139.361 231.652 133.668C206.946 128.141 181.148 122.764 144.407 123.523C105.853 124.32 77.6608 130.276 52.4297 137.292C58.1424 150.077 59.1015 150.19 66.2144 163.936Z" fill="#8A9D81"/>
<path d="M87.5998 197.442C82.3771 188.613 77.4205 179.611 72.6389 170.497C68.6064 162.812 64.4969 155.194 60.3734 147.568C58.3151 143.763 56.4739 139.838 54.7027 135.874L53.1345 140.018C63.1947 137.228 73.325 134.724 83.5463 132.709C95.1327 130.43 106.698 128.791 118.439 127.745C132.265 126.512 146.176 126.016 160.045 126.392C172.058 126.723 184.317 127.79 196.043 129.565C206.509 131.144 216.892 133.273 227.239 135.566C228.478 135.837 229.717 136.115 230.956 136.393L229.122 132.927C228.786 134.04 228.541 135.168 228.24 136.288C228.107 136.792 227.897 137.273 227.715 137.755C227.512 138.288 227.302 138.822 227.092 139.364C227.26 138.935 227.078 139.401 227.05 139.462C226.952 139.71 226.854 139.958 226.756 140.206C226.525 140.8 226.294 141.387 226.056 141.981C224.978 144.711 223.858 147.418 222.702 150.11C216.605 164.323 209.709 178.115 203.506 192.268C201.7 196.389 199.929 200.585 198.795 204.992C198.325 206.827 197.94 208.699 197.66 210.572C196.876 215.851 197.471 221.138 198.676 226.296C199.88 231.455 201.546 236.509 203.065 241.577C204.598 246.691 206.138 251.805 207.672 256.918C210.738 267.116 213.986 277.275 216.822 287.555C219.181 296.128 221.295 305.927 218.089 314.583C216.633 318.508 213.986 321.727 211.172 324.599C208.106 327.728 204.85 330.676 201.455 333.383C188.874 343.407 174.137 350.168 158.582 351.454C150.776 352.1 143.075 351.273 135.339 350.228C128.086 349.243 120.413 347.927 113.069 346.122C98.4441 342.52 83.8473 336.744 72.4219 326.148C70.9937 324.825 69.6215 323.441 68.3124 321.99C67.0032 320.538 65.638 319.125 64.8119 317.335C63.8878 315.335 64.0348 312.988 64.1118 310.822C64.1959 308.431 64.3429 306.047 64.5459 303.663C65.351 294.158 67.0592 284.758 69.3205 275.538C73.8851 256.926 80.6969 239.005 88.7759 221.852C90.6451 217.881 92.5844 213.956 94.5866 210.068C94.9997 209.263 95.1467 208.007 94.5866 207.218C92.2553 203.962 89.917 200.698 87.5858 197.442C86.7246 196.238 85.3245 195.592 83.9943 196.426C82.8882 197.118 82.1811 199.074 83.0492 200.284C85.3805 203.541 87.7188 206.804 90.0501 210.06V207.21C81.285 224.228 73.682 242.028 67.9973 260.513C65.085 269.988 62.6907 279.652 61.0735 289.48C60.2544 294.436 59.6243 299.437 59.2252 304.453C58.8262 309.469 58.0701 314.891 59.9673 319.478C60.8494 321.614 62.3266 323.389 63.8038 325.081C65.134 326.6 66.5271 328.059 67.9763 329.442C70.9307 332.262 74.1091 334.827 77.4415 337.105C84.1273 341.678 91.4712 345.122 98.9902 347.791C106.509 350.461 114.007 352.273 121.68 353.702C129.381 355.139 137.201 356.334 144.993 357.026C161.291 358.47 177.561 354.793 191.976 346.528C199.621 342.144 206.657 336.571 213.09 330.352C216.234 327.314 219.258 324.028 221.393 320.065C223.69 315.801 224.754 310.95 224.908 306.055C225.216 295.88 221.911 285.999 219.048 276.456C215.891 265.935 212.726 255.414 209.569 244.901C207.994 239.66 206.362 234.433 204.864 229.169C203.499 224.341 202.337 219.378 202.533 214.302C202.694 210.113 203.87 205.827 205.263 201.924C205.438 201.427 205.627 200.923 205.816 200.435C205.907 200.202 205.998 199.968 206.089 199.735C205.802 200.465 206.18 199.51 206.264 199.307C206.769 198.058 207.301 196.818 207.833 195.584C209.324 192.163 210.885 188.771 212.46 185.387C216.29 177.145 220.161 168.933 223.872 160.623C225.748 156.412 227.603 152.186 229.353 147.914C229.871 146.636 230.382 145.357 230.886 144.071C231.699 142.011 232.742 139.913 233.309 137.747C233.603 136.642 233.848 135.529 234.177 134.431C234.59 133.047 233.687 131.265 232.343 130.964C222.065 128.663 211.767 126.459 201.385 124.76C189.399 122.805 177.33 121.489 165.211 120.947C151.196 120.323 137.131 120.661 123.136 121.722C110.829 122.654 98.5631 124.226 86.4026 126.459C75.9643 128.377 65.61 130.806 55.3398 133.588C54.1356 133.912 52.9315 134.243 51.7273 134.581C49.9771 135.07 49.445 137.13 50.1591 138.725C53.1205 145.335 56.5229 151.584 59.9743 157.901C64.9379 166.963 69.5305 176.25 74.5081 185.304C77.2805 190.35 80.1368 195.344 83.0562 200.284C83.8193 201.57 85.3945 202.082 86.6476 201.3C87.8378 200.548 88.3559 198.735 87.5928 197.442H87.5998Z" fill="#C0C6BD"/>
</g>
<path d="M85.489 248.05C83.6198 256.338 77.9141 261.722 72.7404 260.083C67.5668 258.443 64.8855 250.397 66.7477 242.117C68.6169 233.83 74.3226 228.446 79.4963 230.085C84.6699 231.724 87.3512 239.771 85.489 248.05Z" fill="#717F67"/>
<path d="M73.1821 289.824C71.1099 299.028 64.7671 305.007 59.0194 303.187C53.2716 301.367 50.2893 292.433 52.3615 283.228C54.4338 274.024 60.7766 268.045 66.5243 269.865C72.272 271.685 75.2544 280.619 73.1751 289.824H73.1821Z" fill="#717F67"/>
<path d="M104.977 301.095C104.102 311.51 98.2075 319.316 91.8087 318.534C85.41 317.744 80.9294 308.66 81.8045 298.244C82.6796 287.829 88.5743 280.023 94.9731 280.813C101.372 281.602 105.852 290.687 104.977 301.102V301.095Z" fill="#717F67"/>
<path d="M113.993 257.996C112.103 266.914 106.124 272.81 100.643 271.171C95.1609 269.531 92.2486 260.981 94.1388 252.062C96.029 243.143 102.008 237.248 107.489 238.887C112.971 240.526 115.883 249.077 113.993 257.996Z" fill="#717F67"/>
<path d="M150.097 307.883C150.083 318.358 143.838 326.788 136.137 326.713C128.443 326.638 122.213 318.088 122.227 307.612C122.241 297.137 128.485 288.707 136.186 288.782C143.88 288.857 150.111 297.407 150.097 307.883Z" fill="#717F67"/>
<path d="M151.305 259.815C151.298 268.245 146.264 275.035 140.069 274.975C133.873 274.915 128.86 268.034 128.867 259.597C128.874 251.166 133.908 244.376 140.104 244.436C146.299 244.496 151.312 251.377 151.305 259.815Z" fill="#717F67"/>
<path d="M197.7 249.048C199.191 257.463 204.651 263.284 209.888 262.05C215.125 260.817 218.163 252.996 216.672 244.581C215.181 236.166 209.72 230.346 204.483 231.579C199.247 232.812 196.208 240.633 197.7 249.048Z" fill="#717F67"/>
<path d="M208.126 291.701C209.785 301.049 215.841 307.516 221.665 306.14C227.483 304.771 230.858 296.078 229.198 286.731C227.539 277.383 221.476 270.916 215.659 272.292C209.841 273.661 206.467 282.354 208.126 291.701Z" fill="#717F67"/>
<path d="M175.874 300.506C176.28 310.974 181.818 319.224 188.238 318.93C194.665 318.637 199.537 309.921 199.131 299.453C198.725 288.985 193.188 280.736 186.761 281.029C180.334 281.322 175.461 290.038 175.867 300.506H175.874Z" fill="#717F67"/>
<path d="M168.794 256.773C170.285 265.82 175.984 272.175 181.535 270.964C187.08 269.753 190.37 261.436 188.886 252.389C187.395 243.342 181.696 236.988 176.145 238.199C170.6 239.409 167.309 247.719 168.794 256.766V256.773Z" fill="#717F67"/>
<path d="M104.414 250.035C105.632 251.795 107.662 256.262 106.073 260.022" stroke="#E1E1E1" stroke-width="7" stroke-linecap="round"/>
<path d="M77.5423 238.148C78.3474 240.209 79.3695 245.112 77.0312 248.286" stroke="#E1E1E1" stroke-width="7" stroke-linecap="round"/>
<path d="M140.742 251.811C141.96 253.57 143.991 258.037 142.401 261.797" stroke="#E1E1E1" stroke-width="7" stroke-linecap="round"/>
<path d="M179.102 247.418C180.32 249.178 182.35 253.645 180.761 257.405" stroke="#E1E1E1" stroke-width="7" stroke-linecap="round"/>
<path d="M205.625 239.607C207.179 240.961 210.099 244.684 209.37 248.797" stroke="#E1E1E1" stroke-width="7" stroke-linecap="round"/>
<path d="M216.984 280.656C218.679 281.747 221.997 284.988 221.752 289.184" stroke="#E1E1E1" stroke-width="7" stroke-linecap="round"/>
<path d="M186.938 289.943C188.632 291.034 191.95 294.275 191.705 298.471" stroke="#E1E1E1" stroke-width="7" stroke-linecap="round"/>
<path d="M139.734 298.797C140.946 300.564 142.962 305.039 141.352 308.791" stroke="#E1E1E1" stroke-width="7" stroke-linecap="round"/>
<path d="M93.9758 290.225C94.7739 292.285 95.782 297.196 93.4297 300.362" stroke="#E1E1E1" stroke-width="7" stroke-linecap="round"/>
<path d="M65.0383 283.412C65.8364 285.473 66.8445 290.383 64.4922 293.549" stroke="#E1E1E1" stroke-width="7" stroke-linecap="round"/>
<g opacity="0.91">
<path d="M4.31554 44.1649C9.53119 49.8275 16.189 52.4897 23.0849 54.9187C30.9328 57.6861 38.8298 60.3031 46.7898 62.702C62.5208 67.4472 78.4897 71.3426 94.6757 73.7942C110.862 76.2457 125.781 77.2233 141.393 76.4112C156.164 75.6441 170.901 73.2452 185.169 69.0114C199.437 64.7775 214.363 58.2125 227.79 50.0983C229.533 49.0454 231.263 47.955 232.985 46.8421C235.876 44.9695 233.237 40.089 230.332 41.969C217.331 50.3916 203.462 57.1521 188.949 61.9424C175.263 66.462 161.107 69.267 146.832 70.4026C131.752 71.6058 116.581 71.0192 101.579 69.1091C85.8476 67.1088 70.2917 63.5894 54.9878 59.2427C47.1609 57.0243 39.3969 54.5727 31.6819 51.9557C27.9995 50.7074 24.317 49.4515 20.6766 48.0979C17.6662 46.9774 14.7468 45.6614 12.0795 43.7738C10.6093 42.7286 9.28616 41.5103 8.04701 40.1642C5.66671 37.5773 1.95625 41.5705 4.33655 44.1499L4.31554 44.1649Z" fill="#68775E"/>
</g>
<g opacity="0.91">
<path d="M62.7457 144.285C82.8172 151.542 103.127 158.799 124.36 160.777C135.184 161.784 146.063 161.183 156.837 159.874C167.612 158.566 178.176 156.776 188.705 154.43C200.348 151.828 211.85 148.481 223.045 144.157C224.375 143.638 225.278 142.24 224.879 140.691C224.522 139.307 222.989 138.201 221.651 138.72C201.972 146.331 181.277 150.948 160.604 153.753C149.913 155.204 139.118 156.084 128.344 155.445C117.57 154.806 107.985 152.813 97.9391 150.068C86.5067 146.94 75.3123 142.901 64.1389 138.856C62.8367 138.382 61.2125 139.397 60.9115 140.826C60.5825 142.383 61.3525 143.789 62.7457 144.293V144.285Z" fill="#68775E"/>
</g>
</svg>
