<svg width="288" height="374" viewBox="0 0 288 374" fill="none" xmlns="http://www.w3.org/2000/svg">
<g opacity="0.56">
<path d="M18.0803 81.4071C42.1108 135.371 59.508 166.071 88.9638 212.215C72.0513 241.678 57.0268 280.075 55.5801 316.019C55.4933 318.254 55.4426 320.569 56.1443 322.638C56.8821 324.801 58.3506 326.443 59.8046 327.969C81.7083 350.98 116.922 356.608 147.094 359.841C176.159 362.959 202.078 353.924 225.522 333.293C229.414 329.872 233.263 326.016 235.418 320.786C239.758 310.261 236.142 297.667 232.496 286.759C226.991 270.28 221.486 253.795 215.974 237.316C213.514 229.959 211.012 221.995 212.509 214.255C213.934 206.898 223.859 186.846 227.157 180.444C238.377 158.642 244.786 142.04 253.676 121.272C265.402 93.8636 272.1 79.3672 283.074 51.9803C284.354 48.7829 285.599 45.101 284.535 41.7879C283.523 38.634 280.767 36.9341 278.191 35.6754C267.022 30.1995 255.094 27.5374 243.26 24.9044C235.447 23.1683 227.627 21.4322 219.815 19.6888C212.632 18.0902 205.427 16.4915 198.135 16.0575C189.231 15.5294 175.4 12.8963 166.481 12.8891C152.505 12.8746 138.942 12.267 124.662 12.8891C106.918 13.6631 94.1504 14.6975 76.5579 17.6417C50.7913 21.9602 24.1133 27.2843 2.67969 45.2746L18.0731 81.4071H18.0803Z" fill="#C0C6BD"/>
<path d="M15.7353 82.7741C23.9601 101.235 32.5465 119.543 41.8781 137.476C50.2692 153.614 59.2897 169.42 68.737 184.965C74.5818 194.579 80.5714 204.098 86.6188 213.582V210.84C71.0228 238.075 58.8412 268.262 54.4214 299.468C53.8644 303.382 53.4159 307.309 53.1338 311.259C52.8517 315.209 52.3019 319.339 53.4376 323.065C54.5082 326.566 57.1557 329.242 59.7165 331.738C62.2772 334.233 64.8018 336.324 67.5434 338.378C78.517 346.61 91.5305 351.848 104.703 355.385C117.876 358.922 131.511 360.832 145.089 362.322C158.667 363.812 173.286 363.06 186.85 358.814C200.818 354.445 213.506 346.885 224.696 337.539C230.404 332.772 235.894 327.571 238.441 320.395C240.987 313.219 240.191 304.691 238.39 297.153C236.43 288.957 233.413 280.993 230.751 273.007C227.923 264.551 225.102 256.095 222.273 247.638C219.604 239.652 216.117 231.471 215.011 223.073C214.236 217.184 215.654 212.193 217.803 206.818C221.883 196.59 227.011 186.831 231.93 176.994C238.904 163.047 245.009 148.71 251.049 134.343C257.089 119.977 263.332 105.691 269.517 91.3895C272.323 84.9008 275.108 78.3977 277.836 71.8656C279.326 68.3066 280.794 64.7476 282.248 61.1813C283.825 57.3258 285.648 53.4629 286.834 49.4627C287.941 45.7301 288.086 41.5128 285.742 38.1997C283.717 35.3352 280.592 33.7654 277.481 32.3404C269.835 28.8465 261.784 26.4521 253.624 24.4846C245.465 22.517 236.466 20.6073 227.887 18.6976C219.307 16.7879 210.8 14.6611 202.084 13.6773C198.677 13.294 195.255 13.142 191.848 12.7514C188.195 12.3319 184.549 11.8327 180.896 11.377C173.583 10.4656 166.421 10.1979 159.057 10.1111C141.863 9.90856 124.762 9.85069 107.604 11.1311C92.0875 12.2885 76.6724 14.596 61.4164 17.6053C46.1604 20.6145 32.5104 24.3616 19.2871 31.1034C12.661 34.4744 6.46889 38.5904 0.761461 43.3502C-0.244029 44.1893 -0.106588 45.5854 0.33467 46.6343C4.82683 57.1811 9.31898 67.7206 13.8111 78.2674C14.4477 79.7648 15.0915 81.2695 15.7281 82.7668C16.2995 84.1123 18.2888 84.4161 19.439 83.7434C20.8279 82.9187 20.9942 81.3924 20.4155 80.0325C15.9234 69.4857 11.4312 58.9461 6.93908 48.3993C6.30251 46.9019 5.65871 45.3973 5.02214 43.8999L4.59535 47.184C27.3093 28.2606 57.9008 22.9148 86.3294 18.8495C101.933 16.6142 117.789 15.5653 133.551 15.3556C142.058 15.2398 150.558 15.4496 159.065 15.5509C166.233 15.6377 173.221 15.8619 180.346 16.7444C187.045 17.5763 193.722 18.3286 200.442 18.9435C208.891 19.7175 217.188 21.8804 225.449 23.7178C233.71 25.5551 242.05 27.3419 250.326 29.2805C258.109 31.1107 265.907 33.194 273.271 36.3768C275.976 37.5487 279.608 38.7857 281.344 41.3464C283.471 44.4786 281.438 48.8116 280.208 51.8932C277.344 59.0474 274.414 66.1726 271.426 73.2762C265.972 86.2246 260.301 99.0789 254.738 111.984C248.684 126.025 242.94 140.196 236.726 154.171C231.496 165.94 225.514 177.319 219.937 188.922C217.484 194.029 215.112 199.179 212.971 204.431C210.96 209.357 209.267 214.211 209.354 219.615C209.484 227.897 212.623 235.818 215.213 243.566C217.933 251.696 220.646 259.827 223.365 267.965C226.085 276.103 228.878 283.995 231.373 292.082C233.572 299.208 235.569 306.962 234.39 314.456C233.232 321.813 228.588 327.036 223.163 331.774C217.673 336.563 211.791 340.896 205.513 344.599C193.874 351.464 180.874 356 167.398 357.295C154.059 358.575 140.568 356.687 127.403 354.589C114.237 352.491 101.267 349.569 89.071 344.382C83.067 341.829 77.2872 338.697 71.9704 334.921C69.3446 333.062 66.8634 331.014 64.5197 328.808C62.176 326.602 59.3114 324.229 58.5374 321.054C57.7055 317.625 58.3927 313.552 58.6748 310.073C58.9786 306.304 59.4127 302.55 59.9914 298.817C61.1705 291.128 62.8559 283.518 64.9175 276.016C69.0335 261.064 74.6397 246.539 81.3454 232.563C84.4414 226.118 87.7762 219.788 91.3279 213.582C91.7981 212.764 91.8488 211.658 91.3279 210.84C81.0054 194.666 70.8637 178.368 61.3224 161.709C52.1427 145.679 43.5708 129.309 35.5413 112.671C30.3258 101.878 25.3273 90.9771 20.4517 80.0325C19.8585 78.7015 17.9054 78.3687 16.7408 79.0559C15.3664 79.8661 15.1638 81.4214 15.7642 82.7668L15.7353 82.7741Z" fill="#C0C6BD"/>
</g>
<g opacity="0.56">
<path d="M88.1705 201.291C80.9946 190.006 75.6344 180.689 68.4151 167.697C61.0656 154.474 60.0746 154.366 54.1719 142.068C80.2423 135.319 109.373 129.59 149.209 128.823C187.172 128.093 213.828 133.265 239.356 138.581C237.576 144.057 239.905 138.524 235.674 148.521C234.625 151.002 230.921 159.653 220.353 180.66C210.045 201.139 208.439 204.799 206.97 212.662C205.603 219.983 207.889 227.52 210.139 234.486C215.173 250.082 220.201 265.686 225.235 281.282C228.563 291.604 231.876 303.533 227.905 313.493C225.937 318.441 222.414 322.094 218.863 325.328C197.436 344.852 173.753 353.402 147.183 350.458C119.608 347.398 87.4254 342.074 67.4096 320.293C66.0786 318.846 64.7331 317.291 64.0676 315.244C63.4238 313.291 63.4672 311.092 63.554 308.98C64.8778 274.959 79.9602 238.581 95.4187 210.695L88.1849 201.291H88.1705Z" fill="#C0C6BD"/>
<path d="M90.5117 199.923C85.1153 191.431 79.9938 182.772 75.0532 174.005C70.8865 166.612 66.6403 159.284 62.3796 151.949C60.2529 148.289 58.3504 144.513 56.5203 140.7L54.8999 144.686C65.2948 142.002 75.7621 139.594 86.3233 137.655C98.2952 135.463 110.245 133.886 122.376 132.881C136.663 131.694 151.036 131.217 165.366 131.579C177.78 131.897 190.446 132.924 202.562 134.631C213.377 136.15 224.104 138.198 234.796 140.404C236.076 140.664 237.357 140.932 238.637 141.2L236.742 137.865C236.395 138.935 236.141 140.02 235.83 141.098C235.693 141.583 235.476 142.046 235.288 142.509C235.078 143.022 234.861 143.536 234.644 144.057C234.818 143.645 234.63 144.093 234.601 144.151C234.499 144.39 234.398 144.628 234.297 144.867C234.058 145.438 233.819 146.003 233.573 146.574C232.459 149.2 231.302 151.804 230.108 154.394C223.808 168.066 216.683 181.332 210.274 194.946C208.407 198.91 206.577 202.947 205.405 207.186C204.921 208.951 204.523 210.752 204.233 212.553C203.423 217.631 204.038 222.717 205.282 227.679C206.526 232.641 208.248 237.502 209.818 242.378C211.402 247.297 212.993 252.216 214.578 257.135C217.746 266.944 221.102 276.716 224.032 286.605C226.47 294.851 228.654 304.277 225.341 312.603C223.837 316.379 221.102 319.475 218.195 322.238C215.026 325.248 211.662 328.083 208.154 330.687C195.155 340.33 179.928 346.833 163.855 348.07C155.789 348.692 147.832 347.897 139.839 346.891C132.344 345.943 124.416 344.678 116.828 342.941C101.717 339.476 86.6344 333.921 74.8289 323.729C73.3532 322.455 71.9354 321.124 70.5827 319.728C69.23 318.332 67.8194 316.972 66.9658 315.251C66.011 313.326 66.1629 311.07 66.2425 308.986C66.3293 306.686 66.4812 304.393 66.6909 302.1C67.5228 292.956 69.2879 283.914 71.6244 275.046C76.3408 257.142 83.3792 239.904 91.7269 223.404C93.6583 219.584 95.6621 215.808 97.7309 212.069C98.1577 211.294 98.3096 210.086 97.7309 209.327C95.3221 206.195 92.906 203.055 90.4972 199.923C89.6074 198.766 88.1607 198.144 86.7863 198.947C85.6434 199.612 84.9127 201.493 85.8097 202.657C88.2186 205.79 90.6346 208.929 93.0435 212.061V209.32C83.9868 225.69 76.131 242.812 70.2572 260.592C67.2479 269.707 64.774 279.002 63.103 288.457C62.2567 293.224 61.6056 298.034 61.1933 302.859C60.781 307.684 59.9997 312.9 61.9601 317.312C62.8715 319.367 64.3978 321.074 65.9242 322.701C67.2986 324.163 68.7381 325.566 70.2355 326.897C73.2881 329.61 76.5722 332.076 80.0155 334.268C86.9237 338.666 94.5119 341.979 102.281 344.547C110.05 347.115 117.797 348.859 125.726 350.233C133.683 351.615 141.763 352.765 149.814 353.43C166.654 354.819 183.465 351.282 198.36 343.332C206.259 339.115 213.529 333.755 220.177 327.772C223.424 324.85 226.549 321.689 228.756 317.877C231.128 313.775 232.228 309.109 232.387 304.4C232.705 294.613 229.291 285.108 226.332 275.928C223.07 265.808 219.8 255.688 216.538 245.575C214.91 240.533 213.225 235.506 211.677 230.442C210.266 225.798 209.065 221.024 209.268 216.141C209.434 212.112 210.65 207.989 212.089 204.234C212.27 203.757 212.465 203.272 212.661 202.802C212.755 202.578 212.849 202.354 212.943 202.129C212.646 202.831 213.037 201.912 213.124 201.717C213.644 200.516 214.194 199.323 214.744 198.136C216.285 194.845 217.898 191.583 219.526 188.327C223.482 180.399 227.483 172.5 231.317 164.507C233.255 160.456 235.172 156.39 236.981 152.282C237.516 151.052 238.044 149.822 238.565 148.585C239.404 146.603 240.482 144.585 241.068 142.502C241.371 141.438 241.625 140.368 241.965 139.312C242.391 137.981 241.458 136.266 240.069 135.977C229.45 133.763 218.809 131.644 208.082 130.009C195.698 128.128 183.227 126.862 170.705 126.341C156.223 125.741 141.69 126.067 127.23 127.086C114.513 127.983 101.84 129.495 89.2747 131.644C78.4892 133.488 67.7905 135.825 57.1786 138.501C55.9344 138.812 54.6902 139.131 53.446 139.456C51.6375 139.926 51.0878 141.908 51.8256 143.442C54.8855 149.8 58.4011 155.812 61.9673 161.888C67.096 170.605 71.8414 179.538 76.9846 188.248C79.8491 193.102 82.8005 197.905 85.817 202.657C86.6054 203.894 88.233 204.386 89.5279 203.634C90.7576 202.911 91.2929 201.167 90.5044 199.923H90.5117Z" fill="#C0C6BD"/>
</g>
<path d="M88.3352 248.607C86.4038 256.579 80.5083 261.758 75.1626 260.181C69.8168 258.604 67.0463 250.864 68.9705 242.9C70.9019 234.928 76.7974 229.749 82.1431 231.326C87.4889 232.903 90.2594 240.643 88.3352 248.607Z" fill="#717F67"/>
<path d="M75.6153 288.791C73.4742 297.646 66.9204 303.396 60.9815 301.646C55.0426 299.895 51.961 291.302 54.1022 282.447C56.2434 273.593 62.7971 267.842 68.7361 269.593C74.675 271.344 77.7565 279.937 75.6081 288.791H75.6153Z" fill="#717F67"/>
<path d="M108.463 299.635C107.559 309.653 101.468 317.162 94.8561 316.41C88.2445 315.65 83.6149 306.912 84.5191 296.893C85.4233 286.874 91.5141 279.366 98.1257 280.125C104.737 280.885 109.367 289.623 108.463 299.642V299.635Z" fill="#717F67"/>
<path d="M117.79 258.177C115.837 266.757 109.659 272.428 103.995 270.851C98.3313 269.274 95.322 261.049 97.2751 252.47C99.2283 243.891 105.406 238.219 111.07 239.796C116.734 241.373 119.743 249.598 117.79 258.177Z" fill="#717F67"/>
<path d="M155.094 306.157C155.08 316.234 148.627 324.343 140.67 324.271C132.72 324.198 126.282 315.974 126.297 305.897C126.311 295.82 132.764 287.711 140.721 287.784C148.671 287.856 155.109 296.081 155.094 306.157Z" fill="#717F67"/>
<path d="M156.333 259.92C156.325 268.029 151.124 274.561 144.722 274.504C138.321 274.446 133.141 267.827 133.148 259.711C133.156 251.602 138.357 245.069 144.759 245.127C151.16 245.185 156.34 251.804 156.333 259.92Z" fill="#717F67"/>
<path d="M204.275 249.57C205.816 257.665 211.458 263.263 216.869 262.077C222.28 260.891 225.419 253.368 223.878 245.273C222.337 237.179 216.695 231.58 211.284 232.766C205.873 233.952 202.734 241.475 204.275 249.57Z" fill="#717F67"/>
<path d="M215.038 290.6C216.753 299.591 223.01 305.812 229.028 304.489C235.04 303.172 238.526 294.81 236.812 285.818C235.097 276.827 228.833 270.606 222.822 271.93C216.81 273.246 213.324 281.608 215.038 290.6Z" fill="#717F67"/>
<path d="M181.719 299.063C182.139 309.132 187.861 317.068 194.494 316.786C201.135 316.504 206.169 308.12 205.75 298.05C205.33 287.981 199.608 280.045 192.968 280.328C186.327 280.61 181.292 288.994 181.712 299.063H181.719Z" fill="#717F67"/>
<path d="M174.407 256.998C175.948 265.7 181.836 271.813 187.572 270.648C193.302 269.483 196.701 261.483 195.168 252.781C193.627 244.078 187.739 237.966 182.002 239.131C176.273 240.295 172.873 248.288 174.407 256.991V256.998Z" fill="#717F67"/>
<path d="M107.883 250.516C109.141 252.208 111.239 256.505 109.597 260.122" stroke="#E1E1E1" stroke-width="7" stroke-linecap="round"/>
<path d="M80.1218 239.08C80.9537 241.062 82.0098 245.779 79.5938 248.831" stroke="#E1E1E1" stroke-width="7" stroke-linecap="round"/>
<path d="M145.43 252.225C146.688 253.917 148.786 258.214 147.144 261.831" stroke="#E1E1E1" stroke-width="7" stroke-linecap="round"/>
<path d="M185.062 248C186.321 249.693 188.419 253.99 186.777 257.606" stroke="#E1E1E1" stroke-width="7" stroke-linecap="round"/>
<path d="M212.461 240.484C214.067 241.786 217.083 245.367 216.331 249.324" stroke="#E1E1E1" stroke-width="7" stroke-linecap="round"/>
<path d="M224.203 279.973C225.954 281.022 229.382 284.139 229.129 288.176" stroke="#E1E1E1" stroke-width="7" stroke-linecap="round"/>
<path d="M193.156 288.906C194.907 289.955 198.336 293.073 198.082 297.109" stroke="#E1E1E1" stroke-width="7" stroke-linecap="round"/>
<path d="M144.383 297.422C145.634 299.122 147.718 303.426 146.054 307.036" stroke="#E1E1E1" stroke-width="7" stroke-linecap="round"/>
<path d="M97.1033 289.174C97.9279 291.156 98.9696 295.879 96.5391 298.925" stroke="#E1E1E1" stroke-width="7" stroke-linecap="round"/>
<path d="M67.197 282.621C68.0217 284.603 69.0634 289.327 66.6328 292.372" stroke="#E1E1E1" stroke-width="7" stroke-linecap="round"/>
<g opacity="0.91">
<path d="M4.46533 52.4787C9.85447 57.9257 16.7338 60.4864 23.859 62.8229C31.968 65.485 40.1277 68.0023 48.3525 70.3099C64.6067 74.8744 81.1069 78.6214 97.8313 80.9796C114.556 83.3378 129.971 84.2782 146.102 83.497C161.365 82.7591 176.592 80.4516 191.335 76.379C206.077 72.3064 221.499 65.9913 235.374 58.1861C237.175 57.1734 238.962 56.1245 240.741 55.0539C243.729 53.2527 241.002 48.558 238 50.3664C224.566 58.4682 210.236 64.9714 195.241 69.5792C181.099 73.9267 166.472 76.6249 151.723 77.7172C136.141 78.8746 120.466 78.3104 104.964 76.473C88.7095 74.5488 72.6361 71.1634 56.8232 66.9823C48.7359 64.8484 40.7136 62.4902 32.742 59.9728C28.9371 58.772 25.1321 57.564 21.3706 56.2619C18.2601 55.1841 15.2436 53.9182 12.4876 52.1025C10.9685 51.097 9.60129 49.9252 8.32092 48.6303C5.86145 46.1419 2.02756 49.983 4.48703 52.4642L4.46533 52.4787Z" fill="#68775E"/>
</g>
<g opacity="0.91">
<path d="M64.8405 148.791C85.5796 155.772 106.565 162.752 128.505 164.655C139.688 165.624 150.929 165.045 162.062 163.786C173.195 162.528 184.11 160.806 194.99 158.549C207.02 156.046 218.905 152.827 230.472 148.668C231.846 148.169 232.779 146.823 232.367 145.333C231.998 144.002 230.414 142.939 229.032 143.438C208.698 150.759 187.315 155.2 165.954 157.898C154.908 159.294 143.753 160.141 132.621 159.526C121.488 158.911 111.585 156.994 101.205 154.354C89.3918 151.344 77.8251 147.46 66.28 143.568C64.9345 143.112 63.2563 144.089 62.9453 145.463C62.6053 146.961 63.401 148.314 64.8405 148.798V148.791Z" fill="#68775E"/>
</g>
</svg>
