<svg width="209" height="216" viewBox="0 0 209 216" fill="none" xmlns="http://www.w3.org/2000/svg">
<path d="M173.864 80.428C192.238 29.8173 141.71 6.46687 127.063 10.7772C123.077 11.9472 119.441 14.2619 115.465 15.449C101.466 19.6335 103.009 16.0387 88.6014 17.9819C82.1296 18.8522 68.0385 26.5023 64.8081 29.0632C59.2594 33.4594 53.0943 42.7731 46.7441 45.737C33.4482 51.9488 29.2564 59.9885 22.9223 73.6138C21.1314 77.4639 18.9201 81.1231 17.4869 85.1332C15.6895 90.1575 15.1934 95.5255 14.7113 100.829C12.727 122.626 12.0055 147.939 27.7916 162.024C30.9632 164.849 34.724 167.111 37.039 170.72C41.2389 177.243 36.6846 182.279 42.4958 187.287C48.0318 192.047 59.0376 186.088 64.8095 190.53C68.7332 193.545 78.7287 199.606 82.8771 202.26C93.0991 208.798 97.0457 201.068 108.997 198.561C116.711 196.937 124.756 201.137 132.33 198.866C140.952 196.274 140.683 190.157 147.809 184.411C155.226 178.425 157.031 183.087 165.75 179.548C174.478 176.017 179.373 164.678 186.179 159.473C189.842 156.678 192.258 145.327 191.361 135.642C190.673 128.232 196.286 121.456 196.669 113.994C197.069 106.033 191.629 99.3335 186.508 93.5281C177.036 82.7745 166.386 71.369 152.324 69.5097C132.962 66.9518 116.042 83.1696 97.4045 89.8422" fill="#E7B023"/>
<path d="M177.73 82.3901C181.86 70.9427 183.488 58.89 180.73 47.0564C178.552 37.7297 173.488 29.4277 166.969 22.7901C161.282 16.9955 154.285 12.3476 146.836 9.32637C143.571 8.00787 140.177 6.88964 136.698 6.28413C133.949 5.80762 131.011 5.52744 128.225 5.97496C125.439 6.42247 122.956 7.46788 120.435 8.61575C116.934 10.206 113.485 11.4668 109.773 12.3793C108.955 12.5825 110.576 12.2135 109.566 12.4235C109.247 12.4861 108.919 12.5494 108.599 12.612C107.977 12.7268 107.363 12.8228 106.739 12.9016C105.733 13.0211 104.724 13.0956 103.721 13.0975C101.846 13.1174 99.9862 12.9374 98.1159 12.8848C92.5663 12.7306 86.9444 13.3409 81.667 15.3221C76.3895 17.3033 71.312 19.9179 66.4305 22.7692C64.8572 23.694 63.2675 24.6383 61.8564 25.8206C59.21 28.0443 56.8705 30.6217 54.5301 33.1811C53.3764 34.4414 52.2139 35.7024 51.0143 36.9213C50.5182 37.4319 49.9087 38.2679 49.29 38.6081C49.3832 38.5552 50.0144 37.9612 49.3895 38.5095C49.2645 38.6192 49.1395 38.7289 49.0145 38.8386C48.6897 39.1273 48.3553 39.3988 48.0122 39.671C47.4432 40.1244 46.8554 40.5523 46.2488 40.9547C45.9621 41.141 45.6576 41.3197 45.3618 41.4977C44.9728 41.7285 44.9679 41.4761 45.6161 41.3592C45.4433 41.3916 45.216 41.5459 45.0543 41.6225C43.3951 42.41 41.7572 43.268 40.167 44.2033C35.3028 47.0531 30.994 50.9764 27.7133 55.6813C24.1484 60.7799 21.5451 66.3947 18.8805 72.0056C17.1803 75.5954 15.149 79.032 13.7616 82.7584C12.2835 86.7451 11.4391 90.8328 10.951 95.0535C10.128 102.128 9.58881 109.287 9.39616 116.4C9.03048 129.693 10.2683 143.594 16.7232 155.202C18.3271 158.085 20.3094 160.701 22.5243 163.1C24.7392 165.499 27.4546 167.468 29.9783 169.606C30.6092 170.141 31.2146 170.686 31.8045 171.269C32.0908 171.562 32.3775 171.863 32.6469 172.166C32.0343 171.485 32.8449 172.438 33.024 172.685C33.2697 173.035 33.5072 173.395 33.7192 173.765C33.7675 173.851 33.9925 174.14 33.9896 174.248C34.0132 173.876 33.7578 173.672 33.9413 174.162C34.0741 174.521 34.2238 174.87 34.3397 175.24C34.3827 175.39 34.4344 175.539 34.4778 175.698C34.5005 175.795 34.6745 176.756 34.5725 175.997C34.4705 175.238 34.629 176.398 34.6474 176.577C34.6827 176.909 34.718 177.24 34.7359 177.572C34.7819 178.264 34.8018 178.957 34.8305 179.65C34.8906 181.252 35.0642 182.854 35.4786 184.391C36.4152 187.843 39.1452 191.057 42.3271 192.454C45.3122 193.76 48.5725 193.86 51.7995 193.665C53.1562 193.579 54.5014 193.441 55.8581 193.356C56.5276 193.309 57.1888 193.272 57.8602 193.262C58.2352 193.258 58.602 193.264 58.977 193.26C59.1165 193.257 59.6074 193.298 58.9413 193.245C58.1618 193.192 59.0731 193.261 59.1696 193.271C59.7749 193.329 60.3821 193.423 60.9748 193.573C61.0897 193.599 61.2239 193.66 61.347 193.677C61.7596 193.724 60.9116 193.533 60.8841 193.508C61.122 193.714 61.6337 193.816 61.9127 193.974C62.0208 194.037 62.1289 194.1 62.2371 194.163C62.7762 194.453 61.933 194.189 61.9469 193.962C61.9503 194.025 62.4475 194.345 62.4924 194.368C62.938 194.701 63.4004 195.024 63.8537 195.339C68.6409 198.671 73.6046 201.717 78.5356 204.803C81.0553 206.382 83.4675 207.906 86.3414 208.77C89.2153 209.633 92.2999 209.386 95.213 208.549C97.6532 207.841 99.9432 206.613 102.269 205.563C103.658 204.942 105.057 204.357 106.498 203.876C107.269 203.614 108.042 203.378 108.825 203.178C109.152 203.088 110.145 202.906 109.289 203.049C109.782 202.963 110.266 202.869 110.76 202.81C111.618 202.703 112.489 202.667 113.353 202.667C113.597 202.665 113.851 202.68 114.095 202.678C114.173 202.672 114.795 202.719 114.261 202.682C113.683 202.649 114.471 202.701 114.612 202.716C114.927 202.744 115.234 202.773 115.541 202.802C117.297 202.991 119.031 203.271 120.772 203.506C124.948 204.081 129.062 204.318 133.219 203.242C136.592 202.367 139.633 200.49 142.087 197.939C143.897 196.056 145.23 193.76 146.829 191.695C147.27 191.126 147.729 190.574 148.207 190.046C148.462 189.764 148.718 189.49 148.991 189.214C149.107 189.096 149.231 188.977 149.347 188.86C149.702 188.478 148.754 189.36 149.405 188.801C150.055 188.241 150.741 187.679 151.447 187.178C151.766 186.953 152.086 186.737 152.424 186.528C152.559 186.445 152.686 186.371 152.821 186.287C153.64 185.786 152.222 186.509 152.694 186.352C153.243 186.18 153.787 185.91 154.335 185.711C155.225 185.393 153.45 185.811 154.169 185.724C154.447 185.692 154.732 185.633 155.009 185.601C156.024 185.489 157.038 185.523 158.06 185.528C161.097 185.53 164.129 184.971 166.991 183.831C170.238 182.542 172.962 180.465 175.501 178.025C179.824 173.875 182.943 168.605 187.192 164.371C187.324 164.243 187.745 163.955 187.797 163.779C187.694 164.14 187.138 164.358 187.573 163.996C187.715 163.876 187.848 163.757 187.99 163.637C188.658 163.085 189.328 162.56 189.94 161.931C190.891 160.959 191.644 159.714 192.259 158.498C193.734 155.586 194.585 152.265 195.137 149.068C195.787 145.259 196.055 141.327 195.891 137.476C195.853 136.613 195.772 135.762 195.717 134.9C195.696 134.504 195.675 134.109 195.688 133.71C195.685 133.647 195.741 133.236 195.704 133.203C195.658 133.794 195.647 133.912 195.68 133.566C195.692 133.457 195.703 133.339 195.715 133.23C195.916 131.624 196.296 129.94 196.887 128.429C196.549 129.287 196.904 128.418 197.033 128.064C197.178 127.682 197.324 127.3 197.469 126.918C197.782 126.097 198.105 125.276 198.418 124.455C199.113 122.619 199.79 120.766 200.29 118.874C201.326 114.942 201.274 110.893 200.227 107.016C198.221 99.58 192.758 93.7577 187.864 88.2676C178.928 78.2279 168.618 67.9499 155.081 65.3247C140.434 62.4936 126.763 69.847 114.068 76.8397C112.542 77.6794 111.017 78.5191 109.491 79.3497C109.109 79.5529 108.728 79.7651 108.346 79.9683C109.194 79.5098 108.083 80.1074 107.879 80.2146C107.115 80.6119 106.342 81.01 105.569 81.3991C102.459 82.9569 99.2988 84.3835 96.0377 85.5656C93.8722 86.3499 92.459 89.1124 93.3036 91.3447C94.1482 93.577 96.4961 94.8812 98.8156 94.039C105.561 91.6021 111.907 88.0788 118.212 84.604C119.729 83.7651 121.255 82.9254 122.781 82.1037C123.163 81.9005 123.545 81.6974 123.926 81.4942C123.155 81.9103 124.113 81.3975 124.385 81.2576C125.199 80.8289 126.014 80.4093 126.831 80.0076C129.83 78.5041 132.888 77.1221 136.039 76.0033C137.572 75.461 139.134 74.9794 140.71 74.587C140.926 74.5331 141.157 74.4597 141.382 74.423C141.356 74.4252 140.571 74.5895 141.08 74.4931C141.478 74.4151 141.866 74.3378 142.263 74.2597C143.11 74.1083 143.959 73.9838 144.809 73.8953C146.423 73.7164 148.019 73.7105 149.634 73.7122C150.149 73.7147 149.38 73.6881 149.345 73.691C149.572 73.6903 149.818 73.724 150.046 73.7413C150.397 73.7754 150.747 73.8095 151.099 73.8526C151.933 73.955 152.761 74.0851 153.581 74.2519C154.331 74.4064 155.083 74.5879 155.818 74.7978C156.191 74.9024 156.555 75.0167 156.918 75.131C157.016 75.159 157.549 75.3316 157.007 75.1508C156.465 74.97 157.14 75.2029 157.247 75.2392C158.725 75.7848 160.174 76.4412 161.575 77.1738C162.976 77.9065 164.249 78.6948 165.551 79.5349C165.623 79.5831 166.094 79.8962 165.641 79.5907C165.161 79.2693 165.75 79.6719 165.868 79.7524C166.185 79.9789 166.503 80.2054 166.821 80.4409C167.449 80.9125 168.077 81.3932 168.688 81.8843C173.714 85.9189 178.133 90.681 182.425 95.5168C182.964 96.1222 183.493 96.7194 184.023 97.3255C184.302 97.6455 184.582 97.9744 184.87 98.2937C184.916 98.344 185.308 98.8171 184.982 98.4288C184.655 98.0406 185.159 98.6399 185.215 98.7075C186.362 100.084 187.478 101.508 188.5 102.995C188.955 103.652 189.392 104.329 189.805 105.017C190.025 105.387 190.237 105.758 190.441 106.129C190.586 106.397 191.139 107.588 190.76 106.717C191.098 107.483 191.419 108.26 191.69 109.068C191.804 109.411 191.901 109.755 191.998 110.099C192.063 110.329 192.111 110.559 192.176 110.798C192.309 111.32 192.274 111.006 192.169 110.672C192.401 111.42 192.394 112.414 192.401 113.199C192.41 113.361 192.491 114.212 192.382 114.311C192.482 114.221 192.484 113.445 192.39 114.13C192.359 114.358 192.336 114.586 192.296 114.815C192.173 115.61 192.006 116.401 191.795 117.176C191.694 117.564 191.575 117.953 191.457 118.342C191.404 118.509 191.352 118.676 191.3 118.843C191.039 119.668 191.484 118.367 191.285 118.889C190.059 122.196 188.638 125.464 187.748 128.879C187.264 130.743 187.019 132.677 187.01 134.601C186.996 136.299 187.236 137.995 187.25 139.7C187.259 140.521 187.242 141.335 187.208 142.16C187.195 142.567 187.23 143.069 187.139 143.474C187.146 143.438 187.209 142.665 187.159 143.202C187.132 143.511 187.105 143.82 187.069 144.13C186.897 145.797 186.646 147.452 186.298 149.088C186.139 149.85 185.952 150.606 185.748 151.354C185.66 151.659 185.572 151.965 185.483 152.261C185.461 152.344 185.37 152.749 185.296 152.845C185.411 152.709 185.617 151.988 185.378 152.577C185.139 153.165 184.91 153.771 184.627 154.354C184.502 154.617 184.368 154.881 184.216 155.138C184.16 155.242 184.096 155.346 184.032 155.451C183.674 156.103 184.563 154.775 184.225 155.155C183.954 155.457 183.598 155.821 183.372 156.165C183.389 156.145 184.292 155.42 183.803 155.741C183.694 155.813 183.585 155.903 183.485 155.993C183.201 156.224 182.925 156.454 182.65 156.694C181.434 157.761 180.282 158.895 179.196 160.113C177.245 162.297 175.496 164.654 173.655 166.937C172.74 168.079 171.806 169.212 170.817 170.296C170.331 170.833 169.836 171.353 169.322 171.856C169.106 172.072 168.864 172.264 168.658 172.489C169.431 171.612 168.623 172.501 168.365 172.721C167.831 173.171 167.278 173.596 166.705 173.987C166.419 174.182 166.132 174.368 165.837 174.555C165.71 174.629 165.583 174.703 165.457 174.785C164.883 175.149 165.656 174.769 165.695 174.666C165.54 175.031 163.965 175.442 163.64 175.559C163.246 175.7 162.852 175.841 162.457 175.964C162.294 176.013 162.14 176.062 161.976 176.103C161.821 176.143 160.938 176.442 161.632 176.204C162.275 175.988 161.235 176.273 161.061 176.296C160.793 176.336 160.533 176.376 160.265 176.407C159.657 176.476 159.048 176.508 158.438 176.523C157.436 176.542 156.43 176.499 155.429 176.546C149.107 176.799 143.638 181.378 139.869 186.413C138.331 188.472 136.924 190.548 135.194 192.443C134.889 192.784 135.551 192.115 135.551 192.115C135.457 192.141 135.193 192.425 135.143 192.465C134.934 192.636 134.716 192.808 134.489 192.962C134.22 193.156 133.933 193.333 133.654 193.509C133.604 193.541 133.327 193.753 133.273 193.731C133.8 193.461 133.91 193.398 133.613 193.549C133.519 193.593 133.426 193.646 133.332 193.69C132.669 194.006 131.984 194.262 131.29 194.491C131.05 194.565 130.817 194.629 130.577 194.703C130.5 194.728 129.888 194.869 130.423 194.752C131 194.623 130.223 194.778 130.085 194.798C129.842 194.836 129.6 194.875 129.357 194.904C128.499 195.002 127.646 195.046 126.79 195.035C126.555 195.037 125.294 194.961 126.293 195.04C125.793 195 125.303 194.96 124.811 194.91C123.065 194.73 121.331 194.449 119.59 194.205C115.906 193.698 112.098 193.318 108.397 194.112C105.068 194.831 101.916 195.932 98.7902 197.364C96.576 198.378 94.3922 199.471 92.0548 200.143C91.0495 200.434 92.8946 200.02 92.1586 200.126C91.8815 200.167 91.6137 200.216 91.3362 200.248C91.0586 200.28 90.7801 200.294 90.5017 200.308C90.38 200.318 90.2575 200.31 90.144 200.311C89.6652 200.332 89.6063 200.048 90.451 200.34C89.9529 200.164 89.3264 200.198 88.8046 200.07C88.681 200.044 87.8779 199.876 87.8745 199.813C87.873 199.786 88.7124 200.14 88.2563 199.935C88.0241 199.836 87.7837 199.748 87.5602 199.649C85.2983 198.645 83.2279 197.146 81.1324 195.83C78.73 194.323 76.3193 192.825 73.9327 191.289C72.7848 190.554 71.6456 189.817 70.5141 189.062C70.2515 188.886 69.9981 188.717 69.7355 188.54C69.6269 188.468 69.5183 188.396 69.4183 188.323C68.9564 188.009 70.1617 188.839 69.7172 188.524C69.2726 188.208 68.8468 187.919 68.4196 187.602C67.2746 186.758 66.1537 185.876 64.8171 185.363C63.3825 184.814 61.976 184.461 60.4431 184.353C57.4646 184.14 54.5489 184.445 51.5748 184.637C50.914 184.683 50.2441 184.72 49.5814 184.73C49.259 184.738 48.9356 184.729 48.6041 184.729C47.5914 184.723 49.2721 184.819 48.5519 184.734C47.9462 184.667 47.3404 184.599 46.7482 184.459C46.5537 184.412 45.6221 184.128 46.3152 184.359C47.0084 184.591 45.9744 184.189 45.8214 184.102C45.7138 184.048 45.6052 183.976 45.4975 183.922C45.0491 183.697 45.5539 183.673 45.7886 184.141C45.6911 183.951 45.2682 183.715 45.1123 183.574C44.9375 183.408 44.7715 183.241 44.5967 183.075C44.5142 183.001 44.1762 182.559 44.5142 183.001C44.8521 183.442 44.5315 182.999 44.4751 182.923C44.3326 182.709 44.1994 182.503 44.0569 182.289C43.523 181.449 44.2202 182.89 43.9903 182.187C43.8957 181.887 43.7923 181.589 43.6977 181.29C43.6668 181.202 43.6542 180.968 43.5982 180.901C43.5982 180.901 43.7393 181.9 43.6967 181.434C43.6605 181.085 43.5981 180.738 43.5701 180.379C43.3006 177.323 43.4236 174.261 42.2989 171.366C40.8618 167.693 38.2897 164.818 35.3571 162.38C32.8719 160.311 30.2908 158.403 28.101 155.984C27.9987 155.866 27.8876 155.749 27.7853 155.631C27.4604 155.27 27.7582 155.29 27.9065 155.774C27.8326 155.537 27.4676 155.242 27.3175 155.047C26.8395 154.436 26.3785 153.815 25.9338 153.175C25.1107 151.988 24.3633 150.75 23.6748 149.471C23.5004 149.151 23.3348 148.831 23.1774 148.501C23.0891 148.319 23.0084 148.118 22.9032 147.946C22.9037 147.955 23.2687 148.737 23.0693 148.275C22.7602 147.56 22.4338 146.847 22.1417 146.122C21.5965 144.75 21.1111 143.354 20.6944 141.935C20.2775 140.516 19.8926 139.04 19.5776 137.568C19.4964 137.195 19.4239 136.822 19.3428 136.449C19.1278 135.375 19.4337 137.002 19.2935 136.183C19.1655 135.426 19.0374 134.669 18.9349 133.901C18.0365 127.592 17.9001 121.175 18.1054 114.784C18.1558 113.128 18.2414 111.477 18.3356 109.826C18.3833 109.091 18.4222 108.357 18.4781 107.612C18.5089 107.212 18.5315 106.822 18.5623 106.422C18.5734 106.304 18.6206 105.722 18.5671 106.349C18.5098 107.067 18.5878 106.086 18.5974 105.94C18.8719 102.451 19.1545 98.9513 19.6047 95.4831C19.8567 93.5211 20.1787 91.5623 20.6422 89.6369C20.8486 88.7711 21.0907 87.9204 21.3507 87.0773C21.3951 86.9291 21.6387 86.2679 21.3652 87.0219C21.4332 86.8267 21.5104 86.6397 21.5784 86.4444C21.769 85.9321 21.9774 85.4273 22.1945 84.9217C23.6823 81.4398 25.564 78.142 27.1682 74.7136C28.4511 71.9619 29.7513 69.2088 31.1867 66.5348C31.8211 65.3536 32.474 64.189 33.1798 63.0381C33.3482 62.7623 33.5253 62.4858 33.6937 62.21C34.2404 61.3431 33.3053 62.7749 33.7424 62.1428C34.0986 61.6257 34.4542 61.0997 34.8286 60.5992C35.5929 59.5608 36.4118 58.563 37.2765 57.6065C37.6636 57.1772 38.0684 56.7554 38.4743 56.3516C38.6982 56.1344 38.9308 55.9165 39.1547 55.6993C39.4857 55.3649 38.7966 56.0179 38.814 56.0165C38.9679 55.9586 39.1885 55.6785 39.3221 55.5681C41.3982 53.7709 43.6808 52.2456 46.062 50.9287C47.0451 50.3868 45.6026 51.1473 46.3337 50.7888C46.6822 50.6155 47.0306 50.4422 47.3791 50.2688C48.323 49.8114 49.2583 49.3547 50.1729 48.8365C51.4257 48.1188 52.5912 47.2367 53.6919 46.2878C56.3524 43.9998 58.7618 41.4257 61.135 38.8274C62.2641 37.5962 63.3846 36.3658 64.5418 35.1684C65.0297 34.6675 65.5267 34.1749 66.0329 33.6906C66.6135 33.1279 65.4495 34.1994 66.2076 33.5317C66.4991 33.2728 66.7997 33.0221 67.1009 32.7805C68.4478 31.7028 69.954 30.8287 71.4351 29.9746C71.9428 29.6798 72.4509 29.3939 72.9591 29.108C73.2303 28.9591 73.5016 28.8103 73.7728 28.6614C74.0696 28.5014 75.1362 28.0518 73.9591 28.5557C75.17 28.031 76.3446 27.3197 77.5352 26.7425C79.9164 25.5882 82.3363 24.5029 84.8092 23.5938C85.9043 23.187 87.0105 22.8245 88.1379 22.5325C88.551 22.426 89.2933 22.4367 87.9048 22.5789C88.0959 22.563 88.2846 22.5022 88.4748 22.4684C89.3136 22.3267 90.164 22.2382 91.0145 22.1497C93.6429 21.8596 96.2802 21.7314 98.9116 21.8203C100.739 21.8856 102.554 22.0512 104.377 22.0266C106.923 21.9872 109.419 21.5095 111.91 20.9419C115.488 20.1308 118.9 18.9994 122.264 17.4567C123.985 16.6731 125.695 15.8722 127.478 15.2641C127.941 15.1084 128.405 14.9796 128.869 14.8419C129.504 14.6538 127.659 15.0595 128.17 14.9991C128.309 14.9875 128.447 14.9491 128.585 14.9196C129.666 14.7397 130.772 14.6932 131.864 14.7201C132.013 14.7258 132.161 14.7316 132.319 14.7366C133.07 14.7556 131.171 14.6511 131.75 14.7025C132.065 14.7305 132.381 14.7495 132.705 14.7858C133.372 14.8569 134.04 14.946 134.701 15.0628C136.181 15.3104 137.639 15.659 139.075 16.0728C139.421 16.1705 139.776 16.2765 140.122 16.3923C140.309 16.4491 140.504 16.5141 140.691 16.5799C140.868 16.6374 141.731 16.9361 140.895 16.6443C140.059 16.3524 140.842 16.6306 141.02 16.6971C141.198 16.7636 141.411 16.8362 141.599 16.911C142.017 17.0659 142.436 17.2298 142.856 17.4027C146.183 18.7521 149.389 20.4277 152.418 22.3887C152.807 22.6454 153.19 22.9567 153.604 23.1753C153.146 22.9333 152.824 22.6349 153.441 23.0714C153.668 23.2331 153.886 23.3866 154.112 23.5484C154.902 24.115 155.667 24.7107 156.424 25.3161C157.994 26.5855 159.497 27.9325 160.928 29.3759C161.638 30.0935 162.333 30.8305 163.002 31.5877C163.141 31.7476 163.282 31.9256 163.43 32.0849C162.471 31.135 163.113 31.7138 163.337 31.9842C163.692 32.4063 164.029 32.8388 164.366 33.2713C165.642 34.9171 166.817 36.6435 167.874 38.4429C168.431 39.3899 168.946 40.3675 169.445 41.3554C169.875 42.2136 169.098 40.5896 169.395 41.2512C169.494 41.4597 169.592 41.6682 169.683 41.8864C169.921 42.4175 170.15 42.9492 170.363 43.4914C171.209 45.5881 171.902 47.7608 172.422 49.9748C172.546 50.4972 172.653 51.012 172.759 51.5359C172.969 52.5026 172.617 50.6719 172.746 51.4557C172.799 51.7854 172.86 52.1143 172.904 52.4448C173.081 53.6219 173.215 54.8116 173.306 56.0049C173.396 57.1982 173.439 58.4767 173.445 59.7132C173.444 60.3452 173.435 60.987 173.408 61.6213C173.399 61.947 173.381 62.2645 173.364 62.5909C173.354 62.7272 173.344 62.8725 173.343 63.008C173.307 63.634 173.342 62.8275 173.376 62.6441C173.15 63.963 173.118 65.3199 172.911 66.6552C172.704 67.9906 172.462 69.3288 172.167 70.6534C171.872 71.9779 171.513 73.4251 171.115 74.7853C170.902 75.5252 170.68 76.2569 170.439 76.9811C170.395 77.1292 170.243 77.8731 170.124 77.9371C170.15 77.926 170.488 76.9048 170.169 77.789C170.093 78.0029 170.017 78.2168 169.942 78.4308C169.145 80.6546 169.529 83.4126 171.828 84.45C173.769 85.3275 176.826 84.7221 177.684 82.3487L177.73 82.3901Z" fill="#E7B023"/>
<path d="M183.046 82.8297C174.294 75.2735 164.808 67.9622 153.208 65.7595C140.36 63.3217 127.876 67.7809 116.114 72.8471C109.624 75.6423 103.16 78.5699 96.3732 80.537C94.1487 81.1838 92.8111 84.1271 93.6442 86.2575C94.5618 88.6233 96.8431 89.6474 99.2233 88.9527C110.892 85.5689 121.541 79.2898 133.189 75.8628C134.505 75.4744 135.823 75.1306 137.161 74.83C136.075 75.0753 137.292 74.811 137.457 74.7802C137.823 74.7072 138.189 74.6431 138.555 74.5789C139.409 74.4322 140.265 74.3123 141.123 74.2191C142.479 74.0695 143.848 73.9816 145.211 73.9567C145.968 73.943 146.718 73.9657 147.469 73.9972C146.515 73.9634 147.38 73.9951 147.619 74.0124C148.044 74.0512 148.478 74.0894 148.904 74.1371C150.332 74.3044 151.739 74.5629 153.133 74.8941C153.705 75.029 154.269 75.1825 154.825 75.3456C155.157 75.4453 155.489 75.554 155.821 75.6537C156.288 75.8058 156.261 75.7989 155.731 75.6159C155.947 75.6888 156.163 75.7707 156.379 75.8525C158.938 76.8013 161.406 78.008 163.761 79.3847C164.346 79.7248 164.922 80.0833 165.499 80.4419C165.783 80.6259 166.067 80.81 166.351 80.9941C166.543 81.1136 166.727 81.2427 166.911 81.3719C166.452 81.058 166.416 81.0429 166.82 81.3162C168.007 82.1651 169.186 83.0146 170.341 83.9107C172.696 85.7353 174.961 87.6565 177.219 89.6051C178.957 91.1101 181.912 91.0429 183.417 89.1258C184.922 87.2088 184.895 84.4248 183.037 82.8215L183.046 82.8297Z" fill="#9F490D"/>
<path d="M144.546 160.511C148.987 154.013 146.014 143.697 138.933 141.024C135.477 139.722 131.516 140.059 128.2 138.429C127.151 137.911 126.143 137.191 124.97 137.108C122.07 136.896 120.244 140.569 120.284 143.581C120.36 149.37 124.029 154.293 127.772 158.497C128.449 159.254 129.181 160.042 130.154 160.286C131.88 160.73 133.542 159.364 135.235 158.709C138.577 157.421 142.677 159.348 143.865 162.77L144.563 160.5L144.546 160.511Z" fill="#9F490D"/>
<path d="M147.782 163.437C151.278 158.191 152.007 151.476 149.42 145.75C148.162 142.965 146.42 140.428 143.926 138.685C140.979 136.627 137.731 135.939 134.238 135.398C133.41 135.268 132.591 135.128 131.778 134.933C131.433 134.854 131.096 134.746 130.75 134.648C130.812 134.661 131.42 134.927 130.981 134.72C130.713 134.597 130.437 134.494 130.168 134.363C128.277 133.436 126.504 132.445 124.297 132.61C120.098 132.913 117.247 136.67 116.265 140.643C115.377 144.228 116.206 148.294 117.672 151.531C119.336 155.195 121.647 158.253 124.243 161.243C125.722 162.944 127.403 164.511 129.731 164.797C131.207 164.973 132.687 164.751 134.077 164.148C134.929 163.779 135.732 163.28 136.604 162.954C136.732 162.908 136.897 162.876 137.015 162.812C137.396 162.6 136.016 162.895 136.843 162.853C137.043 162.837 138.09 162.831 137.397 162.78C136.705 162.729 137.257 162.765 137.381 162.791C137.61 162.835 137.848 162.879 138.077 162.923C138.103 162.921 138.492 163.015 138.484 163.033C138.487 163.078 137.59 162.629 138.219 162.965C138.336 163.028 139.2 163.353 139.217 163.514C139.222 163.613 138.547 162.902 138.874 163.308C139.014 163.477 139.233 163.64 139.406 163.788C139.608 163.961 139.594 164.187 139.424 163.786C139.204 163.263 139.396 163.761 139.492 163.925C139.588 164.089 139.677 164.271 139.789 164.415C140.1 164.832 139.378 163.429 139.705 164.305C140.368 166.082 142.129 167.507 144.07 167.256C146.115 166.988 147.471 165.602 148.079 163.611L148.777 161.341C149.475 159.071 147.612 156.391 145.448 156.064C142.94 155.685 141.016 157.217 140.274 159.644L139.576 161.914L147.951 161.22C146.646 157.744 143.996 155.354 140.577 154.265C139.317 153.864 137.947 153.716 136.618 153.826C134.837 153.973 133.374 154.663 131.783 155.427C131.451 155.59 131.109 155.709 130.777 155.863C129.993 156.216 130.929 155.94 131.144 155.877L131.382 155.912C130.887 155.808 130.923 155.823 131.481 155.976C132.333 156.402 131.562 156.023 131.332 155.799C130.817 155.309 130.368 154.759 129.903 154.22C130.563 154.977 129.753 154.033 129.669 153.932C129.352 153.543 129.043 153.153 128.734 152.764C127.898 151.677 127.114 150.551 126.421 149.362C126.238 149.043 126.063 148.715 125.88 148.387C125.291 147.334 126.186 149.21 125.742 148.091C125.428 147.296 125.116 146.509 124.887 145.67C124.843 145.493 124.525 144.292 124.786 145.417C124.706 145.062 124.676 144.676 124.64 144.318C124.603 143.96 124.625 143.561 124.579 143.195C124.466 142.22 124.363 144.197 124.563 143.214C124.604 143.012 124.628 142.812 124.67 142.61L124.741 142.315C124.873 141.843 124.842 141.918 124.631 142.541C124.596 142.372 124.917 141.858 124.988 141.707C125.074 141.529 125.17 141.358 125.274 141.187C124.902 141.742 124.855 141.827 125.14 141.451C125.773 140.731 124.303 141.963 125.088 141.464C125.873 140.966 124.114 141.843 124.994 141.499C125.874 141.156 123.944 141.613 124.884 141.563L124.342 141.553C124.82 141.676 124.793 141.651 124.269 141.496C125.826 142.198 127.221 142.985 128.871 143.489C131.612 144.327 134.53 144.393 137.279 145.203C136.375 144.935 137.209 145.191 137.387 145.266C137.629 145.373 137.87 145.488 138.104 145.613C138.221 145.676 138.659 146.028 138.789 146.008L138.308 145.669C138.453 145.774 138.589 145.871 138.726 145.986C139.137 146.313 139.531 146.669 139.9 147.044L140.085 147.237C140.392 147.582 140.326 147.497 139.879 146.983C139.898 147.162 140.245 147.458 140.359 147.62C140.727 148.132 141.027 148.675 141.336 149.228C141.809 150.073 140.961 148.266 141.297 149.168C141.429 149.509 141.569 149.84 141.684 150.183C141.881 150.762 141.937 151.48 142.176 152.029C141.758 151.071 142.065 151.424 142.136 151.933C142.168 152.201 142.2 152.478 142.215 152.757C142.23 153.036 142.245 153.305 142.251 153.576C142.26 153.755 142.253 153.937 142.245 154.127C142.22 154.626 142.239 154.489 142.286 153.744C142.126 154.344 142.127 155.012 141.986 155.629C141.922 155.896 141.849 156.155 141.776 156.423C141.626 156.887 141.663 156.766 141.889 156.088C141.828 156.256 141.758 156.424 141.68 156.593C141.572 156.846 141.454 157.091 141.327 157.336C141.193 157.6 140.493 158.687 141.252 157.55C140.557 158.582 140.085 159.533 140.155 160.837C140.214 161.942 140.754 163.215 141.595 163.913C143.238 165.267 146.34 165.497 147.737 163.404L147.782 163.437Z" fill="#9F490D"/>
<path d="M147.737 108.492C142.684 109.757 139.631 116.505 141.974 121.23C143.116 123.532 145.225 125.231 146.156 127.64C146.45 128.409 146.635 129.258 147.171 129.854C148.512 131.328 151.03 130.291 152.336 128.715C154.842 125.679 155.184 121.399 155.171 117.454C155.167 116.743 155.144 115.988 154.773 115.406C154.108 114.362 152.695 114.28 151.565 113.824C149.342 112.918 148.157 109.98 149.074 107.643L147.737 108.492Z" fill="#9F490D"/>
<path d="M146.362 104.258C141.744 105.505 138.342 109.898 137.208 114.544C136.638 116.89 136.71 119.507 137.451 121.772C138.233 124.177 139.809 125.939 141.23 127.913C141.456 128.228 142.077 128.916 142.116 129.318C142.045 128.657 141.924 128.82 142.039 129.189C142.144 129.523 142.267 129.865 142.39 130.197C143.097 132.005 144.108 133.48 145.803 134.395C148.431 135.8 151.883 134.91 154.141 133.029C158.566 129.354 159.463 123.222 159.517 117.782C159.531 115.933 159.303 114.13 158.246 112.613C157.112 110.967 155.396 110.307 153.59 109.762L153.307 109.678C152.944 109.564 152.935 109.564 153.289 109.679C153.636 109.804 153.635 109.795 153.297 109.652C152.892 109.424 152.966 109.49 153.516 109.841C153.54 109.803 153.037 109.529 153.104 109.469C153.515 109.985 153.579 110.052 153.298 109.678L153.146 109.439C152.603 108.735 153.351 110.332 153.164 109.455L153.08 109.183C152.967 108.705 152.981 108.812 153.133 109.521C153.074 109.562 153.138 108.971 153.102 108.955C153.028 109.683 153.017 109.801 153.087 109.308C153.2 108.839 153.153 108.933 152.945 109.591C153.603 107.742 153.579 105.527 151.975 104.208C150.371 102.889 148.41 102.844 146.684 103.943L145.346 104.793C143.384 106.037 142.797 109.204 144.125 111.06C145.567 113.086 148.045 113.503 150.141 112.175L151.48 111.325L145.219 105.678C144.35 108.129 144.129 110.645 145.156 113.057C146.294 115.739 148.258 117.452 150.927 118.339C151.069 118.391 152.002 118.575 152.034 118.68C152.034 118.68 151.163 118.194 151.894 118.665C152.336 118.944 151.438 118.288 151.355 118.196C151.132 117.944 151.06 117.58 150.882 117.343C150.609 116.959 150.838 117.328 150.846 117.643C150.856 118.156 150.849 118.67 150.834 119.186C150.822 119.619 150.867 120.129 150.777 120.56C151.042 119.331 150.721 120.971 150.683 121.244C150.621 121.7 150.549 122.148 150.46 122.588C150.385 122.964 150.323 123.753 150.087 124.061C150.477 123.542 150.301 123.521 150.139 123.904C150.031 124.156 149.932 124.416 149.806 124.67C149.712 124.867 149.61 125.065 149.507 125.263C149.428 125.405 149.024 125.979 149.389 125.489C149.754 124.999 148.912 126.006 148.823 126.131C148.499 126.581 149.494 125.661 149.012 125.926C148.166 126.393 149.178 125.93 149.168 125.913C149.187 125.939 148.571 126.143 148.52 126.174C148.067 126.491 149.41 126.037 148.881 126.081C148.309 126.128 149.838 126.218 149.283 126.111C148.808 126.015 149.88 126.368 150.007 126.457C150.315 126.674 150.444 126.961 150.668 127.24C151.004 127.654 150.637 127.153 150.565 126.96C150.391 126.47 150.217 125.988 150 125.511C149.059 123.407 147.624 121.831 146.356 119.962C146.233 119.774 146.11 119.594 145.995 119.397C145.88 119.199 145.448 118.775 145.854 119.21C146.205 119.578 145.896 119.333 145.812 119.078C145.751 118.912 145.689 118.737 145.637 118.57C145.584 118.403 145.557 118.216 145.495 118.05C145.309 117.506 145.574 119.017 145.568 118.431C145.563 118.017 145.561 117.485 145.495 117.076C145.421 116.505 145.347 118.035 145.464 117.466C145.513 117.246 145.526 117.011 145.567 116.791C145.6 116.608 145.643 116.433 145.686 116.249C145.722 116.111 145.75 115.982 145.795 115.852C145.89 115.52 145.837 115.669 145.627 116.299C145.858 116.055 146.02 115.347 146.177 115.028C146.264 114.867 146.36 114.706 146.447 114.545C146.818 113.848 145.997 115.088 146.342 114.707C146.614 114.414 146.865 114.069 147.118 113.76C147.584 113.189 146.98 113.942 146.859 113.961C146.989 113.933 147.376 113.531 147.485 113.45C147.627 113.348 147.788 113.254 147.93 113.143C148.641 112.606 147.035 113.496 147.853 113.167C148.27 112.997 148.68 112.837 149.117 112.72C151.332 112.122 152.638 109.057 151.845 106.95C150.93 104.529 148.713 103.613 146.344 104.259L146.362 104.258Z" fill="#9F490D"/>
</svg>
