<svg width="689" height="565" viewBox="0 0 689 565" fill="none" xmlns="http://www.w3.org/2000/svg">
<path d="M4 4.00391C4 4.00391 4 38.502 50 59.0039C96 79.5059 74.8263 95.9924 81.5039 94.502C118.504 94.502 122 76.5039 139.5 87.5039C171 122.504 208.167 157.671 222 161.004M222 161.004C222 161.004 300.004 176.504 305 161.004C309.996 145.504 324.2 126.804 337 132.004M222 161.004L200 212.004L222 240.504V288.004L251 329.504L290.75 294.504C290.75 294.504 327.504 294.504 337 329.504M337 132.004C349.8 137.204 375 127.006 388 132.004C401 137.002 413.996 151.006 429.5 161.004C445.004 171.002 455.496 161.004 464.5 161.004C473.504 161.004 501.996 200.006 541 212.004C580.004 224.002 604.5 223.006 630 212.004C655.5 201.002 655.5 240.504 655.5 240.504M337 132.004C337 132.004 355.496 168.506 363.5 176.504C371.504 184.502 379.996 176.504 388 176.504C396.004 176.504 401 195.504 401 195.504M532.75 396.504C532.75 396.504 521.004 379.002 494.75 364.504C468.496 350.006 404.504 401.002 383.25 364.504C361.996 328.006 337 329.504 337 329.504M337 329.504C337 329.504 355.996 317.504 341.75 357.004C327.504 396.504 317.25 388.004 317.25 388.004" stroke="#511300" stroke-width="8" stroke-linecap="round" stroke-linejoin="round"/>
<path d="M326.723 381.835C295.898 345.217 255.483 373.769 252.301 386.963C251.433 390.552 251.602 394.381 250.751 397.97C247.76 410.61 245.676 407.826 240.777 419.785C238.574 425.156 238.211 439.405 238.75 443.03C239.673 449.255 244.109 458.138 243.573 464.344C242.456 477.343 246.787 484.14 254.47 495.067C256.64 498.155 258.477 501.483 260.929 504.367C264.001 507.982 267.915 510.747 271.786 513.472C287.693 524.676 306.869 536.469 324.726 530.563C328.309 529.374 331.721 527.481 335.528 527.301C342.417 526.961 344.274 532.705 350.71 530.452C356.834 528.301 357.13 517.179 363.114 514.705C367.178 513.022 376.283 508.013 380.168 505.996C389.742 501.026 385.54 494.554 388.914 484.237C391.088 477.575 397.894 473.243 399.508 466.401C401.338 458.609 396.507 456.101 395.245 448.062C393.927 439.692 398.319 440.371 399.464 432.085C400.618 423.795 394.058 414.991 393.07 407.439C392.543 403.377 384.874 396.477 377.015 392.869C371.003 390.109 368.276 382.778 362.698 379.17C356.745 375.329 349.17 376.544 342.425 377.912C329.938 380.433 316.426 383.573 308.751 393.579C298.186 407.356 303.166 427.587 300.032 444.904" fill="#EC761F"/>
<path d="M329.95 379.727C322.966 371.464 314.406 364.86 304.067 361.731C295.917 359.268 287.275 359.483 279.269 361.557C272.281 363.366 265.595 366.691 259.961 371.088C257.497 373.017 255.129 375.134 253.118 377.546C251.531 379.451 250.011 381.59 249.119 383.934C248.227 386.278 247.93 388.655 247.694 391.106C247.365 394.509 246.805 397.725 245.86 400.989C245.654 401.709 246.089 400.297 245.803 401.168C245.709 401.442 245.612 401.723 245.518 401.996C245.331 402.527 245.132 403.042 244.915 403.558C244.561 404.386 244.171 405.195 243.727 405.969C242.91 407.422 241.946 408.775 241.075 410.192C238.493 414.398 236.467 418.999 235.65 423.943C234.833 428.887 234.593 433.959 234.622 438.984C234.636 440.606 234.658 442.25 234.942 443.862C235.48 446.887 236.427 449.833 237.359 452.772C237.818 454.22 238.273 455.675 238.679 457.14C238.852 457.749 239.226 458.589 239.213 459.217C239.214 459.122 239.036 458.372 239.181 459.096C239.21 459.241 239.239 459.386 239.268 459.531C239.346 459.91 239.407 460.288 239.464 460.673C239.561 461.312 239.63 461.955 239.67 462.601C239.686 462.904 239.689 463.218 239.695 463.525C239.7 463.927 239.503 463.819 239.701 463.268C239.649 463.415 239.667 463.659 239.654 463.817C239.524 465.445 239.458 467.087 239.473 468.727C239.508 473.739 240.617 478.799 242.785 483.414C245.129 488.423 248.298 492.921 251.437 497.464C253.447 500.367 255.192 503.457 257.447 506.18C259.861 509.088 262.635 511.553 265.669 513.802C270.752 517.577 276.027 521.17 281.419 524.476C291.496 530.658 302.752 535.876 314.558 536.057C317.49 536.102 320.386 535.736 323.216 535.095C326.047 534.454 328.769 533.237 331.536 532.242C332.228 531.993 332.917 531.769 333.628 531.574C333.98 531.483 334.339 531.396 334.692 531.323C333.896 531.493 334.99 531.291 335.26 531.263C335.638 531.229 336.021 531.206 336.4 531.207C336.488 531.208 336.81 531.163 336.892 531.213C336.616 531.03 336.345 531.136 336.804 531.212C337.14 531.269 337.475 531.309 337.811 531.384C337.946 531.417 338.084 531.444 338.225 531.481C338.31 531.506 339.128 531.799 338.498 531.54C337.868 531.282 338.832 531.675 338.978 531.74C339.249 531.86 339.52 531.98 339.784 532.114C340.337 532.385 340.88 532.678 341.426 532.963C342.687 533.628 343.997 534.206 345.365 534.569C348.44 535.38 352.127 534.704 354.616 532.873C356.947 531.154 358.471 528.687 359.753 526.115C360.29 525.032 360.78 523.935 361.317 522.852C361.578 522.316 361.843 521.79 362.133 521.268C362.297 520.978 362.464 520.698 362.627 520.407C362.687 520.298 362.936 519.938 362.6 520.428C362.213 521.005 362.671 520.334 362.721 520.264C363.035 519.823 363.377 519.397 363.755 519.007C363.827 518.931 363.933 518.854 364.001 518.767C364.22 518.47 363.696 519.038 363.665 519.048C363.929 518.957 364.235 518.608 364.48 518.463C364.577 518.408 364.674 518.352 364.77 518.297C365.233 518.01 364.655 518.543 364.486 518.431C364.536 518.456 365.003 518.216 365.041 518.191C365.496 517.996 365.95 517.783 366.393 517.574C371.085 515.366 375.635 512.895 380.2 510.467C382.535 509.227 384.78 508.046 386.72 506.216C388.661 504.385 389.84 501.9 390.489 499.285C391.027 497.091 391.098 494.782 391.321 492.525C391.459 491.179 391.63 489.842 391.899 488.519C392.039 487.808 392.201 487.109 392.394 486.417C392.47 486.125 392.771 485.279 392.501 486.002C392.654 485.584 392.796 485.17 392.97 484.763C393.268 484.054 393.627 483.368 394.011 482.703C394.118 482.514 394.242 482.325 394.349 482.136C394.378 482.072 394.691 481.615 394.426 482.01C394.143 482.44 394.533 481.856 394.608 481.755C394.769 481.524 394.928 481.3 395.086 481.076C396.011 479.808 396.997 478.597 397.95 477.361C400.247 474.399 402.256 471.336 403.272 467.657C404.096 464.67 404 461.495 403.124 458.472C402.477 456.242 401.301 454.196 400.421 452.048C400.178 451.456 399.956 450.857 399.762 450.255C399.657 449.933 399.56 449.614 399.469 449.282C399.43 449.14 399.394 448.992 399.354 448.85C399.218 448.407 399.477 449.529 399.334 448.779C399.192 448.03 399.063 447.252 398.991 446.486C398.959 446.14 398.935 445.798 398.924 445.445C398.92 445.304 398.92 445.174 398.915 445.032C398.893 444.179 398.82 445.592 398.909 445.159C399.02 444.66 399.053 444.121 399.143 443.611C399.294 442.784 398.827 444.337 399.08 443.744C399.179 443.516 399.259 443.27 399.358 443.042C399.723 442.211 400.198 441.445 400.656 440.661C402.005 438.322 402.921 435.738 403.314 433.028C403.762 429.955 403.372 426.935 402.619 423.896C401.342 418.725 398.668 413.983 397.293 408.831C397.253 408.672 397.218 408.22 397.105 408.102C397.337 408.341 397.258 408.866 397.173 408.371C397.144 408.209 397.111 408.053 397.081 407.89C396.953 407.131 396.846 406.382 396.633 405.631C396.307 404.467 395.682 403.334 395.019 402.321C393.43 399.892 391.25 397.763 389.033 395.918C386.387 393.727 383.478 391.775 380.44 390.192C379.758 389.838 379.066 389.522 378.378 389.182C378.064 389.023 377.75 388.864 377.449 388.676C377.399 388.651 377.107 388.425 377.066 388.439C377.5 388.737 377.586 388.798 377.335 388.618C377.256 388.561 377.169 388.5 377.09 388.443C375.943 387.575 374.815 386.534 373.913 385.408C374.424 386.05 373.913 385.391 373.697 385.134C373.468 384.853 373.238 384.571 373.008 384.29C372.515 383.684 372.025 383.071 371.533 382.465C370.427 381.115 369.3 379.771 368.065 378.546C365.496 376.002 362.354 374.245 358.904 373.33C352.286 371.575 345.377 373.198 338.975 374.53C327.276 376.956 314.783 380.335 306.752 389.595C298.069 399.62 297.664 413.414 297.415 426.296C297.384 427.844 297.354 429.391 297.316 430.935C297.303 431.32 297.297 431.707 297.284 432.092C297.308 431.235 297.275 432.356 297.267 432.56C297.234 433.325 297.197 434.097 297.154 434.865C296.973 437.952 296.669 441.02 296.132 444.056C295.775 446.072 297.275 448.387 299.369 448.727C301.463 449.068 303.51 447.838 303.891 445.678C305.008 439.401 305.112 432.949 305.235 426.55C305.262 425.01 305.292 423.462 305.337 421.921C305.35 421.537 305.363 421.153 305.376 420.769C305.354 421.548 305.384 420.582 305.397 420.311C305.429 419.493 305.467 418.679 305.52 417.872C305.694 414.894 305.987 411.925 306.524 409.002C306.787 407.58 307.109 406.163 307.506 404.775C307.56 404.586 307.607 404.375 307.678 404.185C307.668 404.206 307.447 404.884 307.599 404.449C307.715 404.108 307.828 403.774 307.944 403.434C308.203 402.714 308.484 402.006 308.793 401.311C309.372 399.989 310.076 398.757 310.794 397.514C311.024 397.118 310.663 397.699 310.649 397.727C310.749 397.552 310.885 397.378 310.999 397.21C311.181 396.955 311.363 396.7 311.552 396.448C312.002 395.851 312.469 395.271 312.962 394.713C313.414 394.204 313.887 393.706 314.375 393.233C314.621 392.992 314.871 392.763 315.12 392.533C315.185 392.471 315.555 392.137 315.175 392.474C314.795 392.811 315.274 392.394 315.35 392.328C316.426 391.432 317.575 390.607 318.761 389.854C319.947 389.1 321.119 388.469 322.344 387.84C322.414 387.805 322.864 387.582 322.427 387.795C321.967 388.022 322.538 387.747 322.653 387.692C322.968 387.548 323.283 387.404 323.606 387.263C324.248 386.989 324.897 386.719 325.546 386.466C330.885 384.386 336.514 383.097 342.144 381.937C342.85 381.791 343.545 381.648 344.247 381.509C344.617 381.436 344.995 381.367 345.368 381.287C345.428 381.274 345.966 381.182 345.522 381.261C345.078 381.34 345.763 381.218 345.84 381.205C347.41 380.932 349.002 380.705 350.601 380.578C351.309 380.52 352.025 380.483 352.738 380.471C353.121 380.465 353.5 380.466 353.876 380.475C354.147 380.482 355.31 380.584 354.471 380.489C355.211 380.569 355.952 380.667 356.695 380.817C357.009 380.881 357.318 380.959 357.626 381.037C357.831 381.089 358.03 381.155 358.242 381.211C358.703 381.34 358.447 381.227 358.142 381.16C358.822 381.313 359.584 381.76 360.192 382.103C360.32 382.168 361.011 382.483 361.04 382.611C361.015 382.494 360.418 382.148 360.904 382.524C361.066 382.65 361.231 382.768 361.39 382.901C361.948 383.349 362.482 383.828 362.986 384.335C363.24 384.585 363.487 384.849 363.734 385.113C363.839 385.228 363.945 385.342 364.05 385.456C364.57 386.023 363.765 385.103 364.079 385.488C366.081 387.901 367.968 390.446 370.203 392.647C371.424 393.847 372.805 394.894 374.282 395.756C375.585 396.52 376.997 397.088 378.317 397.835C378.953 398.192 379.572 398.567 380.192 398.959C380.5 399.15 380.903 399.345 381.174 399.595C381.149 399.574 380.582 399.182 380.973 399.459C381.199 399.617 381.426 399.775 381.648 399.94C382.856 400.812 384.019 401.74 385.124 402.735C385.641 403.196 386.14 403.675 386.626 404.164C386.822 404.368 387.018 404.571 387.207 404.771C387.261 404.825 387.532 405.075 387.574 405.174C387.52 405.026 387.056 404.547 387.403 404.992C387.75 405.437 388.115 405.883 388.439 406.36C388.586 406.573 388.73 406.793 388.86 407.024C388.915 407.113 388.967 407.209 389.019 407.305C389.363 407.87 388.734 406.596 388.877 407.025C388.99 407.368 389.112 407.803 389.276 408.13C389.269 408.109 389.111 407.091 389.141 407.61C389.148 407.726 389.169 407.85 389.194 407.967C389.246 408.288 389.301 408.603 389.364 408.921C389.645 410.331 390.007 411.722 390.463 413.1C391.28 415.571 392.319 417.965 393.26 420.396C393.733 421.608 394.191 422.83 394.587 424.073C394.785 424.686 394.965 425.298 395.125 425.917C395.196 426.179 395.236 426.451 395.317 426.709C394.985 425.725 395.311 426.741 395.366 427.038C395.476 427.65 395.558 428.264 395.604 428.878C395.628 429.185 395.644 429.489 395.657 429.799C395.657 429.93 395.658 430.06 395.665 430.194C395.691 430.798 395.741 430.033 395.679 429.958C395.892 430.24 395.509 431.635 395.455 431.937C395.388 432.303 395.322 432.669 395.242 433.028C395.207 433.175 395.176 433.316 395.135 433.46C395.097 433.597 394.935 434.41 395.06 433.77C395.179 433.179 394.937 434.107 394.878 434.25C394.79 434.475 394.705 434.693 394.61 434.913C394.393 435.411 394.148 435.895 393.888 436.371C393.458 437.152 392.978 437.908 392.57 438.7C389.959 443.681 391.058 449.926 393.262 455.064C394.166 457.163 395.14 459.168 395.831 461.342C395.959 461.728 395.738 460.921 395.738 460.921C395.716 461.005 395.817 461.334 395.826 461.391C395.865 461.628 395.9 461.871 395.918 462.115C395.948 462.408 395.957 462.708 395.969 463.001C395.971 463.054 396.012 463.361 395.971 463.392C395.997 462.867 395.997 462.754 395.981 463.05C395.974 463.142 395.973 463.237 395.965 463.329C395.915 463.98 395.808 464.621 395.676 465.257C395.626 465.476 395.573 465.683 395.523 465.901C395.508 465.971 395.344 466.505 395.492 466.042C395.649 465.539 395.423 466.206 395.378 466.322C395.299 466.526 395.221 466.729 395.136 466.929C394.83 467.634 394.485 468.31 394.098 468.965C393.994 469.147 393.376 470.084 393.881 469.35C393.628 469.717 393.379 470.077 393.123 470.434C392.209 471.699 391.223 472.91 390.262 474.142C388.236 476.754 386.253 479.519 385.222 482.722C384.297 485.605 383.746 488.521 383.462 491.565C383.26 493.72 383.132 495.887 382.613 497.986C382.39 498.889 382.89 497.284 382.645 497.898C382.554 498.13 382.473 498.358 382.374 498.586C382.276 498.814 382.163 499.035 382.05 499.255C382.004 499.353 381.943 499.444 381.893 499.532C381.697 499.91 381.452 499.83 382.052 499.308C381.695 499.614 381.443 500.112 381.113 500.457C381.038 500.54 380.552 501.084 380.502 501.059C380.481 501.048 381.127 500.559 380.765 500.819C380.587 500.954 380.412 501.1 380.237 501.228C378.459 502.525 376.386 503.454 374.442 504.484C372.214 505.665 369.991 506.857 367.748 508.013C366.672 508.571 365.6 509.121 364.516 509.658C364.263 509.782 364.021 509.902 363.768 510.026C363.664 510.077 363.56 510.129 363.46 510.173C363.013 510.39 364.187 509.83 363.747 510.032C363.307 510.235 362.895 510.434 362.461 510.623C361.303 511.13 360.126 511.602 359.138 512.404C358.078 513.265 357.182 514.191 356.418 515.324C354.932 517.524 353.872 519.904 352.7 522.28C352.442 522.81 352.173 523.342 351.887 523.857C351.75 524.109 351.599 524.354 351.452 524.61C350.998 525.387 351.818 524.135 351.433 524.652C351.112 525.089 350.791 525.525 350.42 525.919C350.298 526.048 349.665 526.639 350.151 526.208C350.637 525.777 349.869 526.395 349.734 526.475C349.645 526.533 349.541 526.585 349.451 526.644C349.079 526.889 349.285 526.49 349.75 526.517C349.559 526.508 349.19 526.729 349.013 526.786C348.807 526.847 348.605 526.901 348.399 526.962C348.305 526.992 347.815 527.057 348.305 526.992C348.796 526.928 348.312 526.978 348.228 526.988C348 527.003 347.783 527.014 347.555 527.029C346.67 527.067 348.089 527.17 347.446 527.034C347.173 526.975 346.898 526.922 346.625 526.862C346.544 526.847 346.358 526.753 346.281 526.766C346.281 526.766 347.114 527.101 346.736 526.927C346.451 526.8 346.156 526.694 345.867 526.556C343.394 525.407 341.09 523.953 338.361 523.534C334.894 523.01 331.538 523.715 328.358 524.891C325.661 525.887 323.046 527.028 320.211 527.641C320.075 527.667 319.935 527.701 319.799 527.727C319.376 527.817 319.524 527.597 319.963 527.698C319.747 527.649 319.358 527.799 319.141 527.828C318.459 527.926 317.776 528.005 317.085 528.063C315.806 528.17 314.521 528.196 313.23 528.159C312.906 528.151 312.586 528.137 312.262 528.111C312.082 528.098 311.892 528.071 311.712 528.076C311.72 528.08 312.484 528.146 312.04 528.094C311.352 528.015 310.658 527.95 309.97 527.853C308.671 527.664 307.381 527.418 306.103 527.109C304.825 526.8 303.517 526.442 302.243 526.031C301.92 525.928 301.6 525.818 301.277 525.715C300.354 525.404 301.743 525.89 301.05 525.635C300.41 525.397 299.771 525.16 299.134 524.898C293.876 522.789 288.873 520.046 284.041 517.051C282.788 516.277 281.555 515.478 280.325 514.673C279.78 514.309 279.231 513.953 278.682 513.58C278.388 513.378 278.098 513.188 277.803 512.987C277.717 512.926 277.29 512.631 277.75 512.951C278.277 513.314 277.556 512.818 277.448 512.746C274.882 510.985 272.312 509.214 269.841 507.328C268.442 506.263 267.076 505.145 265.799 503.934C265.224 503.39 264.676 502.826 264.142 502.252C264.047 502.152 263.646 501.671 264.106 502.216C263.985 502.077 263.876 501.935 263.755 501.796C263.445 501.421 263.149 501.037 262.856 500.645C260.835 497.953 259.13 495.04 257.202 492.283C255.652 490.073 254.108 487.85 252.686 485.557C252.058 484.544 251.451 483.524 250.878 482.47C250.74 482.218 250.606 481.958 250.468 481.706C250.043 480.9 250.731 482.256 250.438 481.639C250.198 481.135 249.95 480.628 249.731 480.117C249.271 479.067 248.866 477.994 248.513 476.903C248.354 476.415 248.209 475.916 248.078 475.424C248.01 475.155 247.945 474.879 247.878 474.61C247.767 474.207 247.964 475.027 247.971 475.013C247.994 474.869 247.877 474.575 247.851 474.423C247.388 472.026 247.227 469.591 247.269 467.172C247.288 466.175 247.234 467.623 247.282 466.901C247.303 466.556 247.325 466.21 247.346 465.865C247.413 464.935 247.476 464.012 247.483 463.077C247.486 461.794 247.324 460.505 247.082 459.236C246.501 456.171 245.588 453.172 244.64 450.191C244.193 448.775 243.743 447.366 243.334 445.943C243.165 445.345 243.006 444.743 242.858 444.138C242.682 443.441 242.991 444.814 242.813 443.933C242.743 443.594 242.683 443.251 242.631 442.912C242.399 441.396 242.394 439.848 242.394 438.328C242.392 437.806 242.397 437.288 242.403 436.769C242.409 436.494 242.414 436.219 242.42 435.944C242.428 435.645 242.556 434.624 242.421 435.754C242.555 434.589 242.528 433.368 242.612 432.195C242.78 429.848 243.018 427.503 243.416 425.195C243.589 424.171 243.801 423.158 244.076 422.16C244.178 421.794 244.515 421.227 244.008 422.36C244.081 422.206 244.118 422.033 244.176 421.872C244.44 421.163 244.749 420.468 245.058 419.774C246.002 417.621 247.074 415.533 248.31 413.546C249.172 412.167 250.105 410.842 250.895 409.428C251.995 407.449 252.735 405.315 253.404 403.144C254.367 400.028 255.011 396.898 255.316 393.622C255.476 391.949 255.619 390.276 255.941 388.633C256.027 388.208 256.134 387.793 256.234 387.374C256.371 386.801 255.864 388.403 256.045 387.982C256.098 387.87 256.129 387.747 256.168 387.628C256.509 386.715 256.964 385.843 257.47 385.013C257.54 384.901 257.61 384.789 257.684 384.67C258.032 384.1 257.109 385.517 257.405 385.094C257.567 384.863 257.721 384.629 257.894 384.395C258.244 383.912 258.61 383.437 258.993 382.98C259.84 381.951 260.756 380.982 261.712 380.06C261.941 379.837 262.18 379.611 262.423 379.395C262.55 379.277 262.687 379.155 262.82 379.041C262.943 378.929 263.556 378.398 262.96 378.912C262.365 379.426 262.926 378.947 263.057 378.839C263.187 378.731 263.338 378.599 263.478 378.488C263.783 378.235 264.096 377.985 264.415 377.738C266.931 375.774 269.645 374.049 272.5 372.587C272.87 372.401 273.28 372.244 273.632 372.023C273.242 372.268 272.87 372.383 273.48 372.102C273.705 371.999 273.92 371.899 274.145 371.796C274.932 371.44 275.731 371.115 276.533 370.801C278.207 370.155 279.912 369.595 281.659 369.134C282.527 368.905 283.403 368.698 284.283 368.519C284.468 368.482 284.668 368.453 284.856 368.41C283.699 368.726 284.43 368.489 284.738 368.436C285.22 368.351 285.703 368.283 286.186 368.215C288.02 367.963 289.871 367.824 291.726 367.809C292.703 367.8 293.684 367.837 294.667 367.892C295.519 367.942 293.923 367.819 294.564 367.884C294.769 367.901 294.973 367.917 295.181 367.945C295.696 367.997 296.207 368.056 296.719 368.133C298.71 368.413 300.691 368.843 302.627 369.425C303.085 369.561 303.528 369.708 303.979 369.858C304.817 370.126 303.25 369.584 303.912 369.833C304.189 369.938 304.47 370.037 304.744 370.15C305.729 370.536 306.705 370.961 307.664 371.421C308.623 371.881 309.627 372.416 310.582 372.961C311.068 373.242 311.558 373.534 312.035 373.836C312.282 373.987 312.519 374.142 312.762 374.3C312.863 374.368 312.97 374.44 313.074 374.501C313.54 374.807 312.935 374.422 312.808 374.315C313.724 375.074 314.755 375.701 315.692 376.453C316.628 377.205 317.551 377.986 318.441 378.801C319.33 379.617 320.285 380.535 321.156 381.445C321.632 381.938 322.096 382.434 322.547 382.94C322.642 383.04 323.147 383.488 323.144 383.607C323.147 383.583 322.51 382.869 323.05 383.508C323.181 383.661 323.312 383.814 323.443 383.967C324.802 385.568 327.097 386.496 328.917 385.186C330.454 384.081 331.345 381.458 329.897 379.744L329.95 379.727Z" fill="#EC761F"/>
<path d="M332.649 375.822C322.944 379.208 313.102 383.269 306.256 391.226C298.675 400.039 296.568 411.634 295.249 422.942C294.521 429.181 293.906 435.46 292.408 441.56C291.919 443.561 293.592 445.898 295.603 446.202C297.832 446.545 299.634 445.243 300.155 443.101C302.729 432.612 302.62 421.623 305.151 411.129C305.436 409.944 305.756 408.776 306.119 407.612C305.826 408.557 306.162 407.503 306.212 407.362C306.318 407.048 306.431 406.737 306.544 406.427C306.81 405.704 307.098 404.991 307.407 404.289C307.894 403.178 308.434 402.085 309.02 401.024C309.345 400.435 309.695 399.867 310.053 399.303C309.604 400.023 310.012 399.37 310.132 399.194C310.35 398.884 310.572 398.567 310.798 398.26C311.561 397.234 312.384 396.265 313.258 395.339C313.616 394.958 313.985 394.592 314.357 394.236C314.581 394.025 314.812 393.817 315.037 393.605C315.361 393.313 315.344 393.331 314.967 393.658C315.119 393.524 315.278 393.394 315.437 393.264C317.304 391.714 319.329 390.349 321.435 389.146C321.956 388.847 322.488 388.562 323.02 388.277C323.288 388.14 323.556 388.003 323.824 387.866C324.002 387.771 324.183 387.686 324.364 387.602C323.918 387.817 323.89 387.838 324.28 387.648C325.461 387.11 326.639 386.58 327.842 386.088C330.293 385.083 332.778 384.192 335.281 383.318C337.211 382.647 338.471 380.341 337.663 378.331C336.855 376.321 334.698 375.106 332.639 375.825L332.649 375.822Z" fill="#9F490D"/>
<path d="M334.222 379.652C330.567 365.437 325.843 351.173 317.387 338.989C308.931 326.805 292.691 314.773 278.263 312.432L278.026 318.749C278.362 322.691 280.255 328.472 281.731 331.437C286.415 340.814 290.791 346.489 299.08 352.97C305.545 358.028 320.465 364.691 330.598 366.997" fill="#075A2D"/>
<path d="M337.912 378.485C334.634 365.744 330.482 353.079 323.656 341.616C317.284 330.911 308.12 322.126 297.447 315.755C291.736 312.346 285.399 309.648 278.894 308.557C276.989 308.241 274.468 309.4 274.388 311.588C274.332 313.054 274.279 314.513 274.223 315.979C274.201 316.607 274.178 317.234 274.156 317.862C274.097 319.37 274.342 320.815 274.661 322.307C276.102 328.902 278.861 334.945 282.508 340.695C285.922 346.078 290.29 350.785 295.235 354.808C299.735 358.468 304.817 361.266 310.029 363.697C316.42 366.673 323.136 369.278 329.968 370.853C331.99 371.316 334.226 369.882 334.474 367.822C334.722 365.763 333.406 363.672 331.243 363.173C328.554 362.554 325.916 361.737 323.302 360.846C322.977 360.733 322.897 360.528 323.462 360.9C323.354 360.829 323.161 360.791 323.04 360.747C322.707 360.631 322.377 360.507 322.048 360.383C321.282 360.099 320.53 359.805 319.772 359.507C318.346 358.941 316.933 358.347 315.53 357.732C312.887 356.567 310.28 355.307 307.729 353.93C306.578 353.304 305.43 352.653 304.312 351.958C303.833 351.664 303.368 351.359 302.896 351.051C302.074 350.514 303.502 351.487 302.946 351.076C302.688 350.894 302.423 350.708 302.169 350.519C299.791 348.754 297.523 346.776 295.415 344.681C294.898 344.169 294.388 343.643 293.899 343.11C293.677 342.869 293.411 342.63 293.227 342.365C293.293 342.45 293.813 343.05 293.347 342.503C293.224 342.354 293.104 342.216 292.98 342.067C292.067 340.974 291.198 339.843 290.38 338.678C288.625 336.174 287.106 333.522 285.698 330.823C285.672 330.766 285.418 330.275 285.624 330.681C285.855 331.126 285.53 330.487 285.474 330.381C285.347 330.127 285.22 329.872 285.104 329.615C284.811 328.983 284.545 328.33 284.294 327.685C283.761 326.309 283.294 324.907 282.892 323.494C282.763 323.04 282.636 322.579 282.524 322.125C282.488 321.977 282.455 321.822 282.412 321.67C282.289 321.202 282.538 322.339 282.399 321.604C282.241 320.798 282.083 319.992 281.988 319.184C281.865 318.137 281.865 320.175 281.897 319.19C281.907 318.832 281.924 318.478 281.941 318.124C282.006 316.49 282.064 314.852 282.129 313.218L277.623 316.249C278.915 316.463 280.203 316.743 281.468 317.09C282.068 317.256 282.673 317.432 283.271 317.622C283.515 317.703 283.986 317.958 284.248 317.944C284.241 317.941 283.504 317.671 283.94 317.831C284.173 317.915 284.407 317.999 284.638 318.09C287.257 319.079 289.803 320.281 292.259 321.637C293.546 322.349 294.813 323.102 296.05 323.901C296.361 324.102 296.672 324.303 296.98 324.51C297.115 324.596 297.241 324.686 297.377 324.772C297.774 325.033 297.172 324.625 297.151 324.614C297.823 324.928 298.497 325.555 299.1 325.998C301.437 327.717 303.681 329.578 305.809 331.554C306.87 332.54 307.9 333.554 308.896 334.602C309.385 335.117 309.863 335.636 310.338 336.162C310.861 336.737 309.942 335.693 310.447 336.286C310.702 336.587 310.964 336.893 311.218 337.194C313.07 339.419 314.724 341.785 316.253 344.226C317.068 345.528 317.848 346.847 318.59 348.19C318.976 348.887 319.352 349.586 319.717 350.29C319.795 350.441 319.874 350.593 319.952 350.745C319.922 350.696 319.675 350.191 319.874 350.593C320.072 350.996 320.277 351.402 320.479 351.815C321.871 354.68 323.121 357.601 324.257 360.56C326.814 367.201 328.801 374.02 330.566 380.882C331.087 382.899 333.777 384.114 335.599 383.43C337.718 382.637 338.48 380.647 337.923 378.5L337.912 378.485Z" fill="#075A2D"/>
<path d="M375.395 439.967C372.361 433.663 363.096 431.373 357.894 435.641C355.357 437.724 353.858 440.925 351.131 442.755C350.266 443.333 349.264 443.789 348.679 444.656C347.229 446.796 349.247 449.833 351.585 451.139C356.078 453.65 361.498 453.01 366.397 451.993C367.281 451.807 368.213 451.593 368.833 450.952C369.941 449.821 369.627 447.934 369.874 446.339C370.366 443.193 373.669 440.89 376.833 441.495L375.394 439.95L375.395 439.967Z" fill="#9F490D"/>
<path d="M379.084 438.773C376.595 433.752 371.747 430.21 366.189 429.66C363.485 429.393 360.758 429.608 358.308 430.755C355.415 432.111 353.443 434.308 351.475 436.758C351.008 437.338 350.537 437.906 350.026 438.446C349.811 438.676 349.579 438.889 349.35 439.111C349.388 439.07 349.862 438.719 349.507 438.965C349.294 439.118 349.092 439.284 348.872 439.433C347.318 440.478 345.768 441.404 344.915 443.177C343.285 446.545 344.913 450.41 347.537 452.929C349.904 455.205 353.404 456.371 356.548 456.679C360.108 457.024 363.49 456.601 366.945 455.929C368.912 455.545 370.865 454.946 372.118 453.28C372.909 452.221 373.395 450.983 373.548 449.645C373.642 448.824 373.613 447.985 373.75 447.168C373.771 447.049 373.82 446.908 373.823 446.788C373.829 446.4 373.443 447.595 373.779 446.939C373.854 446.778 374.315 445.969 373.968 446.48C373.622 446.99 373.894 446.581 373.969 446.497C374.105 446.341 374.244 446.177 374.38 446.02C374.39 445.999 374.635 445.741 374.646 445.755C374.682 445.773 373.937 446.264 374.475 445.929C374.575 445.867 375.21 445.346 375.342 445.404C375.42 445.444 374.572 445.648 375.031 445.576C375.223 445.544 375.445 445.448 375.636 445.38C375.859 445.301 376.027 445.413 375.643 445.366C375.142 445.303 375.611 445.376 375.78 445.374C375.949 445.373 376.128 445.386 376.289 445.363C376.748 445.309 375.347 445.242 376.167 445.379C377.83 445.658 379.709 444.934 380.378 443.328C381.079 441.633 380.614 439.974 379.35 438.621L377.911 437.076C376.473 435.531 373.581 435.776 372.369 437.298C370.964 439.061 371.29 441.223 372.83 442.872L374.268 444.417L377.451 437.659C374.195 437.121 371.178 438.101 368.821 440.251C367.953 441.044 367.231 442.032 366.726 443.105C366.049 444.542 365.93 445.976 365.813 447.54C365.791 447.868 365.73 448.184 365.701 448.508C365.626 449.269 365.829 448.425 365.876 448.232L366.008 448.064C365.709 448.399 365.736 448.378 366.101 448.016C366.807 447.549 366.174 447.975 365.898 448.052C365.292 448.232 364.67 448.333 364.048 448.452C364.925 448.28 363.838 448.485 363.723 448.504C363.282 448.576 362.845 448.641 362.408 448.706C361.2 448.867 359.984 448.972 358.761 448.977C358.434 448.977 358.104 448.965 357.77 448.961C356.697 448.948 358.54 449.091 357.481 448.936C356.729 448.825 355.984 448.716 355.237 448.52C355.081 448.476 354.014 448.187 354.997 448.485C354.688 448.39 354.378 448.241 354.086 448.111C353.793 447.98 353.496 447.786 353.193 447.658C352.392 447.313 353.869 448.27 353.201 447.68C353.064 447.558 352.92 447.45 352.783 447.329L352.587 447.143C352.283 446.832 352.327 446.889 352.712 447.328C352.567 447.28 352.314 446.804 352.229 446.684C352.13 446.538 352.041 446.388 351.955 446.232C352.217 446.764 352.262 446.839 352.099 446.453C351.825 445.645 352.122 447.324 352.086 446.498C352.051 445.673 351.946 447.417 352.072 446.586C352.197 445.756 351.693 447.445 352.071 446.699L351.824 447.112C352.131 446.799 352.099 446.809 351.747 447.143C352.979 446.256 354.204 445.531 355.325 444.484C357.188 442.744 358.533 440.526 360.378 438.768C359.77 439.346 360.337 438.817 360.475 438.713C360.664 438.574 360.86 438.439 361.06 438.315C361.16 438.253 361.625 438.072 361.668 437.963L361.193 438.183C361.339 438.118 361.474 438.056 361.623 438.001C362.057 437.83 362.506 437.685 362.959 437.567L363.19 437.51C363.591 437.427 363.497 437.44 362.903 437.556C363.049 437.621 363.431 437.485 363.607 437.469C364.164 437.413 364.716 437.423 365.278 437.431C366.139 437.441 364.371 437.292 365.215 437.433C365.536 437.483 365.854 437.522 366.168 437.586C366.702 437.692 367.28 437.967 367.809 438.027C366.885 437.923 367.294 437.844 367.717 438.015C367.938 438.11 368.166 438.208 368.387 438.32C368.608 438.432 368.822 438.54 369.033 438.656C369.176 438.728 369.312 438.815 369.455 438.905C369.828 439.146 369.731 439.07 369.179 438.704C369.57 439.093 370.085 439.389 370.497 439.771C370.675 439.939 370.841 440.111 371.015 440.286C371.306 440.607 371.23 440.525 370.808 440.05C370.91 440.171 371.009 440.3 371.104 440.435C371.251 440.631 371.387 440.83 371.52 441.036C371.663 441.256 372.19 442.279 371.651 441.189C372.138 442.183 372.66 442.969 373.695 443.493C374.573 443.938 375.794 444.088 376.704 443.75C378.476 443.085 380.031 440.798 379.039 438.794L379.084 438.773Z" fill="#9F490D"/>
<path d="M336.744 414.409C335.475 418.863 339.317 424.21 343.996 424.503C346.276 424.645 348.521 423.775 350.79 424.128C351.512 424.242 352.249 424.477 352.945 424.328C354.676 423.95 354.995 421.55 354.361 419.844C353.135 416.567 349.99 414.403 346.946 412.662C346.397 412.349 345.805 412.032 345.192 412.06C344.093 412.108 343.403 413.161 342.55 413.828C340.865 415.138 338.076 414.747 336.683 413.003L336.744 414.409Z" fill="#9F490D"/>
<path d="M332.872 413.589C331.783 417.699 333.656 422.27 336.731 425.205C338.285 426.685 340.333 427.792 342.406 428.227C344.606 428.692 346.663 428.261 348.814 428.042C349.157 428.008 349.962 427.835 350.289 427.984C349.749 427.744 349.82 427.911 350.156 427.985C350.46 428.053 350.777 428.11 351.088 428.163C352.794 428.421 354.379 428.297 355.836 427.397C358.085 425.997 358.932 422.943 358.485 420.369C357.619 415.329 353.294 411.917 349.128 409.46C347.71 408.629 346.221 408.004 344.583 408.145C342.812 408.288 341.542 409.316 340.321 410.465L340.13 410.646C339.881 410.875 339.877 410.882 340.123 410.66C340.373 410.448 340.366 410.445 340.105 410.642C339.75 410.852 339.833 410.825 340.348 410.557C340.329 410.522 339.895 410.787 339.879 410.709C340.459 410.622 340.539 410.602 340.126 410.653L339.874 410.664C339.091 410.77 340.653 410.902 339.895 410.657L339.648 410.601C339.23 410.476 339.319 410.512 339.932 410.71C339.937 410.774 339.51 410.462 339.483 410.483C340.01 410.862 340.096 410.923 339.747 410.651C339.437 410.355 339.488 410.433 339.902 410.886C338.77 409.559 337.053 408.593 335.326 409.243C333.598 409.893 332.693 411.384 332.773 413.201L332.833 414.609C332.921 416.672 335.1 418.53 337.118 418.331C339.319 418.12 340.74 416.396 340.648 414.192L340.588 412.784L333.459 415.099C334.961 416.857 336.8 418.144 339.114 418.423C341.685 418.738 343.876 417.985 345.745 416.324C345.847 416.237 346.403 415.6 346.499 415.622C346.499 415.622 345.737 416.077 346.425 415.724C346.836 415.507 345.932 415.907 345.824 415.93C345.531 415.99 345.219 415.884 344.957 415.916C344.54 415.956 344.926 415.944 345.172 416.077C345.572 416.297 345.965 416.531 346.355 416.771C346.684 416.973 347.097 417.164 347.389 417.425C346.559 416.675 347.68 417.65 347.874 417.801C348.197 418.051 348.51 418.305 348.809 418.569C349.065 418.794 349.646 419.192 349.779 419.511C349.552 418.98 349.457 419.105 349.68 419.4C349.827 419.596 349.983 419.788 350.123 419.997C350.233 420.157 350.34 420.324 350.447 420.491C350.521 420.615 350.784 421.181 350.569 420.682C350.353 420.183 350.755 421.279 350.812 421.403C351.015 421.853 350.747 420.677 350.738 421.166C350.722 422.025 350.815 421.041 350.797 421.04C350.825 421.037 350.709 421.602 350.71 421.655C350.753 422.145 351 420.909 350.799 421.336C350.581 421.798 351.329 420.66 351 421.04C350.716 421.363 351.464 420.694 351.588 420.635C351.893 420.495 352.171 420.523 352.485 420.475C352.953 420.4 352.404 420.459 352.224 420.429C351.769 420.346 351.321 420.266 350.856 420.221C348.818 420.012 346.968 420.418 344.965 420.564C344.765 420.576 344.573 420.591 344.369 420.592C344.166 420.593 343.648 420.737 344.163 420.617C344.602 420.51 344.276 420.64 344.043 420.591C343.888 420.564 343.726 420.534 343.574 420.501C343.422 420.467 343.266 420.405 343.11 420.379C342.609 420.281 343.89 420.747 343.437 420.492C343.115 420.312 342.705 420.078 342.36 419.947C341.888 419.751 343.033 420.487 342.647 420.144C342.499 420.008 342.324 419.893 342.172 419.765C342.046 419.658 341.931 419.547 341.808 419.433C341.717 419.344 341.631 419.265 341.551 419.173C341.337 418.952 341.428 419.058 341.82 419.5C341.735 419.214 341.262 418.775 341.085 418.512C341 418.374 340.919 418.228 340.834 418.09C340.461 417.494 341.052 418.677 340.912 418.242C340.807 417.903 340.653 417.556 340.527 417.224C340.294 416.612 340.606 417.412 340.567 417.513C340.602 417.401 340.465 416.924 340.451 416.804C340.435 416.649 340.434 416.484 340.412 416.325C340.314 415.539 340.286 417.172 340.396 416.395C340.451 415.999 340.509 415.612 340.613 415.223C341.135 413.252 339.355 410.886 337.38 410.561C335.109 410.191 333.419 411.492 332.866 413.603L332.872 413.589Z" fill="#9F490D"/>
<path d="M535.724 398.251C562.884 398.548 590.605 400.745 616.233 410.566C641.861 420.388 670.652 444.265 681.225 469.163L669.976 472.377C662.744 473.511 651.518 472.66 645.539 471.316C626.619 467.035 614.489 461.674 599.183 449.637C587.24 440.25 568.683 416.374 560.066 399.18" fill="#075A2D"/>
<path d="M536.189 391.108C560.535 391.378 585.129 393.251 608.742 400.462C630.794 407.189 650.626 419.783 666.784 436.153C675.431 444.913 683.077 455.112 687.907 466.321C689.316 469.606 688.345 474.649 684.447 475.757C681.838 476.505 679.239 477.244 676.629 477.991C675.511 478.309 674.393 478.626 673.275 478.944C670.59 479.714 667.885 479.913 665.063 479.997C652.575 480.316 640.496 478.025 628.553 474.008C617.373 470.246 606.986 464.474 597.573 457.361C589.01 450.889 581.739 442.988 575.071 434.695C566.902 424.521 559.256 413.6 553.411 402.018C551.688 398.588 553.277 393.936 556.87 392.582C560.462 391.228 564.801 392.669 566.652 396.337C568.95 400.896 571.584 405.278 574.338 409.581C574.685 410.117 575.088 410.17 574.169 409.319C574.345 409.48 574.499 409.812 574.63 410.009C574.987 410.556 575.355 411.094 575.722 411.632C576.57 412.883 577.431 414.104 578.301 415.337C579.948 417.649 581.64 419.926 583.364 422.176C586.624 426.412 590.038 430.541 593.639 434.519C595.272 436.311 596.948 438.088 598.691 439.79C599.431 440.521 600.183 441.222 600.945 441.934C602.273 443.175 599.894 441.038 600.878 441.856C601.319 442.239 601.77 442.633 602.223 443.007C606.444 446.501 610.999 449.706 615.694 452.569C616.842 453.272 618.013 453.957 619.186 454.601C619.718 454.892 620.265 455.266 620.823 455.479C620.641 455.398 619.334 454.729 620.521 455.324C620.844 455.481 621.145 455.635 621.468 455.792C623.835 456.951 626.251 458.014 628.705 458.969C633.98 461.019 639.416 462.578 644.889 463.918C645.002 463.94 645.996 464.179 645.176 463.989C644.274 463.771 645.566 464.072 645.781 464.125C646.294 464.241 646.807 464.357 647.322 464.453C648.587 464.701 649.877 464.89 651.148 465.057C653.855 465.408 656.582 465.629 659.298 465.727C660.171 465.759 661.056 465.783 661.922 465.784C662.203 465.784 662.496 465.775 662.787 465.786C663.683 465.8 661.531 465.854 662.913 465.779C664.431 465.707 665.948 465.636 667.443 465.45C669.379 465.21 665.716 466.11 667.473 465.616C668.111 465.441 668.74 465.254 669.369 465.067C672.277 464.229 675.195 463.402 678.104 462.565L674.644 472C673.69 469.772 672.618 467.582 671.437 465.461C670.874 464.455 670.29 463.446 669.684 462.456C669.431 462.052 668.765 461.32 668.674 460.842C668.684 460.853 669.493 462.059 669.013 461.346C668.759 460.963 668.506 460.58 668.241 460.205C665.307 455.934 662.023 451.889 658.503 448.073C656.656 446.075 654.742 444.13 652.76 442.259C652.263 441.789 651.765 441.319 651.256 440.857C651.041 440.651 650.825 440.465 650.611 440.259C649.966 439.661 650.964 440.561 650.993 440.595C650.132 439.526 648.709 438.59 647.646 437.703C643.526 434.261 639.19 431.049 634.701 428.096C632.461 426.625 630.184 425.221 627.861 423.894C626.719 423.243 625.576 422.611 624.421 421.989C623.157 421.304 625.438 422.495 624.15 421.848C623.496 421.524 622.831 421.188 622.177 420.864C617.362 418.516 612.38 416.589 607.318 414.917C604.618 414.027 601.903 413.207 599.162 412.466C597.74 412.08 596.317 411.713 594.892 411.367C594.584 411.294 594.277 411.22 593.969 411.146C594.071 411.178 595.088 411.399 594.277 411.22C593.466 411.042 592.645 410.852 591.813 410.671C586.052 409.433 580.249 408.475 574.43 407.74C561.367 406.075 548.234 405.512 535.123 405.368C531.267 405.321 527.897 401.023 528.323 397.447C528.813 393.288 532.053 391.041 536.159 391.094L536.189 391.108Z" fill="#075A2D"/>
<path d="M486.293 358.195C502.163 336.152 519.91 314.743 542.688 299.433C565.466 284.123 601.562 274.313 628.008 279.991L624.165 291.041C620.931 297.608 613.776 306.3 609.237 310.417C594.849 323.428 583.485 330.265 564.834 335.858C550.285 340.225 520.08 341.666 501.059 338.82" fill="#075A2D"/>
<path d="M480.723 353.701C494.951 333.944 510.634 314.906 530.118 299.742C548.308 285.577 570.019 276.602 592.705 272.806C604.845 270.774 617.586 270.388 629.533 272.888C633.03 273.624 636.596 277.32 635.26 281.146C634.37 283.71 633.479 286.261 632.589 288.826C632.205 289.923 631.822 291.02 631.438 292.118C630.524 294.756 629.129 297.083 627.574 299.44C620.651 309.837 611.826 318.398 601.669 325.855C592.16 332.835 581.463 338.009 570.229 341.616C560.008 344.896 549.364 346.296 538.744 346.979C525.723 347.807 512.391 347.776 499.555 345.893C495.758 345.329 492.868 341.352 493.828 337.635C494.787 333.917 498.462 331.198 502.527 331.794C507.578 332.538 512.677 332.905 517.782 333.129C518.42 333.153 518.695 332.854 517.47 333.116C517.703 333.064 518.063 333.13 518.3 333.136C518.953 333.159 519.604 333.167 520.256 333.176C521.766 333.202 523.26 333.201 524.769 333.199C527.609 333.182 530.444 333.109 533.276 332.993C538.616 332.763 543.958 332.348 549.283 331.69C551.689 331.386 554.106 331.038 556.502 330.591C557.525 330.407 558.531 330.195 559.552 329.982C561.331 329.609 558.214 330.326 559.449 329.991C560.016 329.851 560.598 329.708 561.165 329.553C566.451 328.111 571.693 326.23 576.736 324.037C577.972 323.503 579.205 322.939 580.408 322.35C580.952 322.083 581.572 321.851 582.067 321.517C581.896 321.619 580.597 322.303 581.767 321.674C582.081 321.501 582.381 321.343 582.694 321.169C585.004 319.9 587.263 318.536 589.457 317.077C594.169 313.943 598.572 310.394 602.816 306.689C602.899 306.609 603.667 305.933 603.039 306.495C602.342 307.107 603.332 306.223 603.499 306.078C603.889 305.725 604.279 305.372 604.654 305.007C605.584 304.115 606.481 303.168 607.349 302.225C609.194 300.213 610.944 298.109 612.586 295.945C613.115 295.249 613.644 294.539 614.143 293.831C614.304 293.601 614.465 293.356 614.642 293.124C615.169 292.4 613.975 294.191 614.708 293.017C615.523 291.735 616.338 290.453 617.046 289.124C617.964 287.402 616.592 290.916 617.199 289.195C617.423 288.571 617.632 287.949 617.841 287.328C618.829 284.467 619.832 281.605 620.82 278.744L626.547 287.002C624.175 286.501 621.767 286.117 619.353 285.863C618.206 285.745 617.045 285.642 615.886 285.568C615.411 285.542 614.428 285.666 613.985 285.465C614 285.463 615.452 285.495 614.593 285.478C614.133 285.465 613.674 285.452 613.215 285.453C608.034 285.395 602.836 285.754 597.69 286.437C594.992 286.798 592.301 287.245 589.631 287.789C588.96 287.926 588.288 288.062 587.618 288.213C587.326 288.27 587.05 288.339 586.758 288.396C585.897 288.58 587.209 288.281 587.253 288.277C585.883 288.366 584.298 288.992 582.962 289.35C577.775 290.74 572.654 292.438 567.655 294.411C565.163 295.397 562.706 296.451 560.283 297.587C559.093 298.147 557.919 298.718 556.746 299.305C555.459 299.945 557.745 298.764 556.475 299.445C555.833 299.794 555.176 300.144 554.534 300.493C549.844 303.081 545.401 306.046 541.121 309.225C538.84 310.921 536.608 312.669 534.424 314.485C533.29 315.426 532.171 316.379 531.069 317.345C530.831 317.554 530.594 317.764 530.357 317.973C530.441 317.907 531.207 317.203 530.594 317.764C529.981 318.324 529.354 318.886 528.728 319.463C524.4 323.463 520.278 327.658 516.328 331.994C507.451 341.72 499.434 352.137 491.772 362.778C489.515 365.905 484.061 366.188 481.382 363.782C478.262 360.988 478.288 357.046 480.694 353.718L480.723 353.701Z" fill="#075A2D"/>
</svg>
