<svg width="993" height="908" viewBox="0 0 993 908" fill="none" xmlns="http://www.w3.org/2000/svg">
<path d="M24.2996 899.932C-13.2975 881.436 13.7878 277.982 24.2996 8.61822C38.6837 -1.03475 973.683 11.721 981.982 11.3762C990.28 11.0315 989.727 897.863 981.982 896.829C975.785 896.001 941.041 882.234 924.443 875.454C907.477 883.613 872.216 899.932 866.905 899.932C860.266 899.932 815.452 875.454 811.026 875.454C806.6 875.454 751.828 899.932 744.083 899.932C737.886 899.932 701.298 883.613 683.778 875.454C665.521 883.613 627.457 899.932 621.26 899.932C613.515 899.932 573.127 873.731 565.382 875.454C562.435 876.11 524.626 893.726 502.864 902C474.095 894.76 453.625 877.178 443.666 875.454C435.699 874.075 399.037 891.198 381.702 899.932C364.551 891.887 328.811 875.73 323.057 875.454C315.865 875.11 269.945 905.448 258.326 899.932C252.682 897.252 221.627 880.626 203.001 873.731C181.055 884.533 143.25 902 136.057 899.932C128.779 897.838 98.4356 880.396 80.178 873.731C64.6869 868.904 34.8115 905.103 24.2996 899.932Z" fill="white" stroke="#095103" stroke-width="10"/>
<ellipse cx="124" cy="72.6106" rx="20" ry="18.6106" fill="#095103"/>
<ellipse cx="883" cy="72.6106" rx="20" ry="18.6106" fill="#095103"/>
</svg>
