<svg width="2889" height="1511" viewBox="0 0 2889 1511" fill="none" xmlns="http://www.w3.org/2000/svg">
<path d="M2247 1088V1486H2373V1088H2247Z" fill="#F1F1F1" stroke="#5A8157" stroke-width="21"/>
<path d="M2472 1112V1500H2649V1112H2472Z" fill="#F1F1F1" stroke="#5A8157" stroke-width="21"/>
<path d="M664 1089V1414H768.632V1089H664Z" fill="#F1F1F1" stroke="#5A8157" stroke-width="21"/>
<path d="M382.867 1085V1410.5H560.101V1085H382.867Z" fill="#F1F1F1" stroke="#5A8157" stroke-width="21"/>
<path fill-rule="evenodd" clip-rule="evenodd" d="M11.3171 1054L2876.96 1062.5C2892.33 1039.89 2637.96 871.414 2501.14 858.999C2447.14 854.1 2203.98 857.18 1816.76 849.499C1744.54 848.067 1296.99 867.544 1244.48 866.478C826.973 857.999 618.292 841.999 535.142 866.478C326.782 927.818 65.6702 993.393 31.0691 1021C16.6555 1032.5 13.7523 1039.05 11.3171 1054Z" fill="#F1F1F1"/>
<path d="M43.9525 1124.81H2481.74H2659H2787.14C2812.94 1125.94 2861.58 1085.11 2876.96 1062.5L11.3171 1054C8.70743 1070.02 22.4383 1108.3 43.9525 1124.81Z" fill="#5A8157"/>
<path d="M4.85199 1059.48L5.88782 1053.12C5.88808 1053.12 5.88834 1053.12 5.8886 1053.12L6.64262 1048.49L6.71604 1048.49C7.82651 1042.9 9.28976 1038.08 11.9288 1033.47C15.2667 1027.64 20.2203 1022.62 27.6389 1016.7C32.6167 1012.73 41.1157 1008.44 51.9892 1003.88C63.0209 999.25 77.0124 994.137 93.3705 988.623C126.095 977.593 168.588 964.863 216.426 951.103C256.108 939.689 299.441 927.573 343.997 915.115C407.038 897.489 472.528 879.178 533.588 861.202C555.019 854.893 584.181 851.281 622.08 849.465C660.045 847.646 707.118 847.619 764.523 848.62C817.315 849.54 879.133 851.337 950.84 853.422C1034.75 855.863 1132.21 858.697 1244.59 860.979C1268.65 861.468 1376.86 857.591 1493.8 853.401C1503.5 853.054 1513.26 852.704 1523.03 852.355C1650.38 847.802 1780.56 843.28 1816.87 844C2010.44 847.84 2168 848.99 2283.94 849.792L2293.33 849.857C2403.72 850.62 2475.08 851.112 2501.63 853.522C2536.66 856.7 2578.81 869.801 2621.86 887.779C2664.99 905.789 2709.36 928.841 2748.92 952.189C2788.46 975.528 2823.32 999.243 2847.41 1018.62C2859.42 1028.29 2868.95 1037.03 2875.03 1044.22C2878.05 1047.78 2880.47 1051.25 2881.84 1054.48C2882.17 1055.25 2882.47 1056.11 2882.7 1057.02L2887.33 1057.03L2881.52 1065.58C2881.51 1065.58 2881.51 1065.59 2881.51 1065.59M4.85199 1059.48L2881.51 1065.59M4.85199 1059.48L5.51537 1059.48M4.85199 1059.48L5.51537 1059.48M2881.51 1065.59C2880.97 1066.38 2880.4 1067.19 2879.79 1068.01M2881.51 1065.59L2879.86 1068.01L2879.79 1068.01M2879.79 1068.01L2876.94 1068L2872.87 1067.99C2854.27 1091.12 2810.96 1125.85 2787.14 1124.81H2659H2481.74H43.9525C24.6142 1109.97 11.5645 1077.54 11.0179 1059.5L5.51537 1059.48M2879.79 1068.01C2871.18 1079.7 2855.68 1094.72 2839.24 1106.97C2830.4 1113.56 2821.11 1119.47 2812.26 1123.69C2803.59 1127.83 2794.78 1130.62 2787.02 1130.31H2659H2481.74H43.9525H42.085L40.6035 1129.17C28.8093 1120.12 19.5212 1105.48 13.5266 1091.37C10.5028 1084.26 8.24126 1077.11 6.90309 1070.61C6.10519 1066.74 5.60647 1062.96 5.51537 1059.48M2876.93 1057C2862.57 1020.45 2629.84 870.677 2501.14 858.999C2474.82 856.611 2403.56 856.119 2292.58 855.352C2175.87 854.546 2015.24 853.436 1816.76 849.499C1777.85 848.727 1630.02 854.024 1493.7 858.908C1376.98 863.09 1268.7 866.97 1244.48 866.478C1131.91 864.192 1034.52 861.359 950.683 858.92C723.568 852.314 595.873 848.599 535.142 866.478C474.079 884.455 408.486 902.795 345.391 920.436L345.391 920.437C193.192 962.992 55.5299 1001.48 31.0691 1021C18.5523 1030.99 14.7158 1037.24 12.328 1048.5L11.3334 1048.5L2876.93 1057ZM2876.93 1057L2876.97 1057L2876.93 1057Z" stroke="#5A8157" stroke-width="11"/>
<path d="M734.738 1001.17C714.097 1009.2 676.991 1215.1 707.707 1278.6C1525.97 1303.34 2178.37 1297.99 2157.49 1264.57C2166.7 1251.86 2193.73 1042.62 2178.37 975.102C2171.87 946.507 2020.5 952.15 1957.84 945.688C1911.56 910.48 1776.74 848.086 1607.68 880.175C1485.43 785.247 1051.72 939.672 913.504 915.605C775.283 891.539 760.54 991.147 734.738 1001.17Z" fill="#CEDECC"/>
<path d="M1688.88 1223.79C1734.75 1174.76 1757.68 1090.09 1757.68 971.092M1476.83 1001.17C1511.84 1110.14 1425.96 1169.24 1441.2 1223.79M1054.18 1223.79C1008.31 1174.76 930.334 1055.59 985.376 971.092M2022.95 1159.61C2121.24 1086.07 1919.13 1120.17 1919.13 1001.17M804.768 971.092C792.072 1011.2 770.489 1105.06 785.724 1159.61" stroke="#5A8157" stroke-width="11.6358"/>
<path d="M869.94 886.887C891.442 988.698 1623.63 1019.94 1733.72 868.748C1744.54 684.318 820.177 690.871 869.94 886.887Z" fill="#F1F1F1" stroke="#5A8157" stroke-width="11.6358"/>
<path d="M1591.19 897.418C1586.77 962.484 1397.67 958.271 1298.14 958.271C1208.45 958.271 1032.74 943.175 1047.49 882.79C1065.92 807.309 1271.11 808.48 1310.43 808.48C1348.91 808.48 1596.72 816.086 1591.19 897.418Z" fill="#F1F1F1" stroke="#5A8157" stroke-width="11.6358"/>
</svg>
