<svg width="280" height="178" viewBox="0 0 280 178" fill="none" xmlns="http://www.w3.org/2000/svg">
<path d="M17.976 139.623C19.0334 140.624 20.204 141.373 21.5761 141.851C22.8663 142.298 24.2509 142.273 25.5726 142.002L26.3215 141.687C26.6866 141.492 26.9824 141.222 27.2027 140.875C27.6055 140.353 27.9201 139.654 27.8761 138.968C27.7062 136.023 27.3537 133.084 26.8313 130.182L26.5166 129.433L26.0257 128.798C25.5348 128.307 24.8991 128.024 24.2194 127.929C22.9481 127.759 21.7712 128.351 21.0851 129.433C19.9586 131.208 18.8257 132.983 17.6991 134.758C16.8117 136.149 17.3655 138.289 18.8257 139.063C20.3802 139.887 22.1865 139.422 23.1306 137.936C24.2572 136.161 25.3901 134.387 26.5166 132.612C24.597 132.36 22.6838 132.108 20.7642 131.863C20.9341 132.807 21.0851 133.757 21.211 134.714L21.0977 133.877C21.3243 135.57 21.4816 137.269 21.5823 138.975L23.8922 135.941C23.7789 135.966 23.6593 135.985 23.546 136.004L24.3831 135.891C24.0306 135.929 23.6845 135.935 23.332 135.891L24.1691 136.004C23.7285 135.941 23.3131 135.828 22.8977 135.652L23.6467 135.966C23.2061 135.771 22.8033 135.526 22.4194 135.236L23.0551 135.727C22.8285 135.551 22.6208 135.368 22.4131 135.173C21.8152 134.607 21.0159 134.254 20.1851 134.254C19.411 134.254 18.4921 134.594 17.9572 135.173C16.8306 136.401 16.6795 138.415 17.9572 139.623H17.976Z" fill="white"/>
<path d="M29.8791 128.728C31.3519 130.578 33.3155 132.126 35.4491 133.152C35.9463 133.391 36.475 133.58 37.0351 133.58C37.7337 133.58 38.3946 133.328 38.9421 132.907C39.9806 132.107 40.333 130.861 40.0687 129.596C39.5967 127.33 39.0176 125.084 38.3505 122.862C38.1176 122.094 37.6016 121.389 36.903 120.98C36.2043 120.571 35.2351 120.42 34.4799 120.665C33.7246 120.911 32.982 121.383 32.598 122.113C32.2141 122.843 32.0316 123.718 32.2833 124.536C32.9505 126.751 33.5295 128.998 34.0015 131.27L38.6211 127.714C37.7148 127.28 36.8589 126.751 36.0596 126.135L36.6953 126.625C35.8141 125.933 35.0211 125.146 34.3225 124.272C33.8568 123.68 32.812 123.353 32.0945 123.353C31.3204 123.353 30.4015 123.693 29.8666 124.272C29.3316 124.851 28.9099 125.656 28.9477 126.5L29.061 127.337C29.212 127.872 29.4826 128.331 29.8728 128.728H29.8791Z" fill="white"/>
<path d="M42.6415 127.763C43.0443 130.363 43.894 132.975 45.1464 135.291C45.7066 136.323 46.6506 137.185 47.7835 137.525C49.4199 138.016 51.1947 137.242 52.0443 135.782C52.4409 135.108 52.6485 134.271 52.8814 133.522C53.0702 132.899 53.2527 132.27 53.4164 131.64C53.7877 130.23 54.0961 128.808 54.3416 127.373C54.4863 126.517 54.48 125.724 54.0269 124.95C53.643 124.295 52.894 123.672 52.145 123.502C51.3394 123.32 50.4331 123.358 49.722 123.817C49.0737 124.239 48.4129 124.906 48.2744 125.699C48.0541 126.989 47.7835 128.267 47.4625 129.532C47.1415 130.797 46.8268 132.024 46.3674 133.214L46.6821 132.465C46.6317 132.572 46.5877 132.654 46.5184 132.748L47.0094 132.112L46.9338 132.188L47.5695 131.697L47.4814 131.76L48.2303 131.445C48.1674 131.477 48.0982 131.502 48.0289 131.508L48.866 131.395H48.7653C49.0422 131.433 49.3254 131.47 49.6024 131.508C49.5331 131.502 49.4702 131.483 49.4073 131.451L50.1562 131.766C50.087 131.735 50.0241 131.697 49.9674 131.653L50.6031 132.144C50.4772 132.037 50.3702 131.924 50.2695 131.791L50.7604 132.427C50.3765 131.867 50.1122 131.187 49.8478 130.564L50.1625 131.313C49.4639 129.639 48.973 127.889 48.6961 126.089C48.5828 125.359 47.859 124.566 47.2485 124.207C46.5751 123.811 45.5807 123.647 44.8254 123.893C44.0702 124.138 43.3275 124.61 42.9436 125.34L42.6289 126.089C42.4779 126.649 42.4779 127.203 42.6289 127.763H42.6415Z" fill="white"/>
<path d="M62.462 133.424C63.5949 135.696 64.8977 137.88 66.3705 139.951C67.1698 141.071 67.9628 142.305 69.0138 143.198C70.5243 144.482 72.4376 145.326 74.4453 144.69C75.8677 144.237 76.6355 143.091 76.7551 141.656C77.0258 138.509 77.2964 135.363 77.567 132.209C77.63 131.448 77.1705 130.51 76.6481 129.981C76.1258 129.453 75.2069 129.025 74.4201 129.063C73.6334 129.1 72.7649 129.365 72.1922 129.981C71.6194 130.598 71.3425 131.335 71.2733 132.209C71.0026 135.356 70.732 138.503 70.4614 141.656L72.7712 138.623C72.6264 138.667 72.4943 138.698 72.3432 138.723L73.1803 138.61C73.0355 138.616 72.9034 138.61 72.7586 138.604L73.5957 138.717C73.4006 138.686 73.2243 138.635 73.0418 138.566L73.7908 138.881C73.5076 138.755 73.2558 138.598 73.0104 138.415L73.646 138.906C73.1866 138.541 72.7964 138.113 72.4313 137.654L72.9222 138.289C70.9838 135.778 69.3033 133.091 67.8872 130.252C67.1509 128.773 64.9418 128.244 63.5823 129.126C62.0718 130.101 61.669 131.851 62.4557 133.43L62.462 133.424Z" fill="white"/>
<path d="M93.3392 141.056C96.2847 142.73 99.2365 144.411 102.182 146.085C103.063 146.588 104.057 146.632 104.983 146.242C105.788 145.902 106.676 145.135 106.802 144.203C107.053 142.409 107.211 140.628 107.091 138.809C106.971 136.99 106.688 135.216 106.21 133.479C105.946 132.528 105.278 131.817 104.391 131.439C103.548 131.087 102.371 131.018 101.59 131.597C99.7777 132.944 97.9714 134.284 96.1588 135.631C95.4791 136.135 94.9441 136.663 94.7113 137.513C94.5036 138.268 94.598 139.269 95.0259 139.936C95.4539 140.603 96.1022 141.201 96.9078 141.383C97.7134 141.566 98.6637 141.56 99.3309 141.069C101.143 139.722 102.95 138.381 104.762 137.035L100.143 135.153C100.413 136.135 100.621 137.123 100.76 138.13L100.646 137.293C100.904 139.256 100.904 141.232 100.646 143.196L100.76 142.359L100.734 142.529L105.354 140.647C102.409 138.973 99.4567 137.293 96.5113 135.618C95.0826 134.807 93.0057 135.235 92.2064 136.745C91.407 138.256 91.8099 140.181 93.3329 141.05L93.3392 141.056Z" fill="white"/>
<path d="M123.614 142.219C126.717 144.227 130.028 145.851 133.477 147.191C134.389 147.544 135.491 147.191 136.221 146.631C136.988 146.04 137.479 145.152 137.46 144.158C137.397 140.702 136.535 137.367 134.981 134.289C134.225 132.791 132.06 132.313 130.676 133.163C128.869 134.264 127.334 135.819 126.314 137.681C125.521 139.123 125.911 141.181 127.441 141.986C128.97 142.792 130.902 142.395 131.746 140.86C131.985 140.426 132.256 140.016 132.558 139.62L132.067 140.256C132.532 139.67 133.049 139.154 133.634 138.688L132.998 139.179C133.275 138.972 133.558 138.777 133.854 138.594L129.549 137.467C129.751 137.864 129.933 138.26 130.109 138.67L129.795 137.921C130.437 139.45 130.877 141.049 131.11 142.691L130.997 141.854C131.097 142.622 131.16 143.39 131.173 144.164L135.157 141.13C134.685 140.948 134.219 140.759 133.753 140.564L134.502 140.879C131.821 139.74 129.241 138.374 126.793 136.794C125.408 135.9 123.255 136.467 122.488 137.921C121.663 139.488 122.141 141.269 123.614 142.226V142.219Z" fill="white"/>
<path d="M150.032 132.377C153.367 133.988 156.791 135.442 160.265 136.726C161.291 137.104 162.588 136.657 163.324 135.914C164.161 135.077 164.35 133.982 164.136 132.856C163.62 130.181 162.556 127.55 161.071 125.272C160.624 124.579 160.127 123.9 159.604 123.27C158.503 121.955 156.571 121.653 155.079 122.433C154.286 122.848 153.72 123.572 153.128 124.221C152.625 124.768 152.121 125.322 151.618 125.869C150.504 127.084 150.328 129.136 151.618 130.319C152.826 131.433 154.884 131.616 156.067 130.319C156.917 129.388 157.729 128.368 158.654 127.512L158.018 128.003C158.088 127.94 158.163 127.896 158.251 127.865L157.502 128.179L157.635 128.154L156.797 128.267L156.923 128.28L156.086 128.167L156.2 128.211L155.451 127.896L155.558 127.965L154.922 127.474C155.067 127.6 155.18 127.739 155.293 127.89L154.802 127.254C155.778 128.544 156.59 129.935 157.225 131.421L156.911 130.672C157.427 131.911 157.817 133.202 158.075 134.517L161.946 130.646C160.416 130.08 158.906 129.488 157.402 128.853L158.151 129.167C156.483 128.462 154.84 127.72 153.21 126.933C152.436 126.562 151.637 126.379 150.787 126.618C150.057 126.82 149.264 127.386 148.905 128.066C148.162 129.476 148.452 131.609 150.032 132.371V132.377Z" fill="white"/>
<path d="M169.193 115.566C173.296 117.473 177.438 119.412 181.856 120.469C183.165 120.784 184.751 120.274 185.412 119.021C186.073 117.769 185.928 116.24 184.921 115.207C184.361 114.635 183.838 114.037 183.335 113.414C183.757 113.993 182.888 112.866 183.335 113.414C183.215 113.25 183.102 113.093 182.982 112.929C182.756 112.602 182.529 112.268 182.322 111.935C181.894 111.261 181.51 110.563 181.151 109.845C180.987 109.518 180.843 109.184 180.692 108.851C180.597 108.631 180.635 108.731 180.817 109.14C180.78 109.046 180.742 108.958 180.704 108.863C180.616 108.649 180.541 108.429 180.459 108.209C180.075 107.151 179.382 106.321 178.262 106.012C177.142 105.704 176.015 106.037 175.203 106.824C174.102 107.882 173.139 109.115 172.359 110.431C171.522 111.847 171.987 113.942 173.485 114.735C174.983 115.528 176.896 115.119 177.79 113.609C177.941 113.351 178.099 113.093 178.268 112.847C178.344 112.734 178.42 112.627 178.495 112.52C178.646 112.312 178.942 112.13 178.426 112.602C178.86 112.205 179.219 111.696 179.647 111.28L174.385 109.889C175.719 113.552 177.733 116.863 180.465 119.657L183.524 114.396C181.491 113.905 179.508 113.231 177.564 112.451C177.356 112.369 177.148 112.281 176.94 112.199C176.62 112.067 176.664 112.086 177.073 112.256C176.934 112.199 176.796 112.136 176.657 112.079C176.179 111.872 175.694 111.658 175.216 111.444C174.259 111.016 173.309 110.569 172.359 110.128C171.572 109.763 170.798 109.575 169.936 109.814C169.205 110.015 168.412 110.582 168.054 111.261C167.317 112.652 167.588 114.824 169.18 115.566H169.193Z" fill="white"/>
<path d="M187.052 100.021C190.545 101.286 194.032 102.545 197.525 103.81C198.695 104.232 200.118 103.602 200.835 102.684C201.59 101.702 201.741 100.273 201.081 99.1906C200.325 97.9444 199.564 96.6919 198.809 95.4458L197.669 93.5702C197.216 92.815 196.795 92.0094 196.203 91.3548C195.265 90.3101 193.824 89.8318 192.452 90.1779C191.395 90.4423 190.608 91.2856 189.827 91.9905C188.745 92.966 187.662 93.9416 186.586 94.9171C185.359 96.0248 185.378 98.2591 186.586 99.3668C187.895 100.569 189.727 100.544 191.036 99.3668C191.741 98.7311 192.446 98.0954 193.151 97.4598C193.503 97.1451 193.855 96.8241 194.208 96.5094C194.359 96.371 194.51 96.2388 194.661 96.1003C194.856 95.9241 195.599 95.4017 194.737 95.987L193.988 96.3017L194.139 96.2451L193.302 96.3584H193.434C193.157 96.3143 192.874 96.2765 192.597 96.2388L192.723 96.264L191.974 95.9493C192.169 96.05 192.137 96.0185 191.879 95.8486C191.653 95.7164 191.483 95.5276 191.357 95.2884C191.395 95.4206 191.527 95.5591 191.596 95.6786L192.194 96.6605L193.333 98.536C194.107 99.8136 194.881 101.091 195.662 102.375L199.218 97.7556C195.725 96.4905 192.238 95.2318 188.745 93.9667C187.197 93.4066 185.233 94.5961 184.874 96.1633C184.471 97.9381 185.409 99.436 187.071 100.034L187.052 100.021Z" fill="white"/>
<path d="M202.797 90.9536C204.433 94.9061 206.655 98.4746 209.6 101.596C211.488 103.591 214.981 102.049 214.975 99.3683C214.962 95.4222 214.95 91.4697 214.931 87.5235C214.931 86.4158 214.333 85.3648 213.37 84.8046C212.338 84.2004 211.23 84.3074 210.192 84.8046C208.813 85.4655 207.435 86.1326 206.063 86.7934C204.578 87.5109 204.062 89.7515 204.936 91.0984C205.918 92.6277 207.649 92.9928 209.241 92.2249C210.62 91.5641 211.998 90.897 213.37 90.2361L208.637 87.5172C208.65 91.4634 208.662 95.4159 208.681 99.362L214.056 97.1341C213.452 96.4984 212.892 95.8375 212.338 95.1578C212.13 94.8935 212.168 94.9501 212.457 95.3152C212.376 95.2082 212.294 95.1012 212.212 94.9942C212.092 94.8306 211.973 94.6669 211.853 94.5033C211.602 94.1445 211.356 93.7858 211.117 93.4208C210.645 92.6844 210.198 91.9354 209.789 91.1613C209.588 90.7774 209.386 90.3872 209.204 89.9907C209.116 89.8081 209.034 89.6256 208.952 89.4431C208.895 89.3235 208.845 89.1977 208.788 89.0718C208.971 89.5123 209.002 89.5816 208.87 89.2669C208.543 88.4739 208.197 87.8382 207.422 87.3851C206.749 86.9885 205.755 86.8249 204.999 87.0704C204.244 87.3158 203.501 87.7879 203.118 88.5179C202.734 89.248 202.482 90.1795 202.803 90.941L202.797 90.9536Z" fill="white"/>
<path d="M217.709 82.9597C218.376 86.3835 219.043 89.8073 219.71 93.2311C219.943 94.4395 221.189 95.3332 222.328 95.4843C223.468 95.6353 224.921 95.1066 225.463 93.98C227.086 90.6003 228.282 87.0506 228.868 83.3436C229.031 82.3115 228.962 81.4492 228.307 80.5996C227.703 79.8191 226.835 79.366 225.834 79.3597C224.833 79.3534 223.82 79.3408 222.813 79.3345C221.164 79.3219 219.591 80.7947 219.666 82.4814C219.742 84.1681 221.051 85.6157 222.813 85.6283C223.82 85.6345 224.827 85.6471 225.834 85.6534L222.8 81.6695C222.36 84.4765 221.586 87.2143 220.491 89.8325L220.805 89.0835C220.56 89.6625 220.302 90.2353 220.025 90.808C221.944 91.0598 223.858 91.3115 225.777 91.557C225.11 88.1332 224.443 84.7094 223.776 81.2856C223.461 79.6681 221.435 78.5919 219.905 79.0891C218.181 79.6492 217.369 81.2226 217.709 82.9597Z" fill="white"/>
<path d="M234.936 80.8948C233.086 84.6144 231.443 88.441 230.027 92.3494C229.599 93.52 230.235 94.9487 231.154 95.6599C232.179 96.4529 233.507 96.5032 234.647 95.9053C236.195 95.0934 237.743 94.2878 239.291 93.4759C241.135 92.513 242.721 91.2165 243.017 89.0263C243.269 87.1319 242.407 85.6528 241.274 84.2304C241.117 84.029 240.953 83.8339 240.789 83.6388C240.707 83.5381 240.626 83.4374 240.544 83.3367C240.21 82.9276 241.003 83.9787 240.726 83.5696C240.588 83.3619 240.456 83.1542 240.33 82.9339C240.072 82.4997 240.575 83.7773 240.437 83.1857C240.405 83.0472 240.368 82.9151 240.342 82.7766L240.456 83.6137L240.443 83.4941C240.342 82.6318 240.16 81.9081 239.524 81.2661C238.977 80.7185 238.083 80.3094 237.296 80.3472C236.51 80.385 235.641 80.6493 235.068 81.2661C234.54 81.8388 234.055 82.6822 234.149 83.4941C234.263 84.5011 234.445 85.2626 234.93 86.1689C235.263 86.792 235.742 87.3458 236.182 87.8934C236.333 88.0759 236.484 88.2584 236.635 88.441C236.705 88.5228 236.768 88.6046 236.837 88.6864C236.163 87.8997 236.497 88.2333 236.642 88.441C236.755 88.6046 236.862 88.9193 237.007 89.0389C236.919 88.9633 236.698 88.164 236.849 88.699C236.881 88.7997 236.9 88.9067 236.912 89.0137L236.799 88.1766C236.812 88.3214 236.812 88.4661 236.799 88.6109L236.912 87.7738C236.912 87.7738 236.837 88.1137 236.83 88.1137L237.026 87.6417C236.9 87.8431 236.925 87.8179 237.101 87.5724C237.441 87.1319 237.133 87.4906 237.038 87.5913C236.856 87.7423 236.881 87.7235 237.114 87.5347C237.353 87.3521 237.372 87.3333 237.177 87.4654C236.61 87.7675 236.05 88.0822 235.477 88.3843C234.143 89.0829 232.815 89.7752 231.481 90.4738L236.1 94.0298C236.428 93.1298 236.761 92.2361 237.114 91.3487C237.29 90.9018 237.466 90.4612 237.649 90.0207C237.699 89.8948 237.756 89.7689 237.806 89.6431C237.877 89.4752 237.877 89.4752 237.806 89.6431C237.735 89.8109 237.735 89.8109 237.806 89.6431C237.856 89.5172 237.913 89.3913 237.97 89.2654C238.725 87.5158 239.53 85.785 240.38 84.0794C241.117 82.6067 240.821 80.6052 239.254 79.7745C237.831 79.0192 235.735 79.3276 234.949 80.9011L234.936 80.8948Z" fill="white"/>
<path d="M246.744 94.9675C244.623 96.2136 242.546 97.529 240.52 98.9262C239.267 99.7885 237.876 100.6 237.02 101.884C236.41 102.797 236.19 104.024 236.498 105.088C236.737 105.925 237.341 106.787 238.122 107.196C238.902 107.605 239.676 107.681 240.545 107.511C240.664 107.486 240.784 107.461 240.91 107.442L240.073 107.555C241.055 107.429 242.03 107.624 243.012 107.706C244.327 107.813 245.832 107.624 246.946 106.863C247.688 106.359 248.336 105.755 248.783 104.962C249.255 104.112 249.438 103.281 249.539 102.331C249.658 101.154 249.419 99.9332 249.142 98.794C248.752 97.1954 246.851 96.0814 245.271 96.5975C243.61 97.1388 242.66 98.7563 243.075 100.468C243.176 100.871 243.257 101.28 243.32 101.695L243.207 100.858C243.27 101.349 243.301 101.84 243.245 102.337L243.358 101.5C243.32 101.771 243.257 102.029 243.157 102.287L243.471 101.538C243.396 101.714 243.301 101.878 243.194 102.035L243.685 101.4C243.56 101.557 243.427 101.695 243.276 101.828L243.912 101.337C243.755 101.456 243.591 101.557 243.415 101.639L244.164 101.324C243.912 101.431 243.66 101.494 243.39 101.532L244.227 101.419C243.453 101.507 242.685 101.393 241.917 101.305C240.885 101.192 239.884 101.217 238.864 101.456L241.923 102.268L241.848 102.199L242.339 102.835C242.294 102.791 242.263 102.734 242.238 102.671L242.553 103.42L242.534 103.332L242.647 104.169C242.641 104.106 242.641 104.043 242.647 103.98L242.534 104.817C242.546 104.748 242.565 104.685 242.59 104.616L242.276 105.365C242.339 105.22 242.42 105.094 242.515 104.968L242.024 105.604C242.131 105.478 242.238 105.371 242.357 105.264L241.722 105.755C244.296 103.772 247.109 102.042 249.91 100.405C251.332 99.5745 251.962 97.529 251.036 96.1003C250.111 94.6716 248.248 94.08 246.732 94.9737L246.744 94.9675Z" fill="white"/>
<path d="M15.563 101.194C7.97901 105.209 2.97549 113.68 3.12025 122.259C3.18318 126.211 4.49228 130.46 7.77132 132.662C10.0811 134.211 13.0203 134.513 15.7958 134.305C18.6658 134.091 21.756 133.204 23.3609 130.812C25.6833 127.35 23.8266 122.75 22.2217 118.898C19.6791 112.799 17.8917 106.392 16.9098 99.8594" fill="#598E44"/>
<path d="M13.9781 98.4752C8.62843 101.345 4.44938 106.154 2.10182 111.724C-0.245747 117.293 -0.92547 124.141 1.6172 129.912C2.99553 133.04 5.48156 135.363 8.65989 136.584C11.8382 137.805 15.4508 137.71 18.6921 137.056C21.9334 136.401 25.1117 134.589 26.5656 131.542C28.1327 128.263 27.6796 124.638 26.5341 121.303C25.9488 119.597 25.1998 117.954 24.5516 116.274C23.8341 114.436 23.1921 112.573 22.6131 110.685C21.4425 106.865 20.5614 102.963 19.9572 99.0165C19.7054 97.3864 17.5718 96.3353 16.0865 96.8199C14.3054 97.3927 13.6194 98.9409 13.89 100.691C14.8592 107.028 16.5585 113.247 18.9753 119.182C19.504 120.478 20.0579 121.768 20.511 123.096C20.7313 123.751 20.9327 124.412 21.09 125.085C21.1278 125.236 21.3732 125.947 21.2851 126.08C21.2851 126.08 21.2285 125.475 21.2537 125.859C21.2663 126.061 21.2914 126.268 21.304 126.47C21.3229 126.791 21.3229 127.112 21.304 127.433C21.2977 127.552 21.304 127.779 21.2663 127.905C21.4928 127.212 21.3166 127.603 21.2663 127.766C21.2411 127.848 21.0837 128.673 21.0019 128.673C20.9642 128.673 21.3732 127.98 21.0271 128.578C20.9264 128.754 20.832 128.937 20.7187 129.107C20.6558 129.201 20.3348 129.585 20.6306 129.258C20.9264 128.931 20.6432 129.233 20.5928 129.283C20.4544 129.422 20.146 129.862 19.9509 129.894C20.2089 129.849 20.3788 129.598 20.0579 129.799C19.932 129.881 19.8124 129.963 19.6802 130.038C19.3907 130.215 19.0886 130.353 18.7865 130.504C18.3963 130.699 19.3278 130.322 18.9061 130.447C18.7613 130.491 18.6166 130.548 18.4718 130.598C18.1823 130.693 17.8802 130.775 17.5844 130.85C17.3201 130.913 17.0557 130.97 16.7914 131.02C16.7096 131.033 16.439 131.115 16.332 131.096C16.7473 131.045 16.8355 131.033 16.5963 131.064C16.483 131.077 16.3697 131.089 16.2564 131.102C15.6271 131.165 14.9914 131.196 14.362 131.203C14.0096 131.203 13.6571 131.196 13.311 131.177C13.1347 131.165 12.9585 131.152 12.7886 131.14C12.6187 131.127 12.027 131.152 12.7131 131.14C12.0585 131.152 11.3096 130.838 10.6991 130.642C10.6487 130.624 10.2333 130.485 10.5921 130.617C10.976 130.756 10.4725 130.561 10.3781 130.517C10.0256 130.347 9.70465 130.133 9.37109 129.938C8.87388 129.642 9.43402 129.938 9.4592 130.026C9.44032 129.969 9.18227 129.793 9.11304 129.736C8.89276 129.541 8.67878 129.327 8.47738 129.113C8.37668 129.006 8.28227 128.893 8.18157 128.78C7.96129 128.528 7.94241 128.704 8.26339 128.887C8.06828 128.773 7.89206 128.339 7.77248 128.138C7.61513 127.88 7.47667 127.615 7.33821 127.345C7.30045 127.269 7.15569 127.036 7.1431 126.935C7.19345 127.414 7.29415 127.326 7.19975 127.055C6.97317 126.438 6.77807 125.821 6.62702 125.186C6.55779 124.884 6.49485 124.582 6.4382 124.28C6.41932 124.166 6.40044 124.053 6.38156 123.933C6.28086 123.329 6.42562 124.021 6.40044 124.078C6.47597 123.883 6.33121 123.373 6.31862 123.159C6.29345 122.813 6.28086 122.473 6.28086 122.127C6.27457 121.504 6.29345 120.881 6.3438 120.258C6.36268 119.987 6.39415 119.717 6.41932 119.446C6.47597 118.854 6.43191 119.515 6.39415 119.591C6.46967 119.433 6.47597 119.075 6.50114 118.898C6.71513 117.671 7.02982 116.463 7.43891 115.286C7.5522 114.952 7.67807 114.625 7.80395 114.298C7.84171 114.197 8.04311 113.731 7.86688 114.134C7.67807 114.568 7.9487 113.951 7.98646 113.87C8.27598 113.234 8.59696 112.605 8.94311 111.994C9.28927 111.384 9.6606 110.786 10.0571 110.207C10.1893 110.012 10.5228 109.326 10.7431 109.256C10.7431 109.256 10.3781 109.71 10.611 109.433C10.7368 109.282 10.8564 109.13 10.9823 108.979C11.9075 107.878 12.927 106.852 14.0347 105.933C14.1229 105.858 14.2173 105.789 14.3054 105.713C14.9159 105.209 13.7641 106.097 14.4061 105.637C14.6893 105.436 14.9725 105.228 15.2683 105.033C15.8851 104.624 16.5208 104.247 17.1753 103.894C18.6292 103.114 19.2019 100.98 18.3019 99.5892C17.3515 98.1164 15.5515 97.6255 13.997 98.4626L13.9781 98.4752Z" fill="#598E44"/>
<path d="M17.6484 97.1664C18.6051 100.773 19.5617 104.379 20.5184 107.979C21.8212 112.882 23.1743 117.898 26.0946 122.046C27.2401 123.669 28.6688 125.18 30.5003 125.954C32.3317 126.728 34.6227 126.653 36.1332 125.356C37.8639 123.877 38.1471 121.341 38.2164 119.069C38.487 110.031 37.3038 100.955 34.7234 92.2888C34.2765 90.7846 33.5527 89.0664 32.0233 88.7202C30.8464 88.4559 29.6821 89.1419 28.6688 89.7965C26.1702 91.4077 23.6778 93.0251 21.1792 94.6363L17.6547 97.1664H17.6484Z" fill="#73B25F"/>
<path d="M14.6122 98.0043C15.6129 101.787 16.6136 105.563 17.6206 109.346C18.5584 112.858 19.578 116.332 21.1073 119.648C22.6367 122.965 24.6948 126.062 27.7095 128.032C30.9885 130.172 35.5892 130.209 38.5221 127.434C41.2662 124.841 41.3606 120.769 41.3921 117.263C41.4235 113.499 41.2033 109.73 40.7375 105.991C40.2466 102.07 39.5543 98.1868 38.5599 94.3602C37.5655 90.5336 36.376 85.7756 31.7438 85.5364C29.2766 85.4105 27.2249 86.984 25.2612 88.2553C23.4549 89.4259 21.6423 90.5903 19.836 91.7609C18.5395 92.598 17.3059 93.5546 16.0535 94.4546C14.7192 95.4113 13.9451 97.2427 14.9269 98.7595C15.7828 100.081 17.8031 100.912 19.2318 99.8861C22.5801 97.4882 26.0102 95.2539 29.4717 93.0197C29.8116 92.7994 30.1452 92.5791 30.485 92.3651C30.6487 92.2644 30.806 92.1637 30.9759 92.0693C30.957 92.0819 31.7815 91.6854 31.3661 91.849C31.0137 91.9875 31.5675 91.8113 31.6431 91.7861C32.0144 91.6476 31.4102 91.7672 31.3284 91.7861L31.1836 91.7609C31.448 91.8427 31.4542 91.8364 31.2025 91.7357C30.957 91.6224 30.9508 91.6287 31.1899 91.7546L30.8752 91.5029C30.8752 91.5029 31.1899 91.7546 31.1647 91.7924C31.1207 91.8553 30.8123 91.2196 31.0515 91.6602C31.1396 91.8175 31.2403 91.9686 31.3221 92.1322C31.3724 92.2329 31.5927 92.6672 31.3976 92.2581C31.2025 91.849 31.5487 92.6987 31.5864 92.8183C31.7123 93.2085 31.8256 93.605 31.9326 93.9952C32.8703 97.2805 33.613 100.616 34.148 103.99C34.2109 104.386 34.2738 104.783 34.3305 105.179C34.3242 105.135 34.4564 106.111 34.3997 105.657C34.3494 105.28 34.4312 105.903 34.4375 105.985C34.5445 106.834 34.6389 107.678 34.7144 108.534C34.878 110.233 34.985 111.939 35.0417 113.644C35.0983 115.35 35.1109 117.062 35.0606 118.767C35.0417 119.447 34.9913 120.127 34.941 120.8C34.9095 121.253 35.048 120.215 34.9599 120.655C34.9284 120.807 34.9095 120.958 34.878 121.109C34.8088 121.448 34.7018 121.769 34.62 122.103C34.4752 122.663 34.6829 122.046 34.6955 121.977C34.6704 122.134 34.5256 122.33 34.4438 122.474C34.3745 122.6 34.2864 122.72 34.2109 122.852C34.0095 123.211 34.6074 122.468 34.2927 122.739C34.1857 122.833 34.0724 122.946 33.9717 123.053C33.6948 123.362 34.4375 122.802 34.0662 122.978C33.934 123.041 33.7955 123.123 33.6759 123.204C33.3738 123.4 34.2487 123.047 33.6948 123.186C33.5501 123.223 33.399 123.255 33.2543 123.299C32.5682 123.507 33.7389 123.311 33.2983 123.299C32.9962 123.286 32.6815 123.299 32.3794 123.286C31.9389 123.274 32.9522 123.431 32.5305 123.299C32.3857 123.255 32.2284 123.23 32.0773 123.192C31.9263 123.154 31.7878 123.091 31.6368 123.053C31.3032 122.959 32.134 123.324 31.6179 123.034C31.2969 122.852 30.9885 122.644 30.6675 122.462C30.2836 122.241 31.0452 122.802 30.7116 122.506C30.5857 122.393 30.4598 122.292 30.334 122.179C29.8053 121.7 29.3458 121.172 28.8927 120.624C29.3584 121.197 28.6598 120.284 28.5591 120.127C28.3577 119.831 28.1626 119.523 27.9738 119.214C27.5773 118.56 27.206 117.886 26.8724 117.2C26.671 116.797 26.4885 116.388 26.2997 115.973C26.2556 115.866 26.0542 115.425 26.2997 115.973C26.199 115.721 26.0983 115.469 25.9976 115.218C25.6892 114.412 25.406 113.6 25.1416 112.782C24.613 111.139 24.1535 109.471 23.7067 107.797C22.6871 103.977 21.6738 100.15 20.6605 96.3239C20.2388 94.7315 18.3947 93.605 16.7898 94.1273C15.1849 94.6497 14.1402 96.2924 14.5933 97.998L14.6122 98.0043Z" fill="#73B25F"/>
<path d="M43.6319 85.022C40.2018 85.8716 37.9801 89.1884 38.4962 92.6877L42.0333 116.384C42.4298 119.052 42.8514 121.784 44.6137 123.974C45.2305 124.742 46.0109 125.377 46.9172 125.761C50.9641 127.48 54.5074 123.791 55.8858 120.066C57.2956 116.239 57.4152 112.06 57.1823 107.988C56.7921 101.159 55.4641 94.3808 53.2487 87.9108C52.7578 86.4695 52.0969 84.9024 50.7123 84.2604C50.2592 84.0527 49.7683 83.9646 49.2711 83.9269C48.6102 83.8765 47.9431 83.9583 47.2948 84.122L43.6382 85.0283L43.6319 85.022Z" fill="#598E44"/>
<path d="M42.8031 81.9896C40.2667 82.6631 38.0639 84.2932 36.7045 86.54C35.345 88.7869 35.1248 91.0967 35.4772 93.5387C35.666 94.8792 35.8737 96.2135 36.0751 97.5478C36.8744 102.897 37.6737 108.247 38.473 113.603C38.6555 114.811 38.8318 116.014 39.0143 117.222C39.3919 119.746 39.8702 122.27 41.1793 124.498C42.7905 127.242 45.415 129.079 48.6185 129.325C51.2556 129.526 53.8612 128.129 55.6549 126.285C57.5431 124.34 58.7452 121.879 59.4564 119.286C60.9228 113.918 60.5515 108.121 59.8529 102.665C59.4689 99.6813 58.9654 96.717 58.2542 93.7904C57.6312 91.2037 56.9389 88.5666 55.9382 86.0995C55.3906 84.7526 54.7486 83.4246 53.6158 82.4617C52.2374 81.2847 50.5318 80.7246 48.7192 80.7812C47.1395 80.8316 45.5724 81.3225 44.043 81.7001L42.8157 82.0022C41.2171 82.3987 40.1031 84.2869 40.6192 85.8729C41.1353 87.4589 42.7779 88.4911 44.4898 88.0694C45.478 87.8239 46.4724 87.5785 47.4605 87.333C47.6493 87.289 47.8381 87.2386 48.0269 87.1946C48.0647 87.1883 48.1024 87.1757 48.1465 87.1631C48.3731 87.1127 49.0025 87.0624 48.4423 87.0876C48.5682 87.0876 49.2227 86.9869 49.2983 87.0876C49.3108 87.1002 48.7004 86.9491 49.078 87.0561C49.1976 87.0876 49.3171 87.1127 49.4367 87.1379C49.9906 87.2638 49.1157 86.9113 49.5437 87.2134C49.0465 86.8673 49.4241 87.1568 49.6507 87.3834C49.9465 87.6729 49.3864 86.9113 49.5626 87.289C49.6067 87.3897 49.6885 87.4841 49.7388 87.5848C49.7703 87.6351 50.0724 88.1953 50.0535 88.2079C50.0409 88.2142 49.8395 87.6477 49.9654 87.9939C50.0032 88.1009 50.0472 88.2142 50.0913 88.3211C50.1983 88.6044 50.2927 88.8939 50.3871 89.1771C50.7962 90.3981 51.1738 91.6317 51.5199 92.8715C52.2123 95.3513 52.7787 97.875 53.213 100.411C53.3137 100.997 53.4081 101.582 53.4962 102.174C53.5151 102.318 53.5402 102.469 53.5591 102.614C53.5591 102.646 53.6284 103.137 53.5843 102.784C53.5339 102.4 53.6095 103.017 53.6221 103.105C53.6472 103.3 53.6724 103.502 53.6913 103.697C53.836 104.974 53.9556 106.258 54.0311 107.549C54.1822 109.978 54.2011 112.407 53.9556 114.83C53.9556 114.874 53.8927 115.346 53.943 114.975C53.9934 114.604 53.9242 115.076 53.9179 115.12C53.8675 115.447 53.8109 115.774 53.7479 116.095C53.6284 116.7 53.4836 117.298 53.32 117.883C53.2444 118.153 53.1563 118.424 53.0682 118.695C53.0242 118.827 52.7283 119.695 52.8731 119.274C53.0179 118.852 52.7598 119.519 52.7032 119.626C52.5836 119.872 52.4577 120.105 52.3193 120.344C52.2248 120.507 51.7276 121.502 51.5514 121.508C51.5388 121.508 52.0549 120.929 51.6081 121.414C51.5325 121.495 51.457 121.584 51.3752 121.672C51.1927 121.867 51.0102 122.056 50.8088 122.232C50.7269 122.307 50.6388 122.377 50.557 122.452C50.3053 122.691 50.7269 122.301 50.7584 122.301C50.664 122.288 50.3053 122.603 50.2109 122.666C50.0661 122.754 49.7451 122.842 49.6381 122.968C49.8521 122.704 50.1542 122.786 49.7955 122.886C49.657 122.924 49.5248 122.974 49.3864 123.006C49.2857 123.031 49.1787 123.044 49.078 123.075C48.7507 123.163 49.3675 123.025 49.3864 123.031C49.2731 122.968 48.8766 123.037 48.7381 123.037C48.1654 123.037 49.2542 123.188 48.6878 123.025C48.5745 122.993 48.4612 122.968 48.3479 122.93C48.2724 122.912 48.1969 122.886 48.1213 122.855C47.9073 122.779 47.9703 122.805 48.3101 122.937C48.2157 122.981 47.7626 122.628 47.6745 122.572C47.1836 122.276 47.9451 122.867 47.5423 122.458C47.3661 122.282 47.1961 122.112 47.0325 121.93C46.9947 121.886 46.7556 121.565 46.9633 121.854C47.171 122.144 46.8689 121.697 46.8374 121.646C46.6738 121.395 46.529 121.137 46.3906 120.879C46.271 120.639 46.0947 120.199 46.2898 120.715C46.101 120.205 45.9248 119.689 45.7801 119.16C45.4968 118.097 45.3206 117.014 45.157 115.925C44.9933 114.837 44.8234 113.71 44.6598 112.602C43.9297 107.693 43.1933 102.79 42.4633 97.8813L41.6702 92.5505C41.6451 92.368 41.6136 92.1792 41.5884 91.9967C41.5884 91.9589 41.5821 91.9149 41.5695 91.8771C41.5695 91.8708 41.5695 91.8582 41.5695 91.8519C41.5695 91.8456 41.6514 92.4624 41.6514 92.4624C41.6514 92.3177 41.6199 92.1666 41.6136 92.0156C41.601 91.7575 41.601 91.5058 41.6136 91.2477C41.6136 91.1533 41.6577 91.0149 41.6388 90.9205C41.6388 90.9393 41.5192 91.5561 41.6073 91.2226C41.664 91.0149 41.6954 90.8072 41.7584 90.5995C41.7898 90.4988 41.8213 90.3981 41.8528 90.2974C41.9723 89.8946 41.8779 90.3288 41.7709 90.4547C42.0416 90.1463 42.2241 89.624 42.4507 89.2652C42.6332 88.982 42.2996 89.4792 42.2807 89.4855C42.3374 89.4666 42.4507 89.2967 42.4884 89.2463C42.6584 89.0638 42.8346 88.9002 43.0171 88.7302C43.4325 88.34 42.564 88.9946 43.0549 88.7051C43.2689 88.5729 43.4766 88.4344 43.7031 88.3211C43.7535 88.296 43.9675 88.2204 43.9926 88.1764C43.9801 88.2016 43.4199 88.3841 43.7472 88.2834C43.9989 88.2079 44.2381 88.1197 44.4898 88.0505C46.0822 87.6288 47.2087 85.7848 46.6864 84.1799C46.164 82.575 44.5213 81.5302 42.8157 81.9833L42.8031 81.9896Z" fill="#598E44"/>
<path d="M61.8651 85.3192C57.6294 86.2759 55.6469 92.4689 56.8301 96.648C58.2588 101.689 57.365 105.478 56.8301 110.689C56.3643 115.284 56.1692 120.161 58.265 124.277C59.3602 126.43 61.028 128.236 62.784 129.898C64.7035 131.71 66.8623 133.435 69.4427 134.026C72.0232 134.618 75.0882 133.781 76.3784 131.471C76.9449 130.452 77.1211 129.262 77.2533 128.104C78.4113 118.342 77.8323 108.379 75.5477 98.8193C74.8742 96.0123 74.0372 93.199 72.4637 90.7822C70.8903 88.3654 68.4672 86.3766 65.6224 85.892L61.8588 85.3066L61.8651 85.3192Z" fill="#73B25F"/>
<path d="M61.0331 82.2846C57.0933 83.2538 54.5128 87.0363 53.7135 90.8378C53.2855 92.8706 53.2352 94.9161 53.6695 96.9553C53.8709 97.8867 54.1352 98.7993 54.3051 99.7371C54.4751 100.675 54.2611 99.0888 54.3366 99.9763C54.3618 100.241 54.387 100.505 54.4058 100.769C54.4499 101.373 54.4625 101.978 54.4562 102.582C54.3995 107.132 53.3359 111.607 53.3925 116.17C53.424 118.505 53.6821 120.909 54.4184 123.131C55.2492 125.648 56.6023 127.813 58.3268 129.809C61.3982 133.365 65.4576 136.858 70.3038 137.323C72.3619 137.518 74.6843 137.028 76.415 135.869C78.6619 134.365 79.8514 132.131 80.2353 129.488C81.6955 119.355 81.0724 108.844 78.8004 98.8749C77.5857 93.5378 75.7038 88.2573 71.122 84.9091C69.5863 83.7888 67.7926 83.0776 65.9171 82.7818C64.8471 82.6181 63.7835 82.4482 62.7136 82.2846C61.0961 82.0328 59.252 82.6937 58.8429 84.4811C58.5031 85.9853 59.3024 88.0811 61.0394 88.3517C61.8891 88.4839 62.745 88.6161 63.5947 88.7482C63.9723 88.8049 64.3562 88.8615 64.7339 88.9245C64.9164 88.9559 65.0926 88.9874 65.2751 89.0315C65.508 89.0881 65.7346 89.151 65.9611 89.2203C66.1122 89.2706 66.2632 89.321 66.408 89.3776C66.0618 89.2266 65.9926 89.1951 66.2003 89.2958C66.5905 89.5035 66.9807 89.6923 67.3458 89.9315C67.5346 90.051 67.7737 90.1832 67.9374 90.3405C67.459 89.8748 67.7549 90.1958 67.8681 90.2965C68.2206 90.6238 68.5856 90.9447 68.9129 91.3035C69.0514 91.4545 69.1835 91.6056 69.3094 91.7566C69.8255 92.3734 69.1458 91.4608 69.4793 91.9832C70.0269 92.8329 70.5052 93.6699 70.9521 94.5762C71.3549 95.3881 70.7507 93.9972 71.0717 94.8469C71.1346 95.0231 71.2038 95.193 71.2731 95.3692C71.4996 95.9797 71.701 96.6028 71.8835 97.2259C72.4877 99.2777 72.9472 101.38 73.3437 103.488C73.5514 104.571 73.7339 105.66 73.8975 106.748C73.9416 107.044 73.9857 107.346 74.0234 107.642C73.9416 107.05 74.0297 107.705 74.0486 107.85C74.1304 108.498 74.2059 109.146 74.2689 109.794C74.722 114.282 74.8164 118.813 74.5458 123.313C74.4766 124.415 74.3885 125.516 74.2815 126.611C74.2311 127.109 74.1745 127.606 74.1178 128.109C74.0234 128.997 74.2626 127.467 74.0801 128.342C74.0171 128.651 73.9668 128.959 73.885 129.267C73.8283 129.481 73.7654 129.695 73.6836 129.909C73.9227 129.261 73.6143 129.947 73.5577 130.073C73.2808 130.677 74.0234 129.651 73.5451 130.111C73.4507 130.205 73.3374 130.312 73.2556 130.406C72.8024 130.916 73.8283 130.086 73.2367 130.432C73.0542 130.539 72.8717 130.646 72.6954 130.753C72.1668 131.074 72.878 130.69 72.8654 130.696C72.7836 130.828 72.1982 130.923 72.0472 130.96C71.9654 130.979 71.4745 131.143 71.4115 131.093C71.5563 131.206 72.0912 131.03 71.4933 131.061C71.336 131.067 70.3793 131.162 70.2975 131.03L70.7066 131.086C70.5682 131.061 70.4234 131.036 70.2849 131.004C70.1213 130.967 69.9514 130.923 69.794 130.879C69.5486 130.809 69.3157 130.721 69.0702 130.633C69.8066 130.885 68.8185 130.507 68.6674 130.432C68.2898 130.237 67.9248 130.016 67.5723 129.783C67.3583 129.645 67.1507 129.494 66.9367 129.349C66.4583 129.016 66.8674 129.305 66.9556 129.374C66.1374 128.732 65.3695 128.034 64.6269 127.31C63.8842 126.586 63.2297 125.913 62.594 125.158C62.5373 125.088 61.9898 124.383 62.4178 124.956C62.3108 124.811 62.2038 124.667 62.1031 124.522C61.7443 124.012 61.4108 123.483 61.115 122.93C61.0331 122.772 60.9513 122.609 60.8695 122.451C60.8254 122.357 60.4982 121.539 60.7562 122.212C60.5674 121.709 60.3912 121.205 60.2527 120.683C60.1331 120.248 60.0324 119.814 59.9506 119.374C59.9003 119.109 59.8625 118.845 59.8184 118.574C59.9443 119.323 59.8122 118.436 59.7996 118.335C59.3968 114.188 60.0954 110.046 60.5296 105.93C60.7877 103.463 60.8129 101.052 60.4541 98.5916C60.3031 97.5217 60.0261 96.4958 59.7807 95.4511C59.7366 95.2685 59.7052 95.086 59.6737 94.9035C59.5604 94.356 59.7366 95.6965 59.6737 94.7965C59.6485 94.4063 59.6422 94.0161 59.6548 93.6322C59.6611 93.4371 59.6737 93.2357 59.6926 93.0406C59.6989 92.9399 59.7115 92.8455 59.724 92.7448C59.7555 92.4993 59.7366 92.6126 59.68 93.0909C59.8751 92.8203 59.8814 92.065 59.9758 91.7252C60.0513 91.4545 60.4038 90.8503 60.3597 90.5986L60.1961 90.9888C60.2464 90.8692 60.3031 90.7496 60.3597 90.6364C60.4478 90.4664 60.5359 90.2902 60.6303 90.1266C60.7247 89.9629 60.8254 89.7993 60.9261 89.6419C60.9954 89.535 61.0646 89.4343 61.1401 89.3336C60.8506 89.6986 60.7814 89.7867 60.9324 89.6042C61.2094 89.3273 61.4674 89.0252 61.7506 88.7545C62.2164 88.3077 61.1275 89.1384 61.6814 88.8112C61.8324 88.7231 61.9772 88.6224 62.1345 88.5342C62.5436 88.314 62.5688 88.5342 62.0276 88.5531C62.229 88.5468 62.5059 88.3958 62.7136 88.3454C64.3122 87.9552 65.4262 86.0608 64.9101 84.4748C64.394 82.8888 62.7513 81.8566 61.0394 82.2783L61.0331 82.2846Z" fill="#73B25F"/>
<path d="M85.7866 89.5766C82.4698 89.6018 79.7446 92.5095 78.8132 95.6941C77.8817 98.8787 78.3411 102.277 78.8132 105.556C80.1726 115.066 81.7649 125.124 87.9769 132.45C90.7524 135.722 95.0699 138.41 99.1671 137.145C101.792 136.333 103.743 134.01 104.712 131.436C105.681 128.862 105.776 126.055 105.687 123.311C105.48 116.734 104.234 110.195 102.024 103.996C99.8469 97.9095 96.1776 91.6598 90.0412 89.6143C88.1279 88.9787 86.0321 88.7962 84.081 89.2997" fill="#598E44"/>
<path d="M85.7879 86.4301C80.8411 86.5623 76.9326 90.5147 75.6991 95.1343C74.4655 99.7539 75.5543 105.123 76.297 109.944C77.625 118.534 79.7271 127.157 85.2656 134.08C88.1103 137.636 92.5222 140.751 97.2677 140.6C102.309 140.443 106.041 136.786 107.747 132.267C109.452 127.748 108.98 122.405 108.414 117.723C107.81 112.757 106.752 107.867 105.059 103.153C103.499 98.7847 101.378 94.4924 98.1048 91.1441C94.2719 87.2231 88.7208 84.9448 83.2516 86.2539C81.6467 86.6378 80.5453 88.5448 81.0551 90.1245C81.5963 91.7924 83.2075 92.7364 84.9257 92.321C85.2026 92.2518 85.4858 92.1889 85.7691 92.1448C85.0516 92.2518 85.983 92.1511 86.0775 92.1448C86.5558 92.1259 87.0341 92.1511 87.5124 92.1952C86.7949 92.1322 87.7264 92.2392 87.8145 92.2581C88.0033 92.2959 88.1921 92.3399 88.3747 92.3903C88.6516 92.4595 88.9285 92.5413 89.2054 92.6357C89.3691 92.6924 90.3635 92.9945 89.5201 92.7301C90.2124 92.9504 90.8985 93.4036 91.5089 93.7938C91.6978 93.9134 91.8866 94.0392 92.0691 94.1714C92.1069 94.1966 92.6733 94.656 92.2894 94.3287C91.9055 94.0015 92.4656 94.4798 92.4971 94.5113C92.7236 94.7064 92.9502 94.9078 93.1705 95.1155C93.7243 95.6378 94.2404 96.198 94.725 96.7833C94.8195 96.8966 95.3418 97.4756 94.8069 96.8714C94.9579 97.0413 95.0838 97.249 95.216 97.4316C95.4866 97.8092 95.7446 98.1994 95.9964 98.5959C96.909 100.043 97.7586 101.592 98.3754 103.19C98.0733 102.41 98.5076 103.53 98.5894 103.738C98.7656 104.191 98.9293 104.644 99.0929 105.104C99.4516 106.123 99.7852 107.149 100.087 108.188C100.698 110.258 101.208 112.36 101.604 114.488C101.711 115.067 101.812 115.646 101.906 116.231C101.938 116.426 101.969 116.621 101.994 116.816C102.007 116.886 102.139 117.855 102.045 117.15C102.196 118.32 102.315 119.491 102.403 120.668C102.561 122.776 102.655 124.91 102.485 127.018C102.473 127.207 102.447 127.396 102.435 127.585C102.359 128.504 102.573 126.968 102.397 127.874C102.309 128.34 102.221 128.8 102.108 129.259C101.982 129.75 101.862 130.386 101.598 130.82C101.95 130.235 101.724 130.543 101.642 130.7C101.497 130.971 101.371 131.248 101.214 131.518C101.189 131.562 100.61 132.5 100.585 132.481L100.799 132.211C100.704 132.33 100.603 132.444 100.503 132.563C100.352 132.733 100.194 132.897 100.031 133.06C99.9237 133.167 99.8041 133.268 99.6971 133.369C99.1433 133.885 100.257 133.035 99.6216 133.438C99.3321 133.621 98.8034 134.086 98.4446 134.111L98.7782 133.973C98.6335 134.03 98.495 134.08 98.3502 134.124C98.1551 134.187 97.96 134.237 97.7586 134.281L97.639 134.307C97.2803 134.37 97.3244 134.363 97.7649 134.3C97.6139 134.382 97.2237 134.332 97.0537 134.332C96.8964 134.332 96.739 134.313 96.5817 134.319C95.8013 134.332 97.2363 134.483 96.4747 134.319C96.0027 134.212 95.5369 134.111 95.0775 133.948C94.9327 133.897 94.1712 133.715 94.9202 133.904C94.6999 133.847 94.4544 133.683 94.253 133.576C93.8817 133.381 93.523 133.167 93.1705 132.941C92.9565 132.802 92.7551 132.651 92.5474 132.507C92.4278 132.425 92.1132 132.129 92.5789 132.532C92.1635 132.167 91.7418 131.821 91.3453 131.43C90.7159 130.814 90.1369 130.146 89.5957 129.448C90.0614 130.039 89.5453 129.372 89.4761 129.278C89.3754 129.139 89.281 129.007 89.1866 128.869C88.853 128.39 88.532 127.893 88.2236 127.396C87.7894 126.685 87.3865 125.948 87.0089 125.2C86.7824 124.753 86.5684 124.3 86.3607 123.84C86.2914 123.689 86.2285 123.532 86.1593 123.381C86.4865 124.111 86.046 123.104 85.9956 122.965C84.6173 119.472 83.7362 115.797 83.0502 112.109C82.66 109.994 82.339 107.873 82.0306 105.746C81.955 105.217 81.8795 104.682 81.804 104.153C81.6655 103.19 81.8795 104.789 81.7599 103.826C81.7222 103.536 81.6844 103.241 81.653 102.945C81.5145 101.686 81.4264 100.408 81.4704 99.1435C81.4767 98.9043 81.4956 98.6588 81.5145 98.4197C81.5271 98.2749 81.5397 98.1302 81.5523 97.9854C81.4956 98.3442 81.5019 98.3316 81.5585 97.9602C81.6655 97.4064 81.7788 96.8651 81.9488 96.3302C82.0117 96.135 82.0683 95.8644 82.1816 95.6882C81.7411 96.3742 82.2068 95.6819 82.3012 95.5057C82.5215 95.0903 82.7669 94.5805 83.1005 94.2469C83.0376 94.3099 82.6537 94.7567 83.0376 94.3476C83.2453 94.1273 83.4467 93.9008 83.667 93.6931C83.6984 93.6679 84.246 93.1581 83.8621 93.5043C83.5096 93.819 84.183 93.2966 84.2711 93.2399C84.46 93.1266 84.6551 93.0259 84.8502 92.9252C85.467 92.598 84.2397 93.0763 84.9131 92.9127C85.1271 92.8623 85.3411 92.7994 85.5488 92.7427C85.8949 92.6798 85.8383 92.6861 85.3725 92.7616C85.5236 92.749 85.6684 92.7427 85.8194 92.7427C87.4621 92.6987 89.0418 91.3266 88.9663 89.5959C88.8908 87.8651 87.5817 86.3986 85.8194 86.449L85.7879 86.4301Z" fill="#598E44"/>
<path d="M116.956 87.3616C110.813 86.2098 105.061 91.8742 103.827 98.0043C102.594 104.134 104.627 110.397 106.767 116.269C108.491 120.995 110.323 125.747 113.199 129.869C116.075 133.992 120.128 137.498 124.993 138.763C127.813 139.499 131.237 139.266 133.062 136.988C134.081 135.71 134.409 134.023 134.597 132.406C135.56 123.985 133.546 115.413 129.965 107.734C126.384 100.056 121.299 93.1707 115.886 86.6504" fill="#73B25F"/>
<path d="M117.789 84.3287C113.138 83.5168 108.676 85.2098 105.416 88.5895C102.156 91.9693 100.431 96.5637 100.305 101.322C100.167 106.514 101.74 111.593 103.477 116.42C105.215 121.248 106.939 125.905 109.614 130.16C112.056 134.043 115.284 137.561 119.312 139.827C123.34 142.093 128.451 143.282 132.825 141.155C137.753 138.757 138.043 132.356 137.973 127.586C137.904 122.815 136.966 117.61 135.387 112.89C132.196 103.348 126.575 94.9777 120.338 87.1734C119.602 86.2545 118.859 85.342 118.104 84.4357C117.047 83.1643 114.731 83.265 113.654 84.4357C112.415 85.7888 112.528 87.5259 113.654 88.8853C114.378 89.7539 115.089 90.6287 115.801 91.5161C116.096 91.8812 116.386 92.2525 116.682 92.6238C116.858 92.8441 117.028 93.0707 117.204 93.291C116.801 92.7749 117.506 93.6875 117.575 93.7756C118.891 95.5001 120.156 97.256 121.371 99.056C123.787 102.65 125.965 106.413 127.721 110.372C127.834 110.636 127.954 110.895 128.061 111.159C127.796 110.53 128.155 111.404 128.18 111.467C128.394 112.002 128.602 112.537 128.797 113.072C129.194 114.148 129.552 115.237 129.88 116.339C130.503 118.441 130.987 120.581 131.315 122.752C131.327 122.84 131.447 123.778 131.359 123.048C131.39 123.281 131.415 123.52 131.441 123.753C131.497 124.269 131.541 124.791 131.579 125.313C131.661 126.446 131.692 127.586 131.673 128.725C131.661 129.769 131.598 130.814 131.497 131.853C131.472 132.123 131.453 132.407 131.409 132.677C131.548 131.878 131.39 132.746 131.365 132.872C131.271 133.388 131.126 133.879 130.981 134.376C130.767 135.119 131.315 133.917 130.893 134.565C130.761 134.767 130.666 135.05 130.49 135.214C131.05 134.685 130.49 135.157 130.389 135.258L130.232 135.402C129.974 135.623 130.018 135.585 130.371 135.302C130.377 135.383 129.534 135.824 129.452 135.811L129.81 135.654C129.678 135.704 129.54 135.749 129.401 135.786C129.301 135.818 128.621 136.051 128.558 135.981C128.583 136.007 129.244 135.925 128.74 135.956C128.52 135.969 128.3 135.988 128.073 135.994C127.62 136.007 127.18 135.975 126.733 135.937C125.965 135.881 127.431 136.095 126.682 135.925C126.538 135.893 126.393 135.868 126.248 135.837C125.707 135.717 125.166 135.56 124.643 135.377C124.41 135.295 124.184 135.207 123.951 135.125C123.208 134.855 124.354 135.333 123.913 135.107C123.51 134.905 123.101 134.723 122.705 134.509C121.836 134.037 121.018 133.495 120.225 132.904C120.842 133.363 120.181 132.86 120.087 132.784C119.898 132.627 119.709 132.463 119.52 132.3C119.212 132.023 118.91 131.739 118.614 131.45C117.903 130.751 117.248 130.002 116.612 129.234C116.077 128.593 116.99 129.763 116.493 129.09C116.348 128.888 116.197 128.693 116.052 128.492C115.731 128.039 115.423 127.573 115.121 127.107C114.51 126.151 113.95 125.156 113.434 124.149C112.956 123.224 112.509 122.28 112.087 121.323C111.974 121.065 111.861 120.801 111.747 120.537C111.798 120.656 111.968 121.065 111.735 120.499C111.483 119.882 111.238 119.265 110.992 118.642C109.381 114.482 107.763 110.227 106.945 105.822C106.895 105.532 106.851 105.243 106.801 104.96C106.744 104.582 106.744 104.576 106.788 104.928C106.763 104.733 106.744 104.544 106.719 104.349C106.662 103.77 106.618 103.197 106.599 102.618C106.574 101.945 106.587 101.271 106.624 100.598C106.643 100.308 106.675 100.019 106.694 99.7357C106.756 98.9805 106.605 100.101 106.738 99.4211C106.851 98.8546 106.952 98.3008 107.115 97.7469C107.228 97.3567 107.323 96.784 107.562 96.4504C107.128 97.0609 107.518 96.5637 107.612 96.3623C107.745 96.0854 107.883 95.8084 108.034 95.5441C108.254 95.1413 108.5 94.7448 108.758 94.3672C108.877 94.191 109.003 93.9581 109.161 93.807C108.563 94.3986 109.274 93.6875 109.394 93.5553C109.696 93.2154 110.01 92.8819 110.344 92.5735C110.508 92.4161 110.677 92.2714 110.847 92.1203C110.961 92.0259 111.08 91.9252 111.194 91.8371C110.854 92.1014 110.816 92.1266 111.093 91.9252C111.496 91.6609 111.886 91.3965 112.314 91.1637C112.477 91.0756 112.641 91 112.798 90.9119C113.113 90.7672 113.063 90.786 112.647 90.9623C112.78 90.9056 112.918 90.8553 113.05 90.8049C113.491 90.6476 113.944 90.5217 114.403 90.4273C114.97 90.314 114.454 90.2511 114.315 90.4273C114.397 90.3266 115.045 90.3707 115.184 90.3707C115.404 90.3707 115.624 90.3707 115.838 90.3832C115.983 90.3895 116.134 90.4021 116.279 90.421C115.813 90.3518 115.757 90.3455 116.109 90.4084C117.726 90.6916 119.577 89.9742 119.98 88.2119C120.326 86.6825 119.514 84.6434 117.783 84.3413L117.789 84.3287Z" fill="#73B25F"/>
<path d="M134.992 76.4746C129.56 76.632 124.972 80.5529 121.605 84.8201C120.101 86.7271 118.678 88.9173 118.703 91.3404C118.722 93.1971 119.591 94.9279 120.491 96.5516C126.98 108.308 136.08 118.611 146.943 126.51C149.455 128.335 152.954 130.041 155.453 128.197C156.623 127.334 157.209 125.88 157.504 124.452C158.625 119.115 156.504 113.664 154.2 108.724C151.003 101.857 147.359 95.1985 143.306 88.804C140.511 84.3984 137.251 79.8921 132.405 77.9599" fill="#598E44"/>
<path d="M134.994 73.3273C129.959 73.5224 125.554 76.1217 122.042 79.6022C118.347 83.2588 114.647 88.0484 115.836 93.5491C116.377 96.0477 117.863 98.3701 119.153 100.541C120.336 102.543 121.601 104.5 122.935 106.401C125.73 110.391 128.814 114.193 132.168 117.723C135.523 121.254 138.833 124.218 142.509 127.07C144.63 128.712 146.694 130.305 149.187 131.337C151.679 132.369 154.668 132.533 156.941 130.978C161.812 127.655 161.447 120.348 160.1 115.319C158.753 110.29 156.16 105.331 153.737 100.642C151.314 95.9533 148.752 91.4973 145.964 87.1043C143.428 83.1141 140.577 79.1931 136.568 76.5749C135.523 75.8951 134.403 75.3916 133.251 74.9196C131.722 74.2965 129.726 75.593 129.38 77.1161C128.965 78.9476 129.94 80.3196 131.577 80.9868C130.84 80.6847 131.589 80.9994 131.715 81.0623C131.936 81.1693 132.149 81.2763 132.357 81.3959C132.779 81.6287 133.188 81.8805 133.591 82.1448C133.773 82.2707 134.031 82.4029 134.182 82.5602C133.673 82.0127 134.176 82.5602 134.302 82.6609C134.736 83.0197 135.158 83.4036 135.561 83.7938C136.203 84.4232 136.807 85.0903 137.38 85.7763C137.537 85.9651 137.688 86.1602 137.845 86.349C138.368 86.9973 137.468 85.8204 137.959 86.4938C138.298 86.9595 138.645 87.4253 138.972 87.9036C141.596 91.6987 143.931 95.7267 146.153 99.7736C148.419 103.896 150.559 108.1 152.441 112.405C152.824 113.286 152.22 111.832 152.573 112.726C152.68 112.997 152.793 113.267 152.894 113.538C153.101 114.079 153.303 114.627 153.485 115.181C153.85 116.276 154.165 117.383 154.392 118.516C154.448 118.793 154.492 119.076 154.543 119.36C154.706 120.272 154.511 118.724 154.574 119.649C154.612 120.216 154.662 120.776 154.662 121.342C154.662 121.909 154.631 122.469 154.574 123.035C154.643 122.305 154.536 123.23 154.517 123.325C154.454 123.658 154.379 123.992 154.285 124.319C154.228 124.514 154.178 124.854 154.052 125.018C154.096 124.955 154.373 124.414 154.077 124.936C153.995 125.081 153.857 125.471 153.712 125.559L153.913 125.301C153.813 125.421 153.699 125.54 153.586 125.647C153.07 126.226 154.083 125.288 153.454 125.729C152.894 126.119 154.02 125.653 153.359 125.773L153.139 125.83C152.787 125.899 152.843 125.893 153.303 125.817C153.234 125.899 152.472 125.849 152.378 125.798L152.743 125.842C152.585 125.811 152.428 125.779 152.271 125.742C152.031 125.685 151.792 125.609 151.559 125.528C151.434 125.484 150.691 125.144 151.371 125.471C151.138 125.358 150.905 125.251 150.678 125.131C149.772 124.653 148.929 124.074 148.104 123.47C147.682 123.155 147.261 122.84 146.839 122.525C146.134 121.997 147.33 122.916 146.644 122.374C146.436 122.211 146.229 122.047 146.021 121.884C145.196 121.229 144.385 120.556 143.585 119.876C141.917 118.453 140.3 116.968 138.733 115.426C137.166 113.884 135.781 112.418 134.384 110.844C133.685 110.058 132.999 109.258 132.332 108.446C132.055 108.107 131.778 107.767 131.501 107.427C131.338 107.219 131.174 107.018 131.01 106.81C130.928 106.709 130.249 105.822 130.696 106.407C128.09 102.983 125.705 99.4023 123.596 95.6512C123.282 95.0973 122.973 94.5435 122.684 93.9708C122.602 93.8071 122.52 93.6309 122.432 93.4673C122.281 93.1337 122.275 93.1274 122.407 93.4484C122.338 93.2785 122.268 93.1022 122.205 92.926C122.111 92.6617 122.029 92.3973 121.96 92.133C121.916 91.9568 121.878 91.7743 121.84 91.5917C121.884 91.9756 121.891 91.9819 121.853 91.6043C121.853 91.34 121.853 91.0756 121.859 90.8113C121.897 90.4463 121.891 90.4714 121.847 90.8868C121.878 90.7169 121.916 90.5533 121.96 90.3896C122.023 90.1379 122.111 89.8987 122.193 89.6596C122.325 89.326 122.319 89.3386 122.174 89.6973C122.249 89.54 122.325 89.3826 122.407 89.2316C122.69 88.6903 123.017 88.1679 123.37 87.6644C123.47 87.5197 123.571 87.3749 123.678 87.2365C123.779 87.098 123.886 86.9532 123.993 86.8148C123.773 87.1043 123.766 87.1169 123.974 86.8463C124.345 86.3994 124.71 85.9462 125.1 85.512C125.881 84.6309 126.705 83.7938 127.587 83.0197C127.775 82.856 127.964 82.6924 128.159 82.5287C128.285 82.4218 128.417 82.3148 128.549 82.2141C128.241 82.4532 128.228 82.4658 128.505 82.2518C128.908 81.9686 129.311 81.6791 129.733 81.4148C130.217 81.1127 130.715 80.8294 131.224 80.5777C131.438 80.4707 131.659 80.3511 131.885 80.2693C131.098 80.5525 132.118 80.2001 132.263 80.1497C132.798 79.9672 133.339 79.8224 133.893 79.7154C134.082 79.6777 134.78 79.4322 134.012 79.6777C134.296 79.5833 134.692 79.621 134.988 79.6085C136.631 79.5455 138.21 78.2049 138.135 76.4616C138.059 74.8126 136.75 73.2455 134.988 73.3147L134.994 73.3273Z" fill="#598E44"/>
<path d="M151.763 61.5781C148.031 64.7061 144.488 68.0481 141.146 71.5852C140.101 72.6929 139.056 73.8572 138.54 75.2859C137.369 78.5523 139.27 82.0454 141.108 84.9971C147.754 95.6839 154.847 106.805 165.811 112.979C167.523 113.942 169.379 114.785 171.343 114.823C175.73 114.899 179.286 110.732 179.959 106.402C180.633 102.072 179.103 97.7105 177.309 93.7077C174.509 87.4643 170.991 81.5419 166.849 76.0915C162.878 70.8677 158.126 65.9397 152.034 63.5103" fill="#73B25F"/>
<path d="M149.533 59.3483C145.58 62.6714 141.722 66.2022 138.279 70.0477C136.316 72.2442 134.843 74.8498 135.051 77.896C135.258 80.9421 136.479 83.4219 137.952 85.8701C142.698 93.7562 147.827 101.756 154.436 108.226C157.752 111.473 161.604 114.588 165.852 116.527C168.464 117.723 171.278 118.384 174.116 117.597C176.375 116.974 178.459 115.539 179.925 113.72C181.392 111.901 182.575 109.698 182.971 107.332C183.469 104.367 183.229 101.409 182.443 98.508C181.725 95.8457 180.592 93.2968 179.428 90.8044C178.339 88.482 177.156 86.2037 175.872 83.9757C173.329 79.5638 170.415 75.347 167.155 71.4323C164.14 67.8071 160.616 64.4651 156.481 62.1427C155.317 61.4882 154.102 60.9532 152.862 60.456C151.333 59.8392 149.338 61.1294 148.991 62.6525C148.576 64.4777 149.552 65.8623 151.188 66.5232C151.981 66.8442 150.603 66.2337 151.377 66.605C151.603 66.712 151.836 66.819 152.069 66.9323C152.522 67.1526 152.975 67.3917 153.416 67.6435C154.373 68.1847 155.291 68.7889 156.179 69.4435C156.267 69.5127 156.94 70.0351 156.349 69.5694C156.55 69.7267 156.745 69.884 156.947 70.0477C157.343 70.375 157.727 70.7085 158.105 71.0484C158.929 71.791 159.722 72.5715 160.49 73.3834C161.195 74.1323 161.881 74.9064 162.542 75.6932C162.875 76.0897 163.196 76.4862 163.517 76.889C163.675 77.0904 163.838 77.2918 163.996 77.4932C164.216 77.7701 164.203 77.7638 163.977 77.4617C164.084 77.6065 164.197 77.7512 164.304 77.8897C165.739 79.7841 167.092 81.7414 168.37 83.7429C170.881 87.6764 173.078 91.8051 174.947 96.0849C175.337 96.9723 174.733 95.5184 175.085 96.4184C175.192 96.6954 175.306 96.966 175.413 97.2429C175.62 97.7968 175.822 98.3506 176.004 98.9108C176.394 100.119 176.709 101.346 176.898 102.605C176.791 101.888 176.917 102.838 176.923 102.92C176.948 103.209 176.967 103.499 176.973 103.782C176.992 104.361 176.955 104.934 176.923 105.513C176.873 106.419 177.049 105.041 176.892 105.765C176.841 105.985 176.803 106.205 176.753 106.419C176.634 106.898 176.514 107.495 176.262 107.923C176.678 107.212 176.281 107.842 176.206 107.999C176.136 108.131 176.067 108.27 175.992 108.402C175.815 108.716 175.564 109.339 175.262 109.547L175.482 109.27C175.387 109.39 175.293 109.503 175.192 109.616C175.048 109.786 174.896 109.95 174.739 110.107C174.582 110.265 174.424 110.416 174.254 110.567C174.141 110.661 174.034 110.756 173.915 110.85C174.261 110.586 174.299 110.548 174.022 110.749C173.65 110.976 173.285 111.196 172.895 111.398C172.253 111.737 173.55 111.221 172.851 111.404C172.643 111.46 172.442 111.536 172.228 111.586L172.02 111.637C171.674 111.7 171.737 111.693 172.215 111.63C172.14 111.706 171.661 111.668 171.561 111.674C171.303 111.674 171.038 111.662 170.78 111.643C171.517 111.7 170.403 111.549 170.252 111.511C169.981 111.442 169.717 111.353 169.452 111.265C169.377 111.24 168.527 110.881 169.157 111.165C168.64 110.932 168.137 110.674 167.646 110.403C166.683 109.874 165.739 109.295 164.826 108.685C164.411 108.408 163.996 108.119 163.593 107.823C163.392 107.678 163.19 107.527 162.989 107.376C162.309 106.879 163.492 107.785 162.831 107.256C161.982 106.583 161.151 105.884 160.352 105.154C158.86 103.807 157.457 102.366 156.116 100.862C155.443 100.107 154.788 99.3325 154.146 98.552C153.825 98.1555 153.51 97.759 153.196 97.3625C152.661 96.6954 153.58 97.8786 153.063 97.1926C152.856 96.9219 152.654 96.6513 152.447 96.3807C149.891 92.9695 147.569 89.3883 145.303 85.7757C144.712 84.8317 144.114 83.8876 143.535 82.9373C143.195 82.3771 142.861 81.8107 142.553 81.2317C142.421 80.9799 142.289 80.7282 142.169 80.4764C142.087 80.3065 142.005 80.1365 141.93 79.9666C142.062 80.2876 142.056 80.2813 141.93 79.9477C141.71 79.3435 141.546 78.7393 141.389 78.1163C141.181 77.3169 141.363 78.7205 141.357 77.9023C141.357 77.6128 141.244 77.1218 141.357 76.8512L141.313 77.1659C141.345 76.9897 141.382 76.8197 141.426 76.6435C141.47 76.4673 141.527 76.2974 141.584 76.1274C141.433 76.4673 141.433 76.4736 141.584 76.1463C141.716 75.9134 141.842 75.6806 141.986 75.454C142.081 75.303 142.188 75.1582 142.289 75.0134C142.068 75.2967 142.068 75.2967 142.289 75.0134C145.857 70.9666 149.86 67.2658 153.982 63.8043C155.247 62.7406 155.159 60.4371 153.982 59.3546C152.636 58.121 150.88 58.2217 149.533 59.3546V59.3483Z" fill="#73B25F"/>
<path d="M163.166 48.0042C160.221 50.3266 157.244 53.0455 156.357 56.6896C155.457 60.3651 156.879 64.1917 158.604 67.5651C161.782 73.7771 166.093 79.4037 171.254 84.0988C175.798 88.2275 180.965 91.6072 186.107 94.9744C187.46 95.8618 188.958 96.787 190.569 96.6359C192.464 96.4597 193.949 94.7982 194.503 92.9793C195.057 91.1604 194.874 89.2156 194.679 87.3275C193.748 78.5792 192.508 69.7365 189.109 61.6176C185.711 53.4986 179.908 46.072 171.908 42.3965L163.166 48.0105V48.0042Z" fill="#598E44"/>
<path d="M160.934 45.7769C156.503 49.2825 152.488 53.8895 152.96 59.9378C153.205 63.1224 154.325 66.0679 155.754 68.9001C156.975 71.3294 158.385 73.6707 159.939 75.8987C163.162 80.5246 166.963 84.7036 171.312 88.2911C173.666 90.2295 176.127 92.0421 178.638 93.7729C180.973 95.3778 183.321 97.0897 185.8 98.4743C187.235 99.2736 188.903 99.8967 190.571 99.7771C192.333 99.6513 193.894 98.9275 195.184 97.7254C197.551 95.5037 198.187 92.1428 197.985 89.0337C197.784 85.9246 197.343 82.891 196.922 79.8449C196.525 76.9686 196.04 74.0987 195.411 71.2665C193.114 61.014 188.5 50.6608 180.142 43.9139C178.122 42.2838 175.976 40.8048 173.609 39.7223C171.583 38.7971 170.456 39.5838 168.908 40.5782L162.111 44.9461C161.935 45.0594 161.758 45.1727 161.582 45.2859C160.198 46.1734 159.505 48.1244 160.456 49.5909C161.349 50.9755 163.281 51.6741 164.76 50.7174C167.674 48.8482 170.588 46.9727 173.502 45.1034H170.324C171.998 45.8838 173.591 46.8216 175.089 47.9041C175.284 48.0426 175.485 48.1811 175.668 48.3321C175.057 47.8286 175.68 48.351 175.787 48.4328C176.096 48.6846 176.404 48.9426 176.706 49.2069C177.43 49.8426 178.128 50.5097 178.789 51.2084C179.406 51.8503 179.991 52.5174 180.558 53.1972C180.715 53.386 180.86 53.5748 181.017 53.7636C181.533 54.3993 180.633 53.2349 181.118 53.8958C181.407 54.286 181.697 54.6762 181.974 55.079C183.044 56.6147 184 58.2196 184.856 59.8811C185.265 60.6741 185.649 61.4797 186.014 62.2916C186.071 62.4175 186.398 63.1728 186.084 62.4301C186.197 62.6944 186.304 62.9651 186.411 63.2357C186.625 63.7707 186.833 64.3119 187.028 64.8595C187.783 66.9427 188.412 69.0763 188.947 71.2287C189.482 73.3812 189.917 75.5714 190.288 77.7616C190.464 78.8127 190.628 79.87 190.779 80.9211C190.823 81.2106 190.861 81.5001 190.898 81.7833C190.804 81.0659 190.93 82.0225 190.936 82.098C191.012 82.6771 191.081 83.2498 191.15 83.8288C191.408 86.0064 191.78 88.2344 191.735 90.4309C191.735 90.7142 191.71 90.9974 191.685 91.2806C191.735 90.6386 191.685 91.2491 191.654 91.4253C191.603 91.6582 191.547 91.8848 191.477 92.1114L191.408 92.3254C191.282 92.6526 191.301 92.6149 191.459 92.2121C191.471 92.3631 191.188 92.6904 191.119 92.8163C190.791 93.4519 191.433 92.5205 191.131 92.8289C190.999 92.961 190.861 93.1058 190.741 93.2442C190.483 93.4708 190.521 93.4456 190.854 93.1813C190.735 93.2694 190.609 93.3449 190.477 93.4205C189.91 93.817 191.081 93.2883 190.407 93.4456C189.696 93.6093 190.961 93.496 190.445 93.4645C190.269 93.4519 189.652 93.5023 190.357 93.5212C190.099 93.5149 189.828 93.389 189.589 93.3198C188.821 93.1121 190.042 93.6219 189.35 93.2065C189.155 93.0869 188.947 92.9925 188.752 92.8729C188.23 92.5708 187.733 92.2309 187.229 91.9037C185.379 90.6953 183.535 89.4806 181.716 88.2281C180.847 87.6302 179.985 87.0197 179.129 86.3967C178.739 86.1134 178.355 85.8302 177.971 85.5407C177.738 85.3708 177.512 85.1946 177.285 85.0183C177.789 85.4022 176.876 84.6911 176.788 84.6281C175.095 83.2813 173.458 81.8589 171.916 80.3484C170.375 78.8379 169.021 77.3525 167.693 75.7413C167.404 75.3889 167.121 75.0364 166.844 74.684C166.284 73.9791 167.209 75.1875 166.674 74.4574C166.51 74.2371 166.347 74.0232 166.189 73.8029C165.547 72.928 164.93 72.028 164.339 71.1217C163.105 69.221 161.96 67.2448 160.972 65.2056C160.852 64.9539 160.732 64.7021 160.613 64.4441C160.537 64.2742 160.462 64.1042 160.386 63.928C160.519 64.249 160.519 64.2364 160.38 63.9028C160.185 63.3742 159.984 62.8518 159.82 62.3168C159.631 61.6937 159.486 61.0706 159.354 60.435C159.228 59.8371 159.329 60.328 159.342 60.4601C159.298 60.1014 159.266 59.7364 159.26 59.3713C159.253 59.1007 159.253 58.8301 159.26 58.5594C159.266 58.3769 159.279 58.1944 159.298 58.0182C159.247 58.358 159.235 58.4147 159.279 58.1755C159.398 57.6217 159.543 57.093 159.7 56.5517C159.927 55.7776 159.398 57.1182 159.757 56.3944C159.864 56.1741 159.971 55.9538 160.091 55.7398C160.367 55.2363 160.695 54.758 161.028 54.2923C160.581 54.9154 161.072 54.2482 161.154 54.1475C161.318 53.9587 161.481 53.7699 161.651 53.5811C162.048 53.1468 162.47 52.7314 162.904 52.3286C163.703 51.5797 164.553 50.8874 165.415 50.2014C166.712 49.1755 166.567 46.809 165.415 45.7517C164.037 44.4866 162.35 44.6566 160.965 45.7517L160.934 45.7769Z" fill="#598E44"/>
<path d="M216.884 36.5648C210.873 34.7962 204.674 33.6885 198.424 33.2606C194.667 33.0025 190.79 33.0088 187.278 34.362C183.766 35.7151 180.663 38.6606 180.065 42.3739C179.763 44.2809 180.122 46.2319 180.55 48.1138C183.867 62.6586 191.331 76.2279 201.835 86.814C202.886 87.8713 204.007 88.9287 205.41 89.4259C207.776 90.2692 210.495 89.3063 212.333 87.607C214.171 85.9077 215.298 83.5727 216.242 81.244C220.578 70.5698 222.032 58.9768 223.442 47.541C223.756 45.0047 224.052 42.3424 223.121 39.9571C222.189 37.5718 219.59 35.6396 217.135 36.3634" fill="#73B25F"/>
<path d="M217.73 33.5319C211.644 31.7507 205.363 30.6305 199.038 30.1584C192.712 29.6864 186.765 30.0829 181.824 33.9473C179.691 35.6151 178.023 37.9312 177.268 40.5431C176.361 43.6522 177.022 46.9061 177.765 49.9711C179.055 55.2956 180.918 60.4628 183.209 65.4348C185.5 70.4069 188.112 74.8251 191.221 79.1048C192.882 81.3895 194.638 83.6112 196.508 85.7259C198.377 87.8405 200.284 90.1126 202.663 91.5853C205.571 93.379 209.064 93.1651 212.028 91.6608C214.665 90.3266 216.603 87.8217 217.913 85.2286C220.594 79.8916 222.23 73.9314 223.47 68.116C224.71 62.3006 225.559 55.9879 226.321 49.8893C226.705 46.7991 227.208 43.734 226.604 40.6312C226 37.5284 223.797 34.7466 220.77 33.5633C219.354 33.0095 217.78 32.9654 216.32 33.3556C214.728 33.7773 213.601 35.6214 214.124 37.2263C214.646 38.8312 216.289 39.876 217.994 39.4228C218.089 39.3976 218.372 39.3662 218.429 39.3221C218.378 39.3599 217.818 39.341 218.133 39.3851C218.888 39.4857 217.705 39.2151 218.265 39.3662C218.372 39.3976 218.806 39.5865 218.894 39.555C218.813 39.5865 218.246 39.2088 218.75 39.5109C218.875 39.5865 219.008 39.662 219.134 39.7375C219.196 39.7753 219.53 39.983 219.184 39.7564C218.838 39.5298 219.215 39.7941 219.303 39.876C219.36 39.9263 219.876 40.4424 219.864 40.455C219.845 40.4676 219.53 39.9641 219.725 40.2725C219.788 40.3669 219.857 40.4613 219.92 40.5557C220.002 40.6879 220.071 40.82 220.147 40.9522C220.367 41.3172 220.222 40.9333 220.115 40.82C220.455 41.1725 220.493 42.1165 220.587 42.5823C220.682 43.048 220.587 42.0977 220.581 42.5823C220.581 42.7207 220.606 42.8655 220.613 43.004C220.631 43.3816 220.638 43.7592 220.625 44.1431C220.594 45.4837 220.417 46.818 220.248 48.1459C220.078 49.4739 219.908 50.8648 219.738 52.2243C219.694 52.5641 219.65 52.904 219.606 53.2439C219.587 53.376 219.486 54.1313 219.524 53.8481C219.574 53.4641 219.492 54.0683 219.48 54.1565C219.461 54.3012 219.442 54.446 219.417 54.5907C219.36 54.9809 219.31 55.3649 219.253 55.7551C218.869 58.4677 218.435 61.174 217.919 63.8677C216.893 69.2237 215.533 74.5293 213.545 79.6146C213.438 79.8853 213.331 80.1622 213.217 80.4328C213.154 80.5965 213.085 80.7538 213.022 80.9111C213.035 80.8734 213.236 80.4328 213.085 80.7601C212.808 81.3517 212.544 81.9496 212.236 82.5223C211.971 83.0195 211.688 83.5042 211.373 83.9699C211.273 84.1147 210.738 84.7755 211.178 84.2657C210.983 84.4923 210.788 84.7251 210.58 84.9454C210.373 85.1657 210.159 85.3608 209.938 85.5622C209.699 85.7888 209.85 85.8203 210.001 85.5245C209.964 85.5937 209.768 85.6881 209.699 85.7321C209.46 85.8895 209.215 86.0405 208.963 86.1727C208.856 86.2294 208.743 86.2797 208.636 86.3363C208.258 86.5377 209.12 86.1916 208.711 86.2986C208.434 86.3678 208.176 86.4748 207.899 86.544C207.843 86.5566 207.427 86.6384 207.427 86.6384C207.427 86.5881 208.044 86.607 207.666 86.5944C207.597 86.5944 206.829 86.607 206.829 86.5944C206.836 86.5692 207.44 86.7266 207.075 86.6322C206.917 86.5944 206.76 86.5692 206.609 86.5252C206.521 86.5 206.024 86.3426 206.395 86.4748C206.741 86.6007 206.351 86.4496 206.294 86.4182C206.03 86.2671 205.778 86.0909 205.514 85.9461C205.218 85.7825 205.583 86.0091 205.627 86.0468C205.489 85.9398 205.357 85.8203 205.224 85.707C204.991 85.5056 204.765 85.2916 204.545 85.0776C203.67 84.2279 202.833 83.3468 202.008 82.4468C201.184 81.5468 200.384 80.6405 199.604 79.709C199.214 79.2433 198.83 78.7713 198.452 78.2992C198.289 78.0978 198.131 77.8901 197.968 77.6887C197.911 77.6132 197.571 77.179 197.817 77.4936C198.043 77.7894 197.71 77.3489 197.666 77.2985C194.733 73.4279 192.146 69.2929 189.949 64.9628C189.402 63.8803 188.873 62.7852 188.376 61.6775C188.143 61.1614 187.917 60.6453 187.696 60.1292C187.948 60.7082 187.646 60.0033 187.564 59.8019C187.432 59.481 187.306 59.16 187.174 58.839C186.28 56.5795 185.493 54.2823 184.807 51.9536C184.468 50.7893 184.153 49.6187 183.863 48.4354C183.725 47.869 183.593 47.3026 183.467 46.7298C183.398 46.3963 183.328 46.0627 183.265 45.7291C183.24 45.5844 183.215 45.4396 183.19 45.3012C183.089 44.7033 183.184 45.4963 183.171 45.1312C183.146 44.5019 183.102 43.8851 183.121 43.2557C183.121 43.2179 183.158 42.7396 183.121 43.0984C183.083 43.4571 183.146 42.9788 183.165 42.8907C183.228 42.5949 183.303 42.2991 183.398 42.0095C183.435 41.8963 183.693 41.2417 183.517 41.6445C183.328 42.0662 183.693 41.3109 183.75 41.2039C183.876 40.9711 184.014 40.7445 184.159 40.5242C184.222 40.4298 184.285 40.3354 184.354 40.241C184.644 39.8067 184.304 40.348 184.279 40.3291C184.272 40.3291 185.298 39.234 185.38 39.1585C185.582 38.976 185.789 38.806 185.997 38.6298C186.274 38.3906 185.821 38.7746 185.821 38.7683C185.814 38.7431 186.167 38.5228 186.198 38.4976C186.645 38.1892 187.117 37.9123 187.602 37.6669C187.709 37.6102 188.477 37.2452 188.068 37.434C187.69 37.6039 188.042 37.4466 188.118 37.4151C188.294 37.3522 188.47 37.2829 188.647 37.22C189.263 37.006 189.899 36.8298 190.535 36.6913C190.856 36.6221 191.177 36.5592 191.498 36.5088C191.636 36.4836 191.775 36.4648 191.913 36.4459C191.605 36.4962 191.605 36.4836 191.913 36.4459C193.228 36.32 194.55 36.2696 195.872 36.3011C197.194 36.3326 198.578 36.4207 199.931 36.5403C200.636 36.6032 201.341 36.6724 202.04 36.748C202.342 36.7794 202.644 36.8172 202.94 36.855C203.141 36.8801 203.343 36.9053 203.544 36.9305C203.783 36.962 203.94 36.9871 203.607 36.9368C206.408 37.3459 209.189 37.8557 211.94 38.5228C213.312 38.8564 214.678 39.2214 216.037 39.6179C217.617 40.0774 219.536 39.0578 219.908 37.4214C220.279 35.785 219.404 34.048 217.711 33.5508L217.73 33.5319Z" fill="#73B25F"/>
<path d="M249.748 47.4674C244.109 42.4387 237.4 38.6121 230.2 36.3275C228.639 35.8303 226.996 35.4023 225.379 35.6666C221.187 36.3464 219.11 41.0793 218.091 45.2017C215.957 53.7989 215.152 62.7297 215.712 71.5724C215.907 74.6627 216.31 77.8599 217.959 80.4844C219.608 83.1089 222.836 84.9655 225.819 84.1222C227.487 83.6501 228.828 82.4354 230.043 81.2019C239.288 71.8431 249.232 60.6906 250.05 47.5618" fill="#598E44"/>
<path d="M251.967 45.2393C248.405 42.0736 244.478 39.3106 240.248 37.1141C238.052 35.9749 235.774 34.9805 233.457 34.1246C231.141 33.2686 228.504 32.2931 225.949 32.4504C223.394 32.6078 221.254 33.6337 219.529 35.3896C217.969 36.9819 216.962 38.9267 216.131 40.9722C215.3 43.0176 214.872 44.9624 214.438 47.0078C213.859 49.6953 213.424 52.4079 213.078 55.1394C212.43 60.231 212.235 65.3856 212.493 70.515C212.751 75.6444 213.355 80.8745 217.144 84.4178C219.051 86.199 221.487 87.3759 224.118 87.464C226.893 87.5584 229.329 86.1423 231.318 84.336C232.916 82.8822 234.389 81.2647 235.868 79.6912C237.347 78.1178 238.845 76.4626 240.267 74.7884C245.982 68.0415 251.244 60.2373 252.735 51.3505C252.943 50.0918 253.1 48.8267 253.188 47.5554C253.295 45.9064 251.665 44.333 250.041 44.4085C248.241 44.4904 247.014 45.7932 246.895 47.5554C246.863 48.0526 246.813 48.5498 246.762 49.0407C246.681 49.8778 246.882 48.3547 246.744 49.1855C246.706 49.4309 246.668 49.6764 246.624 49.9156C246.454 50.8848 246.234 51.8477 245.969 52.7981C245.73 53.6729 245.447 54.5352 245.139 55.3848C244.969 55.8443 244.818 56.3352 244.597 56.7694C244.95 56.0645 244.578 56.8135 244.522 56.9331C244.421 57.1597 244.32 57.3862 244.213 57.6128C242.533 61.2317 240.337 64.58 237.92 67.7457C238.373 67.1541 237.844 67.8401 237.775 67.9219C237.618 68.1233 237.454 68.3247 237.29 68.5324C236.963 68.9352 236.636 69.338 236.309 69.7345C235.648 70.5338 234.968 71.3143 234.282 72.0947C232.973 73.5737 231.632 75.015 230.267 76.4374C229.568 77.1674 228.863 77.8912 228.152 78.6087C227.85 78.9108 227.554 79.2192 227.246 79.515C227.057 79.6975 226.862 79.8738 226.667 80.05C226.534 80.1633 226.402 80.2766 226.27 80.3898C226.566 80.1696 226.572 80.1633 226.283 80.371C226.062 80.5094 225.855 80.6605 225.628 80.7864C225.622 80.7864 224.873 81.1703 225.313 80.9689C225.754 80.7675 224.98 81.0696 224.961 81.0759L224.734 81.1325C224.382 81.2017 224.439 81.2017 224.898 81.1325C224.76 81.208 224.376 81.164 224.218 81.164H223.992C223.639 81.1262 223.69 81.1388 224.155 81.1954C223.96 81.271 222.934 80.736 222.84 80.8304L223.167 80.9689C223.029 80.9059 222.89 80.8367 222.752 80.7612C222.544 80.6542 222.343 80.5346 222.148 80.4024C221.997 80.3017 221.355 80.0122 222.028 80.3395C221.846 80.2514 221.644 80.0122 221.499 79.8675C221.222 79.6031 220.92 79.3136 220.706 78.9989C221.159 79.6724 220.732 78.9926 220.656 78.8731C220.467 78.5772 220.297 78.2689 220.14 77.9542C220.09 77.8535 219.756 77.0542 220.027 77.7465C219.945 77.5451 219.869 77.3374 219.8 77.1297C219.643 76.6702 219.511 76.2045 219.397 75.7325C219.271 75.2164 219.183 74.6877 219.089 74.1653C218.925 73.2905 219.152 74.8262 219.051 73.9451C219.02 73.6807 218.988 73.4101 218.963 73.1458C218.522 68.5199 218.573 63.8058 218.944 59.1799C219.039 57.9778 219.164 56.7757 219.309 55.5736C219.334 55.3722 219.359 55.1771 219.385 54.9757C219.511 53.9876 219.284 55.5988 219.435 54.617C219.542 53.9184 219.643 53.2261 219.762 52.5275C220.14 50.2743 220.599 48.0337 221.166 45.8183C221.38 44.9813 221.625 44.1568 221.921 43.3449C221.971 43.2064 222.022 43.0743 222.072 42.9358L222.154 42.7344C222.286 42.4134 222.261 42.4638 222.091 42.8854C222.135 42.4701 222.557 41.8973 222.758 41.5323C222.928 41.2239 223.111 40.9218 223.306 40.6323C223.375 40.5316 223.551 40.1728 223.664 40.1225L223.425 40.4372C223.513 40.3302 223.601 40.2295 223.69 40.1288C223.765 40.047 224.564 39.3232 224.552 39.2917C224.596 39.4113 223.935 39.6945 224.464 39.3672C224.659 39.2477 224.848 39.1218 225.049 39.0085C225.685 38.6686 225.106 39.0903 225.018 39.0022C225.043 39.0274 225.71 38.7882 225.792 38.7693C225.949 38.7316 226.534 38.7316 225.93 38.7379C226.213 38.7379 226.503 38.7379 226.786 38.7379C227.655 38.719 226.239 38.5868 227.094 38.763C227.472 38.8449 227.85 38.9204 228.227 39.0211C228.863 39.191 229.486 39.3924 230.109 39.6001C231.217 39.9714 232.312 40.3868 233.395 40.8211C234.232 41.1547 232.815 40.5631 233.64 40.9218C233.885 41.0288 234.137 41.1358 234.383 41.2491C234.955 41.5071 235.528 41.7778 236.088 42.0547C238.184 43.0868 240.217 44.2575 242.162 45.554C243.137 46.2023 244.088 46.882 245.013 47.5932C244.446 47.1589 245.158 47.7127 245.227 47.7631C245.51 47.9897 245.787 48.2162 246.064 48.4428C246.548 48.8456 247.027 49.2547 247.492 49.6764C248.72 50.7715 250.746 50.9792 251.942 49.6764C253.037 48.4806 253.258 46.3911 251.942 45.2267L251.967 45.2393Z" fill="#598E44"/>
<path d="M255.712 50.0705C253.855 50.0454 250.891 52.0782 249.418 53.2174C242.954 58.2272 239.6 65.5091 235.194 72.4007C233.935 74.3707 232.758 76.4476 232.274 78.7322C231.789 81.0168 232.104 83.5721 233.583 85.3847C235.307 87.5057 238.335 88.2295 241.035 87.8141C243.735 87.3987 246.195 86.0267 248.505 84.5602C252.615 81.9483 256.536 78.9021 259.437 74.9874C262.339 71.0727 264.145 66.1888 263.667 61.3426C263.188 56.4964 260.155 51.7887 255.617 50.0391" fill="#73B25F"/>
<path d="M255.713 46.9232C252.082 46.9861 248.595 49.7113 245.983 51.9896C243.082 54.5197 240.715 57.6288 238.607 60.8386C236.499 64.0484 234.711 67.296 232.691 70.4806C230.287 74.282 228.348 78.3541 229.141 82.9611C229.859 87.1402 233.314 90.2556 237.449 90.8786C241.974 91.5647 246.097 89.7961 249.86 87.4297C256.758 83.087 263.159 77.4415 265.809 69.4862C267.212 65.2631 267.325 60.4673 265.626 56.3071C263.927 52.147 260.774 48.7295 256.45 47.0113C254.914 46.4008 252.925 47.6784 252.579 49.2078C252.164 51.0267 253.133 52.4239 254.776 53.0784C253.964 52.7575 255.065 53.2232 255.26 53.3302C255.594 53.5064 255.915 53.7015 256.23 53.9155C256.28 53.9533 256.576 54.1798 256.601 54.1736C256.494 54.2113 256.148 53.7896 256.5 54.098C256.853 54.4064 257.18 54.6896 257.501 55.0169C257.74 55.2624 257.967 55.5141 258.187 55.7722C258.338 55.9547 258.697 56.1875 258.187 55.7596C258.281 55.8351 258.388 56.0428 258.451 56.1309C258.885 56.7603 259.269 57.4211 259.597 58.1071C259.616 58.1449 259.918 58.8372 259.716 58.3589C259.515 57.8806 259.798 58.5855 259.811 58.6232C259.93 58.9442 260.037 59.2715 260.132 59.605C260.226 59.9386 260.314 60.2722 260.383 60.6058C260.421 60.7946 260.459 60.9771 260.49 61.1659C260.635 61.9967 260.484 60.6876 260.516 61.3484C260.56 62.1414 260.61 62.9281 260.572 63.7274C260.553 64.168 260.522 64.6086 260.459 65.0428C260.478 64.9233 260.566 64.3946 260.459 64.9925C260.409 65.2505 260.365 65.5149 260.308 65.7729C260.132 66.5911 259.899 67.403 259.616 68.196C259.54 68.4037 259.458 68.6114 259.383 68.8191C259.339 68.9387 259.144 69.3729 259.395 68.8065C259.2 69.2534 258.992 69.7002 258.766 70.1345C258.382 70.8834 257.954 71.6198 257.488 72.3247C257.268 72.6583 257.041 72.9855 256.802 73.3065C256.708 73.4324 256.337 73.9044 256.733 73.4072C256.569 73.6149 256.399 73.8226 256.23 74.024C255.128 75.3457 253.901 76.5667 252.604 77.6995C252.302 77.9639 252 78.2219 251.692 78.4737C251.522 78.6121 251.346 78.7506 251.176 78.8891C251.05 78.9898 250.578 79.3548 251.075 78.9709C250.37 79.5059 249.646 80.0282 248.916 80.5317C247.506 81.501 246.059 82.4387 244.555 83.2569C244.152 83.4772 243.743 83.6849 243.327 83.8737C243.164 83.9492 242.994 84.0248 242.83 84.1003C243.497 83.8171 242.654 84.1506 242.566 84.1821C242.226 84.3017 241.88 84.415 241.527 84.5094C241.263 84.5786 240.999 84.6415 240.734 84.6982L240.464 84.7485C240.067 84.8115 240.105 84.8115 240.577 84.736C240.376 84.8744 239.784 84.7863 239.545 84.7863C239.293 84.7863 238.746 84.6478 238.506 84.7297C238.915 84.5849 238.991 84.8052 238.55 84.7171C238.362 84.6793 238.179 84.6353 237.99 84.5849C237.846 84.5471 237.701 84.5031 237.556 84.4527C237.411 84.4024 237.273 84.352 237.128 84.2954L237.462 84.4339C237.229 84.4527 236.675 83.9996 236.486 83.88C235.957 83.5527 236.568 83.9618 236.587 83.9681C236.473 83.9492 236.259 83.6723 236.178 83.5842C236.052 83.4583 235.888 83.3199 235.8 83.1625C236.152 83.7667 235.932 83.3262 235.869 83.2129C235.781 83.0429 235.68 82.8478 235.573 82.6905C235.473 82.4828 235.498 82.552 235.643 82.8982C235.586 82.7471 235.529 82.6024 235.479 82.445C235.378 82.1366 235.315 81.8219 235.24 81.5136C235.051 80.752 235.24 82.1807 235.227 81.3877C235.227 81.224 235.208 81.0604 235.202 80.9031C235.196 80.5443 235.133 80.0156 235.259 79.6884C235.234 79.7576 235.127 80.3996 235.252 79.8017C235.309 79.5373 235.359 79.2793 235.429 79.0212C235.548 78.5681 235.706 78.1338 235.857 77.6933C235.894 77.5863 236.09 77.1394 235.857 77.6681C235.951 77.4541 236.052 77.2401 236.152 77.0324C236.562 76.1891 237.034 75.3772 237.531 74.5779C239.325 71.6827 241.055 68.7436 242.855 65.8484C243.825 64.2876 244.832 62.7519 245.927 61.2792C245.927 61.2792 246.43 60.6058 246.141 60.9897C245.895 61.3169 246.468 60.5743 246.525 60.5051C246.789 60.1778 247.066 59.8505 247.343 59.5295C247.96 58.8183 248.602 58.1386 249.275 57.4841C249.948 56.8295 250.641 56.0868 251.421 55.6022C250.704 56.0491 251.516 55.5393 251.704 55.3945C252.044 55.1491 252.39 54.9099 252.736 54.6833C253.429 54.2302 254.153 53.84 254.889 53.4561C255.311 53.2358 254.763 53.4435 254.732 53.5127C254.757 53.4561 255.248 53.3239 255.311 53.305C255.449 53.261 255.638 53.2484 255.77 53.1854C256.022 53.1351 255.89 53.1477 255.374 53.2232C255.481 53.2106 255.594 53.2043 255.701 53.2106C257.344 53.1791 258.923 51.7819 258.848 50.0637C258.772 48.3455 257.463 46.8854 255.701 46.9169L255.713 46.9232Z" fill="#73B25F"/>
<path d="M268.634 72.5996C261.044 79.636 253.454 86.6661 245.864 93.7025C244.567 94.9046 243.233 96.1634 242.597 97.8123C241.962 99.4613 242.257 101.607 243.736 102.57C244.649 103.162 245.813 103.2 246.896 103.118C254.505 102.564 260.981 97.5102 266.564 92.3116C269.446 89.6305 272.341 86.6724 273.424 82.8836C274.506 79.0948 273.078 74.3115 269.39 72.9332" fill="#598E44"/>
<path d="M266.405 70.376C260.885 75.4929 255.366 80.6097 249.846 85.7202L245.591 89.6664C244.358 90.8118 243.049 91.9132 241.922 93.172C239.461 95.9349 238.02 99.9755 240.21 103.368C242.552 106.999 247.253 106.527 250.91 105.652C254.082 104.891 257.122 103.443 259.853 101.687C262.584 99.9315 265.329 97.6909 267.827 95.4188C270.326 93.1468 272.636 90.9125 274.429 88.1433C276.456 85.009 277.312 81.4342 276.657 77.7523C276.003 74.0705 273.617 71.232 270.225 69.8977C268.689 69.2935 266.707 70.5586 266.354 72.0942C265.939 73.9068 266.908 75.3166 268.551 75.9649C267.726 75.6376 268.494 75.9523 268.702 76.0782C268.815 76.1474 268.922 76.2229 269.036 76.2859C269.426 76.5187 268.834 76.2922 268.866 76.1474C268.853 76.1915 269.369 76.6194 269.432 76.6824C269.495 76.7453 269.558 76.846 269.627 76.9027C269.904 77.1229 269.268 76.3488 269.558 76.8083C269.696 77.0348 269.847 77.2488 269.973 77.4817C270.036 77.6013 270.093 77.7208 270.156 77.8404C270.389 78.2621 269.992 77.702 270.08 77.6453C270.08 77.6453 270.515 79.0614 270.546 79.2125C270.546 79.1936 270.603 79.6153 270.622 79.6216C270.496 79.5649 270.559 78.923 270.584 79.4013C270.596 79.6782 270.622 79.9551 270.628 80.232C270.634 80.509 270.622 80.7859 270.596 81.0628C270.596 81.1258 270.533 81.453 270.559 81.4719C270.458 81.3523 270.71 80.7293 270.559 81.346C270.42 81.9125 270.263 82.46 270.068 83.0076C269.873 83.5551 270.043 83.0642 270.093 82.9572C270.017 83.1083 269.954 83.2656 269.879 83.4167C269.709 83.7565 269.526 84.0901 269.331 84.4174C269.004 84.9649 268.633 85.481 268.268 86.0034C268.664 85.4496 268.085 86.2174 267.959 86.3747C267.708 86.6705 267.45 86.9601 267.191 87.2496C266.26 88.2692 265.259 89.2258 264.246 90.1636C263.233 91.1013 262.112 92.1146 261.005 93.0398C260.501 93.4615 259.979 93.8769 259.469 94.286C259.098 94.5818 259.859 93.9965 259.482 94.2797C259.375 94.3552 259.274 94.437 259.167 94.5188C258.815 94.7832 258.462 95.0412 258.103 95.293C256.964 96.0923 255.787 96.8412 254.566 97.5084C254 97.8168 253.421 98.1063 252.835 98.3769C252.678 98.4461 252.521 98.5154 252.37 98.5846C251.948 98.7797 252.848 98.4021 252.414 98.5657C252.055 98.6979 251.696 98.8426 251.338 98.9685C250.696 99.1888 250.041 99.3839 249.38 99.5475C249.091 99.6168 248.801 99.686 248.505 99.7426C248.335 99.7741 248.172 99.8056 248.002 99.837C247.656 99.9 247.524 99.944 247.945 99.8622C247.278 99.9944 246.573 99.9755 245.9 99.9944C245.535 100.007 245.686 100.139 245.982 100.038C245.906 100.064 245.692 99.9818 245.617 99.9629C245.497 99.9315 245.05 99.7238 245.409 99.9189C245.629 100.013 245.61 99.9944 245.346 99.8496L245.648 100.089C245.686 100.064 245.333 99.837 245.359 99.793C245.346 99.8119 245.761 100.328 245.503 99.9252C245.245 99.5224 245.673 100.101 245.566 100.114C245.547 100.114 245.44 99.6797 245.447 99.7112C245.302 99.2203 245.554 99.9315 245.459 99.9189C245.447 99.9189 245.44 99.4594 245.44 99.4909C245.44 99.3839 245.453 99.2769 245.453 99.1699C245.453 98.7923 245.289 99.8182 245.453 99.258C245.491 99.1196 245.535 98.9811 245.572 98.8489C245.705 98.3643 245.579 98.8489 245.528 98.9433C245.692 98.6538 245.856 98.3643 246.026 98.0811C246.095 97.9615 246.384 97.6091 245.982 98.1126C246.089 97.9804 246.196 97.8545 246.309 97.7286C246.529 97.4706 246.768 97.2314 247.001 96.986C249.311 94.6699 251.803 92.5111 254.201 90.2894C259.759 85.1412 265.322 79.9866 270.88 74.8383C272.088 73.718 272.101 71.5089 270.88 70.3886C269.583 69.1991 267.72 69.1928 266.43 70.3886L266.405 70.376Z" fill="#598E44"/>
<path d="M257.772 101.051C256.11 103.197 253.202 105.394 252.221 107.981C251.176 110.731 250.653 114.167 252.441 116.446C253.29 117.522 254.543 118.158 255.821 118.504C259.836 119.58 264.179 117.962 267.344 115.118C270.51 112.273 272.663 108.346 274.374 104.318C275.866 100.799 276.848 96.0728 274.116 93.5553C271.681 91.3147 267.823 92.4539 265.28 94.5497L257.772 101.057V101.051Z" fill="#73B25F"/>
<path d="M255.549 98.8236C253.353 101.612 250.496 103.726 249.193 107.144C247.89 110.561 247.474 114.747 249.589 117.843C252.119 121.538 256.89 122.431 261.05 121.714C264.65 121.097 267.992 119.027 270.51 116.434C273.027 113.84 275.028 110.505 276.558 107.131C277.93 104.098 279.233 100.768 278.968 97.3698C278.811 95.3369 278.207 93.5117 276.904 91.9257C275.601 90.3397 273.65 89.446 271.598 89.2257C268.445 88.8858 265.324 90.3963 262.97 92.3851C260.471 94.4998 258.023 96.6775 255.549 98.8173C254.303 99.8999 254.36 102.172 255.549 103.267C256.877 104.488 258.671 104.419 259.999 103.267C262.076 101.467 264.147 99.6733 266.224 97.8733C266.601 97.546 266.991 97.225 267.356 96.8914C267.432 96.8222 267.614 96.6082 267.369 96.8663C267.079 97.1684 267.413 96.8348 267.514 96.7656C267.671 96.6523 267.835 96.5453 268.005 96.4446C268.307 96.2558 268.615 96.0858 268.93 95.9285C269.169 95.8089 269.421 95.5194 268.93 95.9159C269.018 95.8467 269.282 95.7838 269.364 95.7586C269.654 95.6642 269.949 95.5823 270.245 95.5194C270.384 95.4879 270.56 95.4817 270.686 95.4376C270.132 95.639 270.239 95.4817 270.51 95.4817C270.654 95.4817 270.799 95.4691 270.944 95.4754C271.051 95.4754 271.158 95.4817 271.271 95.4942C271.517 95.5131 271.416 95.4942 270.969 95.4502C271.095 95.5257 271.743 95.5257 271.794 95.6768C271.794 95.683 271.208 95.3621 271.63 95.6264C271.63 95.6264 271.995 95.8089 272.001 95.853L271.724 95.6327C271.812 95.7019 271.894 95.7775 271.97 95.853C272.07 95.9474 272.152 96.067 272.253 96.1551C272.549 96.4005 272.001 95.6453 272.133 95.9977C272.196 96.1677 272.347 96.3502 272.442 96.5138C272.807 97.1369 272.322 95.9851 272.505 96.69C272.524 96.7656 272.706 97.5838 272.712 97.5901C272.662 97.5775 272.656 96.7719 272.675 97.3761C272.675 97.5208 272.694 97.6593 272.7 97.804C272.712 98.1691 272.7 98.5341 272.675 98.8929C272.668 99.0061 272.612 99.239 272.631 99.3334C272.612 99.2579 272.756 98.5845 272.649 99.1635C272.593 99.4593 272.542 99.7614 272.473 100.057C272.322 100.724 272.127 101.385 271.907 102.027C271.8 102.342 271.68 102.657 271.554 102.971C271.517 103.066 271.334 103.506 271.498 103.122C271.668 102.713 271.441 103.242 271.403 103.336C271.082 104.073 270.742 104.809 270.384 105.526C269.691 106.917 268.924 108.277 268.049 109.561C267.847 109.85 267.646 110.133 267.438 110.417C267.086 110.895 267.375 110.492 267.451 110.404C267.338 110.536 267.231 110.675 267.117 110.813C266.589 111.449 266.022 112.053 265.418 112.613C265.166 112.846 264.908 113.073 264.644 113.293C264.568 113.356 264.134 113.677 264.461 113.444C264.845 113.167 264.166 113.645 264.159 113.652C263.53 114.086 262.869 114.47 262.183 114.803C262.032 114.879 261.875 114.948 261.724 115.017C261.824 114.967 262.328 114.791 261.774 114.986C261.459 115.099 261.145 115.213 260.824 115.307C260.503 115.401 260.182 115.483 259.861 115.552C259.829 115.552 259.036 115.729 259.552 115.622C260.018 115.527 259.338 115.641 259.238 115.647C258.91 115.672 258.583 115.685 258.256 115.678C258.054 115.678 257.847 115.666 257.645 115.653C257.532 115.647 257.01 115.578 257.45 115.64C257.891 115.703 257.368 115.622 257.261 115.596C257.06 115.559 256.858 115.508 256.657 115.458C256.5 115.414 256.336 115.37 256.179 115.313C256.084 115.282 255.468 114.992 255.851 115.2C256.235 115.408 255.751 115.131 255.663 115.08C255.581 115.036 254.914 114.589 255.247 114.841C255.581 115.093 255.159 114.747 255.09 114.678C254.844 114.432 254.7 114.394 255.014 114.652C254.889 114.545 254.788 114.313 254.706 114.161C254.372 113.557 254.75 114.136 254.693 114.187C254.756 114.136 254.36 113.224 254.404 113.073C254.303 113.413 254.448 113.576 254.435 113.211C254.429 112.972 254.41 112.733 254.416 112.494C254.416 112.33 254.423 112.173 254.435 112.009C254.448 111.845 254.435 111.059 254.429 111.871C254.429 111.134 254.756 110.291 254.977 109.592C255.027 109.441 255.077 109.284 255.134 109.133C255.172 109.019 255.216 108.906 255.26 108.793C255.09 109.171 255.058 109.252 255.159 109.038C255.329 108.743 255.474 108.44 255.656 108.151C255.763 107.987 255.883 107.836 255.984 107.673C256.185 107.358 255.619 108.107 256.003 107.647C256.261 107.339 256.525 107.031 256.802 106.729C257.865 105.564 259.024 104.488 259.999 103.248C260.534 102.562 260.918 101.933 260.918 101.02C260.918 100.246 260.578 99.3271 259.999 98.7922C258.866 97.7537 256.638 97.4138 255.549 98.7922V98.8236Z" fill="#73B25F"/>
<path d="M4.0006 116.181C5.17124 121.537 8.61391 126.257 13.2146 129.19C14.6056 130.077 16.7454 129.523 17.5196 128.063C18.344 126.509 17.872 124.702 16.393 123.758C16.1538 123.601 15.9146 123.444 15.6755 123.28C15.5559 123.198 15.4426 123.11 15.3293 123.028C15.0272 122.821 15.965 123.544 15.4867 123.154C15.065 122.808 14.6559 122.456 14.2594 122.078C13.8629 121.7 13.4916 121.304 13.1391 120.888C13.0447 120.781 12.9566 120.668 12.8622 120.561C12.5475 120.171 12.8433 120.561 12.9818 120.725C12.7992 120.504 12.6356 120.265 12.4783 120.026C11.8552 119.126 11.3391 118.176 10.8734 117.181C10.609 116.615 11.0874 117.723 10.9552 117.376C10.9048 117.244 10.8482 117.112 10.7978 116.974C10.6971 116.703 10.6027 116.432 10.5146 116.162C10.3384 115.614 10.1936 115.06 10.0678 114.5C9.71532 112.889 7.75167 111.8 6.19712 112.304C4.5041 112.851 3.62298 114.45 4.0006 116.174V116.181Z" fill="#73B25F"/>
<path d="M40.5187 95.1779C40.8271 101.975 41.7208 108.747 43.1872 115.393C43.5397 117.005 45.497 118.093 47.0579 117.59C48.7509 117.042 49.6383 115.444 49.2544 113.719C48.9019 112.127 48.5809 110.528 48.2977 108.923C48.153 108.118 48.0208 107.319 47.9012 106.513C47.8383 106.11 47.7816 105.707 47.7187 105.305C47.6872 105.103 47.6621 104.902 47.6369 104.7C47.6746 104.984 47.6809 105.009 47.6495 104.782C47.253 101.591 46.9572 98.4003 46.8124 95.1905C46.7369 93.5478 45.4152 91.9681 43.6655 92.0436C42.0229 92.1191 40.4368 93.4282 40.5187 95.1905V95.1779Z" fill="#73B25F"/>
<path d="M79.1353 101.196C80.2052 109.799 83.308 118.05 88.5003 125.024C89.4822 126.339 91.2696 127.145 92.8053 126.15C94.1081 125.313 94.9829 123.255 93.9318 121.845C92.7486 120.259 91.6661 118.61 90.6969 116.886C90.2122 116.024 89.7528 115.149 89.3248 114.261C89.1108 113.815 88.9031 113.368 88.7017 112.921C88.6073 112.713 88.5192 112.512 88.4311 112.304C88.7143 112.959 88.3619 112.134 88.3367 112.059C87.6003 110.227 86.9772 108.345 86.48 106.432C86.2409 105.519 86.0332 104.601 85.8507 103.675C85.7563 103.191 85.6681 102.706 85.5863 102.215C85.5423 101.951 85.5045 101.68 85.4605 101.416C85.3535 100.724 85.5234 101.945 85.429 101.183C85.2276 99.553 84.1262 97.9544 82.2821 98.0362C80.7527 98.1054 78.915 99.4334 79.1353 101.183V101.196Z" fill="#73B25F"/>
<path d="M122.196 93.7051C121.881 96.3988 123.989 98.9792 125.387 101.1C126.784 103.221 128.219 105.248 129.729 107.255C132.832 111.365 136.161 115.293 139.755 118.987C140.907 120.17 143.066 120.227 144.205 118.987C145.344 117.747 145.432 115.796 144.205 114.537C142.55 112.838 140.951 111.095 139.403 109.301C138.66 108.439 137.93 107.57 137.212 106.683C136.854 106.242 136.501 105.795 136.149 105.348C135.973 105.128 135.796 104.902 135.62 104.675C136.01 105.179 135.406 104.398 135.331 104.297C133.927 102.447 132.58 100.559 131.29 98.6268C130.661 97.6827 130.038 96.7261 129.433 95.7631C129.144 95.2974 128.88 94.8065 128.577 94.347C128.42 94.0198 128.414 94.0323 128.559 94.3722C128.508 94.2526 128.47 94.1267 128.439 94.0009C128.382 93.768 128.382 93.8372 128.445 94.2023C128.439 94.0323 128.445 93.8561 128.477 93.6862C128.672 92.0435 126.891 90.4701 125.33 90.5393C123.461 90.6211 122.391 91.9302 122.183 93.6862L122.196 93.7051Z" fill="#73B25F"/>
<path d="M159.929 61.1875C162.981 70.37 168.778 78.2624 176.513 84.04C177.835 85.0281 180.088 84.2981 180.818 82.9134C181.686 81.2645 181.101 79.6659 179.691 78.6085C179.559 78.5078 179.421 78.4071 179.288 78.3064C179.559 78.5141 179.603 78.5519 179.427 78.4134C179.232 78.2561 179.03 78.0987 178.835 77.9414C178.414 77.5952 177.992 77.2428 177.583 76.8777C176.828 76.2106 176.091 75.512 175.38 74.7945C174.612 74.0141 173.876 73.2022 173.171 72.3651C172.844 71.9812 172.529 71.5847 172.214 71.1882C172.667 71.7483 172.189 71.1504 172.088 71.0246C171.912 70.7917 171.736 70.5525 171.566 70.3134C170.339 68.6015 169.237 66.8015 168.268 64.9322C167.783 63.9945 167.337 63.0441 166.928 62.0749C167.23 62.7861 166.896 61.9868 166.858 61.8923C166.764 61.6595 166.676 61.4203 166.588 61.1875C166.38 60.6336 166.185 60.0798 165.996 59.5196C165.48 57.9588 163.8 56.7818 162.125 57.3231C160.571 57.8266 159.369 59.5196 159.929 61.1937V61.1875Z" fill="#73B25F"/>
<path d="M222.009 43.4233C218.762 50.7556 216.968 58.585 216.867 66.6158C216.848 68.2647 218.328 69.8382 220.014 69.7626C221.701 69.6871 223.136 68.378 223.161 66.6158C223.186 64.8535 223.287 63.0535 223.482 61.2787C223.507 61.0395 223.539 60.8004 223.564 60.5612C223.633 59.9507 223.526 60.7689 223.583 60.3976C223.646 59.9696 223.709 59.5416 223.778 59.1136C223.929 58.2073 224.099 57.3136 224.294 56.4136C224.672 54.6703 225.137 52.9458 225.685 51.2528C225.949 50.4283 226.239 49.6101 226.547 48.7982C226.717 48.3451 226.893 47.8982 227.076 47.4513C227.17 47.2248 227.221 47.1052 227.095 47.401C227.208 47.1367 227.328 46.8723 227.441 46.608C228.108 45.1038 227.925 43.159 226.314 42.3031C224.949 41.5793 222.721 41.8247 222.009 43.4296V43.4233Z" fill="#73B25F"/>
<path d="M20.7422 99.0546C21.4282 106.292 23.8009 113.297 27.8919 119.339C28.8108 120.699 30.7052 121.429 32.1968 120.466C33.5499 119.591 34.3115 117.621 33.3234 116.161C32.4108 114.814 31.5737 113.417 30.8311 111.963C30.4597 111.239 30.1136 110.503 29.7863 109.76C29.673 109.49 29.6667 109.483 29.7863 109.76C29.6982 109.553 29.6164 109.339 29.5345 109.131C29.3835 108.753 29.2387 108.369 29.1066 107.985C28.5716 106.494 28.1247 104.977 27.7723 103.429C27.5898 102.636 27.4324 101.836 27.3003 101.031C27.2625 100.811 27.231 100.584 27.1933 100.364C27.1429 100.03 27.1618 100.106 27.1933 100.395C27.1429 99.9483 27.0863 99.4952 27.0485 99.0483C26.8912 97.412 25.7142 95.8196 23.9016 95.9015C22.3282 95.9707 20.5848 97.2924 20.7548 99.0483L20.7422 99.0546Z" fill="#598E44"/>
<path d="M61.0764 96.0976C59.5092 105.658 60.3778 115.533 63.9274 124.57C64.5253 126.1 66.061 127.327 67.7981 126.767C69.2771 126.289 70.6429 124.539 69.9946 122.896C69.189 120.845 68.5093 118.749 67.9743 116.615C67.6974 115.501 67.4582 114.375 67.2568 113.248C67.1624 112.732 67.0806 112.21 67.0051 111.687C66.9862 111.542 66.961 111.404 66.9421 111.259C66.9862 111.574 66.9925 111.618 66.961 111.385C66.9296 111.102 66.8918 110.812 66.8603 110.529C66.6275 108.339 66.5393 106.136 66.5897 103.933C66.6149 102.832 66.6778 101.73 66.7785 100.635C66.8289 100.063 66.8918 99.4899 66.961 98.9235C67.0366 98.313 66.9233 99.1375 66.9862 98.7661C67.0428 98.4388 67.0869 98.1053 67.1435 97.7717C67.4079 96.1542 66.7219 94.3039 64.947 93.9011C63.4302 93.5549 61.3596 94.3605 61.0764 96.0976Z" fill="#598E44"/>
<path d="M105.402 103.788C107.139 113.631 111.632 122.839 118.09 130.435C119.16 131.694 121.457 131.619 122.54 130.435C123.767 129.095 123.679 127.326 122.54 125.986C122.137 125.514 121.74 125.035 121.356 124.544C121.262 124.431 120.784 123.795 121.193 124.343C121.035 124.129 120.872 123.915 120.714 123.701C120.028 122.77 119.374 121.819 118.751 120.85C117.505 118.905 116.384 116.879 115.402 114.789C115.176 114.304 114.962 113.82 114.742 113.335C114.597 113.002 114.603 113.008 114.742 113.354C114.691 113.228 114.641 113.109 114.591 112.983C114.471 112.693 114.358 112.404 114.244 112.114C113.829 111.038 113.445 109.949 113.099 108.848C112.407 106.645 111.865 104.398 111.463 102.12C111.173 100.496 109.102 99.4323 107.592 99.9232C105.842 100.49 105.087 102.051 105.395 103.794L105.402 103.788Z" fill="#598E44"/>
<path d="M141.017 78.8284C146.31 88.8858 153.781 97.8418 162.762 104.809C163.454 105.344 164.071 105.728 164.99 105.728C165.764 105.728 166.683 105.388 167.218 104.809C168.25 103.682 168.609 101.435 167.218 100.359C162.862 96.9795 158.866 93.1466 155.316 88.9298C154.888 88.4263 154.473 87.9103 154.057 87.3942C153.837 87.1172 153.617 86.8403 153.403 86.5634C153.856 87.1424 153.17 86.2487 153.095 86.148C152.276 85.0529 151.483 83.9389 150.722 82.806C149.174 80.4962 147.757 78.1109 146.461 75.65C145.693 74.1899 143.541 73.6298 142.156 74.5235C140.671 75.4801 140.205 77.2675 141.029 78.8284H141.017Z" fill="#598E44"/>
<path d="M187.151 45.9856C190.348 57.1066 195.049 67.8186 201.098 77.6872C201.96 79.0907 203.955 79.7515 205.403 78.8138C206.85 77.876 207.454 76.013 206.529 74.5088C203.603 69.7256 200.984 64.7598 198.719 59.6304C198.58 59.322 198.448 59.0136 198.316 58.7115C198.272 58.6108 197.819 57.5283 198.07 58.1388C197.812 57.522 197.554 56.899 197.309 56.2759C196.793 54.9857 196.302 53.6891 195.823 52.38C194.861 49.7241 193.992 47.0304 193.212 44.3115C192.758 42.7317 190.971 41.5863 189.341 42.115C187.711 42.6436 186.653 44.2926 187.144 45.9856H187.151Z" fill="#598E44"/>
<path d="M254.715 57.5302C248.371 61.4827 243.638 67.7324 241.599 74.9324C241.152 76.5121 242.147 78.4254 243.796 78.803C245.445 79.1807 247.188 78.2995 247.666 76.6065C247.887 75.8387 248.132 75.0772 248.415 74.3345C248.485 74.1457 248.566 73.9632 248.636 73.7806C248.774 73.4156 248.39 74.3093 248.648 73.7618C248.818 73.403 248.982 73.038 249.158 72.6792C249.876 71.2506 250.725 69.8974 251.669 68.6072C251.896 68.2988 251.701 68.475 251.613 68.6764C251.694 68.5002 251.94 68.2673 252.066 68.1163C252.324 67.8079 252.582 67.5058 252.852 67.21C253.362 66.6498 253.897 66.1086 254.451 65.5925C254.741 65.3219 255.043 65.0575 255.345 64.7995C255.496 64.6673 255.647 64.5414 255.804 64.4156C255.817 64.403 256.421 63.9435 256.05 64.2205C255.678 64.4974 256.232 64.0883 256.308 64.0379C256.471 63.9184 256.635 63.8051 256.799 63.6918C257.157 63.44 257.529 63.2009 257.9 62.9743C259.297 62.1058 259.971 60.1232 259.027 58.6694C258.083 57.2155 256.213 56.6113 254.722 57.5428L254.715 57.5302Z" fill="#598E44"/>
<path d="M266.387 112.386C269.15 110.744 271.517 108.308 273.002 105.451C273.43 104.626 273.826 103.758 274.11 102.877C274.689 101.07 273.914 99.0563 272.133 98.3073C271.063 97.8542 269.912 97.9864 268.911 98.5591C268.162 98.9934 267.696 99.7171 267.193 100.391C266.689 101.064 266.23 101.7 265.77 102.367C264.7 103.921 263.719 105.539 262.819 107.194C262.032 108.642 262.416 110.687 263.945 111.499C265.475 112.311 267.413 111.914 268.25 110.372C269.628 107.836 271.202 105.413 272.964 103.128L272.473 103.764C272.555 103.663 272.631 103.581 272.731 103.5L272.096 103.991L272.196 103.928L271.447 104.242L271.554 104.198L270.717 104.312L270.824 104.299L269.987 104.186L270.094 104.211L269.345 103.896L269.427 103.94L268.791 103.449L268.854 103.512L268.363 102.877L268.407 102.952L268.093 102.203C268.118 102.26 268.131 102.323 268.137 102.379L268.024 101.542C268.024 101.612 268.024 101.674 268.024 101.744L268.137 100.907C268.074 101.265 267.917 101.612 267.778 101.945L268.093 101.196C267.589 102.379 266.941 103.487 266.154 104.507L266.645 103.871C265.877 104.847 265.003 105.721 264.021 106.483L264.656 105.992C264.197 106.338 263.725 106.659 263.228 106.955C261.812 107.798 261.17 109.825 262.101 111.26C263.033 112.695 264.896 113.293 266.406 112.386H266.387Z" fill="#598E44"/>
<path d="M263.85 78.3626C258.972 82.5857 254.371 87.1172 250.073 91.9319C248.978 93.1592 248.77 95.1858 250.073 96.3816C251.269 97.483 253.352 97.6907 254.522 96.3816C258.821 91.5669 263.422 87.0354 268.299 82.8123C269.546 81.7298 269.489 79.4577 268.299 78.3626C266.971 77.1416 265.184 77.2109 263.85 78.3626Z" fill="#73B25F"/>
</svg>
