<svg width="279" height="178" viewBox="0 0 279 178" fill="none" xmlns="http://www.w3.org/2000/svg">
<path d="M218.936 104.285C232.488 100.308 250.267 105.386 263.098 111.292C268.353 113.713 273.863 117.098 275.508 122.643C277.23 128.431 274.135 134.503 270.632 139.421C268.258 142.753 265.317 146.121 261.304 146.932C255.67 148.068 251.113 145.073 246.154 142.162C243.585 140.658 240.289 138.22 237.88 136.474C234.761 134.213 232.346 131.142 229.802 128.242C225.7 123.561 221.179 119.246 216.314 115.358L226.032 126.182C226.452 133.639 226.109 144.434 223.7 151.501C222.984 153.596 222.12 155.703 220.575 157.289C218.616 159.307 215.823 160.236 213.142 161.082C206.04 163.313 198.488 165.438 191.25 163.686C195.274 150.305 196.417 135.894 198.216 122.034" fill="#D6BF5F"/>
<path d="M219.72 107.137C220.803 106.823 221.898 106.563 223.004 106.361C223.478 106.273 224.105 106.054 224.584 106.107C224.573 106.107 224.016 106.172 224.365 106.137C224.519 106.119 224.673 106.101 224.821 106.083C225.129 106.048 225.437 106.018 225.744 105.994C228.07 105.793 230.414 105.787 232.746 105.923C233.923 105.994 235.101 106.101 236.267 106.243C236.498 106.273 237.19 106.338 236.581 106.279C236.865 106.308 237.155 106.361 237.439 106.403C238.054 106.498 238.664 106.598 239.274 106.705C241.688 107.137 244.085 107.687 246.452 108.332C248.82 108.977 251.039 109.682 253.288 110.481C254.424 110.883 255.555 111.303 256.673 111.747C257.188 111.948 257.697 112.155 258.206 112.363C258.461 112.469 258.709 112.57 258.964 112.676C258.94 112.664 258.484 112.469 258.792 112.605C258.969 112.682 259.147 112.759 259.325 112.83C261.337 113.7 263.331 114.611 265.237 115.695C266.166 116.221 267.077 116.795 267.947 117.417C268.066 117.5 268.646 117.938 268.35 117.713C268.054 117.488 268.622 117.938 268.729 118.026C269.143 118.375 269.539 118.736 269.924 119.115C270.279 119.464 270.617 119.831 270.93 120.21C271.404 120.778 270.747 119.932 271.055 120.358C271.22 120.589 271.38 120.814 271.534 121.051C271.818 121.494 272.072 121.956 272.303 122.435C272.605 123.063 272.203 122.116 272.38 122.607C272.475 122.879 272.576 123.146 272.658 123.424C272.741 123.702 272.812 123.986 272.877 124.27C272.925 124.495 273.073 125.181 272.954 124.578C273.067 125.164 273.055 125.809 273.037 126.401C273.031 126.685 273.014 126.969 272.99 127.253C272.978 127.407 272.978 127.596 272.937 127.738C272.942 127.714 273.031 127.211 272.954 127.561C272.824 128.164 272.718 128.774 272.552 129.372C272.386 129.969 272.185 130.573 271.96 131.159C271.907 131.301 271.569 132.07 271.824 131.514C271.682 131.822 271.546 132.135 271.398 132.443C270.853 133.562 270.238 134.651 269.575 135.704C268.912 136.758 268.255 137.705 267.545 138.663C267.462 138.782 266.853 139.539 267.308 138.983C267.16 139.16 267.018 139.344 266.87 139.521C266.48 139.995 266.071 140.462 265.645 140.906C265.278 141.291 264.894 141.67 264.491 142.025C264.29 142.202 264.089 142.368 263.882 142.54C263.615 142.765 264.03 142.427 264.036 142.421C264.006 142.51 263.669 142.682 263.58 142.747C263.148 143.037 262.704 143.303 262.236 143.534C261.568 143.865 262.526 143.463 262.029 143.641C261.751 143.741 261.467 143.842 261.183 143.919C260.881 144.002 260.573 144.067 260.266 144.126C259.686 144.244 260.609 144.114 260.029 144.161C259.366 144.215 258.709 144.232 258.046 144.191C257.916 144.185 257.099 144.073 257.478 144.144C257.857 144.215 257.454 144.132 257.395 144.12C257.235 144.09 257.082 144.061 256.922 144.025C256.33 143.901 255.75 143.735 255.182 143.54C254.915 143.451 254.649 143.351 254.383 143.25C254.229 143.191 254.081 143.132 253.927 143.066C253.963 143.078 254.371 143.268 254.069 143.12C253.507 142.847 252.939 142.593 252.382 142.303C251.24 141.711 250.128 141.054 249.015 140.403C246.967 139.196 244.979 137.923 243.043 136.55C242.055 135.852 241.073 135.136 240.09 134.42C239.883 134.266 239.676 134.118 239.469 133.964C239.35 133.875 238.717 133.366 239.167 133.739C238.676 133.325 238.185 132.923 237.717 132.485C235.865 130.762 234.237 128.815 232.58 126.904C229.136 122.921 225.425 119.186 221.436 115.754C220.442 114.901 219.436 114.067 218.418 113.25C217.21 112.286 215.393 111.984 214.233 113.25C213.073 114.517 213.127 116.203 214.233 117.434C217.062 120.583 219.891 123.732 222.72 126.886C223.134 127.342 223.543 127.803 223.957 128.259L223.093 126.164C223.294 129.827 223.3 133.508 223.105 137.172C223.004 139.083 222.827 140.989 222.602 142.889C222.507 143.688 222.696 142.244 222.584 143.037C222.549 143.268 222.519 143.498 222.483 143.729C222.424 144.108 222.365 144.487 222.3 144.866C222.134 145.818 221.945 146.765 221.726 147.706C221.531 148.523 221.312 149.334 221.057 150.133C220.945 150.482 220.832 150.825 220.708 151.169C220.625 151.399 220.542 151.636 220.453 151.867C220.406 151.985 219.986 152.956 220.282 152.305C219.868 153.198 219.418 154.068 218.832 154.856C219.246 154.299 218.743 154.933 218.672 155.009C218.56 155.128 218.447 155.246 218.335 155.359C218.163 155.524 217.98 155.678 217.802 155.838C217.542 156.045 217.554 156.039 217.838 155.814C217.707 155.909 217.577 155.998 217.447 156.087C217.045 156.347 216.63 156.584 216.204 156.803C215.991 156.909 215.772 157.01 215.553 157.116C214.831 157.466 216.121 156.909 215.37 157.193C214.458 157.537 213.541 157.856 212.612 158.146C210.475 158.821 208.333 159.472 206.161 160.028C204.888 160.354 203.604 160.644 202.314 160.874C202.036 160.922 201.764 160.969 201.485 161.017C201.373 161.034 200.249 161.188 200.894 161.105C200.343 161.17 199.793 161.23 199.237 161.271C197.952 161.372 196.662 161.389 195.378 161.318C195.106 161.301 194.827 161.283 194.555 161.259C194.443 161.247 193.324 161.099 193.975 161.2C193.336 161.099 192.703 160.975 192.07 160.827L194.135 164.467C197.355 153.707 198.722 142.51 200.059 131.396C200.432 128.271 200.805 125.152 201.207 122.033C201.409 120.494 199.704 119.009 198.248 119.074C196.473 119.151 195.502 120.382 195.289 122.033C194.585 127.46 193.987 132.899 193.283 138.326C193.241 138.651 193.2 138.971 193.158 139.297C193.141 139.433 193.123 139.575 193.105 139.711C193.176 139.172 193.111 139.658 193.099 139.758C193.005 140.451 192.91 141.143 192.809 141.835C192.62 143.173 192.419 144.505 192.206 145.842C191.774 148.547 191.282 151.24 190.714 153.921C190.069 156.945 189.323 159.939 188.436 162.899C187.992 164.39 188.968 166.177 190.501 166.538C198.325 168.379 206.22 166.361 213.701 164.017C217.056 162.964 220.649 161.756 223.04 159.022C225.431 156.288 226.52 153.021 227.342 149.713C228.899 143.457 229.254 136.84 229.171 130.419C229.153 129.011 229.141 127.59 229.029 126.188C228.946 125.14 228.461 124.43 227.81 123.702L224.951 120.518C222.785 118.103 220.613 115.689 218.447 113.274L214.263 117.458C218.631 120.956 222.726 124.785 226.49 128.928C228.301 130.916 229.988 133.017 231.834 134.976C233.681 136.935 235.794 138.58 237.983 140.166C242.114 143.161 246.435 146.162 251.116 148.245C253.708 149.399 256.436 150.233 259.307 150.139C262.177 150.044 264.805 149.204 267.06 147.541C269.315 145.878 271.043 143.877 272.688 141.658C274.239 139.563 275.665 137.343 276.76 134.976C277.997 132.301 278.884 129.502 278.985 126.531C279.08 123.814 278.387 121.074 277.062 118.707C274.671 114.452 270.38 111.569 266.107 109.451C261.65 107.243 256.957 105.403 252.229 103.876C242.458 100.721 231.805 98.8038 221.584 100.644C220.436 100.852 219.305 101.118 218.187 101.443C216.701 101.875 215.624 103.55 216.121 105.083C216.618 106.616 218.169 107.61 219.761 107.149L219.72 107.137Z" fill="#D6BF5F"/>
<path d="M202.953 133.874C203.332 138.094 203.486 142.349 203.012 146.569C202.995 146.717 202.947 147.439 202.965 146.989C202.983 146.539 202.935 147.172 202.918 147.297C202.847 147.758 202.77 148.22 202.687 148.682C202.527 149.557 202.338 150.433 202.119 151.297C201.675 153.073 201.119 154.819 200.497 156.535C200.112 157.594 199.698 158.642 199.272 159.684C199.171 159.926 199.077 160.181 198.964 160.423C199.242 159.837 198.893 160.583 198.805 160.79C198.55 161.382 198.29 161.974 198.029 162.566C197.402 163.974 197.574 165.809 199.089 166.614C200.373 167.294 202.468 167.064 203.137 165.555C204.841 161.708 206.498 157.808 207.599 153.736C208.7 149.664 209.167 145.782 209.215 141.745C209.25 139.118 209.096 136.49 208.866 133.874C208.729 132.335 207.605 130.838 205.906 130.915C204.421 130.98 202.799 132.223 202.947 133.874H202.953Z" fill="#B7A142"/>
<path d="M211.945 133.475C212.643 135.86 213.217 138.287 213.584 140.749C213.619 140.98 213.684 141.518 213.619 140.98C213.661 141.317 213.702 141.654 213.732 141.992C213.791 142.578 213.838 143.164 213.868 143.755C213.933 144.874 213.945 145.998 213.898 147.123C213.874 147.661 213.844 148.194 213.797 148.727C213.767 149.058 213.732 149.384 213.696 149.709C213.608 150.532 213.803 149.082 213.673 149.904C213.489 151.053 213.264 152.189 212.962 153.319C212.661 154.45 212.282 155.598 211.844 156.705C211.82 156.764 211.489 157.551 211.743 156.959C211.601 157.279 211.459 157.604 211.311 157.924C211.045 158.492 210.761 159.054 210.465 159.604C209.737 160.972 210.074 162.889 211.524 163.653C212.897 164.375 214.797 164.049 215.572 162.593C218.094 157.864 219.561 152.727 219.81 147.371C220.058 142.015 219.106 136.896 217.65 131.907C217.218 130.422 215.549 129.344 214.01 129.842C212.471 130.339 211.477 131.889 211.945 133.481V133.475Z" fill="#B7A142"/>
<path d="M230.894 121.005C231.468 121.194 232.042 121.401 232.604 121.626C232.729 121.673 232.965 121.721 233.06 121.81C233.024 121.774 232.409 121.526 232.9 121.745C233.237 121.892 233.575 122.046 233.912 122.2C235.114 122.768 236.291 123.39 237.445 124.059C239.961 125.509 242.363 127.148 244.695 128.876C245.263 129.296 245.826 129.722 246.382 130.148C245.879 129.764 246.311 130.095 246.435 130.19C246.589 130.314 246.749 130.433 246.903 130.557C247.216 130.799 247.524 131.048 247.832 131.297C249.01 132.238 250.17 133.196 251.318 134.167C253.59 136.084 255.822 138.049 258.041 140.026C260.29 142.026 262.521 144.05 264.794 146.027C265.96 147.045 267.847 147.258 268.978 146.027C270.002 144.914 270.227 142.926 268.978 141.843C259.988 134.025 251.383 125.467 241.085 119.336C238.363 117.714 235.48 116.3 232.468 115.305C230.994 114.82 229.172 115.868 228.828 117.371C228.456 118.998 229.32 120.49 230.894 121.011V121.005Z" fill="#B7A142"/>
<path d="M242.41 114.829C243.469 115.065 244.511 115.367 245.541 115.728C246.05 115.906 246.559 116.095 247.056 116.296C247.168 116.344 247.328 116.385 247.44 116.45C246.884 116.125 247.139 116.32 247.31 116.397C247.636 116.539 247.955 116.681 248.275 116.829C250.542 117.871 252.725 119.09 254.856 120.392C256.987 121.694 259.247 123.233 261.366 124.771C262.426 125.541 263.532 126.292 264.532 127.139C264.461 127.074 264.053 126.766 264.479 127.097C264.598 127.192 264.722 127.287 264.84 127.375C265.077 127.559 265.32 127.748 265.556 127.938C266.083 128.352 266.604 128.772 267.125 129.192C269.137 130.82 271.114 132.489 273.061 134.187C274.227 135.205 276.114 135.418 277.245 134.187C278.269 133.075 278.494 131.086 277.245 130.003C273.38 126.641 269.415 123.398 265.296 120.356C261.052 117.22 256.614 114.266 251.844 111.994C249.328 110.792 246.707 109.733 243.984 109.123C242.475 108.786 240.711 109.579 240.345 111.189C240.001 112.692 240.794 114.468 242.41 114.829Z" fill="#B7A142"/>
<path d="M76.7031 38.1624C81.5383 26.6277 92.7357 18.4664 104.88 15.4718C117.024 12.4771 129.962 14.1875 141.768 18.3303C145.568 19.6619 149.308 21.2598 152.599 23.5798C155.09 25.3375 157.505 28.1368 156.759 31.096C155.907 34.4635 151.729 35.5465 148.273 35.8779C144.816 36.2093 140.674 36.8367 139.283 40.0207" fill="#D6BF5F"/>
<path d="M79.2606 39.6548C79.9471 38.0332 80.7461 36.4708 81.6752 34.9735C82.1368 34.2278 82.6221 33.5057 83.137 32.7955C83.2672 32.618 83.3974 32.4464 83.5276 32.2688C83.9715 31.6652 83.1311 32.7541 83.5987 32.1741C83.8768 31.8368 84.1491 31.4935 84.4331 31.1621C85.5754 29.8246 86.8064 28.5699 88.1143 27.404C88.7594 26.824 89.4222 26.1967 90.1442 25.7055C90.0673 25.7528 89.6412 26.0842 90.0673 25.7647C90.2449 25.6344 90.4224 25.4983 90.6 25.3681C91.0142 25.0604 91.4403 24.7645 91.8665 24.4745C93.3342 23.4802 94.8611 22.5688 96.4354 21.758C97.1574 21.3851 97.8912 21.03 98.6369 20.6986C98.8382 20.6098 99.0453 20.5211 99.2465 20.4323C99.939 20.1246 98.6547 20.6631 99.359 20.385C99.8384 20.1956 100.318 20.0003 100.809 19.8227C102.484 19.2013 104.2 18.6805 105.934 18.2662C106.899 18.0354 107.875 17.8283 108.852 17.6566C109.384 17.5619 109.923 17.4791 110.456 17.3962C111.343 17.2542 109.852 17.4613 110.74 17.3548C111.053 17.3193 111.367 17.2779 111.681 17.2424C115.948 16.7807 120.268 16.834 124.535 17.2956C124.807 17.3252 125.074 17.3548 125.346 17.3903C125.423 17.4022 126.317 17.5146 125.642 17.4258C126.18 17.4968 126.719 17.5797 127.258 17.6685C128.335 17.8401 129.412 18.0413 130.477 18.2603C132.614 18.7042 134.738 19.2368 136.833 19.8523C138.928 20.4678 140.947 21.1425 142.959 21.9119C143.45 22.1013 143.935 22.2966 144.426 22.4919C145.208 22.8055 144.101 22.338 144.569 22.551C144.77 22.6398 144.971 22.7286 145.172 22.8174C146.208 23.2849 147.232 23.788 148.226 24.3384C149.066 24.8059 149.889 25.303 150.682 25.8416C150.889 25.9836 151.09 26.1316 151.298 26.2736C151.931 26.7116 150.854 25.8653 151.44 26.3861C151.854 26.753 152.274 27.114 152.653 27.5224C152.789 27.6644 152.907 27.8242 153.043 27.9662C153.363 28.2858 152.677 27.3981 153.085 28.0136C153.268 28.2917 153.777 28.8421 153.783 29.1854L153.665 28.8836C153.718 29.0197 153.766 29.1558 153.813 29.2978C153.848 29.4044 154.02 29.8246 153.973 29.9311L153.925 29.576C153.937 29.718 153.943 29.866 153.943 30.008C153.943 30.156 153.937 30.298 153.919 30.446C153.979 30.0672 153.979 29.9844 153.931 30.2093C153.878 30.3572 153.842 30.5229 153.801 30.6768C153.689 30.9727 153.718 30.9076 153.896 30.4756C153.842 30.5821 153.789 30.6886 153.73 30.7892L153.635 30.9431C153.458 31.1976 153.511 31.1443 153.789 30.7715C153.618 30.8721 153.458 31.1503 153.31 31.2923L153.18 31.4107C152.943 31.6119 153.002 31.5705 153.357 31.2864C153.209 31.2982 152.884 31.606 152.748 31.6888C152.641 31.7539 152.535 31.8131 152.422 31.8723C152.31 31.9315 152.197 31.9847 152.085 32.0439C151.795 32.1741 151.854 32.1504 152.268 31.9788C152.28 32.2096 149.871 32.689 149.617 32.7364C149.457 32.7659 149.291 32.7955 149.126 32.8251C149.031 32.8429 148.93 32.8547 148.836 32.8725C148.51 32.9198 148.575 32.9139 149.037 32.8488C148.741 32.7364 148.001 32.9613 147.682 32.9908C143.598 33.4229 138.644 34.3757 136.727 38.5362C136.082 39.9389 136.283 41.7913 137.786 42.5843C139.088 43.2709 141.142 43.0223 141.834 41.525C141.917 41.3474 142 41.1758 142.095 41.0101C142.142 40.9331 142.213 40.8503 142.243 40.7674C142.361 40.4893 142.112 41.0042 142.053 40.9923C142.089 40.9982 142.379 40.6254 142.426 40.584C142.527 40.4834 142.959 39.9921 142.687 40.3295C142.438 40.6313 142.775 40.2821 142.923 40.1874C143.083 40.0868 143.249 39.9981 143.42 39.9093C143.533 39.8501 144.095 39.643 143.681 39.7732C143.267 39.9034 143.941 39.6844 144.065 39.643C144.87 39.3766 145.705 39.1932 146.539 39.0511C146.741 39.0156 146.948 38.986 147.149 38.9564C147.486 38.9032 146.865 38.992 146.871 38.992C146.971 38.992 147.078 38.9683 147.173 38.9564C147.599 38.9091 148.031 38.8677 148.457 38.8203C152.292 38.4238 156.636 37.3881 158.784 33.8431C159.974 31.8782 160.175 29.3215 159.317 27.1969C158.411 24.9361 156.855 23.1429 154.943 21.6692C151.303 18.858 146.977 17.0411 142.669 15.5261C133.957 12.4486 124.594 10.6672 115.321 11.0519C106.905 11.401 98.5955 13.5494 91.3101 17.8283C84.6876 21.7166 78.8818 27.3271 75.319 34.1804C74.8929 34.9912 74.5082 35.8257 74.1531 36.672C73.8276 37.4355 73.6264 38.1161 73.8572 38.9505C74.0466 39.637 74.5792 40.3827 75.2184 40.7201C76.4849 41.3888 78.6214 41.1817 79.2665 39.6607L79.2606 39.6548Z" fill="#D6BF5F"/>
<path d="M60 135.687C76.1331 127.668 92.3787 119.601 109.696 114.618C127.012 109.635 145.649 107.854 163.049 112.541C172.216 115.009 180.851 119.211 190.042 121.566C192.196 122.117 194.492 122.567 196.617 121.898C198.357 121.353 199.777 120.116 201.144 118.909C206.998 113.76 212.845 108.605 218.698 103.456C214.845 95.5082 210.939 87.4831 205.376 80.6298C196.41 69.5922 183.727 62.2891 171.026 55.8914C143.299 41.9303 111.891 30.8986 81.5957 37.681C71.6057 39.9181 62.1424 44.0194 52.7501 48.0971C51.2883 48.7304 49.5957 49.7069 49.6016 51.2989L60 135.687Z" fill="#8673E5"/>
<path d="M61.4975 138.245C66.5339 135.741 71.5704 133.238 76.6482 130.823C79.1872 129.616 81.7379 128.432 84.3006 127.278C85.6085 126.692 86.9164 126.118 88.2303 125.55C89.5441 124.982 90.2188 124.698 91.6214 124.124C102.014 119.857 112.75 116.318 123.834 114.359C125.184 114.122 126.533 113.903 127.889 113.714C128.042 113.69 128.202 113.672 128.356 113.648C128.22 113.666 127.889 113.708 128.51 113.631C128.824 113.589 129.137 113.554 129.451 113.512C130.179 113.424 130.913 113.347 131.641 113.27C134.405 112.997 137.18 112.826 139.956 112.784C142.731 112.743 145.495 112.808 148.253 113.015C149.603 113.116 150.952 113.246 152.301 113.412C152.508 113.435 152.716 113.465 152.923 113.489C152.852 113.477 152.562 113.441 152.911 113.489C153.219 113.53 153.532 113.577 153.84 113.625C154.562 113.737 155.284 113.856 156 113.986C167.061 115.986 177.117 121.064 187.888 124.053C190.794 124.858 193.818 125.568 196.824 124.905C199.831 124.242 201.961 122.129 204.122 120.23C208.596 116.294 213.064 112.358 217.538 108.417C218.627 107.458 219.71 106.505 220.799 105.546C221.888 104.588 221.811 103.096 221.261 101.96C218.16 95.5682 215.047 89.1469 211.022 83.276C206.998 77.4051 202.512 72.706 197.185 68.4567C186.521 59.9521 174.086 53.7616 161.717 48.1511C148.608 42.2092 134.961 37.1846 120.763 34.5983C106.601 32.0121 92.018 31.8641 78.0213 35.4979C70.6412 37.4154 63.563 40.268 56.5617 43.2508C54.8927 43.961 53.2238 44.683 51.5608 45.4051C49.8977 46.1271 48.4359 46.9971 47.4831 48.4885C46.9031 49.3999 46.5776 50.5007 46.6841 51.5837C47.0155 54.9335 47.5067 58.2773 47.921 61.6211C48.7318 68.1844 49.5367 74.7537 50.3475 81.317C51.2944 88.9989 52.2414 96.6749 53.1883 104.357C54.0109 111.044 54.8335 117.732 55.6621 124.42C56.106 128.006 56.5439 131.599 56.9878 135.185C57.0055 135.351 57.0292 135.516 57.047 135.682C57.2364 137.215 58.2721 138.718 60.0061 138.641C61.4442 138.576 63.1665 137.327 62.9652 135.682C62.6634 133.238 62.3616 130.8 62.0597 128.355C61.32 122.372 60.5861 116.389 59.8463 110.405C58.9231 102.901 57.9939 95.3907 57.0706 87.8863C56.2066 80.8495 55.3366 73.8127 54.4725 66.7818C53.9162 62.2898 53.3658 57.7979 52.8095 53.3119C52.7977 53.1935 52.6379 51.3056 52.5609 51.2996C52.5491 51.1813 52.5254 51.2996 52.4958 51.6488C52.6142 51.1458 52.4603 51.6666 52.413 51.7554C52.6201 51.3233 52.4071 51.7317 52.3183 51.8264C52.4189 51.7139 52.5254 51.6133 52.632 51.5068C52.9989 51.1399 52.6793 51.4831 52.5787 51.5423C52.7148 51.4594 52.845 51.3707 52.9811 51.2878C53.3185 51.0866 53.6736 50.909 54.0346 50.7492C55.6562 50.0095 57.3074 49.3229 58.9467 48.6246C60.4736 47.9736 61.8112 47.4054 63.563 46.6952C65.3148 45.9851 67.0311 45.3104 68.7829 44.6594C72.2273 43.381 75.7191 42.227 79.2759 41.2919C80.9922 40.8421 82.7263 40.4396 84.4663 40.0964C85.2593 39.9425 86.0583 39.7946 86.8572 39.6644C87.2538 39.5993 87.6562 39.5342 88.0527 39.475C88.2539 39.4454 88.4492 39.4158 88.6505 39.3862C88.6623 39.3862 89.6033 39.256 89.0588 39.327C95.8826 38.4511 102.777 38.386 109.625 39.0015C110.477 39.0784 111.329 39.1672 112.176 39.2619C112.578 39.3093 112.974 39.3566 113.377 39.404C113.578 39.4276 113.779 39.4572 113.975 39.4809L114.277 39.5223C114.04 39.4927 114.028 39.4868 114.241 39.5223C115.993 39.7827 117.739 40.049 119.479 40.3745C122.882 41.0019 126.255 41.7772 129.599 42.6649C136.405 44.4759 143.075 46.7663 149.614 49.3821C152.899 50.696 155.616 51.8678 159.001 53.4065C162.173 54.8506 165.316 56.3538 168.434 57.9103C174.294 60.834 180.093 63.8996 185.609 67.4328C187.006 68.3265 188.385 69.2556 189.74 70.2203C191.095 71.185 192.202 72.0195 193.214 72.8303C195.712 74.8366 198.091 76.9908 200.292 79.3226C202.737 81.9089 204.423 84.0513 206.329 86.9039C208.235 89.7565 209.969 92.7689 211.579 95.8168C213.188 98.8647 214.656 101.895 216.147 104.96L216.609 101.374C212.182 105.274 207.749 109.174 203.323 113.074C202.234 114.033 201.151 114.986 200.062 115.945C199.547 116.4 199.032 116.856 198.517 117.306C198.298 117.495 198.073 117.685 197.854 117.868C197.594 118.081 197.836 117.892 197.884 117.856C197.694 118.004 197.499 118.14 197.298 118.277C197.061 118.436 196.818 118.59 196.57 118.726C196.446 118.797 196.321 118.862 196.191 118.928C196.173 118.939 195.747 119.111 196.025 119.01C196.339 118.892 195.759 119.087 195.7 119.105C195.552 119.147 195.41 119.182 195.262 119.218C195.25 119.218 194.765 119.306 195.067 119.265C195.333 119.229 194.771 119.283 194.717 119.283C194.368 119.3 194.013 119.294 193.664 119.271C193.54 119.265 192.806 119.182 193.244 119.241C192.54 119.141 191.841 118.975 191.149 118.803C180.348 116.116 170.364 110.902 159.433 108.653C148.502 106.405 136.701 106.464 125.397 108.156C114.377 109.802 103.671 113.063 93.3141 117.128C82.7026 121.295 72.4344 126.248 62.2314 131.309C60.9945 131.918 59.7635 132.534 58.5265 133.149C57.1358 133.842 56.6386 135.919 57.4672 137.197C58.3845 138.618 60.0298 138.996 61.5153 138.257L61.4975 138.245Z" fill="#8673E5"/>
<path d="M81.8994 85.1876C82.2545 92.7038 83.1126 100.19 84.462 107.588C84.5508 108.085 84.7165 108.665 85.1899 108.837C85.5391 108.961 85.9179 108.807 86.2552 108.653C97.5472 103.576 109.2 99.3026 121.102 95.8819C121.865 95.6629 122.641 95.4439 123.298 95.0001C124.943 93.8934 125.458 91.5734 124.872 89.6736C124.286 87.7798 122.812 86.2766 121.179 85.1521C115.604 81.3171 108.348 81.2875 101.583 81.3999C98.8256 81.4473 96.0677 81.4887 93.3098 81.536C89.0723 81.6071 84.2548 81.9503 81.6094 85.2586" fill="#D6BF5F"/>
<path d="M78.9377 85.1895C79.1566 89.717 79.5472 94.2326 80.1272 98.7305C80.4409 101.192 80.796 103.649 81.2103 106.099C81.3701 107.04 81.4588 108.046 81.7548 108.945C82.3229 110.662 83.761 111.893 85.6194 111.828C86.9155 111.78 88.1287 111.035 89.2946 110.52C90.4605 110.005 91.5258 109.543 92.6503 109.064C92.8219 108.993 92.9935 108.916 93.1711 108.845C92.6088 109.082 93.467 108.721 93.5025 108.709C94.0233 108.49 94.5441 108.277 95.0649 108.064C96.1065 107.637 97.1481 107.217 98.1957 106.803C102.297 105.181 106.44 103.666 110.618 102.258C112.66 101.571 114.714 100.902 116.779 100.269C118.844 99.636 121.005 99.127 123.041 98.3813C125.343 97.5409 127.053 95.9134 127.763 93.5224C128.414 91.3149 128.012 88.918 126.905 86.9354C124.869 83.2897 120.703 81.0527 116.838 79.8631C112.974 78.6735 109.05 78.4486 105.132 78.419C102.77 78.4013 100.409 78.4664 98.0477 78.5019C95.6863 78.5374 93.4551 78.5256 91.1648 78.6498C86.9806 78.8747 82.3347 79.7506 79.5295 83.1714C78.5471 84.3669 78.2748 86.2015 79.5295 87.3556C80.6125 88.3499 82.6662 88.6339 83.7137 87.3556C83.9563 87.0597 84.2108 86.7756 84.4949 86.5152C84.5955 86.4205 84.7553 86.2193 84.8796 86.1779L84.6014 86.3909C84.7139 86.314 84.8204 86.2311 84.9388 86.1601C85.2229 85.9707 85.5188 85.805 85.8206 85.6511C85.8502 85.6393 86.1283 85.4677 86.1934 85.4736C85.8028 85.6334 85.7555 85.6511 86.0573 85.5328C86.1875 85.4854 86.3177 85.4322 86.4479 85.3907C87.1167 85.1599 87.8032 84.9883 88.4957 84.8522C88.6969 84.8167 89.8332 84.574 88.9928 84.7575C89.413 84.6687 89.8687 84.6569 90.2948 84.6273C94.1239 84.3254 98.0004 84.4201 101.835 84.361C103.546 84.3314 105.256 84.3195 106.972 84.3728C107.872 84.4024 108.766 84.4497 109.665 84.5208C110.068 84.5563 110.476 84.5918 110.878 84.6391C111.032 84.6569 111.204 84.6687 111.358 84.6983C110.583 84.5503 111.624 84.7397 111.766 84.7634C113.412 85.0356 115.045 85.4322 116.607 86.0358C116.72 86.0773 117.442 86.3968 116.779 86.095C116.921 86.1601 117.069 86.2252 117.211 86.2903C117.572 86.456 117.921 86.6395 118.27 86.8289C118.655 87.0419 119.028 87.2668 119.395 87.5095C119.561 87.616 119.72 87.7344 119.88 87.8409C120.365 88.1605 119.519 87.5272 120.099 88.0125C120.425 88.2848 120.732 88.5688 121.022 88.8766C121.129 88.989 121.23 89.1015 121.33 89.2198C121.833 89.7762 121.022 88.7109 121.425 89.3441C121.591 89.6045 121.969 90.0247 121.993 90.3266C121.952 89.7702 121.91 90.1135 121.993 90.3561C122.023 90.4449 122.236 91.0072 122.176 91.0663C122.259 90.9894 122.123 90.4035 122.153 91.0012C122.159 91.1729 122.153 91.3445 122.153 91.522C122.176 92.1967 122.342 90.9065 122.153 91.5576C122.117 91.6878 122.094 91.8239 122.052 91.9541L121.993 92.1494C121.881 92.4512 121.898 92.4039 122.058 92.0073C122.034 92.0192 121.892 92.3033 121.863 92.3624C121.591 92.9188 122.307 91.9955 121.839 92.3979C121.744 92.4986 121.65 92.5873 121.549 92.6761L121.821 92.4571C121.774 92.5814 121.312 92.7471 121.2 92.8004C121.774 92.5163 121.295 92.7471 121.129 92.8004C120.732 92.9306 120.324 93.043 119.922 93.1555C118.886 93.4573 117.85 93.7591 116.82 94.0728C114.932 94.641 113.056 95.2328 111.186 95.8483C103.362 98.4109 95.6745 101.358 88.1228 104.631C87.0871 105.081 86.0632 105.542 85.0335 105.992C84.8914 106.057 84.4357 106.199 85.0631 105.974C86.3177 105.874 87.1226 106.341 87.4718 107.383C87.4304 107.259 87.3949 107.134 87.3653 107.004C87.241 106.477 87.164 105.927 87.0753 105.389C86.88 104.246 86.6906 103.104 86.519 101.962C86.4302 101.388 86.3473 100.82 86.2645 100.246C86.2349 100.056 86.2112 99.8609 86.1816 99.6715C86.1579 99.4821 86.1284 99.2868 86.1047 99.0974C86.1461 99.4052 86.1461 99.3815 86.0988 99.0264C85.5188 94.4338 85.0986 89.8235 84.8737 85.1954C84.7967 83.6508 83.5657 82.1653 81.9146 82.2363C80.3758 82.3073 78.8726 83.5383 78.9554 85.1954L78.9377 85.1895Z" fill="#D6BF5F"/>
<path d="M91.0533 97.3087C91.6747 96.9655 92.302 96.634 92.9353 96.3263C93.2963 96.1547 93.6573 95.983 94.0183 95.8232C94.1781 95.7522 94.3438 95.6812 94.5036 95.6102C94.9297 95.4267 94.1012 95.7641 94.5332 95.5983C95.9062 95.0835 97.2674 94.5804 98.6819 94.1898C100.096 93.7992 101.434 93.5151 102.837 93.2902C103.014 93.2606 103.186 93.237 103.363 93.2133C103.079 93.2488 103.073 93.2606 103.363 93.2133C103.76 93.1659 104.156 93.1245 104.553 93.089C105.304 93.0239 106.056 92.9825 106.808 92.9588C108.352 92.9115 109.838 91.6331 109.767 89.9997C109.696 88.3662 108.465 86.9873 106.808 87.0406C100.238 87.2477 93.8053 89.0113 88.0586 92.2013C86.7034 92.9529 86.147 94.9296 86.9993 96.2494C87.8515 97.5691 89.5974 98.1136 91.0474 97.3087H91.0533Z" fill="#8673E5"/>
<path d="M50.4609 48.7676C39.447 50.7739 30.9661 59.4737 24.1365 68.3393C12.5485 83.3775 3.13257 101.138 2.96094 120.124C5.47028 121.663 8.69573 120.39 11.3471 119.1C19.4788 115.147 32.2622 108.299 41.9978 107.832L36.0795 115.526C28.3858 120.852 21.781 120.68 11.3294 127.93C21.923 129.806 39.7311 136.719 50.4905 136.825C52.2186 136.843 56.2903 136.541 57.7936 135.689C60.0662 134.399 61.0841 130.463 61.7292 127.93C67.0616 107.009 64.7534 86.2005 59.5395 65.2499C58.0126 59.1127 55.7044 52.6263 50.449 49.1108" fill="#D6BF5F"/>
<path d="M49.6721 45.9141C37.6935 48.1512 28.7747 57.508 21.6492 66.7523C14.0442 76.624 7.49269 87.4662 3.56297 99.3501C1.35546 106.038 0.0771134 113.074 0.000176072 120.123C-0.0116604 121.159 0.574247 122.159 1.4679 122.68C4.82947 124.621 8.54614 123.603 11.8485 122.124C14.1626 121.088 16.4115 119.892 18.6841 118.786C21.2171 117.549 23.762 116.347 26.3483 115.235C26.4962 115.17 26.6382 115.11 26.7862 115.045C27.2301 114.856 26.1293 115.318 26.8454 115.022C27.1413 114.903 27.4313 114.779 27.7272 114.661C28.4256 114.377 29.1239 114.098 29.8282 113.832C31.1775 113.323 32.5387 112.844 33.9177 112.423C35.2967 112.003 36.7881 111.595 38.2499 111.293C38.8831 111.163 39.6998 110.879 40.3449 110.926C39.6702 110.873 40.0194 110.968 40.2739 110.938C40.4751 110.914 40.6764 110.891 40.8835 110.873C41.2504 110.837 41.6174 110.814 41.9784 110.796L39.4217 106.345C37.4509 108.908 35.4742 111.477 33.5034 114.039L34.5628 112.98C33.1661 113.944 31.6984 114.797 30.1774 115.554C29.4613 115.909 28.7392 116.235 28.0113 116.554C27.9403 116.584 27.8041 116.614 27.7509 116.667C27.745 116.667 28.3249 116.43 28.0231 116.554C27.8456 116.625 27.6739 116.696 27.4964 116.773C27.1176 116.927 26.7329 117.081 26.3542 117.229C22.9393 118.573 19.5067 119.863 16.234 121.538C14.0087 122.674 11.8722 123.976 9.81856 125.396C8.81838 126.083 8.23839 127.101 8.4041 128.344C8.54614 129.415 9.38653 130.598 10.5228 130.806C18.6308 132.256 26.4725 135.043 34.4326 137.097C38.5813 138.168 42.7655 139.097 47.0266 139.576C48.6778 139.76 50.3349 139.855 51.9921 139.76C53.9569 139.647 56.0757 139.505 57.9399 138.837C62.4733 137.221 63.7516 132.078 64.7814 127.882C66.1604 122.254 67.0244 116.489 67.4387 110.707C68.2436 99.3915 67.1605 88.0225 65.0951 76.8903C64.1186 71.6349 63.0414 66.3321 61.4849 61.2128C60.1237 56.7445 58.1648 52.2703 54.8151 48.9206C53.9392 48.0447 52.9508 47.2694 51.927 46.5711C50.6427 45.6952 48.5891 46.287 47.8789 47.6304C47.0858 49.1277 47.5711 50.7493 48.9382 51.6785C49.1513 51.8265 49.3644 51.9744 49.5715 52.1283C49.8437 52.3236 49.4235 52.0099 49.4058 52.004C49.5123 52.0514 49.6662 52.2171 49.7431 52.2881C50.1278 52.6195 50.5007 52.9746 50.8558 53.3415C51.2108 53.7085 51.5363 54.0991 51.8619 54.4897C52.1874 54.8803 51.56 54.0754 51.9921 54.6731C52.14 54.8803 52.288 55.0933 52.43 55.3064C53.0218 56.2001 53.5426 57.1411 54.0102 58.1057C54.1226 58.3425 54.2351 58.5792 54.3416 58.8159C54.454 59.0704 54.6198 59.4077 54.4008 58.9343C54.6375 59.4433 54.821 59.9877 55.0163 60.5204C56.6971 65.1544 57.6913 70.0784 58.6797 74.8958C59.2242 77.5472 59.7154 80.2045 60.1415 82.8796C60.248 83.5424 60.3486 84.2112 60.4433 84.874C60.4848 85.1581 60.5262 85.4422 60.5676 85.7262C60.5913 85.9156 60.6209 86.105 60.6445 86.2944C60.6031 85.9748 60.6268 86.1405 60.6505 86.3595C60.8221 87.6852 60.976 89.0168 61.1121 90.3484C61.6566 95.6867 61.8874 101.066 61.7217 106.428C61.6388 109.139 61.4494 111.849 61.1594 114.542C61.0943 115.158 61.0174 115.779 60.9405 116.395C60.9227 116.537 60.9049 116.679 60.8872 116.821C60.9582 116.306 60.8872 116.797 60.8754 116.886C60.8221 117.265 60.7629 117.643 60.7096 118.028C60.5025 119.366 60.2717 120.691 60.0113 122.017C59.5556 124.337 59.0348 126.651 58.3838 128.918C58.2536 129.367 58.1175 129.817 57.9636 130.255C57.8866 130.48 57.8038 130.705 57.7209 130.924C57.4724 131.581 57.9281 130.504 57.6262 131.155C57.4487 131.539 57.2534 131.924 57.0344 132.285C56.9693 132.392 56.8924 132.498 56.8273 132.605C56.7207 132.788 56.6201 132.729 56.8391 132.605C57.0581 132.48 56.9752 132.451 56.8391 132.593C56.7385 132.699 56.6438 132.812 56.5373 132.918C56.4781 132.978 56.4071 133.037 56.3479 133.096C56.0934 133.362 56.2591 132.96 56.5432 132.954C56.4603 132.954 56.2236 133.137 56.1526 133.191C55.8508 133.404 56.845 132.972 56.2769 133.131C56.0697 133.191 55.8626 133.262 55.6495 133.315C55.2649 133.416 54.8683 133.492 54.4777 133.564C54.3771 133.581 53.6018 133.688 54.093 133.629C54.5843 133.569 53.732 133.67 53.5959 133.682C51.9802 133.853 50.3586 133.895 48.737 133.788C47.8966 133.729 47.003 133.51 46.1685 133.528C46.1567 133.528 46.8136 133.623 46.4762 133.569C46.3815 133.552 46.2809 133.54 46.1862 133.528C45.9614 133.492 45.7305 133.463 45.5056 133.421C45.0085 133.345 44.5114 133.256 44.0142 133.167C42.0494 132.812 40.1023 132.374 38.1611 131.9C30.2188 129.965 22.4659 127.296 14.4821 125.544C13.6832 125.367 12.8842 125.207 12.0793 125.065L12.7836 130.474C15.8552 128.355 19.1043 126.539 22.5251 125.047C22.7144 124.964 22.9097 124.87 23.105 124.799C22.4244 125.059 22.8979 124.887 23.0695 124.816C23.4128 124.674 23.7561 124.532 24.1052 124.396C24.8036 124.118 25.5079 123.84 26.2121 123.568C27.7213 122.982 29.2304 122.384 30.7159 121.751C32.0179 121.194 33.2963 120.597 34.5332 119.916C35.9713 119.129 37.6107 118.277 38.6168 116.969C39.5519 115.755 40.481 114.542 41.4161 113.335C42.4459 111.991 43.4757 110.654 44.5114 109.31C45.8785 107.529 44.0261 104.748 41.9547 104.86C36.433 105.15 31.0947 106.908 26.0109 108.979C20.9212 111.056 16.0091 113.489 11.0792 115.915C10.4755 116.211 9.87183 116.513 9.26225 116.797C9.07878 116.886 8.8894 116.969 8.70593 117.052C8.19104 117.288 8.94858 116.969 8.61124 117.087C8.22063 117.223 7.84187 117.383 7.44534 117.501C7.04882 117.62 6.66413 117.726 6.26761 117.803C6.00721 117.856 5.70537 118.07 6.2321 117.821C6.08414 117.892 5.80599 117.851 5.65211 117.851C5.52783 117.851 5.17865 117.904 5.07804 117.833L5.41538 117.886C5.30293 117.868 5.19049 117.845 5.08396 117.821C4.94192 117.785 4.64601 117.756 4.53948 117.661L4.82355 117.78C4.68152 117.708 4.5454 117.637 4.40928 117.555L5.877 120.111C5.89476 118.602 5.95986 117.099 6.09006 115.602C6.14924 114.897 6.22026 114.193 6.30904 113.489C6.33271 113.282 6.3623 113.074 6.38597 112.867C6.37414 112.974 6.2972 113.483 6.38597 112.915C6.44516 112.5 6.50434 112.092 6.57536 111.684C7.04882 108.772 7.7235 105.89 8.56389 103.061C8.97817 101.658 9.4398 100.273 9.93693 98.9003C10.1914 98.1901 10.4577 97.4858 10.7359 96.7875C10.8602 96.4738 10.9845 96.166 11.1087 95.8524C11.1738 95.6985 11.233 95.5446 11.2981 95.3848C11.3277 95.3138 11.6591 94.5385 11.3869 95.1659C12.5765 92.4198 13.8726 89.7211 15.2989 87.0874C18.1811 81.761 21.513 76.6891 25.1291 71.8361C25.5315 71.2975 25.9399 70.759 26.3483 70.2263C26.4489 70.0902 26.5554 69.96 26.656 69.8239C26.2654 70.3329 26.5968 69.9067 26.6915 69.7765C26.9342 69.4688 27.1768 69.161 27.4195 68.8533C28.2776 67.7762 29.1535 66.7109 30.059 65.6752C31.9173 63.5328 33.8881 61.4732 36.0009 59.5853C36.5809 59.0645 37.1787 58.5555 37.7823 58.0643C37.9007 57.9637 38.025 57.869 38.1433 57.7743C38.2617 57.6796 38.8358 57.2476 38.2795 57.6619C38.5872 57.4311 38.895 57.1943 39.2145 56.9694C40.4574 56.0699 41.7535 55.2413 43.1028 54.5015C43.7361 54.1523 44.3871 53.8268 45.044 53.5191C45.2157 53.4362 45.3932 53.3652 45.5648 53.2824C46.0797 53.0456 45.2512 53.4007 45.5944 53.2646C45.9377 53.1285 46.3046 52.9805 46.6597 52.8503C48.1393 52.3058 49.6603 51.8975 51.2108 51.6075C52.7614 51.3175 53.7439 49.4 53.2763 47.9678C52.7496 46.3343 51.27 45.5945 49.6366 45.9023L49.6721 45.9141Z" fill="#D6BF5F"/>
<path d="M23.1884 88.0635C28.1301 91.1588 33.0008 94.3606 37.7946 97.6748C39.073 98.5566 41.1325 97.9529 41.8427 96.6154C42.6417 95.1063 42.1445 93.5083 40.7833 92.5673C35.9836 89.2531 31.1129 86.0513 26.1771 82.9561C24.8632 82.1334 22.8569 82.6365 22.129 84.0154C21.3596 85.4713 21.7857 87.1876 23.1884 88.0635Z" fill="#8673E5"/>
<path d="M30.4448 99.1473C33.2619 92.4064 36.073 85.6655 38.8901 78.9246C39.4879 77.4924 38.245 75.6104 36.8247 75.2849C35.0965 74.8884 33.8241 75.8175 33.1849 77.3504C30.3678 84.0913 27.5567 90.8321 24.7396 97.573C24.1418 99.0053 25.3847 100.887 26.805 101.213C28.5332 101.609 29.8056 100.68 30.4448 99.1473Z" fill="#8673E5"/>
<path d="M106.596 26.2321C107.123 26.0013 106.235 26.3682 106.773 26.1611C107.034 26.0605 107.294 25.9539 107.555 25.8592C108.075 25.6639 108.602 25.4805 109.135 25.3089C110.159 24.9833 111.2 24.7052 112.254 24.4744C112.763 24.3619 113.272 24.2672 113.781 24.1785C114.017 24.137 114.254 24.1015 114.491 24.066C114.609 24.0483 114.728 24.0187 114.846 24.0128C114.443 24.0364 114.55 24.0542 114.887 24.0128C115.959 23.8885 117.03 23.8175 118.107 23.7879C119.184 23.7583 120.184 23.7879 121.22 23.847C121.735 23.8766 122.256 23.924 122.77 23.9772C123.049 24.0068 123.327 24.0305 123.605 24.0719C123.581 24.0719 123.066 23.9891 123.41 24.0483C123.569 24.0719 123.723 24.0956 123.883 24.1193C126.008 24.4566 128.103 24.9893 130.133 25.7113C130.695 25.9125 131.251 26.1315 131.808 26.3564C131.263 26.1374 131.89 26.3978 132.086 26.4866C132.376 26.6168 132.666 26.7529 132.95 26.8949C134.062 27.4335 135.14 28.0431 136.187 28.7C137.501 29.5226 139.507 29.0196 140.235 27.6406C141.005 26.1848 140.573 24.4744 139.176 23.5926C130.997 18.4496 120.948 16.7925 111.502 18.6035C108.768 19.1302 106.164 20.0179 103.613 21.1246C102.187 21.7461 101.755 23.9417 102.554 25.1727C103.507 26.6523 105.075 26.8949 106.602 26.2321H106.596Z" fill="#B7A142"/>
<path d="M158.17 64.7401C159.159 65.1011 160.141 65.4739 161.112 65.8645C161.544 66.0362 161.976 66.2196 162.408 66.3972C162.81 66.5629 161.946 66.2019 162.349 66.3735C162.455 66.4209 162.562 66.4623 162.668 66.5096C162.917 66.6162 163.165 66.7286 163.42 66.8351C165.308 67.6637 167.166 68.5574 168.995 69.5043C172.688 71.4218 176.262 73.5701 179.683 75.9374C180.547 76.5352 181.399 77.1447 182.246 77.7721C182.619 78.0502 182.997 78.3284 183.364 78.6125C183.489 78.7072 183.613 78.8019 183.737 78.8965C183.713 78.8788 183.335 78.5829 183.601 78.79C183.814 78.9557 184.033 79.1274 184.246 79.2931C185.862 80.5714 187.442 81.903 188.975 83.2761C192.076 86.0576 195 89.0286 197.722 92.1771C198.485 93.0589 199.231 93.9526 199.965 94.864C200.308 95.2901 200.64 95.7162 200.977 96.1423C200.551 95.6038 201.119 96.3317 201.226 96.4678C201.391 96.6868 201.551 96.8999 201.717 97.1189C203.137 99.0245 204.481 100.978 205.753 102.978C206.582 104.28 208.422 104.931 209.801 104.037C211.103 103.197 211.754 101.386 210.861 99.9892C206.215 92.6979 200.622 85.9807 194.272 80.1098C187.921 74.2389 180.89 69.1788 173.309 65.0952C168.942 62.7456 164.39 60.7275 159.727 59.029C158.271 58.4963 156.424 59.6208 156.087 61.0944C155.708 62.7634 156.596 64.166 158.153 64.7342L158.17 64.7401Z" fill="#6558C6"/>
<path d="M50.5499 50.1531C50.6979 50.3307 50.8399 50.5141 50.9879 50.6917C51.2719 51.0349 50.7866 50.4313 50.7807 50.4253C50.8399 50.5437 50.9583 50.6562 51.0352 50.7627C51.3252 51.1533 51.6034 51.5498 51.8756 51.9522C52.4142 52.7571 52.9231 53.5916 53.3966 54.4379C53.9292 55.3908 54.4264 56.3673 54.8939 57.3556C55.1129 57.8232 55.3259 58.2907 55.5331 58.7642C55.6041 58.924 55.6692 59.0897 55.7402 59.2495C55.7166 59.2021 55.4621 58.5689 55.6455 59.0305C55.7698 59.3323 55.8941 59.6401 56.0125 59.9478C57.9359 64.8304 59.2793 69.9378 60.2736 75.0808C60.5399 76.4657 60.7826 77.8624 61.0016 79.2591C61.114 79.9752 61.2205 80.6913 61.3211 81.4133C61.3448 81.6027 61.4869 82.1058 61.3211 81.4311C61.3566 81.5731 61.3626 81.7448 61.3803 81.8927C61.4395 82.3543 61.4987 82.8219 61.552 83.2835C61.9189 86.4083 62.1793 89.545 62.3391 92.6817C62.6823 99.393 62.5936 106.128 62.1023 112.827C61.9603 114.792 61.7768 116.757 61.5638 118.716C61.4573 119.704 61.3389 120.693 61.2146 121.681C61.1909 121.859 61.1673 122.042 61.1436 122.22C61.0489 122.936 61.1969 121.859 61.1022 122.516C61.0252 123.054 60.9483 123.599 60.8714 124.137C60.2854 128.132 59.5457 132.103 58.6579 136.045C58.3206 137.554 59.1136 139.318 60.7234 139.684C62.2266 140.028 64.0021 139.235 64.3631 137.619C67.5235 123.575 68.8965 109.063 68.3402 94.6761C67.8845 82.887 66.3161 70.7723 62.197 59.6578C60.3801 54.7457 58.0779 50.0229 54.7223 45.9689C53.728 44.7734 51.5501 44.8681 50.5381 45.9689C49.3722 47.2413 49.4787 48.8748 50.5381 50.1531H50.5499Z" fill="#6558C6"/>
</svg>
