<svg width="279" height="178" viewBox="0 0 279 178" fill="none" xmlns="http://www.w3.org/2000/svg">
<path d="M123.766 81.4373C155.551 78.9488 187.336 76.4602 219.121 73.9717C229.217 73.1828 239.546 72.4133 249.311 75.2087C257.346 77.5121 264.728 82.236 270.338 88.6691C274.241 93.1446 277.231 100.313 273.472 104.925C272.381 106.264 270.87 107.146 269.378 107.959C230.42 129.284 183.475 126.562 140.334 117.597C134.617 116.408 128.695 115.011 124.143 111.212C124.404 107.779 124.572 104.156 124.619 100.352C124.694 93.5099 124.349 87.1741 123.766 81.4422V81.4373Z" fill="#97C238"/>
<path d="M123.772 83.8716C135.393 82.961 147.014 82.0503 158.635 81.1396C170.256 80.2289 181.877 79.3183 193.498 78.4076C199.258 77.9547 205.021 77.5066 210.781 77.0537C216.447 76.6106 222.117 76.0846 227.797 75.8119C230.59 75.6756 233.393 75.622 236.186 75.7145C238.98 75.807 241.512 76.0359 243.997 76.4742C249.006 77.3605 253.501 78.9481 257.754 81.3928C258.789 81.9919 259.806 82.6298 260.795 83.3116C261.27 83.6379 261.741 83.9788 262.208 84.3245C262.441 84.4999 262.669 84.6752 262.898 84.8505C263.028 84.9528 263.159 85.055 263.29 85.1573C263.611 85.4154 263.08 84.982 263.397 85.245C265.285 86.8033 267.062 88.5176 268.68 90.3779C269.025 90.7772 269.361 91.1863 269.678 91.61C269.459 91.3178 269.865 91.8827 269.925 91.9655C270.103 92.2236 270.275 92.4866 270.438 92.7495C271.04 93.7089 271.581 94.7218 272.015 95.7786C271.856 95.3939 272.117 96.0708 272.154 96.1731C272.243 96.4263 272.327 96.6796 272.402 96.9377C272.56 97.4782 272.691 98.0285 272.784 98.5837C272.798 98.6567 272.849 99.1145 272.821 98.8077C272.793 98.5204 272.821 98.8856 272.826 98.9197C272.84 99.173 272.859 99.4213 272.863 99.6746C272.868 99.9278 272.863 100.171 272.845 100.42C272.835 100.561 272.821 100.702 272.807 100.843C272.831 100.619 272.854 100.571 272.798 100.819C272.695 101.296 272.584 101.773 272.402 102.226C272.593 101.749 272.243 102.504 272.187 102.601C272.122 102.713 271.697 103.356 271.954 103.015C271.171 104.067 270.508 104.496 269.422 105.148C267.281 106.434 265.034 107.544 262.795 108.625C258.458 110.72 254.005 112.526 249.267 114.138C244.566 115.736 239.777 117.06 234.941 118.132C232.498 118.672 230.04 119.149 227.569 119.568C226.351 119.773 225.134 119.963 223.917 120.143C223.791 120.162 223.665 120.182 223.539 120.196C223.647 120.182 223.894 120.148 223.4 120.216C223.106 120.255 222.807 120.299 222.513 120.338C221.879 120.42 221.245 120.503 220.611 120.576C210.631 121.774 200.563 122.066 190.528 121.692C185.505 121.506 180.488 121.151 175.484 120.659C172.933 120.406 170.387 120.123 167.845 119.802C166.596 119.646 165.346 119.481 164.101 119.305C164.078 119.305 163.648 119.242 163.947 119.286C163.816 119.266 163.69 119.247 163.56 119.232C163.257 119.188 162.958 119.145 162.655 119.101C162.012 119.008 161.368 118.911 160.725 118.813C155.721 118.054 150.731 117.177 145.76 116.208C140.933 115.263 135.981 114.43 131.36 112.633C130.329 112.229 129.639 111.918 128.524 111.294C128.016 111.012 127.517 110.705 127.032 110.384C126.79 110.223 126.547 110.052 126.314 109.882C126.179 109.785 126.044 109.682 125.913 109.58C125.894 109.565 125.573 109.302 125.792 109.487L126.473 111.211C127.219 101.296 127.093 91.3275 126.095 81.4416C125.969 80.1802 125.116 78.9433 123.763 79.0066C122.611 79.0602 121.296 80.0828 121.432 81.4416C122.056 87.6215 122.346 93.8306 122.29 100.045C122.257 103.303 122.131 106.561 121.912 109.814C121.842 110.822 121.66 111.83 122.313 112.692C122.83 113.374 123.675 113.904 124.374 114.391C125.47 115.156 126.64 115.809 127.844 116.369C132.969 118.755 138.537 119.748 144.016 120.825C149.579 121.92 155.166 122.894 160.776 123.722C172.056 125.388 183.412 126.498 194.809 126.698C206.061 126.897 217.323 126.201 228.441 124.346C239.343 122.529 250.078 119.52 260.277 115.078C262.898 113.934 265.491 112.726 268.041 111.406C270.592 110.086 273.432 108.806 275.26 106.478C278.856 101.89 277.606 95.7299 274.901 91.0207C272.196 86.3115 267.771 82.3327 263.355 79.2598C258.789 76.0798 253.627 73.7422 248.283 72.4322C236.023 69.4226 223.166 71.2293 210.781 72.1984C197.868 73.2114 184.955 74.2194 172.042 75.2324C159.13 76.2453 146.217 77.2534 133.304 78.2664C130.124 78.5147 126.948 78.7631 123.768 79.0115C122.555 79.1089 121.376 80.0634 121.436 81.4464C121.487 82.6834 122.467 83.9837 123.768 83.8814L123.772 83.8716Z" fill="#97C238"/>
<path d="M28.999 22.5152C33.1914 24.9015 37.1925 27.6335 40.9884 30.6626C41.4547 31.0327 40.7226 30.4434 41.0117 30.6821C41.1283 30.7795 41.2449 30.872 41.3661 30.9694C41.576 31.1447 41.7858 31.3151 41.9957 31.4905C42.4853 31.8995 42.9703 32.3135 43.4506 32.7323C44.3693 33.531 45.2693 34.3442 46.1554 35.1819C47.9274 36.8474 49.6435 38.586 51.2897 40.3878C52.9358 42.1897 54.526 44.0549 56.0416 45.9834C56.382 46.4168 56.7224 46.8551 57.0535 47.2934C57.2401 47.5369 57.4219 47.7852 57.6085 48.0287C57.8696 48.3794 57.6178 48.0434 57.5712 47.98C57.7017 48.1505 57.8276 48.3258 57.9536 48.5011C58.6764 49.4946 59.3805 50.4978 60.066 51.5205C62.7941 55.5723 65.233 59.8383 67.3501 64.27C67.947 65.5264 68.5206 66.7926 69.0662 68.0734C69.2015 68.385 69.332 68.7016 69.4626 69.0133C69.5232 69.1545 69.5792 69.3006 69.6398 69.4418C69.8823 70.0311 69.5372 69.174 69.7191 69.6366C69.9709 70.2697 70.2181 70.9028 70.4559 71.5408C71.4352 74.151 72.3026 76.8051 73.0627 79.4982C73.4078 80.7206 74.7182 81.6069 75.9306 81.1978C77.1431 80.7888 77.9265 79.5128 77.5581 78.2028C74.7974 68.3802 70.5492 59.0007 65.0604 50.5221C59.5671 42.0387 52.8892 34.3832 45.2227 27.989C40.8672 24.356 36.2505 21.0932 31.354 18.3076C30.2814 17.6988 28.7659 17.9959 28.1643 19.1793C27.5627 20.3627 27.8565 21.8577 28.999 22.5103V22.5152Z" fill="#75961A"/>
<path d="M1.69173 92.1259C10.0717 95.2085 18.7548 91.0447 26.3513 87.5579C26.8503 87.329 27.3446 87.1001 27.8436 86.8761C28.0488 86.7836 28.254 86.691 28.4591 86.5985C28.5944 86.5352 28.7343 86.4768 28.8695 86.4183L29.0747 86.3258C28.8928 86.4037 28.8788 86.4134 29.0327 86.3453C30.026 85.9167 31.0193 85.4833 32.0219 85.0693C34.0878 84.2074 36.1723 83.3844 38.2661 82.6052C42.3885 81.0663 46.5621 79.6783 50.7824 78.4609C51.0576 78.3829 51.3327 78.3001 51.6125 78.232C51.7524 78.1979 51.8923 78.1735 52.0322 78.1394L52.242 78.1005C52.0089 78.1297 51.9762 78.1394 52.1488 78.1248C52.2514 78.1248 52.3586 78.1102 52.4659 78.1102C52.4939 78.1102 53.0535 78.1833 52.783 78.12C52.5125 78.0566 52.8856 78.1638 52.9462 78.1833C53.0068 78.1979 53.0628 78.2174 53.1187 78.2417C53.282 78.305 53.2353 78.2807 52.9788 78.1784C53.0488 78.1346 53.5478 78.5242 53.6037 78.5631C53.641 78.5875 53.8835 78.7871 53.6644 78.6021C53.4079 78.3927 53.8089 78.7384 53.8556 78.7823C54.2613 79.1621 54.639 79.5712 55.0121 79.9851C56.7048 81.8406 58.3417 83.7496 59.9225 85.7122C60.7106 86.691 62.4174 86.6228 63.2195 85.7122C64.1335 84.67 64.0589 83.3113 63.2195 82.2691C61.8018 80.5111 60.3422 78.7969 58.836 77.1265C57.2085 75.3198 55.5623 73.5958 53.0908 73.2841C51.897 73.1331 50.6845 73.4351 49.542 73.7662C48.4694 74.0779 47.4015 74.3993 46.3336 74.7305C44.2025 75.3928 42.0807 76.0989 39.9729 76.844C35.7572 78.3342 31.5929 79.9851 27.4892 81.787C25.3907 82.7123 23.3108 83.6863 21.217 84.6213C21.1331 84.6603 20.3776 84.9914 20.7973 84.8064C20.5688 84.9038 20.3403 85.006 20.1118 85.1034C19.6222 85.3128 19.1279 85.5222 18.6335 85.7219C17.6496 86.1212 16.6516 86.5011 15.649 86.8371C14.5252 87.217 13.392 87.5481 12.2401 87.8111C11.6759 87.9377 11.1023 88.0497 10.5334 88.1423C10.4308 88.1569 10.3328 88.1715 10.2303 88.1861C10.7339 88.113 10.2536 88.1764 10.1463 88.1861C9.84786 88.2202 9.54475 88.2494 9.24163 88.2689C8.13643 88.3468 7.05454 88.2786 5.94933 88.2056C5.59026 88.1812 6.33172 88.2738 5.97731 88.2104C5.8141 88.1812 5.64622 88.1569 5.483 88.1277C5.21719 88.079 4.95605 88.0205 4.6949 87.9572C4.098 87.8111 3.51508 87.6309 2.93683 87.4166C1.78499 86.993 0.334702 87.8988 0.0688928 89.1163C-0.229559 90.4798 0.465274 91.6584 1.69639 92.1113L1.69173 92.1259Z" fill="#97C238"/>
<path d="M87.5052 81.8092C80.93 81.6583 74.35 81.5073 67.7747 81.3563C66.525 81.3271 65.2379 81.3076 64.0767 81.7946C62.7943 82.3352 61.8057 83.4407 61.0223 84.6241C58.4108 88.5541 57.5994 93.5847 58.131 98.3378C58.6626 103.091 60.444 107.605 62.6451 111.803C66.082 118.363 70.8385 124.519 77.3672 127.591C83.8958 130.659 99.905 131.205 97.1769 124.295C86.3814 96.9498 87.5099 81.819 87.5099 81.819L87.5052 81.8092Z" fill="#97C238"/>
<path d="M87.5071 79.3747C83.7159 79.2871 79.9246 79.1994 76.1333 79.1117L70.5607 78.9851C68.6627 78.9413 66.7414 78.7806 64.8574 79.0777C61.346 79.628 58.9677 82.8275 57.5873 86.0222C56.193 89.2509 55.5448 92.7719 55.652 96.3172C55.8619 103.364 58.7532 110.138 62.3113 116.021C65.5616 121.397 69.8425 126.404 75.3592 129.282C79.2158 131.293 83.6413 132.058 87.9175 132.179C90.0113 132.238 92.1658 132.106 94.2083 131.59C96.0457 131.127 97.8457 130.251 98.9696 128.605C99.5059 127.821 99.7857 126.861 99.8136 125.897C99.8509 124.758 99.4732 123.779 99.0722 122.746C97.7851 119.44 96.5866 116.089 95.4954 112.705C93.798 107.426 92.3523 102.054 91.2984 96.5948C90.916 94.6079 90.5943 92.6112 90.3238 90.6048C90.2632 90.1567 90.4031 91.2622 90.3518 90.8191C90.3378 90.7119 90.3238 90.6048 90.3098 90.4976C90.2865 90.2882 90.2585 90.0837 90.2352 89.8743C90.1886 89.4798 90.1466 89.0902 90.1093 88.6958C90.0393 88.0042 89.9787 87.3078 89.9321 86.6114C89.8248 85.0774 89.7828 83.5434 89.8248 82.0045C89.8248 81.9412 89.8295 81.873 89.8341 81.8097C89.9274 80.5386 88.6963 79.3212 87.5025 79.3747C86.1595 79.438 85.2734 80.4461 85.1708 81.8097C85.1009 82.7691 85.1335 83.7479 85.1708 84.7073C85.2827 87.7315 85.6372 90.7509 86.0895 93.7361C86.789 98.3528 87.8103 102.916 89.0414 107.411C89.8481 110.362 90.7482 113.289 91.7228 116.182C92.2637 117.789 92.828 119.386 93.4156 120.974C93.9565 122.435 94.6513 123.886 95.085 125.386C95.1317 125.556 95.1503 125.732 95.2016 125.902C94.9824 125.147 95.155 125.43 95.1596 125.736C95.1596 125.814 95.1457 125.892 95.1503 125.965C95.1736 126.326 95.3042 125.274 95.197 125.615C95.1596 125.732 95.0944 125.912 95.085 126.034C95.1317 125.449 95.3555 125.469 95.2109 125.712C95.1736 125.771 95.141 125.839 95.1084 125.902C94.8519 126.399 95.4068 125.585 95.2249 125.766C95.1177 125.868 95.0197 125.985 94.9172 126.092C94.4835 126.535 95.4068 125.775 94.9311 126.082C94.6513 126.258 94.3715 126.413 94.0778 126.569C93.784 126.725 94.3995 126.428 94.3855 126.433C94.2969 126.452 94.2083 126.506 94.1244 126.535C93.9099 126.618 93.6954 126.691 93.4762 126.754C93.1078 126.866 92.7347 126.954 92.357 127.032C92.1751 127.066 91.9933 127.1 91.8114 127.129C91.7041 127.149 91.5829 127.154 91.4756 127.183C92.2264 126.978 91.7414 127.144 91.5223 127.168C89.5963 127.387 87.6424 127.348 85.7118 127.168C85.2315 127.124 84.7605 127.056 84.2801 127.003C85.1149 127.095 84.1962 126.988 84.0003 126.954C83.7485 126.91 83.4967 126.866 83.2402 126.822C82.2982 126.647 81.3656 126.428 80.4469 126.155C80.0365 126.034 79.6261 125.902 79.2204 125.751C79.0526 125.693 78.8893 125.629 78.7261 125.561C78.6329 125.522 78.5349 125.483 78.4417 125.444C78.0733 125.298 79.0526 125.736 78.5443 125.488C77.2758 124.865 76.0541 124.168 74.8975 123.34C74.6457 123.16 74.3986 122.98 74.1561 122.79C74.0815 122.732 73.5965 122.342 74.0488 122.712C73.9043 122.595 73.7644 122.478 73.6198 122.357C73.0555 121.875 72.5053 121.373 71.9783 120.847C70.957 119.834 70.0011 118.753 69.1057 117.618C68.9891 117.467 68.8725 117.321 68.756 117.17C68.7 117.097 68.3176 116.586 68.6627 117.053C68.4762 116.8 68.2896 116.542 68.1078 116.279C67.6694 115.656 67.2497 115.018 66.8393 114.375C66.0233 113.079 65.2631 111.745 64.5543 110.382C64.1906 109.68 63.8362 108.969 63.5004 108.253C63.3465 107.927 63.1973 107.601 63.0527 107.27C62.9641 107.07 62.8802 106.875 62.7916 106.676C62.7543 106.593 62.4185 105.765 62.6144 106.257C62.0035 104.718 61.4765 103.14 61.0708 101.528C60.8796 100.759 60.7164 99.9794 60.5858 99.2002C60.5485 98.9859 60.5205 98.7716 60.4879 98.5574C60.376 97.8464 60.5299 99.059 60.4599 98.3431C60.4226 97.9389 60.3807 97.5396 60.3527 97.1354C60.306 96.3903 60.292 95.6452 60.3154 94.9049C60.3247 94.5007 60.348 94.0916 60.3806 93.6874C60.3946 93.517 60.4086 93.3514 60.4273 93.181C60.4366 93.0787 60.4506 92.9813 60.4599 92.879C60.418 93.1907 60.418 93.2053 60.4599 92.9229C60.7024 91.3888 61.0615 89.8986 61.6258 88.4571C61.4159 89.0026 61.6631 88.3792 61.7004 88.3013C61.7796 88.1211 61.8636 87.9361 61.9522 87.7607C62.1107 87.4345 62.2833 87.1082 62.4652 86.7916C62.647 86.4751 62.8382 86.1634 63.0387 85.8566C63.1413 85.7008 63.2439 85.5449 63.3558 85.3988C62.9828 85.8858 63.4957 85.2479 63.5704 85.1602C63.7755 84.9264 63.9994 84.717 64.2139 84.5028C64.6289 84.0888 63.8175 84.7316 64.3118 84.4297C64.4657 84.3372 64.6103 84.23 64.7688 84.1375C64.7921 84.1229 65.3051 83.9135 64.9927 84.0206C64.6476 84.1375 65.2958 83.9378 65.2911 83.9427C65.4916 83.8891 65.6922 83.8453 65.8974 83.8112C65.3471 83.9086 66.2098 83.8015 66.3124 83.7966C68.0331 83.7236 69.7726 83.8453 71.4933 83.8843C75.0514 83.9671 78.6142 84.0499 82.1723 84.1278C83.9537 84.1667 85.7304 84.2106 87.5118 84.2495C88.7336 84.2787 89.8994 83.11 89.8435 81.8146C89.7875 80.5192 88.8175 79.4088 87.5118 79.3796L87.5071 79.3747Z" fill="#97C238"/>
<path d="M100.605 125.35C92.1736 117.543 88.8626 105.432 86.6988 93.8852C86.1066 90.7198 85.6169 87.228 87.1931 84.4522C88.7927 81.6374 92.0616 80.4053 95.1441 79.8063C101.29 78.618 107.618 79.1294 113.835 79.8014C117.169 80.1618 120.783 80.7072 123.11 83.225C125.885 86.2248 125.857 90.9243 125.498 95.0832C124.658 104.716 122.965 114.271 120.447 123.577C120.237 124.352 119.99 125.175 119.379 125.662C118.824 126.105 118.083 126.178 117.383 126.222L100.6 125.35H100.605Z" fill="#75961A"/>
<path d="M102.252 123.624C101.306 122.743 100.41 121.803 99.5757 120.805C99.184 120.337 98.7736 119.865 98.4285 119.358C98.4705 119.422 98.7177 119.762 98.4659 119.407C98.3586 119.256 98.2513 119.105 98.1441 118.954C97.9669 118.701 97.7943 118.448 97.6218 118.19C96.2135 116.071 95.0243 113.797 94.0031 111.45C93.8772 111.162 93.7559 110.87 93.6347 110.578C93.3828 109.989 93.8212 111.055 93.5834 110.456C93.5367 110.339 93.4901 110.222 93.4435 110.101C93.1916 109.448 92.9492 108.795 92.716 108.133C92.2916 106.925 91.9046 105.708 91.5455 104.476C90.7994 101.914 90.1791 99.3185 89.6289 96.7034C89.3584 95.4177 89.1019 94.1223 88.8688 92.8318C88.8081 92.4958 88.7475 92.1646 88.6962 91.8286C88.6729 91.6922 88.6542 91.5559 88.6356 91.4244C88.6216 91.3319 88.5423 90.6501 88.6076 91.2588C88.5283 90.5478 88.4677 89.8368 88.463 89.1209C88.463 88.819 88.4677 88.517 88.4864 88.2151C88.5003 88.0203 88.5003 87.8109 88.5377 87.621C88.4304 88.1518 88.5143 87.7914 88.5377 87.6794C88.6076 87.358 88.6636 87.0414 88.7568 86.7249C88.8128 86.535 88.8734 86.3548 88.9387 86.1697C88.7988 86.5642 88.92 86.2233 89.0133 86.0285C89.1532 85.7509 89.3118 85.4928 89.475 85.2298C89.7128 84.8451 89.4284 85.259 89.4144 85.3029C89.461 85.1763 89.6569 85.0058 89.7455 84.9084C89.9367 84.6941 90.1465 84.5091 90.3517 84.3094C90.4403 84.2266 90.6501 83.9831 90.2724 84.363C90.4076 84.2266 90.5942 84.1195 90.7527 84.0123C91.2051 83.7007 91.6854 83.4523 92.1704 83.1991C92.6973 82.9264 91.6994 83.3793 92.2497 83.1601C92.3569 83.1163 92.4642 83.0725 92.5761 83.0286C92.9025 82.902 93.2336 82.79 93.5694 82.6877C94.1243 82.5173 94.6886 82.3712 95.2575 82.2494C95.5746 82.1813 95.8917 82.1179 96.2088 82.0644C96.358 82.04 96.5073 82.0108 96.6565 81.9865C96.8057 81.9621 96.9549 81.9378 97.1042 81.9134C97.356 81.8745 97.4026 81.8696 97.2394 81.8939C96.9036 81.9426 97.6358 81.8452 97.5985 81.8501C97.785 81.8258 97.9715 81.8063 98.1581 81.7868C98.4938 81.7478 98.8296 81.7186 99.1654 81.6894C99.9908 81.6212 100.816 81.5725 101.642 81.5482C103.185 81.4995 104.729 81.5238 106.272 81.5969C109.247 81.7332 112.232 82.0011 115.188 82.3907C115.333 82.4101 115.757 82.4296 115.202 82.3907C115.352 82.4004 115.506 82.4394 115.655 82.4637C115.925 82.5075 116.196 82.5562 116.466 82.6098C117.119 82.7413 117.767 82.8971 118.406 83.1017C118.691 83.1942 118.97 83.3013 119.25 83.4036C119.796 83.6033 118.942 83.2429 119.264 83.4036C119.395 83.4718 119.53 83.5302 119.661 83.5984C119.922 83.7348 120.178 83.8857 120.425 84.0464C120.523 84.1097 120.621 84.1779 120.719 84.2461C120.817 84.3143 120.91 84.3873 121.004 84.4604C120.789 84.2851 120.747 84.251 120.878 84.3679C121.092 84.5821 121.321 84.7769 121.521 85.0009C121.619 85.1081 121.712 85.225 121.81 85.337C122.183 85.7607 121.624 85.0302 121.81 85.337C121.946 85.561 122.095 85.7704 122.221 85.9993C122.365 86.2574 122.477 86.7249 122.673 86.9392C122.407 86.6567 122.561 86.6567 122.654 86.9294C122.701 87.0658 122.748 87.207 122.79 87.3482C122.874 87.6307 122.953 87.918 123.018 88.2054C123.083 88.4927 123.139 88.7946 123.186 89.0868C123.205 89.1988 123.237 89.3303 123.237 89.4472C123.214 88.7751 123.233 89.4667 123.247 89.6176C123.494 92.3643 123.177 95.1353 122.892 97.8624C122.818 98.5978 122.734 99.3331 122.645 100.073C122.603 100.424 122.561 100.77 122.519 101.12C122.515 101.164 122.417 101.929 122.482 101.403C122.449 101.637 122.421 101.866 122.389 102.099C122.169 103.721 121.927 105.343 121.661 106.955C121.139 110.105 120.528 113.242 119.824 116.354C119.479 117.873 119.115 119.383 118.728 120.892C118.537 121.628 118.35 122.368 118.145 123.103C118.103 123.254 118.061 123.405 118.01 123.551C117.856 124.014 118.052 123.619 118.01 123.576C118 123.566 117.875 123.873 117.833 123.892C118.028 123.644 118.038 123.619 117.861 123.814C118.108 123.629 118.122 123.605 117.907 123.746C118.625 123.391 117.114 124.019 117.907 123.736C117.758 123.79 117.529 123.78 117.376 123.78C117.329 123.78 117.278 123.775 117.231 123.77C116.933 123.761 116.634 123.741 116.331 123.722C111.22 123.459 106.109 123.191 100.998 122.928C100.863 122.923 100.732 122.913 100.597 122.908C99.3752 122.845 98.2094 124.072 98.2653 125.343C98.326 126.717 99.2913 127.71 100.597 127.778C105.596 128.036 110.59 128.295 115.59 128.558C116.182 128.587 116.783 128.655 117.38 128.65C119.166 128.64 120.864 127.949 121.862 126.347C122.724 124.959 123.004 123.079 123.401 121.506C125.07 114.878 126.301 108.148 127.155 101.354C127.537 98.3007 127.938 95.2083 127.989 92.1257C128.036 89.2475 127.682 86.2525 126.324 83.7007C123.223 77.8762 116.294 77.5597 110.674 77.0435C107.447 76.7464 104.197 76.5614 100.956 76.7026C97.9109 76.8389 94.7305 77.1555 91.8253 78.1587C89.0926 79.1035 86.4298 80.7544 85.0308 83.4815C83.4733 86.5106 83.6785 89.9488 84.2148 93.2263C85.1101 98.7049 86.3879 104.208 88.2206 109.429C90.0532 114.649 92.6414 119.923 96.2741 124.248C97.1088 125.246 98.0042 126.181 98.9508 127.067C99.8975 127.954 101.362 128.075 102.248 127.067C103.064 126.142 103.218 124.53 102.248 123.624H102.252Z" fill="#75961A"/>
<path d="M124.258 123.697C166.097 134.255 209.503 144.866 251.767 136.344C255.749 135.54 260.758 132.979 259.904 128.839C259.317 126.005 256.23 124.7 253.548 123.95C212.422 112.442 167.263 123.594 127.14 108.717L124.258 123.697Z" fill="#75961A"/>
<path d="M123.641 126.045C133.196 128.455 142.756 130.851 152.367 133.023C161.978 135.195 171.654 137.153 181.387 138.667C191.114 140.182 200.907 141.287 210.742 141.701C220.428 142.11 230.146 141.848 239.781 140.693C242.318 140.391 244.845 140.031 247.368 139.612C249.527 139.252 251.742 138.95 253.85 138.327C257.212 137.333 261.367 135.146 262.169 131.216C262.631 128.947 261.969 126.678 260.462 124.993C259.11 123.473 257.175 122.582 255.319 121.954C251.187 120.556 246.804 119.714 242.532 118.925C233.439 117.249 224.224 116.397 215.004 115.925C205.785 115.452 196.678 115.336 187.51 115.102C178.397 114.868 169.276 114.517 160.201 113.563C159.077 113.446 157.949 113.315 156.825 113.178C156.303 113.115 155.785 113.047 155.263 112.979C154.983 112.94 154.703 112.906 154.423 112.867C154.423 112.867 154.027 112.813 154.256 112.842C154.465 112.871 153.831 112.784 153.845 112.784C151.611 112.462 149.382 112.092 147.163 111.673C142.765 110.841 138.405 109.803 134.11 108.503C131.97 107.855 129.852 107.144 127.754 106.37C126.625 105.951 125.119 106.847 124.886 108.07C124.047 112.433 123.207 116.797 122.368 121.16C122.247 121.788 122.125 122.421 122.004 123.05C121.766 124.296 122.344 125.738 123.632 126.045C124.793 126.322 126.243 125.679 126.499 124.345C127.339 119.982 128.178 115.618 129.018 111.255C129.139 110.626 129.26 109.993 129.381 109.365L126.513 111.065C134.847 114.142 143.497 116.144 152.241 117.425C160.985 118.706 170.162 119.363 179.172 119.709C188.181 120.055 197.093 120.142 206.051 120.43C214.972 120.712 223.897 121.184 232.762 122.304C233.285 122.373 233.807 122.441 234.334 122.509C234.432 122.524 235.136 122.621 234.8 122.572C235.122 122.616 235.444 122.665 235.766 122.714C236.847 122.874 237.929 123.045 239.011 123.225C241.212 123.595 243.404 124.014 245.582 124.486C247.76 124.959 249.858 125.465 251.98 126.04C252.894 126.288 253.808 126.536 254.699 126.877C254.876 126.946 255.053 127.019 255.226 127.092C254.731 126.887 255.323 127.145 255.44 127.208C255.827 127.408 256.196 127.632 256.555 127.876C256.62 127.92 256.928 128.163 256.681 127.958C256.447 127.773 256.681 127.963 256.718 127.997C256.844 128.124 256.974 128.241 257.096 128.372C257.175 128.46 257.245 128.557 257.324 128.64C257.301 128.616 257.11 128.275 257.217 128.504C257.315 128.704 257.445 128.932 257.562 129.122C257.697 129.342 257.501 128.991 257.497 128.957C257.515 129.044 257.557 129.132 257.576 129.22C257.595 129.307 257.618 129.405 257.641 129.492C257.781 129.999 257.609 129.346 257.637 129.361C257.683 129.39 257.655 129.799 257.655 129.863C257.655 129.902 257.637 130.184 257.637 130.184C257.581 130.16 257.758 129.629 257.646 130.009C257.595 130.179 257.539 130.364 257.492 130.535C257.427 130.793 257.557 130.306 257.581 130.316C257.581 130.316 257.483 130.515 257.473 130.525C257.38 130.686 257.287 130.846 257.189 131.002C257.128 131.1 256.984 131.187 257.18 131.017C257.422 130.812 257.166 131.027 257.105 131.09C256.853 131.358 256.587 131.601 256.326 131.854C256.741 131.455 256.303 131.864 256.177 131.957C255.981 132.093 255.781 132.225 255.58 132.351C255.24 132.561 254.894 132.75 254.54 132.921C254.358 133.009 254.041 133.14 254.423 132.984C254.195 133.077 253.966 133.174 253.733 133.262C252.941 133.559 252.129 133.793 251.304 133.968C249.033 134.455 246.734 134.84 244.439 135.195C243.88 135.283 243.32 135.366 242.761 135.444C242.336 135.507 243.031 135.405 242.607 135.468C242.476 135.487 242.35 135.502 242.22 135.521C241.875 135.57 241.529 135.614 241.189 135.658C240.028 135.809 238.867 135.945 237.701 136.067C235.332 136.32 232.958 136.52 230.585 136.671C225.879 136.968 221.16 137.07 216.445 137.002C206.923 136.866 197.414 136.047 187.971 134.767C187.281 134.674 187.043 134.64 186.512 134.562C185.905 134.474 185.299 134.387 184.693 134.294C183.522 134.119 182.352 133.939 181.186 133.754C178.803 133.374 176.42 132.965 174.047 132.536C169.327 131.684 164.617 130.739 159.926 129.731C150.497 127.71 141.119 125.431 131.76 123.089C129.465 122.514 127.166 121.934 124.872 121.355C123.687 121.058 122.288 121.744 122.004 123.054C121.72 124.364 122.363 125.728 123.632 126.049L123.641 126.045Z" fill="#75961A"/>
<path d="M32.9468 148.149C34.08 146.961 35.2085 145.777 36.3417 144.589L37.9598 142.894C38.2303 142.612 38.4961 142.329 38.7666 142.047C38.9018 141.906 39.0324 141.769 39.1723 141.633C39.2609 141.545 39.7086 141.185 39.2796 141.501C39.4055 141.409 39.5547 141.336 39.6713 141.238L39.7506 141.19C39.4708 141.302 39.4568 141.312 39.7086 141.229C39.1816 141.243 39.648 141.253 39.7785 141.243C40.0537 141.224 39.3775 141.053 39.8625 141.282C39.8438 141.273 40.4687 141.54 40.1703 141.394C39.8718 141.248 40.4874 141.575 40.464 141.56C40.8604 141.779 41.2521 142.018 41.6439 142.247C43.0662 143.074 44.4885 143.902 45.9108 144.735C47.3331 145.568 48.6855 146.425 50.1124 147.175C51.8565 148.09 53.7731 148.373 55.5032 147.229C56.7437 146.405 57.7883 145.203 58.8142 144.117C59.8401 143.031 60.8147 141.93 61.7661 140.786C63.7526 138.404 65.604 135.891 67.3061 133.281C68.1035 132.054 68.8543 130.802 69.5911 129.536C69.9129 128.986 70.2393 128.435 70.5937 127.91C70.6637 127.802 70.7383 127.7 70.8082 127.598C71.1626 127.077 70.4911 127.968 70.8968 127.491C71.1393 127.208 71.3771 126.921 71.643 126.663C71.7316 126.575 71.8248 126.497 71.9134 126.414C72.3518 126.01 71.5124 126.643 72.0207 126.341C72.2958 126.181 72.557 126.01 72.8368 125.864C72.7575 125.903 72.3984 126.02 72.8041 125.888C72.9813 125.83 73.1585 125.767 73.3404 125.713C73.4616 125.679 73.5829 125.65 73.7041 125.626C73.8254 125.601 73.9513 125.577 74.0725 125.557C73.7927 125.596 73.7461 125.601 73.9187 125.582C74.5669 125.557 75.1871 125.528 75.8353 125.587C75.9985 125.601 76.1617 125.621 76.3203 125.64C75.8026 125.582 76.255 125.635 76.3809 125.655C76.74 125.718 77.0944 125.786 77.4534 125.864C80.5033 126.541 83.5158 127.481 86.5329 128.304C93.5512 130.223 100.569 132.141 107.592 134.06C108.8 134.391 110.139 133.646 110.46 132.361C111.043 130.043 111.631 127.72 112.214 125.401C112.522 124.169 111.822 122.699 110.586 122.406C109.351 122.114 108.049 122.791 107.718 124.106C107.135 126.424 106.548 128.747 105.965 131.065L108.833 129.366C102.486 127.632 96.1393 125.898 89.7926 124.16C86.6075 123.288 83.4225 122.402 80.2328 121.549C77.4022 120.795 74.2171 120.142 71.3865 121.257C69.8476 121.866 68.5232 122.864 67.4786 124.199C66.5646 125.367 65.8231 126.643 65.0677 127.929C64.3122 129.215 63.5148 130.481 62.6847 131.718C62.2883 132.307 61.8826 132.891 61.4723 133.466C61.2671 133.753 61.0572 134.041 60.8474 134.328C61.1552 133.909 60.7355 134.474 60.7028 134.518C60.5769 134.688 60.4463 134.859 60.3158 135.024C58.4598 137.44 56.4639 139.739 54.3374 141.891C54.0949 142.135 53.8524 142.383 53.6053 142.622C53.4933 142.729 53.3674 142.831 53.2602 142.943C53.0223 143.191 53.7079 142.68 53.2182 142.972C53.1996 142.982 52.7099 143.328 53.0223 143.123C53.2975 142.943 52.8871 143.211 52.7938 143.186L53.0317 143.148C52.7565 143.138 52.7612 143.148 53.055 143.177C52.8545 143.133 52.6633 143.07 52.4721 142.992C52.9524 143.186 52.3322 142.899 52.2762 142.87C52.155 142.802 52.0337 142.734 51.9125 142.661C51.5721 142.466 51.2363 142.266 50.8959 142.066C50.1497 141.633 49.4083 141.2 48.6621 140.766C47.0393 139.816 45.4118 138.872 43.789 137.922C42.9263 137.42 42.0496 136.875 41.0936 136.588C39.8998 136.227 38.6687 136.344 37.5541 136.904C35.9686 137.698 34.7375 139.359 33.5204 140.635C32.2286 141.988 30.9322 143.347 29.6405 144.701C28.7778 145.607 28.7125 147.253 29.6405 148.144C30.5685 149.035 32.0188 149.108 32.9375 148.144L32.9468 148.149Z" fill="#BAD866"/>
<path d="M250.942 61.3457C230.783 74.3971 210.623 87.4485 190.469 100.495C185.096 103.972 179.622 107.542 175.588 112.631C173.919 114.735 172.473 117.267 172.575 119.999C172.771 125.254 178.806 128.497 183.753 127.528C188.701 126.559 192.642 122.78 196.298 119.166C214.475 101.177 236.873 78.9505 255.051 60.9609L250.942 61.3457Z" fill="#BAD866"/>
<path d="M249.767 59.2423C243.112 63.5473 236.458 67.8572 229.808 72.1622C223.186 76.4478 216.564 80.7333 209.947 85.0188C203.292 89.3238 196.638 93.6337 189.988 97.9387C184.187 101.693 178.096 105.521 173.759 111.141C171.428 114.165 169.651 117.779 170.467 121.762C171.069 124.689 173.237 127.134 175.727 128.493C178.418 129.963 181.491 130.45 184.471 129.847C187.913 129.15 190.925 127.149 193.625 124.904C196.153 122.8 198.447 120.384 200.793 118.066C203.208 115.675 205.619 113.284 208.035 110.893C213.066 105.911 218.093 100.924 223.125 95.9421C228.255 90.8579 233.384 85.7737 238.514 80.6895C243.443 75.8049 248.372 70.9253 253.302 66.0407C254.435 64.9158 255.573 63.7957 256.706 62.6707C257.387 61.9987 257.54 60.8835 257.186 60.0117C256.855 59.1887 255.969 58.429 255.055 58.5167C253.684 58.6433 252.318 58.7748 250.947 58.9014C249.734 59.0134 248.554 59.9387 248.615 61.3364C248.666 62.5587 249.645 63.8931 250.947 63.7713C252.318 63.6447 253.684 63.5132 255.055 63.3866L253.404 59.2277C243.709 68.8215 234.019 78.425 224.333 88.0284C214.671 97.6076 205.008 107.182 195.337 116.756C194.175 117.905 193.014 119.064 191.806 120.165C191.223 120.696 190.631 121.217 190.02 121.714C190.454 121.363 189.941 121.772 189.88 121.821C189.727 121.938 189.573 122.06 189.414 122.176C189.05 122.444 188.682 122.707 188.304 122.956C187.717 123.345 187.115 123.701 186.495 124.027C186.327 124.115 186.154 124.197 185.987 124.28C185.903 124.319 185.32 124.558 185.851 124.343C185.441 124.509 185.031 124.67 184.611 124.801C184.247 124.918 183.883 125.016 183.51 125.098C183.338 125.137 183.165 125.167 182.993 125.205C182.475 125.322 183.552 125.157 183.025 125.205C182.373 125.259 181.729 125.283 181.076 125.225C180.95 125.215 180.745 125.152 180.624 125.176L180.946 125.22C180.848 125.205 180.745 125.186 180.647 125.167C180.372 125.113 180.101 125.05 179.836 124.977C179.57 124.904 179.304 124.821 179.038 124.728C178.894 124.68 178.754 124.621 178.614 124.568C178.381 124.47 178.427 124.49 178.754 124.636C178.661 124.592 178.572 124.553 178.483 124.509C177.947 124.246 177.434 123.939 176.949 123.579L176.832 123.491C176.632 123.335 176.674 123.37 176.958 123.594C176.949 123.535 176.679 123.345 176.627 123.301C176.38 123.072 176.142 122.824 175.923 122.561C175.741 122.342 175.755 122.133 175.932 122.595C175.886 122.478 175.76 122.347 175.69 122.235C175.536 121.991 175.392 121.738 175.27 121.48C175.126 121.173 175.256 121.09 175.275 121.529C175.275 121.426 175.186 121.285 175.154 121.183C175.056 120.876 174.99 120.564 174.925 120.253C174.813 119.727 174.953 120.842 174.935 120.301C174.93 120.131 174.911 119.961 174.911 119.79C174.911 119.586 174.925 119.386 174.93 119.181C174.944 118.534 174.809 119.659 174.949 119.03C175.037 118.636 175.116 118.246 175.242 117.857C175.303 117.662 175.373 117.472 175.443 117.287C175.233 117.828 175.569 117.034 175.615 116.936C175.979 116.196 176.422 115.514 176.879 114.833C177.257 114.272 176.585 115.198 176.996 114.667C177.122 114.506 177.243 114.346 177.373 114.19C177.649 113.844 177.938 113.508 178.227 113.172C179.323 111.92 180.507 110.761 181.752 109.67C182.055 109.403 182.368 109.14 182.676 108.881C182.83 108.75 182.988 108.623 183.147 108.497C182.727 108.833 183.259 108.414 183.31 108.37C184 107.825 184.709 107.299 185.418 106.783C186.737 105.828 188.085 104.922 189.442 104.031C195.752 99.8867 202.112 95.8203 208.45 91.7199C221.428 83.3192 234.406 74.9186 247.384 66.5131L252.126 63.4402C253.162 62.7681 253.656 61.2341 252.961 60.1091C252.266 58.9842 250.881 58.5167 249.771 59.2374L249.767 59.2423Z" fill="#BAD866"/>
<path d="M251.228 154.44C249.512 152.804 247.796 151.167 246.08 149.531C244.364 147.895 242.699 146.112 240.852 144.627C239.761 143.745 238.483 143.327 237.098 143.492C235.886 143.638 234.678 143.867 233.48 144.111C231.32 144.554 229.185 145.124 227.086 145.805C224.619 146.609 222.213 147.593 219.853 148.688C218.958 149.102 218.492 150.5 218.781 151.44C219.07 152.38 219.989 153.32 221.028 153.227C221.812 153.159 222.577 153.091 223.169 152.472C223.761 151.854 224.13 150.724 224.512 149.911C225.16 148.528 225.804 147.145 226.443 145.762C227.753 142.922 229.04 140.069 230.304 137.205C232.836 131.478 235.28 125.712 237.63 119.902C242.386 108.161 246.803 96.2734 250.832 84.2447C253.07 77.568 255.187 70.8426 257.192 64.088C257.552 62.8706 256.763 61.3804 255.565 61.093C254.301 60.7911 253.084 61.4924 252.697 62.7926C249.232 74.4707 245.422 86.0417 241.267 97.4714C239.201 103.15 237.056 108.799 234.823 114.409C234.538 115.12 234.258 115.831 233.969 116.537C233.913 116.678 233.857 116.82 233.797 116.961C233.521 117.643 233.895 116.717 233.731 117.122C233.568 117.526 233.414 117.901 233.256 118.29C232.677 119.707 232.099 121.12 231.512 122.532C230.336 125.352 229.143 128.167 227.925 130.967C225.221 137.2 222.409 143.385 219.499 149.516L221.513 148.309L221.019 148.352L222.194 152.891C222.423 152.784 222.656 152.677 222.889 152.575C222.987 152.531 223.09 152.487 223.188 152.443C223.099 152.482 222.805 152.609 223.23 152.429C223.696 152.229 224.167 152.034 224.638 151.844C225.58 151.464 226.531 151.114 227.492 150.783C229.446 150.11 231.432 149.546 233.438 149.088C234.426 148.864 235.415 148.664 236.413 148.489C236.66 148.445 236.912 148.406 237.159 148.362C237.182 148.362 237.537 148.309 237.285 148.338C237.005 148.372 237.467 148.323 237.532 148.323C237.644 148.318 237.756 148.313 237.863 148.323C237.723 148.318 237.565 148.201 237.858 148.348C237.429 148.133 237.858 148.391 238.026 148.479C238.315 148.63 237.751 148.216 237.994 148.445C238.064 148.508 238.133 148.572 238.203 148.635C238.385 148.8 238.558 148.971 238.735 149.136C239.164 149.546 239.593 149.955 240.022 150.364C240.824 151.128 241.626 151.893 242.424 152.653C244.256 154.396 246.084 156.144 247.917 157.888C248.817 158.745 250.337 158.886 251.214 157.888C252.035 156.953 252.175 155.36 251.214 154.445L251.228 154.44Z" fill="#BAD866"/>
<path d="M162.417 118.063C161.647 116.149 160.808 114.133 159.18 112.94C157.655 111.815 155.697 111.605 153.831 111.513C148.884 111.265 143.908 111.571 139.021 112.438L132.096 113.987C127.899 117.396 128.095 119.368 128.281 120.498C128.58 122.31 130.813 122.806 132.576 122.894L150.46 123.785C151.663 123.844 152.894 123.912 154.013 124.379C157.203 125.719 158.378 129.688 159.423 133.106C161.339 139.354 164.095 145.325 167.588 150.779C168.623 152.396 170.12 154.154 171.958 153.862L162.407 118.058L162.417 118.063Z" fill="#BAD866"/>
<path d="M164.668 117.416C163.852 115.39 163.022 113.291 161.455 111.752C159.669 109.994 157.379 109.385 155.001 109.157C150.501 108.733 145.87 109.01 141.398 109.624C139.08 109.946 136.833 110.437 134.548 110.949L131.801 111.562C131.204 111.694 130.766 111.996 130.271 112.41C129.534 113.023 128.816 113.676 128.187 114.411C126.34 116.549 125.193 119.354 126.387 122.14C127.221 124.093 129.353 124.921 131.241 125.184C133.447 125.495 135.704 125.481 137.928 125.593C140.153 125.705 142.573 125.826 144.895 125.938C147.218 126.05 149.549 126.075 151.853 126.308C151.923 126.313 152.361 126.386 152.072 126.333C151.802 126.284 152.152 126.352 152.18 126.357C152.455 126.42 152.73 126.479 153 126.571C153.103 126.606 153.201 126.649 153.299 126.683C153.662 126.8 152.93 126.479 153.205 126.645C153.411 126.766 153.62 126.869 153.816 127.005C153.877 127.049 153.942 127.107 154.008 127.141C154.273 127.273 153.7 126.83 153.9 127.054C154.022 127.19 154.175 127.297 154.301 127.429C154.451 127.58 154.59 127.735 154.726 127.901C154.777 127.964 154.824 128.028 154.875 128.086C155.061 128.31 154.609 127.677 154.842 128.047C155.285 128.763 155.677 129.479 156.017 130.258C156.195 130.652 156.008 130.209 155.98 130.156C156.031 130.253 156.069 130.375 156.106 130.477C156.176 130.667 156.246 130.857 156.316 131.047C156.47 131.48 156.614 131.924 156.754 132.362C158.088 136.565 159.548 140.68 161.464 144.639C162.425 146.621 163.474 148.559 164.612 150.439C165.75 152.319 166.925 154.306 168.781 155.479C169.709 156.064 170.875 156.424 171.966 156.288C172.726 156.19 173.314 155.981 173.799 155.328C174.246 154.72 174.419 153.96 174.214 153.205C173.136 149.163 172.055 145.116 170.977 141.074C169.266 134.656 167.554 128.237 165.843 121.818C165.451 120.348 165.06 118.877 164.663 117.401C164.337 116.174 162.994 115.293 161.795 115.702C160.597 116.111 159.818 117.382 160.168 118.697C161.245 122.739 162.327 126.786 163.404 130.828C165.116 137.246 166.827 143.665 168.538 150.083C168.93 151.554 169.322 153.025 169.718 154.501L171.966 151.418C171.826 151.437 171.691 151.447 171.556 151.447C171.052 151.447 171.621 151.467 171.621 151.471C171.621 151.481 171.29 151.379 171.313 151.384C170.996 151.291 171.378 151.296 171.425 151.437C171.416 151.403 170.642 150.931 170.963 151.165C171.285 151.398 170.833 151.038 170.805 151.014C170.674 150.892 170.553 150.76 170.432 150.629C170.343 150.532 169.975 150.21 169.965 150.074C169.97 150.23 170.185 150.39 170.007 150.132C169.923 150.01 169.839 149.889 169.756 149.762C169.387 149.212 169.042 148.642 168.697 148.077C167.317 145.798 166.058 143.436 164.934 141.006C164.659 140.417 164.397 139.818 164.136 139.224C164.02 138.956 163.908 138.693 163.796 138.425C163.805 138.449 163.535 137.787 163.665 138.113C163.777 138.391 163.563 137.85 163.539 137.797C163.036 136.516 162.565 135.22 162.131 133.91C161.394 131.675 160.793 129.396 159.79 127.263C158.787 125.13 157.207 123.167 155.052 122.218C153.653 121.599 152.17 121.439 150.664 121.356C149.279 121.283 147.889 121.219 146.504 121.146L137.91 120.718C136.478 120.645 135.046 120.577 133.615 120.504C133.046 120.474 132.477 120.45 131.913 120.401C131.792 120.392 131.516 120.435 131.847 120.396C132.197 120.353 131.829 120.387 131.708 120.362C131.46 120.314 131.218 120.25 130.975 120.172C130.989 120.177 130.705 120.065 130.696 120.075C131.027 120.231 131.083 120.25 130.854 120.143L130.728 120.075C130.649 120.031 130.57 119.973 130.49 119.929C130.099 119.715 130.803 120.289 130.542 119.968C130.49 119.905 130.173 119.622 130.467 119.905C130.868 120.284 130.206 119.505 130.514 119.963C130.714 120.26 130.532 119.88 130.495 119.715C130.42 119.354 130.565 120.542 130.532 120.002C130.528 119.9 130.518 119.797 130.518 119.69C130.518 119.578 130.537 119.461 130.532 119.349C130.518 119.018 130.495 119.856 130.476 119.778C130.462 119.724 130.504 119.607 130.518 119.549C130.556 119.393 130.598 119.247 130.644 119.091C130.826 118.497 130.402 119.554 130.63 119.13C130.822 118.765 131.106 118.419 131.279 118.049C131.26 118.093 130.915 118.507 131.171 118.2C131.269 118.083 131.362 117.961 131.465 117.845C131.652 117.63 131.843 117.421 132.039 117.221C132.57 116.676 133.144 116.179 133.727 115.697L132.696 116.325C134.944 115.824 137.187 115.302 139.435 114.815C139.575 114.786 139.705 114.757 139.845 114.733C140.223 114.669 140.596 114.606 140.974 114.548C141.202 114.514 141.426 114.479 141.654 114.445C141.244 114.504 141.85 114.421 141.944 114.406C143.534 114.197 145.129 114.051 146.728 113.958C148.328 113.866 149.778 113.837 151.298 113.856C152.058 113.866 152.823 113.89 153.583 113.924C153.919 113.939 154.255 113.958 154.586 113.983C154.782 113.997 154.973 114.012 155.169 114.036C155.262 114.046 155.892 114.061 155.323 114.051C155.686 114.061 156.111 114.197 156.46 114.294C156.582 114.328 156.708 114.367 156.829 114.406C156.95 114.445 157.071 114.489 157.188 114.538C156.927 114.416 156.917 114.411 157.155 114.528C157.267 114.591 157.384 114.645 157.496 114.713C157.552 114.747 158.163 115.151 157.887 114.957C157.594 114.747 158.046 115.103 158.065 115.122C158.195 115.249 158.321 115.38 158.442 115.517C158.517 115.6 158.941 116.013 158.531 115.595C158.648 115.712 158.75 115.916 158.839 116.052C159.039 116.369 159.221 116.695 159.389 117.031C159.557 117.367 159.72 117.713 159.869 118.059C159.921 118.176 159.967 118.293 160.019 118.409C160.065 118.526 160.116 118.643 160.163 118.76C160.047 118.468 160.037 118.448 160.14 118.702C160.387 119.315 160.639 119.807 161.212 120.158C161.711 120.465 162.448 120.591 163.008 120.401C164.085 120.036 165.144 118.663 164.635 117.406L164.668 117.416Z" fill="#BAD866"/>
<path d="M173.57 156.306C177.021 154.143 180.495 152.025 184.002 149.96C184.417 149.717 184.828 149.463 185.252 149.235C185.345 149.186 185.439 149.137 185.532 149.084C185.56 149.069 185.872 148.933 185.634 149.03C185.397 149.127 185.714 149.006 185.742 149.001C185.872 148.962 186.003 148.923 186.133 148.894C185.947 148.938 185.793 148.835 186.115 148.923C186.101 148.923 185.709 148.816 185.956 148.894C186.035 148.918 186.124 148.938 186.203 148.962C186.306 148.991 186.446 149.123 186.241 148.972C185.984 148.787 186.399 149.108 186.483 149.152C186.763 149.308 186.199 148.869 186.427 149.103C186.511 149.191 186.604 149.264 186.693 149.351C188.092 150.725 189.309 152.346 190.587 153.842C192.135 155.648 193.683 157.46 195.232 159.267C196.048 160.221 197.708 160.197 198.528 159.267C199.424 158.249 199.4 156.841 198.528 155.824C197.06 154.105 195.586 152.385 194.117 150.666C193.394 149.824 192.671 148.976 191.949 148.134C191.291 147.365 190.657 146.542 189.925 145.84C189.132 145.081 188.185 144.399 187.108 144.18C185.709 143.887 184.436 144.243 183.177 144.886C181.265 145.855 179.437 147.067 177.595 148.178C175.459 149.468 173.333 150.778 171.22 152.103C170.176 152.76 169.695 154.319 170.385 155.434C171.076 156.549 172.456 157.012 173.575 156.306H173.57Z" fill="#BAD866"/>
<path d="M67.06 91.014C64.8729 94.4863 66.2346 98.4066 67.9834 102.142C68.6689 103.603 69.7368 104.986 71.2337 105.439C73.8825 106.233 76.5685 103.554 76.9136 100.7C77.254 97.8465 75.939 95.0707 74.4654 92.6406C73.6073 91.2283 72.5534 89.7576 71.0005 89.3436C70.786 89.2657 69.6995 88.8859 68.5383 89.4703C67.601 89.9426 67.1813 90.7511 67.06 91.014Z" fill="black"/>
<path d="M65.0464 89.7815C62.92 93.2635 63.4749 97.3542 64.9345 100.973C65.648 102.75 66.3895 104.562 67.7139 105.95C69.0382 107.338 70.8196 108.19 72.6523 107.976C76.4995 107.532 79.2043 103.875 79.2975 99.945C79.3442 97.8509 78.71 95.8397 77.8612 93.9745C77.1104 92.3187 76.1545 90.697 75.0073 89.3042C73.7668 87.7945 72.0274 86.8449 70.1248 86.7183C68.0776 86.5868 65.9651 87.8627 65.0464 89.7766C64.5008 90.9162 64.72 92.4648 65.8812 93.1076C66.9398 93.692 68.488 93.4485 69.0709 92.2359C69.1315 92.1044 69.2155 91.9875 69.2807 91.8561C69.4766 91.4665 68.875 92.2554 69.2341 91.9242C69.2714 91.8901 69.4253 91.6905 69.4533 91.7002L69.2388 91.8609C69.3087 91.8074 69.388 91.7538 69.4626 91.7051C69.5792 91.632 69.9196 91.5444 69.5605 91.6418C69.6445 91.6174 69.8497 91.5298 69.9523 91.5395C69.2621 91.4762 70.1621 91.671 70.1994 91.5882C70.1808 91.6272 69.6212 91.4518 69.9849 91.5639C70.0642 91.5882 70.1481 91.6028 70.2274 91.6272C70.358 91.6661 70.6284 91.6905 70.7124 91.7879L70.4745 91.6856C70.5771 91.7392 70.6797 91.7927 70.7823 91.8561C70.815 91.8755 71.0435 91.9973 71.0761 92.0508L70.8849 91.8901C70.9782 91.9681 71.0668 92.0508 71.1507 92.1336C71.2813 92.2603 71.4072 92.3917 71.5285 92.5281C71.631 92.645 71.7243 92.7667 71.8222 92.8836C72.0647 93.1612 71.5098 92.4161 71.8456 92.9177C72.0181 93.1758 72.1906 93.4339 72.3539 93.6969C72.7269 94.3008 73.0767 94.9144 73.4031 95.5426C73.5663 95.864 73.7249 96.1903 73.8741 96.5214C73.8974 96.575 74.1586 97.2422 73.972 96.7406C74.0233 96.8769 74.0746 97.0084 74.1213 97.1448C74.2378 97.4808 74.3404 97.8217 74.429 98.1675C74.4617 98.3038 74.4943 98.4451 74.5223 98.5814C74.5503 98.7178 74.5783 98.859 74.6016 99.0002C74.5689 98.7032 74.5689 98.6983 74.6016 98.9808C74.6202 99.2973 74.6435 99.6138 74.6342 99.9353C74.6342 100.091 74.6575 100.325 74.6062 100.466C74.7601 100.052 74.6529 100.213 74.6156 100.374C74.5503 100.656 74.4757 100.934 74.3917 101.211C74.2285 101.761 74.6435 100.778 74.3591 101.274C74.2751 101.425 74.2005 101.586 74.1119 101.737C74.0373 101.864 73.9534 101.981 73.8788 102.102C73.6969 102.404 74.2518 101.679 73.8788 102.088C73.6876 102.297 73.4917 102.497 73.2865 102.697C73.0534 102.921 73.3332 102.755 73.3705 102.628C73.3472 102.706 73.03 102.857 72.9601 102.896C72.8995 102.93 72.7083 103.003 72.6756 103.052C72.9927 102.921 73.03 102.901 72.7922 102.994L72.643 103.042C72.615 103.052 72.1906 103.169 72.186 103.154C72.1767 103.101 72.8015 103.14 72.3399 103.12C72.3026 103.12 71.8735 103.14 71.8689 103.106C71.8596 103.052 72.4751 103.271 72.0134 103.11C71.8829 103.067 71.743 103.023 71.6077 102.984C71.2906 102.891 72.0741 103.271 71.6217 102.974C71.5285 102.916 71.4259 102.847 71.3326 102.789C71.1227 102.638 71.1461 102.658 71.3932 102.852C71.3046 102.774 71.2207 102.697 71.1367 102.614C71.0528 102.531 70.9735 102.443 70.8942 102.356C70.8803 102.341 70.4885 101.903 70.7404 102.185C70.9922 102.468 70.6284 102.02 70.6098 101.99C70.5445 101.888 70.4792 101.786 70.4186 101.684C70.0409 101.05 69.7471 100.359 69.4533 99.682C69.3973 99.5457 69.3367 99.4142 69.2807 99.2778C69.4813 99.7551 69.1455 98.9321 69.1175 98.8444C68.9916 98.5084 68.8797 98.1723 68.7724 97.8315C68.6465 97.4321 68.5393 97.023 68.446 96.614C68.4087 96.4484 68.3761 96.2779 68.3434 96.1075C68.3248 96.0052 68.3061 95.9078 68.2921 95.8056C68.3294 96.1172 68.3294 96.1318 68.3014 95.8494C68.2781 95.4841 68.2548 95.1189 68.2641 94.7488C68.2641 94.5832 68.2828 94.4176 68.2921 94.2521C68.3341 93.6238 68.1709 94.7244 68.3201 94.1157C68.418 93.7212 68.5066 93.3365 68.6512 92.9567C68.488 93.3949 68.6139 93.0541 68.6605 92.9664C68.8004 92.718 68.9263 92.4599 69.0756 92.2164C69.7331 91.1402 69.3227 89.4844 68.2408 88.8854C67.089 88.2474 65.7506 88.6127 65.0511 89.7571L65.0464 89.7815Z" fill="white"/>
<path d="M92.4677 88.6147C90.761 92.8857 91.0734 97.6631 91.7169 102.134C92.3605 106.604 93.4424 110.588 95.0186 114.571C95.9699 116.982 97.0471 119.325 98.3015 121.579C98.9124 122.68 100.437 123.162 101.491 122.451C102.545 121.74 102.984 120.298 102.326 119.12C101.333 117.333 100.433 115.492 99.6446 113.593C99.6213 113.529 99.4487 113.11 99.556 113.383C99.6586 113.632 99.5233 113.3 99.514 113.271C99.4207 113.037 99.3321 112.804 99.2389 112.565C99.0477 112.059 98.8611 111.552 98.6839 111.041C98.3528 110.086 98.0497 109.122 97.7699 108.148C97.1963 106.132 96.7347 104.082 96.3896 102.012C96.3056 101.51 96.231 101.009 96.1611 100.507C96.0911 100.005 96.1891 100.775 96.1331 100.293C96.1005 100.005 96.0678 99.723 96.0352 99.4357C95.9279 98.3936 95.8626 97.3465 95.8533 96.2946C95.8533 95.72 95.8626 95.1404 95.8999 94.5658C95.9186 94.2785 95.9419 93.9911 95.9699 93.7087C95.9792 93.6015 95.9932 93.4944 96.0072 93.3873C95.9466 93.9035 96.0072 93.397 96.0305 93.2899C96.217 92.126 96.5248 90.9913 96.9632 89.9004C97.4342 88.7219 96.4549 87.1732 95.3357 86.9054C93.974 86.5791 92.9714 87.3437 92.4677 88.605V88.6147Z" fill="#BAD866"/>
<path d="M129.168 106.013C130.609 100.934 131.868 95.5477 131.341 90.2103C130.893 85.691 129.238 81.2886 126.104 78.0501C124.406 76.2969 122.303 74.9723 119.995 74.3148C118.82 73.9837 117.407 74.7288 117.127 76.0144C116.847 77.3001 117.495 78.6539 118.754 79.0094C119.16 79.1263 119.547 79.2675 119.944 79.4185C120.247 79.5305 119.556 79.2237 119.846 79.3747C119.944 79.4234 120.046 79.4721 120.144 79.5208C120.368 79.6328 120.582 79.7545 120.797 79.8811C121.128 80.0808 121.454 80.3 121.767 80.5337C121.851 80.597 121.958 80.6652 122.033 80.7383C121.65 80.3633 121.855 80.5922 121.949 80.6798C122.135 80.8503 122.327 81.0158 122.508 81.1912C122.811 81.4882 123.105 81.7999 123.38 82.1213C123.53 82.2966 123.67 82.4768 123.814 82.6521C123.851 82.696 124.029 82.9346 123.837 82.6814C123.623 82.394 123.917 82.7982 123.959 82.8567C124.486 83.6213 124.952 84.4394 125.348 85.2868C125.437 85.4718 125.516 85.6666 125.6 85.8517C125.74 86.1585 125.446 85.4426 125.568 85.7592C125.6 85.8419 125.633 85.9247 125.661 86.0075C125.838 86.475 125.992 86.9523 126.132 87.4393C126.253 87.863 126.356 88.2915 126.449 88.7249C126.496 88.9538 126.537 89.1876 126.579 89.4165C126.593 89.5139 126.612 89.6064 126.626 89.7038C126.654 89.8791 126.687 90.2151 126.649 89.8596C126.78 91.082 126.827 92.3043 126.789 93.5364C126.771 94.0721 126.738 94.6127 126.691 95.1484C126.663 95.4552 126.631 95.762 126.598 96.0688C126.589 96.1516 126.537 96.546 126.598 96.1078C126.575 96.2977 126.547 96.4925 126.519 96.6824C126.113 99.4096 125.428 102.073 124.681 104.718C124.336 105.94 125.097 107.425 126.309 107.713C127.521 108 128.809 107.318 129.177 106.013H129.168Z" fill="#BAD866"/>
<path d="M241.207 123.238C247.633 123.219 254.12 121.763 260.089 119.303C262.626 118.261 265.158 117.088 267.466 115.558C269.397 114.282 271.229 112.812 272.955 111.253C274.68 109.695 276.476 107.844 277.735 105.746C278.248 104.888 278.695 103.919 278.863 102.921C279.078 101.655 278.984 100.33 278.947 99.0542C278.821 94.6567 278.318 90.0984 276.196 86.2122C273.44 81.167 268.385 78.3668 263.278 76.5746C262.122 76.1704 260.681 77.0421 260.41 78.2742C260.117 79.6183 260.802 80.8358 262.038 81.2692C262.663 81.4884 263.288 81.7222 263.899 81.9705C264.057 82.0338 264.216 82.102 264.374 82.1702C264.915 82.3942 263.913 81.951 264.435 82.1945C264.729 82.3309 265.027 82.4672 265.321 82.6133C266.305 83.1003 267.261 83.6506 268.166 84.2789C268.394 84.4347 268.618 84.6003 268.837 84.7659C268.907 84.8194 268.982 84.8779 269.052 84.9314C269.448 85.2334 268.623 84.5662 268.996 84.8876C269.387 85.2285 269.774 85.5694 270.138 85.9395C270.455 86.2658 270.763 86.6018 271.052 86.9573C271.178 87.1132 271.588 87.7073 271.136 87.0401C271.271 87.2398 271.416 87.4297 271.546 87.6342C272.05 88.4037 272.456 89.217 272.834 90.0595C272.987 90.4004 272.736 89.8306 272.736 89.8111C272.736 89.8939 272.834 90.0692 272.866 90.1471C272.945 90.3565 273.015 90.5659 273.085 90.7753C273.235 91.2234 273.365 91.6812 273.477 92.1389C273.72 93.0983 273.869 94.0723 274.018 95.056C273.892 94.2135 274.009 95.0122 274.032 95.2119C274.055 95.4407 274.079 95.6648 274.097 95.8936C274.149 96.4537 274.186 97.0186 274.214 97.5786C274.275 98.7231 274.298 99.8675 274.307 101.012C274.307 101.27 274.316 101.533 274.307 101.796C274.307 101.879 274.284 101.991 274.293 102.074C274.219 101.489 274.396 101.489 274.34 101.708C274.289 101.903 274.256 102.103 274.195 102.298C274.167 102.38 274.135 102.463 274.107 102.551C274.065 102.697 274.396 101.942 274.149 102.429C273.948 102.833 273.738 103.223 273.496 103.598C273.375 103.783 273.249 103.963 273.123 104.143C272.838 104.552 273.477 103.695 273.16 104.09C273.057 104.216 272.959 104.348 272.852 104.479C272.139 105.356 271.36 106.174 270.553 106.953C269.746 107.732 268.851 108.507 267.965 109.242C267.821 109.364 267.545 109.471 268.035 109.189C267.914 109.257 267.802 109.374 267.695 109.461C267.508 109.607 267.322 109.749 267.135 109.895C266.715 110.211 266.296 110.523 265.867 110.825C263.987 112.149 261.949 113.216 259.87 114.156C259.87 114.156 259.291 114.409 259.622 114.268C259.907 114.146 259.254 114.424 259.193 114.448C258.834 114.599 258.475 114.745 258.111 114.891C257.314 115.208 256.507 115.5 255.696 115.778C254.106 116.318 252.488 116.781 250.855 117.17C250.002 117.375 249.144 117.555 248.281 117.711C247.885 117.784 247.484 117.852 247.087 117.915C246.887 117.945 246.691 117.974 246.491 118.008C247.05 117.925 246.383 118.018 246.313 118.027C244.616 118.242 242.904 118.359 241.193 118.363C239.971 118.363 238.805 119.479 238.861 120.798C238.917 122.118 239.887 123.238 241.193 123.233L241.207 123.238Z" fill="#75961A"/>
</svg>
