<svg width="256" height="282" viewBox="0 0 256 282" fill="none" xmlns="http://www.w3.org/2000/svg">
<path d="M83.9946 238.561C85.0472 238.35 86.0842 238.94 86.4194 239.894C93.0233 258.922 130.541 277.877 156.933 277.68C169.315 277.906 169.923 278.722 181.275 274.112C196.713 267.857 199.067 269.925 209.078 261.055C224.75 247.168 223.97 247.168 231.767 236.973L246.581 213.671C256.818 197.57 249.699 197.497 250.479 187.455C251.15 178.826 240.304 167.706 238.792 165.077C232.289 153.782 226.005 147.731 216.509 138.468C186.125 108.823 205.991 106.514 167.67 86.4301C196.635 77.109 189.423 50.1725 147.655 3.6543C135.695 44.6599 116.788 57.2143 112.219 76.1696C101.381 77.6115 90.7778 80.6263 80.9149 85.0611C75.6053 75.5288 69.2042 66.1713 59.8792 59.8723C50.5543 53.5732 14.3383 35.6446 3.88281 40.1304C11.3833 50.6021 11.4379 62.7414 16.381 77.109C17.9716 81.7405 23.6554 96.3775 36.8943 108.59C40.5978 112.012 55.7859 110.257 59.6141 106.951L59.2555 108.087C56.7917 108.546 55.2479 110.84 54.0706 112.864C51.5679 117.161 49.4394 121.625 47.5759 126.191C44.2389 134.368 40.2392 142.75 39.9741 151.591C39.8415 155.996 40.6602 160.424 42.3677 164.538L20.4743 163.417C18.0807 167.975 13.9406 177.391 14.2369 189.632C14.5644 203.09 19.9987 212.906 22.8134 217.304C32.6919 220.763 44.1765 218.171 54.0005 226.043C60.8148 231.512 68.2452 237.694 73.4924 237.694C81.2892 237.694 81.0085 239.151 83.9946 238.546V238.561Z" fill="#E5ACD2"/>
<path d="M83.9897 242.204C84.6992 242.123 84.286 242.349 83.4985 241.934C83.3972 241.883 82.8592 241.257 82.8124 241.257C82.7188 241.257 82.7344 241.053 82.8358 241.381C82.8904 241.555 82.9683 241.73 83.0385 241.905C83.3894 242.772 83.7792 243.624 84.2002 244.468C84.8474 245.772 85.6114 247.017 86.4457 248.219C88.3715 250.979 90.6638 253.542 93.1509 255.879C98.6944 261.101 105.252 265.434 112.089 269.045C119.356 272.883 127.145 275.993 135.16 278.185C143.175 280.376 150.512 281.17 158.464 281.352C161.887 281.432 165.365 281.702 168.787 281.418C172.21 281.134 175.235 280.311 178.346 279.168C182.401 277.675 186.354 275.985 190.47 274.616C193.215 273.706 196.014 272.927 198.711 271.9C205.604 269.286 210.718 264.647 216.02 259.892C220.184 256.156 224.371 252.399 227.918 248.131C231.091 244.315 234.117 240.39 236.752 236.24C239.387 232.089 242.069 227.872 244.728 223.692C247.387 219.512 249.967 215.769 252.228 211.641C253.889 208.611 255.347 205.436 255.838 202.043C256.181 199.691 255.955 197.426 255.378 195.117C255.152 194.214 254.895 193.326 254.684 192.416C254.583 191.979 254.497 191.535 254.419 191.09C254.248 190.209 254.466 191.731 254.419 191.069C254.396 190.755 254.357 190.442 254.334 190.129C254.248 188.76 254.451 187.398 254.373 186.037C254.271 184.209 253.881 182.374 253.25 180.641C252.002 177.211 250.116 174.014 247.987 170.999C246.373 168.712 244.564 166.557 242.88 164.314C240.791 161.525 239.231 158.379 237.196 155.546C232.222 148.636 226.117 142.599 219.973 136.606C216.964 133.671 214.024 130.671 211.295 127.503C211.007 127.175 210.734 126.84 210.446 126.505C210.438 126.498 210.048 126.032 210.29 126.316C210.547 126.629 210.087 126.068 210.032 125.996C209.502 125.34 208.98 124.677 208.465 124.015C207.608 122.893 206.773 121.75 205.978 120.585C203.499 116.958 201.51 113.121 199.561 109.239C197.83 105.788 195.897 102.569 193.293 99.6124C189.683 95.5053 184.997 92.2502 180.295 89.3228C176.834 87.1672 173.255 85.1938 169.637 83.2932L168.709 89.949C174.074 88.2086 179.43 85.6744 183.196 81.5964C186.962 77.5184 188.716 72.9161 189.028 67.7677C189.371 62.0658 187.773 56.2692 185.597 50.9897C182.541 43.5692 178.354 36.6148 173.731 29.9589C166.706 19.8441 158.698 10.3263 150.41 1.0926C148.477 -1.06291 144.617 0.233306 143.892 2.70194C140.072 15.7224 135.066 27.5704 128.135 39.3237C123.496 47.1811 117.999 54.6016 113.617 62.5901C111.419 66.6025 109.54 70.8116 108.464 75.2173L111.185 72.6758C99.9809 74.1978 89.159 77.3728 78.9452 81.9387L84.2782 83.2422C80.0134 75.6032 75.0858 68.1172 68.5131 62.0075C64.2717 58.0679 59.3519 55.0313 54.206 52.2495C48.7951 49.3294 43.2282 46.6495 37.5599 44.2027C31.533 41.6103 25.358 39.1781 18.9646 37.4813C13.5303 36.0395 7.29287 34.7724 1.92089 37.0007C0.0652632 37.7726 -0.542885 40.4816 0.525273 41.9817C2.83312 45.2514 4.25993 48.2225 5.49961 51.8344C6.7393 55.4463 7.65152 59.2913 8.54035 63.0561C10.0685 69.53 11.6201 76.0183 14.2086 82.2081C16.7971 88.3979 20.1342 94.4931 24.2353 100.027C26.8784 103.596 29.8099 107.004 33.0378 110.12C34.2541 111.293 35.447 112.254 37.0609 112.888C38.6749 113.521 40.242 113.769 41.9417 113.944C45.6452 114.33 49.4734 113.965 53.1145 113.281C56.4047 112.662 59.8353 111.65 62.3849 109.538C60.2096 108.358 58.0421 107.179 55.8668 105.999L55.5081 107.135L58.2292 104.593C53.7772 105.627 51.5084 109.531 49.5748 113.055C47.3605 117.082 45.4581 121.248 43.7272 125.471C40.4058 133.554 36.7491 141.608 36.1409 150.361C35.7901 155.481 36.6633 160.731 38.6047 165.523L42.3627 160.913C35.065 160.542 27.7672 160.163 20.4694 159.792C19.1985 159.726 17.6704 160.513 17.1012 161.598C13.3198 168.829 11.0353 176.614 10.4506 184.653C9.74885 194.265 11.7682 203.87 15.8693 212.675C16.5242 214.073 17.226 215.442 17.9978 216.789C18.3175 217.35 18.645 217.903 18.988 218.449C19.7755 219.716 20.6565 220.459 22.1691 220.969C26.5275 222.44 31.6422 222.811 35.9226 223.343C40.203 223.874 44.9513 224.807 48.7327 226.962C50.9782 228.244 52.8806 229.962 54.8766 231.55C57.1142 233.319 59.3831 235.06 61.7533 236.669C63.9988 238.198 66.3456 239.546 68.9419 240.485C71.3901 241.373 73.8461 241.264 76.4113 241.424C76.6763 241.439 76.9336 241.461 77.1987 241.483C77.3079 241.49 78.2903 241.599 77.6977 241.526C77.2533 241.475 78.3448 241.636 78.5476 241.672C79.1245 241.781 79.6859 241.927 80.2629 242.043C81.908 242.386 83.3582 242.386 85.0111 242.065C87.0772 241.672 88.2623 239.393 87.7322 237.587C87.1396 235.584 85.0033 234.645 82.9371 235.045C81.9859 235.227 83.4128 235.096 83.0073 235.045C82.828 235.023 82.5395 235.023 82.3602 235.045C81.869 235.111 83.405 235.271 82.7188 235.089C82.4849 235.031 82.2432 234.987 82.0093 234.936C80.4188 234.586 78.8282 234.332 77.1987 234.193C76.0526 234.091 74.8987 234.069 73.7525 234.055C73.4251 234.055 72.4427 233.924 73.238 234.069C72.661 233.96 72.1074 233.8 71.5461 233.64C71.5305 233.64 70.9613 233.436 71.3044 233.567C71.702 233.72 70.9457 233.414 70.8677 233.378C70.4311 233.181 69.9945 232.97 69.5735 232.744C68.4352 232.147 67.3514 231.477 66.2832 230.771C61.8157 227.814 58.0499 223.991 53.4965 221.158C49.2395 218.508 44.2418 217.182 39.2284 216.476C37.7159 216.265 36.2033 216.083 34.6907 215.901C33.1782 215.719 32.6402 215.668 31.3849 215.493C28.812 215.129 26.278 214.626 23.8298 213.789L26.1611 215.464C24.859 213.425 23.3854 210.723 22.5823 208.953C22.7461 209.31 22.5122 208.793 22.4966 208.764C22.403 208.546 22.3095 208.334 22.2159 208.116C22.0522 207.73 21.8884 207.337 21.7325 206.944C21.405 206.113 21.0932 205.276 20.8047 204.439C20.1497 202.516 19.604 200.564 19.1674 198.591C17.3819 190.413 17.8419 181.886 20.2979 173.868C20.8437 172.091 21.483 170.336 22.2081 168.61C22.2705 168.458 22.7227 167.423 22.5512 167.802C22.3796 168.181 22.7929 167.292 22.8864 167.096C23.1827 166.477 23.4946 165.865 23.8142 165.253L20.446 167.059C27.7438 167.431 35.0416 167.809 42.3394 168.181C44.7096 168.305 46.9706 165.734 46.0974 163.571C44.4991 159.632 43.696 155.561 43.8519 151.345C44.0079 147.128 45.0916 143.254 46.4327 139.373C47.7737 135.491 49.5748 131.37 51.2043 127.386C52.8338 123.403 54.5725 119.711 56.6386 116.034C57.1532 115.123 57.66 114.206 58.2448 113.332C58.5021 112.946 58.6658 112.72 58.7672 112.611C58.8841 112.48 59.656 111.759 59.3363 111.992C59.5312 111.846 59.8119 111.686 60.0302 111.599C59.6482 111.752 60.116 111.628 60.2563 111.599C61.4259 111.3 62.2991 110.492 62.7825 109.494C63.0242 108.992 63.1723 108.453 63.3361 107.921C64.49 104.258 59.617 102.066 56.818 104.382C56.3502 104.768 57.5431 104.004 56.9505 104.295C56.7478 104.397 56.5607 104.535 56.358 104.637C56.1007 104.775 55.8278 104.892 55.5627 105.023C54.7752 105.394 55.9837 104.906 55.3366 105.118C54.0111 105.54 52.6935 105.919 51.3212 106.188C50.6351 106.327 49.9412 106.428 49.2551 106.538C49.2005 106.545 48.6158 106.618 49.068 106.567C49.5592 106.509 48.8107 106.596 48.7015 106.603C48.2883 106.64 47.8751 106.683 47.4618 106.712C45.9805 106.822 44.4835 106.844 42.9943 106.756C42.6746 106.734 42.355 106.705 42.0431 106.676C41.2634 106.611 42.6044 106.814 41.8794 106.647C41.2634 106.509 40.6319 106.327 40.0159 106.21C39.4 106.093 40.5617 106.545 40.0471 106.232C39.8756 106.13 39.6495 105.999 39.4623 105.926C38.9556 105.722 39.899 106.414 39.6105 106.021C39.2362 105.504 38.5891 105.067 38.1291 104.615C35.3067 101.855 32.7961 98.9497 30.5117 95.8038C28.4299 92.942 26.5509 89.9563 24.8746 86.876C24.1651 85.5797 23.4946 84.2617 22.863 82.9291C22.7305 82.6523 22.5979 82.3683 22.4654 82.0916C22.0678 81.2396 22.5667 82.3465 22.3095 81.7566C22.0756 81.225 21.8416 80.6862 21.6233 80.1473C19.1829 74.2779 17.6548 68.1318 16.2124 61.993C14.2788 53.7714 12.2516 45.4334 7.2149 38.3042L5.81928 43.2852C4.74333 43.7294 5.56978 43.3871 6.10776 43.2561C6.28709 43.2124 6.46641 43.1832 6.64574 43.1468C6.77049 43.1177 6.90303 43.1177 7.01998 43.0886C7.42542 42.9721 6.13895 43.1396 6.56777 43.1468C7.55016 43.1687 8.52476 43.0595 9.52275 43.125C9.76445 43.1396 10.0061 43.1614 10.2401 43.1832C10.396 43.1978 11.3862 43.307 10.7157 43.2269C10.0451 43.1468 10.9418 43.2633 11.0977 43.2852C11.4096 43.3289 11.7136 43.3799 12.0255 43.4381C13.3042 43.6566 14.5673 43.9406 15.8225 44.2537C18.6606 44.9601 21.444 45.8412 24.1963 46.8097C25.6777 47.3268 27.1434 47.8802 28.6014 48.4482C29.2798 48.7104 28.313 48.3244 28.9835 48.6011C29.3655 48.7541 29.7554 48.907 30.1374 49.0672C30.8547 49.3585 31.5642 49.657 32.2737 49.9556C37.864 52.315 43.3529 54.9147 48.6937 57.7329C52.8728 59.9394 57.122 62.2406 60.6774 65.168C67.9751 71.183 73.043 78.9239 77.5106 86.9342C78.5398 88.7766 81.0191 89.0533 82.8436 88.2377C92.4258 83.9558 102.71 81.1377 113.22 79.7104C114.475 79.5429 115.676 78.2758 115.941 77.1689C116.393 75.3265 116.97 73.5206 117.68 71.751C117.859 71.3068 118.046 70.8699 118.225 70.4329C118.67 69.4717 118.311 70.2363 118.225 70.4329C118.327 70.2145 118.428 69.996 118.529 69.7775C118.943 68.8964 119.387 68.0226 119.847 67.1633C121.812 63.4567 124.104 59.9103 126.404 56.3784C132.283 47.3341 137.982 38.2387 142.465 28.5025C146.036 20.7543 148.991 12.795 151.377 4.66083L144.859 6.27018C151.822 14.0329 158.535 21.9923 164.624 30.374C169.286 36.7968 173.66 43.4891 177.013 50.6037C177.099 50.7858 177.489 51.6305 177.34 51.3028C177.192 50.9751 177.637 51.98 177.699 52.1257C178.011 52.8466 178.307 53.5821 178.588 54.3103C179.118 55.6866 179.594 57.0775 179.999 58.4903C180.373 59.7865 180.685 61.09 180.919 62.408C180.966 62.6848 181.005 62.9615 181.052 63.2309C180.849 62.1459 181.036 63.1363 181.067 63.4203C181.137 64.0174 181.184 64.6145 181.215 65.2189C181.27 66.3549 181.247 67.491 181.137 68.6197C181.122 68.7581 181.106 68.8891 181.091 69.0275C181.06 69.5008 181.239 68.9328 181.145 68.6634C181.2 68.8309 181.06 69.1731 181.028 69.3552C180.927 69.9013 180.802 70.4475 180.646 70.9864C180.514 71.4524 180.366 71.9112 180.194 72.37C180.116 72.5812 180.023 72.7851 179.945 72.9962C179.742 73.5715 180.077 72.6394 180.108 72.654C180.116 72.654 179.874 73.1492 179.859 73.171C179.414 74.0522 178.892 74.9042 178.299 75.7052C178.221 75.8071 178.144 75.9091 178.066 76.0183C177.66 76.5718 178.237 75.9237 178.245 75.8144C178.245 75.9673 177.769 76.3606 177.652 76.4844C177.262 76.8995 176.857 77.3073 176.436 77.6932C175.976 78.1156 175.485 78.5015 174.994 78.8948C174.206 79.5137 175.524 78.5671 174.822 79.0186C174.541 79.2006 174.276 79.3899 173.996 79.5647C172.811 80.3148 171.563 80.9702 170.284 81.56C169.98 81.6984 169.676 81.8295 169.372 81.9605C169.216 82.0261 169.06 82.0916 168.904 82.1571C168.117 82.4994 169.481 81.9532 168.998 82.1207C168.195 82.3975 167.415 82.7033 166.604 82.9655C163.564 83.9558 162.597 88.0047 165.676 89.6213C169.357 91.5511 172.99 93.561 176.498 95.7529C177.855 96.5976 179.18 97.486 180.49 98.389C181.208 98.8842 180.311 98.2434 180.826 98.6293C181.06 98.8041 181.301 98.9788 181.535 99.1536C182.089 99.576 182.642 100.006 183.18 100.443C184.911 101.855 186.502 103.385 187.967 105.038C188.482 105.613 187.882 104.914 187.944 105.001C188.061 105.161 188.194 105.307 188.311 105.467C188.607 105.846 188.895 106.232 189.168 106.625C189.667 107.331 190.127 108.052 190.572 108.788C192.458 111.956 193.909 115.327 195.686 118.546C198.415 123.498 201.799 128.064 205.518 132.404C210.96 138.754 217.307 144.325 223.061 150.42C225.813 153.333 227.926 155.787 230.203 158.918C232.308 161.809 233.906 165.013 236.027 167.882C237.625 170.045 239.372 172.099 240.939 174.283C241.937 175.674 242.88 177.094 243.738 178.558C244.143 179.25 244.533 179.956 244.884 180.67C244.954 180.808 245.406 181.798 245.188 181.289C245.375 181.726 245.554 182.17 245.718 182.614C245.991 183.371 246.233 184.143 246.404 184.93C246.459 185.17 246.576 185.92 246.49 185.272C246.545 185.702 246.576 186.131 246.584 186.554C246.599 187.886 246.443 189.197 246.552 190.53C246.732 192.714 247.27 194.79 247.808 196.909C247.917 197.331 248.018 197.754 248.104 198.183C248.127 198.278 248.159 198.788 248.221 198.831C248.213 198.831 248.143 197.987 248.151 198.336C248.151 198.496 248.19 198.664 248.198 198.817C248.237 199.261 248.244 199.698 248.237 200.142C248.237 200.397 248.205 200.652 248.19 200.907C248.19 201.023 248.159 201.132 248.151 201.249C248.135 201.693 248.33 200.441 248.166 201.111C247.316 204.57 246.389 206.543 244.556 209.645C240.767 216.083 236.541 222.331 232.526 228.652C230.249 232.234 228.027 235.628 225.462 239.029C224.792 239.917 224.121 240.805 223.435 241.694C223.131 242.087 222.819 242.48 222.507 242.874C222.375 243.034 222.242 243.201 222.11 243.361C221.805 243.747 222.64 242.742 222.055 243.427C220.62 245.116 219.092 246.726 217.502 248.284C215.061 250.673 212.512 252.974 209.962 255.26C208.231 256.812 206.516 258.377 204.731 259.877C204.122 260.387 203.506 260.882 202.883 261.363C202.696 261.508 201.885 262.091 202.477 261.676C202.142 261.909 201.807 262.142 201.464 262.368C200.403 263.067 199.296 263.7 198.142 264.254C197.604 264.509 197.051 264.727 196.513 264.975C197.168 264.676 196.832 264.851 196.372 265.026C196.092 265.135 195.803 265.237 195.515 265.332C192.669 266.329 189.761 267.152 186.915 268.135C182.783 269.562 178.861 271.325 174.768 272.723C173.356 273.204 171.922 273.64 170.448 273.932C170.128 273.997 169.809 274.048 169.489 274.107C168.561 274.274 170.004 274.085 169.302 274.136C168.655 274.187 168.008 274.245 167.353 274.267C163.681 274.398 160 274.121 156.336 274.092C154.597 274.077 152.859 274.005 151.128 273.852C149.007 273.67 148.5 273.597 146.356 273.24C142.504 272.599 138.707 271.689 134.988 270.582C133.102 270.021 131.23 269.402 129.375 268.74C127.379 268.026 126.272 267.589 124.369 266.788C120.681 265.222 117.087 263.467 113.61 261.516C111.949 260.584 110.312 259.601 108.705 258.574C107.099 257.547 105.665 256.557 104.472 255.668C101.72 253.607 99.0999 251.379 96.7452 248.925C96.1917 248.35 95.6537 247.767 95.1313 247.17C94.9832 247.003 94.4842 246.413 94.8818 246.893C94.6089 246.558 94.336 246.216 94.0709 245.874C93.1587 244.68 92.3167 243.434 91.576 242.138C91.2641 241.585 90.9756 241.017 90.6949 240.449C90.4143 239.881 90.8743 240.936 90.5702 240.15C90.4532 239.844 90.3363 239.538 90.2193 239.24C89.2447 236.757 87.0305 234.63 83.9429 234.972C81.8534 235.205 80.0445 236.48 80.0445 238.614C80.0445 240.405 81.8378 242.488 83.9429 242.255L83.9897 242.204Z" fill="#E5ACD2"/>
<path d="M78.9871 205.625C72.048 193.66 63.9627 182.351 53.6944 172.644C50.6848 169.797 47.5271 167.095 44.2759 164.495C42.7243 163.257 40.2605 162.966 38.7635 164.495C37.3523 165.93 37.2042 168.224 38.7635 169.644C38.8103 169.688 38.8649 169.731 38.9117 169.775L44.424 164.627C44.3226 164.539 44.2291 164.444 44.1277 164.357C42.2877 166.076 40.4554 167.787 38.6154 169.506C38.6622 169.549 38.7168 169.593 38.7635 169.637C40.2293 170.962 42.8413 171.1 44.2759 169.637C45.7105 168.173 45.8352 165.908 44.2759 164.488C44.2291 164.444 44.1745 164.401 44.1277 164.357C42.6619 163.032 40.05 162.893 38.6154 164.357C37.1808 165.821 37.0561 168.086 38.6154 169.506C38.7168 169.593 38.8103 169.688 38.9117 169.775C40.3775 171.1 42.9894 171.239 44.424 169.775C45.8586 168.311 45.9834 166.047 44.424 164.627C44.3772 164.583 44.3226 164.539 44.2759 164.495L38.7635 169.644C44.2681 174.042 49.4919 178.761 54.209 183.902C55.3083 185.104 56.392 186.327 57.4368 187.565C57.585 187.74 57.7331 187.922 57.8812 188.097C58.2243 188.497 57.468 187.594 57.8033 188.002C58.0684 188.323 58.3334 188.65 58.5907 188.971C59.1131 189.619 59.6277 190.274 60.1423 190.937C62.1695 193.558 64.0797 196.26 65.9041 199.005C68.134 202.37 70.2313 205.814 72.2507 209.295C73.2253 210.97 75.8528 211.64 77.5837 210.599C79.4081 209.499 80.0241 207.409 78.9793 205.618L78.9871 205.625Z" fill="#D36FA8"/>
<path d="M61.152 164.417C57.6669 164.337 54.1895 164.075 50.7199 163.711C49.8155 163.616 48.9111 163.514 48.0145 163.405C47.8507 163.383 46.4083 163.208 47.3439 163.325C46.8839 163.266 46.4317 163.208 45.9717 163.15C44.1317 162.91 42.2994 162.647 40.4672 162.378C33.3721 161.329 26.3004 160.106 19.182 159.196C18.145 159.065 17.1158 158.999 16.1802 159.56C15.3616 160.048 14.5819 160.812 14.387 161.737C13.3422 166.769 12.5859 171.859 11.8998 176.942C11.5723 179.374 11.2683 181.814 10.972 184.254C10.6991 186.562 10.2937 188.907 10.2391 191.237C10.1299 196.509 11.9388 201.621 13.2798 206.682C14.4883 211.27 16.4297 215.567 19.9305 219.069C23.8523 223.002 29.0449 224.691 34.6352 225.303C39.7655 225.864 45.0283 225.856 50.1898 225.98C60.4737 226.228 70.7576 226.038 80.9636 224.684C92.1442 223.198 103.177 219.994 112.712 214.241C114.42 213.207 115.285 210.964 114.108 209.26C113.008 207.666 110.607 206.85 108.775 207.957C106.709 209.202 104.572 210.338 102.358 211.358C101.407 211.794 100.44 212.202 99.4731 212.603C98.5063 213.003 100.222 212.326 99.2314 212.697C98.9352 212.807 98.6467 212.923 98.3504 213.032C97.7579 213.251 97.1653 213.462 96.5727 213.666C92.1754 215.166 87.6298 216.258 83.0298 217.045C81.868 217.242 80.6985 217.424 79.5368 217.584C79.2171 217.627 78.8975 217.671 78.5778 217.715C78.3985 217.737 77.8137 217.831 78.6558 217.708C77.9618 217.81 77.2601 217.868 76.5662 217.948C74.1336 218.203 71.701 218.392 69.2607 218.523C64.45 218.785 59.6238 218.844 54.8054 218.793C49.9013 218.742 44.9971 218.567 40.0929 218.378C38.9546 218.334 37.8241 218.29 36.6935 218.21C36.0152 218.166 35.3369 218.101 34.6586 218.035C34.4871 218.021 33.9023 217.919 34.682 218.035C34.2376 217.962 33.7931 217.904 33.3487 217.824C32.1792 217.613 31.0877 217.256 29.9493 216.936C29.3412 216.761 30.7446 217.314 29.7934 216.877C29.5205 216.754 29.2398 216.63 28.9747 216.491C28.4679 216.237 27.9767 215.953 27.5011 215.647L27.2672 215.494C26.9242 215.254 26.9554 215.283 27.3686 215.574C27.3374 215.581 26.9866 215.283 26.9242 215.232C26.4876 214.882 26.0665 214.511 25.6689 214.125C25.3336 213.797 25.0296 213.455 24.7099 213.12C24.0628 212.435 25.1777 213.746 24.6085 213.003C24.437 212.785 24.2733 212.559 24.1095 212.333C23.5092 211.503 22.979 210.629 22.519 209.726C22.3943 209.486 22.2305 209.231 22.1526 208.976C22.1837 209.078 22.4644 209.712 22.2071 209.086C21.981 208.532 21.7627 207.971 21.5756 207.403C20.8349 205.182 20.3203 202.881 19.6888 200.631C19.3925 199.561 19.104 198.483 18.8467 197.398C18.6908 196.75 18.5504 196.102 18.4335 195.446C18.3945 195.228 18.3555 195.009 18.3165 194.798C18.2464 194.368 18.2464 194.368 18.3087 194.798C18.2776 194.58 18.2542 194.368 18.2308 194.15C17.9345 191.543 18.262 189.009 18.566 186.416C18.8701 183.824 19.1898 181.18 19.5328 178.566C19.7044 177.277 19.8759 175.988 20.063 174.699C20.2112 173.629 19.9461 175.449 20.1098 174.386C20.1566 174.066 20.2034 173.745 20.2501 173.425C20.3593 172.682 20.4763 171.947 20.5932 171.204C20.9986 168.692 21.4431 166.179 21.9576 163.682L17.1626 166.223C28.7252 167.709 40.1709 169.951 51.7803 171.102C54.9146 171.415 58.0567 171.634 61.2066 171.706C63.2493 171.75 65.1985 170.002 65.105 168.065C65.0114 166.128 63.3897 164.475 61.2066 164.424L61.152 164.417Z" fill="#D36FA8"/>
<path d="M33.8127 206.813C33.2747 204.628 32.8147 202.429 32.4404 200.222C32.3469 199.669 32.2611 199.115 32.1753 198.562C32.0272 197.615 32.2845 199.37 32.152 198.424C32.113 198.147 32.074 197.87 32.0428 197.593C31.9726 197.069 31.9025 196.545 31.8557 196.02C31.8401 195.831 31.8245 195.642 31.8245 195.46C31.8245 195.365 31.8245 195.27 31.8323 195.176C31.8557 194.877 31.8245 195.052 31.7465 195.678L31.7855 195.503C31.9025 195.139 31.8401 195.27 31.5906 195.882L31.6842 195.736C31.4736 196.086 31.1852 196.37 30.8187 196.581C30.2885 196.887 29.6024 196.996 29.0021 196.851L28.4563 196.639C28.7915 196.836 28.7136 196.763 28.2224 196.428C28.2536 196.545 28.6434 196.814 28.737 196.894C29.2594 197.36 28.3237 196.246 28.7136 196.858C29.0099 197.317 29.3373 197.761 29.6492 198.212C30.9435 200.098 32.2299 201.977 33.5242 203.863C34.6235 205.465 37.0405 206.266 38.8572 205.167C40.5725 204.133 41.4301 201.897 40.2528 200.186C38.6545 197.855 37.1263 195.46 35.4422 193.18C34.374 191.746 33.0798 190.479 31.2709 189.903C28.9163 189.161 26.4369 190.056 25.0647 191.928C23.2714 194.367 24.2538 197.812 24.6515 200.506C25.0491 203.201 25.6183 206.033 26.2888 208.757C26.7488 210.614 29.1424 211.888 31.0838 211.298C33.1655 210.672 34.2961 208.808 33.8049 206.82L33.8127 206.813Z" fill="#D36FA8"/>
<path d="M49.0816 200.42C49.1596 200.58 49.3779 201.097 49.183 200.646C49.1206 200.5 49.0582 200.354 49.0037 200.209C48.8711 199.881 48.7386 199.553 48.6216 199.226C48.3877 198.599 48.185 197.973 47.9979 197.332C47.6236 196.058 47.3507 194.762 47.148 193.451L47.2884 194.419C47.0934 193.029 46.9921 191.638 46.9921 190.24C44.5673 190.851 42.1503 191.463 39.7255 192.075C41.3082 194.077 42.891 196.08 44.4737 198.09C45.2534 199.073 46.0331 200.063 46.805 201.046C47.1792 201.52 47.5535 202 47.9355 202.473C48.1382 202.736 48.3565 202.991 48.5514 203.26C48.645 203.376 48.723 203.5 48.8009 203.624C48.5904 203.071 48.5436 202.976 48.6606 203.34L48.5203 202.372C48.5514 202.503 48.5592 202.634 48.5358 202.772L48.6762 201.804C48.9413 201.119 49.4169 200.573 50.0952 200.158C50.8515 199.91 51.0386 199.823 50.6722 199.888L51.7091 199.757C51.6312 199.765 51.5454 199.757 51.4674 199.757L52.5044 199.888C51.3115 199.619 52.0678 200.347 54.7733 202.073L54.9136 203.041V202.932C54.8902 201.032 53.1359 199.204 51.0152 199.291C48.8945 199.379 47.0934 200.893 47.1168 202.932C47.1324 204.789 48.4735 206.479 50.4383 206.908C52.0522 207.265 53.8454 206.865 55.0228 205.736C56.6133 204.221 56.6445 201.949 55.6465 200.136C55.2021 199.328 54.5316 198.607 53.9468 197.878C51.4518 194.718 48.9569 191.558 46.4619 188.404C45.9395 187.749 45.4249 187.239 44.5985 186.912C43.8266 186.606 42.8832 186.482 42.0567 186.73C40.4194 187.225 39.1953 188.586 39.1953 190.24C39.1953 195.06 40.3336 199.684 42.3452 204.097C42.7039 204.877 43.85 205.561 44.6764 205.772C45.6121 206.013 46.8517 205.903 47.6782 205.408C48.5047 204.913 49.2454 204.163 49.4715 203.231C49.721 202.211 49.5104 201.381 49.0816 200.427V200.42Z" fill="#D36FA8"/>
<path d="M156.521 51.4778C158.689 54.1504 160.56 57.0122 162.104 60.0416C162.299 60.4203 162.486 60.7989 162.665 61.1849C162.759 61.3742 162.844 61.5708 162.93 61.7602C162.759 61.3742 162.751 61.3742 162.93 61.7602C163.258 62.5394 163.585 63.3185 163.874 64.1123C164.458 65.6925 164.957 67.3019 165.371 68.9331C165.838 70.79 168.209 72.0644 170.166 71.4745C172.232 70.8483 173.393 68.984 172.887 66.996C171.132 60.0853 167.842 53.4731 163.25 47.8076C162.026 46.2929 159.827 45.3463 157.917 46.5041C156.311 47.4726 155.204 49.8612 156.521 51.4851V51.4778Z" fill="#D36FA8"/>
<path d="M26.0674 68.0371C26.621 77.868 29.5448 87.393 34.4723 96.0879C35.4313 97.7773 38.09 98.4254 39.8053 97.3914C41.6376 96.2845 42.2223 94.2164 41.2009 92.4104C40.6396 91.42 40.1016 90.4151 39.587 89.4029C39.3297 88.9004 39.088 88.3907 38.8463 87.8736C38.3707 86.8687 39.127 88.529 38.6826 87.5168C38.589 87.3129 38.5033 87.1017 38.4175 86.8978C37.5131 84.7933 36.7334 82.6451 36.0785 80.4677C35.4235 78.2904 34.9323 76.215 34.5425 74.0522C34.4489 73.5133 34.3632 72.9744 34.2774 72.4355C34.2072 71.9986 34.3398 72.9817 34.254 72.2681C34.2228 71.9986 34.1838 71.7292 34.1527 71.4525C34.0201 70.3165 33.9265 69.1732 33.8642 68.0371C33.755 66.1365 32.1489 64.3014 29.9658 64.3961C27.9464 64.4835 25.9504 65.9982 26.0674 68.0371Z" fill="#D36FA8"/>
<path d="M101.436 134.923C109.272 143.764 118.168 151.65 127.89 158.663C129.512 159.835 132.327 158.94 133.223 157.36C134.315 155.43 133.559 153.624 131.828 152.379C132.459 152.83 131.492 152.131 131.368 152.044C131.095 151.84 130.814 151.636 130.541 151.432C129.949 150.988 129.356 150.543 128.771 150.092C127.688 149.262 126.612 148.417 125.551 147.558C123.298 145.737 121.099 143.851 118.955 141.914C114.714 138.076 110.706 134.02 106.94 129.775C105.638 128.304 102.761 128.42 101.428 129.775C99.8921 131.34 100.032 133.35 101.428 134.923H101.436Z" fill="#D36FA8"/>
<path d="M107.135 158.664C117.785 152.088 127.001 143.837 134.556 134.239C135.772 132.703 134.883 130.111 133.16 129.259C131.125 128.254 129.122 128.924 127.827 130.562C127.367 131.152 126.9 131.734 126.424 132.31C126.946 131.676 126.268 132.492 126.213 132.557C125.972 132.841 125.73 133.125 125.481 133.409C124.537 134.502 123.563 135.572 122.565 136.628C120.647 138.652 118.627 140.604 116.53 142.468C114.432 144.333 112.249 146.117 109.981 147.806C109.676 148.032 109.365 148.258 109.061 148.483C108.842 148.644 108.889 148.614 109.185 148.396C109.006 148.52 108.834 148.651 108.655 148.775C108.125 149.153 107.587 149.525 107.041 149.889C105.778 150.748 104.492 151.571 103.197 152.379C101.498 153.428 100.617 155.642 101.802 157.36C102.893 158.94 105.318 159.792 107.135 158.664Z" fill="#D36FA8"/>
<path d="M44.4036 139.761C50.5942 148.222 57.853 155.971 66.1098 162.728C67.6458 163.981 70.1329 164.243 71.6221 162.728C72.971 161.352 73.2595 158.92 71.6221 157.58C67.6692 154.339 63.9267 150.88 60.4338 147.21C58.7029 145.397 57.05 143.525 55.436 141.617C54.9215 141.006 55.7479 142.003 55.1943 141.333C55.0228 141.122 54.8435 140.904 54.672 140.693C54.2899 140.219 53.9079 139.746 53.5336 139.265C52.715 138.217 51.9197 137.161 51.1322 136.09C49.9861 134.517 47.6549 133.665 45.7992 134.787C44.1229 135.792 43.1717 138.086 44.4036 139.768V139.761Z" fill="#D36FA8"/>
<path d="M50.637 163.884C60.6949 159.078 66.1682 148.985 71.7507 140.319C72.8032 138.688 72.1951 136.248 70.3551 135.338C68.515 134.428 66.1448 134.901 65.0221 136.642C62.2542 140.938 59.6033 145.344 56.4378 149.407C56.2585 149.64 56.0714 149.873 55.8842 150.106C55.393 150.725 56.3053 149.633 55.7361 150.281C55.3463 150.725 54.9642 151.169 54.5666 151.606C53.7713 152.466 52.9371 153.296 52.056 154.075C51.6194 154.461 51.1672 154.84 50.6994 155.204C50.5045 155.357 50.3096 155.502 50.1146 155.648C49.8963 155.808 49.9587 155.764 50.3096 155.51C50.1926 155.597 50.0679 155.677 49.9431 155.757C48.9139 156.449 47.8302 157.061 46.7074 157.6C44.8908 158.466 44.2125 160.993 45.3118 162.581C46.5047 164.314 48.7034 164.816 50.6448 163.884H50.637Z" fill="#D36FA8"/>
</svg>
