<svg width="279" height="200" viewBox="0 0 279 200" fill="none" xmlns="http://www.w3.org/2000/svg">
<path d="M230.115 29.4965C234.938 22.1119 232.046 13.3936 224.338 9.09992C216.629 4.80622 205.624 8.3521 201.872 16.3412C197.142 9.39281 189.228 4.71274 180.865 3.90884C172.502 3.10494 163.84 6.19591 157.876 12.1161C155.844 14.1352 154.025 16.522 151.407 17.6873C147.438 19.4634 142.701 17.974 138.539 19.2328C132.675 21.0089 129.777 27.4463 127.689 33.2044C127.371 34.0831 127.01 35.0179 126.243 35.5414C124.984 36.4076 123.296 35.8031 121.806 35.4728C114.646 33.8588 106.968 40.8322 107.884 48.1171C103.958 46.098 98.5493 47.8304 96.5239 51.7565C95.7076 53.3393 95.3399 55.2525 93.9565 56.3742C92.143 57.8449 89.4883 57.2903 87.1887 57.6891C83.1505 58.3933 80.1157 62.7119 80.8199 66.7501C77.2304 65.2233 73.3853 68.576 71.6778 72.0845C69.9766 75.593 69.0854 79.7496 66.063 82.2112C64.2558 83.6819 61.7755 84.4484 60.5728 86.4488C59.3327 88.5115 60.1615 91.1289 59.9683 93.5281C56.8711 132.315 92.9781 140.572 112.957 149.141C123.115 153.497 144.496 154.251 155.502 153.26L218.897 136.677C229.491 116.112 268.128 92.4313 236.97 53.1711C236.415 49.5504 235.854 35.074 230.115 29.4903V29.4965Z" fill="#75BF60"/>
<path d="M232.805 31.0668C235.105 27.4835 236.002 23.2958 235.329 19.1018C234.719 15.2879 232.575 11.686 229.702 9.13095C226.58 6.35781 222.916 4.69392 218.778 4.23277C215.063 3.8277 211.287 4.67523 207.934 6.25187C204.22 7.99677 200.961 11.0503 199.185 14.7645H204.563C199.683 7.67895 191.987 2.50657 183.437 1.12934C174.27 -0.347588 164.997 2.20744 157.781 8.02792C156.136 9.35529 154.746 10.9132 153.269 12.4089C152.933 12.7516 152.59 13.0881 152.235 13.406C152.023 13.5991 151.805 13.7861 151.587 13.9668C152.017 13.6054 151.543 13.998 151.431 14.079C151.001 14.3781 150.558 14.6336 150.091 14.8767C149.356 15.2568 150.359 14.858 149.879 14.9577C149.543 15.0324 149.212 15.1695 148.876 15.2506C148.583 15.3191 148.29 15.3752 147.997 15.425C148.577 15.3316 147.929 15.425 147.785 15.4375C147.231 15.4874 146.676 15.5123 146.121 15.5248C144.993 15.5497 143.872 15.5248 142.744 15.5497C140.17 15.612 137.708 16.0233 135.384 17.1637C131.826 18.9086 129.252 22.3174 127.482 25.7636C126.522 27.6331 125.725 29.5837 124.989 31.5529C124.827 31.9891 124.678 32.4253 124.509 32.8553C124.753 32.2509 124.528 32.7806 124.447 32.9301C124.31 33.1732 123.998 33.3601 124.422 33.0111L124.672 32.8491C124.354 33.0298 124.372 33.0361 124.715 32.8678L124.466 32.9239C124.827 32.8803 124.883 32.8616 124.647 32.8678C124.497 32.8304 123.874 32.7868 124.534 32.8927C124.167 32.8366 123.805 32.7432 123.438 32.6559C121.013 32.0764 118.658 31.9393 116.227 32.5687C113.797 33.1981 111.809 34.3884 109.977 35.9276C106.531 38.8378 104.256 43.5553 104.767 48.1107L109.454 45.4186C103.994 42.7202 96.5911 44.6583 93.7744 50.2981C93.3942 51.0646 93.0889 51.8685 92.7648 52.6537C92.7087 52.7596 92.5342 53.2146 92.7648 52.6537C92.6838 52.8157 92.6152 52.9778 92.5342 53.1335C92.4532 53.2893 92.3597 53.4389 92.2787 53.5947C92.0232 54.0808 92.4594 53.4825 92.2289 53.7006C92.1666 53.763 91.7926 54.168 92.0668 53.9063C92.3099 53.6757 92.0045 53.9375 91.9547 53.9748C91.5371 54.274 91.8363 54.0683 91.9983 53.9998C91.8363 54.0621 91.668 54.1119 91.506 54.1618C91.2816 54.2241 90.3593 54.3114 91.0261 54.2802C90.6585 54.2989 90.297 54.3363 89.9293 54.355C88.3527 54.4298 86.7013 54.436 85.1994 54.9844C83.6976 55.5328 82.2206 56.3928 81.0241 57.5706C78.3258 60.2191 77.2352 63.8834 77.8085 67.5726L81.6411 63.74C76.8551 61.858 72.0628 65.4787 69.6262 69.3486C68.4858 71.1559 67.7754 73.2435 66.9902 75.2252C66.6599 76.0603 67.2457 74.6581 66.8842 75.4745C66.8094 75.6365 66.7409 75.8048 66.6661 75.9668C66.448 76.4529 66.2112 76.9265 65.9557 77.3939C65.7438 77.774 65.5195 78.1479 65.2764 78.5094C65.2141 78.6028 64.6782 79.2447 65.1456 78.715C64.9711 78.9144 64.809 79.1076 64.6283 79.3008C64.4476 79.494 64.2482 79.6622 64.055 79.843C63.4505 80.4163 64.5535 79.5563 63.8556 79.9925C63.4817 80.2293 63.1202 80.4724 62.7463 80.6967C61.7305 81.3137 60.7459 81.9244 59.8111 82.666C57.7173 84.3423 56.7638 86.7852 56.7451 89.4274C56.7389 90.4058 56.8448 91.3842 56.8635 92.3626C56.8822 93.4345 56.7576 94.5001 56.7077 95.5657C56.6267 97.3356 56.6267 99.1116 56.7202 100.888C57.0754 107.456 58.677 113.906 61.8178 119.708C64.5161 124.687 68.3238 129.062 72.686 132.651C81.3233 139.749 91.6493 144.099 101.975 148.118C104.194 148.985 106.419 149.832 108.637 150.717C109.161 150.923 109.678 151.135 110.195 151.346C110.426 151.44 110.656 151.533 110.887 151.633C111.024 151.689 111.161 151.745 111.298 151.801C111.84 152.026 110.557 151.484 111.092 151.714C112.594 152.362 114.096 152.942 115.667 153.403C122.746 155.491 130.299 156.182 137.646 156.556C141.335 156.743 145.031 156.805 148.726 156.724C150.29 156.687 151.855 156.631 153.419 156.531C154.391 156.469 155.425 156.463 156.379 156.245C158.142 155.846 159.887 155.329 161.632 154.867C170.369 152.58 179.106 150.293 187.843 148.012L214.197 141.12C215.998 140.646 217.837 140.241 219.619 139.699C220.915 139.307 221.476 138.397 222.068 137.319C222.623 136.315 223.221 135.337 223.85 134.377C224.511 133.361 225.209 132.364 225.925 131.38C226.293 130.869 226.673 130.364 227.053 129.859C227.228 129.629 227.402 129.392 227.583 129.161C227.689 129.024 227.795 128.881 227.907 128.744C227.334 129.46 227.72 128.987 227.857 128.812C234.943 119.714 242.969 111.058 247.78 100.445C250.36 94.7494 252.005 88.6796 251.993 82.3918C251.981 75.1691 249.812 68.1521 246.447 61.8144C244.396 57.9507 241.879 54.3861 239.174 50.9587L239.978 52.3359C239.903 51.8373 240.103 53.3267 239.997 52.4418C239.966 52.1863 239.935 51.9246 239.91 51.6629C239.841 51.021 239.772 50.3853 239.704 49.7435C239.505 47.8926 239.28 46.048 239.006 44.2034C238.408 40.2026 237.498 36.2766 235.859 32.5687C234.999 30.6244 233.84 28.7798 232.326 27.2779C231.166 26.1312 229.06 26.0315 227.92 27.2779C226.779 28.5243 226.686 30.4561 227.92 31.6838C228.132 31.8956 228.53 32.55 228.792 32.6435C228.748 32.6248 228.343 32.0265 228.655 32.469C228.711 32.55 228.767 32.6248 228.823 32.7058C228.973 32.9177 229.116 33.1358 229.253 33.3601C229.503 33.7589 229.733 34.1702 229.945 34.5878C230.057 34.7997 230.163 35.0178 230.263 35.2359C230.325 35.3605 230.375 35.4914 230.437 35.616C230.612 35.9899 230.462 35.5973 230.375 35.454C230.905 36.2766 231.141 37.5042 231.422 38.439C231.727 39.4735 231.995 40.5204 232.226 41.5736C232.456 42.6268 232.65 43.655 232.824 44.702C232.905 45.188 232.98 45.6741 233.048 46.1664C233.08 46.397 233.08 46.6587 233.148 46.8768C233.148 46.8955 233.061 46.1976 233.104 46.5466C233.123 46.7086 233.148 46.8706 233.167 47.0389C233.366 48.6217 233.522 50.2046 233.697 51.7875C233.79 52.6412 233.802 53.5635 234.133 54.355C234.376 54.9283 234.793 55.377 235.173 55.8631C235.13 55.807 234.955 55.5826 235.173 55.8631C235.298 56.0313 235.429 56.1934 235.554 56.3616C236.015 56.9723 236.47 57.5955 236.912 58.2187C238.489 60.4497 239.935 62.7679 241.206 65.1858C241.785 66.2888 242.303 67.4106 242.814 68.5447C242.963 68.8688 242.758 68.4014 242.745 68.3703C242.807 68.5198 242.87 68.6756 242.932 68.8252C243.038 69.0869 243.144 69.3549 243.244 69.6166C243.455 70.1712 243.661 70.7321 243.854 71.2992C244.552 73.3557 245.088 75.462 245.431 77.6058C245.468 77.855 245.506 78.0981 245.543 78.3473C245.599 78.7025 245.493 78.042 245.5 78.0482C245.531 78.0731 245.549 78.472 245.549 78.4657C245.605 78.983 245.655 79.5064 245.693 80.0299C245.761 81.0145 245.786 82.0054 245.774 82.9962C245.761 83.9871 245.705 84.9281 245.612 85.894C245.587 86.1246 245.562 86.3552 245.537 86.5795C245.524 86.6792 245.512 86.7727 245.5 86.8724C245.462 87.2899 245.599 86.2118 245.531 86.6294C245.45 87.1155 245.381 87.6015 245.294 88.0814C244.957 89.9322 244.477 91.7519 243.879 93.5342C243.58 94.4191 243.256 95.2978 242.907 96.1702C242.814 96.4008 242.458 96.9679 242.888 96.2325C242.795 96.3946 242.733 96.594 242.658 96.7685C242.452 97.2421 242.234 97.7157 242.01 98.1831C240.389 101.592 238.414 104.826 236.27 107.936C235.198 109.494 234.083 111.014 232.936 112.522C232.818 112.678 232.699 112.834 232.581 112.984C232.519 113.065 232.039 113.694 232.35 113.283C232.662 112.871 232.195 113.488 232.12 113.582C231.964 113.787 231.802 113.987 231.64 114.193C231.067 114.922 230.487 115.651 229.908 116.38C225.545 121.826 220.84 127.148 217.288 133.181C216.914 133.81 216.559 134.452 216.223 135.106L218.086 133.673C215.201 134.427 212.315 135.181 209.43 135.935C202.918 137.636 196.399 139.344 189.887 141.045L168.849 146.548C164.455 147.695 160.068 148.847 155.675 149.994C155.369 150.075 155.039 150.131 154.74 150.237C154.727 150.237 154.709 150.237 154.69 150.25C155.07 150.081 155.6 150.15 155.245 150.162C155.12 150.162 155.002 150.181 154.877 150.194C154.597 150.218 154.31 150.237 154.029 150.256C152.939 150.331 151.848 150.387 150.752 150.43C145.492 150.63 140.207 150.518 134.96 150.156C133.583 150.063 132.2 149.944 130.822 149.807C130.18 149.745 129.545 149.676 128.909 149.602C128.573 149.564 128.236 149.521 127.9 149.483C127.731 149.464 127.563 149.439 127.395 149.421C126.778 149.346 127.744 149.471 127.351 149.421C124.796 149.059 122.254 148.629 119.748 148.031C118.652 147.769 117.555 147.47 116.477 147.128C116.009 146.978 115.548 146.822 115.087 146.648C114.85 146.56 114.62 146.467 114.389 146.38C113.729 146.124 114.956 146.623 114.277 146.336C112.582 145.619 110.881 144.921 109.167 144.242C105.814 142.921 102.443 141.65 99.1025 140.297C98.6975 140.129 98.2862 139.967 97.8811 139.799C97.663 139.712 97.4449 139.618 97.2268 139.531C97.0897 139.475 96.2858 139.138 96.7781 139.344C97.2704 139.55 96.6098 139.269 96.4914 139.219C96.2733 139.126 96.0552 139.032 95.8371 138.939C95.3697 138.74 94.9023 138.534 94.4412 138.328C92.6464 137.531 90.8641 136.689 89.113 135.804C85.6356 134.041 82.258 132.065 79.0985 129.772C78.7059 129.485 78.332 129.161 77.9269 128.9C78.3569 129.18 78.2697 129.168 77.9082 128.881C77.6964 128.713 77.4782 128.538 77.2664 128.37C76.5123 127.753 75.777 127.117 75.0603 126.463C73.6021 125.123 72.2311 123.69 70.966 122.169C70.8289 122.007 70.6918 121.839 70.561 121.671C70.4862 121.577 70.4114 121.477 70.3304 121.384C70.0063 120.979 70.455 121.534 70.48 121.577C70.212 121.135 69.8505 120.736 69.5514 120.312C68.9781 119.496 68.4359 118.661 67.9312 117.807C67.4264 116.953 66.9341 116.043 66.4916 115.134C66.2797 114.697 66.0803 114.261 65.8809 113.819C65.5382 113.046 66.0118 114.155 65.8124 113.669C65.7064 113.395 65.5942 113.121 65.4883 112.846C64.6969 110.778 64.0924 108.64 63.6562 106.465C63.5502 105.935 63.4567 105.406 63.3695 104.876C63.3259 104.589 63.2823 104.296 63.2386 104.01C63.1701 103.574 63.3009 104.621 63.2636 104.178C63.2511 103.991 63.2199 103.81 63.195 103.623C63.0579 102.408 62.9707 101.181 62.927 99.9592C62.8336 97.2296 63.2137 94.5001 63.0891 91.7831C63.0517 91.0041 62.9831 90.2189 62.9894 89.4399C62.9894 89.2467 63.0018 89.0598 63.0081 88.8666C63.0081 88.6983 63.1389 88.3244 62.9956 88.8604C63.033 88.7233 63.0517 88.5861 63.0891 88.4553C63.1576 88.206 63.3321 87.9131 63.1202 88.287C63.2075 88.1375 63.3196 87.9754 63.4007 87.8196C63.1763 88.2621 63.2386 88.0066 63.3882 87.8508C63.6312 87.6078 63.868 87.3772 64.1298 87.1591C63.6188 87.5828 64.3977 86.9971 64.5535 86.9036C64.8464 86.7166 65.1518 86.5359 65.4509 86.3552C66.8344 85.5263 68.2241 84.6414 69.3084 83.4262C70.3927 82.211 71.2153 80.9148 71.8883 79.4877C72.5614 78.0607 73.1534 76.509 73.7641 75.0133C73.7953 74.9323 74.0196 74.4026 73.8638 74.7641C73.708 75.1255 73.9386 74.602 73.9698 74.521C74.0944 74.2344 74.2253 73.9539 74.3624 73.6735C74.5182 73.3557 74.6864 73.0441 74.8671 72.745C74.9606 72.5892 75.0541 72.4396 75.1538 72.29C75.1476 72.3025 75.6025 71.6295 75.3844 71.9411C75.1663 72.2527 75.509 71.7915 75.5651 71.723C75.6835 71.5859 75.8019 71.4488 75.9265 71.3179C76.1696 71.0562 76.4313 70.8006 76.6993 70.5638C76.799 70.4766 76.9049 70.3894 77.0046 70.3021C76.5746 70.676 76.8925 70.3893 77.0046 70.3146C77.2975 70.1276 77.5904 69.9531 77.8833 69.7849C78.3694 69.5044 77.9456 69.7412 77.821 69.7849C77.9768 69.7288 78.1263 69.6727 78.2884 69.6228C78.4504 69.573 78.6 69.5418 78.762 69.5044C79.1858 69.3985 78.7869 69.386 78.6498 69.5169C78.7433 69.4297 79.6469 69.573 79.1982 69.4982C78.7495 69.4234 79.2792 69.5356 79.3852 69.5605C79.5908 69.6166 79.7902 69.6914 79.9834 69.7662C80.9867 70.1588 82.2954 69.6852 83.0121 68.9623C83.8658 68.1085 83.9905 67.0678 83.816 65.9336C83.978 66.9743 83.735 64.8368 83.8596 64.8555C83.8845 64.8555 83.7412 65.46 83.8347 65.0923C83.8658 64.9802 83.8783 64.8555 83.9032 64.7434C83.9718 64.4318 84.0715 64.1326 84.1712 63.8273C84.3457 63.2914 84.1774 63.8086 84.1276 63.9083C84.1836 63.8024 84.2335 63.6902 84.2834 63.5842C84.408 63.335 84.5513 63.0919 84.7009 62.8551C84.7632 62.7554 84.8442 62.6557 84.9003 62.556C85.1246 62.1821 84.5513 62.9299 84.8504 62.6121C85.0436 62.4064 85.2181 62.1883 85.4175 61.9951C85.4923 61.9266 86.1342 61.3657 85.8226 61.6088C85.511 61.8518 86.184 61.3782 86.29 61.3096C86.4271 61.2286 86.5704 61.1539 86.7075 61.0791C86.7636 61.0479 87.125 60.8485 86.7698 61.0354C86.4146 61.2224 86.7574 61.0355 86.8384 61.0105C87.0253 60.9482 87.2185 60.8859 87.4117 60.836C87.5737 60.7924 88.3839 60.6615 87.7046 60.7426C87.9788 60.7114 88.253 60.6927 88.5272 60.674C89.2189 60.6304 89.9106 60.6242 90.6024 60.5743C92.179 60.4559 93.8367 60.2004 95.189 59.3092C96.5413 58.4181 97.5259 57.1717 98.1802 55.701C98.3796 55.2524 98.5666 54.7912 98.7535 54.3363C98.8221 54.168 98.8906 53.9998 98.9592 53.8315C98.9405 53.8751 98.7535 54.274 98.9093 53.9499C99.1773 53.3891 99.464 52.8843 99.8067 52.3608C99.52 52.797 99.6883 52.5104 99.9064 52.286C100.087 52.0866 100.287 51.9121 100.48 51.7252C100.561 51.6442 100.654 51.5756 100.741 51.5008C100.249 51.9433 100.517 51.6628 100.667 51.5756C100.928 51.4136 101.184 51.2391 101.452 51.0958C101.689 50.9649 102.399 50.6907 101.757 50.9213C102.05 50.8153 102.337 50.7094 102.636 50.6284C102.935 50.5474 103.234 50.485 103.54 50.4227C103.645 50.404 103.988 50.4103 103.583 50.4165C103.128 50.4165 103.652 50.4165 103.745 50.4165C104.051 50.4103 104.356 50.3978 104.667 50.4165C104.823 50.4227 104.973 50.4477 105.129 50.4539C105.527 50.4663 104.605 50.3106 104.979 50.4414C105.26 50.5411 105.577 50.5723 105.87 50.6658C105.982 50.7032 106.088 50.7405 106.194 50.7779C106.923 51.021 105.608 50.4913 106.294 50.834C107.31 51.3388 108.425 51.426 109.441 50.834C110.307 50.3293 111.105 49.2013 110.987 48.1419C110.937 47.6994 110.906 47.257 110.912 46.8145C110.912 46.6151 110.937 46.4157 110.937 46.2163C110.949 45.4248 110.781 46.8706 110.937 46.0979C111.018 45.7053 111.092 45.3189 111.205 44.9388C111.248 44.783 111.298 44.6334 111.348 44.4838C111.398 44.3343 111.454 44.1847 111.51 44.0352C111.348 44.4091 111.336 44.4402 111.479 44.1162C111.84 43.387 112.239 42.714 112.7 42.0472C112.32 42.6081 112.619 42.1469 112.738 42.0098C112.869 41.854 112.999 41.7045 113.136 41.5549C113.467 41.1935 113.816 40.8569 114.177 40.5391C114.19 40.5267 114.8 40.0094 114.426 40.321C114.053 40.6326 114.676 40.1403 114.694 40.1278C115.025 39.8973 115.367 39.6791 115.716 39.4797C116.065 39.2803 116.427 39.1058 116.795 38.9376C116.078 39.2678 116.807 38.9438 116.944 38.9002C117.168 38.8192 117.399 38.7506 117.63 38.6821C117.929 38.5948 118.483 38.358 118.795 38.4203L118.44 38.4639C118.596 38.4452 118.758 38.4266 118.913 38.4203C119.113 38.4079 119.312 38.3954 119.512 38.3954C119.954 38.3892 120.39 38.4141 120.827 38.4639C120.708 38.4515 120.16 38.3268 120.714 38.4639C121.013 38.5387 121.319 38.601 121.624 38.6758C124.217 39.3052 127.033 39.4548 128.971 37.2737C130.386 35.6783 130.878 33.4162 131.67 31.4781C131.713 31.3722 132.056 30.587 131.751 31.2787C131.819 31.1229 131.888 30.9671 131.956 30.8113C132.131 30.4187 132.312 30.0323 132.499 29.646C132.922 28.7673 133.384 27.9073 133.901 27.0785C134.119 26.7233 134.349 26.3743 134.586 26.0315C134.705 25.8633 134.829 25.695 134.948 25.533C134.499 26.1437 134.991 25.4894 135.072 25.3959C135.652 24.7104 136.294 24.1371 136.948 23.5264C136.493 23.9564 136.742 23.6759 136.886 23.5762C137.085 23.4391 137.272 23.302 137.478 23.1774C137.814 22.9655 138.17 22.791 138.519 22.5916C139.185 22.2177 138.101 22.7287 138.55 22.5667C138.743 22.4981 138.93 22.4233 139.123 22.361C139.684 22.1803 140.251 22.0494 140.831 21.9497C140.176 22.0619 141.148 21.9186 141.204 21.9123C141.404 21.8936 141.609 21.8812 141.815 21.8687C142.326 21.8376 142.837 21.8313 143.348 21.8251C144.47 21.8126 145.598 21.8376 146.72 21.7877C149.25 21.6818 151.78 21.2268 153.98 19.8995C155.849 18.7715 157.376 17.1824 158.865 15.612C159.52 14.9203 160.18 14.2348 160.891 13.5867C161.24 13.2689 161.595 12.9573 161.956 12.6581C162 12.6207 162.735 12.0474 162.212 12.4463C162.436 12.278 162.667 12.1097 162.897 11.9415C164.555 10.7574 166.331 9.78529 168.188 8.95646C168.687 8.73212 167.515 9.20573 168.356 8.88791C168.624 8.7882 168.886 8.68226 169.148 8.58878C169.59 8.42676 170.039 8.2772 170.488 8.1401C171.478 7.83474 172.488 7.57924 173.504 7.37982C173.965 7.28634 174.432 7.21156 174.9 7.14301C174.27 7.23649 174.9 7.14301 175.055 7.13055C175.292 7.10562 175.523 7.08069 175.76 7.062C176.794 6.97475 177.829 6.93736 178.869 6.96229C179.436 6.97475 180.003 7.00591 180.564 7.05577C180.839 7.08069 181.113 7.11185 181.387 7.13678C182.072 7.20533 180.888 7.03707 181.63 7.17417C182.696 7.36112 183.755 7.573 184.802 7.85967C185.849 8.14633 186.865 8.50777 187.88 8.90037C188.691 9.21196 187.531 8.72588 188.011 8.95646C188.298 9.09356 188.591 9.21819 188.871 9.35529C189.357 9.5921 189.843 9.83514 190.317 10.0969C191.264 10.6203 192.187 11.1937 193.078 11.8168C193.227 11.9228 193.371 12.0287 193.52 12.1347C193.664 12.2406 193.813 12.3465 193.956 12.4587C193.682 12.2468 193.688 12.2531 193.969 12.4712C194.386 12.8202 194.804 13.1629 195.209 13.5244C196.013 14.2472 196.779 15.02 197.496 15.8301C197.826 16.204 198.138 16.5904 198.456 16.9705C198.792 17.3756 198.044 16.3847 198.543 17.0889C198.755 17.3818 198.967 17.6747 199.172 17.9738C199.808 18.8962 200.699 19.5193 201.865 19.5193C202.893 19.5193 204.089 18.9398 204.557 17.9738C204.881 17.2946 205.255 16.634 205.678 16.0108C205.766 15.8862 205.853 15.7678 205.94 15.6432C206.351 15.0449 205.61 15.9672 205.94 15.6494C206.233 15.369 206.476 15.02 206.763 14.7209C207.024 14.4529 207.292 14.1912 207.573 13.9357C207.685 13.8359 207.797 13.7362 207.909 13.6365C207.941 13.6116 208.501 13.1255 208.121 13.4558C207.741 13.7861 208.314 13.3187 208.346 13.2938C208.47 13.2065 208.589 13.1193 208.713 13.0383C209.087 12.7828 209.474 12.546 209.866 12.3216C210.159 12.1534 210.464 11.9976 210.77 11.8418C210.938 11.7608 211.113 11.6797 211.281 11.5987C211.786 11.3557 211.25 11.6112 211.162 11.6424C211.904 11.3495 212.652 11.0877 213.425 10.8883C213.755 10.8011 214.085 10.7263 214.422 10.6577C214.646 10.6141 214.87 10.5767 215.095 10.5393C215.338 10.4957 215.5 10.3461 214.939 10.558C215.562 10.3275 216.54 10.4272 217.195 10.4334C217.569 10.4334 217.949 10.4583 218.323 10.4832C218.472 10.4957 218.622 10.5144 218.771 10.5269C219.544 10.5954 218.073 10.3835 218.834 10.5393C219.594 10.6951 220.298 10.8385 221.015 11.0753C221.183 11.1314 222.367 11.4803 221.538 11.2435C221.856 11.3308 222.168 11.5364 222.461 11.686C223.258 12.1035 224.012 12.5958 224.741 13.1255C224.193 12.7329 225.047 13.381 225.196 13.5181C225.477 13.7674 225.751 14.0229 226.013 14.2846C226.299 14.5713 226.58 14.8767 226.842 15.182C226.947 15.3066 227.047 15.4313 227.153 15.5559C226.667 14.9639 227.215 15.6556 227.309 15.7927C227.733 16.4097 228.113 17.0515 228.437 17.7246C228.505 17.8617 228.568 18.005 228.63 18.1483C228.287 17.413 228.611 18.1172 228.661 18.2605C228.792 18.622 228.911 18.9896 229.01 19.3573C229.091 19.6564 229.378 20.3855 229.297 20.7034C229.309 20.6535 229.222 19.9493 229.278 20.56C229.297 20.7906 229.322 21.015 229.334 21.2455C229.359 21.7067 229.359 22.1741 229.334 22.6352C229.328 22.791 229.309 22.9468 229.303 23.1026C229.272 23.8193 229.422 22.5542 229.297 23.2085C229.122 24.1308 228.854 24.9908 228.574 25.882C228.424 26.3494 228.898 25.2214 228.549 25.9443C228.437 26.1749 228.331 26.4054 228.213 26.6298C227.97 27.0972 227.702 27.5459 227.421 27.9883C226.536 29.3655 227.091 31.4906 228.537 32.2509C230.082 33.0672 231.858 32.5998 232.799 31.1354L232.805 31.0668Z" fill="#75BF60"/>
<path d="M46.2969 151.012C57.1215 156.434 61.733 162.684 63.9079 167.589C65.2228 170.555 65.7214 172.556 68.4384 179.423C70.4388 184.489 73.7728 189.02 78.0042 192.441C79.0075 193.251 80.2601 194.043 81.5065 193.706C83.0145 193.295 83.619 191.506 83.9057 189.973C85.0523 183.798 84.9152 177.391 83.4944 171.272C85.607 174.88 89.533 177.367 93.6958 177.728C96.3194 177.952 99.4727 176.955 100.152 174.413C100.464 173.254 100.177 172.02 99.8466 170.867C98.1204 164.828 95.1541 159.145 91.1782 154.278C96.8179 157.232 102.975 159.195 109.282 160.042C110.503 160.204 111.992 160.217 112.665 159.182C113.22 158.341 112.921 157.213 112.522 156.291C109.244 148.781 100.825 145.242 94.4997 140.038C93.7519 139.421 93.0041 138.748 92.6053 137.863C91.5209 135.489 93.2845 132.872 93.9202 130.342C95.4719 124.166 92.7611 117.062 87.57 111.858C83.0706 107.346 77.2439 104.33 71.735 101.133C66.7621 98.2479 61.1722 96.665 54.5789 96.9143C47.4996 97.1822 37.5039 102.972 34.0203 109.141C28.8417 118.327 30.1441 127.269 30.6801 129.812C31.7768 135.04 34.1138 138.86 35.7029 141.048C39.2363 144.369 42.7635 147.697 46.2969 151.019V151.012Z" fill="#75BF60"/>
<path d="M44.717 153.705C47.5337 155.126 50.3692 156.715 52.8245 158.709C52.2013 158.204 53.0364 158.884 53.1797 159.002C53.4352 159.214 53.6907 159.426 53.94 159.644C54.4199 160.055 54.8872 160.485 55.3484 160.921C56.1835 161.725 56.9811 162.573 57.7227 163.458C57.8785 163.638 58.0218 163.832 58.1776 164.012C58.5765 164.498 57.8162 163.526 58.0654 163.863C58.134 163.956 58.2025 164.043 58.2711 164.137C58.5827 164.561 58.888 164.991 59.1747 165.427C59.6732 166.187 60.1344 166.979 60.5519 167.783C60.7327 168.132 60.9071 168.487 61.0692 168.848C61.1502 169.029 61.2374 169.216 61.3184 169.397C61.3558 169.478 61.387 169.559 61.4244 169.64C61.63 170.101 61.1128 168.879 61.3122 169.372C61.5989 170.082 61.8793 170.799 62.1473 171.522C64.0293 176.607 65.6371 181.954 68.5972 186.54C70.3296 189.22 72.4172 191.713 74.8165 193.819C76.2311 195.059 77.7766 196.38 79.6773 196.76C82.0516 197.234 84.2327 196.231 85.5788 194.261C86.5696 192.816 86.8874 191.04 87.1492 189.345C87.4732 187.226 87.6976 185.094 87.7661 182.951C87.8907 178.757 87.4296 174.525 86.4948 170.437L80.799 172.837C84.052 178.283 91.1437 182.265 97.5375 180.446C101.133 179.417 103.769 176.364 103.333 172.488C102.922 168.879 101.32 165.24 99.7623 161.993C98.0486 158.422 95.8674 155.138 93.3747 152.066C92.1159 153.699 90.8571 155.331 89.5983 156.958C93.0694 158.765 96.7274 160.261 100.485 161.351C102.28 161.875 104.106 162.305 105.95 162.641C107.926 163.003 109.995 163.464 112.002 163.059C114.432 162.567 116.183 160.367 116.071 157.88C115.99 155.98 115.055 154.141 114.064 152.558C112.388 149.879 110.138 147.648 107.664 145.716C105.19 143.784 102.38 141.939 99.7187 140.076C99.0955 139.64 98.4723 139.197 97.8554 138.736C97.7307 138.643 97.6123 138.555 97.4877 138.462C97.8616 138.761 96.8894 138.013 97.4877 138.462C97.1574 138.2 96.8271 137.939 96.5093 137.671C96.1915 137.403 95.911 137.122 95.6182 136.842C95.1819 136.418 95.5932 136.873 95.6493 136.91C95.6182 136.885 95.0635 136.069 95.506 136.798C95.4312 136.68 95.4 136.455 95.3627 136.331C95.157 135.645 95.3128 136.742 95.3689 136.331C95.3938 136.156 95.3066 135.895 95.3876 135.733C95.3315 136.119 95.319 136.194 95.3627 135.957C95.3876 135.832 95.4125 135.714 95.4374 135.589C95.83 133.925 96.6464 132.392 97.0078 130.722C97.3693 129.052 97.5313 127.326 97.4129 125.625C97.1636 122.048 96.0419 118.608 94.2596 115.504C90.4956 108.967 84.133 104.692 77.7516 100.997C74.6108 99.1769 71.5136 97.3073 68.1235 95.98C64.7335 94.6526 61.1813 93.9858 57.5981 93.8051C51.0422 93.481 44.7793 95.6684 39.4013 99.3638C36.6967 101.221 34.2663 103.377 32.3157 106.026C30.1782 108.93 28.7885 112.575 27.9597 116.065C26.7134 121.293 26.6261 126.921 28.022 132.137C28.8509 135.24 30.1782 138.269 31.8982 140.986C32.1973 141.46 32.5089 141.921 32.833 142.376C33.4748 143.273 34.2725 143.977 35.0702 144.731C36.572 146.146 38.0739 147.56 39.5758 148.975C41.0776 150.39 42.5795 151.804 44.0813 153.219C45.2716 154.334 47.3281 154.484 48.4872 153.219C49.6463 151.954 49.7523 150.003 48.4872 148.813C45.633 146.127 42.7789 143.441 39.9247 140.749C39.5882 140.431 39.2455 140.113 38.909 139.796C38.7282 139.627 38.5475 139.409 38.3481 139.266C37.9991 139.017 38.2858 138.948 38.2982 139.353C38.2982 139.222 37.968 138.886 37.8932 138.78C37.7187 138.518 37.5442 138.256 37.3759 137.995C36.678 136.898 36.0423 135.764 35.4939 134.586C35.3631 134.305 35.2135 134.025 35.1076 133.732C35.3381 134.399 35.1637 133.863 35.0951 133.695C35.0203 133.502 34.9455 133.308 34.8708 133.115C34.5779 132.336 34.3224 131.545 34.1043 130.747C33.8363 129.787 33.6182 128.815 33.4686 127.831C33.4499 127.712 33.4375 127.588 33.4125 127.469C33.4125 127.45 33.5247 128.379 33.4686 127.905C33.4437 127.693 33.4188 127.475 33.3938 127.264C33.344 126.752 33.3004 126.235 33.2754 125.724C33.2131 124.472 33.2256 123.219 33.3066 121.973C33.3315 121.642 33.3564 121.306 33.3938 120.976C33.4125 120.782 33.4375 120.595 33.4561 120.409C33.5185 119.829 33.4437 120.452 33.4375 120.539C33.4748 119.736 33.7054 118.894 33.8799 118.115C34.26 116.439 34.7711 114.787 35.4379 113.205C35.388 113.329 35.2135 113.709 35.469 113.149C35.55 112.968 35.631 112.793 35.7183 112.613C35.9364 112.158 36.1607 111.709 36.3975 111.267C36.7403 110.631 37.1017 110.02 37.5193 109.434C37.5504 109.397 37.7498 109.11 37.7561 109.117C37.7748 109.129 37.3323 109.64 37.6377 109.272C37.8558 109.011 38.0739 108.743 38.3045 108.487C38.7594 107.982 39.233 107.496 39.7315 107.035C40.2301 106.574 40.7224 106.144 41.2459 105.72C41.7943 105.247 41.3892 105.608 41.2459 105.72C41.3643 105.621 41.4889 105.533 41.6135 105.446C41.9251 105.215 42.2367 104.991 42.5545 104.779C43.7697 103.944 45.041 103.19 46.3559 102.523C46.9542 102.218 47.5898 101.844 48.2317 101.638C47.5337 101.857 48.0385 101.719 48.2192 101.645C48.4 101.57 48.5682 101.508 48.7427 101.439C49.0917 101.308 49.4407 101.184 49.7896 101.065C50.4066 100.859 51.0235 100.672 51.6529 100.517C51.9895 100.429 52.326 100.355 52.6687 100.286C52.9429 100.23 53.4228 100.249 53.6658 100.112C53.3168 100.311 53.0676 100.18 53.4228 100.149C53.5848 100.137 53.7406 100.118 53.9026 100.099C54.2142 100.074 54.532 100.062 54.8436 100.049C55.7597 100.024 56.682 100.031 57.5981 100.074C58.377 100.112 59.2059 100.13 59.9786 100.28C59.3056 100.149 60.1905 100.317 60.4335 100.355C60.8947 100.429 61.3558 100.523 61.817 100.616C63.3625 100.947 64.883 101.402 66.36 101.975C66.5469 102.05 66.7525 102.112 66.9333 102.206C66.8398 102.162 66.335 101.944 66.871 102.181C67.2075 102.33 67.544 102.48 67.8743 102.642C68.5785 102.978 69.264 103.34 69.9432 103.726C72.9158 105.421 75.9133 107.091 78.7923 108.936C79.4716 109.372 80.1509 109.827 80.8114 110.288C81.1417 110.519 81.472 110.756 81.7961 110.999C81.9768 111.129 82.1575 111.267 82.332 111.404C81.7898 110.999 82.494 111.534 82.5501 111.578C83.865 112.631 85.1176 113.772 86.2456 115.024C86.4761 115.28 86.7005 115.535 86.9186 115.803C87.0557 115.965 87.1866 116.134 87.3237 116.302C87.6415 116.694 86.9061 115.71 87.3797 116.377C87.8534 117.043 88.2896 117.679 88.7009 118.365C89.1122 119.05 89.4674 119.723 89.7977 120.433C89.8538 120.552 89.9846 120.764 89.9971 120.876C89.941 120.396 89.8725 120.564 89.9659 120.801C90.1217 121.212 90.2775 121.624 90.4146 122.041C90.6327 122.714 90.8197 123.4 90.9692 124.092C91.0191 124.328 91.0129 124.914 91.1562 125.12C90.9755 124.852 91.1001 124.596 91.1313 124.976C91.15 125.207 91.1749 125.431 91.1936 125.662C91.2434 126.341 91.2434 127.027 91.2061 127.706C91.1936 127.893 91.1811 128.08 91.1624 128.267C91.1313 128.61 90.9256 128.759 91.1749 128.217C91.0316 128.522 91.0378 128.99 90.963 129.32C90.5891 130.915 89.8226 132.38 89.4425 133.969C88.9502 136.044 89.0561 138.269 90.2713 140.089C91.3182 141.653 92.8699 142.756 94.3469 143.877C95.4748 144.731 96.6339 145.541 97.8055 146.339C98.9771 147.137 100.223 147.972 101.414 148.813C101.975 149.206 102.529 149.611 103.078 150.016C103.227 150.128 103.389 150.234 103.533 150.358C103.464 150.302 103.003 149.941 103.439 150.29C103.732 150.527 104.025 150.757 104.311 151C105.39 151.898 106.412 152.864 107.34 153.917C107.564 154.172 107.87 154.459 108.038 154.758C108.001 154.69 107.627 154.197 107.951 154.652C108.038 154.771 108.119 154.889 108.206 155.007C108.624 155.612 109.01 156.235 109.347 156.889C109.415 157.02 109.484 157.151 109.546 157.288C109.565 157.326 109.883 157.992 109.671 157.531C109.434 157.008 109.945 158.279 109.889 158.279C109.683 158.285 109.926 157.637 109.852 158.142L109.914 157.762C109.833 158.036 109.833 158.049 109.914 157.812C110.132 157.513 110.201 157.301 110.531 157.07C110.045 157.407 111.16 156.84 110.55 157.051C110.201 157.17 110.381 156.889 110.761 157.033C110.687 157.002 110.437 157.045 110.338 157.045C110.144 157.045 108.998 156.958 109.833 157.039C108.904 156.952 107.976 156.752 107.066 156.578C103.62 155.911 100.236 154.914 96.9829 153.605C96.7648 153.518 96.5467 153.431 96.3348 153.337C96.4532 153.387 96.8583 153.568 96.3037 153.319C95.9173 153.15 95.5309 152.976 95.1508 152.801C94.3406 152.427 93.5492 152.035 92.7578 151.624C91.3681 150.901 89.7104 151.169 88.7383 152.427C87.7661 153.686 87.9905 155.294 88.9813 156.522C89.2057 156.802 89.43 157.083 89.6543 157.363C89.2617 156.858 89.8912 157.687 89.9784 157.805C90.4022 158.385 90.8135 158.977 91.2123 159.575C92.0037 160.772 92.7453 162.006 93.4246 163.271C93.7611 163.906 94.0914 164.542 94.3967 165.19C94.5338 165.471 94.6647 165.757 94.7956 166.044C94.8703 166.206 94.9451 166.374 95.0137 166.536C95.1196 166.779 95.2443 167.066 95.0698 166.661C95.6244 167.988 96.1105 169.334 96.5405 170.705C96.7461 171.36 96.9455 172.014 97.0951 172.687C97.1138 172.78 97.226 173.36 97.1636 172.961C97.1013 172.562 97.1699 173.142 97.1761 173.235C97.1823 173.329 97.1636 173.908 97.1948 173.503C97.226 173.123 97.1138 173.759 97.1013 173.821C96.9892 174.257 97.0078 173.634 97.1948 173.603C97.1823 173.603 96.9954 173.946 97.0078 173.927C96.771 174.363 97.4752 173.453 96.9642 173.946C96.4532 174.438 97.4877 173.684 96.8583 174.052C96.771 174.102 96.0918 174.419 96.0918 174.469C96.0918 174.407 96.8271 174.22 96.2787 174.376C96.1479 174.413 96.0232 174.457 95.8924 174.494C95.6618 174.556 95.4312 174.606 95.2006 174.656C94.4466 174.818 95.7864 174.656 95.0137 174.675C94.7083 174.681 94.4092 174.7 94.1038 174.687C93.8546 174.675 93.6053 174.65 93.3623 174.625C92.9136 174.588 93.9356 174.737 93.4993 174.638C93.3498 174.6 93.194 174.581 93.0444 174.55C92.3963 174.413 91.7731 174.22 91.15 174.002C91.0814 173.977 90.7075 173.846 91.0939 173.989C91.5301 174.145 90.9194 173.908 90.8321 173.865C90.4832 173.697 90.1404 173.516 89.8039 173.323C89.5359 173.167 89.2742 172.999 89.0187 172.824C88.9377 172.768 88.7133 172.65 88.6386 172.556C89.0125 173.036 88.8131 172.693 88.6261 172.544C88.0902 172.101 87.5916 171.615 87.1305 171.092C87.0308 170.973 86.9311 170.855 86.8313 170.736C86.5821 170.456 87.1492 171.21 86.8251 170.724C86.6132 170.4 86.3951 170.082 86.1957 169.752C85.398 168.412 83.7279 167.876 82.3071 168.474C80.8862 169.073 80.1509 170.618 80.5061 172.151C80.693 172.967 80.8613 173.784 81.0046 174.6C81.0732 174.986 81.1355 175.373 81.1916 175.765C81.204 175.846 81.2851 176.457 81.2352 176.083C81.1854 175.709 81.2788 176.47 81.2851 176.544C81.472 178.202 81.5655 179.872 81.5717 181.536C81.578 183.2 81.4845 184.97 81.2975 186.677C81.2788 186.87 81.2477 187.07 81.229 187.263C81.1791 187.768 81.3038 186.808 81.229 187.313C81.1729 187.699 81.1106 188.092 81.0483 188.478C80.9299 189.17 80.8114 189.862 80.5871 190.529C80.3503 191.239 80.8738 190.117 80.4936 190.747C80.4251 190.859 80.3378 190.977 80.2817 191.096C80.1073 191.457 80.6743 190.641 80.3939 190.921C80.1135 191.202 80.9298 190.616 80.5746 190.797C80.2194 190.977 81.3287 190.691 80.693 190.759C80.8364 190.74 81.3162 190.778 80.7741 190.722L81.1106 190.759C80.8239 190.666 80.7865 190.666 80.9984 190.759C81.3723 190.865 80.88 190.697 80.7803 190.641C80.6245 190.553 80.4749 190.46 80.3254 190.36C80.2506 190.31 79.7957 189.98 80.1073 190.217C80.4188 190.454 79.9889 190.117 79.9203 190.055C79.3283 189.569 78.7612 189.058 78.2066 188.528C77.1596 187.525 76.2124 186.441 75.2901 185.319C74.9972 184.964 75.5768 185.718 75.3088 185.344C75.1841 185.169 75.0533 185.001 74.9286 184.833C74.7292 184.558 74.536 184.278 74.3429 183.998C73.9378 183.399 73.5514 182.782 73.19 182.159C72.8285 181.536 72.4858 180.894 72.168 180.246C72.0184 179.941 71.8751 179.635 71.7317 179.324C71.6632 179.168 71.5946 179.012 71.5261 178.856C71.7504 179.355 71.5448 178.9 71.4513 178.657C70.9029 177.286 70.3794 175.909 69.8622 174.532C69.2141 172.799 68.6034 171.048 67.9428 169.322C66.5843 165.739 64.8955 162.529 62.49 159.538C58.6263 154.739 53.3418 151.144 47.8827 148.395C46.4307 147.66 44.4365 147.965 43.6202 149.511C42.8724 150.926 43.184 152.988 44.7357 153.774L44.717 153.705Z" fill="#75BF60"/>
<path d="M166.719 70.937C166.812 73.8223 168.9 76.1281 171.636 76.8759C174.371 77.6237 177.257 76.4646 179.787 75.2307C180.834 74.7197 181.887 74.2274 182.946 73.7475C183.457 73.5169 183.968 73.2926 184.479 73.0683C184.778 72.9374 185.078 72.8128 185.377 72.6819C185.707 72.5386 185.321 72.7068 185.277 72.7255C185.451 72.657 185.62 72.5822 185.794 72.5136C187.988 71.6038 190.206 70.7563 192.437 69.9399C201.424 66.662 210.615 64.001 219.583 60.6732C224.799 58.7352 229.953 56.5852 234.894 54.0115C236.34 53.2574 236.895 51.1137 236.01 49.7489C235.056 48.272 233.299 47.8233 231.747 48.6334C229.728 49.6866 227.672 50.665 225.584 51.5873C225.117 51.793 224.649 51.9986 224.176 52.198C223.328 52.5657 224.749 51.9612 223.895 52.3164C223.64 52.4224 223.378 52.5283 223.123 52.6342C222.044 53.0767 220.966 53.5005 219.882 53.918C215.663 55.5383 211.382 56.9903 207.088 58.4111C198.42 61.2777 189.72 64.0446 181.339 67.684C180.229 68.1638 179.126 68.6624 178.029 69.1796C177.444 69.4538 176.858 69.7405 176.272 70.0271C176.023 70.1455 175.767 70.264 175.518 70.3824C175.188 70.5319 175.182 70.5319 175.499 70.3948C175.331 70.4634 175.157 70.5257 174.982 70.588C174.808 70.6441 174.633 70.7002 174.459 70.75C174.272 70.7999 173.231 70.8934 173.954 70.8809C173.835 70.8809 173.287 70.9744 173.2 70.8809C173.68 70.9557 173.748 70.9557 173.399 70.8871C173.262 70.8497 173.125 70.8124 172.988 70.7625L173.337 70.9121C173.206 70.8497 173.081 70.7812 172.963 70.7126C172.683 70.5257 172.726 70.5631 173.081 70.831C172.975 70.7438 172.876 70.6441 172.782 70.5444L173.013 70.8622C172.938 70.75 172.863 70.6379 172.807 70.5195C172.975 70.9619 173.013 71.0242 172.913 70.7064C172.957 71.205 172.969 71.2797 172.957 70.9308C172.907 69.3043 171.561 67.7401 169.841 67.8149C168.121 67.8896 166.669 69.1859 166.725 70.9308L166.719 70.937Z" fill="#438833"/>
<path d="M169.079 30.6226C167.589 35.8261 171.11 41.6653 176.164 43.6096C179.704 44.9681 183.848 44.6441 187.139 42.7559C190.423 40.8614 192.791 37.4402 193.389 33.7011C193.595 32.436 193.601 31.1211 193.264 29.881C192.704 27.8183 191.239 26.117 189.637 24.6962C187.438 22.7394 184.833 21.1254 181.929 20.6393C179.025 20.1532 173.316 22.1723 171.54 24.5154C170.201 26.2853 169.073 30.6226 169.073 30.6226H169.079Z" fill="#C9C900"/>
<path d="M166.073 29.7937C164.416 35.8821 167.687 42.4504 173.034 45.5476C179.104 49.0624 187.293 47.8035 192.128 42.7683C194.353 40.45 195.961 37.4401 196.435 34.2494C196.727 32.2802 196.752 30.2362 196.042 28.3479C195.381 26.5906 194.372 25.07 193.088 23.699C190.757 21.2001 187.766 19.1436 184.513 18.0655C181.728 17.1432 178.849 17.3925 176.094 18.2961C173.19 19.2433 170.112 20.7638 168.491 23.4809C167.357 25.3878 166.628 27.65 166.067 29.7937C165.656 31.3703 166.591 33.2523 168.242 33.6262C169.893 34.0001 171.632 33.1402 172.075 31.4513C172.199 30.984 172.336 30.5228 172.48 30.0617C172.604 29.6628 172.735 29.2702 172.872 28.8776C172.959 28.6284 173.047 28.3853 173.14 28.1423C173.19 28.0176 173.24 27.893 173.284 27.7684C173.489 27.2387 173.059 28.2108 173.24 27.8743C173.458 27.463 173.633 27.0268 173.869 26.6217C173.95 26.4909 174.337 25.9611 173.988 26.3974C173.639 26.8336 174.156 26.2353 174.268 26.1294C174.349 26.0546 174.436 25.9798 174.517 25.9051C174.717 25.7181 174.829 25.8241 174.299 26.0609C174.486 25.9736 174.661 25.7991 174.835 25.687C175.309 25.3754 175.814 25.1012 176.325 24.8519C176.431 24.802 177.172 24.478 176.723 24.6649C176.275 24.8519 177.035 24.5465 177.147 24.5091C177.714 24.3035 178.288 24.1228 178.873 23.9732C179.328 23.861 179.939 23.861 180.363 23.6741C180.307 23.699 179.578 23.7489 180.101 23.7177C180.195 23.7177 180.282 23.699 180.375 23.6928C180.637 23.6741 180.899 23.6679 181.161 23.6741C181.266 23.6741 181.379 23.6865 181.485 23.6928C181.79 23.699 181.721 23.8797 181.111 23.6367C181.372 23.7426 181.721 23.7551 181.996 23.8236C182.288 23.8984 182.575 23.9794 182.862 24.0729C183.024 24.129 183.186 24.1851 183.348 24.2474C184.114 24.5154 183.024 24.0729 183.441 24.2786C184.021 24.5715 184.6 24.8519 185.155 25.1946C185.454 25.3754 185.741 25.5685 186.028 25.768C186.171 25.8677 186.308 25.9674 186.451 26.0733C186.701 26.254 186.663 26.2416 186.445 26.0609C187.492 26.9208 188.47 27.8182 189.343 28.8589C188.95 28.3915 189.38 28.9275 189.511 29.1269C189.692 29.4011 189.854 29.6815 190.003 29.9744C190.035 30.043 190.172 30.2299 190.165 30.3047C190.19 30.018 190.022 29.8996 190.122 30.2424C190.234 30.6225 190.327 30.9964 190.415 31.3828C190.514 31.8377 190.427 30.903 190.402 31.3703C190.39 31.5511 190.421 31.738 190.421 31.9187C190.421 32.2428 190.402 32.5606 190.384 32.8784C190.346 33.4891 190.371 32.9968 190.39 32.8722C190.365 33.028 190.334 33.1838 190.303 33.3396C190.24 33.6512 190.165 33.9565 190.078 34.2619C189.991 34.5672 189.897 34.8664 189.785 35.1655C189.748 35.2652 189.679 35.5456 189.617 35.6079C189.648 35.5768 189.929 34.9536 189.642 35.5145C189.355 36.0753 189.062 36.6362 188.713 37.1659C188.626 37.2968 188.533 37.4276 188.445 37.5585C188.408 37.6146 188.165 37.9324 188.402 37.6208C188.657 37.2905 188.34 37.6894 188.277 37.7641C188.177 37.8825 188.072 38.0009 187.966 38.1194C187.536 38.5867 187.068 38.998 186.595 39.4218C186.264 39.7147 187.031 39.1289 186.663 39.3657C186.563 39.428 186.47 39.5028 186.37 39.5714C186.109 39.7521 185.841 39.9203 185.566 40.0761C185.267 40.2506 184.962 40.4002 184.65 40.556C184.6 40.5809 184.202 40.7429 184.551 40.6058C184.949 40.4438 184.276 40.6993 184.202 40.7305C183.591 40.9424 182.968 41.1106 182.332 41.229C182.232 41.2477 181.684 41.3412 182.108 41.2726C182.532 41.2041 181.983 41.2851 181.877 41.2913C181.491 41.3225 181.104 41.3412 180.718 41.3412C180.419 41.3412 180.114 41.3287 179.814 41.31C179.64 41.2976 179.472 41.2789 179.297 41.2664C178.917 41.2352 179.472 41.2976 179.484 41.2913C179.229 41.3536 178.724 41.148 178.475 41.0857C178.101 40.9922 177.727 40.88 177.359 40.7554C177.234 40.7118 177.116 40.6681 176.998 40.6245C176.306 40.3753 177.602 40.9361 176.948 40.5934C176.692 40.4625 176.431 40.3316 176.181 40.1883C175.901 40.0263 175.627 39.8518 175.359 39.6648C175.271 39.6025 174.885 39.3159 175.24 39.5838C175.62 39.8705 175.122 39.4841 175.047 39.4156C174.549 38.9856 174.106 38.512 173.67 38.0259C173.62 37.9636 173.358 37.6956 173.639 38.001C173.957 38.3499 173.552 37.8825 173.495 37.7953C173.308 37.5273 173.134 37.2531 172.966 36.9727C172.797 36.6923 172.648 36.4056 172.511 36.119C172.455 36.0005 172.405 35.8261 172.33 35.7263C172.436 35.8697 172.536 36.2623 172.405 35.8759C172.193 35.2652 172.037 34.6607 171.9 34.0313C171.788 33.539 171.937 34.237 171.919 34.2307C171.875 34.212 171.875 33.7509 171.875 33.701C171.856 33.3832 171.85 33.0654 171.863 32.7476C171.863 32.6416 171.875 32.5357 171.881 32.4297C171.919 31.9187 171.975 32.2615 171.856 32.517C171.987 32.2303 172.006 31.7754 172.087 31.47C172.517 29.8996 171.557 28.0114 169.912 27.6375C168.267 27.2636 166.541 28.1298 166.08 29.8124L166.073 29.7937Z" fill="#438833"/>
<path d="M188.243 28.5106C185.146 27.7815 181.874 27.4512 178.696 27.7067C175.287 27.9747 172.041 28.7973 169.349 30.9784C167.865 32.1811 168.277 35.0727 169.978 35.8704C170.395 36.0635 170.869 36.3377 171.299 36.4561C172.196 36.7054 173.231 36.7615 174.147 36.8737C175.605 37.0544 177.07 37.1603 178.534 37.1915C180.098 37.2227 181.669 37.1666 183.233 37.017C184.093 36.936 184.953 36.8238 185.807 36.7054C186 36.6805 186.193 36.6493 186.386 36.6244C186.903 36.5496 186.773 36.5621 185.994 36.6743C186.131 36.6743 186.28 36.6431 186.417 36.6306C188.355 36.4624 190.923 36.5808 192.4 35.0976C194.089 33.4026 193.366 30.7915 191.459 29.6448C190.487 29.0653 189.34 28.7724 188.25 28.5106C186.667 28.1305 184.797 29.0092 184.417 30.6855C184.037 32.3619 184.897 34.113 186.592 34.5181C187.034 34.624 187.471 34.7299 187.907 34.8608C188.031 34.8982 188.15 34.9356 188.274 34.9792C188.592 35.0976 188.511 35.0602 188.038 34.867C188.131 34.9107 188.225 34.9605 188.318 35.0166C187.358 34.4059 186.997 33.4026 187.234 32.0129L188.038 30.6357C188.125 30.5235 188.823 30.0623 189.116 30.0249C189.028 30.0374 188.941 30.0873 188.854 30.106C188.63 30.1558 188.405 30.1932 188.181 30.2368C187.813 30.3178 188.991 30.1434 188.455 30.1994C188.287 30.2181 188.125 30.2368 187.957 30.2555C187.682 30.2804 187.414 30.3054 187.14 30.3303C186.592 30.3739 186.056 30.4238 185.514 30.4923C185.258 30.5297 185.003 30.5609 184.741 30.6045C184.149 30.698 184.922 30.592 184.554 30.6357C184.018 30.698 183.488 30.7603 182.953 30.8039C180.952 30.9784 178.939 31.0033 176.933 30.8849C176.397 30.8538 175.861 30.8101 175.325 30.7603C175.082 30.7354 174.839 30.7104 174.596 30.6855C174.353 30.6606 173.948 30.6045 174.409 30.6668C174.128 30.6294 173.823 30.5484 173.543 30.536L173.256 30.4861L173.68 30.7354C173.511 30.7229 173.287 30.5484 173.137 30.4799L173.767 35.3718C173.574 35.5276 173.231 35.7457 173.636 35.4778C173.736 35.4092 173.842 35.3407 173.941 35.2783C174.178 35.1288 174.427 34.9917 174.683 34.867C174.795 34.811 175.319 34.6302 174.839 34.786C174.359 34.9418 174.832 34.7923 174.926 34.7611C175.213 34.6614 175.499 34.5555 175.792 34.4744C176.403 34.2937 177.026 34.1566 177.655 34.0507C177.699 34.0444 178.41 33.926 177.892 34.0071C177.375 34.0881 178.098 33.9884 178.142 33.9821C178.478 33.9447 178.815 33.9198 179.157 33.9011C180.528 33.8201 181.906 33.845 183.27 33.9634C183.607 33.9946 183.943 34.032 184.28 34.0694C184.697 34.113 184.286 34.0943 184.112 34.0444C184.28 34.0943 184.479 34.1005 184.654 34.1255C185.308 34.2314 185.956 34.3623 186.604 34.5118C188.187 34.8857 190.057 34.0195 190.437 32.3369C190.798 30.7416 189.957 28.9032 188.262 28.5044L188.243 28.5106Z" fill="#154709"/>
<path d="M140.603 93.8496C127.273 95.7503 116.61 97.8317 108.216 106.064C104.172 110.034 100.925 113.48 98.4758 118.59C93.9952 127.944 96.0766 132.742 97.7841 138.145C99.5788 143.822 101.417 146.433 106.907 148.733C112.398 151.032 118.411 151.699 124.331 152.341C133.305 153.313 142.279 154.285 151.253 155.251C156.917 155.862 162.775 156.541 167.68 159.433C170.864 161.309 173.463 164.026 176.018 166.699C182.081 173.056 188.145 179.412 194.208 185.768C194.819 180.222 193.473 174.476 190.457 169.778C196.452 171.516 203.195 170.469 208.386 166.998C208.953 166.618 209.545 166.144 209.651 165.471C209.819 164.393 208.685 163.608 207.706 163.11C203.774 161.109 199.836 159.109 195.903 157.108C200.546 154.94 205.189 152.765 209.838 150.596C211.265 149.929 212.835 149.101 213.278 147.592C213.926 145.393 211.576 143.28 209.283 143.112C206.996 142.944 204.827 144.022 202.659 144.763C197.698 146.465 192.171 146.471 187.204 144.782C179.389 142.121 173.575 135.708 167.244 130.418C160.906 125.127 152.655 120.609 144.709 122.84" fill="#75BF60"/>
<path d="M139.777 90.8442C133.963 91.673 128.099 92.5642 122.484 94.334C117 96.0664 111.896 98.6713 107.54 102.454C98.7473 110.088 90.5339 121.573 93.2571 133.8C93.7121 135.844 94.3976 137.851 95.0644 139.832C95.9243 142.381 97.0024 144.755 98.7099 146.843C100.231 148.7 102.349 150.071 104.512 151.062C107.702 152.52 111.043 153.499 114.489 154.14C117.935 154.782 121.761 155.181 125.413 155.574C129.065 155.966 132.841 156.378 136.556 156.776C140.27 157.175 143.984 157.58 147.698 157.979C149.468 158.172 151.244 158.359 153.014 158.559C153.419 158.602 153.83 158.652 154.235 158.702C154.459 158.727 155.419 158.858 154.765 158.764C155.619 158.883 156.479 159.014 157.326 159.169C158.928 159.456 160.511 159.824 162.062 160.322C162.449 160.447 162.829 160.578 163.209 160.715C163.39 160.783 164.299 161.157 163.714 160.902C164.493 161.245 165.259 161.625 166.001 162.055C166.661 162.441 167.303 162.859 167.92 163.314C168.063 163.42 168.207 163.525 168.35 163.638C167.889 163.289 168.269 163.575 168.35 163.65C168.73 163.968 169.11 164.286 169.484 164.61C170.668 165.663 171.784 166.785 172.881 167.925C177.997 173.241 183.07 178.6 188.161 183.935C189.445 185.281 190.728 186.627 192.012 187.973C192.878 188.876 194.299 189.088 195.415 188.615C196.636 188.097 197.197 187.044 197.328 185.767C197.964 179.684 196.424 173.365 193.153 168.206L189.632 172.78C194.81 174.244 200.543 173.989 205.535 171.957C208.265 170.842 212.259 169.19 212.708 165.881C213.213 162.123 209.561 160.559 206.806 159.157C203.697 157.574 200.587 155.991 197.471 154.408V159.786C200.998 158.135 204.532 156.49 208.059 154.838C211.225 153.355 215.618 151.947 216.36 147.996C217.189 143.59 213.138 140.106 209 139.969C207.112 139.907 205.261 140.48 203.516 141.128C201.771 141.777 200.182 142.312 198.425 142.637C198.194 142.68 197.964 142.718 197.733 142.755C197.608 142.774 197.122 142.811 197.727 142.755C197.309 142.792 196.892 142.842 196.468 142.867C195.533 142.929 194.592 142.936 193.657 142.886C193.234 142.867 192.816 142.83 192.399 142.786C192.212 142.767 192.025 142.749 191.838 142.724C192.473 142.805 191.85 142.724 191.694 142.693C190.816 142.543 189.949 142.35 189.096 142.101C188.292 141.87 187.513 141.571 186.728 141.284C186.254 141.11 187.401 141.596 186.665 141.259C186.516 141.191 186.36 141.122 186.21 141.054C185.836 140.879 185.463 140.692 185.089 140.505C183.686 139.776 182.34 138.935 181.044 138.025C180.701 137.782 180.365 137.539 180.028 137.29C179.848 137.153 179.144 136.61 179.655 137.009C178.988 136.486 178.333 135.956 177.685 135.414C176.445 134.373 175.236 133.308 174.033 132.229C171.46 129.936 168.892 127.643 166.1 125.611C159.769 121 151.755 117.691 143.865 119.834C142.295 120.264 141.173 122.072 141.691 123.667C142.208 125.262 143.84 126.303 145.523 125.842C145.897 125.742 146.271 125.649 146.657 125.568C146.826 125.537 146.994 125.512 147.162 125.474C147.661 125.362 146.402 125.537 147.218 125.462C147.972 125.393 148.726 125.35 149.486 125.374C149.823 125.387 150.16 125.406 150.496 125.431C150.515 125.431 151.344 125.505 150.833 125.456C150.403 125.412 150.938 125.474 151.044 125.487C151.842 125.618 152.634 125.792 153.413 126.01C154.117 126.21 154.815 126.44 155.5 126.702C155.662 126.764 155.824 126.833 155.986 126.895C156.472 127.076 155.319 126.583 156.086 126.939C156.485 127.119 156.884 127.3 157.282 127.5C158.678 128.191 160.018 128.976 161.314 129.836C161.944 130.254 162.567 130.69 163.171 131.139C163.315 131.245 163.458 131.351 163.595 131.457C164.281 131.961 163.29 131.207 163.701 131.531C164.044 131.806 164.387 132.074 164.723 132.354C165.87 133.295 166.985 134.28 168.095 135.264C170.382 137.29 172.638 139.352 175.043 141.247C177.448 143.141 180.085 145.03 182.945 146.369C186.217 147.909 189.619 148.837 193.234 149.086C196.848 149.336 200.406 148.831 203.734 147.659C205.286 147.111 206.831 146.394 208.47 146.17C207.791 146.263 208.813 146.195 208.994 146.195C209.673 146.182 208.969 146.226 208.869 146.151C208.925 146.195 209.206 146.22 209.293 146.245C209.355 146.263 209.991 146.531 209.542 146.313C209.137 146.12 209.573 146.344 209.667 146.401C209.779 146.463 210.078 146.581 210.134 146.693C210.016 146.463 209.742 146.357 210.084 146.693C210.502 147.105 210.221 146.631 210.084 146.625C210.165 146.625 210.309 147.011 210.352 147.067C210.614 147.41 210.066 146.357 210.29 146.98C210.477 147.51 210.253 146.475 210.259 146.849C210.265 147.223 210.527 146.126 210.259 146.737C210.402 146.407 210.408 146.313 210.259 146.693C210.122 147.042 210.776 146.238 210.284 146.662C210.209 146.731 209.791 147.198 210.103 146.862C210.415 146.525 209.935 146.968 209.866 147.017C209.704 147.123 209.536 147.217 209.374 147.31C209.037 147.497 208.695 147.666 208.352 147.828C207.436 148.258 206.52 148.688 205.604 149.111C201.84 150.869 198.082 152.626 194.318 154.383C192.23 155.362 192.336 158.758 194.318 159.761C196.649 160.946 198.986 162.136 201.316 163.32C202.463 163.899 203.603 164.485 204.75 165.065C205.298 165.345 205.859 165.613 206.401 165.912C206.588 166.018 206.769 166.143 206.95 166.255C207.243 166.429 206.75 166.105 206.738 166.099C207.037 166.361 206.757 166.08 206.663 165.918C206.738 166.049 206.788 166.255 206.682 165.887C206.619 165.669 206.538 165.476 206.538 165.239C206.538 164.834 206.682 164.516 206.9 164.192C206.869 164.236 206.551 164.529 206.862 164.248C207.149 163.993 206.875 164.236 206.806 164.28C206.557 164.435 206.314 164.604 206.059 164.753C205.591 165.04 205.111 165.302 204.625 165.551C204.401 165.663 204.17 165.775 203.94 165.881C203.828 165.931 203.709 165.981 203.591 166.037C203.173 166.23 204.064 165.862 203.634 166.018C202.637 166.373 201.653 166.722 200.624 166.972C200.089 167.096 199.553 167.208 199.01 167.289C198.892 167.308 198.755 167.352 198.637 167.346C198.661 167.346 199.21 167.283 198.836 167.314C198.543 167.339 198.25 167.377 197.957 167.395C196.779 167.483 195.595 167.476 194.424 167.37C194.256 167.358 194.087 167.339 193.919 167.321C193.52 167.277 193.782 167.37 193.994 167.333C193.757 167.377 193.358 167.227 193.121 167.184C192.498 167.065 191.888 166.916 191.277 166.741C188.728 166.018 186.291 169.003 187.756 171.315C188.466 172.437 189.102 173.608 189.619 174.83C189.332 174.157 189.75 175.198 189.794 175.322C189.918 175.653 190.03 175.989 190.136 176.326C190.342 176.961 190.517 177.597 190.666 178.245C190.816 178.893 190.934 179.547 191.046 180.202C191.096 180.563 191.096 180.551 191.046 180.164C191.065 180.339 191.084 180.513 191.102 180.694C191.133 181.006 191.158 181.311 191.177 181.623C191.258 182.994 191.221 184.365 191.077 185.736L196.399 183.529C191.37 178.257 186.341 172.985 181.312 167.713C178.969 165.258 176.694 162.715 174.177 160.441C171.535 158.048 168.668 156.178 165.346 154.87C162.399 153.704 159.258 153.118 156.13 152.695C152.553 152.209 148.951 151.86 145.361 151.467C138.107 150.682 130.853 149.903 123.6 149.111C122.783 149.024 121.973 148.931 121.163 148.837C120.783 148.794 120.397 148.744 120.016 148.7C119.823 148.675 119.636 148.65 119.443 148.625C120.104 148.713 119.262 148.6 119.125 148.582C117.412 148.339 115.71 148.046 114.021 147.666C112.439 147.304 110.868 146.868 109.335 146.32C108.93 146.176 108.531 146.008 108.126 145.858C107.621 145.671 108.724 146.133 108.051 145.827C107.914 145.765 107.777 145.709 107.646 145.646C107.079 145.391 106.525 145.111 105.989 144.805C105.528 144.543 105.091 144.251 104.649 143.951C104.038 143.534 105.129 144.375 104.587 143.902C104.375 143.715 104.157 143.528 103.951 143.328C103.614 142.998 103.334 142.593 102.997 142.275C103.029 142.3 103.459 142.911 103.178 142.506C103.116 142.412 103.047 142.319 102.985 142.231C102.823 141.995 102.673 141.752 102.524 141.502C102.262 141.06 102.031 140.605 101.813 140.144C101.757 140.032 101.714 139.913 101.658 139.801C101.464 139.408 101.95 140.549 101.707 139.919C101.583 139.602 101.458 139.284 101.34 138.966C100.966 137.938 100.648 136.891 100.312 135.844C99.9999 134.884 99.7008 133.925 99.4453 132.946C99.3331 132.504 99.2272 132.067 99.1399 131.619C99.0901 131.363 99.0465 131.108 99.0028 130.852C98.9779 130.721 98.9343 130.316 98.9966 130.834C99.0652 131.419 98.9904 130.753 98.9779 130.634C98.8657 129.537 98.8533 128.434 98.9468 127.338C98.9592 127.2 98.9717 127.07 98.9841 126.932C99.034 126.384 98.9654 127.07 98.953 127.144C99.0278 126.833 99.0527 126.502 99.115 126.185C99.2459 125.499 99.4141 124.82 99.6073 124.153C99.813 123.449 100.05 122.757 100.312 122.072C100.355 121.953 100.766 120.956 100.53 121.511C100.729 121.05 100.935 120.595 101.153 120.14C101.82 118.744 102.586 117.404 103.446 116.114C103.814 115.566 104.2 115.036 104.593 114.506C104.935 114.045 104.618 114.475 104.555 114.556C104.68 114.394 104.811 114.238 104.935 114.076C105.166 113.79 105.403 113.509 105.646 113.229C106.624 112.082 107.665 110.992 108.718 109.92C109.771 108.848 110.756 107.863 111.84 106.91C112.096 106.685 112.358 106.467 112.619 106.249C112.738 106.156 112.856 106.062 112.968 105.963C113.143 105.819 113.386 105.769 112.869 106.037C113.436 105.744 113.959 105.227 114.489 104.866C115.579 104.13 116.72 103.457 117.885 102.847C118.402 102.579 118.932 102.317 119.462 102.074C119.761 101.937 120.066 101.806 120.365 101.669C120.758 101.488 119.829 101.887 120.228 101.725C120.397 101.656 120.571 101.582 120.739 101.513C125.905 99.4503 131.408 98.3722 136.88 97.4997C138.388 97.2629 139.896 97.0386 141.41 96.8205C143.03 96.5899 144.059 94.4462 143.585 92.9879C143.012 91.2119 141.485 90.5638 139.752 90.813L139.777 90.8442Z" fill="#438833"/>
<path d="M120.113 58.8155C120.356 59.3078 120.593 59.8001 120.823 60.2986C120.942 60.5541 121.054 60.8034 121.166 61.0589C121.216 61.1711 121.266 61.277 121.309 61.3892C121.347 61.4702 121.615 62.0996 121.44 61.6821C121.284 61.3144 121.621 62.1183 121.658 62.2118C121.752 62.4424 121.839 62.6667 121.932 62.8973C122.157 63.4768 122.381 64.0626 122.593 64.6484C123.422 66.9417 124.145 69.2724 124.774 71.628C125.403 73.9836 125.983 76.5573 126.444 79.0501C126.669 80.2466 126.868 81.4493 127.042 82.652C127.086 82.9512 127.13 83.2503 127.173 83.5494C127.242 84.0168 127.105 83.0135 127.167 83.4871C127.186 83.6117 127.198 83.7426 127.217 83.8672C127.298 84.4966 127.373 85.1323 127.441 85.7679C127.722 88.3977 127.89 91.0338 127.927 93.6761C127.952 95.3025 129.342 96.8667 131.043 96.7919C132.745 96.7172 134.184 95.421 134.159 93.6761C134.016 83.5619 132.215 73.2483 128.862 63.7012C127.902 60.9654 126.787 58.2671 125.503 55.6684C124.78 54.204 122.587 53.6805 121.241 54.5529C119.739 55.5189 119.346 57.2513 120.125 58.8155H120.113Z" fill="#438833"/>
<path d="M207.999 132.693C210.766 136.756 211.177 142.314 209.034 146.745C208.149 148.571 206.859 150.254 206.541 152.254C206.223 154.255 207.488 156.722 209.513 156.672C210.922 156.641 212.006 155.445 212.816 154.292C214.393 152.048 215.646 149.581 216.537 146.988C216.699 149.562 217.01 152.123 217.471 154.66C218.039 157.788 219.478 161.483 222.631 161.895C225.08 162.219 227.349 160.131 228.016 157.751C228.682 155.37 228.109 152.827 227.33 150.484C226.402 147.68 225.174 144.975 223.685 142.427C226.346 144.932 229.636 146.758 233.169 147.699C235.17 148.235 237.849 148.172 238.672 146.272C239.538 144.265 231.312 139.186 229.399 138.127C223.174 134.668 223.653 135.241 224.532 129.209" fill="#75BF60"/>
<path d="M205.311 134.264C205.672 134.813 206.009 135.374 206.289 135.966C206.351 136.103 206.451 136.265 206.495 136.408C206.301 135.785 206.407 136.203 206.457 136.346C206.594 136.732 206.731 137.119 206.844 137.511C206.931 137.829 207.012 138.147 207.08 138.465C207.124 138.67 207.323 139.63 207.174 138.845C207.305 139.518 207.298 140.247 207.286 140.926C207.286 141.256 207.261 141.581 207.236 141.905C207.23 142.011 207.18 142.54 207.224 142.098C207.267 141.655 207.205 142.185 207.186 142.291C207.068 142.976 206.9 143.649 206.682 144.31C206.632 144.466 206.569 144.615 206.52 144.771C206.326 145.338 206.538 144.796 206.557 144.709C206.495 145.014 206.258 145.357 206.114 145.631C205.747 146.342 205.329 147.027 204.955 147.731C203.41 150.629 202.625 154.125 204.631 157.035C205.703 158.593 207.305 159.678 209.237 159.765C211.168 159.852 212.857 158.936 214.129 157.602C216.671 154.941 218.36 151.234 219.55 147.806L213.431 146.977C213.642 150.305 213.942 153.776 214.82 157.004C215.562 159.746 217.008 162.681 219.606 164.102C222.753 165.822 226.717 164.975 229.01 162.239C231.571 159.185 231.821 155.34 230.904 151.576C229.988 147.812 228.306 144.167 226.38 140.845L221.488 144.622C224.872 147.762 229.309 150.355 233.946 150.978C236.233 151.283 238.875 150.897 240.495 149.09C241.978 147.438 242.284 145.282 241.068 143.382C239.43 140.814 236.594 138.988 234.101 137.343C231.933 135.916 229.583 134.8 227.415 133.38C227.271 133.286 227.134 133.174 226.991 133.087C226.891 133.024 227.62 133.647 227.221 133.261C227.14 133.18 227.053 133.099 226.966 133.018C226.58 132.675 227.122 133.143 227.184 133.336C227.153 133.249 227.059 133.174 227.022 133.08C226.848 132.632 227.221 133.841 227.184 133.479C227.178 133.392 227.134 133.267 227.103 133.193C226.941 132.756 227.134 133.959 227.159 133.616C227.172 133.373 227.147 133.13 227.159 132.881C227.165 132.719 227.184 132.557 227.197 132.395C227.209 132.252 227.29 131.66 227.209 132.264C227.128 132.869 227.215 132.22 227.24 132.071C227.271 131.871 227.296 131.678 227.327 131.479C227.402 130.993 227.477 130.5 227.546 130.014C227.67 129.154 227.689 128.4 227.234 127.615C226.854 126.967 226.112 126.35 225.371 126.182C223.894 125.845 221.787 126.63 221.538 128.357C221.158 130.949 220.242 133.996 221.756 136.402C223.177 138.67 226.062 139.761 228.281 141.045C229.241 141.599 230.175 142.197 231.104 142.808C231.659 143.176 232.207 143.55 232.743 143.942C233.005 144.129 233.26 144.323 233.522 144.516C234.039 144.902 232.942 144.048 233.441 144.453C233.615 144.597 233.796 144.734 233.97 144.877C234.413 145.245 234.843 145.625 235.248 146.03C235.441 146.223 235.609 146.435 235.796 146.628C236.158 147.008 235.348 145.949 235.603 146.379C235.678 146.504 235.753 146.622 235.828 146.74C236.158 147.276 235.578 145.924 235.715 146.497C235.479 145.488 235.641 145.669 235.634 145.974C235.653 145.401 235.672 145.301 235.915 144.846C235.609 145.419 236.426 144.366 235.971 144.802C235.516 145.239 236.594 144.422 236.033 144.746C235.472 145.07 236.737 144.584 236.102 144.728C235.99 144.753 235.597 144.802 235.547 144.865L235.983 144.809C235.852 144.821 235.715 144.834 235.585 144.84C235.31 144.852 235.042 144.827 234.768 144.827C234.052 144.821 235.485 144.983 234.787 144.84C234.525 144.784 234.27 144.74 234.008 144.671C233.503 144.541 233.005 144.385 232.512 144.217C232.263 144.129 232.02 144.042 231.777 143.949C231.615 143.886 231.453 143.824 231.291 143.755C231.634 143.899 231.64 143.905 231.316 143.755C230.294 143.257 229.297 142.746 228.343 142.123C228.125 141.979 227.907 141.836 227.695 141.686C227.589 141.612 226.717 140.939 227.278 141.394C226.804 141.013 226.343 140.615 225.894 140.197C224.747 139.131 223.052 138.988 221.8 139.954C220.547 140.92 220.211 142.615 220.996 143.974C221.688 145.17 222.336 146.391 222.909 147.65C223.046 147.956 223.183 148.261 223.32 148.566C223.09 148.043 223.439 148.859 223.501 149.009C223.763 149.676 224.012 150.342 224.243 151.022C224.461 151.657 224.66 152.293 224.828 152.941C224.916 153.265 224.99 153.595 225.053 153.926C225.084 154.069 225.109 154.206 225.134 154.349C225.29 155.209 225.146 154.019 225.153 154.511C225.153 154.842 225.202 155.172 225.202 155.502C225.202 155.689 225.19 155.876 225.184 156.063C225.184 156.107 225.14 156.574 225.184 156.207C225.227 155.839 225.165 156.3 225.153 156.35C225.109 156.537 225.072 156.718 225.022 156.904C225.003 156.961 224.878 157.334 224.885 157.334C224.841 157.297 225.177 156.761 224.928 157.216C224.797 157.447 224.648 157.671 224.529 157.908C224.361 158.232 224.642 157.708 224.679 157.74C224.685 157.746 224.417 158.039 224.38 158.082C224.28 158.194 223.719 158.712 224.031 158.444C224.342 158.176 224.062 158.419 223.987 158.462C223.831 158.556 223.663 158.643 223.507 158.737C223.165 158.967 224.049 158.587 223.651 158.681C223.551 158.705 223.439 158.743 223.339 158.774C222.99 158.892 223.146 158.643 223.526 158.774C223.451 158.749 223.283 158.786 223.196 158.793C223.133 158.793 222.915 158.755 222.865 158.786C223.121 158.631 223.464 158.93 223.077 158.805C222.959 158.768 222.822 158.73 222.703 158.699C222.242 158.587 222.903 158.705 222.922 158.799C222.915 158.749 222.442 158.5 222.354 158.462C222.074 158.338 222.622 158.606 222.61 158.662C222.61 158.649 222.367 158.437 222.33 158.4C222.236 158.307 222.155 158.213 222.062 158.12C221.875 157.933 222.037 157.926 222.062 158.132C222.211 158.356 222.08 158.313 222.062 158.132C221.974 157.989 221.875 157.852 221.787 157.708C221.663 157.503 221.551 157.291 221.438 157.079C221.389 156.985 221.326 156.767 221.258 156.699C221.258 156.699 221.488 157.285 221.364 156.954C221.177 156.456 221.002 155.957 220.859 155.44C220.497 154.138 220.304 152.798 220.105 151.464C220.011 150.841 220.08 151.277 220.092 151.408C220.061 151.165 220.03 150.916 219.999 150.673C219.949 150.28 219.905 149.887 219.868 149.489C219.781 148.647 219.718 147.812 219.662 146.971C219.563 145.413 218.553 144.123 216.958 143.911C215.362 143.699 214.054 144.659 213.536 146.142C213.431 146.441 213.325 146.747 213.212 147.046C213.15 147.214 212.839 147.981 213.063 147.445C212.776 148.118 212.458 148.778 212.122 149.426C211.829 149.993 211.511 150.548 211.181 151.096C211.013 151.371 210.844 151.639 210.67 151.907C210.539 152.112 210.221 152.779 209.997 152.891C210.003 152.891 210.358 152.461 210.115 152.735C210.009 152.854 209.91 152.985 209.797 153.103C209.617 153.303 209.424 153.539 209.193 153.683C209.33 153.595 209.691 153.421 209.249 153.589C209.093 153.651 208.913 153.645 209.205 153.62L209.367 153.546C209.087 153.608 209.075 153.62 209.33 153.57C209.548 153.546 209.579 153.539 209.417 153.539C209.168 153.533 209.286 153.552 209.779 153.595C209.648 153.564 209.43 153.446 209.804 153.639C210.252 153.87 209.86 153.67 209.766 153.595C209.511 153.396 210.022 153.826 210.028 153.807C210.028 153.776 209.716 153.558 209.76 153.546C209.797 153.533 210.097 154.088 209.953 153.801C209.897 153.689 209.816 153.577 209.748 153.471C209.735 153.452 209.623 153.203 209.61 153.209C209.772 153.184 209.804 153.863 209.679 153.296C209.654 153.172 209.629 153.022 209.586 152.904C209.467 152.592 209.673 153.209 209.629 153.234C209.723 153.184 209.505 152.511 209.635 152.436C209.685 152.405 209.473 153.091 209.623 152.679C209.685 152.517 209.704 152.337 209.754 152.175C209.791 152.05 209.835 151.925 209.878 151.801C210.128 151.034 209.698 152.1 209.916 151.701C210.533 150.536 211.218 149.383 211.779 148.192C212.976 145.656 213.617 142.877 213.505 140.06C213.381 136.9 212.452 133.747 210.695 131.105C209.791 129.753 207.903 129.036 206.432 129.989C205.08 130.862 204.345 132.8 205.317 134.252L205.311 134.264Z" fill="#438833"/>
<path d="M227.927 121.389C227.335 121.919 226.724 122.43 226.107 122.935C225.653 123.302 226.033 122.997 226.126 122.928C225.958 123.059 225.783 123.19 225.615 123.315C225.241 123.589 224.861 123.863 224.481 124.125C223.266 124.954 222.007 125.708 220.698 126.381C220.063 126.705 219.421 127.004 218.773 127.297C218.068 127.615 219.215 127.129 218.76 127.297C218.617 127.353 218.474 127.415 218.324 127.471C217.925 127.627 217.526 127.777 217.127 127.914C215.825 128.369 214.491 128.749 213.139 129.048C212.466 129.198 211.793 129.328 211.114 129.441C210.933 129.472 209.68 129.715 210.578 129.528C210.21 129.603 209.805 129.621 209.431 129.659C208.042 129.796 206.646 129.871 205.25 129.877C203.748 129.889 202.24 129.833 200.738 129.721C200.015 129.665 199.292 129.603 198.569 129.522C198.245 129.484 197.921 129.447 197.597 129.409C197.391 129.385 197.192 129.36 196.986 129.335C196.75 129.304 196.824 129.316 197.204 129.366C197.08 129.347 196.961 129.335 196.837 129.316C193.74 128.874 190.642 128.288 187.601 127.552C186.062 127.179 184.535 126.736 183.04 126.225C182.311 125.976 181.594 125.714 180.877 125.44C180.559 125.315 180.242 125.191 179.924 125.066C179.924 125.066 179.145 124.742 179.587 124.929C179.974 125.091 179.22 124.767 179.139 124.736C173.312 122.181 167.909 118.741 162.83 114.921C162.45 114.634 162.07 114.341 161.69 114.054C161.783 114.123 162.163 114.422 161.702 114.061C161.496 113.899 161.291 113.737 161.085 113.575C160.4 113.032 159.72 112.49 159.047 111.936C157.626 110.776 156.224 109.586 154.841 108.39C152.08 105.997 149.376 103.541 146.677 101.074C145.474 99.9706 143.443 99.7961 142.271 101.074C141.168 102.27 140.988 104.308 142.271 105.479C152.111 114.484 162.3 123.701 174.477 129.428C180.609 132.314 187.022 134.04 193.702 135.105C200.383 136.171 206.558 136.507 212.99 135.411C220.268 134.164 226.855 130.687 232.333 125.789C233.554 124.698 233.523 122.48 232.333 121.383C231.031 120.186 229.223 120.218 227.927 121.383V121.389Z" fill="#438833"/>
<path d="M217.663 25.4804C218.667 25.7359 219.633 26.0662 220.599 26.4339C221.103 26.6271 220.443 26.3902 220.405 26.3466C220.455 26.4027 220.686 26.465 220.773 26.5086C221.016 26.6146 221.259 26.733 221.502 26.8452C221.988 27.082 222.468 27.3312 222.936 27.5992C223.895 28.1414 224.824 28.7396 225.709 29.394C225.796 29.4563 225.97 29.556 226.045 29.6432C225.659 29.1945 225.727 29.394 225.908 29.5435C226.126 29.718 226.344 29.8987 226.556 30.0795C227.011 30.4658 227.454 30.8709 227.884 31.2884C228.7 32.0799 229.441 32.9274 230.158 33.8061C230.426 34.1363 229.815 33.3387 230.058 33.6814C230.121 33.7687 230.183 33.8497 230.245 33.9369C230.414 34.1675 230.576 34.3981 230.731 34.6349C231.068 35.1334 231.386 35.6507 231.685 36.1741C231.947 36.6415 232.196 37.1151 232.427 37.595C232.489 37.7259 232.545 37.8567 232.607 37.9814C232.844 38.4799 232.582 37.8879 232.551 37.8256C232.707 38.0935 232.794 38.4363 232.9 38.7292C233.293 39.8135 233.598 40.9352 233.798 42.0756C233.822 42.219 233.841 42.3623 233.872 42.5056C233.947 42.8982 233.804 41.8451 233.866 42.4433C233.897 42.7736 233.935 43.1101 233.953 43.4404C233.997 44.1197 234.003 44.7989 233.972 45.4782C233.96 45.8272 233.935 46.1699 233.903 46.5189C233.897 46.5874 233.835 46.9676 233.854 46.9863C233.76 46.899 233.953 46.3257 233.854 46.98C233.735 47.7403 233.567 48.4944 233.368 49.2422C232.95 50.8126 233.891 52.7008 235.542 53.0747C237.194 53.4486 238.926 52.5824 239.375 50.8998C240.889 45.2165 240.247 39.3274 237.624 34.074C235.287 29.394 231.398 25.4742 226.967 22.7509C224.612 21.3051 222.007 20.1709 219.327 19.4917C217.751 19.0928 215.875 20.0027 215.495 21.6666C215.115 23.3304 215.981 25.0691 217.67 25.4991L217.663 25.4804Z" fill="#438833"/>
<path d="M48.6071 101.038C49.1181 100.876 49.6291 100.726 50.1526 100.62C50.327 100.583 50.4953 100.558 50.6698 100.521C51.5235 100.352 50.0155 100.558 50.8754 100.496C51.8289 100.421 52.7761 100.402 53.7296 100.483C53.848 100.496 54.7267 100.564 53.9415 100.489C54.116 100.508 54.2905 100.545 54.4587 100.57C54.9386 100.651 55.4122 100.751 55.8796 100.869C56.8829 101.119 57.8675 101.43 58.8334 101.798C59.0017 101.86 59.1699 101.929 59.3444 101.997C60.192 102.321 58.7836 101.736 59.6124 102.11C60.0362 102.297 60.4537 102.49 60.8712 102.689C61.7935 103.132 62.6971 103.611 63.5883 104.116C65.3456 105.101 67.0469 106.179 68.7357 107.276C70.3186 108.298 71.8952 109.332 73.4469 110.398C74.1574 110.884 74.8553 111.376 75.5533 111.881C75.9023 112.13 76.245 112.386 76.5878 112.641C76.7934 112.797 76.9991 112.953 77.2047 113.102C77.4851 113.314 77.4789 113.308 77.186 113.084C77.2857 113.165 77.3854 113.24 77.4914 113.321C78.9309 114.449 80.3206 115.639 81.6355 116.91C82.3023 117.552 82.9504 118.219 83.5798 118.91C83.8603 119.222 84.1407 119.54 84.4149 119.858C84.5208 119.989 84.633 120.113 84.7389 120.244C84.8262 120.35 85.4992 121.21 85.0381 120.606C86.1598 122.076 87.1444 123.634 88.0044 125.273C88.4281 126.09 88.827 126.918 89.2071 127.76C89.3878 128.158 89.5623 128.564 89.7368 128.969C90.092 129.779 89.4938 128.383 89.8365 129.199C89.9362 129.442 90.0359 129.685 90.1419 129.928C91.6687 133.655 93.0771 137.481 95.1772 140.94C99.0097 147.24 105.229 151.397 109.909 156.98C110.439 157.61 109.535 156.457 110.021 157.124C110.165 157.323 110.314 157.516 110.451 157.716C110.757 158.152 111.05 158.594 111.324 159.049C111.436 159.236 111.542 159.43 111.654 159.623C111.816 159.947 111.816 159.947 111.654 159.616C111.729 159.922 111.741 159.959 111.698 159.722L111.673 159.573C111.654 159.916 111.673 159.822 111.723 159.28C111.623 159.592 111.673 159.504 111.853 159.018C111.685 159.292 111.754 159.224 112.059 158.813C112.003 158.844 111.853 159.031 111.822 159.068C111.579 159.28 111.648 159.23 112.034 158.919C111.934 158.987 111.828 159.056 111.716 159.112C111.723 159.112 111.38 159.261 111.374 159.286C111.822 159.105 111.885 159.074 111.573 159.193C111.448 159.236 111.317 159.28 111.193 159.311C111.062 159.349 110.931 159.38 110.8 159.411C110.669 159.442 110.539 159.467 110.408 159.492C110.065 159.548 110.146 159.542 110.644 159.467C110.289 159.355 109.56 159.535 109.199 159.548C108.04 159.579 106.887 159.548 105.728 159.473C105.148 159.436 104.575 159.373 104.001 159.311C103.054 159.218 104.625 159.417 103.684 159.274C103.397 159.23 103.11 159.186 102.824 159.137C100.443 158.732 98.1123 158.09 95.8564 157.242C93.7812 156.463 91.1203 158.937 92.0239 161.075C93.1144 163.655 94.1552 166.247 95.1522 168.864C95.6134 170.08 96.0621 171.295 96.5045 172.516C96.7351 173.158 96.9345 173.819 97.1713 174.461C97.2523 174.828 97.2586 174.828 97.2025 174.461C97.2025 174.785 97.2025 174.828 97.2087 174.598C97.2087 174.423 97.2523 174.261 97.3583 174.112C97.1776 174.392 97.2087 174.355 97.458 173.999C97.0779 174.492 97.9067 173.775 97.4019 174.074C97.1402 174.23 96.8847 174.386 96.6105 174.523C96.4983 174.579 95.7941 174.978 96.4671 174.61C96.2303 174.741 95.925 174.816 95.6695 174.897C95.1647 175.059 94.6537 175.159 94.1365 175.277C93.7812 175.333 93.8186 175.333 94.2424 175.277C94.0804 175.296 93.9183 175.314 93.7563 175.327C93.5133 175.345 93.2702 175.358 93.0272 175.364C92.5287 175.377 91.8182 175.445 91.3259 175.289C92.0924 175.532 91.2698 175.271 91.0767 175.233C90.7962 175.177 90.522 175.115 90.2478 175.04C90.011 174.978 89.7804 174.903 89.5499 174.828C89.3941 174.778 89.2445 174.722 89.0949 174.66C88.7709 174.529 88.7958 174.542 89.1697 174.691C88.6837 174.616 88.0854 174.13 87.6803 173.875C86.0227 172.822 83.5549 173.825 83.1062 175.738C82.5516 178.094 83.0003 180.35 83.5549 182.655C83.6671 183.117 83.7543 183.59 83.8603 184.051C84.0659 184.936 83.8353 183.459 83.8976 184.238C83.9101 184.394 83.9226 184.544 83.9288 184.699C83.9475 185.086 83.9475 185.472 83.9288 185.852L83.9101 186.083C83.8727 186.438 83.8852 186.388 83.9413 185.946C83.8665 186.095 83.854 186.457 83.8166 186.631C83.7356 187.005 83.6359 187.379 83.5113 187.747C83.4614 187.89 83.2558 188.644 83.4926 187.859C83.449 187.996 83.3617 188.152 83.2994 188.276C83.1311 188.619 82.938 188.949 82.7323 189.267C82.6264 189.429 82.3522 190.046 82.6824 189.373C82.589 189.56 82.3709 189.741 82.2338 189.89C81.9783 190.158 81.623 190.383 81.3925 190.663L81.7352 190.395C81.4859 190.582 81.2429 190.769 80.9999 190.962C80.9313 191.018 80.8628 191.075 80.8005 191.131C80.439 191.442 80.0963 191.772 79.7535 192.109C79.4544 192.402 79.149 192.682 78.8437 192.963C78.314 193.443 79.5105 192.545 78.9122 192.907C78.7253 193.019 78.5009 193.119 78.3264 193.243C79.0742 192.713 78.9995 193.019 78.7128 193.069C78.6256 193.081 78.5259 193.112 78.4448 193.137C78.1083 193.249 79.4295 193.019 78.5882 193.075C78.0959 193.106 79.3298 193.249 78.987 193.125C78.8873 193.087 78.7689 193.069 78.663 193.044C78.557 193.019 78.0896 192.838 78.6256 193.044C79.1927 193.268 78.5321 192.975 78.4199 192.907C78.314 192.844 78.2143 192.782 78.1146 192.713C77.884 192.564 77.6285 192.196 78.0959 192.726C77.8466 192.439 77.4851 192.215 77.2109 191.953C76.8744 191.635 76.5504 191.305 76.2326 190.962C76.1142 190.831 75.9958 190.688 75.8711 190.563C75.653 190.296 75.6717 190.333 75.9334 190.663C75.8462 190.545 75.7589 190.42 75.6779 190.296C75.4723 189.984 75.2853 189.666 75.1108 189.336C75.0423 189.205 74.98 189.068 74.9114 188.937C74.5624 188.264 75.1358 189.579 74.8803 188.862C74.5936 188.083 74.3568 187.298 74.1698 186.488C73.2912 182.718 73.073 178.929 71.3593 175.383C70.6489 173.912 68.4366 173.401 67.0968 174.267C65.5887 175.24 65.221 176.96 65.9813 178.53C66.0436 178.667 66.4237 179.353 66.0436 178.63C66.1495 178.829 66.2119 179.066 66.2929 179.278C66.4237 179.639 66.5359 180.007 66.6418 180.381C66.8974 181.278 67.0843 182.194 67.2526 183.11C67.5704 184.861 67.7947 186.637 68.2185 188.37C69.1844 192.371 71.5026 195.823 74.9737 198.098C76.4694 199.076 78.233 199.519 79.9966 199.17C81.2928 198.914 82.3709 198.141 83.343 197.294C83.692 196.988 84.0161 196.664 84.3463 196.34C84.5333 196.16 84.7202 195.979 84.9134 195.804C85.1315 195.611 85.898 195.013 84.9882 195.705C86.7144 194.396 88.0979 192.801 88.9641 190.794C89.8864 188.663 90.3538 186.338 90.0983 184.014C89.9425 182.606 89.606 181.259 89.2881 179.882C89.2383 179.652 89.1822 179.421 89.1386 179.184C89.1074 179.047 89.0825 178.904 89.0638 178.767C89.1074 179.134 89.1074 179.128 89.0638 178.767C89.0513 178.493 89.0264 178.218 89.0326 177.938C89.0326 177.751 89.0451 177.57 89.0638 177.39C89.0139 177.763 89.0326 177.763 89.1012 177.396L84.5271 179.259C87.026 180.848 90.0609 181.671 93.021 181.608C95.9811 181.546 99.4896 180.68 101.696 178.58C103.291 177.053 103.708 174.928 103.173 172.828C102.78 171.307 102.126 169.818 101.577 168.353C100.455 165.356 99.2714 162.39 98.0313 159.442L94.1988 163.275C98.5548 164.914 103.241 165.767 107.896 165.811C110.121 165.836 112.29 165.692 114.34 164.764C116.39 163.835 117.873 161.904 117.904 159.598C117.936 157.111 116.072 154.849 114.614 152.992C113.455 151.509 112.165 150.144 110.819 148.829C108.114 146.187 105.198 143.744 102.736 140.859C102.468 140.547 102.213 140.229 101.957 139.912C102.437 140.504 101.92 139.862 101.851 139.762C101.702 139.556 101.559 139.357 101.415 139.145C100.823 138.285 100.281 137.381 99.7762 136.465C99.3151 135.624 98.8913 134.758 98.4925 133.885C98.2931 133.449 98.0936 133.007 97.9005 132.564C97.8132 132.365 97.726 132.159 97.6387 131.96C97.9316 132.645 97.4954 131.605 97.4455 131.486C95.844 127.598 94.392 123.591 92.161 120.001C87.7925 112.978 81.056 107.967 74.2571 103.474C66.405 98.2895 56.8019 91.877 46.9557 95.0615C45.4102 95.56 44.2448 97.2426 44.7808 98.894C45.2793 100.439 46.9557 101.605 48.6133 101.069L48.6071 101.038Z" fill="#438833"/>
<path d="M204.282 12.2335C205.585 11.2489 206.906 10.2767 208.283 9.39183C208.912 8.98677 209.554 8.59416 210.215 8.23272C210.558 8.03953 210.906 7.85881 211.262 7.68432C211.455 7.58461 211.654 7.49114 211.854 7.40389C211.928 7.37273 212.589 7.08607 212.196 7.2481C211.76 7.42882 212.552 7.11723 212.552 7.11723C212.714 7.05491 212.876 6.99883 213.038 6.94274C213.362 6.83057 213.692 6.72463 214.029 6.63738C214.446 6.51898 214.864 6.41927 215.287 6.33826C215.418 6.31333 215.68 6.22609 215.798 6.25101L215.487 6.2884C215.661 6.26971 215.836 6.25101 216.004 6.23232C216.677 6.17623 217.35 6.17 218.023 6.21362C218.216 6.22609 218.41 6.24478 218.603 6.26348C218.902 6.2884 218.933 6.15754 218.466 6.24478C218.783 6.1887 219.288 6.40058 219.606 6.47536C220.211 6.62492 221.095 6.75579 221.606 7.11723C221.538 7.07361 220.977 6.83057 221.507 7.07984C221.65 7.14839 221.793 7.21071 221.93 7.27926C222.286 7.44752 222.628 7.63447 222.965 7.82765C223.551 8.16417 224.249 8.53185 224.729 9.00546C224.199 8.48822 224.853 9.1301 225.009 9.2672C225.333 9.55386 225.651 9.85298 225.95 10.1583C226.199 10.4138 226.436 10.6693 226.667 10.9435C226.766 11.0619 226.866 11.1866 226.972 11.305C227.371 11.7848 226.96 11.2489 226.922 11.2302C227.128 11.3112 227.421 11.9344 227.527 12.1027C227.751 12.4516 227.969 12.8131 228.169 13.1745C228.355 13.511 228.53 13.8538 228.692 14.1965C228.767 14.3523 228.835 14.5081 228.904 14.6639C228.642 14.0844 228.835 14.4957 228.879 14.6265C229.166 15.4304 229.44 16.2281 229.645 17.0632C229.745 17.4744 229.832 17.892 229.913 18.3157C229.945 18.484 229.969 18.6523 230.001 18.8205C230.138 19.668 229.945 18.1537 230.019 19.0075C230.094 19.8612 230.15 20.715 230.144 21.575C230.138 22.4349 230.181 23.3448 229.982 24.1487C230.15 23.4757 230.001 24.0241 229.97 24.211C229.932 24.4665 229.882 24.722 229.839 24.9713C229.751 25.4324 229.645 25.8936 229.533 26.3485C229.141 27.9251 230.038 29.8009 231.708 30.181C233.378 30.5612 235.123 29.695 235.541 28.0062C237.367 20.6464 236.183 12.6199 231.241 6.71217C226.586 1.14719 218.84 -1.40161 211.872 0.773279C207.89 2.0134 204.432 4.36902 201.135 6.8555C199.839 7.83389 199.029 9.59125 200.02 11.118C200.848 12.4018 202.892 13.2867 204.282 12.2335Z" fill="#438833"/>
<path d="M66.6006 93.5004C66.906 92.9458 67.2487 92.4161 67.6351 91.9113L67.149 92.5407C67.7784 91.7368 68.5075 91.014 69.3177 90.3908L68.6882 90.8769C69.5046 90.2599 70.3833 89.7427 71.3305 89.3439L70.5889 89.6554C70.9504 89.5059 71.3118 89.375 71.6795 89.2628C72.446 89.026 73.1315 88.5275 73.5428 87.8295C73.9541 87.1316 74.0974 86.1781 73.8544 85.4303C73.6114 84.6825 73.144 83.9471 72.4211 83.567C71.6982 83.1868 70.832 83.0061 70.0219 83.2554C66.3264 84.3896 63.0797 86.9446 61.2226 90.3534C60.83 91.0763 60.6866 91.9487 60.911 92.7526C61.1104 93.4755 61.6713 94.2607 62.3443 94.6159C63.8025 95.3824 65.778 95.0272 66.6068 93.5004H66.6006Z" fill="#438833"/>
<path d="M78.886 77.7871L78.9733 77.7186L78.3439 78.2047C79.2537 77.5067 80.2508 76.9334 81.304 76.4847L80.5624 76.7963C81.6218 76.3601 82.731 76.0547 83.8652 75.8989C84.5819 75.7992 85.3795 75.0576 85.7285 74.4656C86.1211 73.7988 86.2831 72.8142 86.0401 72.0664C85.7971 71.3185 85.3297 70.5832 84.6068 70.2031L83.8652 69.8915C83.3106 69.7419 82.7622 69.7419 82.2076 69.8915C80.768 70.0909 79.4406 70.5583 78.107 71.1254C76.7734 71.6925 75.6206 72.4839 74.4802 73.375C73.8944 73.83 73.5703 74.8769 73.5703 75.5811C73.5703 76.3476 73.9068 77.2574 74.4802 77.7871C75.0535 78.3168 75.8511 78.7344 76.6862 78.697L77.515 78.5848C78.0447 78.4352 78.4997 78.1673 78.8923 77.7809L78.886 77.7871Z" fill="#438833"/>
<path d="M89.8414 65.7911C90.2216 65.573 90.6079 65.3798 91.0068 65.2053L90.2652 65.5169C91.175 65.1367 92.116 64.8812 93.0944 64.7441L92.2656 64.8563C93.0259 64.7628 93.7861 64.7441 94.5464 64.8002C95.3067 64.8563 96.229 64.4076 96.7525 63.8904C97.2759 63.3731 97.6997 62.4633 97.6623 61.6843C97.6249 60.9054 97.3632 60.0454 96.7525 59.4783C96.1417 58.9112 95.4126 58.6308 94.5464 58.5684C91.8418 58.3566 89.0437 59.0608 86.6944 60.4068C86.0213 60.7932 85.4667 61.5223 85.2611 62.2701C85.0554 63.0179 85.1489 64.0088 85.5726 64.6694C85.9964 65.3299 86.6383 65.9219 87.4359 66.1027C88.2336 66.2834 89.0936 66.2148 89.8352 65.7911H89.8414Z" fill="#438833"/>
<path d="M106.855 56.5422C107.129 56.2929 107.409 56.0623 107.696 55.8317L107.067 56.3178C107.97 55.6261 108.949 55.059 109.996 54.6103L109.254 54.9219C109.964 54.629 110.694 54.3922 111.441 54.2177C112.189 54.0432 112.925 53.4325 113.305 52.7844C113.685 52.1363 113.859 51.133 113.616 50.3852C113.08 48.7213 111.485 47.8177 109.784 48.2103C107.042 48.8397 104.524 50.2418 102.449 52.1238C101.876 52.6473 101.539 53.5696 101.539 54.3299C101.539 55.0902 101.876 56.0062 102.449 56.5359C103.022 57.0656 103.82 57.4832 104.655 57.4458C105.49 57.4084 106.225 57.1093 106.861 56.5359L106.855 56.5422Z" fill="#438833"/>
<path d="M117.421 45.8971C117.938 45.5232 118.493 45.2054 119.085 44.9499L118.343 45.2615C119.073 44.9561 119.839 44.7505 120.624 44.6446L119.795 44.7567C120.543 44.6633 121.297 44.6633 122.045 44.763L121.216 44.6508C121.478 44.6882 121.734 44.738 121.989 44.7941C122.799 44.9811 123.665 44.9063 124.388 44.4825C125.036 44.1024 125.653 43.3608 125.822 42.6192C126.002 41.8216 125.965 40.9242 125.51 40.22C125.08 39.5532 124.444 38.9736 123.647 38.7867C121.889 38.3816 120.169 38.3816 118.406 38.7244C117.677 38.8677 116.997 39.1232 116.312 39.4099C115.589 39.7152 114.91 40.0517 114.28 40.5129C113.607 41.0052 113.078 41.5411 112.847 42.3762C112.641 43.124 112.735 44.1149 113.159 44.7754C113.582 45.436 114.224 46.028 115.022 46.2087C115.82 46.3895 116.754 46.377 117.421 45.8971Z" fill="#438833"/>
<path d="M132.246 37.1222C132.427 36.7982 132.614 36.4803 132.819 36.1687C132.919 36.013 133.025 35.8634 133.137 35.7138C133.181 35.6515 133.224 35.5954 133.268 35.5331C133.405 35.3524 133.355 35.4147 133.119 35.7263C133.281 35.7014 133.648 35.1093 133.773 34.9722C134.022 34.7043 134.284 34.4425 134.558 34.187C134.801 33.9627 135.057 33.7446 135.312 33.5327C135.892 33.0529 134.764 33.9066 135.387 33.4829C135.512 33.4018 135.63 33.3146 135.755 33.2273C136.372 32.8098 137.013 32.4421 137.68 32.1181C137.811 32.0558 137.948 31.9935 138.085 31.9311C138.746 31.6195 137.655 32.0807 138.06 31.9436C138.409 31.8252 138.752 31.6881 139.107 31.5759C139.78 31.364 140.466 31.2145 141.158 31.0898C141.849 30.9652 140.671 31.1272 141.101 31.0898C141.288 31.0774 141.469 31.0525 141.656 31.04C142.024 31.0151 142.391 31.0026 142.765 31.0026C143.096 31.0026 143.432 31.0151 143.762 31.0462C143.906 31.0587 144.186 31.0275 144.317 31.1023L143.931 31.0525C144.08 31.0774 144.224 31.1023 144.367 31.1272C145.968 31.4077 147.801 30.6972 148.199 28.9523C148.542 27.4318 147.738 25.4252 146.025 25.1198C138.54 23.7924 130.62 27.2573 126.874 33.9814C126.083 35.4085 126.482 37.4463 127.99 38.2439C129.498 39.0416 131.405 38.649 132.252 37.1284L132.246 37.1222Z" fill="#438833"/>
<path d="M159.09 23.9925C159.9 23.0079 160.791 22.098 161.757 21.2692C161.95 21.1009 162.149 20.9452 162.343 20.7831C162.617 20.565 162.611 20.5712 162.318 20.8018C162.455 20.7021 162.592 20.5962 162.729 20.4965C163.215 20.1475 163.707 19.811 164.206 19.4869C166.275 18.1595 168.475 17.0503 170.687 15.9971C170.986 15.8538 171.279 15.7167 171.578 15.5796C171.684 15.5297 172.75 15.0935 172.127 15.3365C172.737 15.0935 173.348 14.8692 173.977 14.6822C174.607 14.4953 175.236 14.3395 175.878 14.2522C175.18 14.3457 176.028 14.2584 176.177 14.2522C176.557 14.2335 176.944 14.2335 177.324 14.2522C177.517 14.2584 177.704 14.2709 177.897 14.2896C178.227 14.327 178.277 14.327 178.053 14.2958C177.829 14.2584 177.878 14.2709 178.209 14.3208C178.396 14.3519 178.589 14.3831 178.776 14.4205C179.436 14.5513 180.097 14.7196 180.745 14.9066C182.147 15.3179 183.506 15.8413 184.864 16.3648C186.391 16.9506 188.348 15.7167 188.697 14.1899C189.102 12.4076 188.155 10.9868 186.522 10.3574C183.549 9.21071 180.546 8.15754 177.33 8.01421C174.114 7.87087 170.986 9.00506 168.057 10.3698C163.165 12.6444 158.155 15.3365 154.684 19.5742C153.656 20.833 153.356 22.7648 154.684 23.98C155.824 25.027 157.987 25.3261 159.09 23.98V23.9925Z" fill="#438833"/>
<path d="M183.08 112.379C185.661 112.379 187.754 109.729 187.754 106.459C187.754 103.19 185.661 100.539 183.08 100.539C180.499 100.539 178.406 103.19 178.406 106.459C178.406 109.729 180.499 112.379 183.08 112.379Z" fill="#438833" stroke="#438833" stroke-width="2" stroke-miterlimit="10"/>
<path d="M193.348 118.811C195.585 118.811 197.399 116.997 197.399 114.76C197.399 112.523 195.585 110.709 193.348 110.709C191.111 110.709 189.297 112.523 189.297 114.76C189.297 116.997 191.111 118.811 193.348 118.811Z" fill="#438833" stroke="#438833" stroke-width="2" stroke-miterlimit="10"/>
</svg>
