<svg width="279" height="203" viewBox="0 0 279 203" fill="none" xmlns="http://www.w3.org/2000/svg">
<path d="M54.5234 101.792C83.4588 68.1411 115.036 35.7102 149.05 4.72088C150.833 3.09628 153.68 3.97341 156.101 4.53782C209.169 17.0312 217.789 33.1475 225.131 64.1215C225.73 66.669 226.022 68.6216 223.081 69.4301C171.448 83.6472 113.333 97.0024 59.4998 107.086C55.2963 107.871 52.0392 104.401 54.5313 101.8L54.5234 101.792Z" fill="#F2CFFF"/>
<path d="M57.3144 104.494C67.8665 92.2216 78.7025 80.1859 89.8145 68.379C100.927 56.572 112.567 44.7423 124.341 33.2938C130.256 27.5429 136.234 21.8454 142.275 16.2241C145.351 13.3563 148.561 10.6029 151.565 7.66642C151.747 7.491 152.228 7.20879 151.471 7.68168C151.991 7.35371 151.226 7.75032 151.234 7.71981C151.234 7.68168 151.739 7.5749 151.739 7.5749C151.684 7.65117 150.745 7.60541 151.494 7.61303C151.668 7.61303 152.504 7.73507 152.622 7.65117C152.559 7.69693 151.668 7.47574 152.449 7.63591C152.693 7.68931 152.938 7.72744 153.182 7.78083C154.972 8.16219 156.755 8.61982 158.529 9.0622C165.028 10.6715 171.487 12.4944 177.788 14.7216C179.176 15.2097 180.556 15.7207 181.928 16.2547C182.244 16.3767 182.551 16.4987 182.859 16.6208C182.985 16.6665 184.05 17.086 183.419 16.8419C182.788 16.5979 183.837 17.0174 183.963 17.0708C184.294 17.2081 184.625 17.353 184.957 17.4903C187.307 18.5047 189.618 19.603 191.873 20.8005C193.884 21.8683 195.848 23.0276 197.741 24.2785C198.616 24.8581 199.468 25.4607 200.312 26.0785C200.73 26.3836 199.531 25.4836 200.256 26.0404C200.453 26.1929 200.643 26.3378 200.84 26.4904C201.266 26.826 201.692 27.1692 202.102 27.5124C203.592 28.7633 205.02 30.0904 206.345 31.5014C206.999 32.1955 207.63 32.9048 208.245 33.6294C208.387 33.7972 208.529 33.9726 208.671 34.1404C209.192 34.7659 208.072 33.3701 208.569 34.0184C208.853 34.3845 209.136 34.7582 209.42 35.132C211.629 38.1295 213.466 41.371 214.996 44.7346C215.091 44.9406 215.177 45.1465 215.272 45.3448C215.461 45.7567 214.901 44.4829 215.075 44.8948C215.122 45.0016 215.162 45.1007 215.209 45.2075C215.398 45.6499 215.58 46.0923 215.761 46.5423C216.124 47.4499 216.471 48.3652 216.81 49.2804C217.488 51.1567 218.103 53.0635 218.671 54.978C219.271 56.9992 219.823 59.0356 220.343 61.0797C220.619 62.1628 220.887 63.2535 221.148 64.3442C221.289 64.9238 221.431 65.4959 221.542 66.0832C221.566 66.2052 221.573 66.4111 221.621 66.5332C221.337 65.8238 221.55 65.8086 221.558 66.1671C221.566 66.5789 221.408 67.601 221.644 66.312C221.621 66.4264 221.589 66.5484 221.55 66.6552C221.55 66.64 222.015 65.7399 221.707 66.2205C221.731 66.1823 222.401 65.4959 221.968 65.8696C222.031 65.8162 222.812 65.3738 222.267 65.6408C221.786 65.8772 222.504 65.7018 222.551 65.5645C222.536 65.6103 222.007 65.7399 222.023 65.7323C221.518 65.8849 221.006 66.0145 220.493 66.1518C218.561 66.6857 216.629 67.212 214.689 67.7306C210.832 68.7756 206.976 69.8052 203.111 70.8197C187.196 75.0146 171.226 78.996 155.209 82.802C138.939 86.6614 122.622 90.33 106.258 93.8157C98.182 95.5318 90.0905 97.2022 81.9911 98.8267C77.9927 99.6276 73.9864 100.413 69.9801 101.191C67.9611 101.58 65.9422 101.969 63.9233 102.351C62.9769 102.534 62.0305 102.709 61.0842 102.892C60.611 102.984 60.1378 103.067 59.6646 103.159C59.428 103.205 59.1914 103.251 58.9548 103.289C58.7813 103.319 58.5999 103.357 58.4264 103.388L58.8917 103.334C58.7971 103.273 57.7955 103.464 57.7797 103.35C57.7561 103.212 58.663 103.556 58.0479 103.373C57.898 103.327 57.7166 103.281 57.5589 103.243C56.8807 103.09 57.7955 103.266 57.8192 103.365C57.8192 103.334 57.3696 103.106 57.3065 103.09C56.8728 102.968 57.8586 103.624 57.5668 103.296C57.48 103.197 57.3618 103.083 57.2592 102.999C56.8886 102.709 57.7561 103.67 57.4958 103.289C57.4012 103.144 57.2198 102.732 57.4643 103.312C57.7088 103.891 57.5431 103.479 57.5037 103.312C57.3933 102.854 57.5668 104.234 57.5747 103.762C57.5826 103.289 57.3775 104.669 57.4958 104.204C57.5353 104.051 57.6851 103.609 57.4643 104.181C57.2435 104.753 57.4327 104.318 57.5274 104.166C57.6772 103.922 57.6693 104.082 57.2829 104.479C58.6867 103.014 58.8917 100.512 57.2829 99.0861C55.7529 97.7284 53.2056 97.5225 51.7072 99.0861C48.4737 102.45 49.4516 107.392 53.4185 109.734C57.3381 112.052 62.0384 110.466 66.1788 109.673C74.4359 108.101 82.6851 106.469 90.9186 104.791C107.882 101.336 124.799 97.6674 141.668 93.8004C158.537 89.9334 175.059 85.9291 191.676 81.6884C199.767 79.6215 207.843 77.5011 215.903 75.3197C217.898 74.7782 219.894 74.2366 221.881 73.6951C223.868 73.1536 226.108 72.6807 227.646 71.1247C230.343 68.3942 229.286 64.6721 228.498 61.4306C226.479 53.1322 224.066 44.8109 219.965 37.2218C215.864 29.6328 210.083 23.5234 203.04 18.5886C193.947 12.2199 183.174 8.17745 172.535 4.95114C169.113 3.91384 165.666 2.96807 162.204 2.09094C160.327 1.61042 158.434 1.16805 156.55 0.710415C154.515 0.222274 152.488 -0.181968 150.398 0.0849845C147.804 0.420581 146.124 2.09857 144.31 3.7613C142.756 5.17996 141.21 6.60624 139.665 8.04016C136.494 10.9766 133.332 13.9284 130.193 16.903C117.819 28.6107 105.706 40.5854 93.8918 52.8271C82.0779 65.0687 70.8239 77.2646 59.7356 89.8648C57.0463 92.9233 54.3728 95.9971 51.7151 99.0861C50.398 100.619 50.051 102.999 51.7151 104.479C53.174 105.768 55.887 106.118 57.2908 104.479L57.3144 104.494Z" fill="#F2CFFF"/>
<path d="M225.508 73.748C224.507 102.297 224.452 120.823 223.45 149.372C223.403 150.653 223.34 152.011 222.606 153.086C221.778 154.307 220.28 154.901 218.868 155.428C208.829 159.18 191.494 161.804 176.746 165.404C150.587 171.788 159.231 170.56 130.279 178.668C114.759 183.015 86.9828 192.29 67.527 197.896C61.0679 199.757 54.3408 197.393 54.0017 190.887C52.6294 164.092 52.8187 134.026 53.2761 107.201L225.5 73.748" fill="#9B410E"/>
<path d="M221.564 73.7486C221.123 86.242 220.823 98.7429 220.539 111.244C220.255 123.745 219.963 136.154 219.53 148.61C219.514 148.96 219.506 149.311 219.49 149.662C219.482 149.86 219.467 150.059 219.459 150.257C219.459 150.341 219.443 150.86 219.466 150.349C219.49 149.838 219.474 150.326 219.451 150.433C219.403 150.623 219.356 150.814 219.309 151.005C219.269 151.157 219.049 151.432 219.285 151.088C219.687 150.524 218.899 151.538 219.325 150.997C219.648 150.593 219.222 151.043 219.135 151.142C218.828 151.485 219.356 150.974 219.348 150.989C219.246 151.203 218.654 151.394 218.425 151.493C218.339 151.531 218.102 151.691 218.008 151.683C218.063 151.683 218.851 151.363 218.102 151.638C217.818 151.744 217.542 151.851 217.258 151.95C214.908 152.797 212.495 153.491 210.074 154.124C204.277 155.642 198.394 156.832 192.518 158.044C181.872 160.249 171.265 162.636 160.791 165.534C155.452 167.014 150.216 168.799 144.924 170.423C135.326 173.36 125.618 175.961 116.02 178.912C105.018 182.299 94.0562 185.823 83.0546 189.232C77.7628 190.872 72.4552 192.489 67.1318 194.037C66.564 194.205 65.9962 194.365 65.4126 194.495C65.105 194.563 64.7896 194.609 64.482 194.663C64.0403 194.747 64.8684 194.617 64.8684 194.617C64.7028 194.602 64.5056 194.655 64.34 194.663C63.7407 194.708 63.1334 194.716 62.534 194.686C62.3684 194.678 61.3668 194.571 62.0608 194.663C62.7154 194.739 61.7927 194.602 61.6192 194.564C61.1145 194.457 60.5309 194.129 60.034 194.091C60.0656 194.091 60.7517 194.457 60.4441 194.251C60.3574 194.19 60.2312 194.152 60.1365 194.098C59.8684 193.961 59.616 193.793 59.3558 193.648C58.788 193.328 59.963 194.205 59.3558 193.648C59.1665 193.473 58.9694 193.305 58.7958 193.122C58.7249 193.046 58.6539 192.947 58.575 192.878C58.299 192.634 58.8432 193.183 58.8432 193.221C58.8195 193.015 58.4725 192.672 58.3621 192.466C58.3069 192.367 58.2675 192.26 58.2044 192.161C57.9441 191.757 58.4488 192.908 58.3227 192.436C58.2675 192.207 58.1649 191.986 58.1018 191.757C58.094 191.726 57.9362 190.918 57.9126 190.918C57.9678 190.918 57.9914 191.917 57.9599 191.162C57.952 190.963 57.9362 190.758 57.9283 190.559C57.8416 188.965 57.7706 187.371 57.6996 185.777C57.5577 182.589 57.4473 179.401 57.3447 176.212C57.1397 169.569 57.0135 162.918 56.9425 156.267C56.8006 143.011 56.8873 129.755 57.0687 116.499C57.1081 113.402 57.1634 110.306 57.2107 107.217L54.3163 110.893C55.8542 110.596 57.3842 110.298 58.922 110.001C63.094 109.192 67.2738 108.376 71.4457 107.568C77.6208 106.37 83.7959 105.165 89.971 103.968C97.5025 102.503 105.042 101.039 112.574 99.5743C120.831 97.9726 129.08 96.3709 137.337 94.7615C145.594 93.1522 154.001 91.5276 162.337 89.903C170.105 88.3928 177.881 86.8826 185.649 85.3725C192.219 84.0987 198.788 82.8173 205.35 81.5436C210.09 80.6207 214.829 79.7054 219.569 78.7825C221.793 78.3478 224.033 77.9664 226.249 77.4859C226.343 77.463 226.446 77.4478 226.541 77.4325C228.567 77.0359 229.916 74.6028 229.293 72.7418C228.599 70.6596 226.612 69.6604 224.443 70.0799C222.905 70.3774 221.375 70.6748 219.837 70.9723C215.665 71.7808 211.485 72.5969 207.313 73.4054C201.138 74.6028 194.963 75.8079 188.788 77.0054C181.257 78.4698 173.717 79.9343 166.186 81.3987C157.929 83.0004 149.679 84.6021 141.422 86.2114C133.165 87.8208 124.758 89.4454 116.422 91.07C108.654 92.5802 100.878 94.0903 93.1098 95.6005C86.5404 96.8743 79.971 98.1556 73.4094 99.4294C68.6697 100.352 63.9299 101.268 59.1902 102.19C56.9662 102.625 54.7186 102.991 52.5103 103.487C52.4157 103.51 52.3132 103.525 52.2185 103.54C50.5151 103.868 49.3479 105.63 49.3242 107.217C49.1113 120.61 48.9614 134.019 49.0088 147.435C49.0561 160.851 49.2848 174.252 49.9078 187.653C50.0498 190.765 50.0261 193.953 51.7927 196.684C53.3857 199.147 55.8779 200.841 58.7328 201.703C64.2848 203.365 69.8211 201.237 75.0971 199.658C86.5009 196.241 97.8417 192.603 109.206 189.041C119.506 185.815 129.861 182.825 140.231 179.805C146.501 177.974 152.684 175.915 158.938 174.031C167.873 171.346 177.006 169.142 186.138 167.182C192.463 165.817 198.82 164.589 205.137 163.178C210.405 162.003 215.768 160.79 220.776 158.777C222.795 157.968 224.537 157 225.847 155.245C226.974 153.727 227.274 151.79 227.377 149.967C227.566 146.543 227.613 143.103 227.724 139.671C227.913 133.348 228.079 127.025 228.228 120.709C228.512 108.468 228.765 96.226 229.135 83.9843C229.238 80.5749 229.348 77.1656 229.467 73.7562C229.538 71.7579 227.605 69.8511 225.523 69.9426C223.331 70.0341 221.659 71.6206 221.58 73.7562L221.564 73.7486Z" fill="#9B410E"/>
<path d="M161.328 11.4885C157.795 10.0393 153.537 11.3359 150.697 13.8376C147.858 16.3394 146.202 19.8479 144.925 23.3488C143.947 26.0183 143.142 28.9395 143.978 31.6624C144.593 33.6607 146.029 35.3311 147.598 36.765C151.857 40.6701 157.898 43.3549 163.592 41.982C167.401 41.0591 170.619 38.3972 172.59 35.1099C174.562 31.8226 175.35 27.9708 175.366 24.1725C175.366 22.7538 175.264 21.3123 174.704 20.0004C174.033 18.4292 172.764 17.1784 171.526 15.9733C169.672 14.1656 167.716 12.2969 165.201 11.5571C162.685 10.8173 159.467 11.6486 158.489 14.0131" fill="#C51919"/>
<path d="M162.379 7.81169C158.388 6.26336 153.499 7.23965 150.029 9.54306C146.251 12.0448 143.909 15.7135 142.174 19.7254C140.439 23.7373 138.988 28.0543 140.092 32.3484C141.196 36.6425 144.776 39.7925 148.31 42.1951C151.724 44.5214 155.865 46.024 160.06 46.1536C164.485 46.2833 168.601 44.5977 171.922 41.8519C175.116 39.2052 177.276 35.3993 178.349 31.5018C179.516 27.2458 180.005 22.0364 178.041 17.9406C177.056 15.8813 175.289 14.2109 173.641 12.6321C171.993 11.0532 170.194 9.51255 168.073 8.58203C165.699 7.54473 163.136 7.171 160.589 7.84219C158.317 8.44474 156.054 9.95493 155.084 12.0905C154.256 13.9134 154.469 16.2703 156.496 17.3076C158.207 18.1847 161.007 17.8872 161.89 15.9423C161.953 15.7974 162.048 15.6524 162.103 15.5075C162.221 15.2101 162.355 15.4008 162.071 15.4999L161.906 15.6982C161.985 15.6067 162.064 15.5228 162.158 15.4389C162.182 15.416 162.434 15.2177 162.426 15.2024C162.505 15.4847 161.709 15.6143 162.229 15.3855C162.284 15.3626 162.663 15.1491 162.671 15.1567C162.687 15.2253 161.898 15.3779 162.316 15.3169C162.513 15.2863 162.734 15.2101 162.931 15.1491C163.057 15.1109 163.491 15.0804 162.915 15.1338C162.292 15.1872 162.884 15.1338 163.034 15.1338C163.152 15.1338 163.933 15.1796 163.94 15.1491C163.909 15.2177 162.939 14.9279 163.657 15.1262C163.783 15.1567 163.909 15.1796 164.027 15.2177C164.217 15.2711 164.406 15.3474 164.595 15.4008C165.108 15.5457 163.83 14.9965 164.65 15.4389C164.926 15.5838 165.194 15.7287 165.463 15.8889C165.636 15.9957 166.646 16.7431 165.944 16.1787C166.559 16.6669 167.15 17.1779 167.718 17.7194C168.254 18.2228 168.791 18.7415 169.311 19.2677C169.579 19.5347 169.847 19.8093 170.1 20.0915C170.25 20.2517 170.392 20.4118 170.526 20.5796C170.179 20.1678 170.392 20.4195 170.589 20.7017C170.802 21.0144 170.983 21.3347 171.149 21.6627C170.817 21.022 171.172 21.8457 171.243 22.1279C171.283 22.2881 171.306 22.4483 171.346 22.6085C171.149 21.9296 171.322 22.3339 171.346 22.5627C171.377 22.9974 171.401 23.4322 171.409 23.8746C171.417 24.6525 171.393 25.4381 171.33 26.2161C171.314 26.3915 171.149 27.7416 171.283 26.8721C171.22 27.3144 171.141 27.7568 171.046 28.1916C170.888 28.9543 170.683 29.717 170.439 30.4568C170.321 30.8306 170.163 31.1891 170.037 31.5628C169.855 32.1196 170.297 31.0518 170.037 31.578C169.911 31.8297 169.8 32.0814 169.666 32.3331C169.327 32.9815 168.948 33.6069 168.53 34.2094C168.444 34.3315 168.349 34.4459 168.27 34.5679C167.97 35.0255 168.704 34.0874 168.333 34.4916C168.065 34.7891 167.813 35.0866 167.537 35.3764C167.064 35.8569 166.48 36.551 165.865 36.8637C165.888 36.8561 166.44 36.4823 166.062 36.7035C165.936 36.7798 165.817 36.8713 165.691 36.9552C165.313 37.1993 164.926 37.4205 164.532 37.6264C164.224 37.7866 163.917 37.962 163.586 38.0688C164.343 37.8171 163.586 38.0459 163.262 38.1451C162.923 38.2519 162.576 38.3357 162.229 38.412C162.142 38.4273 161.638 38.5569 161.614 38.5264C161.661 38.5798 162.395 38.4578 161.74 38.5112C160.967 38.5722 160.202 38.5874 159.429 38.5341C159.382 38.5341 158.988 38.5341 158.972 38.4959C159.004 38.5569 159.721 38.6256 159.106 38.5112C158.696 38.4349 158.294 38.3586 157.892 38.2595C157.182 38.084 156.488 37.8629 155.802 37.6112C155.116 37.3595 155.746 37.5807 155.873 37.6417C155.683 37.5578 155.486 37.4739 155.297 37.3823C154.918 37.1993 154.54 37.0086 154.169 36.8103C153.522 36.4595 152.892 36.0705 152.284 35.6586C152.111 35.5366 151.945 35.4145 151.764 35.3001C151.803 35.323 152.276 35.7044 151.929 35.4222C151.582 35.1399 151.275 34.9035 150.959 34.6289C150.36 34.1103 149.776 33.5687 149.24 32.9891C149.13 32.8747 149.027 32.7526 148.917 32.6306C148.838 32.5391 148.428 32.0128 148.72 32.4018C148.988 32.7679 148.68 32.3331 148.649 32.2797C148.507 32.0586 148.357 31.845 148.223 31.6162C148.073 31.3645 147.726 30.5636 147.994 31.273C147.86 30.9145 147.742 30.556 147.655 30.1899C147.623 30.0679 147.545 29.3738 147.584 29.8696C147.623 30.3348 147.584 29.7704 147.584 29.7094C147.584 29.1984 147.608 28.7026 147.631 28.1992C147.647 27.7568 147.616 28.306 147.608 28.367C147.655 28.1458 147.687 27.917 147.734 27.6958C147.821 27.2992 147.915 26.9102 148.026 26.5288C148.254 25.7127 148.538 24.9042 148.83 24.111C148.972 23.722 149.122 23.333 149.28 22.9441C149.358 22.7534 149.437 22.5551 149.516 22.3644C149.792 21.6856 149.351 22.6847 149.563 22.2729C149.966 21.4796 150.336 20.6788 150.786 19.9161C151.204 19.2067 151.669 18.5126 152.182 17.8567C151.677 18.4974 152.395 17.6431 152.584 17.4525C152.907 17.1169 153.246 16.7889 153.601 16.4838C153.657 16.4381 153.87 16.2016 153.948 16.194L153.633 16.4228C153.759 16.3313 153.877 16.2474 154.004 16.1635C154.343 15.9423 154.69 15.7287 155.052 15.5457C155.234 15.4541 155.423 15.3779 155.597 15.2711C156.062 15.0041 154.745 15.5533 155.636 15.2482C156.023 15.1185 156.401 14.9889 156.795 14.8974C156.945 14.8592 157.087 14.8287 157.237 14.7982C157.387 14.7677 157.529 14.7372 157.679 14.7143L157.229 14.7753C157.497 14.6304 158.112 14.7219 158.42 14.7372C158.499 14.7372 158.917 14.7219 159.011 14.7753L158.554 14.7143C158.704 14.7372 158.846 14.7677 158.988 14.7982C159.429 14.8974 159.855 15.0346 160.273 15.2024C162.19 15.9499 164.69 14.394 165.123 12.5406C165.644 10.3363 164.422 8.64305 162.371 7.84982L162.379 7.81169Z" fill="#C51617"/>
<path d="M192.371 29.4357C188.838 27.9866 184.579 29.2832 181.74 31.7849C178.901 34.2866 177.245 37.7951 175.967 41.296C174.99 43.9655 174.185 46.8868 175.021 49.6097C175.636 51.608 177.072 53.2784 178.641 54.7123C182.9 58.6174 188.941 61.3022 194.635 59.9293C198.444 59.0064 201.662 56.3445 203.633 53.0572C205.605 49.7699 206.393 45.9181 206.409 42.1198C206.409 40.7011 206.307 39.2596 205.747 37.9477C205.076 36.3765 203.807 35.1256 202.568 33.9205C200.715 32.1129 198.759 30.2442 196.244 29.5044C193.728 28.7645 190.51 29.5959 189.532 31.9603" fill="#C51919"/>
<path d="M193.414 25.759C189.424 24.2106 184.534 25.1869 181.064 27.4903C177.286 29.992 174.944 33.6607 173.209 37.6726C171.474 41.6845 170.023 46.0015 171.127 50.2957C172.231 54.5898 175.812 57.7398 179.345 60.1424C182.878 62.545 186.9 63.9712 191.096 64.1009C195.52 64.2306 199.637 62.5449 202.957 59.7992C206.151 57.1525 208.312 53.3465 209.384 49.449C210.551 45.1931 211.04 39.9837 209.077 35.8879C208.091 33.8285 206.324 32.1582 204.676 30.5793C203.028 29.0005 201.23 27.4598 199.108 26.5293C196.734 25.492 194.171 25.1183 191.624 25.7895C189.353 26.392 187.089 27.9022 186.119 30.0378C185.291 31.8607 185.504 34.2175 187.531 35.2548C189.242 36.1319 192.042 35.8345 192.925 33.8895C192.988 33.7446 193.083 33.5997 193.138 33.4548C193.256 33.1573 193.39 33.348 193.107 33.4472L192.941 33.6455C193.02 33.554 193.099 33.4701 193.193 33.3862C193.217 33.3633 193.469 33.165 193.461 33.1497C193.54 33.4319 192.744 33.5616 193.264 33.3328C193.32 33.3099 193.698 33.0963 193.706 33.1039C193.722 33.1726 192.933 33.3251 193.351 33.2641C193.548 33.2336 193.769 33.1573 193.966 33.0963C194.092 33.0582 194.526 33.0277 193.95 33.0811C193.327 33.1345 193.919 33.0811 194.069 33.0811C194.187 33.0811 194.968 33.1268 194.976 33.0963C194.944 33.165 193.974 32.8751 194.692 33.0734C194.818 33.1039 194.944 33.1268 195.062 33.165C195.252 33.2184 195.441 33.2946 195.63 33.348C196.143 33.4929 194.865 32.9438 195.685 33.3862C195.961 33.5311 196.23 33.676 196.498 33.8362C196.671 33.9429 197.681 34.6904 196.979 34.126C197.594 34.6141 198.185 35.1252 198.753 35.6667C199.29 36.1701 199.826 36.6887 200.346 37.215C200.614 37.482 200.883 37.7565 201.135 38.0387C201.285 38.1989 201.427 38.3591 201.561 38.5269C201.214 38.115 201.427 38.3667 201.624 38.6489C201.837 38.9616 202.018 39.282 202.184 39.61C201.853 38.9693 202.208 39.793 202.279 40.0752C202.318 40.2354 202.342 40.3956 202.381 40.5557C202.184 39.8769 202.357 40.2811 202.381 40.51C202.413 40.9447 202.436 41.3795 202.444 41.8218C202.452 42.5998 202.428 43.3854 202.365 44.1634C202.349 44.3388 202.184 45.6888 202.318 44.8193C202.255 45.2617 202.176 45.7041 202.081 46.1388C201.924 46.9016 201.719 47.6643 201.474 48.4041C201.356 48.7778 201.198 49.1363 201.072 49.5101C200.89 50.0668 201.332 48.999 201.072 49.5253C200.946 49.777 200.835 50.0287 200.701 50.2804C200.362 50.9287 199.984 51.5542 199.566 52.1567C199.479 52.2787 199.384 52.3931 199.305 52.5152C199.006 52.9728 199.739 52.0347 199.368 52.4389C199.1 52.7364 198.848 53.0338 198.572 53.3237C198.099 53.8042 197.515 54.4982 196.9 54.811C196.924 54.8033 197.476 54.4296 197.097 54.6508C196.971 54.7271 196.853 54.8186 196.726 54.9025C196.348 55.1466 195.961 55.3677 195.567 55.5737C195.26 55.7339 194.952 55.9093 194.621 56.0161C195.378 55.7644 194.621 55.9932 194.297 56.0923C193.958 56.1991 193.611 56.283 193.264 56.3593C193.178 56.3745 192.673 56.5042 192.649 56.4737C192.696 56.5271 193.43 56.4051 192.775 56.4584C192.002 56.5195 191.237 56.5347 190.465 56.4813C190.417 56.4813 190.023 56.4813 190.007 56.4432C190.039 56.5042 190.756 56.5728 190.141 56.4584C189.731 56.3822 189.329 56.3059 188.927 56.2067C188.217 56.0313 187.523 55.8101 186.837 55.5584C186.151 55.3067 186.782 55.5279 186.908 55.5889C186.719 55.505 186.521 55.4211 186.332 55.3296C185.954 55.1466 185.575 54.9559 185.204 54.7576C184.558 54.4067 183.927 54.0177 183.319 53.6059C183.146 53.4838 182.98 53.3618 182.799 53.2474C182.838 53.2703 183.312 53.6516 182.965 53.3694C182.618 53.0872 182.31 52.8508 181.995 52.5762C181.395 52.0575 180.812 51.516 180.275 50.9363C180.165 50.8219 180.062 50.6999 179.952 50.5779C179.873 50.4863 179.463 49.9601 179.755 50.3491C180.023 50.7152 179.715 50.2804 179.684 50.227C179.542 50.0058 179.392 49.7923 179.258 49.5634C179.108 49.3118 178.761 48.5109 179.029 49.2202C178.895 48.8617 178.777 48.5033 178.69 48.1372C178.659 48.0151 178.58 47.3211 178.619 47.8168C178.659 48.2821 178.619 47.7177 178.619 47.6566C178.619 47.1456 178.643 46.6499 178.666 46.1465C178.682 45.7041 178.651 46.2532 178.643 46.3143C178.69 46.0931 178.722 45.8643 178.769 45.6431C178.856 45.2465 178.95 44.8575 179.061 44.4761C179.29 43.66 179.573 42.8515 179.865 42.0583C180.007 41.6693 180.157 41.2803 180.315 40.8913C180.394 40.7006 180.472 40.5023 180.551 40.3117C180.827 39.6328 180.386 40.632 180.599 40.2201C181.001 39.4269 181.372 38.626 181.821 37.8633C182.239 37.154 182.704 36.4599 183.217 35.804C182.712 36.4447 183.43 35.5904 183.619 35.3997C183.943 35.0641 184.282 34.7362 184.637 34.4311C184.692 34.3853 184.905 34.1489 184.984 34.1412L184.668 34.3701C184.794 34.2785 184.913 34.1946 185.039 34.1107C185.378 33.8895 185.725 33.676 186.088 33.4929C186.269 33.4014 186.458 33.3251 186.632 33.2184C187.097 32.9514 185.78 33.5006 186.671 33.1955C187.058 33.0658 187.436 32.9361 187.831 32.8446C187.98 32.8065 188.122 32.776 188.272 32.7455C188.422 32.715 188.564 32.6845 188.714 32.6616L188.264 32.7226C188.532 32.5777 189.148 32.6692 189.455 32.6845C189.534 32.6845 189.952 32.6692 190.047 32.7226L189.589 32.6616C189.739 32.6845 189.881 32.715 190.023 32.7455C190.465 32.8446 190.89 32.9819 191.308 33.1497C193.225 33.8972 195.725 32.3412 196.159 30.4878C196.679 28.2836 195.457 26.5903 193.406 25.7971L193.414 25.759Z" fill="#C51617"/>
<path d="M161.328 41.1799C157.795 39.7307 153.537 41.0273 150.697 43.529C147.858 46.0308 146.202 49.5393 144.925 53.0402C143.947 55.7097 143.142 58.6309 143.978 61.3538C144.593 63.3521 146.029 65.0225 147.598 66.4564C151.857 70.3615 157.898 73.0463 163.592 71.6734C167.401 70.7505 170.619 68.0886 172.59 64.8013C174.562 61.514 175.35 57.6623 175.366 53.8639C175.366 52.4452 175.264 51.0037 174.704 49.6918C174.033 48.1206 172.764 46.8698 171.526 45.6647C169.672 43.857 167.716 41.9884 165.201 41.2485C162.685 40.5087 159.467 41.34 158.489 43.7045" fill="#C51919"/>
<path d="M162.379 37.5031C158.388 35.9548 153.499 36.9311 150.029 39.2345C146.251 41.7362 143.909 45.4049 142.174 49.4168C140.439 53.4287 138.988 57.7457 140.092 62.0398C141.196 66.3339 144.776 69.484 148.31 71.8865C151.843 74.2891 155.865 75.7154 160.06 75.845C164.485 75.9747 168.601 74.2891 171.922 71.5433C175.242 68.7975 177.276 65.0907 178.349 61.1932C179.516 56.9372 180.005 51.7278 178.041 47.632C177.056 45.5727 175.289 43.9023 173.641 42.3235C171.993 40.7447 170.194 39.204 168.073 38.2734C165.699 37.2361 163.136 36.8624 160.589 37.5336C158.317 38.1361 156.054 39.6463 155.084 41.782C154.256 43.6049 154.469 45.9617 156.496 46.999C158.207 47.8761 161.007 47.5786 161.89 45.6337C161.953 45.4888 162.048 45.3439 162.103 45.1989C162.221 44.9015 162.355 45.0922 162.071 45.1913L161.906 45.3896C161.985 45.2981 162.064 45.2142 162.158 45.1303C162.182 45.1074 162.434 44.9091 162.426 44.8939C162.505 45.1761 161.709 45.3057 162.229 45.0769C162.284 45.054 162.663 44.8405 162.671 44.8481C162.687 44.9167 161.898 45.0693 162.316 45.0083C162.513 44.9778 162.734 44.9015 162.931 44.8405C163.057 44.8023 163.491 44.7718 162.915 44.8252C162.292 44.8786 162.884 44.8252 163.034 44.8252C163.152 44.8252 163.933 44.871 163.94 44.8405C163.909 44.9091 162.939 44.6193 163.657 44.8176C163.783 44.8481 163.909 44.871 164.027 44.9091C164.217 44.9625 164.406 45.0388 164.595 45.0922C165.108 45.2371 163.83 44.6879 164.65 45.1303C164.926 45.2752 165.194 45.4201 165.463 45.5803C165.636 45.6871 166.646 46.4345 165.944 45.8701C166.559 46.3583 167.15 46.8693 167.718 47.4108C168.254 47.9142 168.791 48.4329 169.311 48.9591C169.579 49.2261 169.847 49.5007 170.1 49.7829C170.25 49.9431 170.392 50.1032 170.526 50.271C170.179 49.8592 170.392 50.1109 170.589 50.3931C170.802 50.7058 170.983 51.0261 171.149 51.3541C170.817 50.7134 171.172 51.5371 171.243 51.8193C171.283 51.9795 171.306 52.1397 171.346 52.2999C171.149 51.621 171.322 52.0253 171.346 52.2541C171.377 52.6889 171.401 53.1236 171.409 53.566C171.417 54.344 171.393 55.1296 171.33 55.9075C171.314 56.083 171.149 57.433 171.283 56.5635C171.22 57.0058 171.141 57.4482 171.046 57.883C170.888 58.6457 170.683 59.4084 170.439 60.1483C170.321 60.522 170.163 60.8805 170.037 61.2542C169.855 61.811 170.297 60.7432 170.037 61.2695C169.911 61.5212 169.8 61.7729 169.666 62.0245C169.327 62.6729 168.948 63.2983 168.53 63.9008C168.444 64.0229 168.349 64.1373 168.27 64.2593C167.97 64.717 168.704 63.7788 168.333 64.183C168.065 64.4805 167.813 64.778 167.537 65.0678C167.064 65.5483 166.48 66.2424 165.865 66.5551C165.888 66.5475 166.44 66.1737 166.062 66.3949C165.936 66.4712 165.817 66.5627 165.691 66.6466C165.313 66.8907 164.926 67.1119 164.532 67.3178C164.224 67.478 163.917 67.6534 163.586 67.7602C164.343 67.5085 163.586 67.7373 163.262 67.8365C162.923 67.9433 162.576 68.0272 162.229 68.1034C162.142 68.1187 161.638 68.2483 161.614 68.2178C161.661 68.2712 162.395 68.1492 161.74 68.2026C160.967 68.2636 160.202 68.2789 159.429 68.2255C159.382 68.2255 158.988 68.2255 158.972 68.1873C159.004 68.2483 159.721 68.317 159.106 68.2026C158.696 68.1263 158.294 68.05 157.892 67.9509C157.182 67.7755 156.488 67.5543 155.802 67.3026C155.116 67.0509 155.746 67.2721 155.873 67.3331C155.683 67.2492 155.486 67.1653 155.297 67.0738C154.918 66.8907 154.54 66.7 154.169 66.5017C153.522 66.1509 152.892 65.7619 152.284 65.35C152.111 65.228 151.945 65.1059 151.764 64.9915C151.803 65.0144 152.276 65.3958 151.929 65.1136C151.582 64.8314 151.275 64.5949 150.959 64.3203C150.36 63.8017 149.776 63.2602 149.24 62.6805C149.13 62.5661 149.027 62.444 148.917 62.322C148.838 62.2305 148.428 61.7042 148.72 62.0932C148.988 62.4593 148.68 62.0245 148.649 61.9712C148.507 61.75 148.357 61.5364 148.223 61.3076C148.073 61.0559 147.726 60.255 147.994 60.9644C147.86 60.6059 147.742 60.2474 147.655 59.8813C147.623 59.7593 147.545 59.0652 147.584 59.561C147.623 60.0262 147.584 59.4618 147.584 59.4008C147.584 58.8898 147.608 58.394 147.631 57.8906C147.647 57.4482 147.616 57.9974 147.608 58.0584C147.655 57.8372 147.687 57.6084 147.734 57.3872C147.821 56.9906 147.915 56.6016 148.026 56.2202C148.254 55.4041 148.538 54.5956 148.83 53.8024C148.972 53.4134 149.122 53.0244 149.28 52.6355C149.358 52.4448 149.437 52.2465 149.516 52.0558C149.792 51.377 149.351 52.3761 149.563 51.9643C149.966 51.171 150.336 50.3702 150.786 49.6075C151.204 48.8981 151.669 48.2041 152.182 47.5481C151.677 48.1888 152.395 47.3346 152.584 47.1439C152.907 46.8083 153.246 46.4803 153.601 46.1752C153.657 46.1295 153.87 45.893 153.948 45.8854L153.633 46.1142C153.759 46.0227 153.877 45.9388 154.004 45.8549C154.343 45.6337 154.69 45.4201 155.052 45.2371C155.234 45.1455 155.423 45.0693 155.597 44.9625C156.062 44.6955 154.745 45.2447 155.636 44.9396C156.023 44.81 156.401 44.6803 156.795 44.5888C156.945 44.5506 157.087 44.5201 157.237 44.4896C157.387 44.4591 157.529 44.4286 157.679 44.4057L157.229 44.4667C157.497 44.3218 158.112 44.4133 158.42 44.4286C158.499 44.4286 158.917 44.4133 159.011 44.4667L158.554 44.4057C158.704 44.4286 158.846 44.4591 158.988 44.4896C159.429 44.5888 159.855 44.7261 160.273 44.8939C162.19 45.6413 164.69 44.0854 165.123 42.232C165.644 40.0277 164.422 38.3345 162.371 37.5412L162.379 37.5031Z" fill="#C51617"/>
<path d="M53.293 107.201C59.4523 114.759 79.7836 125.712 89.2788 122.852C98.7741 119.991 105.998 111.113 106.637 101.518C114.153 108.063 124.571 111.739 134.571 110.267C144.571 108.787 153.758 101.732 156.448 92.3047C160.888 100.237 172.221 102.838 180.919 99.5887C189.618 96.3395 195.785 88.5521 199.334 80.2156C205.036 87.6979 215.383 91.5649 224.8 89.742L225.509 70.1172L53.293 107.201Z" fill="#F2CFFF"/>
<path d="M50.5036 109.894C53.2166 113.189 56.9232 115.805 60.5431 118.093C64.8964 120.854 69.5888 123.15 74.4706 124.889C78.5557 126.346 83.2009 127.536 87.5778 127.017C93.2482 126.346 98.6031 123.135 102.491 119.169C107.215 114.348 110.094 108.14 110.575 101.512C108.327 102.412 106.087 103.312 103.84 104.212C110.89 110.298 119.967 114.211 129.494 114.394C138.217 114.562 146.876 111.221 153.012 105.203C156.387 101.885 158.934 97.7971 160.244 93.3123C157.838 93.6174 155.441 93.9225 153.035 94.22C157.042 101.222 165.386 104.852 173.453 104.753C182.105 104.646 189.976 100.169 195.425 93.8386C198.714 90.0174 201.166 85.7995 203.138 81.2156C200.733 81.5207 198.335 81.8258 195.93 82.1232C202.846 91.0852 214.463 95.5395 225.851 93.4039C227.578 93.0835 228.69 91.314 228.745 89.7276C228.95 83.9919 229.178 74.58 229.383 68.8443C229.415 68.0358 229.438 67.235 229.47 66.4265C229.564 63.8409 227.862 64.4745 225.457 64.9932C223.927 65.3211 222.389 65.6567 220.859 65.9847C216.671 66.8847 211.845 68.2323 207.409 69.5167C201.234 70.8439 194.944 72.7875 188.769 74.1147C181.237 75.7393 173.706 77.3562 166.174 78.9808C157.925 80.758 149.676 82.5351 141.427 84.3122C133.067 86.1123 124.707 87.9123 116.348 89.7123C108.587 91.3827 100.819 93.053 93.0589 94.7234C86.4974 96.1344 79.9359 97.5454 73.3822 98.9641C68.6661 99.9785 63.95 100.993 59.2339 102.015C57.0021 102.495 54.7465 102.93 52.5304 103.457C52.4358 103.479 52.3412 103.495 52.2386 103.518C50.2197 103.952 48.8475 106.317 49.4863 108.208C50.1724 110.252 52.1756 111.335 54.3364 110.87C55.8664 110.542 57.4043 110.207 58.9342 109.879C63.1219 108.979 67.3175 108.071 71.5052 107.171C77.6803 105.844 83.8554 104.509 90.0305 103.182C97.5621 101.557 105.094 99.9404 112.625 98.3158C120.874 96.5387 129.124 94.7615 137.373 92.9844C145.733 91.1844 154.092 89.3843 162.452 87.5843C170.212 85.914 177.98 84.2436 185.74 82.5732C192.302 81.1622 198.864 79.7512 205.417 78.3325C210.133 77.3181 214.849 76.3037 219.565 75.2816C221.797 74.8011 224.053 74.374 226.269 73.8401C226.364 73.8172 226.458 73.802 226.561 73.7791C224.897 72.5511 223.233 71.3307 221.569 70.1028C221.364 75.8384 221.151 81.5741 220.946 87.3097C220.914 88.1182 220.89 88.9191 220.859 89.7276L223.753 86.0513C223.469 86.1046 223.177 86.1504 222.894 86.2038C221.916 86.3792 223.785 86.1275 222.791 86.219C222.215 86.2724 221.632 86.3258 221.056 86.3487C219.944 86.3945 218.832 86.3563 217.72 86.2572C217.594 86.2496 216.6 86.1352 217.231 86.2114C217.862 86.2877 216.876 86.1504 216.75 86.1275C216.222 86.036 215.701 85.9368 215.181 85.8148C214.045 85.5555 212.933 85.2199 211.845 84.8233C211.624 84.747 210.764 84.4724 211.711 84.7851C211.442 84.6936 211.174 84.5563 210.914 84.4419C210.433 84.2207 209.96 83.9919 209.487 83.7402C208.509 83.2216 207.562 82.6495 206.663 82.0165C206.506 81.9097 206.348 81.7953 206.198 81.6809L206.537 81.9326C206.537 81.9326 205.898 81.4292 205.867 81.3987C205.425 81.0325 204.999 80.6512 204.581 80.2622C204.163 79.8732 203.769 79.4613 203.382 79.0418C203.225 78.8664 203.067 78.691 202.909 78.5079C202.255 77.7452 203.193 78.8969 202.72 78.2791C201.742 77.013 200.504 76.235 198.793 76.4562C197.081 76.6774 196.135 77.7376 195.512 79.1868C195.922 78.241 195.283 79.6825 195.196 79.8656C195.031 80.2164 194.857 80.5673 194.684 80.9181C194.25 81.7876 193.777 82.6495 193.288 83.4885C192.838 84.2436 192.373 84.9911 191.876 85.7233C191.655 86.0436 191.435 86.3716 191.206 86.6843C191.064 86.8826 190.914 87.0809 190.772 87.2716C190.709 87.3631 190.117 88.1411 190.457 87.6987C190.827 87.2182 190.236 87.9733 190.212 87.9962C190.086 88.1487 189.96 88.2936 189.834 88.4462C189.55 88.7818 189.258 89.1021 188.958 89.4301C188.327 90.1089 187.673 90.7572 186.994 91.3827C186.371 91.9471 185.709 92.6183 184.983 93.0606C185.859 92.5267 184.542 93.3657 184.368 93.4801C183.966 93.7471 183.556 94.0064 183.138 94.2581C182.389 94.7081 181.616 95.12 180.819 95.4937C180.646 95.5776 180.464 95.6539 180.283 95.7378C179.416 96.1497 180.843 95.5395 180.275 95.753C179.81 95.9285 179.352 96.1039 178.871 96.2488C178.162 96.47 177.444 96.6607 176.718 96.8056C176.332 96.8819 175.946 96.9505 175.551 97.0115C174.786 97.1336 175.811 96.9658 175.811 96.981C175.811 96.981 175.125 97.0497 175.023 97.0573C174.234 97.1183 173.438 97.1412 172.649 97.1259C172.207 97.1183 171.766 97.0954 171.332 97.0573C171.158 97.042 170.985 97.0268 170.804 97.0115C169.873 96.9353 171.726 97.1641 170.804 97.0115C170.023 96.8895 169.258 96.7446 168.493 96.5463C168.201 96.47 166.064 96.0124 166.024 95.753C166.024 95.753 166.939 96.1573 166.253 95.8446C166.024 95.7378 165.788 95.6386 165.559 95.5242C165.181 95.3412 164.802 95.1429 164.431 94.9293C164.061 94.7158 163.706 94.4946 163.359 94.2657C163.185 94.1513 163.02 94.014 162.838 93.9073C162.546 93.7242 163.493 94.4641 162.838 93.892C162.184 93.32 161.529 92.7327 160.953 92.0691C160.953 92.0691 160.63 91.7335 160.63 91.6878C160.985 92.1378 161.032 92.1911 160.788 91.8632L160.638 91.6572C160.346 91.2454 160.078 90.8106 159.826 90.3759C158.162 87.4699 153.524 88.1869 152.617 91.2835C152.42 91.9547 152.247 93.053 151.805 93.6098C152.294 92.992 151.963 93.2666 151.813 93.5717C151.718 93.7776 151.616 93.9835 151.513 94.1895C151.308 94.5937 151.087 94.998 150.859 95.3869C150.449 96.0963 149.991 96.7827 149.502 97.4463C149.368 97.6293 149.226 97.8124 149.084 97.9955C148.737 98.4607 149.699 97.2937 149.092 97.9726C148.785 98.3158 148.493 98.6666 148.177 99.0099C147.609 99.62 147.01 100.2 146.387 100.749C146.072 101.023 145.756 101.298 145.425 101.557C145.251 101.695 145.07 101.878 144.873 101.992C145.409 101.695 145.141 101.794 144.77 102.061C143.311 103.083 141.758 103.975 140.125 104.715C139.952 104.791 139.778 104.868 139.605 104.944C138.958 105.234 139.668 104.936 139.762 104.883C139.376 105.096 138.856 105.226 138.438 105.371C137.586 105.661 136.726 105.912 135.851 106.118C134.975 106.324 134.068 106.53 133.169 106.622C133.303 106.607 134.021 106.53 133.272 106.599C133.059 106.622 132.846 106.637 132.641 106.66C132.057 106.706 131.482 106.736 130.898 106.751C129.944 106.774 128.997 106.751 128.043 106.698C127.57 106.668 127.097 106.622 126.624 106.576C125.874 106.507 126.592 106.584 126.726 106.599C126.411 106.568 126.095 106.507 125.788 106.454C123.8 106.126 121.844 105.615 119.944 104.959C119.691 104.875 119.447 104.784 119.195 104.692C119.092 104.654 118.13 104.28 118.627 104.479C119.195 104.707 118.225 104.303 118.217 104.303C117.925 104.173 117.633 104.044 117.349 103.907C116.387 103.457 115.449 102.968 114.526 102.434C113.516 101.855 112.531 101.229 111.584 100.558C111.411 100.436 111.237 100.314 111.072 100.192C111.789 100.711 111.016 100.146 110.859 100.024C110.362 99.6353 109.881 99.231 109.4 98.8192C106.766 96.5463 102.909 98.1709 102.665 101.519C102.641 101.794 102.625 102.068 102.594 102.343C102.578 102.503 102.578 102.724 102.531 102.884C102.531 102.884 102.657 102.114 102.57 102.549C102.444 103.174 102.333 103.807 102.176 104.425C102.026 104.997 101.86 105.569 101.671 106.134C101.584 106.393 101.49 106.652 101.395 106.912C101.348 107.041 101.292 107.171 101.245 107.293C101.087 107.682 100.843 107.712 101.269 107.27C100.945 107.613 100.764 108.338 100.543 108.757C100.243 109.329 99.9122 109.886 99.5652 110.428C99.2419 110.931 98.9028 111.427 98.54 111.915C98.4533 112.029 97.9091 112.701 98.2561 112.296C98.6031 111.892 98.2088 112.35 98.122 112.449C98.0037 112.594 97.8775 112.731 97.7592 112.868C96.9312 113.807 96.0242 114.684 95.0621 115.492C94.8491 115.675 94.6283 115.843 94.4075 116.019C93.8318 116.484 94.9201 115.668 94.3129 116.095C93.7766 116.469 93.2324 116.835 92.6725 117.17C92.152 117.483 91.6157 117.78 91.0715 118.047C90.7797 118.192 90.48 118.337 90.1804 118.474C90.0542 118.535 89.9201 118.589 89.7939 118.642C89.305 118.871 90.4643 118.391 89.9517 118.581C88.9895 118.932 88.051 119.26 87.0494 119.458C86.4028 119.588 87.0573 119.413 87.3886 119.42C87.2072 119.42 87.0179 119.458 86.8365 119.474C86.387 119.504 85.9375 119.519 85.4958 119.512C85.0542 119.504 84.6204 119.481 84.1867 119.451C83.9422 119.428 83.6977 119.405 83.4532 119.382C82.8144 119.321 84.4075 119.535 83.54 119.382C81.4422 119.031 79.3996 118.505 77.3885 117.834C76.9075 117.674 76.4343 117.506 75.9611 117.33C75.6851 117.224 75.4011 117.124 75.1251 117.018C74.9674 116.957 74.092 116.583 74.6362 116.827C75.1803 117.071 74.3207 116.69 74.1472 116.621C73.9106 116.522 73.6661 116.415 73.4295 116.308C72.8696 116.057 72.3176 115.805 71.7655 115.538C69.6835 114.546 67.6567 113.448 65.685 112.258C64.6204 111.61 63.5636 110.939 62.5384 110.229C62.0494 109.894 61.5604 109.543 61.0794 109.192C60.9847 109.124 60.6377 108.879 61.103 109.215C61.6314 109.589 61.0715 109.185 60.9532 109.101C60.7481 108.94 60.5431 108.78 60.338 108.612C58.7923 107.377 57.3017 106.042 56.0478 104.517C54.7939 102.991 51.797 103.113 50.4721 104.517C48.8948 106.179 49.0919 108.239 50.4721 109.909L50.5036 109.894Z" fill="#F2CFFF"/>
<path d="M74.2536 161.652C74.4981 161.179 74.7663 160.714 75.0581 160.272C75.2473 159.982 75.5312 159.402 75.823 159.196L75.5391 159.555C75.6495 159.418 75.7678 159.288 75.8782 159.158C76.0202 158.99 76.17 158.83 76.3199 158.678C76.7142 158.266 77.1243 157.869 77.5581 157.496C77.7237 157.351 77.8972 157.213 78.0628 157.068C78.2915 156.878 78.5833 156.458 77.9997 157.099C78.3309 156.74 78.9145 156.458 79.3325 156.207C80.1764 155.68 81.0596 155.215 81.9666 154.803C82.1953 154.696 82.4713 154.529 82.7237 154.475C81.7458 154.704 82.566 154.544 82.8104 154.452C83.2442 154.292 83.6858 154.14 84.1275 153.995C85.2 153.651 86.2884 153.369 87.3846 153.14C87.842 153.041 88.3073 152.957 88.7726 152.881C89.0486 152.835 89.3325 152.797 89.6086 152.751C90.3341 152.637 89.4824 152.751 89.3956 152.774C89.8688 152.599 90.5707 152.652 91.0754 152.614C91.6354 152.576 92.1874 152.545 92.7474 152.523C103.749 152.187 114.506 155.589 125.531 154.269C136.076 153.011 145.823 148.9 153.93 142.249C155.784 140.731 157.55 139.122 159.435 137.634C159.64 137.474 159.845 137.322 160.05 137.161C160.539 136.78 159.293 137.68 160.121 137.116C160.626 136.765 161.131 136.414 161.651 136.086C162.582 135.506 163.583 134.881 164.632 134.522C163.694 134.85 164.688 134.522 164.837 134.469C165.129 134.37 165.429 134.278 165.729 134.194C166.304 134.034 166.888 133.927 167.471 133.813C168.591 133.592 166.683 133.844 167.826 133.767C168.063 133.752 168.3 133.729 168.528 133.714C169.356 133.668 170.184 133.668 171.012 133.706C172.211 133.752 173.402 133.874 174.593 134.027C173.694 133.912 174.885 134.072 174.987 134.088C175.35 134.141 175.713 134.194 176.068 134.248C176.793 134.355 177.511 134.461 178.236 134.568C181.304 135.003 184.372 135.377 187.479 135.216C190.366 135.064 193.268 134.606 196.036 133.798C201.683 132.158 206.88 129.221 211.107 125.255C212.59 123.86 212.661 121.243 211.107 119.863C209.554 118.482 207.109 118.376 205.531 119.863C204.696 120.649 203.82 121.404 202.897 122.098C203.647 121.533 202.795 122.159 202.677 122.243C202.416 122.426 202.156 122.601 201.896 122.769C201.367 123.112 200.831 123.44 200.279 123.753C199.278 124.325 198.237 124.851 197.172 125.316C196.975 125.4 196.785 125.484 196.588 125.568C197.479 125.194 196.494 125.599 196.352 125.652C195.76 125.873 195.153 126.079 194.546 126.27C193.434 126.613 192.306 126.903 191.162 127.132C190.555 127.254 189.901 127.421 189.278 127.452C189.412 127.452 190.137 127.36 189.38 127.437C188.954 127.482 188.536 127.521 188.11 127.551C186.943 127.635 185.776 127.658 184.609 127.62C184.033 127.597 183.465 127.559 182.889 127.513C182.527 127.482 182.164 127.444 181.809 127.406C181.565 127.383 181.328 127.353 181.083 127.322C180.666 127.269 180.602 127.261 180.886 127.299C181.47 127.376 180.287 127.216 180.326 127.216C179.964 127.162 179.601 127.109 179.246 127.055C178.647 126.964 178.039 126.872 177.44 126.788C175.776 126.552 174.112 126.316 172.44 126.178C169.561 125.942 166.596 126.056 163.804 126.804C158.749 128.146 154.703 131.464 150.855 134.751C150.027 135.461 149.199 136.177 148.347 136.864C147.858 137.268 147.361 137.657 146.864 138.039C146.281 138.489 146.762 138.115 146.88 138.031C146.525 138.283 146.17 138.542 145.815 138.786C143.796 140.182 141.659 141.417 139.443 142.493C138.899 142.76 138.355 143.011 137.803 143.256C137.503 143.385 137.195 143.515 136.896 143.645C137.613 143.332 137.077 143.576 136.919 143.629C135.689 144.102 134.451 144.552 133.189 144.934C130.768 145.673 128.292 146.238 125.784 146.604C125.563 146.634 125.35 146.673 125.129 146.695C126.123 146.581 125.019 146.695 124.861 146.718C124.317 146.779 123.765 146.825 123.213 146.863C121.848 146.962 120.476 147 119.104 146.985C116.21 146.955 113.331 146.695 110.46 146.367C104.845 145.727 99.23 144.819 93.5597 144.873C83.5675 144.972 72.2268 148.656 67.424 157.808C66.4934 159.585 66.8798 162.026 68.8356 163.025C70.6338 163.941 73.2363 163.559 74.23 161.66L74.2536 161.652Z" fill="#D19F5C"/>
</svg>
