<svg width="200" height="268" viewBox="0 0 200 268" fill="none" xmlns="http://www.w3.org/2000/svg">
<path d="M88.8647 93.2464C91.5465 87.0385 91.5921 70.1017 89.7039 63.5546C87.8065 57.0074 84.9331 50.7996 83.5922 44.0827C82.16 36.9068 82.5432 29.4514 83.4097 22.1757C83.9388 17.7444 84.7416 13.1035 87.3595 9.6702C91.9935 3.59211 101.243 3.652 106.944 8.52245C112.646 13.3929 115.09 21.7565 114.953 29.671L117.809 46.4082C117.672 47.4262 117.526 48.4442 117.389 49.4622C114.771 39.0326 114.589 27.645 118.219 17.5747C119.177 14.9299 120.427 12.325 122.388 10.4686C124.349 8.61227 127.14 7.59427 129.621 8.45259C131.574 9.13125 133.079 10.8479 134.255 12.6843C138.096 18.6725 139.218 26.6469 137.193 33.6133L129.029 69.3931C128.819 70.2215 128.6 71.0598 128.39 71.8882C132.176 58.255 135.961 44.6117 139.747 30.9784C142.429 21.3074 146.26 10.299 155.053 7.17509C161.913 4.73986 169.302 8.17313 175.523 12.1553C178.46 14.0416 181.407 16.1375 183.368 19.1915C185.466 22.4651 186.241 26.5671 186.26 30.5592C186.296 42.1765 179.765 53.5242 170.168 58.4945L155.993 63.6244C162.278 56.7479 173.033 55.4704 180.522 60.6902C186.807 65.0716 190.428 74.4732 187.208 81.8287C184.654 87.6673 178.853 90.7612 173.471 93.416C166.985 96.6197 160.335 99.8734 153.238 100.412C149.954 100.662 146.661 100.312 143.368 100.452C137.065 100.712 124.303 109.195 118.94 112.808L88.8738 93.2264L88.8647 93.2464Z" fill="#238336"/>
<path d="M84.9264 90.7219C85.2548 89.9434 84.5159 91.9894 84.7622 91.1511C84.826 90.9415 84.9081 90.7319 84.972 90.5223C85.1179 90.0632 85.2365 89.5941 85.346 89.1251C85.6014 88.0571 85.793 86.9693 85.948 85.8714C85.9937 85.5321 86.0484 84.4842 85.948 86.0012C85.9663 85.6918 86.021 85.3824 86.0484 85.073C86.1031 84.544 86.1487 84.0151 86.1943 83.4861C86.3129 82.0589 86.3859 80.6217 86.4224 79.1845C86.4862 76.6595 86.4498 74.1245 86.2947 71.6094C86.2582 71.0006 86.2126 70.3818 86.1578 69.773C86.1305 69.4836 86.1031 69.1842 86.0757 68.8947C86.0575 68.735 85.9389 67.7669 86.0575 68.7051C86.1761 69.6432 86.0575 68.7051 86.0301 68.5454C85.9937 68.2859 85.9572 68.0264 85.9116 67.7669C85.8203 67.208 85.72 66.6491 85.6014 66.1002C84.9629 63.1759 83.8591 60.3415 82.8648 57.547C81.6516 54.1337 80.4293 50.7203 79.5809 47.1773C77.7657 39.6321 77.8204 31.7675 78.6323 24.0626C79.3711 17.1162 80.3837 9.31153 85.6014 4.52092C90.2445 0.269254 96.4839 -0.888476 102.313 0.648511C108.142 2.1855 113.013 6.78648 115.859 12.5252C117.245 15.3297 118.267 18.4037 118.823 21.5276C119.143 23.334 119.362 25.1704 119.462 27.0068C119.499 27.6256 119.553 28.2744 119.517 28.9031C119.444 30.1806 119.252 27.7454 119.38 28.4939C119.936 31.8374 120.52 35.1808 121.095 38.5143L121.98 43.7141C122.053 44.1233 122.126 44.5425 122.189 44.9517C122.5 46.8879 122.053 48.844 121.788 50.7802C121.505 52.8362 119.207 54.5329 117.391 54.443C115.385 54.3432 113.533 52.9659 112.995 50.7802C109.911 38.2947 109.775 23.7333 115.53 12.0861C118.532 6.01798 125.081 1.13755 131.512 3.91211C137.222 6.38726 140.716 13.4135 142.021 19.6812C143.106 24.871 142.832 29.961 141.564 35.061C141.2 36.5481 140.88 38.0552 140.543 39.5522C139.12 45.8 137.697 52.0477 136.265 58.2955C135.134 63.2658 134.066 68.2659 132.789 73.1963L123.996 70.5415C126.148 62.7767 128.31 55.002 130.463 47.2372C132.433 40.1511 134.258 32.9851 136.42 25.9689C138.235 20.0505 140.525 14.2918 144.219 9.46123C148.196 4.27141 154.153 1.17747 160.365 1.35712C167.325 1.55673 174.002 5.0898 179.776 9.1219C182.786 11.2278 185.532 13.7029 187.521 16.9965C189.509 20.29 190.367 24.1924 190.713 28.0548C191.872 41.1092 185.14 54.3632 175.115 61.1998C172.123 63.2358 168.784 64.2239 165.473 65.4215C162.718 66.4196 159.963 67.4176 157.209 68.4157C152.821 70.0025 149.61 63.4654 152.775 60.072C159.462 52.8961 170.134 50.4209 178.873 54.2335C188.041 58.2855 194.38 68.6751 192.62 79.6337C190.841 90.7319 180.314 95.6323 171.931 99.6145C166.54 102.169 161.158 104.355 155.302 105.184C152.52 105.583 149.747 105.503 146.946 105.443C145.66 105.413 144.356 105.363 143.07 105.473C142.905 105.483 142.732 105.533 142.568 105.523C142.595 105.523 143.827 105.263 143.143 105.443C142.769 105.543 142.395 105.603 142.021 105.703C141.099 105.952 140.196 106.271 139.311 106.621C138.864 106.79 138.427 106.98 137.989 107.17L137.724 107.289C137.359 107.449 137.359 107.449 137.724 107.289C137.967 107.176 137.967 107.176 137.724 107.289C137.542 107.379 137.359 107.469 137.177 107.549C135.17 108.517 133.218 109.605 131.284 110.733C127.863 112.729 124.543 114.905 121.241 117.12C119.863 118.038 118.012 118.018 116.634 117.12C107.859 111.411 99.0927 105.693 90.3174 99.9838C89.0677 99.1654 87.818 98.357 86.5683 97.5386C84.5159 96.2012 83.5855 92.9875 84.9355 90.7119C86.2856 88.4364 88.9856 87.4883 91.1749 88.9254C99.9502 94.6343 108.716 100.353 117.492 106.062C118.741 106.88 119.991 107.689 121.241 108.507H116.634C122.646 104.465 128.757 100.573 135.307 97.6683C138.755 96.1413 142.112 95.4027 145.843 95.4427C148.515 95.4726 151.197 95.6423 153.87 95.3828C154.144 95.3528 154.426 95.3129 154.7 95.293C155.43 95.2231 154.007 95.4327 154.727 95.293C155.339 95.1632 155.959 95.0634 156.57 94.9237C157.792 94.6442 159.006 94.3049 160.201 93.9057C161.396 93.5065 162.454 93.1072 163.567 92.6581C164.159 92.4186 164.743 92.1691 165.327 91.9196C165.592 91.8098 165.847 91.69 166.102 91.5703C166.157 91.5403 167.416 90.9615 166.568 91.3607C168.684 90.3626 170.8 89.3346 172.898 88.2667C174.732 87.3286 176.547 86.3305 178.253 85.1429C178.691 84.8435 179.11 84.5241 179.53 84.2047C179.767 84.0151 180.433 83.6558 179.557 84.2047C179.731 84.0949 179.931 83.8654 180.077 83.7356C180.643 83.2067 181.947 82.1986 182.194 81.4002C181.993 82.0589 181.847 81.9292 182.093 81.5399C182.221 81.3403 182.349 81.1407 182.467 80.9411C182.741 80.472 182.987 79.993 183.215 79.4939L183.288 79.3243C183.498 78.8252 183.471 78.9051 183.197 79.5738C183.252 79.5438 183.407 78.945 183.407 78.935C183.571 78.3961 183.68 77.8571 183.79 77.3082C183.863 76.9489 183.772 76.5198 183.772 77.6376C183.772 77.418 183.817 77.1885 183.826 76.9689C183.854 76.5198 183.863 76.0707 183.854 75.6315C183.854 75.3521 183.836 75.0726 183.817 74.7932V74.6235C183.763 74.1744 183.763 74.1744 183.817 74.6235L183.863 74.9528C183.836 74.7333 183.799 74.5037 183.763 74.2842C183.717 74.0047 183.662 73.7252 183.598 73.4558C183.489 72.9568 183.361 72.4677 183.206 71.9787C183.142 71.7591 183.06 71.5495 182.996 71.3299C182.723 70.4816 183.024 71.4797 183.097 71.5695C182.85 71.29 182.714 70.6712 182.54 70.3219C182.294 69.8129 182.02 69.3139 181.728 68.8249C181.582 68.5853 181.418 68.3558 181.281 68.1063C180.944 67.5374 181.82 68.8049 181.418 68.2859C181.108 67.8867 180.807 67.4875 180.479 67.1082C180.187 66.7689 179.886 66.4495 179.576 66.1301C179.42 65.9704 179.256 65.8307 179.101 65.671C178.308 64.8826 179.904 66.2699 179.028 65.6012C178.153 64.9325 177.222 64.3536 176.264 63.8247C175.535 63.4254 176.337 63.8845 176.465 63.9045C176.21 63.8746 175.799 63.625 175.562 63.5252C175.051 63.3256 174.54 63.156 174.02 63.0162C173.5 62.8765 172.971 62.7567 172.442 62.647C172.123 62.5771 171.703 62.6769 172.698 62.6669C172.387 62.6669 172.041 62.5871 171.731 62.5571C170.654 62.4673 169.569 62.4673 168.492 62.5571C168.273 62.5771 168.064 62.5971 167.845 62.627C166.896 62.7268 168.784 62.4174 167.772 62.647C167.243 62.7667 166.714 62.8665 166.185 63.0162C165.655 63.1659 165.145 63.3256 164.634 63.5153C164.433 63.5951 164.223 63.665 164.023 63.7548C163.877 63.8147 163.037 64.2438 163.667 63.9045C164.342 63.5352 163.393 64.0542 163.329 64.0941C163.083 64.2239 162.846 64.3536 162.609 64.4933C162.134 64.7728 161.669 65.0722 161.222 65.3916C160.994 65.5513 160.775 65.7309 160.556 65.8906C159.854 66.3996 160.994 65.4614 160.584 65.8607C160.137 66.2898 159.69 66.709 159.261 67.1681L154.828 58.8245C159.462 57.1477 164.077 55.3513 168.748 53.7843C168.821 53.7544 168.894 53.7245 168.976 53.7045C167.671 54.0638 168.356 53.974 168.976 53.6147C170.116 52.956 171.174 52.1875 172.232 51.3791C173.163 50.6704 171.503 52.0677 172.369 51.2693C172.625 51.0297 172.889 50.8002 173.135 50.5607C173.555 50.1614 173.966 49.7522 174.367 49.3231C174.805 48.854 175.234 48.365 175.644 47.8659C175.826 47.6364 176.018 47.4068 176.191 47.1773C176.346 46.9777 177.359 45.7701 176.529 46.7581C177.341 45.8 177.97 44.5225 178.563 43.3947C178.846 42.8657 179.11 42.3268 179.357 41.7779C179.512 41.4485 179.649 41.1192 179.794 40.7898C179.904 40.5403 180.442 39.5622 179.867 40.6401C180.46 39.5423 180.734 38.0552 181.035 36.8276C181.208 36.119 181.354 35.4104 181.473 34.6918C181.509 34.4522 181.546 34.2127 181.592 33.9732C181.664 33.4143 181.664 33.4941 181.573 34.2127C181.601 33.9732 181.628 33.7237 181.646 33.4841C181.774 32.0969 181.81 30.7096 181.747 29.3123C181.728 28.983 181.61 26.8971 181.692 28.1546C181.637 27.2763 181.4 26.3581 181.181 25.5198C181.099 25.1904 181.008 24.861 180.898 24.5317C180.844 24.352 180.342 23.1145 180.807 24.1924C180.542 23.5736 180.26 22.9648 179.922 22.3759C179.722 22.0266 179.512 21.6873 179.284 21.3479C179.922 22.2761 179.147 21.2182 179.037 21.0884C178.527 20.4796 177.979 19.9207 177.405 19.3818C177.286 19.272 176.283 18.4636 177.14 19.1323C176.885 18.9327 176.629 18.7231 176.365 18.5334C175.79 18.1043 175.206 17.6851 174.604 17.2859C173.272 16.3877 171.904 15.5393 170.517 14.7409C169.925 14.4015 169.323 14.0722 168.72 13.7628C168.356 13.5732 167.991 13.3935 167.617 13.2239C168.392 13.6031 167.754 13.2837 167.598 13.2239C166.112 12.6151 164.616 12.0462 163.065 11.6769C162.682 11.5871 162.299 11.5172 161.916 11.4374C160.675 11.1779 162.855 11.4573 161.596 11.3974C160.958 11.3675 160.319 11.3076 159.681 11.3176C159.298 11.3176 158.914 11.3575 158.531 11.3775C157.637 11.4374 158.449 11.3475 158.604 11.3475C157.783 11.3475 156.807 11.7567 156.041 12.0561C156.023 12.0561 155.494 12.2258 155.457 12.2957L155.977 12.0561C155.795 12.146 155.603 12.2458 155.421 12.3356C154.873 12.625 154.353 12.9544 153.843 13.3137C153.678 13.4334 153.514 13.5632 153.341 13.683C152.465 14.2918 154.098 12.9544 153.304 13.6929C152.848 14.1221 152.392 14.5513 151.963 15.0203C151.535 15.4894 151.124 15.9785 150.732 16.4974C150.659 16.5972 150.395 16.8767 150.34 17.0164L150.677 16.5374C150.55 16.717 150.431 16.8967 150.312 17.0863C149.583 18.2141 148.926 19.3918 148.324 20.6094C147.758 21.7571 147.257 22.9248 146.782 24.1125C146.445 24.9409 146.8 24.0227 146.864 23.9029C146.709 24.1924 146.609 24.5816 146.499 24.901C146.262 25.5697 146.034 26.2383 145.815 26.907C143.453 34.1229 141.628 41.5783 139.594 48.9139C137.35 56.998 135.106 65.0822 132.862 73.1763C132.169 75.6714 129.642 77.5078 127.252 76.6595C124.862 75.8112 123.375 73.2162 124.069 70.5215C126.595 60.7207 128.648 50.7603 130.901 40.8896C131.758 37.137 132.844 33.3444 133.492 29.5518C133.528 29.3123 133.838 28.0548 133.546 29.3023C133.601 29.0628 133.601 28.7434 133.619 28.5139C133.674 27.8552 133.692 27.1865 133.701 26.5278C133.701 25.9289 133.683 25.3301 133.647 24.7313C133.628 24.4219 133.647 24.0327 133.565 23.7432C133.893 24.901 133.565 23.7632 133.519 23.4937C133.327 22.316 133.054 21.1583 132.707 20.0205C132.588 19.6413 132.461 19.272 132.333 18.8927C132.251 18.6532 131.95 18.0843 132.37 18.9826C132.069 18.3338 131.795 17.6652 131.466 17.0264C131.193 16.5074 130.91 15.9984 130.6 15.4994C130.6 15.4894 129.898 14.4315 130.317 15.0403C130.737 15.6491 129.989 14.6311 129.98 14.6211C129.815 14.4215 129.651 14.2319 129.478 14.0423C129.323 13.8826 128.411 13.134 129.305 13.8027C129.104 13.653 128.903 13.5233 128.703 13.3736C127.882 12.7648 129.451 13.5133 128.484 13.2338C128.42 13.2139 127.307 12.9743 128.064 13.0841C128.821 13.1939 127.69 13.1041 127.626 13.1041C126.705 13.0542 127.736 13.0342 127.79 13.0442C127.571 12.9843 127.143 13.2039 126.933 13.2738L126.76 13.3336C126.276 13.5233 126.313 13.5033 126.851 13.2638C126.75 13.2438 126.34 13.5532 126.212 13.6231C125.948 13.7828 125.711 13.9724 125.455 14.152C125.191 14.3616 125.264 14.3017 125.674 13.9724C125.492 14.152 125.309 14.3317 125.136 14.5213C124.963 14.7109 124.798 14.9106 124.634 15.1102C123.932 15.9186 124.944 14.5113 124.433 15.3697C124.032 16.0583 123.631 16.737 123.284 17.4655C123.166 17.7051 123.056 17.9546 122.956 18.1941C122.792 18.5734 122.518 19.3019 122.819 18.4935C122.518 19.3019 122.244 20.1303 121.989 20.9587C121.524 22.4957 121.131 24.0726 120.83 25.6595C120.693 26.3781 120.566 27.1066 120.465 27.8352C120.465 27.8153 120.292 29.2524 120.374 28.4839C120.42 28.1147 120.411 28.1845 120.356 28.7035C120.329 28.9929 120.301 29.2924 120.274 29.5818C120.009 32.7556 120.028 35.9593 120.292 39.1331C120.319 39.5023 120.356 39.8716 120.392 40.2409C120.402 40.3607 120.593 41.8278 120.438 40.69C120.548 41.4984 120.666 42.3068 120.803 43.1153C121.086 44.792 121.441 46.4587 121.852 48.1055H113.058C113.195 47.0875 113.341 46.0695 113.478 45.0515V47.7063C112.566 42.3867 111.663 37.0671 110.751 31.7575C110.459 30.0509 110.495 28.3442 110.377 26.6176C110.349 26.2683 110.249 24.2622 110.313 25.6695C110.285 25.0507 110.13 24.4019 110.012 23.7931C109.729 22.3061 109.346 20.8489 108.853 19.4317L108.726 19.0824C108.534 18.5634 108.552 18.6133 108.789 19.2321C108.808 19.1922 108.543 18.6532 108.497 18.5534C108.196 17.8847 107.877 17.226 107.521 16.5873C107.23 16.0583 106.901 15.5493 106.582 15.0403C105.934 14.0123 107.22 15.8188 106.463 14.8806C106.235 14.6012 106.016 14.3217 105.788 14.0423C105.323 13.4933 104.812 13.0043 104.301 12.4953C104.037 12.2258 103.964 11.9064 104.447 12.6051C104.292 12.3855 103.918 12.1859 103.708 12.0362C103.289 11.7368 102.851 11.4573 102.404 11.2078C102.285 11.1379 101.711 10.7287 101.583 10.7787C102.212 11.0581 102.295 11.108 101.829 10.9084C101.638 10.8286 101.446 10.7587 101.255 10.6888C100.771 10.5092 100.288 10.3595 99.7951 10.2397C99.4941 10.1599 99.2022 10.11 98.9012 10.0401C98.2079 9.88041 99.1384 10.2197 99.2113 10.07C99.2661 9.95027 95.6538 10.11 95.599 10.0501C95.8362 10.2896 96.6298 9.83051 95.7815 10.0501C95.5443 10.11 95.298 10.1499 95.0609 10.2197C94.5409 10.3595 94.0301 10.6289 93.5101 10.7387C92.9081 10.8685 94.5135 10.1798 93.6561 10.6689C93.3915 10.8186 93.1361 10.9483 92.8716 11.108C92.6618 11.2378 92.452 11.3775 92.2422 11.5172C92.1145 11.607 91.9959 11.6869 91.8773 11.7867C91.4851 12.0961 91.558 12.0362 92.0962 11.5871C92.0141 11.5172 91.0198 12.7049 90.9195 12.8147C90.7462 12.9943 90.3448 13.6231 90.883 12.8147C90.6641 13.144 90.4634 13.4734 90.2718 13.8127C89.9526 14.3816 89.6789 14.9804 89.4235 15.5892C89.8978 14.4914 89.3961 15.699 89.3414 15.8986C89.2137 16.2779 89.1042 16.6671 89.0039 17.0563C88.6116 18.5035 88.3471 19.9806 88.1282 21.4677C88.0735 21.8669 88.0005 22.2761 87.964 22.6853C88.0643 21.5575 88.0005 22.4059 87.964 22.6454C87.8454 23.7532 87.7177 24.871 87.6174 25.9789C87.3072 29.472 87.1521 32.9951 87.3072 36.5082C87.3437 37.3066 87.3984 38.0951 87.4623 38.8935C87.5079 39.3726 87.5535 39.8417 87.6082 40.3207C87.4805 39.2329 87.6903 40.7898 87.6995 40.8796C87.964 42.5564 88.3197 44.2231 88.7576 45.8499C89.6333 49.1434 90.8009 52.3372 91.932 55.5409C92.8716 58.1957 93.9115 60.8904 94.4953 63.6749C95.5899 68.9147 95.745 74.5037 95.5626 79.8632C95.3801 85.2227 94.9149 90.8217 92.8442 95.7521C91.8408 98.1274 88.5387 98.9059 86.6048 97.5386C84.3608 95.9617 83.8956 93.257 84.972 90.7119L84.9264 90.7219Z" fill="#238336"/>
<path d="M36.041 249.273C61.4182 219.561 81.003 191.496 103.452 159.079C109.427 150.446 115.548 140.985 115.849 130.156C116.177 118.419 108.852 107.121 98.8728 102.79C88.8934 98.4583 76.9346 100.903 68.5333 108.219C62.0932 113.818 57.7785 121.793 54.0568 129.817C47.7353 143.42 42.6817 157.682 37.838 171.994C29.0627 197.903 20.9168 224.062 13.4094 250.44C12.1506 254.852 11.7949 261.209 15.845 262.507C17.3227 262.976 18.91 262.487 20.3603 261.888C25.2223 259.872 26.4994 259.852 30.057 255.71L36.041 249.263V249.273Z" fill="#EC7017"/>
<path d="M32.8079 245.75C41.9298 235.061 50.7325 224.072 59.2706 212.824C63.4119 207.365 67.4986 201.856 71.5305 196.297C73.5555 193.512 75.5624 190.718 77.5692 187.913C78.5726 186.506 79.576 185.089 80.5794 183.681C81.0811 182.973 81.5828 182.264 82.0845 181.556C81.4916 182.394 82.3217 181.216 82.3764 181.136C82.6319 180.777 82.8781 180.418 83.1336 180.069C87.2293 174.26 91.2886 168.421 95.3478 162.573C99.2429 156.954 103.339 151.425 106.613 145.337C107.398 143.88 108.128 142.382 108.794 140.855C108.958 140.476 109.113 140.097 109.268 139.708C108.83 140.786 109.332 139.518 109.396 139.358C109.669 138.58 109.925 137.801 110.153 137.003C110.591 135.486 111.111 133.759 111.184 132.162C111.129 133.42 111.184 132.043 111.202 131.833C111.238 131.414 111.266 130.995 111.284 130.576C111.311 129.837 111.32 129.089 111.284 128.34C111.266 127.981 111.247 127.621 111.22 127.262C111.202 126.973 111.184 125.755 111.238 127.152C111.211 126.454 111.019 125.705 110.882 125.026C110.591 123.619 110.171 122.262 109.715 120.905C109.323 119.747 110.153 121.883 109.66 120.765C109.514 120.435 109.377 120.106 109.231 119.787C108.94 119.138 108.62 118.509 108.283 117.88C107.945 117.252 107.58 116.643 107.206 116.054C107.024 115.775 106.851 115.415 106.623 115.176C107.416 116.034 106.696 115.286 106.513 115.046C105.665 113.928 104.743 112.87 103.767 111.892C103.284 111.413 102.791 110.874 102.244 110.485C103.229 111.204 102.28 110.535 102.107 110.395C101.834 110.186 101.56 109.976 101.286 109.776C100.173 108.978 99.0057 108.309 97.8107 107.671C96.7982 107.122 98.7412 108.03 97.683 107.601C97.3547 107.471 97.0263 107.321 96.6887 107.191C96.0228 106.932 95.3478 106.712 94.6728 106.513C93.9978 106.313 93.3045 106.144 92.6112 106.004C92.2829 105.934 91.8997 105.814 91.5713 105.814C92.7663 105.814 91.6443 105.834 91.3889 105.804C89.9841 105.654 88.5794 105.605 87.1655 105.664C86.4631 105.694 85.7607 105.774 85.0583 105.834C83.8633 105.944 86.0526 105.635 84.8667 105.854C84.5201 105.924 84.1643 105.974 83.8177 106.054C82.4221 106.343 81.0538 106.722 79.7037 107.201C79.0287 107.441 78.3719 107.72 77.706 108C76.5931 108.469 78.5635 107.541 77.4871 108.11C77.1678 108.279 76.8394 108.439 76.5293 108.609C75.2613 109.297 74.0299 110.066 72.8531 110.934C72.5612 111.154 72.2693 111.373 71.9774 111.603C71.8224 111.723 70.8281 112.421 71.7768 111.762C71.1565 112.202 70.5909 112.83 70.0436 113.369C68.9307 114.477 67.8726 115.665 66.8783 116.912C66.3766 117.531 65.9022 118.18 65.4279 118.819C66.0938 117.91 65.3093 118.998 65.2181 119.128C64.99 119.457 64.7711 119.797 64.5522 120.136C63.6673 121.493 62.8373 122.891 62.0436 124.318C60.4382 127.202 58.9878 130.186 57.6013 133.21C56.0323 136.614 54.5454 140.067 53.1133 143.54C52.4018 145.277 51.6994 147.023 51.0152 148.78C50.997 148.84 50.4314 150.277 50.7963 149.339C50.623 149.778 50.4588 150.217 50.2946 150.656C49.9571 151.535 49.6287 152.423 49.3003 153.301C46.655 160.377 44.192 167.533 41.7747 174.709C36.8033 189.43 32.0325 204.231 27.4715 219.112C25.191 226.547 22.9562 234.013 20.776 241.488C19.727 245.101 18.5959 248.704 17.6563 252.347C17.5013 252.946 17.3735 253.554 17.2641 254.163C17.1637 254.722 17.3644 255.231 17.2458 254.093C17.2732 254.373 17.182 254.752 17.1637 255.042C17.1272 255.66 17.109 256.289 17.1455 256.908C17.182 257.637 17.5013 257.617 17.0999 256.768C17.2093 256.998 17.2002 257.347 17.2641 257.607C17.4191 258.235 17.7293 258.255 17.1455 257.447C17.2732 257.626 17.3918 257.936 17.4921 258.145C17.9117 258.994 16.7715 257.237 17.3735 257.936C17.9756 258.635 16.4431 257.287 17.2093 257.786C17.9756 258.285 16.1512 257.367 17.0634 257.716L17.4374 257.816C16.8536 257.736 16.8262 257.706 17.3644 257.726C16.2242 257.966 17.5104 257.676 17.6746 257.636C18.0577 257.527 18.4226 257.397 18.7966 257.247C20.0098 256.778 21.2139 256.289 22.4088 255.79C22.646 255.69 22.8832 255.59 23.1204 255.491C23.9687 255.131 22.117 256.05 22.9014 255.591C23.3028 255.351 23.7133 255.151 24.1055 254.892C24.3062 254.762 24.4978 254.622 24.6893 254.473C25.2093 254.083 24.9812 253.864 24.5616 254.592C24.8262 254.133 25.5012 253.694 25.8661 253.305C26.313 252.826 26.7327 252.327 27.1796 251.848L30.4818 248.295L32.8352 245.76C34.541 243.923 37.606 243.764 39.2844 245.76C40.9629 247.756 41.0997 250.86 39.2844 252.816C37.3414 254.902 35.3802 256.978 33.4555 259.084C31.9048 260.78 30.3358 262.497 28.402 263.695C26.1397 265.102 23.4852 266.01 21.0314 266.938C16.8718 268.505 12.5663 267.517 9.89355 263.605C8.22424 261.16 7.82287 257.706 8.06916 254.742C8.37019 251.079 9.42834 247.716 10.4318 244.223C11.5538 240.32 12.694 236.428 13.8434 232.546C18.4682 216.916 23.321 201.367 28.3928 185.897C33.4737 170.398 38.6276 154.878 44.7302 139.817C50.1851 126.344 56.2421 111.703 67.5259 102.89C78.0344 94.686 92.9852 93.149 104.342 100.145C109.642 103.409 114.185 108.539 116.976 114.457C120.041 120.974 121.026 128.021 119.941 135.246C118.855 142.472 115.443 149.249 111.667 155.247C107.726 161.515 103.357 167.483 99.1425 173.541C90.6592 185.727 82.121 197.854 73.3275 209.78C64.5339 221.707 55.6857 233.135 46.3904 244.372C44.0461 247.217 41.6744 250.031 39.2844 252.836C37.6516 254.752 34.4589 254.772 32.8352 252.836C31.1203 250.79 31.0929 247.816 32.8352 245.78L32.8079 245.75Z" fill="#EC7017"/>
<path d="M84.4926 141.293C84.3102 140.974 84.1095 140.675 83.9088 140.375L84.6203 141.383C84.0183 140.545 83.3341 139.806 82.577 139.147L83.4983 139.926C82.6409 139.197 81.7104 138.599 80.707 138.129L81.7925 138.629C80.7891 138.169 79.7492 137.85 78.6728 137.68L79.886 137.86C78.8644 137.71 77.8427 137.71 76.8302 137.85C75.7538 138 74.3308 137.181 73.601 136.393C72.8074 135.525 72.2145 134.107 72.2692 132.86C72.324 131.612 72.7071 130.235 73.601 129.327L74.5223 128.548C75.2338 128.099 76.0001 127.87 76.8211 127.87C79.8769 127.44 82.9328 128.289 85.6876 129.696C88.4424 131.103 90.7229 133.489 92.3557 136.243C93.651 138.439 92.8301 141.852 90.7229 143.07C88.4606 144.377 85.87 143.629 84.4835 141.283L84.4926 141.293Z" fill="#AA6E14"/>
<path d="M66.9768 166.214C66.8035 166.045 66.6302 165.885 66.4477 165.725L67.3691 166.504C66.7579 165.985 66.092 165.566 65.3896 165.236L66.4751 165.735C65.7636 165.416 65.0247 165.186 64.2585 165.066L65.4717 165.246C64.7054 165.136 63.9392 165.126 63.173 165.236L64.3862 165.057C64.3132 165.066 64.2311 165.076 64.1581 165.096C63.5561 165.306 62.9449 165.336 62.3429 165.186C61.7317 165.156 61.1661 164.957 60.6462 164.597C59.6975 163.989 58.7944 162.801 58.5481 161.613C58.2836 160.336 58.3383 158.899 59.0042 157.771L59.7158 156.763C60.2813 156.144 60.9563 155.715 61.7317 155.475C62.7807 155.296 63.8297 155.126 64.897 155.206C65.9643 155.286 67.0224 155.445 68.035 155.775C70.0691 156.443 71.857 157.591 73.426 159.158C74.2652 159.996 74.7578 161.464 74.7578 162.691C74.7578 163.919 74.2652 165.376 73.426 166.224C72.5868 167.073 71.4192 167.741 70.1968 167.681C68.9745 167.621 67.8981 167.142 66.9677 166.224L66.9768 166.214Z" fill="#AA6E14"/>
<path d="M47.9451 195.278C47.9451 195.038 47.9451 194.809 47.9177 194.579L48.0819 195.907C48.0363 195.547 47.9451 195.208 47.8174 194.869L48.2735 196.056C48.1275 195.697 47.9542 195.368 47.7353 195.058L48.4468 196.066C48.2005 195.717 47.9086 195.398 47.5893 195.128L48.5106 195.907C48.1914 195.637 47.8356 195.407 47.4616 195.228L48.5471 195.727C48.2005 195.567 47.8356 195.447 47.4616 195.388L48.6748 195.567C48.3191 195.517 47.9724 195.517 47.6258 195.567L48.839 195.388C48.6292 195.427 48.4194 195.477 48.2187 195.547C47.6167 195.757 47.0055 195.787 46.4035 195.637C45.7923 195.607 45.2267 195.408 44.7068 195.048C44.1777 194.739 43.749 194.31 43.4297 193.761C43.0284 193.282 42.7547 192.713 42.6179 192.064C42.3533 190.787 42.4081 189.349 43.074 188.222L43.7855 187.214C44.351 186.595 45.0261 186.166 45.8014 185.926C47.2244 185.417 48.7387 185.487 50.18 185.816C50.8823 185.976 51.5756 186.345 52.205 186.665C52.5243 186.824 52.8162 187.024 53.0898 187.253C53.6463 187.713 54.2483 188.172 54.7136 188.761C55.1788 189.349 55.6531 189.968 55.9906 190.667C56.6748 192.074 57.1126 193.661 57.0579 195.268C57.0123 196.575 56.5835 197.853 55.7261 198.801C55.3156 199.29 54.823 199.629 54.2575 199.829C53.7101 200.138 53.1263 200.288 52.4969 200.258C51.3202 200.198 50.0979 199.779 49.2678 198.801C48.4377 197.823 47.8812 196.605 47.936 195.268L47.9451 195.278Z" fill="#AA6E14"/>
<path d="M171.715 70.3428L172.125 69.1552C172.81 67.1491 174.406 65.3925 176.522 65.4923C178.638 65.5921 180.153 67.0094 180.919 69.1552C182.643 73.9657 180.308 79.0358 177.453 82.6387C175.154 85.553 172.162 88.0082 169.142 89.9544C162.885 93.9765 155.487 96.0424 148.235 95.6233C145.854 95.4835 143.555 93.4276 143.674 90.633C143.784 88.0481 145.681 85.4931 148.235 85.6428C149.704 85.7227 151.163 85.7127 152.632 85.583C152.997 85.553 153.362 85.5031 153.726 85.4632C154.949 85.3235 152.75 85.6528 153.964 85.4233C154.684 85.2835 155.405 85.1438 156.125 84.9642C157.558 84.6049 158.962 84.1458 160.34 83.5869C160.686 83.4471 161.024 83.2974 161.361 83.1477C160.331 83.5869 161.471 83.0779 161.617 83.008C162.283 82.6687 162.94 82.3094 163.587 81.9301C164.883 81.1616 166.096 80.2734 167.3 79.3552C168.093 78.7563 166.734 79.8941 167.537 79.1556C167.82 78.8961 168.103 78.6465 168.385 78.3871C168.942 77.8681 169.48 77.3191 170 76.7503C170.264 76.4708 170.52 76.1814 170.766 75.882C170.921 75.7023 171.615 74.7442 171.003 75.6225C171.414 75.0137 171.706 74.335 172.098 73.7162C172.244 73.3869 172.217 73.4767 172.016 73.9957C172.08 73.816 172.144 73.6264 172.198 73.4368C172.253 73.2671 172.454 72.0295 172.381 72.788C172.28 73.846 172.353 71.5405 172.39 72.6084C172.417 73.327 172.198 72.0096 172.116 71.79H180.91L180.499 72.9777C179.66 75.4129 177.38 77.3491 174.889 76.4608C172.709 75.6923 170.803 72.9377 171.706 70.3229L171.715 70.3428Z" fill="#136E31"/>
<path d="M173.278 36.8476C173.306 36.3785 173.278 35.9294 173.278 35.4603C173.251 35.0811 173.26 35.2008 173.324 35.8296C173.278 35.5801 173.223 35.3206 173.169 35.0711C173.078 34.6918 172.968 34.3226 172.849 33.9533C172.795 33.7936 172.357 32.5361 172.776 33.6838C172.074 31.7875 171.198 29.9811 170.587 28.0549C170.487 27.7455 170.387 27.4361 170.295 27.1167C170.013 26.1686 170.742 28.0449 170.332 27.2265C170.022 26.6077 169.721 25.9889 169.356 25.41L169.192 25.1605C168.909 24.7414 168.973 24.8312 169.392 25.43C169.356 25.43 168.872 24.7613 168.836 24.7214C168.407 24.2124 167.96 23.7333 167.486 23.2742C167.367 23.1644 166.628 22.376 167.148 22.9449C167.668 23.5138 166.793 22.6754 166.656 22.5756C166.163 22.2163 165.652 21.877 165.132 21.5676C164.868 21.4179 164.603 21.2682 164.339 21.1284C164.156 21.0386 163.983 20.9488 163.801 20.859C164.393 21.1284 164.53 21.1983 164.211 21.0586C163.6 20.8989 163.016 20.5995 162.396 20.4298C162.113 20.35 161.83 20.2801 161.547 20.2302C160.59 20.0306 161.319 20.3999 161.629 20.2302C161.301 20.4098 160.07 20.1504 159.659 20.1803L159.376 20.2003C158.875 20.2601 159.002 20.2302 159.759 20.1304C159.586 20.2402 159.148 20.2601 158.948 20.31C158.683 20.3799 158.409 20.4598 158.154 20.5596C157.981 20.6194 157.807 20.6893 157.634 20.7691C158.291 20.4598 158.4 20.4098 157.962 20.6394C155.819 21.7772 152.936 21.358 151.723 18.8529C150.647 16.6173 151.066 13.2439 153.356 12.0263C160.188 8.40339 167.851 10.7188 173.488 15.8089C176.097 18.1742 178.067 21.2582 179.198 24.7414C179.353 25.2104 179.499 25.6895 179.654 26.1586C180.083 27.4161 179.262 25.2304 179.773 26.458C180.284 27.6856 180.804 28.9431 181.278 30.2106C182.063 32.3065 182.546 34.5721 182.427 36.8476C182.291 39.4525 180.43 41.9676 177.867 41.8378C175.513 41.7181 173.15 39.6421 173.306 36.8476H173.278Z" fill="#136E31"/>
<path d="M97.2433 83.6269C97.4804 82.559 97.6811 81.4911 97.8544 80.4132C97.8909 80.1836 97.9183 79.9441 97.9548 79.7145C98.1007 78.9161 97.8818 80.4531 97.973 79.6447C98.0277 79.1057 98.0916 78.5568 98.1281 78.0079C98.3105 75.7523 98.347 73.4768 98.2284 71.2112C98.2011 70.6623 98.1646 70.1234 98.119 69.5744C98.1007 69.3449 98.0734 69.1053 98.0551 68.8758C98.046 68.7361 97.9365 67.768 98.0095 68.3768C98.0642 68.8159 97.9 67.6282 97.8727 67.4187C97.7815 66.7999 97.672 66.1911 97.5534 65.5723C97.1338 63.4165 96.5682 61.3106 95.9479 59.2147C94.7439 55.2026 93.3208 51.2703 92.3539 47.1883C91.3231 42.8568 90.8032 38.3057 91.0951 33.8345C91.4417 28.4451 92.6914 23.375 94.7803 18.4946C95.7929 16.1192 99.0768 15.3308 101.02 16.7081C103.245 18.285 103.738 20.9997 102.653 23.5347C102.543 23.7942 102.425 24.0637 102.315 24.3331C102.288 24.393 102.041 25.0617 102.233 24.5427C102.425 24.0237 102.187 24.6924 102.16 24.7523C102.069 25.0218 101.968 25.3012 101.877 25.5707C101.558 26.5288 101.284 27.5069 101.047 28.495C100.81 29.483 100.609 30.4811 100.445 31.4791C100.39 31.8384 100.272 32.7766 100.372 31.8783C100.308 32.4572 100.253 33.0361 100.208 33.6149C100.062 35.6509 100.089 37.6969 100.263 39.723C100.29 40.0124 100.317 40.3018 100.354 40.5913C100.354 40.5214 100.226 39.7629 100.326 40.3517C100.418 40.8707 100.482 41.3897 100.573 41.8987C100.755 42.9267 100.983 43.9547 101.239 44.9727C102.242 49.0547 103.674 52.9869 104.86 56.9991C106.155 61.4005 107.004 65.9016 107.305 70.5126C107.651 75.7823 107.159 81.1417 106.037 86.2717C105.48 88.8167 102.716 90.5633 100.427 89.7549C98.0095 88.8966 96.6412 86.3416 97.2433 83.6169V83.6269Z" fill="#136E31"/>
</svg>
