<svg width="177" height="189" viewBox="0 0 177 189" fill="none" xmlns="http://www.w3.org/2000/svg">
<path d="M125.664 164.766C128.998 163.654 132.392 162.514 135.225 160.554C137.9 158.701 139.953 156.199 141.751 153.597C155.425 133.816 154.923 107.215 143.152 86.4149C138.432 78.0751 131.651 70.2485 122.27 66.549C112.679 62.764 100.518 63.2416 93.5795 56.0565C88.2596 50.5537 82.2353 40.4247 81.6284 33.0757C80.8641 23.8876 79.0584 21.2716 82.2278 11.9053L72.2549 3.51562C69.1079 9.80257 67.0623 13.2098 66.2306 20.124C64.8669 31.4148 66.5603 43.5468 60.8732 53.5332C55.9505 62.1795 46.4945 67.3973 38.0126 73.0213C27.8448 79.7502 18.3813 87.7621 11.8776 97.7841C5.37377 107.806 2.03196 120.045 4.58702 131.571C7.13459 143.097 16.2009 153.561 28.1895 156.498L53.9274 170.661L72.9592 167.896L99.8136 176.891L125.679 164.759L125.664 164.766Z" fill="#DDDDDD"/>
<path d="M126.664 168.201C130.478 166.932 134.382 165.613 137.634 163.261C140.886 160.909 143.448 157.758 145.644 154.437C149.42 148.727 152.17 142.34 153.803 135.782C157.085 122.603 156.164 108.489 151.503 95.7085C149.18 89.3289 146.018 83.1204 141.822 77.6603C137.626 72.2002 132.321 67.1607 125.788 64.1597C119.659 61.3513 112.967 60.5102 106.486 58.7709C104.973 58.3646 103.496 57.8871 102.035 57.3382C101.511 57.1386 102.875 57.7089 102.08 57.3525C101.923 57.2812 101.758 57.217 101.601 57.1457C101.286 57.0032 100.971 56.8535 100.664 56.7038C99.9748 56.3617 99.3004 55.9839 98.6561 55.5704C98.3863 55.3994 98.0342 55.2212 97.8094 55.0002C98.5137 55.713 97.637 54.8434 97.4572 54.6937C96.8728 54.2019 96.3408 53.6672 95.8238 53.1184C95.3442 52.6052 94.8797 52.0706 94.4226 51.5288C94.3177 51.4077 94.2128 51.2295 94.0929 51.1297C94.6174 51.5787 94.3402 51.4362 94.1828 51.2366C93.9056 50.8802 93.6284 50.5309 93.3586 50.1674C91.3655 47.4944 89.6122 44.6503 88.1511 41.685C87.9863 41.3428 87.8214 41.0007 87.6566 40.6585C87.5742 40.4875 87.4917 40.3164 87.4243 40.1453C87.724 40.8653 87.5292 40.3806 87.4618 40.2237C87.1321 39.4183 86.8099 38.6199 86.5252 37.8002C86.0381 36.396 85.6635 34.9704 85.4087 33.5162C85.3263 33.0244 85.5661 33.5448 85.4387 33.7657C85.4687 33.7158 85.3937 33.3951 85.3863 33.3095C85.3488 32.9104 85.3188 32.5112 85.2814 32.112C85.1989 31.2281 85.1015 30.3514 84.9891 29.4675C84.8093 27.9991 84.5845 26.5379 84.4122 25.0624C84.2698 23.8363 84.1574 22.6103 84.1574 21.37C84.1574 20.7 84.1874 20.03 84.2473 19.3599C84.2773 19.0463 84.3447 18.7327 84.3522 18.419C84.3522 18.5117 84.2099 19.2744 84.3298 18.6329C84.3747 18.3763 84.4197 18.1268 84.4646 17.8702C84.7943 16.1666 85.2813 14.4986 85.8358 12.852C86.218 11.7115 85.8283 10.1861 84.8692 9.38778C81.5424 6.59358 78.2156 3.79939 74.8963 0.998062C73.2329 -0.399037 70.1158 -0.477445 69.0144 1.718C66.819 6.09462 64.4138 10.4499 63.2973 15.2114C62.0535 20.5289 61.9786 26.0603 61.7463 31.4847C61.6339 34.1435 61.5066 36.8023 61.2143 39.4468C61.1844 39.7462 61.1469 40.0527 61.1094 40.352C61.072 40.6372 60.9896 41.2502 61.0795 40.6087C60.9746 41.3072 60.8622 41.9986 60.7348 42.69C60.5025 43.9161 60.2178 45.135 59.8656 46.3396C59.6858 46.9598 59.4835 47.5799 59.2662 48.1929C59.1613 48.478 59.0564 48.756 58.9515 49.034C58.8991 49.1766 58.8391 49.312 58.7792 49.4546C58.7492 49.5258 58.4944 50.1175 58.6668 49.7254C58.8391 49.3334 58.6293 49.7967 58.6068 49.8537C58.5394 49.9892 58.4795 50.1246 58.412 50.2672C58.2771 50.538 58.1423 50.816 57.9924 51.0798C57.6777 51.6785 57.333 52.263 56.9734 52.8333C56.6737 53.3037 56.359 53.767 56.0368 54.2232C55.8719 54.4513 55.7071 54.6723 55.5348 54.8933C55.4523 55.0073 55.3624 55.1142 55.28 55.2212C54.8604 55.7629 55.5423 54.9289 55.25 55.2568C54.4783 56.1336 53.7065 57.0032 52.8673 57.8229C51.1065 59.5479 49.1808 61.1089 47.1952 62.5916C47.7122 62.2067 47.2702 62.5346 47.0154 62.7128C46.7831 62.8838 46.5434 63.0478 46.3036 63.2188C45.7491 63.6109 45.1871 63.9958 44.6252 64.3736C43.6211 65.0579 42.6021 65.7208 41.5831 66.3837C37.0574 69.3276 32.5392 72.2572 28.2533 75.5219C19.6366 82.0725 11.799 89.9633 6.62898 99.3082C1.18168 109.152 -1.36588 120.45 0.732112 131.484C2.53039 140.936 8.32236 149.575 16.4971 155.178C18.3478 156.447 20.3409 157.509 22.4464 158.364C23.7351 158.892 25.0389 159.376 26.3876 159.747C26.5075 159.783 26.6499 159.84 26.7772 159.854C27.2118 159.897 26.3202 159.626 26.2752 159.597C26.2752 159.597 26.2977 159.604 26.2977 159.611C26.3202 159.64 26.3951 159.661 26.4326 159.683C27.7963 160.51 29.2349 161.23 30.636 161.992C35.8286 164.851 41.0211 167.709 46.2062 170.56C47.937 171.515 49.6679 172.463 51.3987 173.419C52.5077 174.032 53.5342 174.302 54.9054 174.117C55.3999 174.046 55.8869 173.975 56.3815 173.903C61.7913 173.119 67.2011 172.328 72.611 171.544C73.053 171.48 73.4951 171.416 73.9372 171.351H71.9441C79.894 174.01 87.8439 176.676 95.7863 179.335C96.7829 179.67 97.7719 180.062 98.7909 180.34C100.492 180.803 102.245 179.72 103.744 179.021C108.179 176.94 112.608 174.866 117.044 172.784C120.55 171.138 124.049 169.498 127.556 167.852C129.317 167.025 129.946 164.516 128.897 162.976C127.736 161.258 125.653 160.816 123.772 161.7C116.227 165.243 108.681 168.778 101.129 172.321C100.05 172.827 98.9783 173.333 97.8993 173.832L100.784 173.476C94.2578 171.287 87.7315 169.106 81.2052 166.918C79.5119 166.348 77.811 165.784 76.1176 165.214C75.3983 164.972 74.6715 164.665 73.9372 164.487C72.7009 164.188 70.9925 164.623 69.7112 164.808L63.702 165.685C60.0979 166.205 56.5013 166.732 52.8973 167.253L55.782 167.609C48.8062 163.767 41.8229 159.932 34.847 156.09C33.4609 155.328 32.0747 154.565 30.681 153.802C30.4712 153.688 30.2614 153.56 30.0441 153.453C29.0925 152.975 27.9611 152.797 26.9496 152.462C26.515 152.32 25.953 152.205 25.5634 151.963C25.6383 152.013 26.3352 152.291 25.7132 152.02C25.3911 151.878 25.0614 151.742 24.7392 151.592C23.0458 150.808 21.4573 149.86 19.9363 148.813C19.187 148.299 20.5582 149.304 19.8389 148.748C19.6665 148.613 19.4867 148.485 19.3144 148.342C18.9322 148.043 18.5576 147.736 18.1979 147.423C17.4636 146.788 16.7593 146.125 16.0849 145.434C15.4705 144.799 14.8861 144.144 14.3166 143.474C13.7472 142.804 14.7812 144.094 14.2417 143.374C14.1068 143.196 13.972 143.025 13.8371 142.853C13.5224 142.433 13.2152 142.005 12.9155 141.57C11.8515 140.009 10.9149 138.377 10.1206 136.673L10.0083 136.438C9.84341 136.075 9.86589 136.117 10.0682 136.574C10.0832 136.495 9.90335 136.189 9.86589 136.089C9.68606 135.647 9.51372 135.198 9.34888 134.749C9.0117 133.815 8.71199 132.86 8.45723 131.898C8.21746 130.985 8.01516 130.073 7.85781 129.146C7.80536 128.847 7.7604 128.547 7.70795 128.248C7.73043 128.376 7.79786 128.982 7.71544 128.291C7.64801 127.692 7.58057 127.086 7.53561 126.48C7.37077 124.263 7.40074 122.04 7.61054 119.83C7.6555 119.324 7.71544 118.825 7.78288 118.319C7.67798 119.203 7.80536 118.19 7.82034 118.062C7.85031 117.862 7.88778 117.663 7.91775 117.463C8.12006 116.309 8.36732 115.168 8.65205 114.035C9.19902 111.903 9.88837 109.815 10.7201 107.769C10.8325 107.484 10.9598 107.199 11.0722 106.914C11.3345 106.279 11.1247 106.793 11.0722 106.914C11.3045 106.393 11.5443 105.887 11.7915 105.374C12.3086 104.312 12.863 103.264 13.455 102.231C14.5189 100.37 15.6953 98.574 16.9616 96.8419C17.3213 96.35 17.6809 95.8653 18.0556 95.3806C18.1829 95.2238 18.3028 95.0598 18.4302 94.903C18.4976 94.8175 19.142 94.0263 18.6025 94.6749C19.3069 93.8124 20.0337 92.9642 20.783 92.1302C23.7127 88.8656 26.9496 85.8575 30.3663 83.0562C31.243 82.3363 32.1346 81.6306 33.0338 80.9392C33.4459 80.6255 33.858 80.3119 34.2701 80.0054C34.4349 79.8842 34.5998 79.7559 34.7646 79.6347C34.0828 80.1408 35.1392 79.3639 35.2591 79.2783C37.0424 77.9953 38.8557 76.755 40.6989 75.5504C47.7872 70.91 55.4074 66.5049 60.7798 59.9756C63.7694 56.3403 65.9348 52.2773 67.1861 47.8009C68.4374 43.3244 68.8346 38.7981 69.0818 34.2576C69.3291 29.717 69.3666 25.3261 69.8536 20.8853C69.8836 20.6358 69.906 20.3792 69.9435 20.1298C69.9585 20.0157 70.1233 18.9536 69.981 19.8161C70.0634 19.3243 70.1383 18.8325 70.2357 18.3477C70.423 17.3641 70.6628 16.3875 70.9475 15.4252C71.2023 14.5699 71.4945 13.7216 71.8167 12.8877C71.989 12.4528 72.1689 12.0252 72.3487 11.5975C72.6035 11.0058 72.3112 11.6545 72.2813 11.7472C72.3862 11.4264 72.5735 11.1056 72.7233 10.7991C73.6 8.95297 74.5441 7.14244 75.4582 5.31766L69.5763 6.0376C72.9032 8.83179 76.23 11.626 79.5493 14.4273L78.5827 10.9631C77.5038 14.185 76.702 17.5423 76.6496 20.9352C76.6046 23.5298 77.0392 26.0959 77.3764 28.662C77.811 31.9837 77.9309 35.3268 78.9124 38.5558C79.894 41.7848 81.3401 44.8712 83.0035 47.8151C84.6669 50.759 86.7125 53.6672 88.9379 56.3617C90.9384 58.7852 93.2387 60.888 96.0635 62.4348C101.736 65.5568 108.329 66.4621 114.586 67.9661C116.144 68.3439 117.703 68.7502 119.224 69.2492C119.906 69.4701 120.61 69.6911 121.262 69.9834C120.453 69.627 121.502 70.0974 121.712 70.1901C122.154 70.3897 122.588 70.5964 123.023 70.8102C124.484 71.5444 125.885 72.3855 127.211 73.3122C127.226 73.3264 127.991 73.8682 127.526 73.5331C127.129 73.248 127.623 73.6115 127.721 73.6828C128.021 73.9109 128.32 74.1461 128.62 74.3885C129.287 74.9302 129.931 75.4862 130.561 76.0707C131.782 77.2041 132.936 78.4016 134.022 79.6561C134.27 79.9413 134.509 80.2406 134.757 80.5258C134.21 79.8842 134.921 80.7325 135.064 80.9178C135.588 81.5878 136.098 82.2793 136.592 82.9707C138.481 85.6437 140.136 88.4664 141.583 91.3746C141.942 92.1017 142.287 92.8359 142.632 93.5701C142.699 93.7198 142.939 94.1831 142.602 93.4988C142.684 93.6699 142.751 93.8481 142.826 94.0263C143.014 94.4611 143.201 94.903 143.373 95.345C143.98 96.8419 144.535 98.3601 145.037 99.8998C146.063 103.058 146.858 106.279 147.412 109.537C147.472 109.908 147.539 110.278 147.592 110.656C147.622 110.834 147.667 111.034 147.674 111.219C147.674 111.105 147.569 110.435 147.659 111.112C147.764 111.953 147.862 112.794 147.944 113.636C148.094 115.225 148.184 116.822 148.214 118.418C148.281 121.697 148.094 124.976 147.667 128.227C147.644 128.412 147.622 128.918 147.682 128.113C147.667 128.298 147.622 128.49 147.599 128.669C147.539 129.039 147.479 129.41 147.412 129.773C147.27 130.6 147.105 131.427 146.925 132.247C146.588 133.801 146.183 135.34 145.719 136.859C145.254 138.377 144.7 139.974 144.085 141.499C143.928 141.891 143.77 142.283 143.598 142.675C143.523 142.846 143.463 143.032 143.373 143.196C143.433 143.096 143.688 142.511 143.403 143.117C143.044 143.887 142.684 144.657 142.294 145.412C140.766 148.399 138.938 151.179 136.937 153.895C137.297 153.474 136.615 154.337 136.937 153.895C136.802 154.052 136.675 154.208 136.54 154.365C136.233 154.715 135.925 155.057 135.603 155.392C134.996 156.026 134.352 156.625 133.663 157.181C133.52 157.295 132.958 157.715 133.55 157.288C133.378 157.409 133.206 157.53 133.026 157.651C132.666 157.894 132.299 158.115 131.924 158.336C131.078 158.82 130.201 159.255 129.302 159.64C129.099 159.726 128.897 159.811 128.695 159.897C129.324 159.626 128.8 159.854 128.672 159.897C128.26 160.053 127.848 160.21 127.436 160.353C126.507 160.688 125.563 161.001 124.619 161.315C122.776 161.928 121.352 163.781 122.004 165.699C122.596 167.431 124.634 168.849 126.612 168.187L126.664 168.201Z" fill="#DDDDDD"/>
<path d="M64.2192 89.6931C57.8578 105.132 56.2169 122.111 58.9742 138.456C60.3079 146.347 62.7057 154.195 66.4071 161.387C69.8988 168.173 75.1812 174.645 82.4193 178.088C89.6874 181.545 98.6263 182.315 105.872 178.359C113.305 174.303 117.531 166.334 120.588 159.035C123.645 151.736 125.353 143.531 125.743 135.512C125.93 131.613 125.803 127.693 125.368 123.815C124.934 119.937 124.274 115.796 123.105 111.918C120.91 104.605 117.089 97.7478 112.503 91.5464C107.67 85.0242 102.036 79.058 95.8465 73.6692C94.3479 72.3648 92.8194 71.096 91.2609 69.8557C89.7024 68.6154 87.4171 68.3517 85.9634 69.8557C84.6897 71.1744 84.36 73.6193 85.9634 74.8952C92.0326 79.7209 97.6897 85.0313 102.665 90.8835C102.965 91.2399 103.272 91.5963 103.564 91.9598C103.699 92.1166 103.826 92.2806 103.961 92.4445C103.879 92.3376 103.527 91.917 103.961 92.4445C104.598 93.2571 105.235 94.0626 105.849 94.8894C106.943 96.3578 107.992 97.8547 108.981 99.3872C109.971 100.92 110.922 102.509 111.799 104.127C112.196 104.854 112.578 105.596 112.945 106.337C113.162 106.772 113.365 107.207 113.575 107.642C113.657 107.813 113.732 107.991 113.814 108.169C113.552 107.606 113.769 108.069 113.897 108.369C115.26 111.548 116.287 114.834 116.969 118.205C117.141 119.061 117.306 119.923 117.448 120.786C117.523 121.242 117.591 121.698 117.666 122.154C117.763 122.76 117.561 121.285 117.681 122.275C117.718 122.582 117.763 122.888 117.801 123.195C118.025 125.034 118.175 126.88 118.258 128.726C118.43 132.526 118.303 136.332 117.875 140.11C117.831 140.516 117.778 140.922 117.726 141.329C117.636 142.02 117.711 141.428 117.726 141.293C117.688 141.55 117.651 141.799 117.613 142.056C117.463 143.018 117.291 143.98 117.096 144.935C116.729 146.746 116.287 148.535 115.77 150.31C115.253 152.085 114.631 153.931 113.934 155.706C113.769 156.134 113.59 156.568 113.417 156.996C113.335 157.189 113.26 157.374 113.177 157.566C113.177 157.552 112.773 158.479 112.998 157.987C113.185 157.574 112.908 158.172 112.87 158.265C112.765 158.5 112.653 158.735 112.541 158.964C112.316 159.427 112.091 159.89 111.859 160.353C111.042 161.964 110.158 163.54 109.176 165.065C108.697 165.806 108.202 166.526 107.67 167.232C107.55 167.389 107.43 167.539 107.311 167.695C106.741 168.451 107.64 167.339 107.251 167.774C106.921 168.137 106.614 168.508 106.277 168.864C105.677 169.499 105.04 170.105 104.366 170.675C104.224 170.789 103.115 171.602 103.849 171.103C103.444 171.381 103.032 171.651 102.613 171.901C102.283 172.101 101.938 172.286 101.594 172.457C101.384 172.564 101.174 172.664 100.957 172.756C100.739 172.849 100.2 173.177 100.949 172.778C100.245 173.148 99.3232 173.334 98.5514 173.519C98.1468 173.612 97.7347 173.697 97.3151 173.761C97.0528 173.804 96.4834 174.011 97.3376 173.768C97.1802 173.811 96.933 173.811 96.7756 173.825C95.884 173.904 94.9923 173.925 94.0932 173.89C93.6661 173.875 93.239 173.847 92.8194 173.804C92.6471 173.79 92.4298 173.783 92.2499 173.747C93.0891 173.94 92.6021 173.797 92.3998 173.761C91.4557 173.59 90.5266 173.412 89.5975 173.163C88.8107 172.949 87.8591 172.742 87.1398 172.357C87.2372 172.414 87.8741 172.671 87.2372 172.393C87.0649 172.314 86.8851 172.243 86.7127 172.165C86.2781 171.972 85.8436 171.758 85.424 171.545C84.6672 171.152 83.9254 170.725 83.2136 170.254C82.8989 170.048 82.5917 169.834 82.2845 169.62C82.9438 170.083 82.3819 169.691 82.2245 169.563C81.9922 169.385 81.76 169.199 81.5352 169.007C80.134 167.852 78.8527 166.569 77.6764 165.208C77.549 165.058 77.4291 164.908 77.3017 164.759C77.7813 165.315 77.4366 164.923 77.3392 164.801C77.0694 164.452 76.7997 164.11 76.5449 163.754C75.998 163.005 75.4735 162.242 74.9789 161.458C74.0124 159.926 73.1432 158.343 72.3489 156.725C72.1541 156.333 71.9668 155.934 71.787 155.535C71.7046 155.357 71.6221 155.179 71.5472 155C71.8544 155.677 71.6296 155.193 71.5697 155.05C71.195 154.152 70.8204 153.254 70.4757 152.349C69.112 148.763 68.0031 145.085 67.1489 141.357C66.7143 139.454 66.3472 137.537 66.04 135.612C66.0025 135.384 65.8377 134.236 65.9426 134.999C65.8751 134.529 65.8152 134.058 65.7627 133.588C65.6429 132.597 65.5379 131.599 65.4555 130.601C65.1183 126.716 65.0509 122.817 65.2457 118.925C65.3431 117.029 65.5005 115.14 65.7178 113.258C65.7702 112.838 65.8152 112.424 65.8751 112.004C65.8751 112.018 66.0175 110.992 65.9351 111.541C65.8527 112.089 66.01 111.063 66.01 111.077C66.1524 110.136 66.3172 109.203 66.4895 108.269C67.2089 104.434 68.1979 100.649 69.4417 96.9352C70.0486 95.1318 70.723 93.3426 71.4498 91.582C72.1766 89.8214 70.6631 87.5974 68.8348 87.1983C66.6844 86.7349 64.991 87.8255 64.2267 89.6859L64.2192 89.6931Z" fill="#C4C4C4"/>
<path d="M112.551 78.8378C115.376 81.2185 118.051 83.7633 120.509 86.479C121.123 87.1562 121.715 87.8405 122.307 88.5391C122.442 88.703 123.259 89.7152 122.719 89.0309C123.041 89.4443 123.371 89.8506 123.686 90.264C124.78 91.6897 125.821 93.158 126.795 94.6621C127.769 96.1661 128.668 97.6986 129.5 99.2668C129.912 100.051 130.317 100.842 130.691 101.64C130.849 101.975 131.021 102.31 131.163 102.653C130.864 101.897 131.096 102.51 131.178 102.695C131.291 102.952 131.396 103.209 131.501 103.465C132.872 106.787 133.906 110.237 134.573 113.751C134.64 114.122 134.708 114.492 134.768 114.856C134.805 115.091 134.842 115.319 134.88 115.554C134.977 116.132 134.775 114.67 134.88 115.583C135 116.545 135.097 117.515 135.18 118.484C135.344 120.53 135.449 122.576 135.487 124.621C135.524 126.667 135.502 128.727 135.389 130.773C135.337 131.742 135.262 132.704 135.172 133.674C135.127 134.159 135.075 134.636 135.022 135.121C134.992 135.385 134.955 135.655 134.925 135.919C134.798 136.981 135.045 135.192 134.88 136.247C134.266 140.274 133.276 144.252 131.755 148.058C131.576 148.5 131.388 148.942 131.208 149.377C131.583 148.586 130.991 149.89 131.208 149.377C131.134 149.541 131.059 149.705 130.984 149.862C130.602 150.674 130.189 151.466 129.747 152.257C128.916 153.754 127.987 155.201 126.975 156.591C126.683 156.99 126.383 157.389 126.068 157.781C125.933 157.952 125.589 158.472 126.053 157.802C125.904 158.023 125.701 158.223 125.529 158.43C124.907 159.15 124.263 159.848 123.588 160.525C122.914 161.202 122.225 161.851 121.498 162.478C121.123 162.806 120.741 163.127 120.344 163.434C120.164 163.576 119.992 163.712 119.812 163.854C119.639 163.982 119.018 164.538 119.699 163.947C118.313 165.144 116.463 166.085 114.807 166.898C114.357 167.119 113.9 167.333 113.443 167.532C113.241 167.618 113.023 167.739 112.814 167.803C113.39 167.639 113.091 167.696 112.686 167.846C111.735 168.202 110.768 168.502 109.794 168.772C107.913 169.286 106.549 171.31 107.179 173.156C107.808 175.002 109.771 176.193 111.787 175.644C127.942 171.26 138.297 156.683 141.481 141.622C143.257 133.218 143.482 124.365 142.418 115.854C141.436 107.999 138.851 100.486 134.82 93.5643C130.467 86.087 124.562 79.4223 117.849 73.7697C116.38 72.5366 113.975 72.2942 112.551 73.7697C111.248 75.1241 110.985 77.4906 112.551 78.8093V78.8378Z" fill="#C4C4C4"/>
<path d="M70.2925 165.385C70.2925 165.385 69.5432 165.934 70.0303 165.592C70.5173 165.25 69.7905 165.749 69.753 165.777C69.4608 165.977 69.1611 166.169 68.8539 166.355C68.0971 166.811 67.3104 167.232 66.5011 167.602C66.3363 167.673 66.1789 167.745 66.0141 167.816C65.3997 168.087 66.0815 167.809 66.1715 167.759C65.8043 167.959 65.3098 168.08 64.9127 168.208C64.1034 168.472 63.2867 168.7 62.455 168.885C62.0579 168.971 61.6608 169.049 61.2636 169.12C61.0838 169.149 60.9115 169.177 60.7317 169.206C60.6642 169.213 59.7801 169.313 60.4244 169.256C61.0688 169.199 60.1772 169.277 60.1097 169.284C59.9299 169.299 59.7501 169.32 59.5703 169.334C59.1207 169.37 58.6636 169.391 58.2066 169.406C57.3824 169.427 56.5656 169.42 55.7414 169.377C55.3293 169.356 54.9172 169.327 54.5126 169.292C54.2878 169.27 54.0555 169.242 53.8307 169.22C53.044 169.142 54.5875 169.349 53.7333 169.206C52.0999 168.921 50.4964 168.586 48.9154 168.087C48.4809 167.951 48.0463 167.802 47.6192 167.645C47.5517 167.616 47.1247 167.438 47.1097 167.452C47.1846 167.395 47.769 167.73 47.2445 167.502C46.4128 167.139 45.5811 166.761 44.7794 166.333C44.0601 165.948 43.3632 165.535 42.6814 165.093C42.3742 164.894 42.067 164.68 41.7673 164.473C41.003 163.953 42.1794 164.801 41.7223 164.444C41.4975 164.266 41.2727 164.102 41.0554 163.924C39.6992 162.841 38.433 161.65 37.2716 160.374C36.9569 160.032 36.6571 159.676 36.3574 159.327C36.245 159.198 35.8854 158.835 36.4174 159.398C36.2975 159.262 36.1851 159.098 36.0727 158.963C35.5033 158.229 34.9638 157.466 34.4617 156.696C33.5176 155.256 32.6785 153.752 31.9442 152.206C31.8467 151.999 31.7269 151.792 31.6519 151.571C31.6894 151.678 31.9516 152.27 31.6894 151.657C31.547 151.315 31.3972 150.972 31.2623 150.623C30.9176 149.761 30.6029 148.884 30.3182 148C29.7787 146.318 29.3441 144.607 29.0145 142.875C28.947 142.511 28.8796 142.148 28.8196 141.777C28.7897 141.606 28.7447 141.407 28.7372 141.228C28.7822 142.077 28.7672 141.442 28.7372 141.214C28.6248 140.309 28.5349 139.396 28.475 138.484C28.3401 136.381 28.3326 134.271 28.4525 132.169C28.5049 131.171 28.5874 130.18 28.6923 129.189C28.7372 128.747 28.7972 128.305 28.8496 127.87C28.977 126.808 28.7747 128.305 28.8721 127.664C28.9245 127.336 28.9695 127.008 29.0294 126.673C29.3591 124.641 29.7862 122.617 30.2882 120.614C31.4271 116.059 32.9632 111.597 34.709 107.22C35.1061 106.223 35.5182 105.232 35.9453 104.248C35.6681 104.882 35.9528 104.227 36.0278 104.07C36.1626 103.778 36.2975 103.485 36.4324 103.193C36.6871 102.658 36.9419 102.131 37.2116 101.604C38.2381 99.5934 39.3995 97.6546 40.7333 95.8155C41.8497 94.2759 41.0854 91.7953 39.392 90.94C37.4814 89.9777 35.4583 90.5764 34.2669 92.2159C31.5995 95.8939 29.6813 99.9855 27.9729 104.134C26.2646 108.283 24.8409 112.267 23.6721 116.444C21.2369 125.133 20.1579 134.179 21.5141 143.117C23.7695 157.937 34.0122 172.492 50.1218 175.785C59.0832 177.617 68.4418 176.006 75.6049 170.425C77.126 169.234 76.9986 166.597 75.6049 165.385C73.9865 163.974 71.9335 164.117 70.3075 165.385H70.2925Z" fill="#C4C4C4"/>
<path d="M171.454 144.745C166.906 161.082 150.069 182.858 132.446 185.011C127.486 185.617 122.458 185.432 117.483 184.961C110.53 184.305 103.082 182.808 98.4361 177.847C93.1836 172.245 93.0038 163.933 89.8119 157.076C87.8338 152.828 84.6268 149.107 80.6406 146.42C92.7116 152.571 101.104 164.561 114.044 168.823C119.701 170.684 125.792 170.897 131.779 171.097C136.215 171.24 140.793 171.368 144.937 169.85C151.081 167.597 158.236 165.886 161.99 160.74C167.325 153.441 171.461 147.646 172.967 134.01L171.446 144.745H171.454Z" fill="#CEA5CD"/>
<path d="M167.842 143.796C167.37 145.486 166.793 147.154 166.142 148.793C165.962 149.242 165.774 149.684 165.587 150.133C165.565 150.19 165.227 150.931 165.482 150.383C165.737 149.834 165.392 150.575 165.37 150.632C164.95 151.544 164.508 152.45 164.044 153.341C162.193 156.926 160.02 160.362 157.57 163.605C157.3 163.962 157.023 164.325 156.746 164.674C156.581 164.888 156.408 165.095 156.244 165.309C155.674 166.036 156.738 164.717 156.146 165.43C155.449 166.257 154.752 167.076 154.026 167.882C152.647 169.4 151.201 170.854 149.68 172.237C148.998 172.857 148.301 173.463 147.582 174.048C147.215 174.354 146.84 174.646 146.458 174.946C146.256 175.103 146.046 175.259 145.843 175.416C145.199 175.908 146.383 175.039 145.769 175.473C144.188 176.585 142.569 177.633 140.853 178.546C140.067 178.966 139.257 179.358 138.433 179.715C138.388 179.736 137.766 179.985 137.766 180C138.59 179.679 137.751 179.95 137.766 180C137.324 180.171 136.875 180.328 136.425 180.47C135.608 180.734 134.784 180.969 133.945 181.154C133.495 181.254 133.038 181.347 132.581 181.425C132.431 181.454 132.274 181.475 132.124 181.497C131.719 181.554 131.824 181.546 132.439 181.461C132.199 181.489 131.952 181.518 131.712 181.546C126.317 182.124 120.84 181.817 115.467 181.204C114.763 181.126 115.482 181.211 115.595 181.219C115.31 181.197 115.018 181.14 114.726 181.097C114.149 181.012 113.572 180.919 112.995 180.812C111.901 180.613 110.807 180.377 109.735 180.085C108.716 179.814 107.727 179.472 106.738 179.123C106.191 178.93 107.555 179.494 106.716 179.116C106.461 179.002 106.199 178.888 105.944 178.774C105.435 178.538 104.94 178.282 104.453 178.004C103.966 177.726 103.509 177.426 103.044 177.12C102.265 176.614 103.621 177.619 102.909 177.02C102.767 176.899 102.625 176.792 102.482 176.671C102.055 176.314 101.651 175.937 101.261 175.537C101.066 175.338 100.886 175.124 100.692 174.924C100.175 174.376 101.051 175.445 100.579 174.789C99.9948 173.969 99.4403 173.15 98.9683 172.266C98.8409 172.023 98.7135 171.781 98.6011 171.539C98.4962 171.332 98.0242 170.705 98.5262 171.403C98.2265 170.99 98.0841 170.348 97.9118 169.885C96.1734 165.23 95.3043 160.355 93.2587 155.8C90.9884 150.753 87.1895 146.548 82.514 143.361L78.7301 149.513C80.5583 150.454 82.3117 151.516 83.9976 152.671C84.3797 152.934 84.7618 153.198 85.144 153.469C85.1664 153.483 85.9157 154.018 85.4437 153.683C84.9716 153.348 85.7134 153.89 85.7359 153.904C86.5601 154.517 87.3693 155.151 88.1711 155.793C91.3106 158.295 94.3302 160.939 97.4997 163.406C100.669 165.872 104.206 168.417 108.005 170.241C112.523 172.415 117.251 173.542 122.256 174.112C127.261 174.682 132.057 174.867 136.912 174.746C139.602 174.675 142.374 174.404 144.952 173.627C146.87 173.043 148.758 172.316 150.646 171.66C154.812 170.206 158.911 168.573 162.283 165.758C163.811 164.482 164.965 162.907 166.112 161.331C167.018 160.077 167.917 158.822 168.764 157.532C170.802 154.438 172.496 151.152 173.762 147.702C175.38 143.297 176.175 138.664 176.699 134.038C176.894 132.284 175.118 130.752 173.447 130.538C171.776 130.324 169.588 131.336 169.334 133.09C168.824 136.668 168.322 140.246 167.812 143.825C167.67 144.823 167.633 145.664 168.187 146.569C168.644 147.31 169.536 148.016 170.428 148.209C172.188 148.586 174.758 147.695 175.036 145.721C175.545 142.143 176.047 138.564 176.557 134.986C174.106 134.672 171.649 134.352 169.199 134.038C169.139 134.58 169.071 135.121 169.004 135.663C168.876 136.718 169.124 134.936 168.959 135.963C168.929 136.162 168.899 136.369 168.862 136.568C168.697 137.623 168.502 138.671 168.277 139.712C167.902 141.43 167.453 143.133 166.883 144.808C166.636 145.543 166.366 146.277 166.074 146.997C165.954 147.289 165.729 147.624 165.685 147.931C165.812 147.132 165.857 147.538 165.7 147.888C165.61 148.087 165.512 148.28 165.422 148.479C164.785 149.812 164.066 151.103 163.287 152.364C162.56 153.547 161.788 154.702 160.987 155.836C160.582 156.413 160.17 156.99 159.75 157.568C159.54 157.86 159.323 158.152 159.113 158.444C158.986 158.623 158.851 158.794 158.724 158.979C158.297 159.585 159.196 158.487 158.649 159.086C158.057 159.735 157.45 160.348 156.761 160.904C156.648 160.996 156.483 161.153 156.348 161.224C157.173 160.79 156.423 161.16 156.244 161.281C155.801 161.581 155.344 161.859 154.872 162.122C154.123 162.55 153.344 162.928 152.557 163.284C152.137 163.477 151.71 163.648 151.283 163.833C150.751 164.061 152.13 163.512 151.268 163.833C151.006 163.933 150.744 164.033 150.482 164.133C148.646 164.817 146.78 165.423 144.929 166.079C143.948 166.428 142.974 166.784 141.955 167.041C141.408 167.176 140.853 167.29 140.299 167.383C140.074 167.419 139.849 167.454 139.632 167.483C140.471 167.362 139.272 167.511 139.107 167.526C136.77 167.725 134.424 167.661 132.079 167.59C129.734 167.518 127.231 167.433 124.819 167.255C124.242 167.212 123.672 167.162 123.095 167.105C122.863 167.084 122.638 167.055 122.406 167.034C122.308 167.027 121.177 166.877 122.031 166.991C120.892 166.834 119.761 166.649 118.644 166.406C117.528 166.164 116.419 165.879 115.325 165.537C114.861 165.387 114.396 165.23 113.939 165.059C113.782 165.002 112.875 164.681 113.797 165.016C113.534 164.924 113.28 164.803 113.025 164.696C111.286 163.94 109.623 163.042 108.02 162.058C107.233 161.574 106.461 161.075 105.704 160.547C105.36 160.312 105.022 160.07 104.685 159.834C104.543 159.735 103.756 159.257 104.55 159.742C104.318 159.599 104.101 159.407 103.884 159.243C96.8103 153.897 90.5088 147.51 82.4915 143.39C80.7681 142.506 78.333 142.927 77.3664 144.666C76.3474 146.505 77.0067 148.38 78.7076 149.541C78.9549 149.713 79.2021 149.884 79.4419 150.055C78.7376 149.541 79.5393 150.14 79.6367 150.219C80.1088 150.589 80.5583 150.981 81.0004 151.38C81.8846 152.186 82.6938 153.048 83.4731 153.947C84.1174 154.695 83.0535 153.355 83.6304 154.146C83.8027 154.389 83.9901 154.617 84.1549 154.859C84.4396 155.258 84.7169 155.664 84.9791 156.078C85.2938 156.577 85.5935 157.083 85.8708 157.596C86.0131 157.853 86.148 158.117 86.2754 158.38C86.3203 158.473 86.7774 159.464 86.5676 158.986C86.3428 158.459 86.695 159.3 86.7025 159.328C86.8074 159.585 86.9048 159.841 87.0097 160.105C87.2045 160.626 87.3918 161.153 87.5642 161.681C87.9163 162.743 88.231 163.819 88.5382 164.888C89.1451 167.027 89.7146 169.179 90.4639 171.282C92.1573 176.015 94.7273 180.135 98.9982 183.136C102.79 185.802 107.518 187.17 112.118 187.898C117.58 188.767 123.223 189.195 128.76 188.917C133.503 188.674 137.856 187.783 142.172 185.887C149.89 182.502 156.386 176.592 161.563 170.284C167.543 163.006 172.496 154.688 175.013 145.721C175.515 143.925 174.376 141.765 172.398 141.337C170.42 140.909 168.33 141.9 167.79 143.825L167.842 143.796Z" fill="#CEA5CD"/>
<path d="M171.552 128.255C170.63 126.202 169.161 124.405 167.513 122.816C165.377 120.749 162.875 118.931 159.96 118.076C156.064 116.928 151.83 117.584 147.927 118.703C143.648 119.929 139.565 121.704 135.563 123.593C132.072 125.247 128.603 127 125.523 129.281C120.518 132.973 116.697 137.899 112.246 142.19C107.795 146.481 98.0918 146.987 91.7828 147.479L80.6484 145.918C92.7194 152.069 101.111 164.059 114.052 168.321C119.709 170.182 125.8 170.396 131.787 170.595C136.223 170.738 140.801 170.866 144.945 169.348C151.089 167.095 158.244 165.385 161.998 160.238C167.333 152.939 171.469 147.144 172.975 133.508L171.537 128.262L171.552 128.255Z" fill="#B18EB2"/>
<path d="M174.777 126.458C172.994 122.588 169.54 119.28 165.913 116.914C161.74 114.191 156.854 113.549 151.931 114.198C147.233 114.825 142.76 116.529 138.452 118.354C134.391 120.072 130.33 121.946 126.583 124.22C122.837 126.494 119.51 129.388 116.468 132.517C114.984 134.05 113.546 135.618 112.07 137.158C111.403 137.849 110.736 138.533 110.054 139.21C109.777 139.488 109.492 139.766 109.192 140.023C109.087 140.116 108.825 140.251 108.765 140.372C109.2 140.059 109.297 139.987 109.072 140.144C108.983 140.208 108.885 140.273 108.795 140.33C108.211 140.707 107.589 141.042 106.952 141.335C106.84 141.385 106.405 141.648 106.285 141.627C106.308 141.627 107.154 141.306 106.487 141.534C106.053 141.684 105.611 141.841 105.169 141.976C103.528 142.475 101.834 142.824 100.133 143.088C99.7363 143.152 99.3317 143.209 98.9346 143.266C98.6649 143.302 98.1029 143.48 99.002 143.266C98.8447 143.309 98.6349 143.309 98.47 143.33C97.6009 143.43 96.7317 143.516 95.8625 143.594C95.0758 143.665 94.2965 143.723 93.5098 143.787C93.1576 143.815 92.8055 143.844 92.4608 143.865C91.5392 143.936 92.5957 144.036 92.738 144.036C92.0862 144.036 91.3668 143.844 90.7299 143.751L86.9461 143.224C85.1852 142.974 83.4169 142.732 81.6561 142.482C79.7829 142.218 78.0221 142.774 77.2353 144.542C76.5385 146.118 77.1155 148.142 78.7714 148.99C80.7645 150.017 82.6677 151.186 84.5034 152.462C84.7357 152.618 84.9605 152.782 85.1852 152.946C85.3126 153.039 86.0844 153.595 85.3351 153.046C85.7547 153.345 86.1593 153.659 86.5639 153.973C87.493 154.685 88.4072 155.413 89.3138 156.147C92.7156 158.905 96.0124 161.785 99.549 164.394C103.483 167.302 107.604 169.804 112.287 171.479C117.502 173.347 123.174 173.81 128.696 174.045C134.218 174.28 140.04 174.708 145.323 173.005C149.751 171.572 154.427 170.103 158.488 167.865C160.451 166.782 162.362 165.435 163.845 163.781C165.209 162.263 166.363 160.559 167.524 158.898C169.435 156.175 171.158 153.36 172.507 150.344C174.605 145.654 175.766 140.807 176.471 135.76C176.635 134.591 176.845 133.48 176.553 132.318C176.411 131.747 176.246 131.184 176.088 130.614C175.789 129.516 175.489 128.411 175.189 127.314C174.695 125.51 172.484 124.234 170.581 124.826C168.678 125.418 167.434 127.278 167.966 129.21C168.206 130.087 168.446 130.956 168.685 131.833L169.158 133.572C169.217 133.786 169.277 134 169.33 134.214C169.487 134.791 169.27 133.843 169.225 133.843C169.217 133.843 169.113 134.748 169.105 134.82C169.105 134.805 168.963 135.846 169.045 135.29C169.128 134.734 168.978 135.746 168.978 135.739C168.933 136.038 168.88 136.338 168.835 136.637C168.648 137.756 168.423 138.875 168.168 139.987C167.734 141.855 167.194 143.701 166.52 145.505C166.385 145.861 166.25 146.217 166.1 146.574C166.018 146.78 165.928 146.987 165.838 147.194C165.531 147.935 166.198 146.431 165.861 147.151C165.523 147.871 165.186 148.584 164.812 149.282C164.062 150.694 163.238 152.069 162.354 153.402C161.47 154.735 160.526 156.068 159.574 157.38C159.342 157.701 159.102 158.029 158.87 158.349C158.742 158.527 158.42 159.019 158.9 158.349C158.75 158.556 158.555 158.756 158.383 158.941C158.053 159.29 157.708 159.625 157.349 159.939C157.184 160.081 157.019 160.224 156.847 160.359C156.712 160.466 156.57 160.58 156.435 160.68C156.839 160.388 156.877 160.352 156.547 160.587C155.715 161.122 154.891 161.635 154 162.092C153.595 162.298 153.183 162.498 152.763 162.69C152.508 162.804 152.261 162.918 152.006 163.025C151.834 163.097 151.669 163.168 151.497 163.239C151.115 163.396 151.152 163.382 151.617 163.196C151.377 163.439 150.62 163.581 150.306 163.695C149.781 163.888 149.249 164.08 148.717 164.266C147.706 164.622 146.686 164.964 145.675 165.313C144.663 165.663 143.712 166.04 142.7 166.326C142.048 166.511 141.389 166.661 140.722 166.782C140.393 166.839 140.055 166.896 139.718 166.939C140.557 166.817 139.448 166.953 139.366 166.967C136.743 167.202 134.106 167.11 131.484 167.024C128.861 166.939 126.171 166.839 123.526 166.589C122.957 166.532 122.38 166.475 121.81 166.404C122.664 166.511 121.533 166.361 121.443 166.347C121.106 166.297 120.761 166.24 120.424 166.183C119.068 165.955 117.727 165.663 116.408 165.285C115.876 165.135 115.351 164.971 114.827 164.793C114.565 164.7 114.295 164.608 114.033 164.515L113.77 164.415C113.381 164.266 113.426 164.28 113.883 164.472C113.501 164.444 112.946 164.073 112.609 163.923C112.062 163.674 111.523 163.41 110.991 163.139C109.14 162.191 107.379 161.101 105.686 159.925C105.461 159.768 105.229 159.611 105.004 159.447C104.846 159.333 103.82 158.691 104.637 159.19C104.165 158.905 103.738 158.52 103.303 158.185C102.344 157.444 101.4 156.688 100.463 155.926C98.6499 154.45 96.8666 152.939 95.0608 151.464C91.157 148.277 87.1109 145.17 82.5702 142.839L79.6855 149.354C83.1622 149.838 86.6314 150.33 90.108 150.815C90.9847 150.936 91.8239 151.043 92.7156 150.972C94.289 150.851 95.87 150.729 97.4435 150.565C101.01 150.195 104.652 149.739 108.038 148.577C109.687 148.014 111.365 147.336 112.796 146.36C114.46 145.234 115.808 143.858 117.18 142.432C120.019 139.481 122.717 136.395 125.826 133.7C126.186 133.387 126.553 133.08 126.928 132.774C127.093 132.638 127.258 132.503 127.43 132.375C127.49 132.325 128.344 131.69 127.715 132.147C128.576 131.519 129.475 130.928 130.397 130.372C132.285 129.224 134.256 128.212 136.249 127.25C138.242 126.287 140.235 125.368 142.266 124.505C142.483 124.413 142.693 124.327 142.91 124.234C142.85 124.256 143.914 123.828 143.435 124.021C142.955 124.213 144.019 123.792 143.967 123.814C144.184 123.728 144.401 123.65 144.618 123.564C145.712 123.158 146.821 122.773 147.938 122.431C149.054 122.089 150.246 121.754 151.422 121.504C152.036 121.369 152.651 121.262 153.273 121.162C154.014 121.048 153.445 121.141 153.295 121.162C153.632 121.127 153.97 121.098 154.314 121.077C154.989 121.034 155.67 121.027 156.345 121.055C156.57 121.062 156.794 121.084 157.019 121.098C158.091 121.162 156.307 120.941 157.356 121.141C157.911 121.248 158.458 121.362 158.997 121.519C159.289 121.604 159.574 121.704 159.859 121.804C159.252 121.597 159.776 121.768 160.076 121.911C161.043 122.36 161.919 122.916 162.789 123.5C163.283 123.828 162.137 122.958 162.871 123.572C163.103 123.764 163.336 123.949 163.568 124.142C163.95 124.463 164.317 124.798 164.677 125.14C165.089 125.532 165.486 125.938 165.876 126.351C166.055 126.544 166.22 126.736 166.4 126.929C166.917 127.492 166.115 126.494 166.602 127.171C167.269 128.098 167.869 129.032 168.348 130.065C169.143 131.776 171.907 132.303 173.473 131.341C175.339 130.193 175.661 128.297 174.815 126.466L174.777 126.458Z" fill="#B18EB2"/>
</svg>
