<svg width="257" height="261" viewBox="0 0 257 261" fill="none" xmlns="http://www.w3.org/2000/svg">
<path d="M186.914 107.887C184.021 111.169 181.13 114.442 178.228 117.721C177.672 118.353 177.032 119.027 176.141 119.051C175.541 119.066 174.949 118.788 174.344 118.662C172.686 118.311 171.178 119.145 169.619 119.56C168.06 119.975 165.911 119.704 165.152 118.124C164.463 116.636 163.093 115.406 161.562 114.899C161.848 114.246 162.134 113.594 162.419 112.95C158.274 110.842 154.534 107.734 151.658 104.006L153.567 103.611C151.365 100.812 149.474 97.7908 147.929 94.633C148.18 94.0859 148.748 93.7261 149.374 93.7081C148.65 91.7355 146.965 90.1719 146.05 88.2641C145.144 86.3495 145.582 83.5671 147.585 83.4955C148.133 83.4785 148.696 83.6732 149.236 83.6373C150.882 83.5351 151.46 81.4588 151.052 79.786C150.644 78.1133 149.61 76.5627 149.379 74.8831C149.148 73.2036 150.267 71.2739 151.919 71.7025C152.401 71.8282 152.875 72.1432 153.338 72.0827C154.147 71.9897 154.317 70.9487 154.232 70.1151C153.959 67.3072 152.667 64.575 152.182 61.7754C151.697 58.9757 152.314 55.7445 154.772 54.7165C155.512 54.4095 156.439 54.2715 156.834 53.5807C157.563 52.2907 155.87 50.2134 156.781 49.0566C157.207 48.5196 158.012 48.4692 158.606 48.1233C160.731 46.8704 159.478 42.3929 161.938 41.8342C163.608 41.4506 165.101 43.3913 166.006 45.0192C169.395 51.1276 174.265 58.1237 180.881 58.3379C179.464 55.8315 178.012 53.2224 177.69 50.4652C177.369 47.7081 178.507 44.7582 181.031 43.9783C181.56 40.7547 179.518 36.3398 182.112 34.5504C184.079 33.1952 187.217 34.7384 189.386 33.6941C190.681 33.0681 191.332 31.6664 192.376 30.7019C193.832 29.3539 195.944 28.949 197.813 28.2072C199.682 27.4655 201.545 26.0889 201.597 23.9906C203.748 25.7548 206.689 26.4412 209.118 25.7286C210.076 25.4493 210.972 24.9663 211.99 24.8905C213.346 24.789 214.726 25.4044 216.101 25.6801C221.456 26.7357 225.683 22.5846 228.975 18.7609C224.492 23.0153 226.886 31.2525 230.838 36.9653C231.353 37.7141 231.91 38.489 232.072 39.3471C232.482 41.6017 230.027 43.4027 230.686 45.6307C231.325 47.768 234.444 48.7342 234.862 50.895C235.124 52.2251 234.2 53.5269 234.739 54.8015C235.133 55.7335 236.192 56.2998 236.613 57.2201C236.937 57.9382 236.816 58.7203 236.69 59.4494C236.14 62.5209 235.589 65.5923 235.038 68.6638C234.781 70.0862 234.926 72.1472 236.39 72.5193C235.574 74.2948 234.759 76.0618 233.952 77.8391C239.863 76.97 245.541 75.2369 250.787 72.7114C252.344 76.1406 248.721 80.625 251.658 83.0638C252.257 83.5609 253.066 83.8671 253.393 84.5511C253.714 85.2077 253.449 85.9167 253.193 86.532C251.11 91.4217 249.027 96.3114 246.953 101.203C246.477 102.319 245.994 103.504 246.155 104.779C246.252 105.58 246.606 106.365 246.659 107.166C246.807 109.392 244.734 110.76 243.61 112.533C242.396 114.443 242.283 116.928 241.496 119.082C240.709 121.237 238.712 123.237 236.351 122.566C237.253 123.412 236.653 124.842 235.737 125.451C234.821 126.06 233.618 126.332 233.027 127.26C232.639 127.865 232.567 128.692 232.048 129.184C231.578 129.633 230.85 129.7 230.178 129.743C224.873 130.121 219.578 130.501 214.273 130.88C211.075 130.114 207.886 129.35 204.689 128.585C204.05 128.435 203.379 128.262 202.863 127.825C202.265 127.32 201.981 126.549 201.71 125.825C199.149 118.89 195.661 112.205 191.371 106.032C181.367 118.058 174.456 132.755 171.329 148.651" fill="#6D8443"/>
<path d="M185.143 106.431C183.218 108.619 181.285 110.798 179.361 112.986C178.394 114.08 177.444 115.185 176.469 116.268C176.323 116.429 176.021 116.861 175.764 116.886C175.267 116.931 174.433 116.507 173.901 116.457C172.462 116.316 171.161 116.697 169.865 117.132C169.077 117.395 168.139 117.756 167.302 117.47C166.884 117.323 167.303 117.557 166.979 117.143C166.552 116.594 166.291 115.959 165.818 115.427C164.858 114.334 163.669 113.454 162.331 112.96L163.613 115.899C163.899 115.247 164.185 114.594 164.47 113.95C164.93 112.908 164.248 111.56 163.188 111.011C159.366 109.039 156.013 106.245 153.331 102.816L152.597 106.076L154.505 105.681C155.849 105.403 156.053 103.475 155.239 102.421C153.159 99.7596 151.382 96.9439 149.903 93.9467L149.714 96.0953C149.972 95.6626 149.946 95.8569 149.777 95.8826C151.182 95.7132 151.902 94.4213 151.339 93.0199C150.647 91.2794 149.405 89.8853 148.418 88.3007C148.071 87.7428 147.898 87.4033 147.81 86.899C147.727 86.4476 147.775 86.0931 147.964 85.646C147.952 85.6869 147.884 85.8637 147.981 85.6496C148.11 85.3897 148.015 85.6738 147.981 85.6496C147.873 85.5837 148.059 85.6657 148.076 85.6693C149.014 85.8112 149.923 85.8864 150.778 85.56C152.336 84.9534 153.168 83.3809 153.34 81.7237C153.51 79.9794 152.821 78.3089 152.131 76.6469C151.898 76.0867 151.543 75.2231 151.528 74.7946C151.513 74.3661 151.634 73.8877 151.954 73.7457C151.359 74.0046 153.16 74.2383 153.406 74.2458C154.425 74.2571 155.262 73.8486 155.824 73.0535C156.809 71.6513 156.436 69.5862 156.03 67.8876C155.31 64.8652 153.529 61.389 154.491 58.4455C154.9 57.1848 155.631 56.876 156.781 56.4106C158.532 55.6967 159.443 54.2444 159.162 52.2245C159.082 51.6264 158.925 50.9082 158.731 50.3209C158.653 50.0966 158.765 50.1284 158.728 50.1468C158.728 50.1468 158.54 50.5939 158.532 50.5751C158.557 50.6931 158.692 50.5561 158.893 50.4761C159.093 50.3961 159.266 50.3362 159.45 50.2441C160.798 49.6203 161.577 48.4534 161.96 47.0047C162.131 46.3544 162.25 45.6933 162.379 45.034C162.456 44.6508 162.405 44.8312 162.49 44.5623C162.537 44.4246 162.585 44.2868 162.632 44.149C162.758 43.8191 162.597 44.1418 162.708 43.9824C162.87 43.7467 162.679 44.0197 162.655 43.9888L162.73 43.9349C162.843 43.854 162.833 43.8607 162.703 43.9465C162.695 43.9362 162.733 44.0049 162.758 44.0187C163.32 44.4302 163.744 45.1084 164.089 45.6919C168.059 52.399 172.971 60.0912 181.32 60.4994C182.642 60.5648 183.559 58.8361 182.881 57.6367C181.259 54.7662 179.001 51.1131 180.146 47.9905C180.342 47.4581 180.614 46.959 181.027 46.5669C181.706 45.9436 182.719 45.9361 183.094 44.9634C183.696 43.4126 183.22 41.2219 183.051 39.5375C182.948 38.5006 182.672 36.9245 183.54 36.3661C184.501 35.7403 186.297 36.2249 187.447 36.246C189.327 36.2876 190.908 35.712 192.162 34.4524C193.204 33.4007 193.895 32.146 195.312 31.5279C197.069 30.7543 198.979 30.3508 200.615 29.344C202.344 28.2868 203.637 26.5839 203.791 24.4281L200.38 25.5974C203.055 27.7047 206.38 28.61 209.439 27.9408C210.668 27.6742 211.808 26.9034 213.145 27.1105C214.717 27.3489 216.187 27.9397 217.782 28.0093C223.409 28.2451 227.559 23.9562 230.79 20.215C231.514 19.3839 231.195 17.9029 230.268 17.1381C229.218 16.2697 228.035 16.5197 227.246 17.2939C224.308 20.2016 223.911 24.8246 224.992 29.0588C225.542 31.2126 226.377 33.3299 227.486 35.3304C228.017 36.2996 228.604 37.237 229.227 38.156C229.679 38.8224 230.111 39.3197 229.924 40.045C229.696 40.9354 229.145 41.7067 228.84 42.5725C228.453 43.6731 228.324 44.8444 228.685 46.0561C229.285 48.038 230.925 49.098 232.343 50.4938C232.505 50.6489 232.657 50.8193 232.741 50.9669C232.642 50.7987 232.813 51.355 232.769 51.0508C232.789 51.2199 232.802 51.1791 232.75 51.4636C232.528 52.6937 232.247 53.8942 232.714 55.1974C233.103 56.2763 233.869 56.7733 234.475 57.6887C234.957 58.4049 234.484 59.4876 234.348 60.2406C233.846 63.0536 233.132 65.8833 232.837 68.7477C232.58 71.2814 233.531 73.7872 236.231 74.6933L234.385 71.5681C233.569 73.3438 232.755 75.111 231.948 76.8886C231.318 78.2599 232.802 80.2946 234.379 80.0654C240.477 79.1485 246.321 77.4237 251.738 74.8295L248.85 73.4506C249.032 73.8875 249.072 74.3299 249.046 74.8365C249.005 75.6007 248.861 76.3434 248.717 77.0777C248.453 78.49 248.129 79.9768 248.455 81.4766C248.639 82.2873 248.975 83.0773 249.495 83.7666C249.755 84.1155 250.095 84.4463 250.422 84.731C250.586 84.8691 251.314 85.4972 251.508 85.4939C251.649 85.4884 251.736 85.8971 251.511 85.2601C251.299 84.6608 251.352 85.1665 251.24 85.4385C251.047 85.9367 250.828 86.421 250.618 86.9157C250.164 87.9849 249.71 89.0456 249.256 90.1148C248.379 92.1818 247.494 94.2555 246.618 96.3225C245.742 98.3896 244.726 100.245 244.215 102.362C243.954 103.436 243.902 104.528 244.171 105.669C244.339 106.372 244.632 107.04 244.407 107.697C244.183 108.354 243.622 108.932 243.171 109.455C242.514 110.231 241.892 111.005 241.407 111.911C240.377 113.834 240.247 116.116 239.479 118.153C239.021 119.369 238.029 120.857 236.555 120.5C234.78 120.08 233.37 122.314 234.707 123.824C234.298 123.366 235.037 123.267 234.565 123.534C234.556 123.541 234.312 123.716 234.228 123.768C233.594 124.175 232.852 124.412 232.25 124.86C231.506 125.418 231.027 126.161 230.679 127.027C230.406 127.726 230.41 127.579 229.586 127.643C225.336 127.952 221.079 128.252 216.829 128.553C215.944 128.613 214.967 128.819 214.063 128.701C212.974 128.571 211.813 128.166 210.728 127.898C208.695 127.408 206.589 127.05 204.576 126.425C203.976 126.24 203.992 125.966 203.747 125.342C203.375 124.362 203.012 123.385 202.613 122.417C201.86 120.576 201.042 118.758 200.161 116.97C198.107 112.795 195.717 108.749 193.046 104.889C192.18 103.634 190.409 103.658 189.612 104.621C181.712 114.159 175.666 125.33 171.904 137.442C170.803 140.973 169.914 144.591 169.179 148.259C168.958 149.376 170.073 150.614 171.153 150.837C172.423 151.1 173.278 150.279 173.5 149.153C176.586 133.61 183.398 119.317 193.148 107.541L189.714 107.273C192.353 111.1 194.677 115.097 196.662 119.249C197.696 121.408 198.629 123.606 199.473 125.829C200.316 128.052 201.345 129.863 203.858 130.6C206.371 131.337 208.743 131.784 211.164 132.363C212.285 132.63 213.537 133.098 214.662 133.105C215.92 133.113 217.185 132.924 218.425 132.833C220.939 132.659 223.445 132.474 225.959 132.3C227.074 132.218 228.19 132.137 229.305 132.064C230.42 131.991 231.536 131.996 232.504 131.597C233.818 131.053 234.162 130.039 234.775 128.873C235.166 128.12 236.161 127.91 236.867 127.491C238.742 126.369 239.837 123.514 237.995 121.44L236.147 124.764C238.335 125.286 240.281 124.474 241.699 123.04C243.118 121.606 243.727 119.675 244.193 117.67C244.445 116.603 244.681 115.523 245.119 114.537C245.49 113.711 246.103 113.048 246.68 112.378C248.005 110.811 249.092 109.057 248.731 106.751C248.584 105.81 248.143 104.92 248.331 103.986C248.552 102.86 249.175 101.782 249.608 100.752C250.571 98.4949 251.526 96.2358 252.489 93.9784C253.452 91.7211 254.53 89.557 255.338 87.2675C256.145 84.9779 255.171 82.8405 252.897 81.493C252.436 81.2241 252.72 81.3002 252.784 81.3742C252.982 81.6235 252.669 81.1768 252.643 81.0759C252.735 81.4249 252.637 80.9444 252.635 80.8659C252.626 80.6644 252.616 80.9835 252.62 80.6285C252.635 79.7634 252.822 78.9255 252.983 78.0993C253.359 76.1111 253.595 74.12 252.737 72.0673C252.301 71.0221 250.831 70.2232 249.849 70.6884C244.762 73.1167 239.289 74.8399 233.556 75.7023L235.988 78.8791C236.803 77.1034 237.618 75.3362 238.425 73.5586C239.045 72.2026 237.861 70.8551 236.578 70.4334C236.194 70.3017 237.09 70.713 237.116 70.7183C237.341 70.7648 237.063 71.0284 237.174 70.765C237.241 70.5966 237.096 70.0457 237.109 69.9008C237.185 68.8314 237.444 67.7826 237.631 66.745C238.046 64.4261 238.495 62.1059 238.884 59.7817C239.053 58.7491 239.074 57.6161 238.585 56.5687C238.133 55.5984 237.213 55.0522 236.719 54.1686C236.68 54.1085 236.751 54.6007 236.745 54.1654C236.738 53.9469 236.792 53.7324 236.829 53.5142C236.916 53.0201 237.037 52.5417 237.073 52.0369C237.136 50.9128 236.825 49.8415 236.183 48.8404C235.346 47.5474 233.673 46.5588 232.934 45.5467C232.73 45.2699 232.693 45.1928 232.822 44.7162C233.067 43.8293 233.601 43.0629 233.905 42.1971C234.658 40.0351 234.079 38.1096 232.699 36.0793C231.57 34.4132 230.612 32.6958 229.885 30.844C228.426 27.1217 228.026 22.9417 230.752 20.2505L227.207 17.3294C224.741 20.1784 221.37 24.1077 216.946 23.6956C215.715 23.5798 214.513 23.0445 213.289 22.8521C211.779 22.6177 210.479 22.8955 209.135 23.3726C207.046 24.1209 204.842 23.9772 202.851 22.4019C201.51 21.3431 199.56 21.9118 199.441 23.5712C199.251 26.2404 195.179 26.6217 193.281 27.4964C191.769 28.1904 190.63 29.1439 189.594 30.4226C188.765 31.449 188.201 31.9574 186.786 31.9509C185.37 31.9443 183.861 31.6929 182.442 32.0242C180.925 32.37 179.693 33.3824 179.093 34.8035C177.94 37.5164 179.281 40.6932 178.879 43.5702L180.112 41.9503C177.245 42.9455 175.605 45.7921 175.494 48.8681C175.374 52.4544 177.125 55.8552 178.938 59.0604L180.5 56.1977C177.574 56.0523 174.926 53.9503 172.976 51.7064C171.769 50.3195 170.703 48.8314 169.729 47.2931C168.755 45.7547 167.978 44.0834 166.91 42.6124C165.661 40.9042 163.808 39.4617 161.732 39.6656C160.126 39.8194 158.98 40.9452 158.474 42.4031C158.25 43.0512 158.128 43.7463 157.997 44.4312C157.867 45.116 157.868 45.3072 157.592 45.9446C157.592 45.9446 157.454 46.2112 157.388 46.2669C157.577 46.1151 156.934 46.4248 156.879 46.4481C155.941 46.8181 155.068 47.3407 154.658 48.3062C154.337 49.0558 154.331 49.9312 154.486 50.7707C154.545 51.0955 154.641 51.4104 154.719 51.7218C154.753 51.8416 154.779 52.1422 154.847 52.2691C155.381 53.3084 154.735 52.35 154.92 52.4405C154.76 52.3639 155.431 52.2337 155.041 52.2658C155.13 52.2581 154.712 52.4061 154.794 52.371C154.501 52.5014 154.187 52.5752 153.886 52.6952C153.055 53.0441 152.352 53.5409 151.749 54.1974C149.51 56.6509 149.627 60.5466 150.523 63.866C151.056 65.8166 151.785 67.7469 152.068 69.7327C152.078 69.8215 152.09 70.4838 152.107 70.4959C152.098 70.4941 152.154 70.3581 152.171 70.3702L153.07 69.9486L152.506 69.7539C151.59 69.4687 150.684 69.4636 149.854 69.8039C148.284 70.4428 147.355 72.1167 147.24 73.8291C147.103 75.7888 148.131 77.6161 148.803 79.4827C149.044 80.1488 149.16 80.7285 148.974 81.2456C148.915 81.4242 148.805 81.5665 148.787 81.5715C149.068 81.482 148.445 81.4658 148.314 81.4561C146.258 81.2216 144.567 82.0436 143.848 83.9261C143.256 85.4616 143.395 87.3915 144.141 89.0215C145.027 90.9584 146.678 92.498 147.464 94.4664L149.026 91.6037C147.692 91.7618 146.438 92.4224 145.938 93.7079C145.438 94.9934 146.652 96.703 147.329 97.9194C148.691 100.345 150.221 102.667 151.945 104.882L152.679 101.622L150.77 102.017C149.426 102.295 149.222 104.223 150.036 105.277C153.2 109.326 157.195 112.635 161.697 114.965L160.415 112.026C160.129 112.678 159.844 113.331 159.558 113.975C159.151 114.915 159.724 116.501 160.84 116.914C161.957 117.327 162.712 117.944 163.295 119.019C164.083 120.467 165.381 121.422 166.931 121.803C168.301 122.139 169.651 121.984 170.916 121.612C172.18 121.24 173.299 120.621 174.733 121.022C176.391 121.478 177.858 121.304 179.068 120.243C180.202 119.246 181.138 118.007 182.143 116.878C184.331 114.397 186.528 111.909 188.716 109.427C190.455 107.452 186.91 104.54 185.172 106.506L185.143 106.431Z" fill="#6D8443"/>
<path d="M218.841 32.8377C216.341 41.7035 212.514 50.1088 208.673 58.3653C204.302 67.7641 199.623 76.9902 194.909 86.1923C192.736 90.4253 190.554 94.6565 188.415 98.9049C187.916 99.8988 188.649 101.309 189.719 101.813C190.91 102.376 192.075 101.875 192.584 100.874C196.705 92.6993 200.955 84.5927 205.06 76.3973C209.686 67.1607 214.22 57.8543 218.184 48.2717C220.004 43.874 221.72 39.4215 223.019 34.8004C223.328 33.7173 222.923 32.467 221.715 31.8923C220.679 31.4034 219.161 31.7394 218.851 32.831L218.841 32.8377Z" fill="#5B6E30"/>
<path d="M157.324 96.4752C160.145 102.378 164.81 107.333 170.466 110.414C171.499 110.974 172.866 110.515 173.221 109.456C173.589 108.338 173.076 107.088 171.968 106.485C170.546 105.711 169.997 105.358 168.748 104.383C167.629 103.515 166.571 102.553 165.588 101.52C165.754 101.696 165.659 101.597 165.548 101.477C165.406 101.315 165.264 101.162 165.123 100.992C164.887 100.722 164.66 100.446 164.433 100.17C164.004 99.6398 163.601 99.098 163.209 98.5407C163.001 98.2421 162.811 97.9471 162.612 97.6503C162.513 97.4976 162.422 97.3467 162.323 97.194C162.331 97.2044 162.021 96.6909 162.142 96.8922C162.269 97.1124 161.992 96.632 161.97 96.5835C161.88 96.4239 161.799 96.2662 161.717 96.1171C161.531 95.7703 161.363 95.4185 161.195 95.0667C160.683 93.9922 159.407 93.2399 158.353 93.6773C157.363 94.0927 156.777 95.3141 157.325 96.4665L157.324 96.4752Z" fill="#5B6E30"/>
<path d="M164.474 68.4701C167.334 75.4225 171.292 82.0355 176.119 87.9311C176.907 88.887 178.232 89.2221 179.157 88.5598C180.018 87.9363 180.218 86.4965 179.431 85.532C174.824 79.9086 171.11 73.703 168.377 67.0734C167.274 64.3879 163.371 65.7761 164.475 68.4615L164.474 68.4701Z" fill="#5B6E30"/>
<path d="M233.271 86.6347C224.407 92.3411 214.081 95.6417 203.261 96.3265C200.573 96.4969 201.313 100.93 204.018 100.764C215.583 100.034 226.539 96.4337 235.997 90.3486C238.208 88.932 235.474 85.2163 233.272 86.626L233.271 86.6347Z" fill="#5B6E30"/>
<path d="M222.037 114.314C221.135 114.681 220.212 114.998 219.275 115.269C218.772 115.41 218.269 115.542 217.759 115.664C217.68 115.682 217.127 115.795 217.513 115.717C217.259 115.77 216.996 115.82 216.742 115.863C214.8 116.211 212.806 116.352 210.794 116.312C209.685 116.288 208.843 117.547 209.079 118.682C209.347 119.958 210.363 120.744 211.55 120.768C215.815 120.847 220.008 120.075 223.847 118.534C224.838 118.133 225.407 116.851 224.869 115.713C224.331 114.575 223.108 113.886 222.046 114.307L222.037 114.314Z" fill="#5B6E30"/>
<path d="M188.243 44.8015C188.961 50.0994 190.47 55.3759 192.657 60.4177C193.139 61.5354 194.51 62.15 195.564 61.7838C196.617 61.4177 197.097 60.1575 196.615 59.0397C194.56 54.2927 193.233 49.5459 192.543 44.5216C192.386 43.3485 191.131 42.429 189.999 42.4939C188.795 42.5702 188.077 43.6181 188.234 44.7997L188.243 44.8015Z" fill="#5B6E30"/>
<path d="M224.003 63.4854C220.136 66.4771 216.089 69.2299 211.883 71.7304C210.964 72.2826 210.876 73.8578 211.611 74.7736C212.449 75.8071 213.65 75.9883 214.632 75.4056C218.839 72.8966 222.885 70.1437 226.752 67.1606C227.594 66.5047 227.815 65.0973 227.025 64.1175C226.234 63.1377 224.909 62.7904 224.003 63.4854Z" fill="#5B6E30"/>
<path d="M72.7412 235.296C91.0307 235.296 105.857 222.388 105.857 206.464C105.857 190.54 91.0307 177.631 72.7412 177.631C54.4516 177.631 39.625 190.54 39.625 206.464C39.625 222.388 54.4516 235.296 72.7412 235.296Z" fill="#8076B6"/>
<path d="M46.9887 200.584C46.3906 208.807 51.0997 216.45 57.4728 220.886C64.5963 225.845 73.7318 226.63 82.019 225.663C83.4763 225.492 84.7379 224.48 84.7379 222.82C84.7379 221.409 83.4872 219.806 82.019 219.976C74.8846 220.806 67.1847 220.465 60.8986 216.439C55.6892 213.095 51.948 207.112 52.4265 200.584C52.5353 199.048 51.0997 197.74 49.7076 197.74C48.1415 197.74 47.0975 199.048 46.9887 200.584Z" fill="#A09BCC"/>
<path d="M135.054 260.863C153.343 260.863 168.17 247.954 168.17 232.03C168.17 216.106 153.343 203.197 135.054 203.197C116.764 203.197 101.938 216.106 101.938 232.03C101.938 247.954 116.764 260.863 135.054 260.863Z" fill="#8076B6"/>
<path d="M109.301 226.15C108.703 234.373 113.412 242.017 119.785 246.453C126.909 251.412 136.044 252.196 144.331 251.23C145.789 251.059 147.05 250.047 147.05 248.386C147.05 246.976 145.8 245.372 144.331 245.543C137.197 246.373 129.497 246.032 123.211 242.005C118.002 238.661 114.26 232.679 114.739 226.15C114.848 224.615 113.412 223.307 112.02 223.307C110.454 223.307 109.41 224.615 109.301 226.15Z" fill="#A09BCC"/>
<path d="M109.465 204.802C126.493 204.802 140.297 194.414 140.297 181.599C140.297 168.785 126.493 158.396 109.465 158.396C92.4369 158.396 78.6328 168.785 78.6328 181.599C78.6328 194.414 92.4369 204.802 109.465 204.802Z" fill="#775CA3"/>
<path d="M94.7269 169.566C94.2049 171.033 93.2804 172.534 92.8019 174.115C92.3234 175.696 92.269 177.368 92.4974 179.006C92.9324 182.054 94.5964 184.909 96.7606 186.979C99.175 189.311 102.22 190.71 105.385 191.551C106.886 191.95 108.419 192.223 109.953 192.473C110.779 192.609 111.617 192.723 112.443 192.848C112.802 192.905 113.15 192.95 113.509 193.007C113.683 193.03 113.868 193.064 114.042 193.11C114.618 193.326 114.433 193.121 113.476 192.507C114.336 193.747 115.836 194.361 117.196 193.531C118.37 192.814 119.034 190.892 118.175 189.641C117.054 188.026 115.673 187.627 113.89 187.355C112.411 187.127 110.921 186.922 109.452 186.649C106.668 186.126 103.852 185.398 101.492 183.703C99.8167 182.498 98.3593 180.462 97.9026 178.381C97.9026 178.335 97.7829 177.471 97.8156 177.937C97.7829 177.584 97.7829 177.232 97.7938 176.879C97.8156 176.413 97.8917 176.015 98.1636 175.287C98.653 173.945 99.4686 172.5 99.9798 171.067C100.491 169.634 99.4034 167.951 98.0766 167.564C96.554 167.12 95.2489 168.11 94.7269 169.554V169.566Z" fill="#9C8AC0"/>
<path d="M31.7787 134.216C45.6232 134.216 56.8465 123.891 56.8465 111.155C56.8465 98.4186 45.6232 88.0938 31.7787 88.0938C17.9342 88.0938 6.71094 98.4186 6.71094 111.155C6.71094 123.891 17.9342 134.216 31.7787 134.216Z" fill="#85B726"/>
<path d="M65.0681 135.621C77.4502 135.621 87.4878 125.195 87.4878 112.334C87.4878 99.4729 77.4502 89.0469 65.0681 89.0469C52.6861 89.0469 42.6484 99.4729 42.6484 112.334C42.6484 125.195 52.6861 135.621 65.0681 135.621Z" fill="#80A02A"/>
<path d="M49.8823 218.302C62.9901 218.302 73.6161 207.265 73.6161 193.65C73.6161 180.035 62.9901 168.998 49.8823 168.998C36.7745 168.998 26.1484 180.035 26.1484 193.65C26.1484 207.265 36.7745 218.302 49.8823 218.302Z" fill="#80A02A"/>
<path d="M71.3833 203.317C86.0191 203.317 97.8838 190.993 97.8838 175.791C97.8838 160.589 86.0191 148.266 71.3833 148.266C56.7475 148.266 44.8828 160.589 44.8828 175.791C44.8828 190.993 56.7475 203.317 71.3833 203.317Z" fill="#85B726"/>
<path d="M22.5877 193.178C35.0625 193.178 45.1753 180.316 45.1753 164.451C45.1753 148.586 35.0625 135.725 22.5877 135.725C10.1128 135.725 0 148.586 0 164.451C0 180.316 10.1128 193.178 22.5877 193.178Z" fill="#80A02A"/>
<path d="M133.795 203.317C148.218 203.317 159.91 191.173 159.91 176.192C159.91 161.211 148.218 149.066 133.795 149.066C119.372 149.066 107.68 161.211 107.68 176.192C107.68 191.173 119.372 203.317 133.795 203.317Z" fill="#A0C528"/>
<path d="M125.239 168.042C135.956 158.092 135.272 139.135 123.711 125.701C112.15 112.266 94.0907 109.44 83.3737 119.389C72.6566 129.339 73.3406 148.295 84.9013 161.73C96.462 175.165 114.522 177.991 125.239 168.042Z" fill="#80A02A"/>
<path d="M73.483 189.403C90.778 185.427 102.206 170.037 99.0076 155.028C95.8095 140.019 79.1965 131.075 61.9014 135.051C44.6063 139.027 33.1786 154.417 36.3767 169.426C39.5749 184.435 56.1879 193.379 73.483 189.403Z" fill="#A0C528"/>
<path d="M121.222 129.279C135.826 129.279 147.664 117.971 147.664 104.021C147.664 90.0719 135.826 78.7637 121.222 78.7637C106.619 78.7637 94.7812 90.0719 94.7812 104.021C94.7812 117.971 106.619 129.279 121.222 129.279Z" fill="#85B726"/>
<path d="M163.304 173.554C173.061 164.496 172.497 147.307 162.046 135.161C151.594 123.015 135.212 120.512 125.455 129.57C115.699 138.628 116.262 155.817 126.713 167.963C137.165 180.109 153.547 182.612 163.304 173.554Z" fill="#85B726"/>
<path d="M171.311 186.024C188.517 186.024 202.465 174.197 202.465 159.607C202.465 145.017 188.517 133.189 171.311 133.189C154.105 133.189 140.156 145.017 140.156 159.607C140.156 174.197 154.105 186.024 171.311 186.024Z" fill="#A0C528"/>
<path d="M181.496 195.289C197.017 187.788 204.999 171.438 199.325 158.77C193.651 146.102 176.469 141.913 160.947 149.413C145.426 156.914 137.444 173.264 143.118 185.932C148.792 198.6 165.975 202.789 181.496 195.289Z" fill="#85B726"/>
<path d="M124.598 234.156C139.861 234.156 152.235 224.217 152.235 211.957C152.235 199.697 139.861 189.758 124.598 189.758C109.334 189.758 96.9609 199.697 96.9609 211.957C96.9609 224.217 109.334 234.156 124.598 234.156Z" fill="#80A02A"/>
<path d="M50.5534 104.226C49.259 109.05 49.8617 114.387 52.3517 118.697C54.6441 122.659 58.3593 125.574 62.608 126.898C65.6612 127.852 66.9655 122.895 63.9222 121.951C60.8789 121.007 58.2407 118.923 56.6202 116.111C54.7626 112.909 54.3674 109.122 55.316 105.591C56.1756 102.41 51.413 101.045 50.5534 104.226Z" fill="#A0C528"/>
<path d="M106.49 167.683C110.522 168.627 114.948 167.827 118.298 165.261C118.831 164.851 119.247 164.42 119.434 163.732C119.592 163.116 119.523 162.295 119.187 161.751C118.525 160.684 116.915 159.976 115.808 160.827C115.116 161.361 114.375 161.792 113.595 162.182C113.348 162.295 113.397 162.275 113.743 162.121C113.644 162.162 113.545 162.203 113.446 162.244C113.298 162.305 113.14 162.357 112.992 162.408C112.587 162.552 112.172 162.665 111.757 162.757C111.549 162.808 111.332 162.839 111.124 162.88C110.858 162.921 110.917 162.911 111.302 162.86C111.194 162.87 111.085 162.89 110.986 162.901C110.611 162.942 110.235 162.962 109.86 162.962C109.435 162.962 109.01 162.931 108.575 162.901C108.298 162.87 108.358 162.88 108.753 162.931C108.644 162.911 108.546 162.901 108.437 162.88C108.229 162.839 108.012 162.798 107.804 162.747C106.55 162.449 105.067 163.147 104.761 164.543C104.475 165.846 105.137 167.386 106.49 167.704V167.683Z" fill="#A0C528"/>
<path d="M101.963 140.835C105.036 139.86 107.645 137.797 109.424 135.026C109.769 134.492 109.829 133.651 109.671 133.045C109.512 132.44 109.068 131.803 108.534 131.516C107.289 130.839 105.916 131.239 105.155 132.44C105.017 132.655 104.868 132.871 104.72 133.076L105.106 132.553C104.532 133.322 103.861 134.02 103.12 134.626L103.623 134.225C102.853 134.841 102.013 135.354 101.114 135.755L101.707 135.498C101.361 135.652 101.005 135.775 100.649 135.898C100.047 136.093 99.4933 136.504 99.1771 137.079C98.8609 137.653 98.7324 138.444 98.93 139.059C99.3352 140.353 100.649 141.276 101.973 140.855L101.963 140.835Z" fill="#A0C528"/>
<path d="M33.0075 195.836C31.9107 200.495 34.2426 204.991 37.7602 207.782C41.2778 210.574 45.6945 211.313 49.8643 212.154C51.129 212.411 52.5914 211.785 52.9076 210.358C53.1842 209.086 52.542 207.474 51.1784 207.197C49.3406 206.828 47.5027 206.489 45.6945 205.976C43.8863 205.463 42.6216 205.011 40.9912 203.903C40.8331 203.79 40.675 203.677 40.5268 203.564C40.3193 203.4 40.7146 203.749 40.3984 203.441C40.0822 203.133 39.766 202.846 39.4795 202.528C39.351 202.384 39.2226 202.23 39.0941 202.076C38.6198 201.512 39.3214 202.456 38.9162 201.83C38.6989 201.501 38.4914 201.173 38.3135 200.814C38.2048 200.608 38.106 200.393 38.0072 200.177C38.1554 200.516 38.027 200.208 37.9677 200.034C37.8294 199.633 37.7404 199.223 37.6614 198.802C37.7404 199.172 37.6713 198.925 37.6614 198.689C37.6515 198.494 37.6416 198.309 37.6416 198.114C37.6416 198.053 37.7009 197.293 37.6317 197.878C37.6614 197.642 37.7207 197.417 37.7701 197.191C38.0764 195.887 37.3748 194.348 36.0409 194.03C34.707 193.712 33.3335 194.43 32.9976 195.826L33.0075 195.836Z" fill="#A0C528"/>
<path d="M106.009 206.991C104.566 213.344 107.817 219.564 112.737 223.217C115.277 225.106 118.29 226.306 121.304 227.086C122.826 227.476 124.367 227.764 125.909 228C127.638 228.256 129.426 228.636 130.997 227.569C133.645 225.773 131.175 221.329 128.507 223.135C128.527 223.156 128.547 223.166 128.576 223.166C128.705 223.176 128.606 223.176 128.28 223.166C128.063 223.166 127.825 223.125 127.618 223.094C127.015 223.022 126.413 222.909 125.81 222.807C124.624 222.601 123.438 222.345 122.282 222.037C119.881 221.39 117.599 220.456 115.544 218.989C112.263 216.659 109.892 212.318 110.801 208.346C111.532 205.134 106.769 203.769 106.038 206.981L106.009 206.991Z" fill="#A0C528"/>
<path d="M15.3216 148.092C15.3809 147.928 15.4402 147.753 15.4995 147.589L15.2525 148.205C15.4995 147.609 15.8058 147.065 16.1813 146.552L15.7959 147.076C16.2208 146.511 16.705 146.008 17.2484 145.567L16.7445 145.967C17.2978 145.536 17.8808 145.177 18.523 144.89L17.9302 145.146C18.5329 144.89 19.1554 144.705 19.8075 144.613L19.1554 144.705C19.4617 144.664 19.768 144.643 20.0743 144.643C21.3687 144.633 22.6038 143.473 22.5445 142.078C22.4853 140.682 21.4577 139.502 20.0743 139.512C15.7762 139.553 11.9523 142.55 10.5591 146.737C10.1342 148.01 11.0432 149.6 12.2882 149.898C13.6617 150.227 14.877 149.467 15.3315 148.102L15.3216 148.092Z" fill="#A0C528"/>
<path d="M176.801 237.307C190.835 244.659 206.111 242.286 210.921 232.006C215.73 221.726 208.251 207.432 194.217 200.08C180.182 192.728 164.906 195.101 160.097 205.381C155.288 215.661 162.766 229.955 176.801 237.307Z" fill="#85B726"/>
<path d="M169.983 201.914C166.302 205.862 165.095 211.848 166.504 217.15C168.144 223.359 173.854 226.752 178.991 229.386C180.191 230.006 181.708 229.3 182.223 228.063C182.764 226.742 182.123 225.277 180.923 224.657C177.014 222.655 172.507 220.292 171.159 215.608C170.999 215.038 170.85 213.923 170.819 213.068C170.794 212.322 170.908 211.246 171.077 210.362C171.47 208.389 172.44 206.641 173.83 205.156C174.756 204.161 174.405 202.349 173.435 201.529C172.311 200.578 170.907 200.905 169.981 201.9L169.983 201.914Z" fill="#A7CB69"/>
<path d="M14.1637 104.986C13.1756 110.795 15.2605 116.891 19.5883 120.75C24.2126 124.866 30.2992 126.149 36.2178 125.225C37.5419 125.02 38.2632 123.285 37.947 122.064C37.5616 120.596 36.2376 120.063 34.9037 120.268C30.9612 120.873 26.2382 119.919 23.0862 117.107C21.5744 115.762 20.3393 114.038 19.6674 112.293C19.4698 111.791 19.3117 111.257 19.1733 110.733C19.1042 110.446 19.035 110.159 18.9757 109.861C18.9658 109.789 18.867 109.215 18.9065 109.512C18.7682 108.486 18.8077 107.08 18.9362 106.341C19.1634 104.976 18.5805 103.58 17.207 103.18C16.0115 102.841 14.4009 103.601 14.1637 104.976V104.986Z" fill="#A7CB69"/>
<path d="M105.741 93.7998C103.034 99.5882 103.548 106.711 107.342 111.873C111.67 117.764 119.446 120.32 126.363 120.186C129.534 120.125 129.544 114.993 126.363 115.055C121.086 115.147 114.891 113.454 111.423 109.01C108.715 105.531 108.162 100.337 110.01 96.3759C110.593 95.134 110.336 93.6048 109.121 92.8659C108.034 92.2091 106.324 92.5375 105.741 93.7896V93.7998Z" fill="#A7CB69"/>
<path d="M126.991 141.03C125.232 149.6 128.71 158.6 135.637 163.568C136.733 164.358 138.384 163.783 139.016 162.644C139.737 161.371 139.233 159.924 138.127 159.134C137.494 158.683 137.139 158.385 136.506 157.759C135.933 157.205 135.271 156.445 134.876 155.922C134.51 155.439 133.987 154.608 133.631 153.951C133.275 153.294 132.811 152.33 132.643 151.878C132.346 151.088 132.099 150.267 131.902 149.446C131.803 149.035 131.714 148.614 131.645 148.194C131.645 148.142 131.546 147.568 131.586 147.896C131.556 147.711 131.546 147.516 131.526 147.332C131.447 146.439 131.418 145.546 131.467 144.643C131.487 144.222 131.516 143.791 131.566 143.37C131.526 143.637 131.586 143.288 131.595 143.216C131.645 142.939 131.694 142.662 131.754 142.385C132.03 141.03 131.368 139.614 130.024 139.224C128.789 138.875 127.268 139.655 126.981 141.02L126.991 141.03Z" fill="#A7CB69"/>
<path d="M152.251 165.63C150.62 172.014 149.247 179.342 153.525 184.986C155.363 187.409 158.001 188.856 160.758 189.861C163.515 190.867 166.854 192.13 169.71 190.775C170.925 190.2 171.222 188.373 170.599 187.265C169.868 185.972 168.435 185.766 167.22 186.341C166.775 186.557 165.441 185.951 164.928 185.808C163.811 185.489 162.695 185.161 161.608 184.74C159.839 184.053 158.08 182.985 157.023 181.302C154.335 177.043 155.867 171.501 157.023 166.995C157.843 163.803 153.071 162.438 152.26 165.63H152.251Z" fill="#A7CB69"/>
<path d="M44.9068 157.491C43.6816 164.778 45.2427 173.174 50.8946 178.172C56.0524 182.729 64.1844 184.063 69.9054 179.783C70.9824 178.972 71.5061 177.546 70.7947 176.273C70.1722 175.165 68.5023 174.539 67.4154 175.349C63.473 178.295 57.8112 177.71 54.1652 174.333C50.0547 170.526 48.7603 164.296 49.6793 158.856C49.9065 157.491 49.3236 156.096 47.9501 155.695C46.7545 155.357 45.1439 156.116 44.9068 157.491Z" fill="#7EA33E"/>
<path d="M117.098 179.927C118.59 181.898 120.843 183.273 123.036 184.258C125.981 185.582 129.054 186.434 132.236 186.886C133.51 187.071 134.953 186.568 135.279 185.09C135.546 183.879 134.923 182.134 133.55 181.929C132.038 181.713 130.536 181.416 129.064 181.015C128.392 180.831 127.73 180.625 127.068 180.399C126.752 180.287 126.435 180.174 126.129 180.051C125.961 179.989 125.793 179.917 125.625 179.845C125.526 179.804 125.062 179.599 125.526 179.814C124.459 179.322 123.422 178.778 122.453 178.101C122.335 178.018 122.216 177.926 122.098 177.844C121.871 177.68 121.752 177.762 122.118 177.875C121.94 177.823 121.683 177.505 121.564 177.382C121.209 177.043 120.882 176.684 120.586 176.294C119.786 175.237 117.918 175.36 117.088 176.294C116.09 177.423 116.229 178.788 117.088 179.927H117.098Z" fill="#7EA33E"/>
<path d="M59.0246 112.897C57.0059 105.235 61.6265 97.1928 70.0153 92.9044C74.8601 90.4193 79.7611 88.2104 82.2957 83.9737C84.6172 80.108 85.0658 75.8627 85.5817 71.6778C86.0975 67.4929 86.8826 63.6618 89.2602 59.9514C91.7723 56.0426 95.2377 52.5566 98.6471 49.0965C102.056 45.6364 105.6 41.9002 108.326 37.9051C111.185 33.7116 113.507 29.3196 116.232 25.0829C119.193 20.4752 122.703 16.1608 127.548 12.5885C132.068 9.25787 137.462 6.60886 143.328 4.91764C144.741 4.51209 145.716 3.45939 145.29 2.26C144.92 1.21593 143.271 0.344433 141.836 0.749981C130.206 4.11517 120.64 10.3969 114.359 18.6373C111.163 22.8222 108.741 27.3177 106.06 31.7011C103.38 36.0845 100.441 40.0278 96.7966 43.8503C93.3424 47.4743 89.6078 50.9517 86.5574 54.8001C83.5069 58.6485 81.4545 62.7385 80.6359 67.1736C79.862 71.3844 79.8845 75.7333 78.3368 79.8405C77.6751 81.6094 76.6433 83.3265 75.0284 84.7071C73.0321 86.407 70.4302 87.5373 67.9517 88.7712C62.5237 91.472 58.1947 95.0357 55.6265 99.6348C53.0582 104.234 52.3405 109.152 53.619 114.019C53.9218 115.158 55.6825 115.822 57.0732 115.529C58.6209 115.201 59.3274 114.019 59.0358 112.871L59.0246 112.897Z" fill="#80A02A"/>
<path d="M92.9988 52.1936C91.9744 74.7697 105.944 90.4397 111.269 110.129C112.734 115.551 113.606 121.406 112.979 127.19C112.81 128.744 113.259 130.333 114.461 130.789C115.46 131.163 116.891 130.322 117.068 128.744C118.296 117.444 115.392 106.776 111.396 97.0769C107.4 87.3781 102.608 79.2101 99.5771 69.2425C97.9262 63.8205 96.978 58.0947 97.2404 52.1936C97.4097 48.4426 93.1766 48.4543 93.0073 52.1936H92.9988Z" fill="#80A02A"/>
<path d="M98.7091 79.626C93.2804 84.2146 89.6763 89.1918 87.4323 94.4033C85.0523 99.9119 83.7942 105.415 85.8116 111.003C86.9223 114.083 89.0303 117.066 92.079 119.792C93.8697 121.392 98.7658 119.958 96.9751 118.352C91.943 113.849 90.039 108.678 90.447 103.546C90.651 100.952 91.5577 98.409 92.6004 95.8718C93.6431 93.3347 94.8217 91.0318 96.4538 88.6889C98.3011 86.0261 100.749 83.4946 103.617 81.0718C105.487 79.4889 100.591 78.0489 98.7205 79.6318L98.7091 79.626Z" fill="#80A02A"/>
<path d="M101.239 46.4222C116.312 51.8755 128.02 61.3067 137.396 71.7129C142.431 77.2957 147.086 83.1804 150.989 89.2809C155.06 95.6575 157.751 102.474 158.312 109.584C158.94 117.462 157.269 125.487 153.209 132.752C152.615 133.822 152.794 135.065 154.218 135.703C155.396 136.238 157.448 136.005 158.054 134.927C165.938 120.827 165.882 104.976 158.076 90.8772C154.375 84.1986 149.463 77.8651 144.248 71.8251C139.381 66.1733 133.975 60.7458 127.774 55.9224C120.888 50.5553 112.947 45.9131 104.054 42.6946C102.686 42.2028 101.026 42.4012 100.218 43.4712C99.5118 44.4117 99.8482 45.9217 101.228 46.4222H101.239Z" fill="#80A02A"/>
<path d="M147.251 82.7572C144.604 85.1474 141.879 87.6238 140.14 90.4885C138.312 93.4999 137.617 96.7012 137.325 99.9973C137.224 101.162 138.682 102.154 140.129 102.154C141.733 102.154 142.832 101.162 142.933 99.9973C143 99.1776 143.09 98.3665 143.236 97.5468C143.18 97.8402 143.258 97.4432 143.28 97.3397C143.314 97.1585 143.359 96.9773 143.393 96.8047C143.471 96.4596 143.561 96.123 143.662 95.7779C143.852 95.1394 144.077 94.5095 144.357 93.8882C144.492 93.5862 144.637 93.3015 144.783 93.0081C144.974 92.6284 144.694 93.1548 144.828 92.9218C144.918 92.7837 144.996 92.6371 145.086 92.499C145.793 91.36 146.667 90.2901 147.621 89.2719C148.282 88.5643 148.451 88.4004 149.079 87.805C149.785 87.132 150.503 86.4762 151.232 85.8204C152.219 84.9316 152.365 83.6373 151.232 82.7658C150.222 81.9893 148.249 81.8771 147.262 82.7658L147.251 82.7572Z" fill="#80A02A"/>
<path d="M74.3416 89.4182C81.6313 97.65 83.336 108.436 83.7958 118.16C83.9304 120.93 89.5379 120.939 89.4033 118.16C88.9098 107.72 87.0145 96.0796 79.1864 87.2438C77.1678 84.9658 72.3005 87.1144 74.3416 89.4182Z" fill="#80A02A"/>
</svg>
