<svg width="170" height="179" viewBox="0 0 170 179" fill="none" xmlns="http://www.w3.org/2000/svg">
<path d="M57.8503 26.1094C60.1754 23.5702 61.509 20.2547 61.6424 16.7281C61.7482 13.9461 62.185 11.2383 63.4591 8.84949C65.5185 4.98262 64.4032 4.74694 68.8111 4.2784C81.3192 2.94546 75.7292 17.7536 84.6289 20.0201C95.1189 22.6945 93.8405 21.759 101.526 26.4496C131.504 44.7637 150.575 80.9634 146.98 115.087C145.58 128.372 140.41 141.905 129.489 149.11C123.855 152.824 116.422 155.31 114.309 161.789C112.795 166.427 114.016 172.924 109.372 174.914C107.703 175.625 105.755 175.422 104.073 174.578C99.1685 172.107 97.3288 166.637 93.2363 163.459C90.1681 161.08 86.2489 160.303 82.5064 159.477C65.0958 155.651 47.0821 148.534 36.1333 134.081C23.6634 117.611 19.9317 100.019 22.2558 80.0693C24.3119 62.4058 23.5298 39.9587 52.1606 29.8905C54.3519 29.1214 56.3014 27.8097 57.8644 26.1125L57.8503 26.1094Z" fill="#F4D243"/>
<path d="M60.5758 28.5665C62.421 26.5102 63.6891 24.1131 64.4924 21.444C65.1958 19.0951 65.0746 16.6486 65.481 14.2403C65.5742 13.7073 65.6815 13.1776 65.8169 12.6541C65.8423 12.5505 66.1974 11.5663 65.9109 12.3255C66.0224 12.0226 66.134 11.7197 66.2654 11.4285C66.6418 10.5729 67.1062 9.75895 67.4897 8.90496C67.694 8.44799 67.9053 7.9926 68.1155 7.54422C68.4187 6.89812 67.4399 8.31081 68.0119 7.71774C68.3519 7.36408 67.2093 8.33194 67.6227 8.06035C67.996 7.8089 67.7577 8.25096 67.1652 8.24918C67.3627 8.24977 67.6919 8.08316 67.8851 8.0245C68.109 7.95813 68.5227 7.97809 67.4485 8.09413C67.6343 8.07753 67.8168 8.03833 68.0052 8.00771C68.8748 7.8895 69.7491 7.78689 70.6273 7.78719C70.8177 7.7862 71.014 7.79381 71.2033 7.79984C71.6194 7.80576 71.243 7.99094 70.7932 7.75885C71.0416 7.88744 71.5156 7.85534 71.7973 7.91855C72.0508 7.97544 72.297 8.0744 72.5505 8.13129C71.5116 7.92003 71.8472 7.84231 72.1834 8.01248C72.3521 8.09405 72.5208 8.17563 72.6883 8.26422C72.7679 8.31123 72.8463 8.36526 72.9271 8.40525C73.4507 8.67577 72.1497 7.78631 72.5949 8.1704C72.7795 8.32842 72.9737 8.47399 73.1488 8.64446C73.2305 8.7211 73.304 8.80317 73.3787 8.87823C73.7991 9.27861 72.7695 8.09297 73.1035 8.56871C73.2559 8.78509 73.4249 8.99062 73.5679 9.21945C73.7109 9.44828 73.829 9.69341 73.9803 9.91681C73.308 8.90608 73.7461 9.45618 73.9163 9.82229C74.1477 10.3406 74.3485 10.8666 74.5398 11.4051C75.3521 13.7079 75.9682 16.0031 77.1317 18.1807C78.5935 20.9135 81.0658 22.7216 83.9922 23.524C86.9185 24.3263 90.2181 24.8772 93.2381 25.8974C94.2198 26.2269 92.4328 25.5636 93.19 25.8793C93.3952 25.9618 93.6003 26.0442 93.7972 26.1321C94.3269 26.3676 94.8389 26.6209 95.3542 26.8968C96.7256 27.6345 98.0541 28.45 99.3838 29.2585C100.192 29.7457 100.99 30.2455 101.78 30.7507C102.227 31.0404 102.674 31.3302 103.113 31.6254C103.335 31.7773 103.551 31.9206 103.774 32.0725C103.957 32.1939 104.661 32.6505 103.872 32.1383C105.574 33.2417 107.184 34.5429 108.769 35.8168C111.881 38.3222 114.84 41.0267 117.623 43.91C118.304 44.6167 118.97 45.3273 119.634 46.0519C119.997 46.4467 120.344 46.8453 120.699 47.2455C120.821 47.3822 121.167 47.7512 120.608 47.1376C120.847 47.4026 121.07 47.6784 121.3 47.9488C122.622 49.5134 123.902 51.1122 125.122 52.756C127.517 55.9678 129.72 59.3186 131.72 62.7842C132.209 63.6299 132.681 64.4865 133.145 65.3485C133.355 65.7381 133.557 66.1331 133.767 66.5227C134.196 67.3332 133.414 65.817 133.827 66.6383C133.983 66.9576 134.148 67.2715 134.305 67.5908C135.17 69.3372 135.979 71.1146 136.735 72.902C138.313 76.6446 139.655 80.48 140.746 84.3754C141.007 85.3085 141.247 86.2369 141.478 87.1777C141.58 87.6013 141.702 88.0296 141.782 88.4555C141.604 87.5047 141.764 88.3861 141.807 88.5631C141.871 88.8619 141.936 89.1607 142.001 89.4594C142.404 91.3861 142.739 93.3195 143.014 95.2614C143.571 99.234 143.846 103.231 143.837 107.215C143.834 107.651 143.832 108.081 143.822 108.516C143.82 108.778 143.811 109.038 143.802 109.298C143.8 109.356 143.766 110.216 143.794 109.595C143.822 108.975 143.782 109.833 143.779 109.891C143.763 110.15 143.754 110.41 143.738 110.669C143.707 111.186 143.675 111.704 143.634 112.227C143.469 114.303 143.225 116.369 142.888 118.421C142.551 120.473 142.088 122.621 141.531 124.675C141.409 125.121 141.287 125.567 141.151 126.011C141.075 126.278 141.005 126.553 140.909 126.809C141.246 125.93 140.912 126.795 140.861 126.958C140.539 127.921 140.19 128.87 139.822 129.808C139.042 131.753 138.148 133.644 137.121 135.461C136.876 135.895 136.626 136.319 136.371 136.736C136.256 136.929 136.135 137.12 136.015 137.304C135.925 137.445 135.503 138.224 135.925 137.445C135.428 138.361 134.671 139.218 134.018 140.019C133.403 140.777 132.754 141.514 132.083 142.215C131.778 142.533 131.46 142.848 131.142 143.156C130.949 143.338 130.757 143.521 130.557 143.702C130.426 143.819 130.295 143.942 130.158 144.057C130.461 143.79 130.52 143.745 130.331 143.906C128.798 145.137 127.218 146.261 125.52 147.265C122.003 149.34 118.377 151.157 115.322 153.896C113.865 155.201 112.625 156.767 111.732 158.527C110.786 160.377 110.338 162.477 110.057 164.549C109.936 165.447 109.837 166.351 109.709 167.247C109.653 167.65 109.592 168.045 109.515 168.443C109.474 168.674 109.427 168.904 109.371 169.139C109.334 169.313 109.09 169.87 109.143 170.028C109.117 169.964 109.458 169.188 109.219 169.761C109.133 169.96 109.059 170.169 108.973 170.369C108.887 170.568 108.775 170.747 108.683 170.938C108.369 171.567 109.109 170.516 108.781 170.799C108.653 170.902 108.555 171.084 108.446 171.205C107.905 171.791 108.38 171.125 108.492 171.194C108.478 171.19 107.978 171.537 107.944 171.566C107.371 171.955 108.675 171.366 107.858 171.598C107.697 171.642 106.819 171.809 107.663 171.707C107.379 171.745 107.101 171.741 106.812 171.764C105.959 171.828 107.263 171.902 106.768 171.761C106.545 171.697 106.282 171.652 106.057 171.602C105.185 171.443 106.66 171.963 105.863 171.537C105.615 171.408 105.364 171.293 105.124 171.159C104.971 171.074 104.82 170.974 104.667 170.889C104.325 170.667 104.371 170.699 104.795 170.991C104.66 170.887 104.517 170.783 104.381 170.679C103.764 170.191 102.723 169.447 102.348 168.744C102.752 169.49 102.488 168.906 102.302 168.675C102.193 168.541 102.085 168.408 101.977 168.274C101.605 167.805 101.242 167.33 100.878 166.855C99.6193 165.18 98.3558 163.49 96.8651 162.012C95.1142 160.263 92.9498 158.954 90.6729 158.079C86.1943 156.36 81.4236 155.683 76.8239 154.447C74.72 153.88 72.6318 153.266 70.5546 152.588C69.5365 152.258 68.5303 151.901 67.5242 151.544C66.5942 151.212 68.2722 151.829 67.3459 151.475C67.1197 151.388 66.8922 151.308 66.6659 151.22C66.0762 150.993 65.4864 150.766 64.9062 150.527C60.8936 148.905 56.983 146.993 53.2653 144.73C52.3664 144.179 51.4839 143.616 50.6077 143.019C50.4766 142.931 49.6655 142.421 50.4439 142.909C50.2063 142.761 49.9748 142.578 49.7479 142.411C49.2871 142.074 48.8276 141.73 48.3763 141.381C46.6412 140.045 44.975 138.607 43.4059 137.074C42.6564 136.338 41.9259 135.576 41.2202 134.799C41.0919 134.653 40.9624 134.515 40.8342 134.37C41.4348 135.036 40.7922 134.316 40.6942 134.207C40.3177 133.765 39.9576 133.313 39.5976 132.861C38.2322 131.126 36.9543 129.309 35.7555 127.459C34.5567 125.608 33.5054 123.835 32.509 121.957C32.4046 121.759 32.3014 121.553 32.19 121.353C31.9267 120.85 32.5794 122.14 32.1854 121.338C31.9479 120.855 31.7033 120.37 31.474 119.881C31.0513 118.992 30.6521 118.094 30.2753 117.193C29.4905 115.319 28.7846 113.412 28.1777 111.483C27.8845 110.564 27.6149 109.637 27.3664 108.714C27.2427 108.249 27.1191 107.784 27.0108 107.315C26.9606 107.1 26.9092 106.891 26.859 106.676C26.7666 106.284 26.7791 106.338 26.8908 106.829C26.8544 106.66 26.8192 106.485 26.7758 106.315C25.9337 102.424 25.4459 98.4743 25.2649 94.5278C25.1681 92.4438 25.1513 90.3632 25.2132 88.293C25.2215 88.1199 25.2329 87.1752 25.2153 88.155C25.2178 87.9734 25.2286 87.7863 25.2381 87.6063C25.262 87.0505 25.2931 86.4964 25.3311 85.9438C25.4026 84.8231 25.4965 83.7 25.6103 82.5888C26.2059 76.5866 26.6949 70.5242 27.6815 64.5879C27.9347 63.0561 28.2288 61.5408 28.5864 60.0397C28.7574 59.3129 28.9412 58.5963 29.1392 57.8829C29.2332 57.5542 29.326 57.2325 29.4189 56.9109C29.4743 56.7193 29.5381 56.5222 29.5935 56.3306C29.7825 55.7099 29.2991 57.2192 29.6186 56.2707C30.6014 53.3286 31.8879 50.4911 33.529 47.8861C33.6396 47.7142 33.7807 47.5345 33.8714 47.3508C33.4395 48.2304 33.6919 47.6239 33.8405 47.4022C34.046 47.1058 34.2503 46.8164 34.4616 46.5286C34.9792 45.8286 35.5225 45.149 36.0845 44.488C36.618 43.8645 37.1773 43.2612 37.754 42.6838C38.0204 42.4156 38.2939 42.1491 38.5744 41.8841C38.7413 41.7248 38.9153 41.5671 39.081 41.4148C39.1946 41.3091 39.3152 41.205 39.4276 41.1064C39.0751 41.4062 38.997 41.4761 39.1946 41.3091C40.6174 40.1199 42.0984 39.0167 43.6633 38.0197C44.4865 37.4975 45.3188 37.0066 46.1757 36.543C46.6607 36.2802 47.1516 36.026 47.6425 35.7718C47.8113 35.6858 47.9788 35.6068 48.1475 35.5207C47.3783 35.902 48.4978 35.3589 48.6323 35.3016C50.6363 34.3886 52.7605 33.7503 54.7504 32.8341C56.9715 31.8094 58.9388 30.4364 60.5942 28.6289C61.8324 27.2817 61.6751 24.7907 60.1721 23.5498C58.6691 22.309 56.4555 22.2859 55.1355 23.7241C54.8096 24.0809 54.4721 24.4206 54.1102 24.7328C54.7254 24.1859 53.9956 24.8019 53.8952 24.8741C53.667 25.0488 53.4331 25.2149 53.1933 25.3724C52.7952 25.6402 52.375 25.8665 51.9594 26.1085C51.1473 26.5675 52.6053 25.889 51.7282 26.2169C51.3604 26.353 50.9902 26.5031 50.6224 26.6392C48.2792 27.4834 46.0067 28.4674 43.7791 29.5707C39.9895 31.4458 36.543 33.8278 33.4401 36.6731C28.1998 41.4873 24.7408 47.7506 22.6039 54.5728C20.7511 60.4823 20.0235 66.6953 19.4089 72.89C18.6373 80.6525 17.7132 88.3663 18.2175 96.2403C18.7564 104.545 20.6763 112.904 24.1043 120.632C27.7846 128.927 32.9461 136.914 39.6165 143.176C46.287 149.439 54.4964 154.057 62.9292 157.356C67.3959 159.101 71.9552 160.569 76.5751 161.773C78.7448 162.34 80.928 162.83 83.1124 163.313C84.2322 163.564 85.352 163.815 86.4607 164.13C86.7611 164.212 87.059 164.308 87.3582 164.397C87.4825 164.439 88.4687 164.784 87.6233 164.471C88.2002 164.687 88.7722 164.932 89.331 165.211C89.8897 165.489 90.4295 165.793 90.9467 166.142C90.2716 165.692 91.0085 166.207 91.1301 166.307C91.3288 166.468 91.5192 166.635 91.7097 166.801C92.0262 167.084 92.325 167.384 92.6156 167.689C92.7895 167.867 92.9833 168.056 93.1324 168.25C92.5164 167.419 93.2022 168.353 93.3351 168.514C94.5679 170.044 95.6826 171.664 96.9663 173.155C98.5672 175.008 100.348 176.712 102.557 177.805C105.345 179.188 108.535 179.408 111.259 178.103C115.509 176.062 116.447 171.536 116.991 167.169C117.104 166.269 117.217 165.369 117.387 164.481C117.478 164.006 117.594 163.551 117.712 163.082C117.918 162.283 117.4 163.865 117.722 163.07C117.813 162.842 117.904 162.615 118.001 162.396C118.097 162.178 118.454 161.186 118.675 161.134L118.429 161.494C118.518 161.361 118.606 161.235 118.701 161.111C118.816 160.954 118.938 160.8 119.061 160.645C119.332 160.305 119.623 159.984 119.926 159.673C120.095 159.5 120.263 159.333 120.437 159.176C120.552 159.063 120.673 158.959 120.793 158.855C120.422 159.18 120.379 159.214 120.67 158.973C123.704 156.564 127.215 154.903 130.504 152.879C134.219 150.594 137.514 147.61 140.155 144.143C145.548 137.075 148.638 128.397 150.038 119.515C152.608 103.178 149.909 85.8412 143.257 70.3063C136.604 54.7713 126.109 40.6622 112.786 30.1305C109.32 27.3925 105.667 24.926 101.908 22.6471C99.4665 21.1664 97.071 19.7982 94.3722 18.9084C91.2441 17.8786 87.9699 17.2241 84.7836 16.4435C84.1592 16.2889 85.6847 16.8571 85.1213 16.563C84.9866 16.4964 84.8494 16.4437 84.7147 16.3771C84.5062 16.272 84.3087 16.1038 84.0965 16.0198C84.9159 16.3566 84.749 16.5159 84.4241 16.239C84.3225 16.1506 84.2125 16.0677 84.1121 15.9722C83.764 15.6609 83.4242 15.009 84.0708 15.9994C83.7998 15.5815 83.4698 15.2087 83.2166 14.773C82.6999 13.8773 83.5301 15.4919 83.1922 14.7456C83.0544 14.4451 82.9237 14.1461 82.8025 13.8347C81.9837 11.7782 81.529 9.60664 80.5993 7.59812C79.1811 4.53265 77.065 2.23603 73.8089 1.18479C72.243 0.680404 70.5237 0.593385 68.9215 0.714853C67.177 0.855381 65.1845 0.991266 63.694 1.93937C62.4434 2.72995 61.7775 3.94324 61.1872 5.26822C60.2324 7.42231 59.1671 9.41314 58.6459 11.7665C58.1247 14.1199 58.2924 16.4676 57.7822 18.7579C57.7154 19.0562 57.6345 19.3514 57.5549 19.6396C57.7749 18.7999 57.5129 19.7541 57.4602 19.888C57.2829 20.3583 57.0773 20.8223 56.8531 21.2675C56.7183 21.536 56.5765 21.803 56.4218 22.0598C56.36 22.1625 55.8029 22.9629 56.2742 22.3181C55.918 22.8066 55.5431 23.2763 55.1343 23.7311C53.9147 25.0971 54.0405 27.5592 55.5564 28.8102C57.0722 30.0612 59.2929 30.0858 60.5929 28.6359L60.5758 28.5665Z" fill="#F4D243"/>
<path d="M40.9232 59.7735C39.1689 64.4539 38.5642 69.5952 39.6115 74.5915C39.8246 75.6039 40.0788 76.4332 40.8719 77.1554C41.5613 77.7863 42.6701 78.2232 43.5918 78.1213C44.5136 78.0194 45.4696 77.6487 46.0684 76.8869C46.6672 76.1251 47.1586 75.0872 46.9519 74.1223C46.5366 72.1614 46.3824 70.1719 46.4707 68.1731L46.4209 69.1828C46.5309 67.1886 46.8813 65.2381 47.4765 63.3478L47.166 64.3017C47.2844 63.9434 47.4101 63.5867 47.543 63.2316C47.8996 62.2722 48.0512 61.3226 47.7024 60.3119C47.4016 59.4496 46.674 58.5343 45.849 58.1505C44.1581 57.3588 41.6577 57.8209 40.9232 59.7735Z" fill="#F1F1F1"/>
<path d="M61.2965 49.361L59.9189 56.8691C59.6283 58.4529 60.7147 60.2562 62.3289 60.5264C63.9432 60.7966 65.5376 59.8312 65.8482 58.1386L67.2258 50.6305C67.5164 49.0466 66.43 47.2434 64.8157 46.9732C63.2015 46.703 61.6071 47.6684 61.2965 49.361Z" fill="#F1F1F1"/>
<path d="M61.8904 84.2677C61.6467 87.0042 61.9126 89.718 62.8177 92.3454C63.048 93.0189 63.5815 93.6313 64.201 93.9586C64.8206 94.286 65.6906 94.3806 66.3322 94.1286C67.7129 93.5825 68.5083 92.0635 67.991 90.567C67.7709 89.9301 67.5916 89.2848 67.4488 88.6243L67.5987 89.3378C67.324 88.0192 67.216 86.6791 67.2773 85.3351L67.2401 86.0887C67.2525 85.8681 67.2659 85.6419 67.2891 85.4235C67.3554 84.6647 67.2919 83.9697 66.858 83.3042C66.4758 82.7242 65.7741 82.2017 65.0925 82.0902C64.411 81.9786 63.6227 82.0503 63.0319 82.485C62.4795 82.8936 61.9472 83.5297 61.885 84.2665L61.8904 84.2677Z" fill="#F1F1F1"/>
<path d="M42.4158 96.6134C42.1153 97.5541 42.0184 98.4924 41.9654 99.4784C41.9124 100.464 41.9413 101.414 42.1381 102.392C42.5806 104.574 43.3634 106.706 44.8171 108.421C45.0765 108.852 45.4215 109.187 45.8433 109.431C46.2358 109.753 46.6788 109.963 47.1825 110.048C48.0731 110.238 49.2034 110.066 49.9435 109.519C50.6836 108.971 51.3421 108.13 51.4801 107.132C51.6105 106.216 51.5254 105.039 50.9025 104.292C50.4072 103.71 49.9906 103.069 49.6428 102.38L50.0708 103.247C49.7166 102.511 49.4575 101.75 49.2803 100.952L49.4811 101.908C49.3183 101.114 49.2551 100.31 49.2828 99.503L49.233 100.513C49.2752 99.7085 49.4129 98.917 49.6579 98.1562C49.9263 97.3084 49.5439 96.0296 49.0802 95.3166C48.5681 94.5395 47.628 93.8395 46.7148 93.69C45.8016 93.5405 44.7454 93.6367 43.9538 94.219L43.2522 94.8437C42.8207 95.3498 42.5404 95.9342 42.4185 96.5986L42.4158 96.6134Z" fill="#F1F1F1"/>
<path d="M55.9973 134.19C58.5136 136.102 61.0212 138.02 63.5375 139.932C64.3567 140.553 65.2212 140.968 66.2574 140.898C67.1407 140.842 68.1749 140.373 68.7339 139.664C69.3327 138.902 69.7482 137.909 69.6174 136.899C69.5021 135.969 69.1225 134.921 68.3571 134.335C65.8408 132.423 63.3332 130.506 60.8169 128.593C59.9976 127.973 59.1332 127.558 58.097 127.628C57.2137 127.684 56.1795 128.153 55.6205 128.862C55.0217 129.624 54.6062 130.617 54.7369 131.627C54.8523 132.557 55.2319 133.605 55.9973 134.19Z" fill="#F1F1F1"/>
<path d="M66.1083 117.199C67.0243 118.313 67.9414 119.42 68.8632 120.535C69.0686 120.877 69.3418 121.142 69.6758 121.335C69.9866 121.59 70.3375 121.756 70.7364 121.823C71.1288 121.925 71.5118 121.916 71.8891 121.809C72.2661 121.768 72.6133 121.63 72.9228 121.404C73.5235 120.956 74.0303 120.305 74.1396 119.514L74.1791 118.714C74.1326 118.188 73.9644 117.708 73.6765 117.264C72.7605 116.15 71.8434 115.043 70.9216 113.928C70.7162 113.586 70.443 113.321 70.109 113.128C69.7982 112.873 69.4473 112.707 69.0484 112.64C68.656 112.538 68.273 112.547 67.8957 112.654C67.5187 112.695 67.1715 112.833 66.862 113.059C66.2613 113.507 65.7545 114.158 65.6452 114.949L65.6057 115.749C65.6522 116.275 65.8204 116.755 66.1083 117.199Z" fill="#F1F1F1"/>
</svg>
