<svg width="281" height="180" viewBox="0 0 281 180" fill="none" xmlns="http://www.w3.org/2000/svg">
<path d="M165.535 48.5271C156.715 62.1224 157.365 78.2382 161.063 93.9582C164.761 109.685 175.524 124.301 190.663 133.216C197.175 137.049 204.364 139.813 211.608 142.292C218.307 144.583 225.261 146.68 232.346 146.666C244.195 146.645 254.729 140.82 264.386 134.966C268.582 132.425 272.889 129.703 275.308 125.718C277.728 121.732 277.679 116.094 273.801 112.942C270.94 110.616 266.785 110.171 263.004 110.407C256.582 110.81 250.361 112.865 245.28 116.274C240.932 119.191 237.344 123.086 232.395 125.127C223.913 128.62 213.171 125.593 206.216 119.628C199.262 113.671 195.502 105.352 193.103 97.0896C190.704 88.8269 189.453 80.3281 186.446 72.2112C182.734 62.2057 176.354 52.9223 167.996 45.3887L165.542 48.5341L165.535 48.5271Z" fill="white"/>
<path d="M162.553 46.7771C155.591 57.595 154.057 70.6904 155.64 83.258C156.407 89.3474 157.534 95.4855 159.635 101.269C161.571 106.588 164.17 111.657 167.419 116.288C174.373 126.196 183.754 134.022 194.627 139.25C200.8 142.215 207.284 144.583 213.796 146.686C220.404 148.818 227.352 150.485 234.34 150.096C241.329 149.707 247.454 147.686 253.544 144.874C259.171 142.284 264.659 139.118 269.809 135.667C272.388 133.938 274.897 132.008 276.826 129.55C278.865 126.953 280.109 124.086 280.379 120.774C280.607 117.996 279.86 114.948 278.208 112.684C276.19 109.928 273.252 108.164 269.934 107.435C266.864 106.769 263.712 106.789 260.608 107.178C257.29 107.595 254.041 108.31 250.917 109.532C247.792 110.754 245.007 112.191 242.366 114.108C241.011 115.087 239.712 116.135 238.405 117.177C238.142 117.385 237.887 117.593 237.624 117.795C237.506 117.892 236.58 118.607 237.202 118.128C236.601 118.586 235.999 119.045 235.377 119.475C234.126 120.35 232.82 121.121 231.444 121.787C231.396 121.815 230.953 122.016 231.326 121.85C231.7 121.683 231.209 121.898 231.112 121.933C230.836 122.044 230.552 122.141 230.269 122.239C229.578 122.468 228.879 122.655 228.167 122.808C227.877 122.87 227.58 122.926 227.283 122.975C227.124 123.002 226.937 123.044 226.771 123.051C226.868 123.051 227.566 122.968 226.923 123.023C226.232 123.079 225.547 123.134 224.856 123.141C224.206 123.148 223.55 123.127 222.9 123.086C222.596 123.065 222.292 123.037 221.987 123.009C221.828 122.995 221.628 122.988 221.462 122.947C222.285 123.141 221.663 122.975 221.462 122.94C220.107 122.725 218.766 122.398 217.46 121.989C216.782 121.773 216.112 121.537 215.448 121.273C215.324 121.225 215.199 121.169 215.075 121.121C214.612 120.94 215.614 121.371 215.165 121.155C214.805 120.982 214.439 120.822 214.079 120.649C212.856 120.044 211.667 119.364 210.533 118.6C210.277 118.427 210.029 118.253 209.78 118.079C209.641 117.975 209.503 117.871 209.358 117.774C208.805 117.364 209.393 117.836 209.441 117.843C209.247 117.816 208.798 117.316 208.646 117.191C208.349 116.941 208.058 116.677 207.775 116.42C206.648 115.385 205.598 114.268 204.623 113.094C204.409 112.837 204.208 112.58 204.001 112.323C203.683 111.921 204.319 112.768 204.028 112.351C203.918 112.198 203.807 112.046 203.697 111.893C203.254 111.282 202.833 110.664 202.432 110.032C201.65 108.81 200.932 107.546 200.275 106.255C199.957 105.63 199.653 104.998 199.362 104.359C199.21 104.019 199.058 103.679 198.906 103.338C198.851 103.214 198.796 103.082 198.74 102.95C199.072 103.727 198.706 102.852 198.664 102.748C196.266 96.763 194.918 90.4376 193.438 84.1746C191.883 77.5713 190.03 71.1 187.079 64.9828C184.362 59.3517 180.823 54.1441 176.751 49.4156C174.781 47.1312 172.666 44.9787 170.426 42.9513C169.168 41.8125 166.742 41.4168 165.539 42.9513C164.723 43.9997 163.9 45.0482 163.085 46.0966C162.497 46.8535 162.076 47.5478 162.076 48.5546C162.076 49.4087 162.449 50.4224 163.085 51.0126C164.329 52.1583 166.783 52.5402 167.972 51.0126C168.788 49.9641 169.61 48.9157 170.426 47.8672H165.539C167.772 49.8947 169.894 52.0472 171.864 54.3316C172.341 54.8871 172.818 55.4495 173.274 56.0258C173.488 56.2896 173.703 56.5604 173.91 56.8312C173.972 56.9076 174.352 57.4006 174.09 57.0604C173.827 56.7201 174.352 57.4145 174.352 57.4075C175.223 58.574 176.06 59.7683 176.855 60.9834C178.459 63.4345 179.903 65.9896 181.168 68.6282C181.479 69.2739 181.777 69.9196 182.06 70.5723C182.115 70.7042 182.171 70.8362 182.233 70.9612C182.274 71.0584 182.509 71.6208 182.337 71.2042C182.178 70.8153 182.357 71.2597 182.378 71.3153C182.482 71.5791 182.592 71.843 182.696 72.1068C183.277 73.5927 183.802 75.0995 184.279 76.6201C188.067 88.7156 189.242 101.679 195.941 112.712C199.051 117.836 203.22 122.384 208.376 125.467C213.533 128.55 219.195 130.21 224.981 130.106C227.801 130.057 230.677 129.571 233.303 128.509C236.421 127.245 239.082 125.405 241.723 123.343C242.283 122.905 242.836 122.461 243.396 122.016C243.659 121.808 243.914 121.6 244.177 121.398C244.288 121.308 244.398 121.225 244.509 121.135C244.509 121.135 245.2 120.6 244.834 120.878C244.481 121.142 244.965 120.78 245.048 120.718C245.2 120.607 245.352 120.489 245.504 120.378C245.774 120.183 246.044 119.982 246.313 119.794C246.935 119.357 247.578 118.934 248.228 118.538C249.472 117.781 250.765 117.121 252.085 116.524C252.687 116.253 252.189 116.476 252.064 116.524C252.244 116.448 252.424 116.378 252.611 116.302C252.929 116.177 253.253 116.052 253.571 115.934C254.311 115.663 255.065 115.42 255.818 115.198C257.249 114.781 258.707 114.455 260.18 114.212C260.422 114.17 261.286 114.059 260.595 114.143C260.996 114.094 261.39 114.045 261.791 114.011C262.551 113.941 263.318 113.886 264.079 113.865C264.722 113.851 265.364 113.858 266.007 113.886C266.374 113.906 266.74 113.941 267.106 113.969C267.182 113.976 267.646 114.031 267.189 113.969C266.671 113.899 267.438 114.018 267.542 114.031C268.205 114.149 268.862 114.316 269.505 114.524C269.782 114.615 270.466 114.802 269.795 114.601C270.12 114.698 270.445 114.906 270.735 115.073C270.984 115.212 271.454 115.406 271.62 115.635C271.579 115.58 271.06 115.142 271.53 115.573C271.62 115.656 271.717 115.733 271.807 115.823C272.014 116.017 272.201 116.226 272.395 116.434C272.851 116.927 272.305 116.288 272.298 116.288C272.415 116.323 272.567 116.677 272.623 116.774C272.768 117.003 272.885 117.246 273.017 117.482C273.355 118.079 272.927 117.274 272.948 117.281C272.982 117.295 273.113 117.725 273.107 117.711C273.19 117.968 273.266 118.225 273.328 118.482C273.355 118.593 273.383 118.704 273.404 118.815C273.425 118.927 273.445 119.045 273.466 119.156C273.507 119.426 273.494 119.308 273.425 118.802C273.418 118.802 273.48 120.287 273.473 120.419C273.466 120.572 273.452 120.732 273.438 120.885C273.418 121.19 273.252 121.287 273.473 120.655C273.376 120.94 273.362 121.28 273.293 121.572C273.169 122.093 272.885 122.62 272.795 123.134C272.899 122.53 272.996 122.683 272.865 122.947C272.795 123.086 272.726 123.225 272.657 123.363C272.505 123.648 272.339 123.933 272.166 124.204C271.973 124.516 271.752 124.808 271.544 125.106C271.924 124.558 271.496 125.162 271.309 125.37C270.825 125.933 270.307 126.46 269.768 126.967C269.229 127.474 268.71 127.897 268.164 128.342C268.676 127.918 268.033 128.439 267.839 128.578C267.528 128.807 267.217 129.029 266.899 129.245C264.452 130.939 261.873 132.445 259.316 133.945C256.758 135.445 254.014 136.966 251.263 138.285C250.585 138.611 249.901 138.931 249.216 139.236C249.078 139.299 248.94 139.361 248.802 139.417C248.712 139.458 248.131 139.708 248.525 139.542C248.919 139.375 248.339 139.618 248.249 139.66C248.021 139.757 247.786 139.847 247.55 139.944C246.154 140.5 244.744 141 243.306 141.437C241.868 141.875 240.417 142.25 238.944 142.548C238.205 142.694 237.465 142.819 236.718 142.93C236.186 143.013 237.278 142.875 236.739 142.93C236.587 142.944 236.435 142.965 236.29 142.986C235.834 143.034 235.384 143.076 234.928 143.111C233.352 143.222 231.776 143.236 230.2 143.152C229.384 143.111 228.575 143.034 227.76 142.944C227.545 142.916 227.324 142.895 227.11 142.868C227.172 142.875 227.628 142.951 227.22 142.881C226.736 142.798 226.253 142.729 225.769 142.645C219.271 141.493 212.953 139.236 206.787 136.924C205.293 136.369 203.807 135.785 202.342 135.174C202.148 135.091 201.948 135.015 201.754 134.931C201.886 134.987 202.328 135.174 201.706 134.91C201.367 134.765 201.028 134.612 200.69 134.466C199.964 134.147 199.245 133.813 198.526 133.473C195.685 132.126 192.913 130.633 190.265 128.932C189.111 128.189 187.97 127.411 186.864 126.592C186.609 126.405 186.353 126.21 186.097 126.016C186.007 125.953 185.544 125.592 185.903 125.87C186.242 126.127 185.876 125.849 185.82 125.808C185.254 125.356 184.687 124.898 184.127 124.433C182.025 122.662 180.035 120.76 178.175 118.732C177.242 117.711 176.336 116.67 175.465 115.594C175.272 115.351 175.078 115.108 174.885 114.865C174.816 114.774 174.463 114.323 174.746 114.691C175.009 115.038 174.74 114.677 174.691 114.622C174.269 114.052 173.848 113.483 173.44 112.907C171.898 110.719 170.495 108.435 169.244 106.074C168.615 104.887 168.027 103.672 167.481 102.443C167.357 102.165 167.239 101.887 167.122 101.61C166.956 101.242 167.212 101.839 167.219 101.846C167.17 101.818 167.06 101.45 167.025 101.367C166.769 100.728 166.52 100.089 166.285 99.4363C165.366 96.9158 164.654 94.3398 164.073 91.7221C163.741 90.2431 163.437 88.7572 163.168 87.2574C163.036 86.5145 162.905 85.7715 162.788 85.0217C162.732 84.6745 162.684 84.3273 162.629 83.9801C162.601 83.7788 162.573 83.5844 162.546 83.383C162.463 82.8275 162.649 84.2232 162.532 83.265C162.165 80.2723 161.937 77.2658 161.93 74.2524C161.93 72.7942 161.979 71.3361 162.082 69.878C162.138 69.1559 162.2 68.4337 162.283 67.7116C162.304 67.5172 162.331 67.3297 162.352 67.1353C162.359 67.0659 162.428 66.5868 162.366 67.0242C162.297 67.4964 162.387 66.8854 162.407 66.7673C162.442 66.5312 162.483 66.2882 162.518 66.0521C162.988 63.1984 163.714 60.3863 164.723 57.6783C164.861 57.3103 165.007 56.9562 165.145 56.5882C165.193 56.4563 165.407 55.9772 165.131 56.609C165.186 56.4771 165.248 56.3382 165.304 56.2063C165.601 55.5328 165.919 54.8662 166.251 54.2066C166.928 52.8596 167.682 51.5611 168.497 50.2974C169.479 48.7699 168.857 46.3952 167.26 45.5481C165.539 44.6385 163.583 45.1593 162.532 46.791L162.553 46.7771Z" fill="white"/>
<path d="M25.1748 83.7355C27.6081 98.7403 25.7555 107.385 31.6589 121.383C33.0552 124.688 34.9631 131.638 43.7906 141.602C54.5605 153.753 59.192 156.649 70.7983 162.127L103.986 175.104C87.4163 175.979 56.9039 167.335 42.0486 161.169C27.9468 155.316 27.6011 152.004 16.8865 141.081C8.82639 132.86 7.94848 127.431 5.8263 116.085C3.70412 104.739 2.03817 81.5761 7.90009 71.6469C11.3357 65.8283 19.6516 41.7901 31.4031 39.707L25.1748 83.7424V83.7355Z" fill="#ECCA39"/>
<path d="M21.8485 84.6591C21.9937 85.5478 22.1181 86.4366 22.2495 87.3254C22.3324 87.9294 22.1458 86.4922 22.2633 87.4642C22.284 87.6656 22.3117 87.86 22.3393 88.0614C22.4015 88.5474 22.4568 89.0404 22.5121 89.5264C22.685 91.0957 22.8301 92.6718 22.9615 94.2549C23.2034 97.2337 23.3901 100.219 23.6942 103.191C24.3717 109.815 25.7818 116.155 28.3326 122.313C29.805 125.868 31.1391 129.43 33.0678 132.777C36.4895 138.721 41.045 143.935 45.7594 148.865C49.506 152.788 53.5499 156.434 58.133 159.35C60.1999 160.669 62.3636 161.836 64.5549 162.94C66.366 163.849 68.184 164.794 70.0643 165.543C75.4216 167.675 80.7996 169.737 86.1638 171.841C91.528 173.945 97.2172 176.278 102.789 178.34C102.886 178.375 102.982 178.417 103.079 178.451L103.998 171.633C100.743 171.799 97.4798 171.619 94.2447 171.286C93.3322 171.195 92.4267 171.091 91.5211 170.973C91.3068 170.945 91.0234 170.952 90.8229 170.883C91.4727 171.112 91.3276 170.952 91.0442 170.911C90.4911 170.834 89.945 170.751 89.392 170.668C87.4427 170.369 85.5002 170.036 83.5647 169.668C75.5529 168.14 67.631 166.099 59.8266 163.724C56.3357 162.662 52.8656 161.523 49.43 160.294C47.9507 159.759 46.4714 159.211 45.0059 158.635C44.3285 158.371 43.651 158.093 42.9805 157.815C42.8699 157.774 41.9713 157.385 42.7386 157.718C42.4828 157.607 42.227 157.496 41.9713 157.385C41.4874 157.177 41.0035 156.961 40.5265 156.739C38.8882 155.989 37.2776 155.177 35.7222 154.267C35.0655 153.885 34.4157 153.476 33.7867 153.052C33.5378 152.885 33.289 152.712 33.047 152.538C32.9019 152.434 32.7636 152.33 32.6184 152.226C32.5286 152.156 32.4318 152.087 32.3419 152.018C32.0585 151.802 32.1553 151.879 32.6323 152.247C32.2659 151.761 31.5401 151.365 31.0769 150.948C30.5723 150.504 30.0815 150.039 29.6045 149.567C28.5815 148.56 27.5999 147.504 26.6321 146.449C24.0329 143.602 21.4061 140.797 18.7448 138.006C18.0811 137.304 17.4314 136.596 16.8092 135.853C16.4912 135.478 16.1871 135.103 15.8829 134.721C15.3714 134.076 16.3253 135.339 15.8553 134.68C15.6755 134.437 15.4958 134.194 15.323 133.944C14.376 132.59 13.5326 131.159 12.8344 129.66C12.71 129.389 12.316 128.215 12.6547 129.285C12.5372 128.903 12.3506 128.528 12.2123 128.153C11.9289 127.375 11.6731 126.591 11.445 125.799C10.9473 124.077 10.5533 122.32 10.1938 120.564C9.79287 118.599 9.41959 116.62 9.06705 114.648C8.93571 113.933 8.81819 113.224 8.70759 112.502C8.6592 112.183 8.61081 111.864 8.56242 111.551C8.51403 111.239 8.31357 109.662 8.46565 110.878C7.567 103.399 7.04164 95.8728 7.48405 88.3391C7.53244 87.4712 7.60156 86.6032 7.6776 85.7353C7.71908 85.2701 7.76747 84.8118 7.82277 84.3466C7.85042 84.1175 7.87807 83.8884 7.90572 83.6592C7.92646 83.5065 7.94028 83.3606 7.96102 83.2079C7.88498 83.7564 7.87807 83.8397 7.92646 83.4579C8.18223 81.7567 8.48638 80.0625 8.92879 78.3961C9.11543 77.6948 9.32281 76.9935 9.55784 76.3061C9.68227 75.945 9.8067 75.5909 9.94495 75.2438C10.0417 75.0007 10.3528 74.4383 9.87583 75.3965C9.95878 75.2368 10.021 75.0632 10.097 74.9035C10.5394 73.9523 11.0925 73.0635 11.5694 72.1331C14.1133 67.1616 16.2216 61.9887 18.9176 57.0936C19.7194 55.6354 20.5559 54.1981 21.4545 52.8025C21.8554 52.1707 22.2771 51.5457 22.7057 50.9278C22.9338 50.5945 23.1689 50.2681 23.4108 49.9418C23.5283 49.7821 23.6527 49.6224 23.7703 49.4627C24.1366 48.9697 23.2449 50.1293 23.8325 49.3794C24.7726 48.1921 25.7818 47.0533 26.8879 46.0257C27.1091 45.8243 27.3303 45.623 27.5515 45.4286C27.6828 45.3105 27.8211 45.1994 27.9593 45.0883C28.4639 44.6717 28.0976 45.1994 27.8072 45.1994C27.987 45.1994 28.4709 44.7134 28.6368 44.6023C28.9617 44.387 29.2865 44.1857 29.6253 43.9913C29.8603 43.8593 30.1022 43.7343 30.3442 43.6163C30.4755 43.5538 30.6622 43.4983 30.7797 43.415C30.1022 43.9079 30.1645 43.658 30.5377 43.526C31.1322 43.3247 31.7198 43.1442 32.335 43.0331L28.0837 38.7628C27.3856 43.7135 26.6874 48.6573 25.9823 53.6079C24.8625 61.5304 23.7426 69.446 22.6228 77.3684C22.367 79.1807 22.1112 80.9929 21.8554 82.7982C21.7172 83.7634 21.6895 84.5966 22.2011 85.4715C22.6228 86.1936 23.4454 86.881 24.268 87.0685C25.8993 87.4434 28.2496 86.5685 28.5192 84.6452C29.2174 79.6945 29.9156 74.7508 30.6207 69.8001C31.7405 61.8776 32.8604 53.9621 33.9802 46.0396C34.236 44.2273 34.4918 42.4151 34.7475 40.6098C34.9273 39.3391 34.8167 38.1935 33.8558 37.2353C32.895 36.2771 31.7336 36.1104 30.4963 36.3396C23.9845 37.5477 19.2356 43.5469 15.8207 48.7822C12.4059 54.0176 9.73757 59.864 7.06929 65.5923C6.14991 67.5643 5.04388 69.439 4.13141 71.411C2.63137 74.6536 1.7742 78.0906 1.26958 81.6248C0.135902 89.5542 0.246505 97.6086 0.972333 105.573C1.29723 109.114 1.73964 112.655 2.35486 116.155C3.01848 119.932 3.68209 123.751 4.73281 127.445C5.72132 130.923 7.17989 134.291 9.23986 137.27C11.7699 140.929 14.9635 143.97 17.9705 147.213C22.3117 151.893 26.3556 156.732 31.8995 160.051C35.3006 162.086 38.9781 163.648 42.6487 165.113C45.8285 166.384 49.0636 167.529 52.3126 168.605C60.0064 171.161 67.8384 173.341 75.7465 175.111C83.6545 176.882 91.4313 178.292 99.3808 178.583C100.922 178.639 102.464 178.639 103.998 178.562C105.727 178.472 107.158 177.306 107.393 175.549C107.628 173.792 106.542 172.376 104.918 171.737C100.293 169.932 95.6687 168.119 91.0442 166.314C84.9679 163.939 78.8848 161.565 72.8086 159.183C72.5321 159.079 72.2625 158.968 71.986 158.864C71.2325 158.572 72.7809 159.232 72.0828 158.892C69.6979 157.711 67.2854 156.593 64.9558 155.309C62.9235 154.191 60.9465 152.962 59.0662 151.594C58.845 151.434 58.6307 151.275 58.4165 151.115C58.3059 151.032 58.2022 150.948 58.0916 150.872C57.5247 150.441 58.5962 151.275 58.2229 150.976C57.7321 150.573 57.2413 150.184 56.7574 149.775C55.7827 148.949 54.8288 148.088 53.9025 147.206C51.6144 145.025 49.4507 142.713 47.3355 140.359C46.0635 138.943 44.8124 137.513 43.6303 136.027C43.5059 135.867 43.3814 135.707 43.2501 135.548C43.5612 135.957 42.9183 135.131 43.2501 135.548C42.9874 135.2 42.7316 134.86 42.4759 134.506C41.9989 133.853 41.5289 133.187 41.0795 132.513C39.6901 130.444 38.432 128.292 37.3467 126.042C37.1324 125.598 36.925 125.146 36.7176 124.695C36.6209 124.473 36.5241 124.251 36.4204 124.022C36.0817 123.251 36.69 124.688 36.4411 124.077C36.1508 123.362 35.8674 122.64 35.584 121.918C34.6992 119.626 33.7383 117.37 32.9986 115.023C32.0654 112.065 31.3949 109.038 30.9456 105.975C30.911 105.719 30.8281 104.698 30.8972 105.656C30.8765 105.323 30.8142 104.996 30.7728 104.663C30.6829 103.92 30.6069 103.177 30.5377 102.434C30.3995 100.969 30.282 99.5042 30.1714 98.0322C29.9363 94.9007 29.6944 91.7622 29.328 88.6446C29.0999 86.6935 28.8303 84.7493 28.5192 82.8121C28.2289 81.0138 25.9063 79.8542 24.268 80.3889C22.3255 81.0207 21.5444 82.7357 21.8554 84.6591H21.8485Z" fill="#ECCA39"/>
<path d="M25.404 64.8326C24.9478 71.9219 27.1322 78.9556 30.2083 85.3505C39.3883 104.487 57.0156 119.339 77.3734 125.095C91.489 129.087 111.902 124.144 125.637 118.992C130.027 117.346 132.039 117.929 136.304 117.735C140.576 117.54 145.11 114.367 144.986 110.076C144.882 106.452 143.292 107.82 143.265 104.195C143.237 100.751 142.809 96.217 143.756 92.9119C148.034 77.9071 147.067 73.5189 144.35 61.0415C139.898 40.6138 119.755 12.722 119.658 12.4512C128.188 35.5243 110.063 56.7088 90.8599 68.1585C70.5713 80.254 50.0753 88.2945 25.4179 64.8187L25.404 64.8326Z" fill="#ECCA39"/>
<path d="M21.9466 64.8312C21.5941 70.8026 22.9351 76.8086 25.1403 82.3356C27.062 87.1544 29.4607 91.7648 32.3433 96.0767C37.8596 104.326 44.8413 111.429 52.9153 117.164C56.7864 119.914 60.9132 122.295 65.2267 124.267C69.5402 126.239 74.2132 128.093 78.9414 129.044C89.0754 131.093 99.7209 129.711 109.696 127.426C114.5 126.322 119.235 124.941 123.888 123.309C124.987 122.92 126.079 122.497 127.178 122.115C127.779 121.906 128.395 121.726 129.017 121.58C129.314 121.511 129.611 121.448 129.908 121.393C130.033 121.372 130.157 121.351 130.275 121.33C130.752 121.247 129.597 121.393 130.074 121.365C132.369 121.226 134.713 121.413 136.994 121.15C142.517 120.525 147.743 116.852 148.393 110.998C148.524 109.783 148.407 108.415 148.02 107.263C147.715 106.367 147.308 105.798 146.831 105.041C146.741 104.895 146.506 104.381 146.755 104.978C147.003 105.575 146.796 105.006 146.755 104.846C146.54 104.103 146.755 105.457 146.741 104.777C146.741 104.457 146.72 104.138 146.713 103.819C146.692 102.527 146.637 101.243 146.609 99.9581C146.582 98.6736 146.582 97.3682 146.685 96.0837C146.699 95.9379 146.665 95.3477 146.761 95.2505C146.741 95.2713 146.623 96.0906 146.748 95.3685C146.768 95.2366 146.789 95.1046 146.817 94.9727C146.941 94.3131 147.128 93.6674 147.314 93.0216C148.026 90.4803 148.676 87.9251 149.174 85.3352C149.955 81.2455 150.356 77.0933 149.962 72.9411C149.547 68.5529 148.586 64.2271 147.632 59.9291C146.734 55.9019 145.358 51.9858 143.789 48.1738C140.45 40.0639 136.316 32.3289 131.789 24.8299C129.037 20.2681 126.134 15.8034 123.113 11.4221C122.961 11.1999 122.754 10.9708 122.636 10.7208C121.917 9.15855 119.768 8.68639 118.323 9.29742C116.878 9.90844 115.724 11.7623 116.325 13.3941C117.161 15.6785 117.715 17.9906 118.129 20.3792C118.198 20.775 118.095 20.1292 118.095 20.1084C118.067 20.2195 118.143 20.4972 118.157 20.6291C118.185 20.886 118.212 21.1499 118.233 21.4068C118.288 22.0109 118.323 22.608 118.344 23.2121C118.378 24.3161 118.364 25.4271 118.288 26.5311C118.254 27.0796 118.205 27.6281 118.143 28.1697C118.046 29.0168 118.219 27.7462 118.122 28.3711C118.074 28.6627 118.032 28.9543 117.984 29.246C117.791 30.3639 117.542 31.4748 117.244 32.5649C116.947 33.6551 116.622 34.6688 116.249 35.6964C116.062 36.2172 115.855 36.7241 115.655 37.2379C115.509 37.6059 115.744 37.0018 115.758 36.9949C115.717 37.0087 115.627 37.3004 115.606 37.349C115.468 37.6614 115.33 37.9739 115.184 38.2794C114.217 40.3486 113.097 42.3413 111.846 44.2508C111.224 45.202 110.574 46.1325 109.896 47.049C109.834 47.1323 109.253 47.8891 109.53 47.542C109.806 47.1948 109.309 47.8197 109.233 47.9169C108.846 48.403 108.452 48.8821 108.058 49.3542C105.002 52.9718 101.553 56.2421 97.8545 59.2C97.6125 59.3945 97.3775 59.6028 97.1217 59.7833C97.6125 59.4431 97.2185 59.7069 96.9765 59.8944C96.4788 60.2693 95.9811 60.6443 95.4765 61.0053C94.5156 61.7066 93.534 62.3801 92.5455 63.0398C90.6929 64.2688 88.7851 65.4075 86.8564 66.5254C83.2826 68.5945 79.6327 70.5456 75.8515 72.2121C75.6441 72.3023 75.4298 72.3926 75.2224 72.4829C74.6625 72.7259 75.8584 72.226 75.1049 72.5315C74.6141 72.7328 74.1302 72.9272 73.6325 73.1217C72.727 73.4688 71.8145 73.8021 70.8882 74.1076C69.0356 74.7256 67.1554 75.2464 65.2475 75.656C64.2797 75.8574 63.3119 76.0101 62.3373 76.1698C61.9501 76.2323 62.7382 76.1212 62.7175 76.1212C62.6138 76.1212 62.4962 76.149 62.3926 76.1629C62.1368 76.1907 61.8879 76.2184 61.6322 76.2462C61.1275 76.2948 60.616 76.3434 60.1045 76.3712C58.162 76.4962 56.2057 76.4684 54.2633 76.2879C54.0421 76.2671 53.8209 76.2462 53.5928 76.2184C53.4822 76.2046 53.3715 76.1907 53.2609 76.1768C52.9153 76.1421 52.9844 75.9824 53.5098 76.2115C53.1089 76.0379 52.4867 76.0587 52.0512 75.9754C51.0212 75.788 50.0051 75.5588 48.9958 75.288C47.9866 75.0172 46.922 74.6839 45.9059 74.3159C45.4427 74.1493 44.9796 73.9757 44.5164 73.7882C44.3989 73.7396 44.2814 73.691 44.1708 73.6494C43.5348 73.3925 44.2814 73.6633 44.3022 73.7049C44.2399 73.573 43.6316 73.4063 43.4865 73.3439C41.3159 72.3509 39.2214 71.1844 37.2167 69.886C36.1037 69.1639 35.0185 68.4071 33.9539 67.6155C33.712 67.435 33.4631 67.2475 33.2212 67.06C32.9101 66.824 33.2626 67.0947 33.311 67.1295C33.1451 66.9975 32.9861 66.8726 32.8202 66.7406C32.2396 66.2754 31.6658 65.7963 31.099 65.3172C29.993 64.3729 28.9146 63.3939 27.8639 62.394C26.5505 61.1442 24.2624 60.9845 22.9766 62.394C21.6909 63.8035 21.5734 65.9699 22.9766 67.303C30.5875 74.5173 39.7467 80.7734 50.2194 82.6759C58.7772 84.2243 67.4042 82.9258 75.4713 79.8152C79.6327 78.2112 83.649 76.2601 87.5477 74.1007C91.4464 71.9413 95.6286 69.4555 99.3891 66.692C107.518 60.7137 114.929 53.3606 119.816 44.4313C124.703 35.502 126.646 25.2326 124.143 15.2688C123.825 14.012 123.438 12.7761 122.996 11.561L116.678 14.2342C117.092 15.1369 117.873 15.984 118.433 16.8033C119.92 18.9905 121.371 21.1985 122.788 23.4274C127.012 30.0722 130.973 36.9115 134.409 44.0078C135.342 45.938 136.123 47.9447 137.07 49.868C136.773 49.2709 136.987 49.6667 137.139 50.0347C137.229 50.2569 137.319 50.4791 137.409 50.7012C137.616 51.2151 137.816 51.7289 138.017 52.2496C138.376 53.1939 138.729 54.1452 139.054 55.0965C140.416 59.0473 141.307 63.1023 142.13 67.192C142.324 68.1501 142.51 69.1153 142.669 70.0804C142.745 70.5387 142.821 70.99 142.883 71.4483C142.897 71.5524 142.911 71.6566 142.925 71.7607C142.987 72.1496 142.87 71.3164 142.87 71.3511C142.897 71.6219 142.939 71.8927 142.966 72.1635C143.167 73.9341 143.257 75.7116 143.201 77.4891C143.174 78.4056 143.112 79.3222 143.015 80.2387C142.987 80.4956 142.959 80.7525 142.925 81.0164C142.849 81.676 143.029 80.3359 142.925 81.0025C142.842 81.558 142.759 82.1065 142.662 82.655C142.241 85.0575 141.667 87.4252 141.038 89.779C140.692 91.0774 140.264 92.355 140.063 93.6882C139.849 95.1116 139.711 96.5281 139.69 97.9653C139.669 99.2568 139.704 100.548 139.745 101.833C139.78 102.979 139.738 104.152 139.87 105.298C140.008 106.527 140.264 107.693 140.969 108.735C141.114 108.95 141.273 109.172 141.425 109.387C141.743 109.839 141.321 109.311 141.328 109.068C141.328 109.228 141.459 109.505 141.501 109.665C141.694 110.415 141.501 109.096 141.515 109.818C141.515 110.068 141.515 110.325 141.522 110.582C141.535 111.207 141.694 109.964 141.529 110.554C141.501 110.651 141.287 111.415 141.28 111.408C141.245 111.387 141.612 110.769 141.411 111.088C141.356 111.179 141.314 111.29 141.259 111.387C141.155 111.581 141.024 111.769 140.913 111.963C140.623 112.47 141.363 111.512 140.83 112.068C140.644 112.262 140.464 112.463 140.27 112.644C140.105 112.797 139.89 112.928 139.745 113.102C140.264 112.505 139.856 112.998 139.579 113.172C139.379 113.297 139.171 113.421 138.964 113.533C138.86 113.588 138.757 113.644 138.646 113.699C138.528 113.755 137.899 113.963 138.404 113.817C138.909 113.671 138.155 113.894 138.031 113.935C137.803 114.012 137.575 114.074 137.346 114.137C137.236 114.164 136.565 114.366 136.531 114.31C136.524 114.296 137.263 114.241 136.863 114.269C136.704 114.282 136.551 114.296 136.392 114.31C134.167 114.449 131.92 114.241 129.701 114.512C127.081 114.838 124.738 115.706 122.263 116.581C120.079 117.351 117.873 118.067 115.648 118.726C110.878 120.136 106.032 121.302 101.124 122.108C100.564 122.198 99.9974 122.288 99.4374 122.372C99.2923 122.392 98.3245 122.531 98.7738 122.469C99.2232 122.406 98.7393 122.469 98.6701 122.483C98.4835 122.504 98.2969 122.531 98.1102 122.552C96.9005 122.698 95.6908 122.823 94.4742 122.92C92.0686 123.108 89.6561 123.184 87.2435 123.101C86.0684 123.059 84.8863 122.983 83.7112 122.865C83.4554 122.837 83.1996 122.809 82.9439 122.781C82.2595 122.705 83.5314 122.872 82.854 122.767C82.2733 122.677 81.6996 122.587 81.1258 122.476C78.9276 122.052 76.7778 121.4 74.6556 120.677C73.5427 120.296 72.4435 119.893 71.3513 119.462C70.8813 119.275 70.3421 119.122 69.8997 118.872C70.5011 119.212 69.9273 118.879 69.6439 118.754C69.3605 118.629 69.084 118.504 68.8075 118.379C66.706 117.421 64.653 116.372 62.6552 115.227C60.6575 114.081 58.7012 112.845 56.8071 111.519C55.8808 110.866 54.9684 110.2 54.0697 109.512C53.8969 109.38 53.572 109.269 54.1527 109.575C54.0421 109.519 53.9384 109.408 53.8416 109.332C53.6342 109.172 53.4338 109.005 53.2264 108.839C52.7494 108.457 52.2794 108.068 51.8162 107.672C48.2977 104.687 45.0418 101.382 42.1108 97.8057C41.779 97.4029 41.4541 96.9933 41.1292 96.5836C41.0532 96.4864 40.9426 96.3822 40.8873 96.2711C41.1707 96.8336 41.0878 96.535 40.9495 96.3545C40.7629 96.1115 40.5831 95.8684 40.3965 95.6254C39.6983 94.6811 39.014 93.716 38.3573 92.7439C37.0923 90.8622 35.9171 88.918 34.8318 86.9253C34.2719 85.8907 33.7327 84.8422 33.2212 83.7799C32.9239 83.1688 32.6405 82.5509 32.364 81.926C32.2327 81.6343 32.1082 81.3427 31.9838 81.0511C32.0115 81.1066 32.1704 81.5163 32.0253 81.1414C31.9492 80.94 31.8663 80.7456 31.7833 80.5512C30.7395 77.9335 29.8893 75.2394 29.3363 72.4759C29.2671 72.1149 29.198 71.7469 29.1358 71.3858C29.1081 71.233 29.0874 71.0733 29.0598 70.9136C29.0528 70.865 28.9699 70.3443 29.0321 70.747C29.0943 71.1497 29.0183 70.629 29.0114 70.5804C28.9906 70.4207 28.9768 70.2679 28.9561 70.1082C28.9146 69.7402 28.8869 69.3722 28.8593 69.0042C28.7625 67.6363 28.7556 66.2615 28.8386 64.8867C28.9422 63.0675 27.1726 61.3317 25.3822 61.415C23.419 61.5053 22.0434 62.9426 21.9259 64.8867L21.9466 64.8312Z" fill="#ECCA39"/>
<path d="M83.3064 0.0829393C72.2531 -0.194799 67.9327 -0.00732536 58.7527 4.40177C49.5727 8.81086 41.948 15.9001 35.0423 23.3991C29.7126 29.1899 24.6526 35.4112 21.6248 42.688C18.604 49.9647 17.816 58.4843 21.0303 65.6778C25.3024 75.232 35.9686 80.7173 46.379 81.3005C56.7895 81.8838 66.9926 78.3357 76.4698 73.9752C87.5784 68.8648 98.2861 62.4491 106.706 53.5545C115.125 44.6599 121.139 33.0644 121.672 20.8022C121.838 16.9139 122.646 11.7896 119.522 9.49132C108.828 1.58967 102.489 -0.139251 92.4173 0.1246L83.3064 0.0829393Z" fill="#F4E39A"/>
<path d="M26.213 79.5033C34.9782 84.6692 45.0361 85.8357 54.9627 84.3915C62.5389 83.2944 69.735 80.6003 76.6822 77.4619C93.8187 69.7338 110.796 58.7493 118.932 41.0157C121.303 35.8567 122.838 30.4547 123.336 24.7819C123.543 22.4072 123.792 19.9701 123.806 17.5885C123.82 14.7556 123.246 11.7629 121.49 9.47158C120.916 8.72169 120.37 8.13844 119.423 7.87459C118.594 7.64545 117.495 7.7496 116.762 8.22176C115.352 9.13135 114.342 11.4366 115.524 12.9711C115.856 13.4016 116.112 13.8598 116.388 14.3251C116.81 15.0472 116.216 13.6515 116.444 14.45C116.513 14.7 116.603 14.9361 116.665 15.186C116.727 15.436 116.769 15.686 116.824 15.9359C117.011 16.783 116.776 15.1583 116.831 16.0331C116.865 16.547 116.893 17.0608 116.893 17.5815C116.886 19.6021 116.624 21.6226 116.506 23.6362C116.471 24.2056 116.43 24.775 116.368 25.3443C116.34 25.6221 116.326 25.9206 116.271 26.1914C116.423 25.4554 116.306 25.9484 116.278 26.115C116.091 27.3302 115.87 28.5453 115.587 29.7395C115.061 31.9614 114.342 34.1139 113.513 36.2317C113.278 36.8427 113.485 36.308 113.534 36.19C113.423 36.4539 113.305 36.7177 113.195 36.9746C112.96 37.4954 112.725 38.0161 112.469 38.5299C111.971 39.5576 111.432 40.5713 110.865 41.5642C109.725 43.557 108.439 45.4526 107.077 47.3065C106.51 48.0772 107.52 46.7649 106.918 47.5148C106.738 47.737 106.566 47.9661 106.386 48.1883C106.026 48.6327 105.66 49.0771 105.287 49.5076C104.54 50.3824 103.759 51.2295 102.964 52.0558C101.319 53.7639 99.5769 55.3817 97.7589 56.9023C97.3787 57.2217 96.9985 57.5342 96.6183 57.8466C96.3902 58.0341 96.1552 58.2146 95.9201 58.4021C95.1459 59.0201 96.4732 57.9925 95.6851 58.5827C94.6966 59.3256 93.7012 60.0616 92.685 60.7629C90.7702 62.0891 88.807 63.3389 86.8023 64.5262C82.9174 66.8176 78.8874 68.8381 74.7882 70.7198C73.5577 71.2892 72.3203 71.8447 71.0692 72.3862C70.9516 72.4348 70.8341 72.4835 70.7235 72.539C70.0668 72.8237 71.5047 72.2127 70.8341 72.4904C70.4678 72.6432 70.0945 72.7959 69.7212 72.9487C68.9401 73.2681 68.152 73.5736 67.364 73.8721C63.797 75.2122 60.1472 76.3301 56.4143 77.1008C55.3221 77.323 54.223 77.5105 53.1239 77.6772C52.2391 77.816 53.905 77.5869 53.0133 77.691C52.6677 77.7327 52.322 77.7744 51.9695 77.8091C51.3543 77.8716 50.746 77.9271 50.1307 77.9688C47.8081 78.1215 45.4647 78.1076 43.142 77.8924C42.8725 77.8646 42.5959 77.8369 42.3264 77.8091C42.1466 77.7882 41.96 77.7674 41.7803 77.7396C42.2434 77.8021 42.278 77.8091 41.8839 77.7466C41.248 77.6424 40.6051 77.5383 39.9691 77.4064C38.7733 77.1633 37.5843 76.8578 36.423 76.4968C35.8285 76.3093 35.2409 76.1079 34.6533 75.8927C34.4252 75.8094 34.1971 75.7191 33.9759 75.6358C33.7961 75.5663 33.6164 75.49 33.4367 75.4136C33.81 75.5733 33.8169 75.5733 33.4505 75.4136C32.1717 74.8234 30.9205 74.1915 29.7039 73.4764C28.1416 72.5598 25.8466 73.0667 24.9756 74.7192C24.1046 76.3718 24.547 78.4895 26.213 79.4686V79.5033Z" fill="white"/>
<path d="M110.898 176.489C127.101 177.072 151.683 170.934 167.582 163.99C172.303 161.928 193.85 147.326 193.85 147.326C175.877 161.907 154.448 165.379 137.857 166.768C124.475 167.886 93.7132 172.364 70.8047 161.907C63.2008 158.436 91.5427 175.794 110.898 176.489Z" fill="white"/>
<path d="M110.9 179.961C118.531 180.218 126.218 179.183 133.705 177.781C141.73 176.274 149.659 174.191 157.401 171.587C162.8 169.768 168.233 167.831 173.141 164.907C177.648 162.227 182.038 159.339 186.421 156.45C189.49 154.43 192.552 152.388 195.601 150.326C194.204 148.507 192.808 146.688 191.412 144.876C191.17 145.07 190.928 145.257 190.693 145.452C190.596 145.528 190.174 145.855 190.665 145.473C190.264 145.785 189.856 146.091 189.448 146.389C188.64 146.986 187.824 147.563 186.994 148.132C185.404 149.208 183.78 150.222 182.114 151.18C180.448 152.138 178.831 152.986 177.151 153.798C176.3 154.208 175.443 154.603 174.579 154.985C174.234 155.138 173.895 155.284 173.549 155.43C174.33 155.096 173.459 155.464 173.342 155.513C173.086 155.617 172.823 155.721 172.568 155.825C166.125 158.401 159.399 160.193 152.583 161.429C150.945 161.727 149.3 161.991 147.654 162.227C147.406 162.262 146.078 162.484 147.122 162.304C146.763 162.366 146.403 162.401 146.044 162.443C145.214 162.547 144.392 162.644 143.562 162.741C140.963 163.033 138.35 163.241 135.744 163.484C130.49 163.977 125.244 164.512 119.976 164.838C113.319 165.248 106.635 165.366 99.971 164.963C98.2221 164.859 96.4732 164.713 94.7243 164.526C93.9086 164.442 92.9478 164.456 92.1597 164.22C92.8371 164.421 92.4915 164.269 92.2703 164.234C92.0007 164.192 91.7311 164.158 91.4615 164.116C91.0122 164.046 90.5629 163.977 90.1136 163.908C86.5812 163.338 83.0834 162.561 79.6547 161.526C77.975 161.019 76.3159 160.45 74.6845 159.811C74.2698 159.651 73.8412 159.499 73.4403 159.304C74.2283 159.672 73.1015 159.151 72.9149 159.068C72.3342 158.811 71.7605 158.547 71.1729 158.311C70.6475 158.103 70.1913 157.971 69.583 157.971C66.9147 157.978 65.2211 160.977 66.5829 163.276C67.2465 164.401 68.5323 165.095 69.6176 165.748C71.0969 166.636 72.6246 167.456 74.1523 168.247C79.0119 170.761 84.0304 172.99 89.1458 174.913C94.9179 177.086 100.849 178.808 106.974 179.607C108.273 179.78 109.58 179.898 110.893 179.947C112.704 180.016 114.432 178.301 114.349 176.475C114.259 174.531 112.829 173.08 110.893 173.004C110.07 172.969 109.255 172.913 108.439 172.837C108.024 172.795 107.603 172.712 107.181 172.691C108.211 172.74 107.506 172.733 107.25 172.691C106.967 172.649 106.683 172.608 106.4 172.559C104.651 172.274 102.909 171.9 101.188 171.462C97.5792 170.553 94.04 169.379 90.556 168.053C89.7265 167.733 88.8969 167.407 88.0743 167.074C87.6665 166.907 87.2656 166.741 86.8646 166.574C86.6711 166.491 85.9729 166.164 86.8923 166.588C86.6365 166.47 86.3669 166.366 86.1111 166.255C84.6249 165.609 83.1525 164.942 81.687 164.248C79.3022 163.116 76.945 161.929 74.6431 160.637C73.8481 160.193 73.0532 159.735 72.2858 159.242C72.0508 159.089 71.8227 158.922 71.5877 158.763C71.3319 158.596 72.4587 159.54 72.0646 159.124C72.4518 159.533 73.0877 160.589 72.9909 161.45L72.5209 163.199C72.5209 163.199 69.5139 164.901 69.6037 164.901C69.5761 164.901 68.6083 164.658 68.788 164.796C68.8226 164.824 68.9816 164.873 69.0231 164.873C69.1406 164.873 69.818 165.199 68.9816 164.845C68.1936 164.512 69.0023 164.859 69.1821 164.942C71.4978 165.984 73.8619 166.928 76.2744 167.72C80.7953 169.199 85.4614 170.205 90.162 170.872C99.4526 172.191 108.826 172.358 118.186 171.865C125.133 171.497 132.039 170.74 138.965 170.129C147.855 169.344 156.745 168.046 165.344 165.588C175.077 162.804 184.492 158.554 192.683 152.548C193.907 151.652 195.11 150.722 196.285 149.764C197.626 148.681 197.508 146.445 196.555 145.202C195.601 143.959 193.534 143.334 192.096 144.306C185.245 148.951 178.347 153.562 171.289 157.888C169.685 158.874 168.074 159.873 166.388 160.707C166.063 160.866 165.731 161.012 165.392 161.158C165.219 161.234 164.452 161.526 165.344 161.179C165.192 161.234 165.047 161.304 164.902 161.366C164.411 161.568 163.92 161.769 163.429 161.97C161.736 162.651 160.021 163.297 158.307 163.908C150.751 166.609 142.988 168.768 135.136 170.414C132.924 170.879 130.705 171.295 128.472 171.657C127.366 171.837 126.253 172.004 125.14 172.163C124.967 172.191 124.469 172.274 125.271 172.15C124.926 172.205 124.573 172.24 124.221 172.281C123.702 172.344 123.184 172.406 122.665 172.462C118.76 172.892 114.826 173.129 110.893 172.997C109.082 172.934 107.354 174.635 107.437 176.468C107.52 178.399 108.957 179.878 110.893 179.94L110.9 179.961Z" fill="white"/>
<path d="M179.347 43.1738C190.925 45.9026 196.386 54.1931 204.923 62.5114C208.864 66.3441 212.479 70.5935 215.009 75.4817C222.903 90.7296 222.26 117.726 211.836 131.356C197.568 150.006 161.125 165.143 162.756 163.99C202.158 136.216 192.481 85.5289 192.481 85.5289C188.506 71.0796 185.734 66.1081 176.865 52.1239C175.807 50.4506 172.434 44.5625 170.36 43.1738H179.347Z" fill="#ECCA39"/>
<path d="M178.426 46.5192C179.242 46.7136 180.058 46.9358 180.853 47.1997C181.281 47.3385 181.703 47.4913 182.125 47.651C182.29 47.7135 182.456 47.7829 182.622 47.8454C183.3 48.1093 182.048 47.5746 182.767 47.9079C184.191 48.5745 185.574 49.3035 186.894 50.1645C187.523 50.5742 188.132 51.0047 188.733 51.456C188.899 51.581 189.397 51.8934 188.726 51.4421C188.857 51.5324 188.989 51.6504 189.113 51.7546C189.438 52.0184 189.756 52.2823 190.074 52.5531C191.291 53.5946 192.459 54.6986 193.593 55.8304C195.929 58.1634 198.155 60.6075 200.464 62.9683C203.021 65.579 205.662 68.0856 207.95 70.9532C208.075 71.106 208.199 71.2657 208.323 71.4254C207.909 70.8977 208.323 71.4254 208.42 71.5573C208.69 71.9184 208.953 72.2794 209.215 72.6474C209.789 73.4668 210.335 74.3 210.853 75.154C211.621 76.4316 212.319 77.7578 212.927 79.1257C212.996 79.2854 213.066 79.452 213.142 79.6117C213.349 80.0561 212.81 78.7855 213.086 79.4729C213.19 79.7437 213.301 80.0075 213.404 80.2783C213.667 80.9657 213.916 81.6531 214.144 82.3474C214.586 83.6806 214.967 85.0276 215.291 86.3955C215.616 87.7633 215.92 89.2354 216.155 90.6657C216.218 91.0615 216.28 91.4573 216.342 91.853C216.363 92.0127 216.377 92.1724 216.411 92.3321C216.397 92.2488 216.308 91.4989 216.384 92.1308C216.48 92.9362 216.57 93.7417 216.646 94.5471C216.916 97.5814 216.992 100.63 216.867 103.678C216.805 105.198 216.695 106.726 216.529 108.24C216.487 108.608 216.446 108.976 216.404 109.337C216.384 109.496 216.37 109.663 216.342 109.823C216.501 108.934 216.384 109.524 216.342 109.746C216.232 110.51 216.107 111.274 215.969 112.031C215.437 114.933 214.704 117.808 213.702 120.592C213.473 121.238 213.204 121.863 212.969 122.501C212.81 122.939 213.252 121.877 213.059 122.293C212.983 122.46 212.913 122.633 212.837 122.807C212.685 123.147 212.533 123.48 212.374 123.814C211.787 125.05 211.13 126.251 210.404 127.404C210.086 127.903 209.761 128.396 209.416 128.882C209.236 129.132 209.035 129.369 208.863 129.625C209.45 128.73 208.849 129.632 208.662 129.868C207.84 130.882 206.975 131.861 206.084 132.812C204.245 134.764 202.268 136.583 200.222 138.312C199.71 138.742 199.192 139.173 198.666 139.596C198.404 139.811 198.141 140.02 197.872 140.228C197.733 140.339 197.581 140.506 197.429 140.575L197.768 140.311C197.65 140.402 197.526 140.499 197.408 140.589C196.323 141.422 195.224 142.235 194.111 143.026C189.597 146.241 184.876 149.164 180.051 151.879C176.152 154.073 172.177 156.129 168.14 158.038C166.737 158.705 165.327 159.35 163.896 159.961C163.765 160.017 163.633 160.086 163.495 160.135C163.668 160.073 164.47 159.725 163.91 159.961C163.668 160.059 163.426 160.163 163.184 160.26C162.859 160.392 162.534 160.524 162.209 160.628C162.126 160.656 162.029 160.67 161.953 160.711C161.933 160.718 161.877 160.711 161.864 160.732C162.099 160.496 163.419 160.663 163.633 160.732L165.161 161.628C165.458 162.135 165.755 162.649 166.053 163.155L166.177 164.072L165.707 165.822C165.493 166.287 164.919 166.773 164.518 167.016C164.808 166.835 165.085 166.613 165.361 166.412C166.219 165.787 167.062 165.141 167.905 164.489C169.149 163.516 170.366 162.51 171.548 161.461C173.795 159.461 175.917 157.316 177.887 155.038C181.654 150.678 184.931 145.894 187.572 140.763C192.258 131.646 194.989 121.772 196.261 111.621C197.111 104.803 197.256 97.88 196.655 91.0337C196.482 89.1034 196.261 87.1801 195.95 85.2706C195.901 84.9512 195.839 84.6527 195.763 84.3402C194.906 81.1185 193.924 77.9245 192.798 74.786C190.765 69.1341 188.09 63.8084 185.014 58.6633C183.258 55.7262 181.392 52.8586 179.601 49.9423C178.267 47.776 176.954 45.5888 175.405 43.5613C174.424 42.2768 173.47 41.138 172.136 40.2007L170.394 46.672H179.38C181.191 46.672 182.919 45.075 182.837 43.2002C182.754 41.3255 181.316 39.7285 179.38 39.7285H170.394C168.935 39.7285 167.394 40.7978 167.062 42.2768C166.702 43.8668 167.338 45.2833 168.652 46.1998C169.094 46.5123 168.043 45.6513 168.334 45.9499C168.424 46.0401 168.527 46.1234 168.624 46.2137C168.811 46.3942 168.99 46.5886 169.163 46.7831C169.357 46.9983 169.537 47.2274 169.73 47.4496C170.096 47.8871 169.599 47.2969 169.571 47.2413C169.661 47.4219 169.834 47.5955 169.958 47.7621C170.788 48.9008 171.548 50.0812 172.295 51.2755C173.912 53.8654 175.537 56.4484 177.14 59.0452C178.744 61.6421 180.459 64.4819 181.966 67.294C182.622 68.523 183.251 69.7659 183.839 71.0296C184.129 71.6476 184.413 72.2794 184.682 72.9044C184.737 73.0363 184.8 73.1682 184.855 73.3071C185.09 73.8556 184.772 73.1404 184.758 73.0849C184.82 73.439 185.083 73.8695 185.214 74.2097C186.355 77.0843 187.316 80.0353 188.187 83.0071C188.56 84.2638 189.003 85.5276 189.238 86.826C189.334 87.3467 189.397 87.8744 189.473 88.4021C189.245 86.8121 189.452 88.2702 189.514 88.791C189.576 89.3117 189.625 89.8117 189.68 90.3255C190.323 97.012 190.247 103.789 189.493 110.462C189.438 110.968 189.376 111.475 189.314 111.982C189.196 112.913 189.431 111.149 189.3 112.086C189.258 112.371 189.217 112.663 189.175 112.947C189.01 114.065 188.823 115.176 188.615 116.287C188.18 118.613 187.655 120.918 187.026 123.203C186.369 125.605 185.602 127.973 184.724 130.306C184.496 130.903 184.267 131.5 184.025 132.097C183.929 132.333 183.479 133.292 183.943 132.306C183.797 132.611 183.673 132.937 183.535 133.25C183.002 134.458 182.442 135.645 181.848 136.819C180.604 139.277 179.221 141.665 177.7 143.964C176.919 145.137 176.104 146.276 175.26 147.408C175.074 147.658 175.011 148.005 175.322 147.331C175.274 147.442 175.115 147.602 175.046 147.685C174.839 147.956 174.624 148.22 174.41 148.484C173.926 149.081 173.435 149.664 172.938 150.241C170.961 152.518 168.838 154.664 166.585 156.656C165.997 157.177 165.403 157.684 164.801 158.184C164.546 158.399 164.283 158.607 164.027 158.816C163.861 158.948 163.702 159.08 163.536 159.212C163.44 159.288 163.336 159.371 163.239 159.448C163.571 159.191 163.64 159.142 163.44 159.295C162.79 159.781 162.14 160.274 161.483 160.746C160.827 161.218 160.191 161.614 159.769 162.336C158.172 165.065 160.834 168.182 163.73 167.453C163.924 167.405 164.11 167.342 164.297 167.273C165.472 166.849 166.613 166.336 167.753 165.843C171.223 164.329 174.638 162.662 177.998 160.92C187.952 155.747 197.671 149.782 206.16 142.381C210.314 138.763 214.296 134.659 217.075 129.848C220.116 124.578 221.941 118.585 222.909 112.593C224.907 100.157 224.077 86.6107 218.692 75.0846C217.089 71.6545 214.918 68.5369 212.526 65.6137C210.155 62.7183 207.432 60.177 204.833 57.4968C200.146 52.6572 195.68 47.4705 189.908 43.8738C186.963 42.0337 183.687 40.6867 180.32 39.8743C178.564 39.4508 176.491 40.4298 176.069 42.2976C175.647 44.1654 176.601 46.1165 178.482 46.5678L178.426 46.5192Z" fill="#ECCA39"/>
<path d="M61.2636 51.2766C58.7473 58.0326 56.6665 65.0039 54.8346 71.9751C54.3991 73.6276 53.9844 75.2871 53.6595 76.9674C53.3207 78.745 54.1572 80.8002 56.072 81.2377C57.7795 81.6265 59.957 80.7169 60.3234 78.8144C60.9456 75.5579 61.865 72.357 62.7844 69.1769C63.8697 65.4135 65.0241 61.671 66.2546 57.9563C66.7869 56.3384 67.333 54.7275 67.9275 53.1305C68.5635 51.4294 67.2224 49.2492 65.5149 48.8603C63.5517 48.409 61.941 49.4575 61.2636 51.2836V51.2766Z" fill="white"/>
<path d="M73.3528 50.4784C74.9635 53.2003 76.4083 56.0193 77.9706 58.7759C79.6158 61.6713 81.3164 64.6847 83.5769 67.1566C84.8005 68.4967 87.2407 68.4967 88.4643 67.1566C89.7777 65.7193 89.7708 63.6779 88.4643 62.2476C88.2638 62.0254 88.0633 61.7963 87.8767 61.5602C87.7177 61.3588 87.4135 60.8589 88.008 61.7338C87.9112 61.588 87.7937 61.4491 87.69 61.3033C87.2753 60.727 86.8743 60.1298 86.4872 59.5327C85.554 58.0746 84.6829 56.5817 83.8258 55.0681C82.3049 52.3809 80.8947 49.6313 79.3255 46.972C78.4061 45.4097 76.1733 44.7084 74.5971 45.7291C73.021 46.7498 72.3712 48.8051 73.3597 50.4784H73.3528Z" fill="white"/>
<path d="M83.7188 45.132C86.8848 45.6527 90.0855 45.9791 93.2654 46.3679C95.2286 46.604 97.185 46.847 99.1413 47.1039C99.3556 47.1317 99.563 47.1595 99.7773 47.1872C99.8809 47.2011 99.9846 47.215 100.088 47.2289C100.545 47.2914 99.3348 47.1247 99.7911 47.1872C100.247 47.2497 100.738 47.3191 101.208 47.3816C102.052 47.4997 102.895 47.6247 103.738 47.7635C105.135 47.9857 106.552 48.201 107.914 48.5967C109.649 49.1036 111.757 47.9788 112.165 46.1735C112.573 44.3682 111.612 42.4448 109.752 41.9033C106.704 41.0145 103.434 40.7298 100.303 40.3132C96.5628 39.8133 92.8091 39.3758 89.0624 38.9106C88.2536 38.8134 87.4448 38.7023 86.636 38.5982C88.0185 38.7718 86.7258 38.6121 86.3871 38.5565C86.1106 38.5148 85.841 38.4732 85.5645 38.4315C83.7879 38.1399 81.7555 38.8967 81.3131 40.8548C80.9329 42.5282 81.8177 44.8126 83.7257 45.125L83.7188 45.132Z" fill="white"/>
<path d="M86.3808 35.7577C94.6555 30.3627 102.847 24.8426 111.08 19.3851C112.981 18.1214 114.889 16.8646 116.797 15.6217C118.311 14.6357 119.078 12.4972 118.035 10.8724C117.06 9.35178 114.931 8.56717 113.306 9.62952C105.032 15.0246 96.8399 20.5446 88.6068 26.0022C86.7058 27.2659 84.7978 28.5227 82.8899 29.7655C81.376 30.7515 80.6086 32.8901 81.6525 34.5149C82.6272 36.0355 84.7563 36.8201 86.3808 35.7577Z" fill="white"/>
<path d="M77.4315 28.7459C77.8946 27.267 78.4615 25.8227 79.0353 24.3855C79.4086 23.4481 79.7888 22.5177 80.169 21.5872C80.2588 21.3789 80.3418 21.1706 80.4316 20.9623C80.4869 20.8235 80.5492 20.6776 80.6114 20.5388C80.4247 20.9762 80.3833 21.0804 80.487 20.8373C80.7012 20.3374 80.9086 19.8375 81.1229 19.3445C82.5331 16.0464 83.9572 12.7343 85.5541 9.51951C86.3559 7.89474 86.0379 5.68672 84.3167 4.77019C82.7544 3.93697 80.4455 4.2772 79.5883 6.01307C77.9569 9.29732 76.5052 12.6788 75.0673 16.0533C73.5465 19.6153 71.9427 23.2051 70.7744 26.9059C70.2283 28.6348 71.4173 30.7734 73.187 31.1762C75.0742 31.6066 76.8508 30.6068 77.4384 28.7529L77.4315 28.7459Z" fill="white"/>
<path d="M66.197 27.5294C64.6693 24.7867 62.9618 22.1551 61.2405 19.5305C59.8372 17.3919 58.4339 15.2394 57.3417 12.9134C56.5675 11.2678 54.0857 10.7123 52.6133 11.6705C50.9266 12.7606 50.5464 14.6562 51.3759 16.4198C52.4612 18.7459 53.8645 20.8984 55.2748 23.0369C56.996 25.6616 58.7035 28.2862 60.2312 31.0358C61.1161 32.6259 63.4111 33.2855 64.9596 32.2787C66.5081 31.2719 67.1441 29.2236 66.197 27.5294Z" fill="white"/>
<path d="M56.987 33.4532C52.4522 33.6545 47.9174 34.0017 43.4033 34.453C38.8892 34.9044 34.7 35.3071 30.4901 36.3555C28.7343 36.793 27.5107 38.876 28.0776 40.6258C28.6444 42.3755 30.4487 43.5142 32.3289 43.049C34.071 42.6185 35.8545 42.3339 37.6311 42.0769C37.6933 42.07 38.2809 42.0492 38.3085 41.9797C37.7762 42.0492 37.7002 42.0631 38.0873 42.0075C38.2463 41.9867 38.3984 41.9659 38.5574 41.945C39.1243 41.8756 39.6842 41.8062 40.251 41.7367C41.3847 41.6048 42.5254 41.4798 43.6591 41.3687C48.0902 40.9243 52.5351 40.591 56.987 40.3897C58.7912 40.3064 60.5263 38.8482 60.4434 36.918C60.3604 35.1057 58.9226 33.3629 56.987 33.4462V33.4532Z" fill="white"/>
<path d="M52.4825 44.3398C44.1664 50.4153 36.5139 57.3171 28.972 64.3231C27.6378 65.559 27.6309 67.9962 28.972 69.2321C30.396 70.5444 32.4422 70.5514 33.8593 69.2321C37.4817 65.8645 41.1247 62.5178 44.8646 59.2752C46.7172 57.6713 48.5906 56.0881 50.4916 54.5536C50.9548 54.1787 51.4248 53.8037 51.888 53.4357C52.1438 53.2344 52.3995 53.033 52.6553 52.8317C52.842 52.6859 52.8281 52.6997 52.6 52.8733L52.8558 52.672C53.8858 51.8804 54.9227 51.1027 55.9735 50.332C57.4321 49.2697 58.2962 47.27 57.2109 45.5827C56.2776 44.1315 54.0448 43.1941 52.4825 44.3398Z" fill="white"/>
<path d="M24.9656 74.7461C22.0623 81.1063 20.6728 87.9873 21.0876 94.9863C21.447 101.09 22.9471 107.068 25.1384 112.755C27.0255 117.643 29.3482 122.33 31.7469 126.982C34.6571 132.641 38.1342 137.89 42.1573 142.813C46.1183 147.666 50.5631 152.11 55.2914 156.207C60.3998 160.637 66.0405 163.997 72.3656 166.365C76.7621 168.011 81.3313 169.08 85.8522 170.302C89.2671 171.225 92.7096 172.066 96.1866 172.732C107.724 174.933 119.434 175.336 131.068 173.718C137.234 172.864 143.289 171.33 149.248 169.552C154.875 167.879 160.419 165.733 165.444 162.664C176.304 156.026 184.164 145.604 188.477 133.682C189.874 129.829 190.848 125.857 191.657 121.844C193.012 115.143 193.455 108.283 192.832 101.471C192.286 95.5209 191.07 89.6745 189.542 83.9115C188.54 80.1273 187.503 76.3639 186.604 72.552C185.844 69.3302 184.98 66.1362 183.728 63.0672C181.883 58.5262 179.505 54.2837 176.754 50.2357C174.853 47.4375 172.813 44.7434 170.726 42.0841C169.599 40.6537 167 40.8134 165.838 42.0841C164.449 43.6047 164.636 45.4655 165.838 46.9931C166.122 47.3472 166.398 47.7083 166.682 48.0693C166.737 48.1388 167.083 48.597 166.751 48.1527C166.848 48.2846 166.951 48.4096 167.048 48.5415C167.553 49.2081 168.057 49.8816 168.548 50.5551C169.419 51.7494 170.269 52.9575 171.099 54.1865C172.475 56.2418 173.774 58.3457 174.949 60.519C175.44 61.4355 175.917 62.3659 176.36 63.3102C176.56 63.7338 176.754 64.1573 176.94 64.5878C177.355 65.6432 177.051 64.8447 176.94 64.5878C177.023 64.8031 177.12 65.0183 177.203 65.2405C177.825 66.7958 178.357 68.3859 178.82 69.9898C179.678 72.9755 180.286 76.0167 181.053 79.0233C182.277 83.8351 183.721 88.5775 184.71 93.4518C184.993 94.8405 185.242 96.2361 185.464 97.6317C185.512 97.9511 185.56 98.2775 185.609 98.5969C185.705 99.2565 185.616 98.6246 185.602 98.5066C185.629 98.6941 185.65 98.8815 185.671 99.069C185.768 99.8259 185.844 100.576 185.92 101.333C186.203 104.402 186.293 107.484 186.162 110.56C186.093 112.199 185.961 113.838 185.761 115.469C185.747 115.567 185.664 116.24 185.719 115.817C185.768 115.428 185.699 115.969 185.692 116.004C185.629 116.442 185.56 116.879 185.491 117.323C185.346 118.219 185.18 119.108 185 120.004C184.655 121.719 184.281 123.427 183.86 125.121C183.327 127.246 182.705 129.342 181.98 131.412C181.786 131.96 181.579 132.516 181.371 133.057C181.268 133.321 181.171 133.578 181.067 133.842C181.005 133.995 180.943 134.14 180.887 134.293C180.645 134.897 181.081 133.856 180.901 134.258C180.369 135.467 179.823 136.661 179.221 137.834C177.908 140.383 176.401 142.827 174.694 145.125C174.576 145.285 174.459 145.437 174.341 145.59C174.749 145.076 174.424 145.486 174.341 145.59C174.127 145.861 173.906 146.139 173.684 146.403C173.166 147.027 172.634 147.645 172.088 148.25C170.988 149.465 169.827 150.624 168.617 151.728C168.044 152.249 167.463 152.756 166.868 153.249C166.599 153.471 166.315 153.693 166.046 153.915C166.544 153.513 166.143 153.846 166.039 153.915C165.838 154.061 165.645 154.214 165.444 154.36C164.249 155.242 163.011 156.068 161.739 156.839C160.467 157.609 159.265 158.262 157.986 158.894C157.384 159.192 156.769 159.484 156.154 159.762C155.87 159.887 155.58 160.012 155.297 160.137C154.84 160.338 155.85 159.908 155.387 160.095C155.179 160.178 154.979 160.262 154.771 160.345C149.808 162.352 144.603 163.754 139.418 165.06C136.114 165.893 132.775 166.539 129.402 167.018C129.271 167.039 128.718 167.101 129.381 167.018C129.222 167.039 129.07 167.059 128.911 167.08C128.496 167.129 128.089 167.177 127.674 167.226C126.858 167.316 126.042 167.4 125.227 167.469C123.692 167.601 122.151 167.698 120.616 167.754C115.12 167.962 109.604 167.712 104.15 167.032C103.873 166.997 103.604 166.962 103.327 166.927C102.85 166.865 104.026 167.025 103.549 166.955C103.397 166.934 103.244 166.914 103.092 166.893C102.498 166.809 101.896 166.719 101.302 166.622C100.21 166.448 99.1176 166.254 98.0323 166.046C96.1244 165.685 94.2303 165.268 92.3432 164.817C88.9422 163.997 85.5619 163.06 82.1747 162.157C79.7414 161.512 77.322 160.803 74.944 159.949C74.3634 159.741 73.7896 159.526 73.2228 159.297C72.891 159.165 72.5523 159.04 72.2274 158.894C72.9601 159.234 71.8748 158.734 71.6744 158.644C70.3333 158.04 69.013 157.373 67.7272 156.651C66.3585 155.88 65.0244 155.04 63.7386 154.131C63.4345 153.915 63.1372 153.7 62.84 153.478C62.6672 153.353 62.4944 153.221 62.3285 153.089C62.446 153.179 62.7916 153.457 62.2593 153.034C61.5957 152.506 60.9459 151.957 60.303 151.402C57.9942 149.402 55.7476 147.319 53.5978 145.146C51.4479 142.972 49.3811 140.716 47.4317 138.362C46.9893 137.834 46.5607 137.293 46.1321 136.751C46.0284 136.619 45.3302 135.717 45.7657 136.286C45.5238 135.973 45.2888 135.661 45.0537 135.342C44.1136 134.078 43.2081 132.793 42.344 131.474C39.4821 127.134 37.1249 122.462 34.8576 117.789C34.3253 116.692 33.8069 115.588 33.3091 114.47C33.24 114.31 32.4312 112.657 32.5004 112.609C32.5004 112.609 32.7561 113.22 32.5971 112.845C32.5349 112.685 32.4658 112.525 32.3967 112.366C32.2515 112.005 32.0994 111.637 31.9612 111.276C30.9381 108.665 30.0533 105.999 29.362 103.284C29.0164 101.923 28.7191 100.555 28.4841 99.1662C28.4219 98.7913 28.3666 98.4163 28.3044 98.0483C28.2767 97.8886 28.1938 97.3679 28.3044 98.1247C28.2767 97.9372 28.256 97.7498 28.2353 97.5554C28.1454 96.7916 28.0763 96.0347 28.0279 95.271C27.9311 93.8198 27.9104 92.3616 27.9657 90.9035C27.9933 90.112 28.0486 89.3274 28.1316 88.5427C28.1454 88.3969 28.1592 88.2442 28.18 88.0984C28.1938 87.9873 28.2629 87.3624 28.2076 87.8137C28.1523 88.2372 28.2214 87.7373 28.2284 87.6818C28.2767 87.3832 28.3182 87.0846 28.3735 86.786C28.6293 85.314 28.968 83.8559 29.4035 82.4256C29.6316 81.6618 29.8874 80.9049 30.1639 80.155C30.316 79.7454 30.475 79.3427 30.6409 78.9399C30.6132 79.0024 30.4473 79.3774 30.6132 79.0094C30.7307 78.7594 30.8413 78.5025 30.9519 78.2525C31.7054 76.6069 31.4704 74.4336 29.7146 73.5032C28.1938 72.6978 25.7882 72.9894 24.9863 74.7461H24.9656Z" fill="white"/>
<path d="M77.7043 90.8402C78.3611 92.0345 79.1837 93.1454 80.0754 94.173C80.9672 95.2007 82.0249 96.0686 83.1309 96.881C83.5249 97.1379 83.9535 97.2698 84.4167 97.2907C84.8729 97.3948 85.3361 97.374 85.7923 97.2282C86.2417 97.124 86.6357 96.9157 86.9675 96.6102C87.3408 96.3672 87.6381 96.0408 87.8593 95.6381C88.281 94.8327 88.4953 93.8536 88.2049 92.9649L87.8593 92.1386C87.5551 91.6178 87.1403 91.2012 86.6219 90.8957C86.5113 90.8194 86.4076 90.736 86.3039 90.6527L87.0021 91.1943C86.0343 90.4375 85.1633 89.5626 84.4098 88.5905L84.949 89.2918C84.4789 88.6738 84.0503 88.0281 83.677 87.3476C83.2622 86.5977 82.4258 85.9798 81.6101 85.7506C81.1538 85.6048 80.6907 85.584 80.2344 85.6881C79.7713 85.709 79.3427 85.8478 78.9486 86.0978C78.209 86.5769 77.5592 87.2851 77.3587 88.1739C77.1582 89.0627 77.2481 90.007 77.7043 90.8471V90.8402Z" fill="white"/>
<path d="M68.7122 105.069C69.6662 108.416 72.4175 111.179 75.791 112.047C76.6689 112.269 77.6643 112.158 78.4524 111.7C78.8533 111.485 79.1783 111.186 79.4202 110.804C79.7244 110.471 79.9317 110.075 80.0354 109.624C80.2359 108.735 80.1944 107.735 79.6898 106.95C79.1852 106.166 78.5077 105.583 77.6229 105.353C77.3118 105.277 77.0145 105.173 76.7173 105.048L77.5399 105.395C77.0145 105.173 76.5306 104.881 76.0813 104.534L76.7795 105.076C76.3302 104.722 75.9292 104.319 75.5767 103.868L76.1159 104.569C75.7702 104.118 75.4799 103.625 75.2587 103.097L75.6043 103.923C75.5075 103.694 75.4246 103.458 75.3555 103.215C75.1135 102.368 74.5259 101.583 73.7655 101.139C73.3715 100.882 72.9429 100.75 72.4797 100.729C72.0235 100.625 71.5603 100.646 71.1041 100.792C70.2676 101.062 69.4588 101.583 69.0371 102.389C68.6155 103.194 68.4288 104.152 68.6915 105.062L68.7122 105.069Z" fill="white"/>
<path d="M92.9982 122.552C95.2587 122.622 97.5192 122.691 99.7797 122.767C100.651 122.795 101.618 122.358 102.227 121.754C102.835 121.15 103.278 120.164 103.236 119.296C103.153 117.365 101.715 115.886 99.7797 115.824C97.5192 115.754 95.2587 115.685 92.9982 115.609C92.1272 115.581 91.1594 116.018 90.551 116.622C89.9427 117.227 89.5003 118.212 89.5418 119.08C89.6247 121.011 91.0626 122.49 92.9982 122.552Z" fill="white"/>
<path d="M95.5292 108.831C96.7804 109.171 98.0316 109.511 99.2829 109.858C99.7391 110.004 100.202 110.025 100.659 109.921C101.122 109.9 101.55 109.761 101.944 109.511C102.345 109.296 102.67 108.997 102.912 108.616C103.216 108.282 103.424 107.887 103.527 107.435L103.652 106.512C103.652 105.887 103.493 105.304 103.182 104.762C102.691 104.005 102 103.408 101.115 103.165C99.8635 102.825 98.6123 102.485 97.3611 102.137C96.9049 101.992 96.4417 101.971 95.9854 102.075C95.5223 102.096 95.0937 102.235 94.6997 102.485C94.2987 102.7 93.9738 102.998 93.7319 103.38C93.4277 103.714 93.2203 104.109 93.1166 104.561L92.9922 105.484C92.9922 106.109 93.1512 106.692 93.4623 107.234C93.9531 107.991 94.6444 108.588 95.5292 108.831Z" fill="white"/>
</svg>
