<svg width="170" height="170" viewBox="0 0 170 170" fill="none" xmlns="http://www.w3.org/2000/svg">
<path d="M78.4944 44.5795C46.9628 24.8555 23.5063 54.5934 24.2167 64.8838C24.4079 67.6839 25.4278 70.4264 25.6322 73.2227C26.355 83.0677 24.1513 81.5102 23.2931 91.2864C22.9059 95.6774 25.9639 106.106 27.2121 108.618C29.3542 112.933 34.7366 118.396 35.7868 123.022C37.99 132.71 42.8066 136.682 51.086 142.905C53.4253 144.664 55.5718 146.672 58.0736 148.22C61.2079 150.16 64.7716 151.296 68.2938 152.413C82.7688 157.005 99.8177 161.297 111.749 153.03C114.143 151.368 116.243 149.233 119.039 148.254C124.095 146.473 126.821 150.23 131.093 147.16C135.155 144.234 132.777 136.091 136.66 132.961C139.296 130.833 144.914 125.168 147.339 122.837C153.314 117.095 148.67 113.332 148.775 105.087C148.839 99.7651 152.901 95.1028 152.505 89.7748C152.05 83.709 147.863 82.9636 145.044 77.4073C142.106 71.6222 145.539 71.1374 144.456 64.8647C143.38 58.5873 136.433 53.6556 133.933 48.3914C132.591 45.559 125.262 42.2572 118.562 41.3875C113.435 40.7228 109.69 36.0069 104.689 34.6296C99.3541 33.1661 93.9914 35.7366 89.2831 38.2322C80.5638 42.8454 71.2249 48.1359 67.8414 57.1118C63.1842 69.4707 71.6227 83.0524 73.3316 96.3263" fill="#EC761F"/>
<path d="M80.4107 42.328C73.2749 37.8835 65.351 34.9947 56.9133 35.0261C50.2625 35.0536 43.8706 37.1349 38.3872 40.4249C33.6007 43.2951 29.3939 47.1992 26.2212 51.6471C24.8346 53.5974 23.5642 55.6626 22.6284 57.8617C21.8905 59.5988 21.2569 61.4907 21.1396 63.3919C21.0224 65.293 21.3561 67.0851 21.7535 68.9176C22.3028 71.4617 22.6368 73.9219 22.6948 76.5027C22.7091 77.0718 22.7036 75.9494 22.6936 76.6457C22.6877 76.8654 22.6811 77.091 22.6753 77.3107C22.6591 77.7375 22.6315 78.1564 22.5907 78.5791C22.5198 79.2591 22.4181 79.934 22.2678 80.5948C21.9982 81.832 21.5955 83.029 21.2774 84.2521C20.335 87.8818 19.8999 91.6742 20.446 95.4467C20.9921 99.2191 21.9978 102.955 23.1934 106.598C23.5828 107.773 23.9829 108.962 24.5712 110.069C25.6789 112.146 27.0728 114.075 28.4543 116.001C29.1343 116.951 29.8136 117.906 30.4587 118.879C30.7299 119.283 31.2045 119.81 31.3417 120.269C31.3199 120.199 31.0126 119.694 31.2899 120.188C31.3454 120.287 31.4009 120.386 31.4563 120.485C31.603 120.742 31.7365 121.003 31.8693 121.27C32.0907 121.713 32.292 122.164 32.4732 122.624C32.5561 122.841 32.6313 123.068 32.7073 123.29C32.805 123.581 32.6332 123.546 32.6518 123.102C32.6477 123.22 32.7179 123.393 32.7455 123.511C33.0288 124.722 33.363 125.929 33.7569 127.117C34.9542 130.748 36.963 134.176 39.6568 137.045C42.5746 140.16 45.9875 142.72 49.3884 145.32C51.565 146.98 53.5878 148.836 55.9042 150.311C58.3833 151.885 61.0266 153.057 63.8139 154.014C68.4849 155.623 73.2562 157.057 78.0482 158.256C87.0036 160.501 96.613 161.782 105.456 159.283C107.652 158.662 109.725 157.752 111.686 156.656C113.646 155.56 115.39 154.069 117.221 152.73C117.679 152.396 118.14 152.079 118.624 151.779C118.866 151.635 119.113 151.491 119.359 151.36C118.805 151.66 119.573 151.271 119.768 151.19C120.042 151.081 120.322 150.979 120.605 150.895C120.671 150.876 120.9 150.772 120.973 150.79C120.725 150.718 120.547 150.856 120.908 150.809C121.171 150.775 121.43 150.73 121.698 150.709C121.806 150.703 121.915 150.692 122.029 150.687C122.099 150.687 122.776 150.717 122.246 150.67C121.717 150.623 122.527 150.693 122.651 150.708C122.881 150.735 123.111 150.761 123.339 150.8C123.815 150.874 124.288 150.965 124.762 151.051C125.857 151.253 126.969 151.38 128.073 151.339C130.554 151.243 133.145 149.931 134.573 148.047C135.908 146.279 136.468 144.148 136.823 141.994C136.97 141.089 137.08 140.182 137.227 139.276C137.296 138.829 137.371 138.388 137.465 137.945C137.519 137.697 137.579 137.456 137.633 137.209C137.652 137.117 137.753 136.8 137.617 137.23C137.463 137.735 137.648 137.146 137.669 137.084C137.8 136.694 137.955 136.309 138.146 135.941C138.182 135.87 138.243 135.791 138.273 135.712C138.368 135.448 138.11 135.977 138.089 135.991C138.264 135.866 138.411 135.544 138.56 135.384C138.619 135.323 138.678 135.261 138.737 135.199C139.015 134.888 138.708 135.403 138.557 135.36C138.6 135.367 138.892 135.088 138.914 135.062C139.208 134.819 139.496 134.563 139.778 134.313C142.759 131.664 145.574 128.856 148.41 126.076C149.86 124.655 151.258 123.297 152.277 121.536C153.296 119.774 153.595 117.707 153.467 115.663C153.356 113.95 152.869 112.258 152.508 110.568C152.297 109.561 152.112 108.551 152.004 107.531C151.942 106.983 151.899 106.439 151.882 105.894C151.87 105.665 151.897 104.983 151.864 105.569C151.88 105.231 151.89 104.899 151.924 104.564C151.981 103.983 152.088 103.405 152.219 102.836C152.254 102.675 152.303 102.51 152.338 102.349C152.346 102.297 152.472 101.895 152.366 102.241C152.256 102.616 152.411 102.105 152.442 102.015C152.509 101.811 152.575 101.614 152.641 101.416C153.034 100.289 153.486 99.1896 153.908 98.0794C154.928 95.4173 155.71 92.745 155.608 89.8466C155.524 87.4941 154.711 85.2098 153.352 83.2098C152.349 81.7347 150.994 80.5108 149.836 79.147C149.517 78.7712 149.212 78.3858 148.927 77.9919C148.773 77.7812 148.626 77.5715 148.481 77.3502C148.418 77.2562 148.357 77.1564 148.294 77.0624C148.089 76.7714 148.544 77.5279 148.263 77.0153C147.982 76.5028 147.704 75.967 147.471 75.4267C147.367 75.1825 147.269 74.9393 147.178 74.6855C147.142 74.584 147.111 74.4893 147.075 74.3878C146.859 73.7729 147.135 74.8154 147.1 74.4814C147.066 74.094 146.965 73.6952 146.913 73.3046C146.832 72.6706 146.847 73.9021 146.897 73.4153C146.917 73.2278 146.92 73.0314 146.94 72.8439C147.018 72.1591 147.194 71.4966 147.352 70.8252C147.811 68.8265 147.89 66.746 147.55 64.6903C147.166 62.359 146.17 60.2528 144.899 58.2137C142.738 54.7426 139.638 51.895 137.409 48.4601C137.342 48.3534 137.211 48.0331 137.099 47.9726C137.328 48.0946 137.392 48.493 137.213 48.1527C137.153 48.0412 137.092 47.9356 137.032 47.8241C136.759 47.3009 136.504 46.7809 136.17 46.2833C135.654 45.5106 134.924 44.8272 134.193 44.239C132.442 42.8291 130.319 41.7684 128.236 40.9231C125.752 39.921 123.127 39.1518 120.492 38.6791C119.901 38.5738 119.312 38.4986 118.719 38.4049C118.448 38.3593 118.177 38.3138 117.909 38.2448C117.866 38.2376 117.596 38.1385 117.568 38.1577C117.961 38.2775 118.039 38.3026 117.81 38.2283C117.738 38.2042 117.659 38.179 117.587 38.155C116.529 37.7803 115.445 37.276 114.51 36.6594C115.041 37.0111 114.505 36.6467 114.285 36.5083C114.048 36.3551 113.81 36.2019 113.573 36.0487C113.065 35.7186 112.557 35.3826 112.048 35.0525C110.908 34.3181 109.754 33.5933 108.547 32.9788C106.038 31.7041 103.286 31.128 100.5 31.2325C95.1565 31.432 90.3852 34.1497 85.9248 36.5437C77.7704 40.9119 69.247 46.1486 65.4237 54.6629C61.2932 63.8771 64.2136 73.9842 67.0367 83.3948C67.3755 84.5256 67.7144 85.6563 68.047 86.786C68.1271 87.0679 68.2133 87.3508 68.2934 87.6327C68.1107 87.0055 68.348 87.8268 68.3899 87.977C68.5439 88.5398 68.6971 89.1084 68.8441 89.676C69.4305 91.9578 69.9203 94.2533 70.2292 96.5781C70.4339 98.1217 72.093 99.4684 73.7337 99.249C75.3743 99.0296 76.6129 97.6808 76.3922 96.0271C75.7588 91.2199 74.3287 86.5115 72.9253 81.8374C72.5857 80.7125 72.2469 79.5818 71.9204 78.4531C71.8403 78.1712 71.7602 77.8893 71.6801 77.6074C71.8456 78.1781 71.6428 77.4699 71.589 77.2699C71.4214 76.6691 71.26 76.0693 71.111 75.4716C70.5447 73.2706 70.0697 71.0492 69.7871 68.8064C69.6509 67.7157 69.5604 66.6148 69.5323 65.5184C69.5282 65.3686 69.5135 65.2051 69.5225 65.0515C69.5201 65.069 69.5129 65.6106 69.5246 65.2606C69.5316 64.9874 69.5379 64.72 69.5449 64.4468C69.5701 63.8664 69.6139 63.2892 69.6823 62.7161C69.8047 61.6271 70.0417 60.5752 70.2866 59.5128C70.366 59.1742 70.2319 59.6766 70.2286 59.6999C70.2623 59.5505 70.3224 59.3936 70.3685 59.2462C70.4446 59.0204 70.5207 58.7945 70.603 58.5698C70.7984 58.0359 71.0115 57.511 71.2484 56.996C71.4664 56.5256 71.7029 56.0583 71.9562 55.6057C72.0833 55.3765 72.2157 55.1542 72.3482 54.9319C72.3819 54.8719 72.5793 54.5472 72.3749 54.8767C72.1705 55.2063 72.4304 54.7966 72.4711 54.7318C73.0641 53.8413 73.7278 52.9864 74.4359 52.1748C75.144 51.3633 75.8706 50.6443 76.6366 49.914C76.6802 49.8736 76.9635 49.611 76.688 49.863C76.3977 50.1303 76.7596 49.8034 76.8319 49.738C77.0334 49.5631 77.2349 49.3882 77.4425 49.2143C77.857 48.8723 78.2776 48.5314 78.7027 48.2032C82.1964 45.5035 86.0915 43.3127 90.0174 41.2165C90.5091 40.9532 90.9938 40.6946 91.4847 40.4371C91.7438 40.3017 92.0089 40.1673 92.2688 40.026C92.3099 40.0031 92.6898 39.8164 92.3773 39.9727C92.0648 40.1289 92.5471 39.8879 92.6014 39.8612C93.7077 39.3134 94.8416 38.7941 96.0034 38.3451C96.5177 38.1452 97.0427 37.959 97.5714 37.7914C97.8555 37.7019 98.1387 37.6183 98.4212 37.5405C98.6247 37.4852 99.5155 37.3009 98.8676 37.4187C99.4382 37.3118 100.013 37.2175 100.602 37.1614C100.852 37.1377 101.099 37.1257 101.347 37.1137C101.513 37.1056 101.676 37.1093 101.848 37.1023C102.221 37.0935 102.004 37.0689 101.761 37.0878C102.303 37.0477 102.976 37.2025 103.509 37.3159C103.62 37.3346 104.209 37.4097 104.26 37.4958C104.214 37.4166 103.688 37.2983 104.138 37.4635C104.288 37.5185 104.439 37.5677 104.588 37.6286C105.109 37.8295 105.62 38.0584 106.114 38.3145C106.361 38.4396 106.607 38.5763 106.853 38.7131C106.958 38.7725 107.063 38.832 107.168 38.8914C107.688 39.1876 106.874 38.6987 107.198 38.9083C109.254 40.2143 111.255 41.6423 113.435 42.7425C114.625 43.3422 115.9 43.795 117.202 44.0915C118.351 44.3562 119.537 44.4541 120.695 44.7024C121.253 44.82 121.802 44.9541 122.356 45.1008C122.63 45.1707 122.976 45.223 123.236 45.3443C123.213 45.3343 122.698 45.1763 123.055 45.2899C123.26 45.3543 123.466 45.4186 123.67 45.4888C124.774 45.8533 125.858 46.2681 126.914 46.7439C127.407 46.964 127.891 47.2005 128.368 47.4476C128.561 47.5517 128.755 47.6558 128.942 47.7589C128.995 47.7857 129.256 47.907 129.31 47.9698C129.235 47.8738 128.777 47.6298 129.14 47.8757C129.503 48.1216 129.879 48.3638 130.232 48.6378C130.391 48.7601 130.55 48.8881 130.701 49.0268C130.763 49.079 130.824 49.137 130.885 49.195C131.274 49.5288 130.507 48.7438 130.714 49.0231C130.878 49.2475 131.071 49.5364 131.27 49.7369C131.259 49.7231 130.904 49.0192 131.047 49.3893C131.08 49.4723 131.125 49.5574 131.17 49.6366C131.284 49.8586 131.399 50.0747 131.519 50.2919C132.059 51.2535 132.653 52.1826 133.315 53.0813C134.501 54.6944 135.835 56.2011 137.105 57.7568C137.74 58.5317 138.367 59.3172 138.953 60.1314C139.244 60.5322 139.521 60.9368 139.784 61.3509C139.899 61.5252 139.992 61.7139 140.113 61.8834C139.636 61.2424 140.116 61.9077 140.226 62.1112C140.451 62.5307 140.655 62.9588 140.834 63.3944C140.923 63.6122 141.006 63.829 141.088 64.0516C141.119 64.1463 141.149 64.2409 141.186 64.3366C141.346 64.7691 141.205 64.2026 141.142 64.1621C141.366 64.319 141.406 65.4175 141.436 65.6493C141.473 65.9297 141.509 66.2102 141.532 66.4886C141.541 66.6035 141.551 66.7125 141.554 66.8263C141.558 66.9343 141.627 67.5604 141.57 67.0677C141.521 66.612 141.557 67.3399 141.547 67.4575C141.534 67.6402 141.521 67.817 141.502 67.9987C141.457 68.4087 141.387 68.8145 141.304 69.2182C141.166 69.8811 140.985 70.5367 140.866 71.2026C140.083 75.4019 142.361 79.6921 145.205 82.932C146.368 84.2551 147.563 85.4938 148.586 86.9185C148.772 87.1704 148.418 86.6338 148.418 86.6338C148.421 86.7 148.574 86.9165 148.594 86.9556C148.678 87.1189 148.761 87.288 148.831 87.4609C148.922 87.667 148.999 87.8827 149.077 88.0926C149.09 88.1307 149.193 88.3448 149.169 88.3766C149.066 87.9895 149.04 87.9075 149.097 88.1259C149.113 88.1942 149.135 88.2635 149.15 88.3317C149.265 88.8162 149.335 89.3052 149.385 89.7969C149.399 89.9662 149.407 90.1288 149.421 90.2981C149.426 90.3526 149.429 90.7767 149.431 90.4072C149.431 90.0074 149.418 90.5422 149.411 90.6365C149.401 90.8017 149.39 90.9669 149.373 91.1311C149.31 91.7111 149.211 92.279 149.075 92.8407C149.04 92.996 148.798 93.8143 149.003 93.1687C148.9 93.4915 148.799 93.8085 148.691 94.1245C148.305 95.2467 147.853 96.3459 147.425 97.4551C146.525 99.8033 145.693 102.252 145.672 104.808C145.656 107.108 145.927 109.349 146.426 111.622C146.779 113.232 147.19 114.835 147.293 116.474C147.338 117.18 147.336 115.903 147.296 116.403C147.282 116.592 147.275 116.776 147.255 116.963C147.235 117.151 147.202 117.336 147.17 117.522C147.158 117.603 147.134 117.683 147.118 117.757C147.06 118.076 146.859 118.072 147.183 117.56C146.989 117.861 146.918 118.279 146.752 118.603C146.716 118.68 146.48 119.183 146.437 119.176C146.419 119.173 146.786 118.674 146.578 118.943C146.476 119.081 146.38 119.226 146.279 119.358C145.257 120.696 143.928 121.833 142.72 123.013C141.335 124.367 139.956 125.728 138.555 127.068C137.883 127.712 137.212 128.351 136.529 128.982C136.37 129.128 136.217 129.27 136.058 129.416C135.992 129.477 135.927 129.537 135.862 129.592C135.58 129.849 136.325 129.181 136.044 129.426C135.763 129.671 135.502 129.907 135.223 130.141C134.478 130.767 133.711 131.372 133.162 132.174C132.573 133.036 132.121 133.908 131.817 134.901C131.222 136.83 130.989 138.795 130.67 140.781C130.601 141.223 130.525 141.67 130.432 142.107C130.389 142.321 130.334 142.532 130.284 142.751C130.127 143.416 130.446 142.324 130.279 142.786C130.142 143.174 130.005 143.563 129.821 143.931C129.759 144.052 129.426 144.623 129.688 144.201C129.949 143.78 129.521 144.4 129.439 144.488C129.386 144.55 129.321 144.611 129.268 144.674C129.048 144.935 129.108 144.599 129.46 144.515C129.317 144.551 129.093 144.793 128.974 144.875C128.835 144.965 128.697 145.049 128.558 145.139C128.495 145.182 128.145 145.338 128.495 145.182C128.845 145.026 128.497 145.17 128.436 145.196C128.27 145.258 128.11 145.314 127.944 145.376C127.293 145.6 128.375 145.359 127.864 145.404C127.647 145.421 127.429 145.444 127.212 145.462C127.148 145.469 126.988 145.442 126.933 145.468C126.933 145.468 127.632 145.526 127.31 145.484C127.068 145.455 126.823 145.444 126.576 145.408C124.463 145.125 122.406 144.582 120.274 144.886C117.567 145.278 115.231 146.538 113.135 148.1C111.357 149.424 109.674 150.836 107.704 151.912C107.609 151.962 107.512 152.017 107.417 152.067C107.123 152.226 107.182 152.033 107.533 152.009C107.36 152.021 107.105 152.217 106.95 152.287C106.464 152.509 105.974 152.719 105.473 152.915C104.544 153.278 103.592 153.583 102.621 153.844C102.378 153.91 102.136 153.971 101.888 154.025C101.751 154.056 101.603 154.078 101.471 154.122C101.477 154.123 102.062 154 101.719 154.062C101.188 154.158 100.655 154.265 100.119 154.348C99.1069 154.5 98.0878 154.609 97.063 154.669C96.0382 154.73 94.9796 154.761 93.9339 154.746C93.6691 154.743 93.4052 154.735 93.1405 154.732C92.3796 154.711 93.5285 154.755 92.9522 154.724C92.4199 154.694 91.8876 154.664 91.3515 154.616C86.9396 154.256 82.5693 153.379 78.2681 152.28C77.1529 151.997 76.0472 151.692 74.9424 151.381C74.4512 151.239 73.9591 151.102 73.4626 150.953C73.1963 150.873 72.9352 150.799 72.6689 150.718C72.5904 150.693 72.2032 150.574 72.6204 150.704C73.0984 150.85 72.4449 150.651 72.3479 150.623C70.0239 149.916 67.6945 149.202 65.4116 148.383C64.1197 147.921 62.8406 147.414 61.6055 146.819C61.0498 146.552 60.5097 146.265 59.9775 145.966C59.8838 145.915 59.4723 145.655 59.9421 145.949C59.8201 145.874 59.705 145.795 59.5829 145.721C59.2644 145.518 58.9537 145.305 58.6438 145.086C56.5082 143.582 54.5569 141.846 52.4753 140.273C50.8038 139.014 49.1339 137.743 47.5381 136.395C46.8333 135.799 46.1424 135.194 45.4689 134.556C45.3074 134.403 45.1467 134.245 44.9852 134.093C44.4801 133.602 45.3094 134.434 44.9469 134.051C44.6502 133.738 44.3474 133.425 44.0646 133.103C43.4761 132.443 42.9234 131.754 42.4057 131.04C42.1731 130.721 41.9483 130.391 41.7359 130.063C41.6225 129.883 41.5099 129.697 41.3965 129.517C41.2198 129.248 41.5584 129.8 41.56 129.789C41.544 129.679 41.3875 129.491 41.3328 129.387C40.4281 127.749 39.7388 126.017 39.2057 124.251C38.9868 123.522 39.2845 124.586 39.1519 124.051C39.087 123.795 39.0221 123.54 38.9573 123.285C38.7897 122.594 38.6214 121.91 38.4082 121.23C38.1108 120.297 37.6889 119.397 37.2119 118.529C36.0627 116.433 34.6816 114.459 33.2788 112.505C32.6147 111.576 31.9498 110.653 31.3129 109.711C31.0471 109.314 30.7882 108.913 30.5363 108.507C30.2426 108.04 30.7931 108.967 30.455 108.368C30.3235 108.137 30.199 107.901 30.0807 107.667C29.5536 106.618 29.1884 105.494 28.8332 104.391C28.7099 104.012 28.5929 103.634 28.4758 103.257C28.4159 103.056 28.3559 102.855 28.2959 102.654C28.2323 102.434 28.0886 101.665 28.2524 102.515C28.0796 101.639 27.7748 100.759 27.5633 99.8881C27.1404 98.1467 26.7701 96.3903 26.5272 94.6255C26.4169 93.8433 26.3382 93.0606 26.3104 92.2745C26.3006 91.9865 26.42 91.4995 26.3067 92.4349C26.3248 92.3067 26.3121 92.1733 26.3179 92.0431C26.3485 91.4696 26.4169 90.8964 26.4853 90.3233C26.6855 88.5495 26.9968 86.7943 27.4544 85.0756C27.7745 83.8826 28.1608 82.7127 28.4193 81.5094C28.777 79.8276 28.8301 78.1126 28.8215 76.3871C28.8119 73.9099 28.5602 71.4933 28.0223 69.0466C27.751 67.796 27.4664 66.5491 27.3233 65.2843C27.2876 64.9561 27.2705 64.6311 27.2471 64.3051C27.2156 63.8583 27.2119 65.1343 27.2482 64.7885C27.2614 64.6952 27.2561 64.5989 27.2569 64.5036C27.2982 63.7649 27.4337 63.03 27.6168 62.3151C27.6431 62.2181 27.6695 62.1211 27.6966 62.0183C27.823 61.5265 27.4654 62.7609 27.5876 62.3878C27.6542 62.1842 27.7147 61.9796 27.7884 61.7713C27.9373 61.3429 28.0985 60.9167 28.2775 60.4993C28.6687 59.5629 29.1252 58.6553 29.6224 57.7725C29.7409 57.5598 29.8663 57.3423 29.9971 57.1316C30.0637 57.0175 30.1373 56.8986 30.2101 56.7856C30.2759 56.6774 30.6086 56.1546 30.2846 56.6609C29.9605 57.1672 30.2673 56.6938 30.3393 56.5866C30.4112 56.4794 30.4927 56.3499 30.5716 56.2379C30.7398 55.9858 30.9142 55.7347 31.0947 55.4847C32.5118 53.4978 34.1315 51.6404 35.9181 49.9423C36.1508 49.7249 36.4197 49.5195 36.6303 49.2805C36.3971 49.5455 36.1463 49.7122 36.5353 49.3719C36.6792 49.247 36.8161 49.1268 36.96 49.0019C37.4633 48.5675 37.9826 48.1536 38.5073 47.7467C39.6046 46.9051 40.7448 46.1184 41.9391 45.3945C42.5328 45.035 43.1372 44.6891 43.7514 44.3629C43.8809 44.2952 44.0228 44.2295 44.1531 44.156C43.3645 44.6438 43.8538 44.3085 44.0709 44.2018C44.4105 44.0322 44.7546 43.8753 45.0987 43.7184C46.4069 43.127 47.7545 42.6138 49.1338 42.1894C49.8598 41.9654 50.6002 41.7737 51.3451 41.5947C51.9918 41.4409 50.7737 41.7074 51.267 41.6114C51.4232 41.578 51.5794 41.5446 51.741 41.518C52.1369 41.4414 52.532 41.3706 52.9315 41.3125C54.4805 41.0717 56.0579 40.9431 57.6372 40.9342C58.01 40.9312 58.3751 40.9389 58.7463 40.9476C59.4332 40.9557 58.1391 40.9112 58.69 40.9441C58.9214 40.9591 59.1536 40.9683 59.3842 40.9892C60.2088 41.0503 61.0355 41.1415 61.858 41.2618C62.6805 41.3822 63.5536 41.5468 64.3926 41.7296C64.8209 41.8254 65.2545 41.9281 65.6804 42.0415C65.8999 42.0963 66.1124 42.1558 66.3311 42.2165C66.4219 42.2437 66.5189 42.2719 66.6106 42.2933C67.0294 42.4114 66.4881 42.2667 66.3689 42.2169C67.2287 42.5642 68.1437 42.7896 69.0176 43.1273C69.8914 43.4651 70.762 43.8262 71.6153 44.2202C72.4686 44.6141 73.3954 45.0682 74.2573 45.5352C74.7267 45.7871 75.1891 46.0437 75.6436 46.311C75.7373 46.3626 76.2187 46.5747 76.2441 46.6625C76.2404 46.644 75.5993 46.2678 76.1504 46.611C76.284 46.6931 76.4176 46.7752 76.5511 46.8573C77.9383 47.7168 79.8658 47.8797 80.916 46.5231C81.8038 45.3778 81.855 43.2747 80.3758 42.352L80.4107 42.328Z" fill="#EC761F"/>
<path d="M81.6886 38.7725C75.2446 43.4255 68.8542 48.5995 65.595 55.9309C61.9866 64.0508 63.0963 72.959 64.7268 81.4798C65.6263 86.1817 66.6192 90.8865 66.9135 95.6608C67.0114 97.2261 68.7972 98.5479 70.3646 98.3153C72.104 98.062 73.1445 96.7083 73.038 95.0331C72.5308 86.824 69.9105 78.8569 69.371 70.6547C69.3091 69.7283 69.2778 68.8068 69.2788 67.8784C69.2789 68.6321 69.2859 67.789 69.2904 67.6752C69.2968 67.423 69.3093 67.1717 69.3218 66.9204C69.3529 66.3345 69.4025 65.7514 69.4703 65.1713C69.5761 64.2536 69.7255 63.3367 69.9168 62.4326C70.0229 61.9309 70.1527 61.4391 70.2885 60.9482C70.1202 61.5726 70.2736 61.0061 70.3218 60.851C70.4129 60.5761 70.5049 60.2953 70.6021 60.0213C70.9331 59.1033 71.3226 58.2126 71.7592 57.3416C71.9377 56.9841 72.1275 56.6345 72.3226 56.2917C72.4407 56.0874 72.5649 55.8841 72.6829 55.6799C72.857 55.394 72.8483 55.4107 72.6436 55.7339C72.7258 55.6023 72.8141 55.4716 72.9025 55.341C73.9344 53.793 75.1268 52.3429 76.4169 50.9929C76.7359 50.6578 77.0663 50.3306 77.3967 50.0034C77.5645 49.8432 77.7323 49.683 77.9001 49.5228C78.0102 49.4138 78.1256 49.3115 78.2409 49.2093C77.9587 49.4658 77.9429 49.4874 78.1894 49.2614C78.9444 48.6039 79.6986 47.9523 80.4807 47.3232C82.0737 46.0395 83.7181 44.8304 85.38 43.63C86.6627 42.7069 87.0682 40.7454 86.0017 39.466C84.9353 38.1865 83.049 37.7894 81.6816 38.7774L81.6886 38.7725Z" fill="#9F490D"/>
<path d="M83.8161 41.2033C77.7782 31.7163 70.9324 22.4312 61.7939 15.4833C52.6554 8.53534 37.7567 3.42686 26.4683 4.93835L27.7656 9.56813C28.9358 12.3489 31.6941 16.1171 33.4846 17.937C39.1601 23.6901 43.7423 26.8291 51.4257 29.6828C57.4194 31.9105 70.0825 33.421 78.1655 32.8399" fill="#2DA736"/>
<path d="M86.3057 39.5296C80.8897 31.0248 74.8411 22.7694 67.082 15.9809C59.8381 9.63983 50.9635 5.31205 41.5294 3.07015C36.4809 1.87005 31.1323 1.3245 26.0346 1.98176C24.5421 2.17622 22.9353 3.57751 23.3872 5.18115C23.6877 6.25602 23.9889 7.32511 24.2894 8.39999C24.4192 8.85997 24.5489 9.31995 24.6787 9.77993C24.9873 10.8858 25.5068 11.8789 26.0931 12.889C28.7059 17.3476 32.1712 21.1138 36.2291 24.4698C40.0282 27.6107 44.3792 30.0504 49.001 31.8661C53.206 33.5173 57.6436 34.4139 62.0914 35.016C67.5453 35.7509 73.1544 36.1445 78.6087 35.7661C80.222 35.6511 81.5524 34.1147 81.2561 32.5667C80.9597 31.0187 79.4919 29.7959 77.7649 29.9156C75.6185 30.0657 73.4627 30.0604 71.309 29.9961C71.04 29.9867 70.9327 29.8562 71.4404 30.0004C71.3438 29.9723 71.1907 29.9882 71.0908 29.9833C70.8156 29.9728 70.5413 29.9565 70.2669 29.9402C69.6307 29.9048 69.0021 29.8589 68.3675 29.8119C67.1735 29.7187 65.9829 29.6024 64.7946 29.4687C62.5549 29.2124 60.3198 28.8799 58.0985 28.449C57.0954 28.2515 56.0885 28.0357 55.0936 27.7803C54.6686 27.6737 54.2513 27.5565 53.828 27.4383C53.0902 27.2319 54.3807 27.6196 53.871 27.4455C53.6364 27.3707 53.3956 27.2949 53.1618 27.2143C50.9795 26.4641 48.8287 25.5357 46.7705 24.4865C46.266 24.2304 45.7632 23.9626 45.2744 23.6854C45.0533 23.5595 44.799 23.4459 44.6004 23.2943C44.6692 23.3413 45.1962 23.6605 44.722 23.3679C44.5951 23.2874 44.4735 23.2138 44.3466 23.1333C43.4114 22.5445 42.5005 21.9183 41.6198 21.2556C39.7278 19.8315 37.9779 18.2476 36.2993 16.6046C36.2665 16.5695 35.9631 16.27 36.2108 16.5187C36.4868 16.7899 36.0958 16.3988 36.0295 16.3344C35.8755 16.1783 35.7216 16.0222 35.5746 15.8614C35.209 15.4686 34.8589 15.0547 34.5212 14.6428C33.803 13.7646 33.1275 12.852 32.4991 11.9177C32.2964 11.6172 32.0946 11.311 31.905 11.0069C31.8436 10.9078 31.783 10.8029 31.7155 10.7027C31.5145 10.3907 31.9652 11.1591 31.6905 10.6571C31.3847 10.1084 31.0789 9.55975 30.8193 8.99513C30.4828 8.26365 30.9589 9.74104 30.753 9.01957C30.6768 8.75808 30.6068 8.49762 30.5368 8.23716C30.2036 7.03836 29.8643 5.83852 29.5311 4.63972L26.8837 7.83911C27.8959 7.70642 28.92 7.6231 29.9428 7.59288C30.4288 7.57945 30.9201 7.57282 31.4098 7.57777C31.6105 7.58173 32.0203 7.66216 32.2124 7.59361C32.2062 7.59258 31.5945 7.56129 31.9565 7.5804C32.1501 7.58911 32.3438 7.59783 32.5367 7.61233C34.7182 7.74639 36.8944 8.0513 39.0395 8.48723C40.1639 8.71682 41.2833 8.98113 42.3909 9.2849C42.6693 9.3611 42.9477 9.4373 43.2253 9.51929C43.3465 9.55141 43.4607 9.58829 43.5819 9.62042C43.9386 9.72155 43.3956 9.55963 43.3772 9.55655C43.9508 9.63477 44.5994 9.93873 45.1513 10.1258C47.2931 10.8514 49.3985 11.7012 51.4444 12.6595C52.4643 13.1381 53.4679 13.6436 54.4542 14.1818C54.9386 14.4464 55.416 14.7158 55.8926 14.991C56.4158 15.2918 55.488 14.7397 56.0027 15.0568C56.2627 15.2188 56.5288 15.3818 56.7888 15.5437C58.6874 16.7439 60.4708 18.0906 62.1798 19.5196C63.0904 20.282 63.9792 21.0644 64.8456 21.8727C65.2955 22.2915 65.7385 22.7151 66.1746 23.1434C66.2683 23.2361 66.3621 23.3287 66.4558 23.4214C66.4223 23.3921 66.1205 23.081 66.3621 23.3287C66.6036 23.5764 66.8513 23.8252 67.0982 24.0797C68.8035 25.8457 70.4166 27.6851 71.9531 29.5768C75.4073 33.8208 78.4795 38.3208 81.3957 42.9012C82.2551 44.2473 84.5414 44.5292 85.7379 43.6278C87.131 42.5816 87.2335 40.9701 86.3172 39.5375L86.3057 39.5296Z" fill="#2DA736"/>
<path d="M128.334 75.8177C124.6 71.9155 117.159 72.317 114.278 76.5748C112.874 78.653 112.504 81.3108 110.899 83.2479C110.389 83.8601 109.749 84.4146 109.515 85.1746C108.935 87.0513 111.148 88.8071 113.196 89.2348C117.131 90.0574 121.022 88.3851 124.437 86.5552C125.052 86.2231 125.696 85.8603 126.009 85.2567C126.57 84.1879 125.896 82.8876 125.707 81.6749C125.339 79.2808 127.264 76.8724 129.763 76.6065L128.33 75.805L128.334 75.8177Z" fill="#9F490D"/>
<path d="M130.806 74.1277C127.778 71.0358 123.337 69.5438 119.065 70.3826C116.987 70.791 115.005 71.5553 113.446 72.9338C111.606 74.5632 110.65 76.5975 109.756 78.8154C109.543 79.3403 109.324 79.8583 109.07 80.3643C108.963 80.5791 108.84 80.785 108.721 80.9977C108.739 80.959 109.011 80.599 108.804 80.8566C108.681 81.0148 108.569 81.1809 108.44 81.3381C107.526 82.4431 106.587 83.4604 106.365 84.9383C105.937 87.7474 108.053 90.1908 110.597 91.4357C112.893 92.5613 115.775 92.6281 118.19 92.1512C120.924 91.6086 123.347 90.5483 125.765 89.2906C127.142 88.5735 128.458 87.7031 129.003 86.2139C129.345 85.2693 129.418 84.2615 129.219 83.2558C129.098 82.639 128.88 82.0357 128.792 81.4124C128.779 81.3208 128.783 81.2081 128.757 81.1203C128.671 80.8373 128.662 81.7903 128.759 81.2399C128.778 81.1059 128.932 80.416 128.793 80.8639C128.654 81.3118 128.762 80.954 128.798 80.8766C128.862 80.7324 128.928 80.5823 128.992 80.4381C128.995 80.4206 129.117 80.1787 129.129 80.1866C129.16 80.1918 128.72 80.7143 129.043 80.351C129.103 80.2836 129.454 79.764 129.566 79.7768C129.633 79.7882 129.049 80.1255 129.374 79.9713C129.51 79.9046 129.653 79.7855 129.779 79.6935C129.927 79.587 130.079 79.6304 129.781 79.6818C129.393 79.7478 129.76 79.6962 129.885 79.6576C130.011 79.619 130.148 79.5883 130.262 79.536C130.592 79.3945 129.532 79.6578 130.175 79.575C131.48 79.4066 132.712 78.4624 132.835 77.1469C132.961 75.7604 132.227 74.6588 130.969 73.9582L129.536 73.1566C128.103 72.355 126.004 73.1774 125.456 74.5528C124.821 76.146 125.569 77.6436 127.102 78.4978L128.535 79.2994L129.329 73.6825C126.776 74.0169 124.756 75.4013 123.502 77.4871C123.039 78.2564 122.732 79.1353 122.606 80.0268C122.437 81.2212 122.684 82.2887 122.961 83.4508C123.022 83.6936 123.05 83.937 123.105 84.1787C123.226 84.748 123.18 84.0901 123.17 83.9392L123.229 83.7881C123.085 84.0978 123.1 84.0766 123.288 83.7323C123.705 83.2358 123.332 83.6861 123.145 83.8038C122.735 84.0689 122.295 84.2812 121.859 84.5062C122.472 84.1858 121.71 84.5767 121.629 84.6167C121.317 84.7671 121.006 84.9117 120.696 85.0563C119.833 85.4423 118.951 85.7891 118.041 86.0656C117.797 86.1379 117.548 86.2034 117.298 86.2748C116.496 86.5038 117.902 86.1974 117.077 86.3211C116.49 86.4074 115.91 86.4948 115.307 86.5187C115.18 86.5213 114.318 86.5493 115.12 86.5469C114.867 86.5463 114.601 86.5075 114.353 86.4777C114.105 86.4479 113.838 86.3732 113.582 86.3482C112.905 86.276 114.229 86.6418 113.593 86.3619C113.462 86.3042 113.33 86.2581 113.199 86.2003L113.01 86.1089C112.711 85.9511 112.757 85.9827 113.147 86.2153C113.027 86.2131 112.727 85.9241 112.636 85.8551C112.528 85.7713 112.427 85.6827 112.327 85.5883C112.646 85.9164 112.697 85.9607 112.485 85.7164C112.092 85.191 112.706 86.344 112.486 85.7524C112.267 85.1608 112.596 86.4508 112.496 85.8196C112.396 85.1883 112.415 86.5277 112.522 85.9015L112.434 86.2566C112.589 85.9606 112.569 85.975 112.384 86.2959C113.095 85.3774 113.839 84.5779 114.43 83.5678C115.412 81.8896 115.897 79.9788 116.861 78.2917C116.543 78.8466 116.842 78.3363 116.92 78.2301C117.029 78.0873 117.144 77.9455 117.264 77.8106C117.324 77.7431 117.628 77.508 117.635 77.4196L117.332 77.6849C117.425 77.6051 117.512 77.5301 117.61 77.4573C117.894 77.2365 118.195 77.0305 118.505 76.8441L118.663 76.7514C118.943 76.6016 118.876 76.632 118.46 76.8485C118.584 76.8634 118.838 76.6793 118.965 76.6291C119.367 76.464 119.781 76.3487 120.202 76.2285C120.846 76.0446 119.493 76.3301 120.155 76.2446C120.406 76.2093 120.652 76.1671 120.902 76.1434C121.324 76.1011 121.819 76.1723 122.227 76.0978C121.514 76.2285 121.801 76.0797 122.156 76.1097C122.343 76.1291 122.536 76.1496 122.727 76.1817C122.918 76.2138 123.103 76.2449 123.287 76.2818C123.41 76.3026 123.532 76.3349 123.66 76.3684C123.994 76.4603 123.904 76.4273 123.407 76.284C123.789 76.4796 124.242 76.5796 124.639 76.7655C124.81 76.848 124.975 76.9353 125.145 77.0236C125.437 77.192 125.361 77.1494 124.935 76.8989C125.04 76.9642 125.143 77.0353 125.246 77.1122C125.401 77.2218 125.549 77.3361 125.696 77.4563C125.855 77.5843 126.486 78.2094 125.83 77.5384C126.425 78.1514 126.998 78.6056 127.892 78.7559C128.65 78.8833 129.595 78.72 130.195 78.272C131.36 77.3942 131.985 75.3876 130.777 74.1526L130.806 74.1277Z" fill="#9F490D"/>
<path d="M93.6274 65.894C93.7216 69.4067 97.8311 72.4295 101.385 71.6008C103.116 71.1967 104.585 70.0658 106.357 69.8169C106.922 69.7395 107.525 69.7457 108.01 69.4826C109.211 68.8233 108.888 67.0118 108.018 65.9158C106.339 63.8116 103.492 62.942 100.818 62.3569C100.336 62.2522 99.8213 62.1539 99.3712 62.31C98.5637 62.5901 98.2954 63.5069 97.8161 64.1804C96.867 65.5054 94.6984 65.8422 93.2539 64.8874L93.6274 65.894Z" fill="#9F490D"/>
<path d="M90.5438 66.1587C90.6923 69.3833 93.1544 72.2828 96.1308 73.7283C97.6341 74.4565 99.418 74.8037 101.064 74.6578C102.811 74.5052 104.243 73.7345 105.795 73.097C106.042 72.9958 106.602 72.6913 106.88 72.7262C106.422 72.673 106.514 72.7777 106.781 72.7572C107.023 72.7384 107.273 72.7089 107.517 72.6785C108.848 72.4857 110 72.0429 110.876 71.0658C112.224 69.5496 112.142 67.145 111.208 65.3764C109.387 61.9124 105.368 60.399 101.691 59.5436C100.44 59.2562 99.1848 59.1347 97.9975 59.6014C96.7114 60.0991 96.0051 61.1284 95.3636 62.2339L95.2635 62.4074C95.1314 62.6291 95.1305 62.6349 95.2619 62.419C95.3985 62.21 95.3924 62.209 95.2442 62.4101C95.0288 62.6416 95.0846 62.6034 95.4055 62.2945C95.3833 62.2729 95.1219 62.5621 95.0916 62.5094C95.5031 62.3168 95.5581 62.2844 95.2627 62.4132L95.0773 62.4773C94.5189 62.7284 95.7135 62.477 95.0912 62.4677L94.8939 62.4821C94.5534 62.4844 94.6281 62.491 95.131 62.4982C95.1498 62.543 94.7589 62.4119 94.7434 62.4331C95.2249 62.5913 95.3032 62.6163 94.98 62.4966C94.6794 62.351 94.736 62.3962 95.1498 62.6322C93.9969 61.9211 92.4924 61.6031 91.3571 62.4592C90.2218 63.3153 89.8953 64.5986 90.379 65.8991L90.7528 66.9075C91.2996 68.3851 93.357 69.248 94.8142 68.6541C96.4044 68.0112 97.0607 66.4442 96.4779 64.8654L96.104 63.857L91.3332 67.1239C92.863 68.0648 94.5337 68.5891 96.3227 68.277C98.3115 67.9329 99.768 66.8988 100.772 65.2773C100.828 65.1916 101.094 64.6057 101.17 64.6007C101.17 64.6007 100.709 65.1002 101.139 64.6906C101.394 64.4421 100.815 64.9335 100.74 64.9744C100.535 65.0829 100.278 65.0753 100.09 65.1568C99.7894 65.2788 100.074 65.1838 100.288 65.2258C100.637 65.2963 100.985 65.3784 101.331 65.4663C101.623 65.5392 101.976 65.5864 102.254 65.7105C101.461 65.3513 102.524 65.8093 102.703 65.8752C103.003 65.9849 103.295 66.0994 103.58 66.2246C103.823 66.3308 104.349 66.4904 104.522 66.692C104.229 66.3573 104.188 66.4694 104.423 66.6337C104.577 66.743 104.739 66.8474 104.892 66.9683C105.011 67.0597 105.13 67.1569 105.248 67.2541C105.332 67.3277 105.66 67.6802 105.384 67.3661C105.107 67.0519 105.662 67.7578 105.733 67.8351C105.989 68.116 105.516 67.3228 105.623 67.6798C105.811 68.3062 105.651 67.5715 105.638 67.5752C105.658 67.5667 105.703 68.0025 105.717 68.0405C105.863 68.3862 105.758 67.4349 105.708 67.7893C105.654 68.1727 105.945 67.1808 105.789 67.5293C105.652 67.8275 106.053 67.1752 106.132 67.1052C106.326 66.9356 106.54 66.8941 106.763 66.7888C107.094 66.6303 106.699 66.7959 106.558 66.8139C106.199 66.8548 105.847 66.8967 105.49 66.9677C103.923 67.2695 102.639 67.9757 101.182 68.5279C101.036 68.5807 100.896 68.6345 100.744 68.6805C100.593 68.7264 100.24 68.9468 100.597 68.7449C100.898 68.5696 100.686 68.7361 100.501 68.7526C100.379 68.7678 100.251 68.782 100.13 68.7914C100.009 68.8009 99.8782 68.7908 99.7564 68.806C99.3601 68.8465 100.423 68.9002 100.026 68.8156C99.7445 68.7564 99.384 68.678 99.0968 68.6596C98.6989 68.6225 99.724 68.9017 99.3565 68.7388C99.2146 68.6734 99.057 68.6291 98.9143 68.5694C98.7954 68.5197 98.6834 68.4652 98.5653 68.4097C98.4771 68.3652 98.3942 68.3275 98.313 68.2781C98.1022 68.1654 98.1949 68.2226 98.5903 68.4556C98.4595 68.2671 98.0046 68.0539 97.8119 67.9026C97.7163 67.8211 97.6216 67.7338 97.526 67.6524C97.1093 67.3029 97.8254 68.0297 97.6199 67.7454C97.4625 67.5227 97.2664 67.3054 97.095 67.0923C96.7789 66.7002 97.198 67.2107 97.1926 67.293C97.1926 67.2038 96.979 66.8884 96.9405 66.8046C96.8929 66.6956 96.8531 66.5759 96.7994 66.4658C96.5432 65.9172 96.9039 67.1078 96.8043 66.5201C96.7523 66.2199 96.7056 65.9266 96.6922 65.6211C96.6212 64.0747 94.742 62.754 93.1951 62.9581C91.4168 63.1948 90.4614 64.5153 90.5422 66.1703L90.5438 66.1587Z" fill="#9F490D"/>
</svg>
