<svg width="200" height="374" viewBox="0 0 200 374" fill="none" xmlns="http://www.w3.org/2000/svg">
<path d="M32.4907 185.068C15.2714 221.342 15.2765 250.055 22.2259 289.139C25.6517 308.399 32.6686 327.818 46.8748 339.627C56.4223 347.563 68.3974 351.4 80.3232 354.065C91.5549 356.581 103.5 358.151 114.583 354.074C135.479 346.402 146.764 321.566 152.384 298.534C163.381 253.449 161.967 213.33 147.954 170.336C143.67 157.205 137.732 143.855 126.842 136.563C119.789 131.834 111.327 130.127 103.068 128.511C93.4592 126.629 82.9811 124.89 74.1145 129.898C67.0331 133.899 63.6568 136.283 57.4118 143.795C51.7131 150.643 45.5182 161.008 39.4063 171.132L32.4811 185.06L32.4907 185.068Z" fill="#E7C706"/>
<path d="M28.5417 183.305C19.9251 201.5 14.4086 221.117 13.6948 241.314C13.3404 251.345 13.8872 261.295 15.0802 271.173C16.3662 281.844 18.0455 292.569 20.7863 302.855C23.527 313.14 27.3133 322.447 32.9048 330.782C38.4962 339.117 46.5117 346.213 55.5654 350.764C64.619 355.315 75.2239 358.078 85.4049 359.909C96.4206 361.886 108.13 362.151 118.832 357.288C135.819 349.555 146.398 331.304 152.535 313.387C156.163 302.794 158.616 291.726 160.518 280.705C162.534 269.03 163.661 257.273 163.937 245.486C164.495 222.064 160.998 198.973 154.609 176.927C151.642 166.676 148.227 156.447 142.853 147.433C140.283 143.126 137.163 139.17 133.515 135.885C129.674 132.42 125.142 129.851 120.378 128.096C115.366 126.247 110.123 125.118 104.897 124.081C99.6717 123.044 94.286 121.994 88.857 121.976C82.9948 121.95 77.2546 122.93 71.9213 125.967C68.0445 128.171 64.201 130.541 60.8515 133.652C52.8558 141.09 46.8271 150.657 41.0574 160.071C38.9092 163.566 36.634 167.024 34.7959 170.719L30.9638 178.418C30.1561 180.044 29.3485 181.67 28.5321 183.297C27.4281 185.52 28.6244 188.642 30.6967 189.462C33.0345 190.384 35.3082 189.235 36.4868 186.868C38.5466 182.721 40.6152 178.572 42.6751 174.425C42.8528 174.065 43.0304 173.705 43.2081 173.345C43.6075 172.533 43.245 173.549 43.0563 173.606C43.365 173.511 44.0857 171.899 44.2461 171.636C44.6043 171.04 44.9633 170.452 45.3223 169.865C46.154 168.492 46.9856 167.118 47.8269 165.753C50.7538 160.979 53.7269 156.225 56.9771 151.695C58.4572 149.623 60.0141 147.616 61.6494 145.691C62.0861 145.177 62.5236 144.672 62.9697 144.166C63.1373 143.979 63.3048 143.792 63.4811 143.603C63.4976 143.591 64.3215 142.694 63.8162 143.228C63.3109 143.762 64.1053 142.927 64.1374 142.894C64.298 142.726 64.4509 142.57 64.6124 142.412C65.063 141.953 65.5319 141.5 66.0026 141.066C67.4216 139.745 68.9314 138.543 70.504 137.445C70.868 137.19 71.2425 136.951 71.6161 136.704C72.4624 136.136 70.9487 137.111 71.524 136.756C71.7491 136.617 71.9654 136.479 72.1905 136.34C73.1498 135.754 74.1197 135.187 75.0913 134.638C76.2549 133.974 77.4239 133.366 78.6488 132.882C78.8957 132.787 79.1426 132.692 79.3991 132.605C79.3817 132.607 80.6146 132.208 79.9625 132.404C79.3103 132.599 80.5564 132.246 80.5312 132.259C80.9103 132.163 81.299 132.074 81.6886 131.995C82.9175 131.739 84.1543 131.567 85.3982 131.47C85.9941 131.426 86.5831 131.401 87.1798 131.366C88.4543 131.312 86.6299 131.337 87.3999 131.361C87.8689 131.374 88.3361 131.368 88.7972 131.392C93.9951 131.578 99.0963 132.606 104.169 133.61C106.607 134.098 109.038 134.607 111.451 135.213C112.048 135.368 112.655 135.531 113.253 135.695C113.417 135.746 114.045 135.943 113.244 135.696C113.481 135.774 113.717 135.842 113.953 135.91C115.253 136.308 116.531 136.757 117.796 137.255C118.823 137.667 119.845 138.108 120.844 138.59C121.398 138.856 121.946 139.142 122.486 139.439C122.7 139.558 122.915 139.677 123.13 139.805C123.382 139.957 124.094 140.388 123.456 139.983C125.39 141.215 127.205 142.664 128.876 144.278C129.292 144.67 129.685 145.084 130.086 145.497C130.652 146.075 130.123 145.52 130.016 145.413C130.212 145.62 130.4 145.838 130.589 146.056C131.381 146.97 132.143 147.926 132.871 148.906C134.228 150.749 135.463 152.697 136.598 154.707C136.864 155.179 137.112 155.654 137.377 156.126C137.964 157.195 136.951 155.261 137.496 156.355C137.604 156.566 137.713 156.787 137.822 156.998C138.357 158.084 138.867 159.184 139.36 160.286C140.348 162.509 141.243 164.784 142.087 167.077C143.946 172.158 145.533 177.358 147.01 182.594C147.769 185.298 148.486 188.019 149.161 190.756C149.504 192.138 149.83 193.532 150.139 194.929C150.095 194.745 149.949 194.046 150.142 194.957C150.219 195.306 150.295 195.646 150.364 195.996C150.525 196.76 150.685 197.524 150.845 198.278C153.046 209.008 154.472 219.953 155.035 231.002C155.307 236.471 155.35 241.947 155.227 247.439C155.208 248.268 155.267 246.283 155.218 247.63C155.209 247.907 155.2 248.184 155.192 248.47C155.17 249.167 155.139 249.865 155.1 250.565C155.029 251.963 154.95 253.363 154.862 254.764C154.68 257.585 154.435 260.397 154.147 263.217C152.955 274.745 150.89 286.191 148.156 297.463C147.889 298.559 147.614 299.656 147.33 300.755C147.201 301.259 147.064 301.765 146.925 302.262C146.913 302.32 146.595 303.424 146.815 302.678C147.035 301.931 146.636 303.304 146.595 303.434C145.957 305.632 145.272 307.809 144.524 309.967C143.016 314.352 141.28 318.658 139.265 322.817C138.807 323.753 138.34 324.69 137.854 325.61C137.584 326.117 137.306 326.626 137.036 327.133C137.4 326.507 136.486 328.13 137.036 327.133C136.831 327.478 136.635 327.832 136.437 328.166C135.342 330.017 134.18 331.821 132.934 333.572C131.689 335.322 130.278 337.107 128.82 338.758C128.637 338.967 128.452 339.157 128.269 339.365C127.807 339.893 129.056 338.55 128.301 339.332C127.923 339.723 127.545 340.114 127.166 340.486C126.399 341.241 125.612 341.97 124.805 342.674C124.079 343.299 123.334 343.909 122.577 344.491C122.158 344.812 121.729 345.125 121.29 345.431C121.075 345.587 120.851 345.736 120.636 345.883C120.42 346.03 119.414 346.775 120.439 346.037C118.821 347.218 116.891 348.086 115.103 348.865C114.027 349.335 112.944 349.731 111.841 350.11C110.995 350.402 111.619 350.191 111.799 350.135C111.473 350.233 111.138 350.323 110.811 350.411C110.088 350.608 109.354 350.778 108.618 350.93C105.944 351.485 103.25 351.739 100.55 351.833C99.6705 351.864 100.321 351.84 100.498 351.841C100.163 351.845 99.8183 351.841 99.4825 351.836C98.8726 351.826 98.2618 351.806 97.651 351.786C96.224 351.721 94.7926 351.61 93.3751 351.458C90.7271 351.173 88.0927 350.753 85.4773 350.253C82.8619 349.754 80.3908 349.195 77.8709 348.586C76.742 348.314 75.6113 348.023 74.4884 347.721C73.9539 347.575 73.4194 347.43 72.8927 347.273C73.8807 347.549 72.6925 347.209 72.5654 347.172C72.2111 347.065 71.8568 346.958 71.5112 346.85C66.9652 345.442 62.4951 343.718 58.2512 341.494C57.1738 340.929 56.1182 340.313 55.0625 339.696C54.9127 339.605 54.3587 339.254 55.073 339.714C54.8108 339.555 54.5564 339.385 54.302 339.215C53.7375 338.846 53.1808 338.466 52.6311 338.067C50.6812 336.676 48.8329 335.147 47.0861 333.478C46.3287 332.749 45.5955 331.997 44.8788 331.234C45.6347 332.039 44.442 330.722 44.2536 330.504C43.8368 330.017 43.4278 329.519 43.0266 329.011C41.5954 327.227 40.2701 325.351 39.0343 323.394C38.4007 322.39 37.7914 321.363 37.2074 320.322C36.9419 319.85 36.6852 319.376 36.4285 318.903C36.3097 318.674 35.8803 317.961 36.3866 318.833C36.2077 318.528 36.0599 318.181 35.8975 317.864C34.8179 315.693 33.8391 313.468 32.9437 311.193C31.1793 306.734 29.7434 302.109 28.557 297.418C28.4027 296.815 28.2571 296.21 28.1115 295.605C28.0536 295.367 27.9948 295.12 27.9369 294.882C27.8913 294.68 27.5809 293.454 27.879 294.643C27.58 293.445 27.3566 292.206 27.1176 290.989C26.6175 288.415 26.1774 285.822 25.7469 283.238C24.1461 273.527 22.8888 263.716 22.4517 253.806C22.3498 251.523 22.2913 249.232 22.286 246.943C22.2873 245.841 22.2886 244.739 22.316 243.632C22.3208 243.403 22.3256 243.175 22.3294 242.936C22.348 241.736 22.2907 244.016 22.3275 242.823C22.3525 242.249 22.3687 241.676 22.3928 241.093C22.6022 236.509 23.0317 231.92 23.7031 227.37C24.3745 222.819 25.2776 218.385 26.4112 213.963C26.5588 213.38 26.7161 212.804 26.8646 212.23C26.9311 212.001 26.9794 211.766 27.0546 211.536C26.7217 212.585 26.989 211.774 27.0693 211.505C27.4201 210.273 27.7892 209.047 28.1766 207.828C28.9089 205.501 29.7057 203.202 30.5478 200.915C32.3262 196.128 34.3346 191.438 36.5189 186.834C37.5768 184.59 36.4623 181.494 34.3543 180.669C32.054 179.77 29.6967 180.875 28.5642 183.263L28.5417 183.305Z" fill="#E7C706"/>
<path d="M45.0997 292.338C56.1805 309.238 69.8404 324.078 85.2503 335.874C89.7698 339.337 94.4571 342.546 99.245 345.51C101.211 346.719 104.06 345.309 104.812 343.045C105.68 340.438 104.664 338.03 102.569 336.731C101.631 336.149 100.702 335.566 99.7711 334.964C99.2554 334.636 98.747 334.297 98.2302 333.96C98.0266 333.822 97.8231 333.685 97.6195 333.547C98.4243 334.089 97.5088 333.475 97.3326 333.353C95.4056 332.032 93.4995 330.67 91.6217 329.255C87.8672 326.436 84.2207 323.437 80.6833 320.27C77.146 317.103 73.7272 313.775 70.4449 310.294C69.6679 309.469 68.8898 308.634 68.1275 307.788C67.6988 307.323 67.2775 306.847 66.8573 306.38C66.6905 306.19 66.5236 305.999 66.3568 305.808C67.0431 306.588 66.1995 305.626 66.1213 305.54C64.5479 303.718 63.005 301.863 61.4998 299.964C58.0924 295.678 54.8604 291.205 51.8238 286.571C50.4921 284.543 47.6098 283.995 45.871 285.626C44.1323 287.256 43.675 290.168 45.0997 292.338Z" fill="#DB840A"/>
<path d="M50.1522 236.065C48.937 234.766 47.7218 233.467 46.5056 232.158C46.0739 231.742 45.5826 231.478 45.0389 231.356C44.5003 231.128 43.9452 231.056 43.3673 231.161C42.783 231.209 42.2602 231.423 41.7883 231.785C41.2877 232.044 40.8706 232.437 40.5433 232.945L39.9951 233.993C39.7001 234.786 39.5968 235.611 39.6937 236.468L39.9884 237.714C40.282 238.497 40.7226 239.144 41.3126 239.675C42.5277 240.974 43.7429 242.273 44.9591 243.582C45.3908 243.999 45.8822 244.262 46.4258 244.384C46.9645 244.612 47.5196 244.684 48.0974 244.579C48.6817 244.531 49.2045 244.317 49.6764 243.955C50.177 243.696 50.5941 243.303 50.9214 242.796L51.4696 241.747C51.7646 240.955 51.8679 240.129 51.7711 239.272L51.4763 238.026C51.1828 237.243 50.7421 236.596 50.1522 236.065Z" fill="#DB840A"/>
<path d="M38.8324 235.723C46.9598 247.514 55.6545 258.805 64.8901 269.512C74.3338 280.472 84.2689 290.865 94.7257 300.58C100.493 305.937 106.4 311.082 112.453 316.014C114.261 317.496 117.051 317.379 118.406 315.229C119.689 313.195 119.575 310.069 117.646 308.497C106.978 299.786 96.7216 290.411 86.9602 280.421C84.5439 277.947 82.158 275.44 79.8015 272.89C78.6232 271.615 77.4523 270.329 76.2898 269.043C75.7123 268.394 75.1263 267.747 74.5487 267.098C74.2837 266.795 74.0197 266.501 73.7547 266.198C73.6185 266.051 73.4896 265.894 73.3534 265.748C72.5013 264.788 73.6871 266.129 73.1961 265.566C68.5794 260.26 64.0773 254.834 59.7201 249.252C54.8242 242.988 50.1047 236.546 45.5555 229.947C44.1849 227.953 41.3635 227.339 39.6027 229.002C37.8419 230.664 37.3604 233.588 38.8314 235.714L38.8324 235.723Z" fill="#DB840A"/>
<path d="M55.7413 192.962C64.608 205.245 73.8613 217.168 83.5053 228.691C93.1494 240.214 103.475 251.715 114.01 262.58C119.892 268.646 125.887 274.572 131.984 280.349C133.698 281.978 136.648 281.609 137.938 279.564C139.3 277.403 139.005 274.562 137.177 272.832C126.483 262.684 116.109 252.107 106.095 241.097C103.616 238.37 101.167 235.61 98.7271 232.849C98.384 232.46 98.7472 232.876 98.8053 232.936C98.6194 232.728 98.442 232.52 98.2551 232.303C97.9806 231.991 97.7049 231.67 97.4304 231.358C96.7916 230.621 96.1527 229.884 95.5138 229.146C94.2836 227.714 93.0618 226.281 91.8484 224.846C87.073 219.194 82.3878 213.434 77.8036 207.583C72.5623 200.911 67.4513 194.105 62.4643 187.186C61.0559 185.236 58.3038 184.555 56.5115 186.241C54.7192 187.927 54.2304 190.862 55.7402 192.953L55.7413 192.962Z" fill="#DB840A"/>
<path d="M78.7143 151.006C92.2107 168.332 105.922 185.445 119.833 202.349C123.775 207.135 127.733 211.909 131.706 216.661C133.238 218.489 135.782 219.371 137.659 217.606C139.267 216.099 140.071 212.852 138.431 210.894C124.406 194.112 110.571 177.121 96.9593 159.907C93.1008 155.033 89.2654 150.137 85.4374 145.23C83.967 143.336 81.3231 142.554 79.4846 144.285C77.8225 145.838 77.1341 148.972 78.7133 150.997L78.7143 151.006Z" fill="#DB840A"/>
<path d="M83.9562 192.43C95.1837 182.648 105.562 171.626 114.94 159.623C116.403 157.749 115.976 154.345 114.179 152.891C112.212 151.295 109.785 151.673 108.225 153.676C105.918 156.629 103.553 159.521 101.12 162.344C100.584 162.976 100.039 163.598 99.4941 164.221C99.1759 164.582 98.8577 164.943 98.5396 165.304C98.403 165.457 98.2665 165.61 98.13 165.764C98.4419 165.423 98.4177 165.436 98.0691 165.83C96.8677 167.148 95.6578 168.467 94.4279 169.76C89.4263 175.039 84.1966 180.038 78.782 184.763C77.0314 186.289 76.519 189.468 78.0107 191.475C79.5024 193.481 82.0974 194.057 83.9635 192.42L83.9562 192.43Z" fill="#DB840A"/>
<path d="M39.438 264.973C48.0423 252.927 56.6466 240.882 65.2592 228.836C66.6466 226.894 66.3522 223.608 64.4984 222.104C62.6446 220.599 60.0284 220.818 58.5445 222.889C49.9402 234.934 41.336 246.979 32.7233 259.026C31.3359 260.967 31.6304 264.253 33.4841 265.758C35.3379 267.262 37.9541 267.043 39.438 264.973Z" fill="#DB840A"/>
<path d="M53.7645 319.531C63.6195 303.049 74.0642 287.022 85.0809 271.517C88.1703 267.167 91.3083 262.868 94.4844 258.603C95.9086 256.686 95.5488 253.351 93.7235 251.871C91.7853 250.3 89.2915 250.62 87.7696 252.656C76.4384 267.873 65.6613 283.607 55.4782 299.832C52.6251 304.383 49.8185 308.967 47.0582 313.583C45.8217 315.65 45.8619 318.727 47.819 320.315C49.5884 321.754 52.4578 321.733 53.7729 319.53L53.7645 319.531Z" fill="#DB840A"/>
<path d="M105.004 221.486C114.686 210.129 123.746 198.111 132.143 185.513C133.473 183.521 133.274 180.32 131.382 178.781C129.49 177.243 126.846 177.437 125.428 179.566C117.032 192.164 107.971 204.182 98.2892 215.539C96.7499 217.346 97.3092 220.857 99.0501 222.271C101.083 223.926 103.367 223.412 105.004 221.486Z" fill="#DB840A"/>
<path d="M111.505 282.123C114.975 275.693 118.797 269.507 122.972 263.641C125.037 260.74 127.195 257.904 129.423 255.156C130.519 253.813 131.633 252.477 132.759 251.179C133.062 250.83 133.373 250.479 133.675 250.13C133.797 249.998 134.729 248.948 134.099 249.649C134.722 248.958 135.346 248.277 135.978 247.594C137.57 245.877 138.343 243.03 136.75 240.882C135.398 239.06 132.503 238.099 130.797 239.938C120.767 250.712 111.98 262.81 104.774 276.178C103.629 278.301 103.512 281.273 105.534 282.91C107.237 284.29 110.267 284.403 111.488 282.125L111.505 282.123Z" fill="#DB840A"/>
<path d="M81.7985 337.433C82.2322 336.506 82.6922 335.585 83.1617 334.673L82.6136 335.721C84.9992 331.193 87.8785 327.025 91.1843 323.304L90.4177 324.158C91.0247 323.479 91.6422 322.818 92.2788 322.173C93.1054 321.32 93.7244 320.369 93.8939 319.071C94.0427 317.892 93.7452 316.394 93.0585 315.461C91.6851 313.593 88.8514 312.72 87.1057 314.516C81.7508 319.996 77.3679 326.363 73.9959 333.582C73.5066 334.622 73.5959 336.244 73.9891 337.303C74.3824 338.363 75.2769 339.472 76.2478 339.895C78.5489 340.896 80.7144 339.789 81.8153 337.431L81.7985 337.433Z" fill="#DB840A"/>
<path d="M121.296 330.406C121.603 329.796 121.912 329.195 122.227 328.583C122.016 328.988 122.057 328.895 122.249 328.551C122.412 328.249 122.566 327.949 122.729 327.657C123.345 326.522 123.969 325.396 124.621 324.276C125.943 321.985 127.332 319.753 128.785 317.561C131.647 313.241 134.756 309.139 138.07 305.262C139.61 303.464 139.05 299.943 137.309 298.53C135.267 296.876 133.001 297.397 131.355 299.315C124.365 307.495 118.444 316.664 113.485 326.556C112.39 328.74 113.75 332.001 115.729 332.871C118.084 333.894 120.132 332.734 121.296 330.406Z" fill="#DB840A"/>
<path d="M70.6618 180.305C71.1455 179.14 71.6376 177.973 72.1201 176.798C72.3704 176.215 72.4637 175.603 72.4168 174.962C72.4721 174.317 72.3747 173.682 72.1269 173.077C71.9306 172.475 71.6166 171.965 71.1944 171.557C70.8416 171.082 70.3995 170.724 69.8766 170.484L68.8207 170.14C68.0453 170.011 67.3043 170.108 66.5806 170.436L65.6323 171.044C65.048 171.546 64.6073 172.184 64.3175 172.947L62.8592 176.454C62.6089 177.038 62.5157 177.649 62.5625 178.291C62.5072 178.936 62.6046 179.57 62.8524 180.176C63.0487 180.778 63.3627 181.287 63.7849 181.696C64.1377 182.171 64.5798 182.528 65.1027 182.768L66.1586 183.112C66.934 183.242 67.675 183.144 68.3987 182.817L69.347 182.209C69.9313 181.706 70.372 181.068 70.6618 180.305Z" fill="#DB840A"/>
<path d="M52.2915 206.858C59.7713 195.754 67.2427 184.65 74.7226 173.546C76.0624 171.562 75.8524 168.343 73.9617 166.814C72.071 165.285 69.4348 165.478 68.0078 167.599C60.528 178.703 53.0566 189.807 45.5767 200.911C44.2369 202.895 44.4469 206.114 46.3376 207.643C48.2283 209.172 50.8645 208.979 52.2915 206.858Z" fill="#DB840A"/>
<path d="M151.907 50.8936C152.233 44.0586 155.81 37.7532 159.812 32.2724C163.823 26.7902 168.408 21.711 171.429 15.556C151.332 21.7288 132.534 33.4582 117.38 49.2811L86.9523 58.9869C84.8722 54.7738 81.1195 51.8927 77.3666 49.3732C69.7303 44.2336 61.5779 39.9427 53.0743 36.5955C49.1997 35.0679 44.8267 33.7559 40.9332 35.568C50.1197 47.7086 59.5292 59.6481 69.161 71.3774L95.905 99.7028L151.897 50.8767L151.907 50.8936Z" fill="#257933"/>
<path d="M156.166 51.4528C156.254 49.8328 156.529 48.2676 156.906 46.6866C156.635 47.8334 157.033 46.2865 157.107 46.0707C157.221 45.719 157.352 45.3646 157.483 45.0193C157.746 44.3197 158.035 43.6253 158.342 42.9465C158.708 42.1475 159.101 41.3719 159.512 40.5938C160.09 39.4834 159.034 41.3916 159.667 40.31C159.861 39.983 160.046 39.6574 160.249 39.3382C161.133 37.893 162.083 36.5027 163.07 35.1437C167.349 29.2579 172.089 23.8491 175.38 17.2237C176.193 15.5759 175.664 13.3914 174.563 12.1956C173.278 10.7867 171.66 10.7104 169.919 11.2473C151.586 16.9166 134.218 27.1733 119.719 40.8333C118.869 41.6326 118.029 42.4489 117.19 43.2744C116.771 43.6917 116.36 44.1076 115.95 44.5236C115.744 44.7316 115.429 44.9658 115.263 45.2235C114.985 45.6655 115.043 45.0902 115.817 45.0362C115.576 45.0547 115.279 45.2117 115.053 45.2837L110.44 46.7543C105.466 48.3454 100.484 49.9378 95.5093 51.5197C92.1316 52.5962 88.7623 53.6713 85.3854 54.7569L90.9372 57.1442C89.0923 53.4999 86.5712 50.5724 83.4723 48.1237C80.3735 45.675 77.2117 43.7467 73.9687 41.7845C67.5375 37.8888 60.7615 34.464 53.7447 31.8748C49.1059 30.1643 44.1544 29.1705 39.3363 31.3041C36.8105 32.4167 35.722 36.1684 37.425 38.4138C43.8038 46.8491 50.2857 55.185 56.8707 63.4215C60.5063 67.9605 64.0567 72.6056 68.0245 76.815C74.4094 83.5872 80.7944 90.3593 87.1793 97.1315C89.1824 99.2565 91.1856 101.381 93.1887 103.506C94.4691 104.86 97.0445 104.632 98.4274 103.425C104.734 97.9243 111.032 92.4244 117.338 86.9142C127.393 78.1346 137.448 69.3551 147.504 60.5847C149.821 58.5569 152.139 56.5383 154.457 54.5106C156.231 52.9564 156.861 49.9345 155.388 48.0158C153.915 46.0972 151.297 45.6082 149.396 47.2748C143.089 52.776 136.791 58.2758 130.485 63.7861C120.43 72.5656 110.375 81.3452 100.32 90.1155C98.0021 92.1433 95.6837 94.1619 93.3662 96.1897L98.6049 96.1086C93.5773 90.7714 88.5413 85.4354 83.5146 80.1073L74.2789 70.3097C73.5374 69.523 72.7873 68.7376 72.0448 67.9417C71.9875 67.8855 71.9302 67.8293 71.8806 67.7627C71.7934 67.6646 71.6464 67.5758 72.0919 67.9809C72.8024 68.6238 71.8607 67.645 71.7923 67.5626C71.5664 67.2817 71.3414 67.0098 71.1155 66.7288C69.4394 64.6743 67.771 62.6093 66.1025 60.5443C58.7279 51.3799 51.4793 42.0847 44.368 32.6849L42.4566 39.7946C42.7644 39.6637 43.5346 39.3874 42.7763 39.6062C43.1977 39.4857 43.632 39.4096 44.0586 39.344C44.2292 39.3178 45.261 39.2427 44.7865 39.26C44.2599 39.2759 44.8821 39.2639 44.9606 39.2704C45.2133 39.2872 45.4574 39.3054 45.711 39.3314C46.5331 39.4186 47.3442 39.5725 48.1512 39.7735C48.3373 39.8191 48.5235 39.8648 48.7105 39.9196C48.5414 39.8713 47.9777 39.6794 48.7567 39.9497C49.1863 40.0972 49.6065 40.2369 50.0284 40.3949C53.2664 41.5778 56.4306 42.9857 59.5421 44.476C62.6535 45.9663 65.7362 47.6096 68.7432 49.3666C69.4773 49.8016 70.2113 50.2367 70.9377 50.6822C71.1223 50.8024 71.9315 51.3001 71.3427 50.9356C71.7299 51.1825 72.117 51.4294 72.5041 51.6764C73.9065 52.5844 75.3013 53.5028 76.6595 54.4919C78.0177 55.481 79.3581 56.5564 80.5725 57.7626C80.7359 57.9325 80.8992 58.1024 81.0617 58.2631C81.5021 58.7061 80.6287 57.7168 81.0147 58.2239C81.262 58.548 81.5417 58.8486 81.7899 59.1819C82.0765 59.5557 82.347 59.9413 82.6013 60.3386C82.7443 60.5674 83.4056 61.7843 82.9463 60.8706C84.1408 63.2313 86.0116 64.058 88.498 63.2579C96.3035 60.7672 104.117 58.266 111.922 55.7752L117.299 54.0571C117.762 53.9118 118.226 53.7847 118.677 53.6132C119.84 53.1929 120.673 52.1177 121.549 51.2308C125.041 47.7133 128.709 44.41 132.537 41.3329C134.45 39.7944 136.405 38.3146 138.39 36.895C139.331 36.2212 140.281 35.5644 141.241 34.9154C141.721 34.5909 142.201 34.2755 142.682 33.9602C142.951 33.7888 143.22 33.6082 143.489 33.4368C143.669 33.3256 144.632 32.7132 143.807 33.23C153.031 27.4477 162.849 22.911 173.033 19.7575L167.572 13.7811C167.332 14.2637 167.083 14.7384 166.834 15.2132C166.38 16.0816 167.18 14.6678 166.627 15.5794C166.14 16.3785 165.652 17.1685 165.138 17.9532C164.177 19.4011 163.159 20.8019 162.113 22.1792C160.007 24.973 157.789 27.6911 155.768 30.5555C151.703 36.3248 148.121 43.0693 147.714 50.3378C147.579 52.745 148.766 55.2927 151.228 55.5085C153.332 55.6957 156.027 54.0927 156.171 51.5077L156.166 51.4528Z" fill="#237733"/>
<path d="M73.4528 120.987C59.1731 108.062 41.7031 99.9575 24.4758 92.0309C39.5706 89.1971 55.418 93.3814 67.1977 103.299C57.5718 90.0851 46.6937 77.9531 34.777 67.1407C56.246 62.3791 77.0015 75.8203 92.1336 92.0553C82.025 66.7048 89.2215 33.8972 109.053 14.9888C103.922 38.0807 109.158 61.7799 114.379 84.3969C123.488 58.3817 148.898 39.5944 174.239 40.1261C153.296 58.037 134.751 80.5245 125.536 107.435C137.303 90.6685 161.563 86.2149 176.761 98.0263C156.296 101.922 136.669 112.188 120.868 127.258L73.4433 120.979L73.4528 120.987Z" fill="#2DA736"/>
<path d="M76.161 117.283C64.7402 106.976 51.2951 99.6003 37.6966 93.0815C33.8917 91.2547 30.0578 89.4886 26.2324 87.7211L24.8897 96.6486C26.734 96.3079 28.5871 96.0593 30.4507 95.9214C31.3825 95.8525 32.3083 95.8125 33.2359 95.791C33.7387 95.7789 33.7044 95.7842 33.1229 95.7897C33.3576 95.7909 33.5837 95.7935 33.8184 95.7947C34.2792 95.7984 34.7495 95.81 35.2121 95.8322C38.9186 95.9806 42.6029 96.5348 46.1756 97.4712C46.3625 97.5172 47.81 97.9394 46.7815 97.6303C47.2289 97.7671 47.6669 97.896 48.1066 98.0433C48.9851 98.3288 49.8577 98.6432 50.7226 98.9682C52.4541 99.6367 54.1421 100.396 55.7952 101.245C56.6175 101.67 57.4329 102.115 58.2424 102.589C58.6472 102.826 59.0434 103.064 59.4404 103.312C58.5451 102.757 59.8212 103.571 59.9782 103.668C61.528 104.711 63.0249 105.837 64.4688 107.045C66.1392 108.444 68.591 108.187 70.1287 106.537C71.6664 104.887 71.9781 102.219 70.6692 100.418C60.8036 86.905 49.6605 74.4869 37.4801 63.4078L35.1957 71.7508C37.29 71.2966 39.3982 70.99 41.5144 70.8599C41.9547 70.8294 42.3957 70.8081 42.8377 70.796C42.8891 70.7881 43.976 70.7981 43.254 70.7879C42.6278 70.7816 43.3499 70.7918 43.4981 70.797C44.5423 70.8137 45.5805 70.8593 46.6145 70.9523C48.6817 71.1292 50.7372 71.4576 52.7613 71.9124C53.1871 72.0058 53.6139 72.1083 54.0415 72.2201C54.2549 72.2714 54.4692 72.3319 54.6826 72.3832C54.7177 72.3871 55.7624 72.6844 55.1016 72.4963C54.4409 72.3082 55.4865 72.6147 55.5225 72.6278C55.7367 72.6883 55.9433 72.7594 56.1584 72.8291C56.6872 73.0001 57.2084 73.1817 57.7295 73.3632C61.6415 74.7618 65.4036 76.5952 68.9942 78.7264C69.188 78.8462 69.3904 78.9647 69.5833 79.0753C69.5919 79.0739 70.5609 79.6729 69.9889 79.3214C69.4169 78.9699 70.3869 79.5781 70.3954 79.5768C70.5901 79.7058 70.7839 79.8256 70.9701 79.956C71.8869 80.5536 72.7892 81.1816 73.683 81.8109C75.4259 83.0577 77.1313 84.3664 78.7905 85.7384C82.5414 88.8273 86.077 92.2115 89.4228 95.7933C90.6889 97.1418 93.3207 96.9508 94.6802 95.7118C96.144 94.3818 96.9113 92.1207 96.1555 90.1976C95.1621 87.6936 94.3271 85.1184 93.6598 82.4799C93.5907 82.2099 93.1007 80.4329 93.4803 81.7778C93.3086 81.1587 93.2105 80.4908 93.0893 79.8546C92.8271 78.4635 92.6067 77.0566 92.4292 75.643C92.1038 73.036 91.923 70.3973 91.8896 67.7545C91.8789 67.0918 91.8767 66.4278 91.8926 65.7704C91.8962 65.4424 91.881 65.0986 91.9112 64.7758C91.8968 64.8996 91.8688 65.8864 91.9091 65.0287C91.9808 63.5861 92.0619 62.1514 92.2039 60.7166C92.4651 58.0658 92.8573 55.4229 93.391 52.8049C93.6582 51.5005 93.9606 50.2 94.2896 48.9048C94.372 48.5833 94.463 48.2605 94.5455 47.939C94.764 47.1287 94.5097 48.0194 94.4868 48.1446C94.6326 47.3923 94.9344 46.6346 95.1608 45.9073C95.9713 43.3682 96.9163 40.8738 97.9796 38.4361C98.516 37.2211 99.0798 36.0207 99.6797 34.8334C99.98 34.2444 100.289 33.654 100.599 33.0729C100.71 32.8686 101.231 31.8618 100.657 32.9516C100.811 32.6564 100.985 32.3771 101.148 32.0898C102.643 29.5293 104.295 27.0662 106.099 24.7388C107.035 23.5276 108.01 22.3573 109.024 21.2278C109.236 20.9892 109.445 20.723 109.684 20.4989C108.766 21.3517 109.827 20.3552 110.009 20.1681C110.54 19.6277 111.08 19.0952 111.629 18.5614L104.85 14.3211C100.761 32.9542 103.12 52.0519 106.844 70.1623C107.954 75.5395 109.173 80.8811 110.409 86.2201C110.807 87.9457 112.792 88.9869 114.284 88.9717C115.908 88.9551 117.725 87.87 118.34 86.1096C119.229 83.5771 120.272 81.1051 121.46 78.7042C121.73 78.1573 122.008 77.6091 122.296 77.0688C122.429 76.8237 122.562 76.5786 122.686 76.3348C123.225 75.3254 122.178 77.1993 122.753 76.2123C123.426 75.0605 124.109 73.9259 124.829 72.8136C126.278 70.597 127.857 68.4633 129.532 66.4363C130.289 65.5243 131.054 64.5266 131.916 63.72C131.055 64.5359 131.861 63.7845 132.019 63.6198C132.248 63.3786 132.478 63.1466 132.708 62.9146C133.168 62.4507 133.637 61.9854 134.107 61.5386C135.995 59.7315 137.979 58.031 140.037 56.4597C140.986 55.7425 141.944 55.0425 142.915 54.3781C143.446 54.0155 143.974 53.6346 144.526 53.3155C144.419 53.3788 143.681 53.8389 144.363 53.4249C144.724 53.2008 145.093 52.9753 145.455 52.7604C147.66 51.4564 149.929 50.2828 152.247 49.2515C153.305 48.7793 154.376 48.3428 155.458 47.9325C155.953 47.7439 156.44 47.5658 156.936 47.3956C157.231 47.294 157.534 47.1911 157.828 47.0896C158.081 47.0038 159.441 46.5039 158.198 46.9576C160.725 46.0342 163.48 45.581 166.093 45.1964C167.421 44.9916 168.754 44.8513 170.092 44.7571C170.808 44.7028 171.535 44.6748 172.254 44.6481C172.514 44.6453 173.525 44.4986 172.339 44.6349C172.742 44.582 173.173 44.6371 173.574 44.6501L171.756 36.3788C154.842 50.872 139.645 68.0849 129.033 88.4733C126.168 93.9868 123.687 99.7122 121.658 105.621C120.896 107.843 121.434 110.212 123.327 111.398C125.11 112.517 127.578 112.061 128.919 110.17C129.463 109.403 130.027 108.661 130.618 107.934C130.915 107.579 131.211 107.225 131.526 106.877C131.738 106.638 132.107 106.048 131.453 106.935C131.63 106.692 131.888 106.484 132.094 106.274C133.387 104.971 134.767 103.766 136.219 102.681C136.95 102.138 137.713 101.665 138.444 101.131C137.403 101.881 138.601 101.05 138.873 100.887C139.35 100.607 139.828 100.337 140.308 100.085C141.896 99.2412 143.54 98.5197 145.211 97.9156C145.632 97.7665 146.052 97.6174 146.473 97.4776C147.249 97.2269 146.51 97.2286 146.337 97.508C146.367 97.4566 146.904 97.3456 146.904 97.3456C147.851 97.0777 148.812 96.8546 149.767 96.6605C151.498 96.3185 153.24 96.0871 154.994 95.9848C155.434 95.9543 155.868 95.9528 156.301 95.9328C156.95 95.9075 155.178 95.9189 156.162 95.9355C156.354 95.9434 156.553 95.9406 156.744 95.9392C157.658 95.9572 158.576 96.0121 159.488 96.1052C161.26 96.2809 163.017 96.5805 164.736 97.0263C164.834 97.0486 165.186 97.0972 165.289 97.1749C164.681 96.9973 164.601 96.9723 165.048 97.1091L165.326 97.1972C165.827 97.3538 166.33 97.5288 166.826 97.7143C167.771 98.0643 168.695 98.4551 169.605 98.8947C170.516 99.3343 171.314 99.7818 172.152 100.279C172.823 100.672 172.029 100.177 171.958 100.16C172.198 100.216 172.477 100.501 172.69 100.645C173.173 100.973 173.65 101.33 174.11 101.689L176.394 93.3464C159.696 96.5596 143.651 103.724 129.484 114.209C125.612 117.08 121.904 120.207 118.381 123.558L121.634 122.588C116.293 121.878 110.962 121.175 105.62 120.465C97.1033 119.337 88.5948 118.209 80.0776 117.081C78.1156 116.822 76.1536 116.564 74.1916 116.305C71.9743 116.011 69.5136 117.822 69.2307 120.336C68.9478 122.85 70.3812 125.23 72.757 125.546C82.6904 126.858 92.6246 128.178 102.558 129.49L118.255 131.568C118.783 131.636 119.32 131.712 119.848 131.78C119.953 131.792 120.059 131.813 120.165 131.825C122.207 132.015 123.442 130.842 124.888 129.505C129.617 125.136 134.682 121.192 139.982 117.716C140.31 117.507 140.637 117.288 140.956 117.08C140.088 117.635 141.473 116.757 141.621 116.668C142.277 116.258 142.942 115.856 143.609 115.463C145.164 114.55 146.74 113.67 148.328 112.826C151.505 111.148 154.758 109.626 158.053 108.275C159.584 107.646 161.126 107.052 162.681 106.504C163.522 106.205 164.355 105.918 165.197 105.638C165.559 105.517 165.922 105.405 166.284 105.283C166.461 105.228 168.023 104.753 166.976 105.064C170.373 104.063 173.794 103.217 177.25 102.552C178.974 102.221 180.382 100.946 180.895 99.1173C181.408 97.2884 180.913 95.2782 179.535 94.2184C165.964 83.7749 146.881 84.5586 132.48 94.4067C128.564 97.079 125.056 100.586 122.236 104.568L129.488 109.119C131.28 103.92 133.406 98.8579 135.853 93.9611C136.458 92.7448 137.09 91.5246 137.732 90.3307C138.029 89.7891 138.324 89.2383 138.62 88.6967C138.138 89.5664 138.554 88.8192 138.681 88.6031C138.897 88.2236 139.114 87.8533 139.33 87.4737C140.696 85.1202 142.136 82.8021 143.632 80.5315C146.641 75.9783 149.884 71.6042 153.326 67.4144C155.047 65.3149 156.824 63.2536 158.639 61.2331C159.048 60.7771 159.465 60.3198 159.882 59.8624C160.087 59.6344 160.3 59.4143 160.513 59.185C161.017 58.6393 159.779 59.9626 160.6 59.0967C161.571 58.0673 162.552 57.0458 163.542 56.0322C167.805 51.6972 172.254 47.586 176.834 43.6605C178.225 42.4728 178.842 40.553 178.445 38.7523C178.084 37.1425 176.687 35.4213 175.016 35.3892C153.632 35.0028 132.384 46.6748 119.265 65.5414C115.649 70.7496 112.633 76.5016 110.495 82.5484L118.426 82.4379C117.923 80.2512 117.419 78.0553 116.925 75.8672C117.137 76.817 116.775 75.1981 116.731 75.0084C116.609 74.4564 116.487 73.9045 116.365 73.3525C116.122 72.2486 115.886 71.1434 115.66 70.0369C114.735 65.6041 113.879 61.1516 113.175 56.6661C112.472 52.1806 111.928 47.7266 111.594 43.2027C111.434 40.9631 111.325 38.7156 111.285 36.4576C111.263 35.4036 111.258 34.347 111.272 33.297C111.278 32.8096 111.291 32.3116 111.297 31.8241C111.288 32.7332 111.287 31.9941 111.296 31.8149C111.308 31.392 111.33 30.977 111.35 30.5528C111.599 25.4805 112.24 20.4226 113.333 15.454C114.189 11.5698 109.365 8.51568 106.553 11.2138C98.3033 19.1302 91.9151 29.1826 88.0319 40.2707C84.1486 51.3588 82.5463 63.3205 83.6654 74.9371C84.3 81.4449 85.7979 87.8944 88.1522 93.8467L94.8857 88.2603C82.692 75.209 67.0754 63.8087 49.3734 61.75C44.4103 61.178 39.3023 61.3675 34.3475 62.4409C30.6445 63.2463 29.1912 68.1676 32.0632 70.784C34.9352 73.4004 37.9052 76.2262 40.7297 79.0745C42.1415 80.494 43.5379 81.9346 44.9189 83.3963C45.6047 84.1232 46.2914 84.8593 46.9695 85.5967C47.1052 85.7442 47.2408 85.8917 47.3764 86.0392C47.0665 85.7034 47.0863 85.7284 47.4339 86.0958C47.7927 86.4896 48.1524 86.8925 48.5112 87.2863C53.8755 93.2794 58.956 99.5783 63.7389 106.129L69.9308 99.5032C60.145 91.32 47.7167 86.6042 35.1064 86.4732C31.4017 86.4368 27.7148 86.6783 24.0423 87.348C19.8408 88.118 18.7663 94.4686 22.6996 96.2755C29.3953 99.3591 36.0824 102.444 42.6339 105.84C45.8775 107.519 49.0853 109.279 52.2334 111.142C52.9889 111.596 53.7444 112.05 54.4999 112.504C54.7031 112.632 55.6731 113.24 55.0076 112.819C55.4329 113.09 55.8583 113.361 56.2837 113.633C57.8669 114.661 59.4356 115.719 60.9735 116.82C64.3651 119.234 67.6447 121.844 70.7612 124.657C72.4619 126.191 75.4607 125.747 76.8152 123.722C78.2543 121.582 78.0116 118.841 76.1968 117.203L76.161 117.283Z" fill="#2DA736"/>
</svg>
