<svg width="3840" height="2160" viewBox="0 0 3840 2160" fill="none" xmlns="http://www.w3.org/2000/svg">
<g clip-path="url(#clip0_527_29404)">
<rect width="3840" height="2160" fill="#F1F1F1"/>
<path d="M628.573 1897H355.101C352.434 1897 349.815 1897.71 347.514 1899.06L236.653 1964.06C223.46 1971.8 228.946 1992 244.24 1992H570.733C575.014 1992 579.092 1990.17 581.938 1986.97L639.779 1921.97C648.385 1912.3 641.52 1897 628.573 1897Z" fill="#9DAA97"/>
<path d="M287.435 1764H11.7622C8.89441 1764 6.08672 1764.82 3.67181 1766.37L-111.861 1840.37C-124.478 1848.45 -118.754 1868 -103.77 1868H227.157C231.667 1868 235.938 1865.97 238.787 1862.47L299.065 1788.47C307.047 1778.67 300.074 1764 287.435 1764Z" fill="#9DAA97"/>
<path d="M1142.93 1773H824.563C821.346 1773 818.215 1774.03 815.631 1775.95L776.501 1804.95C764.885 1813.56 770.974 1832 785.432 1832H1128.7C1134.42 1832 1139.65 1828.74 1142.17 1823.61L1156.4 1794.61C1161.29 1784.64 1154.03 1773 1142.93 1773Z" fill="#9DAA97"/>
<path d="M1066.42 2038H625.161C621.559 2038 618.077 2039.3 615.351 2041.65L542.477 2104.65C531.966 2113.74 538.392 2131 552.287 2131H1039.92C1045.95 2131 1051.4 2127.38 1053.74 2121.82L1080.24 2058.82C1084.4 2048.93 1077.14 2038 1066.42 2038Z" fill="#9DAA97"/>
<path d="M1537.03 1882H1260.44C1256.43 1882 1252.6 1883.6 1249.78 1886.44L1192.32 1944.44C1182.94 1953.91 1189.65 1970 1202.98 1970H1583.68C1596.28 1970 1603.27 1955.41 1595.37 1945.6L1548.72 1887.6C1545.87 1884.06 1541.58 1882 1537.03 1882Z" fill="#9DAA97"/>
<path d="M1980.4 1882H2291.56C2295.57 1882 2299.4 1883.6 2302.22 1886.44L2359.68 1944.44C2369.06 1953.91 2362.35 1970 2349.02 1970H1958.65C1948.17 1970 1940.92 1959.54 1944.6 1949.73L1966.35 1891.73C1968.55 1885.88 1974.14 1882 1980.4 1882Z" fill="#9DAA97"/>
<path d="M1831.15 1764H1550.68C1541.09 1764 1533.97 1772.88 1536.04 1782.24L1544.45 1820.24C1545.98 1827.11 1552.06 1832 1559.1 1832H1861.7C1874.29 1832 1881.28 1817.42 1873.39 1807.6L1842.85 1769.6C1840 1766.06 1835.7 1764 1831.15 1764Z" fill="#9DAA97"/>
<path d="M2004.4 2044H1541.93C1535.91 2044 1530.47 2047.6 1528.12 2053.14L1487.84 2148.14C1483.65 2158.04 1490.91 2169 1501.65 2169H2069.53C2081.6 2169 2088.73 2155.47 2081.9 2145.52L2016.77 2050.52C2013.98 2046.44 2009.35 2044 2004.4 2044Z" fill="#9DAA97"/>
<path d="M2925.43 1882H3198.9C3201.57 1882 3204.19 1882.71 3206.49 1884.06L3317.35 1949.06C3330.54 1956.8 3325.05 1977 3309.76 1977H2983.27C2978.99 1977 2974.91 1975.17 2972.06 1971.97L2914.22 1906.97C2905.61 1897.3 2912.48 1882 2925.43 1882Z" fill="#9DAA97"/>
<path d="M3397.43 2038H3864.19C3866.86 2038 3869.47 2038.71 3871.77 2040.06L4083.33 2164.06C4096.53 2171.79 4091.04 2192 4075.75 2192H3507.81C3503.53 2192 3499.45 2190.17 3496.61 2186.97L3386.23 2062.97C3377.62 2053.3 3384.49 2038 3397.43 2038Z" fill="#9DAA97"/>
<path d="M3398.4 1764H3612.73C3615.39 1764 3618.02 1764.71 3620.32 1766.06L3700.4 1813.06C3713.59 1820.8 3708.1 1841 3692.81 1841H3440.19C3435.9 1841 3431.82 1839.17 3428.98 1835.97L3387.19 1788.97C3378.59 1779.29 3385.46 1764 3398.4 1764Z" fill="#9DAA97"/>
<path d="M3731.4 1893H3945.73C3948.39 1893 3951.02 1893.71 3953.32 1895.06L4033.4 1942.06C4046.59 1949.8 4041.1 1970 4025.81 1970H3773.19C3768.9 1970 3764.82 1968.17 3761.98 1964.97L3720.19 1917.97C3711.59 1908.29 3718.46 1893 3731.4 1893Z" fill="#9DAA97"/>
<path d="M2700.76 1756H2350.71C2341.11 1756 2333.98 1764.89 2336.07 1774.26L2347.86 1827.26C2349.39 1834.12 2355.48 1839 2362.51 1839H2743.59C2756.2 1839 2763.19 1824.38 2755.26 1814.57L2712.43 1761.57C2709.58 1758.05 2705.29 1756 2700.76 1756Z" fill="#9DAA97"/>
<path d="M2809.17 2044H2399.71C2390.11 2044 2382.98 2052.89 2385.07 2062.26L2399.78 2128.26C2401.31 2135.12 2407.4 2140 2414.42 2140H2862.57C2875.19 2140 2882.17 2125.37 2874.23 2115.57L2820.83 2049.57C2817.98 2046.05 2813.7 2044 2809.17 2044Z" fill="#9DAA97"/>
<path d="M0 0H3840V1929H0V0Z" fill="#687F5E"/>
<path d="M-1393.53 2145.05C-1423.42 1885.59 -1410.97 1771.98 -1423.89 1518.79C-1429.28 1413.12 -1433.62 1200.72 -1423.89 1137C-1410.18 1047.23 -1387.61 870.277 -1345.97 790.364C-1255.42 616.572 -1060.41 411.128 -862.595 267.859C-816.392 167.985 -839.334 91.2415 -827.925 -18.9584C-819.531 -100.109 -829.46 -180.21 -827.925 -257.752C-826.39 -335.293 -767.465 -574.366 -694.517 -575.272L-117.653 -580.996C-21.6525 -582.189 57.9055 -323.817 61.2936 -224.043C63.6169 -155.533 68.3049 -87.1234 75.3577 -18.9584C86.7527 91.2415 109.76 321.017 180.245 362.908C440.313 517.471 478.365 578.381 568.917 752.173C610.556 832.087 675.178 1074.05 681.872 1164.67C687.265 1237.61 706.238 1399.63 710.249 1472.67C724.437 1730.9 697.83 1889.5 724.437 2145.88L-1393.55 2145.05H-1393.53Z" fill="#B57E6B"/>
<path d="M-1405.99 2145.05C-1418.96 2031.8 -1425.72 1918.33 -1428.1 1804.34C-1430.48 1690.34 -1433.81 1588.11 -1438.09 1479.96C-1441.79 1386.39 -1444.19 1292.32 -1440.89 1198.7C-1439.66 1163.84 -1435.65 1133.04 -1430.59 1098.87C-1423.36 1050.06 -1415.84 1001.28 -1406.24 952.921C-1397.14 907.075 -1387.09 860.093 -1369.27 816.908C-1349.47 768.905 -1318.22 724.698 -1287.67 683.569C-1220.64 593.315 -1065.01 495.248 -992.72 430.843C-939.487 399.298 -861.883 321.576 -846.394 266.656C-830.076 208.831 -826.162 147.899 -822.982 88.0176C-819.621 24.7421 -813.536 -38.0443 -808.627 -101.176C-806.041 -134.396 -804.05 -167.673 -802.681 -200.964C-801.505 -229.668 -804.008 -343.24 -796.707 -371.182C-784.814 -416.712 -748.554 -451.743 -704.315 -461.537C-690.376 -464.628 -675.994 -464.154 -661.805 -464.341C-609.31 -465.002 -556.802 -465.649 -504.307 -466.311C-439.269 -467.116 -269.081 -467.936 -204.029 -468.741C-169.429 -469.173 -133.571 -472.365 -99.012 -469.043C-54.939 -464.801 -13.2999 -440.282 13.7356 -403.999C27.537 -385.462 37.4247 -280.921 42.8595 -258.2C49.774 -229.28 48.3081 -198.505 49.8569 -168.924C56.7576 -37.3397 67.24 138.407 106.625 264.412C142.138 378.006 313.419 432.97 387.086 523.008C456.908 608.343 534.005 691.622 583.485 792.274C601.214 828.326 613.494 867.471 625.11 906.011C639.229 952.878 651.468 1000.39 661.881 1048.28C670.22 1086.61 678.061 1125.46 681.2 1164.68C684.63 1207.61 689.013 1250.45 693.342 1293.27C703.866 1397.4 712.744 1500.84 713.85 1605.65C715.081 1722.8 709.453 1839.91 712.039 1957.05C713.435 2020.15 717.335 2083.12 723.78 2145.88L737.608 2131.5C721.664 2131.5 705.719 2131.48 689.774 2131.47C646.379 2131.46 602.984 2131.43 559.588 2131.41C495.408 2131.38 431.214 2131.35 367.034 2131.33C288.72 2131.28 52.6802 2131.25 -25.6333 2131.21C-111.414 2131.17 -197.196 2131.12 -282.977 2131.1C-369.574 2131.05 -456.157 2131.01 -542.754 2130.98C-623.501 2130.94 -704.235 2130.91 -784.982 2130.87C-853.214 2130.84 -921.446 2130.81 -989.678 2130.77C-1038.74 2130.74 -1298.1 2130.72 -1347.16 2130.69C-1370.35 2130.69 -1393.66 2129.96 -1416.85 2130.66C-1417.84 2130.69 -1418.82 2130.66 -1419.82 2130.66C-1437.62 2130.66 -1437.65 2159.41 -1419.82 2159.43C-1403.87 2159.43 -1387.93 2159.44 -1371.99 2159.46C-1328.59 2159.47 -1074.89 2159.5 -1031.5 2159.51C-967.317 2159.54 -903.123 2159.57 -838.943 2159.6C-760.629 2159.64 -682.316 2159.67 -604.002 2159.71C-518.221 2159.76 -432.44 2159.8 -346.659 2159.83C-260.062 2159.87 -173.479 2159.92 -86.8817 2159.94C-6.1344 2159.99 74.599 2160.02 155.346 2160.06C223.578 2160.09 449.537 2160.12 517.769 2160.16C566.835 2160.19 615.886 2160.2 664.951 2160.23C688.142 2160.23 711.444 2160.96 734.635 2160.26C735.631 2160.23 736.613 2160.26 737.608 2160.26C744.495 2160.26 752.24 2153.65 751.438 2145.88C738.77 2022.55 738.176 1899.12 740.25 1775.27C742.2 1659.21 743.735 1542.79 733.916 1427.04C726.186 1335.92 717.183 1244.72 707.904 1153.76C698.625 1062.93 674.811 972.091 647.831 885.403C635.841 846.892 622.953 807.805 604.505 772.04C578.271 721.161 545.082 674.351 510.302 629.512C440.258 539.229 372.931 459.76 294.724 397.463C263.179 372.335 245.401 356.341 198.117 306.087C131.286 235.06 98.5056 67.4034 90.431 -7.48523C82.8528 -77.7929 77.9988 -148.345 75.3298 -219.041C73.4491 -268.914 57.0894 -398.491 24.1903 -435.392C-7.47803 -470.927 -51.1222 -492.743 -97.3248 -497.647C-111.085 -499.114 -125.01 -498.495 -138.826 -498.323C-192.772 -497.647 -299.309 -496.971 -353.255 -496.295C-418.556 -495.475 -536.432 -494.67 -601.732 -493.85C-622.78 -493.591 -643.814 -493.318 -664.861 -493.059C-682.244 -492.844 -699.378 -492.57 -716.443 -488.098C-761.36 -476.349 -798.961 -442.194 -816.869 -397.93C-826.895 -373.181 -828.306 -265.304 -829.025 -238.786C-829.938 -204.833 -831.5 -170.908 -833.699 -137.027C-837.903 -72.0549 -845.647 -7.45645 -849.036 57.5878C-852.258 119.54 -854.304 182.284 -868.797 242.755C-882.322 299.128 -949.659 351.518 -992.72 391.411C-1032.15 427.942 -1167.45 491.054 -1204.32 535.577C-1241.19 580.099 -1276.76 622.134 -1310.43 667.592C-1341.93 710.102 -1373.8 755.401 -1394.18 805C-1412.1 848.646 -1422.82 895.326 -1432.14 941.647C-1442.1 991.203 -1449.81 1041.2 -1457.23 1091.22C-1462.27 1125.28 -1466.96 1158.72 -1468.32 1193.2C-1470.16 1239.92 -1469.99 1286.74 -1469.44 1333.49C-1468.21 1437.37 -1461.94 1540.95 -1459.04 1644.77C-1456.07 1751 -1456.15 1857.33 -1449.76 1963.44C-1446.11 2024.13 -1440.52 2084.66 -1433.61 2145.05C-1431.53 2163.19 -1403.85 2163.42 -1405.95 2145.05H-1405.99Z" fill="#915E50"/>
<path d="M-1018.77 1601.95C-1059.71 1602.57 -1081.59 1572.93 -1089.11 1538.97C-1127.53 1365.78 -1115.68 1161.53 -1051.15 995.543C-978.871 809.621 -778.954 659.097 -594.679 593.666C-392.561 521.892 -165.962 587.265 18.4976 698.393C73.7097 731.662 127.054 769.304 171.209 816.899C254.878 907.084 363.971 1038.39 400.175 1157.26C436.953 1278.02 430.629 1345.44 452.003 1470.04C457.957 1504.74 490.205 1582.82 356.63 1581L-1018.79 1601.95H-1018.77Z" fill="#99624A"/>
<path d="M-844.124 1587.93C-859.046 1587.93 -868.574 1578.18 -875.309 1563.92C-883.841 1545.87 -885.39 1524.12 -888.087 1504.51C-894.476 1458.09 -897.822 1411.18 -898.901 1364.33C-901.1 1268.84 -893.729 1172.74 -874.548 1079.27C-865.545 1035.37 -854.344 991.648 -837.957 950.058C-822.316 910.382 -801.918 872.589 -778.617 837.255C-733.88 769.378 -676.766 709.353 -612.019 662.04C-582.384 640.382 -550.95 621.055 -517.858 605.653C-480.589 588.295 -439.738 579.437 -398.984 578.603C-314.115 576.877 -231.723 608.371 -159.217 652.261C-81.9548 699.027 -10.6111 759.57 41.4688 835.587C91.7647 908.972 138.908 985.924 173.508 1068.77C207.306 1149.71 220.568 1237.01 228.021 1324.36C231.824 1368.98 235.13 1413.64 240.523 1458.09C242.03 1470.46 243.939 1482.69 245.806 1494.99C246.027 1496.41 246.926 1503.27 246.469 1499.46C246.76 1501.96 247.05 1504.47 247.271 1506.98C247.728 1512.28 247.935 1517.6 247.741 1522.9C247.658 1525.28 247.465 1527.63 247.23 1530.01C247.617 1526.24 247.202 1530.12 247.022 1531.03C246.746 1532.44 246.483 1533.85 246.151 1535.26C245.557 1537.7 244.81 1540.06 243.952 1542.42C243.399 1543.94 244.312 1541.53 244.34 1541.45C244.049 1542.1 243.773 1542.76 243.441 1543.4C242.777 1544.66 242.141 1545.93 241.408 1547.16C241.117 1547.65 239.016 1550.79 240.08 1549.29C241.145 1547.8 238.711 1550.9 238.407 1551.25C237.66 1552.08 236.872 1552.9 236.07 1553.68C235.475 1554.25 232.212 1556.87 234.452 1555.2C232.115 1556.96 229.639 1558.42 227.109 1559.83C225.283 1560.85 225.062 1560.87 224.924 1560.93C223.154 1561.66 221.342 1562.29 219.517 1562.88C206.974 1566.86 194.514 1566.81 181.335 1567.08C165.418 1567.41 149.487 1567.73 133.57 1568.06C102.164 1568.69 70.7446 1569.34 39.3391 1569.97C-3.47546 1570.85 -46.3038 1571.71 -89.1183 1572.59C-138.861 1573.6 -188.604 1574.62 -238.347 1575.62C-290.648 1576.69 -342.935 1577.75 -395.236 1578.82C-445.712 1579.84 -496.188 1580.87 -546.65 1581.89C-590.93 1582.8 -635.196 1583.69 -679.477 1584.6C-713.178 1585.29 -746.893 1585.96 -780.594 1586.65C-799.36 1587.04 -818.112 1587.41 -836.878 1587.8L-844.111 1587.95C-861.881 1588.31 -861.95 1617.07 -844.111 1616.71C-833.697 1616.49 -823.284 1616.29 -812.871 1616.08C-784.895 1615.5 -756.933 1614.94 -728.957 1614.36C-687.843 1613.53 -646.716 1612.7 -605.602 1611.85C-556.316 1610.84 -507.016 1609.83 -457.729 1608.84C-404.488 1607.76 -351.26 1606.67 -298.019 1605.59C-244.777 1604.51 -193.389 1603.46 -141.074 1602.4C-94.5253 1601.45 -47.9909 1600.5 -1.44257 1599.55C35.0797 1598.8 71.602 1598.07 108.124 1597.32C129.684 1596.88 151.243 1596.45 172.802 1596C202.009 1595.41 234.092 1595.9 256.454 1573.21C273.408 1556.02 276.934 1530.47 274.929 1506.98C274.017 1496.21 272.205 1485.57 270.476 1474.91C267.531 1456.69 265.692 1437.22 263.769 1418.1C259.441 1374.82 256.786 1331.38 252.305 1288.12C247.52 1241.86 240.357 1195.83 229.709 1150.6C208.26 1059.58 162.887 974.836 114.583 896.519C91.4328 858.985 67.4949 821.192 40.4316 786.563C10.8514 748.699 -24.3019 716.227 -61.3497 686.502C-132.514 629.41 -213.745 581.81 -301.974 560.828C-343.903 550.862 -387.506 546.936 -430.334 551.998C-472.9 557.031 -512.893 570.42 -551.116 590.38C-621.367 627.08 -684.732 679.124 -738.084 738.963C-796.166 804.108 -843.35 880.168 -872.584 963.835C-887.769 1007.32 -898.154 1052.82 -906.355 1098.25C-915.15 1147.02 -920.972 1196.4 -924.153 1245.9C-930.376 1343.06 -926.448 1441.18 -911.029 1537.27C-905 1574.85 -886.455 1616.74 -844.124 1616.72C-826.327 1616.72 -826.299 1587.96 -844.124 1587.96V1587.93Z" fill="#99624A"/>
<path d="M-948.18 1354.66C-951.112 1440.06 -949.466 1525.62 -943.285 1610.83C-942.538 1621.07 -941.57 1631.83 -936.011 1640.31C-930.285 1649.07 -920.564 1654.03 -910.939 1657.51C-865.234 1674.05 -815.187 1665.52 -767.145 1659.36C-464.678 1620.59 -156.582 1684.09 145.995 1646.25C184.924 1641.37 231.279 1628.23 241.913 1588.98C244.762 1578.47 244.471 1567.34 244.043 1556.41C241.443 1490.72 234.473 1425.22 223.202 1360.53C220.437 1344.63 216.731 1327.54 204.976 1316.97C192.889 1306.11 175.548 1305.05 159.589 1304.56C-180.271 1294.09 -577.495 1285.48 -916.733 1309.19L-948.166 1354.65L-948.18 1354.66Z" fill="#7C4D3D"/>
<path d="M-962.006 1354.66C-963.901 1411.12 -963.887 1467.64 -961.826 1524.1C-960.789 1552.56 -959.268 1581 -957.208 1609.4C-956.309 1621.77 -955.244 1634.59 -949.145 1645.57C-943.047 1656.56 -932.149 1664.04 -920.754 1668.91C-872.975 1689.38 -819.236 1680.49 -769.659 1674.07C-717.455 1667.32 -664.932 1663.55 -612.355 1661.84C-505.484 1658.37 -398.573 1663.23 -291.799 1667.62C-185.51 1671.98 -79.0405 1675.92 27.2905 1670.72C53.5793 1669.44 79.8405 1667.59 106.046 1665.06C129.182 1662.81 152.705 1660.9 175.44 1655.64C213.94 1646.74 252.149 1624.81 257.418 1580.37C258.967 1567.33 257.847 1554.01 257.183 1540.94C256.519 1527.87 255.634 1513.74 254.583 1500.17C252.371 1471.74 249.301 1443.39 245.525 1415.13C243.658 1401.19 241.598 1387.25 239.344 1373.36C237.38 1361.26 235.748 1348.85 232.18 1337.12C224.865 1313.12 208.422 1296.55 184.166 1292.41C159.91 1288.27 136.664 1289.49 113.21 1288.78C89.4377 1288.08 65.652 1287.39 41.88 1286.74C-7.25433 1285.39 -56.3887 1284.17 -105.537 1283.13C-206.848 1281 -308.187 1279.65 -409.525 1279.64C-509.91 1279.64 -610.322 1280.92 -710.651 1284.34C-759.149 1286 -807.647 1288.14 -856.09 1290.94C-867.637 1291.6 -879.185 1292.32 -890.718 1293.06C-896.637 1293.44 -902.569 1293.83 -908.488 1294.24C-916.467 1294.78 -923.479 1294.65 -928.692 1301.93C-934.182 1309.61 -939.437 1317.47 -944.817 1325.24C-950.196 1333.01 -955.036 1340.01 -960.139 1347.39C-964.509 1353.7 -961.19 1363.41 -955.175 1367.06C-948.205 1371.3 -940.627 1368.22 -936.257 1361.9C-925.774 1346.74 -915.292 1331.6 -904.823 1316.44L-916.758 1323.56C-827.768 1317.36 -738.641 1313.55 -649.499 1311.26C-556.735 1308.87 -463.942 1308.14 -371.15 1308.46C-278.427 1308.77 -185.703 1310.14 -92.994 1312.15C-48.036 1313.13 -3.078 1314.25 41.88 1315.49C64.0616 1316.09 86.2433 1316.74 108.411 1317.39C129.445 1318.01 150.714 1317.79 171.692 1319.56C180.087 1320.26 189.38 1321.96 195.948 1327.87C202.517 1333.78 205.2 1342.78 207.219 1351.23C212.917 1375.03 215.793 1399.91 219.015 1424.17C222.237 1448.43 224.934 1474.77 226.898 1500.15C228.792 1524.46 231.641 1549.7 230.3 1574.09C228.322 1610.01 192.007 1623.08 162.496 1629.08C142.209 1633.2 121.355 1634.83 100.695 1636.76C76.2588 1639.03 51.7815 1640.71 27.2766 1641.92C-70.5357 1646.71 -168.514 1643.75 -266.299 1639.85C-364.221 1635.95 -462.158 1631.08 -560.178 1631.97C-608.787 1632.41 -657.409 1634.3 -705.866 1638.44C-730.164 1640.51 -754.378 1643.26 -778.551 1646.44C-801.867 1649.5 -825.279 1652.62 -848.816 1652.71C-869.933 1652.78 -892.599 1650.71 -912.125 1641.65C-921.349 1637.38 -926.424 1631.57 -928.333 1621.18C-930.407 1609.95 -930.366 1598.02 -931.071 1586.63C-934.293 1534.98 -935.856 1483.24 -935.745 1431.5C-935.69 1405.86 -935.206 1380.23 -934.348 1354.62C-933.726 1336.11 -961.384 1336.13 -962.006 1354.62V1354.66Z" fill="#7C4D3D"/>
<path d="M3.38194 596.122C-22.6165 561.35 7.82104 413.4 24.3881 323.678C28.7857 299.864 37.8437 273.935 58.9467 263.624C71.213 257.627 85.4154 258.102 98.9125 259.468C141.464 263.739 183.297 275.546 222.087 294.226C251.626 308.449 281.607 329.56 290.568 362.104C295.035 378.354 296.349 387.443 292.85 403.952C282.934 450.646 274.167 453.537 251.64 499.397C236.607 530 215.297 570.798 195.397 598.251C187.971 608.504 167.089 641.939 142.377 648.799C106.643 658.707 26.0753 626.495 3.36809 596.137L3.38194 596.122Z" fill="#DBA189"/>
<path d="M15.3277 588.859C14.2076 587.32 13.2949 585.695 12.396 583.998C12.1471 583.523 10.9992 580.69 11.746 582.646C12.4927 584.602 11.1652 580.762 10.9301 579.986C10.2248 577.642 9.65781 575.24 9.1738 572.824C8.93871 571.616 8.73123 570.408 8.52379 569.2C8.41316 568.567 8.33024 567.949 8.23344 567.316C7.90154 565.073 8.48236 569.574 8.23344 567.244C6.71225 553.223 6.9058 539.058 7.65256 524.994C9.51947 489.933 14.899 455.117 20.7486 420.575C23.7772 402.656 27.0408 384.781 30.3598 366.92C33.416 350.483 35.8913 333.729 39.8464 317.493C43.5526 302.25 49.7756 284.461 64.1992 276.925C72.6349 272.51 82.5226 272.654 91.7189 273.229C102.505 273.891 113.251 275.43 123.885 277.357C164.694 284.763 207.412 298.237 242.275 322.124C255.869 331.443 268.882 343.796 275.243 359.744C278.576 368.114 281.024 378.08 281.024 387.183C281.024 396.933 278.244 406.654 275.755 415.987C271.8 430.785 267.015 441.484 259.533 454.959C250.42 471.382 241.86 487.992 233.41 504.789C216.318 538.742 197.746 571.616 175.522 602.233C167.557 613.205 156.259 627.486 142.858 633.468C140.494 634.518 137.783 635.179 135.156 635.726C132.528 636.272 136.414 635.726 133.704 635.927C131.864 636.071 130.025 636.186 128.172 636.215C121.382 636.315 114.786 635.596 109.143 634.546C79.9642 629.168 48.4757 616.614 25.4367 598.364C21.6337 595.344 16.6691 590.513 13.1704 585.939C8.51003 579.871 -1.51599 580.877 -6.38379 585.939C-12.1505 591.936 -11.058 600.191 -6.38379 606.274C2.9646 618.454 16.3925 627.529 29.3917 634.978C45.4057 644.167 62.6504 651.516 80.1855 656.894C96.0058 661.755 113.016 665.48 129.596 664.919C148.169 664.3 163.546 656.19 177.154 643.29C188.867 632.174 197.981 618.641 207.357 605.469C220.204 587.421 231.419 568.222 241.998 548.664C252.785 528.718 262.368 508.096 273.113 488.121C281.079 473.309 289.819 459.029 296.028 443.282C303.344 424.731 310.217 401.995 308.46 381.833C306.469 358.982 297.978 337.727 283.222 320.643C269.891 305.212 252.398 293.621 234.627 284.518C212.971 273.431 190.098 264.529 166.824 257.885C143.149 251.112 118.644 246.524 94.1528 244.611C71.3212 242.843 48.3098 247.746 33.0149 266.744C20.0572 282.821 14.1937 302.997 10.446 323.26C7.05795 341.538 3.58688 359.787 0.254101 378.065C-6.99228 417.857 -13.8099 457.835 -17.8618 498.13C-20.7659 526.993 -24.4444 560.485 -15.4003 588.629C-13.7408 593.763 -11.6803 598.997 -8.5411 603.355C-4.06052 609.553 3.40711 612.76 10.3769 608.517C16.2542 604.951 19.8498 595.086 15.3415 588.844L15.3277 588.859Z" fill="#BA7556"/>
<path d="M194.444 670.578C187.349 627.148 281.469 511.771 336.882 440.874C351.596 422.049 371.371 403.671 394.659 404.965C408.198 405.713 420.492 413.133 431.762 420.956C467.303 445.648 498.791 476.639 524.472 512.174C544.026 539.238 560.842 572.587 553.928 605.663C550.47 622.172 547.497 630.83 536.904 643.643C506.923 679.897 497.893 678.128 457.18 707.465C430.02 727.037 392.682 752.505 362.659 766.886C351.444 772.265 317.853 791.463 292.961 785.337C256.964 776.493 200.639 708.486 194.444 670.564V670.578Z" fill="#D38963"/>
<path d="M207.778 666.755C208.428 671.184 207.916 665.633 207.93 663.922C207.93 663.389 208.192 660.197 207.971 662.412C207.75 664.626 208.358 660.254 208.469 659.65C209.506 654.473 211.179 649.498 212.991 644.565C213.226 643.932 213.475 643.314 213.724 642.681C213.613 642.954 212.991 644.464 213.641 642.926C214.291 641.387 214.955 639.848 215.646 638.338C217.112 635.102 218.661 631.91 220.265 628.761C223.556 622.304 227.083 615.976 230.761 609.749C248.296 580.024 268.639 552.097 289.368 524.73C300.197 510.435 311.191 496.285 322.24 482.177C332.667 468.875 342.679 454.911 353.922 442.342C365.165 429.774 381.234 415.695 399.184 420.11C408.975 422.526 417.521 428.307 425.777 434.073C434.324 440.041 442.649 446.369 450.642 453.128C482.296 479.905 513.536 512.995 531.887 551.349C540.834 570.029 543.932 589.199 538.884 609.505C534.75 626.172 523.949 638.309 512.222 650.26C502.832 659.837 495.102 665.345 483.389 672.866C468.592 682.372 454.196 692.338 439.814 702.505C409.238 724.105 377.846 743.936 344.311 760.172C330.8 766.701 314.606 773.848 299.367 772.022C297.099 771.749 294.776 771.058 292.549 770.282C291.968 770.081 288.387 768.571 290.364 769.477C288.871 768.786 287.405 768.024 285.953 767.219C280.283 764.098 274.295 759.942 269.704 756.174C246.056 736.818 224.746 710.602 212.258 681.998C211.691 680.69 210.875 678.59 209.976 675.714C209.078 672.838 208.317 669.818 207.791 666.783C206.45 659.133 197.53 654.804 190.782 656.746C183.051 658.96 179.774 666.769 181.129 674.434C183.826 689.793 191.473 704.432 199.535 717.404C209.465 733.366 221.233 748.351 234.232 761.711C245.766 773.575 258.723 785.08 273.271 792.745C290.281 801.704 307.802 802.552 326.209 797.648C342.071 793.421 356.771 785.698 371.513 778.45C391.468 768.657 410.441 756.721 429.013 744.353C447.586 731.986 464.346 719.259 482.407 707.352C495.033 699.025 507.977 691.346 519.731 681.682C533.629 670.249 547.555 655.667 556.752 639.877C567.925 620.693 571.258 595.972 567.967 574.114C564.385 550.356 552.672 528.21 539.286 508.94C525.609 489.267 510.203 470.845 493.346 454.048C476.516 437.28 458.165 421.994 438.777 408.562C419.292 395.058 396.584 385.366 373.227 393.908C352.318 401.544 337.065 418.068 323.402 435.512C312.02 450.05 300.57 464.532 289.244 479.114C265.057 510.277 241.064 541.786 219.491 574.976C210.391 588.969 201.665 603.321 194.336 618.406C188.735 629.954 183.286 642.307 181.295 655.164C180.258 661.865 180.161 667.704 181.143 674.42C182.277 682.099 191.556 686.356 198.153 684.457C206.049 682.199 208.939 674.477 207.805 666.769L207.778 666.755Z" fill="#D38963"/>
<path d="M348.548 839.552C354.577 794.626 478.844 715.733 552.884 666.378C572.535 653.277 596.93 642.42 618.862 652.012C631.613 657.591 641.21 669.226 649.715 680.903C676.488 717.718 697.536 759.221 711.655 803.096C722.414 836.517 728.692 875.072 712.291 904.869C704.104 919.753 698.697 927.131 684.757 935.845C645.317 960.494 637.186 955.533 589.504 969.597C557.683 978.973 514.385 990.464 481.361 993.757C469.026 994.994 431.162 1001.69 409.105 986.811C377.215 965.297 343.293 878.768 348.548 839.552Z" fill="#DBA189"/>
<path d="M361.891 843.378C362.181 841.423 362.693 839.568 363.232 837.669C363.495 836.735 364.975 833.628 363.426 836.965C363.952 835.843 364.463 834.736 365.03 833.643C366.164 831.443 367.436 829.329 368.778 827.258C369.566 826.05 370.382 824.885 371.212 823.706C372.138 822.411 371.101 823.849 370.949 824.036C371.474 823.332 372.014 822.641 372.567 821.951C381.334 810.993 391.402 801.228 401.801 791.982C427.855 768.829 456.357 748.667 484.9 729.008C499.724 718.798 514.687 708.789 529.692 698.823C544.696 688.857 558.76 678.244 574.318 670.219C591.576 661.332 610.384 659.031 625.319 673.541C640.296 688.095 651.719 707.595 662.187 725.729C673.223 744.827 682.958 764.845 690.841 785.582C698.723 806.319 705.914 827.445 707.905 849.347C709.8 870.156 706.495 888.247 695.584 905.877C686.955 919.827 671.826 927.851 657.471 934.984C647.155 940.104 634.169 943.613 621.682 946.518C603.732 950.688 586.1 955.807 568.344 960.754C533.564 970.447 498.314 978.673 462.331 981.42C447.506 982.556 429.999 983.318 416.847 974.905C416.377 974.603 413.598 972.633 414.552 973.366C415.423 974.042 412.574 971.612 412.035 971.094C409.615 968.808 407.361 966.349 405.217 963.789C401.234 959.029 397.459 953.363 393.725 947.064C385.386 933.028 378.541 918 373.162 902.484C370.41 894.56 367.99 886.492 366.012 878.324C364.408 871.651 362.735 863.023 362.334 858.176C361.822 851.95 361.614 845.78 362.375 839.568C363.315 831.845 355.336 825.187 348.546 825.187C340.29 825.187 335.671 831.831 334.717 839.568C332.795 855.214 335.837 871.709 339.557 886.852C344.079 905.273 350.731 923.206 358.683 940.305C366.136 956.354 375.139 971.957 386.617 985.259C398.178 998.662 412.795 1006.63 429.943 1009.2C446.759 1011.73 463.216 1010.17 480.004 1008.28C501.66 1005.87 522.985 1001.85 544.184 996.721C565.896 991.472 587.22 984.742 608.835 979.119C623.59 975.279 638.775 972.762 653.198 967.643C670.885 961.359 689.057 951.91 703.549 939.6C718.941 926.528 730.198 905.043 733.946 884.925C742.907 836.835 722.855 785.783 702.858 743.346C692.541 721.458 680.427 700.477 666.681 680.732C652.935 660.987 637.599 640.25 613.634 635.36C589.502 630.428 565.937 640.768 545.885 653.969C530.632 664.007 515.434 674.131 500.25 684.298C467.655 706.114 435.24 728.347 404.526 752.966C381.459 771.475 354.285 792.499 340.608 820.096C338.174 825 336.003 830.278 335.187 835.757C334.039 843.422 337.068 851.23 344.84 853.445C351.409 855.315 360.688 851.115 361.849 843.407L361.891 843.378Z" fill="#EAC6B9"/>
<path d="M464.891 1056.46C485.51 1017.97 628.363 989.3 714.269 970.101C737.073 965.01 763.555 963.544 780.938 979.722C791.047 989.127 796.164 1002.9 800.244 1016.35C813.091 1058.74 818.982 1103.41 817.599 1147.83C816.548 1181.67 809.592 1218.62 784.271 1239.91C771.632 1250.54 764.109 1255.36 748.122 1258.45C702.915 1267.21 696.941 1259.95 647.53 1256.31C614.562 1253.88 570.116 1249.42 538.06 1241.09C526.084 1237.99 488.331 1231.07 472.594 1210.1C449.859 1179.77 446.886 1090.07 464.891 1056.47V1056.46Z" fill="#D38963"/>
<path d="M476.826 1063.72C477.296 1062.87 477.849 1062.07 478.347 1061.22C478.665 1060.69 476.425 1063.23 478.333 1061.31C479.924 1059.69 481.417 1058 483.091 1056.46C483.92 1055.7 486.161 1054.01 483.99 1055.65C484.889 1054.98 485.801 1054.3 486.714 1053.64C489.037 1052 491.43 1050.48 493.864 1049.02C506.061 1041.76 516.183 1037.68 529.266 1032.82C561.363 1020.92 594.594 1012.35 627.756 1004.36C644.82 1000.24 661.941 996.362 679.061 992.551C695.324 988.941 711.711 984.383 728.181 981.981C743.863 979.694 762.712 979.925 774.163 992.982C780.012 999.641 783.221 1008.56 785.89 1016.97C789.499 1028.36 792.514 1039.98 795.058 1051.67C800.175 1075.23 803.065 1099.18 803.771 1123.33C804.365 1143.72 804.033 1164.55 799.442 1184.48C795.28 1202.51 787.687 1218.69 773.582 1230.47C759.96 1241.83 744.942 1245.35 727.767 1247.25C713.633 1248.82 699.818 1247.88 685.768 1246.06C666.656 1243.58 647.517 1242.06 628.336 1240.35C593.114 1237.21 558.113 1232.29 523.928 1222.73C510.5 1218.98 495.426 1214.04 485.635 1203.75C483.395 1201.4 483.464 1201.55 481.5 1198.21C480.242 1196.07 478.154 1191.81 477.711 1190.75C475.706 1185.97 473.355 1177.66 471.931 1171.28C465.334 1141.85 464.491 1107.37 471.557 1078.69C472.318 1075.63 473.203 1072.62 474.199 1069.65C474.448 1068.88 475.664 1065.91 474.71 1068.12C475.36 1066.61 476.079 1065.15 476.826 1063.69C485.303 1047.41 461.434 1032.87 452.943 1049.18C445.448 1063.59 442.558 1079.81 440.774 1095.92C438.783 1113.95 438.907 1132.32 440.802 1150.37C442.641 1168 445.725 1185.47 452.418 1201.86C459.111 1218.26 470.41 1230.54 485.843 1238.62C500.225 1246.17 515.686 1250.4 531.285 1254.18C551.89 1259.19 572.619 1262.77 593.626 1265.43C616.07 1268.26 638.611 1269.6 661.111 1271.85C677.498 1273.49 693.886 1276.79 710.384 1276.96C728.831 1277.16 749.934 1274.96 767.124 1267.8C786.443 1259.73 803.743 1243.83 813.976 1225C835.978 1184.56 834.028 1131.25 828.746 1086.72C825.593 1060.13 820.448 1033.69 812.234 1008.27C804.766 985.159 792.79 965.688 770.056 956.815C750.087 949.02 727.614 952.443 707.355 956.944C689.889 960.827 672.409 964.638 654.971 968.578C617.577 977.034 580.156 985.893 543.579 997.642C515.976 1006.5 484.792 1016.39 462.776 1036.8C458.945 1040.35 455.516 1044.57 452.943 1049.18C444.01 1065.23 467.906 1079.73 476.826 1063.69V1063.72Z" fill="#BA7556"/>
<path d="M509.488 1313.57C532.071 1274.05 666.627 1285.04 753.39 1269.78C776.415 1265.74 802.953 1265.76 819.465 1283.91C829.062 1294.46 833.473 1309.36 836.848 1323.84C847.482 1369.49 851.064 1417.11 847.399 1464.08C844.606 1499.85 835.741 1538.55 809.37 1559.6C796.204 1570.11 788.433 1574.76 772.322 1577.09C726.728 1583.67 721.127 1575.63 671.993 1568.86C639.204 1564.35 595.048 1557 563.463 1546.28C551.667 1542.29 514.315 1532.74 499.698 1509.6C478.553 1476.13 489.782 1348.09 509.502 1313.59L509.488 1313.57Z" fill="#DBA189"/>
<path d="M521.421 1320.84C521.766 1320.25 523.661 1317.66 522.361 1319.28C521.061 1320.91 523.26 1318.38 523.73 1317.92C524.2 1317.46 526.662 1315.21 525.237 1316.42C523.813 1317.63 526.883 1315.26 527.574 1314.81C529.759 1313.37 532.055 1312.18 534.378 1311C537.13 1309.59 533.784 1311.13 536.038 1310.27C537.628 1309.66 539.205 1309.05 540.823 1308.48C554.085 1303.88 569.297 1301.24 582.171 1299.6C619.191 1294.89 656.557 1293.86 693.729 1291.03C712.592 1289.59 731.413 1287.73 750.124 1284.8C766.401 1282.25 785.291 1278.64 800.627 1287.03C819.31 1297.25 822.795 1322.74 826.667 1342.21C831.701 1367.58 834.398 1393.35 834.896 1419.26C835.352 1442.6 834.688 1466.5 830.263 1489.47C826.654 1508.2 820.652 1527.75 807.68 1541.87C801.554 1548.54 793.837 1554.65 785.775 1558.59C777.713 1562.54 769.056 1563.31 760.62 1564.17C751.742 1565.1 742.795 1565.48 733.875 1564.82C732.368 1564.71 730.874 1564.56 729.367 1564.4C728.385 1564.29 727.403 1564.17 726.421 1564.05C726.753 1564.09 728.053 1564.28 726.421 1564.02C722.604 1563.41 718.801 1562.68 714.998 1561.93C673.263 1553.71 630.849 1549.64 589.542 1539.01C574.773 1535.21 559.893 1530.65 545.621 1525.16C533.258 1520.4 517.535 1512.99 510.717 1500.81C510.178 1499.85 509.721 1498.83 509.224 1497.84C507.744 1494.92 509.652 1499.42 508.878 1496.94C508.007 1494.15 507.108 1491.41 506.416 1488.56C505.725 1485.71 505.116 1482.59 504.605 1479.59C503.83 1474.96 503.969 1475.86 503.498 1471.23C501.88 1455.13 501.839 1438.86 502.516 1422.7C503.802 1392.12 506.817 1361.98 516.442 1332.59C516.885 1331.25 517.341 1329.93 517.811 1328.6C518.06 1327.88 518.337 1327.18 518.613 1326.47C518.586 1326.56 517.604 1328.85 518.24 1327.4C519.208 1325.17 520.231 1322.98 521.421 1320.87C530.382 1304.83 506.485 1290.34 497.538 1306.36C490.955 1318.13 487.332 1331.81 484.428 1345C480.556 1362.63 478.136 1380.65 476.476 1398.64C473.448 1431.51 471.498 1468.27 480.805 1500.32C491.177 1536.03 526.012 1549.31 557.252 1559.37C600.633 1573.35 645.107 1578.05 689.608 1586.19C707.171 1589.4 724.665 1593.89 742.601 1593.96C763.912 1594.04 787.684 1591.87 806.035 1579.71C825.616 1566.73 839.459 1549.45 848.296 1527.17C857.133 1504.9 860.175 1481.03 861.682 1457.34C863.453 1429.31 862.65 1401.11 859.318 1373.24C855.985 1345.37 852.293 1316.97 841.063 1291.99C830.595 1268.71 809.81 1256.37 785.858 1253.79C765.585 1251.62 745.381 1257.13 725.508 1259.37C685.003 1263.95 644.208 1264.87 603.634 1268.56C585.587 1270.2 567.402 1272.24 549.673 1276.26C536.397 1279.26 522.223 1283.48 511.049 1291.8C505.628 1295.84 501.064 1300.4 497.524 1306.36C488.134 1322.15 512.045 1336.6 521.407 1320.87L521.421 1320.84Z" fill="#DBA189"/>
<path d="M503.525 1602.9C526.108 1563.38 661.161 1606.3 747.924 1591.05C770.95 1587.01 797.487 1587.03 813.999 1605.17C823.596 1615.73 828.008 1630.63 831.382 1645.11C842.017 1690.75 845.598 1738.38 841.934 1785.35C839.14 1821.12 830.276 1859.81 803.904 1880.87C790.739 1891.38 782.967 1896.03 766.856 1898.35C721.262 1904.94 727.195 1907.67 678.088 1909.69C645.064 1911.04 593.206 1912.35 561.621 1901.65C549.824 1897.65 512.472 1888.1 497.855 1864.96C476.711 1831.5 483.805 1637.43 503.511 1602.93L503.525 1602.9Z" fill="#DBA189"/>
<path d="M515.458 1610.16C517.353 1607 514.255 1610.98 515.845 1609.47C516.702 1608.67 517.518 1607.78 518.376 1606.96C516.163 1609.05 518.044 1607.27 519.33 1606.48C519.994 1606.06 523.603 1604.22 522.054 1604.93C520.312 1605.72 524.308 1604.11 524.82 1603.94C526.244 1603.46 527.683 1603.04 529.135 1602.68C530.476 1602.34 531.831 1602.05 533.187 1601.78C533.989 1601.62 534.805 1601.48 535.621 1601.33C539.714 1600.6 532.772 1601.62 537.045 1601.12C553.944 1599.15 571.12 1600.07 588.046 1601.22C629.948 1604.08 671.836 1610.02 713.917 1608.68C734.758 1608.02 755.556 1602.15 776.383 1603.43C785.15 1603.96 794.457 1606.44 801.303 1612.41C810.098 1620.09 813.79 1632.06 816.653 1643.2C823.789 1670.94 827.716 1699.63 829.016 1728.29C830.247 1755.22 829.97 1783.09 824.992 1809.64C820.954 1831.21 813.707 1853.34 797.209 1868.07C790.295 1874.25 782.246 1879.87 773.451 1882.36C762.609 1885.41 751.09 1886.22 740.04 1888.19C733.015 1889.44 726.004 1890.89 718.965 1892.04C718.108 1892.18 713.751 1892.83 716.683 1892.43C714.941 1892.67 713.184 1892.87 711.442 1893.08C707.155 1893.55 702.868 1893.91 698.567 1894.21C675.86 1895.78 652.973 1896.5 630.211 1896.1C593.993 1895.46 553.985 1890.3 522.995 1869.98C517.09 1866.11 511.973 1861.48 508.599 1855.51C508.142 1854.71 507.866 1853.83 507.451 1853.01C508.419 1854.95 508.35 1855.5 507.631 1853.21C506.912 1850.93 506.151 1848.45 505.556 1846.01C504.118 1840.2 503.164 1834.27 502.307 1828.35C501.989 1826.16 502.597 1830.73 502.307 1828.51C502.196 1827.67 502.099 1826.82 502.002 1825.99C501.795 1824.26 501.615 1822.52 501.435 1820.8C501.048 1816.9 500.716 1813.02 500.426 1809.11C497.881 1774.29 498.421 1739.14 500.495 1704.31C502.32 1673.68 503.51 1647.52 512.181 1618.47C512.775 1616.48 513.605 1614.53 514.172 1612.54C514.213 1612.36 512.706 1615.56 514.172 1612.65C514.6 1611.8 515.002 1610.95 515.458 1610.13C524.391 1594.08 500.509 1579.59 491.575 1595.62C486.113 1605.45 483.554 1617.11 481.452 1628.12C478.258 1644.81 476.308 1661.79 474.759 1678.72C471.302 1716.82 470.168 1755.37 471.883 1793.6C472.616 1810.1 473.93 1826.65 476.695 1842.92C478.728 1854.82 481.715 1866.73 488.948 1876.44C502.279 1894.36 523.548 1903.89 543.71 1910.82C562.836 1917.41 581.934 1921.68 602.069 1923.43C626.187 1925.53 650.47 1925.09 674.629 1924.14C694.322 1923.38 713.862 1922.1 733.278 1918.5C742.239 1916.85 751.186 1915.15 760.175 1913.73C772.691 1911.74 784.528 1910.04 795.868 1903.79C818.464 1891.31 834.312 1870.83 843.647 1846.4C853.286 1821.16 855.886 1793.24 856.867 1766.31C858.029 1734.23 855.761 1702.08 850.534 1670.45C846.053 1643.28 841.089 1609.29 819.336 1590.69C798.343 1572.76 770.796 1572.77 745.254 1576.97C702.688 1583.97 657.136 1578.28 613.837 1574.48C593.73 1572.71 573.512 1570.87 553.308 1571.28C537.515 1571.59 520.284 1572.94 506.192 1581.11C500.191 1584.59 495.198 1589.54 491.575 1595.61C482.158 1611.37 506.068 1625.84 515.458 1610.12V1610.16Z" fill="#DBA189"/>
<path d="M223.53 1950.23C237.553 1925.69 321.417 1952.34 375.294 1942.88C389.592 1940.37 406.071 1940.38 416.324 1951.65C422.284 1958.2 425.023 1967.45 427.119 1976.44C433.722 2004.79 435.946 2034.36 433.671 2063.53C431.936 2085.74 426.432 2109.77 410.056 2122.84C401.88 2129.37 397.054 2132.25 387.05 2133.7C358.738 2137.79 362.422 2139.49 331.928 2140.74C311.421 2141.58 279.219 2142.39 259.605 2135.75C252.28 2133.26 229.086 2127.33 220.009 2112.97C206.879 2092.19 211.284 1971.68 223.521 1950.25L223.53 1950.23Z" fill="#DBA189"/>
<path d="M230.937 1954.74C232.114 1952.78 230.19 1955.25 231.178 1954.31C231.71 1953.81 232.217 1953.26 232.749 1952.75C231.375 1954.05 232.543 1952.95 233.342 1952.45C233.754 1952.2 235.995 1951.05 235.033 1951.49C233.951 1951.98 236.433 1950.98 236.751 1950.87C237.635 1950.58 238.529 1950.32 239.43 1950.1C240.263 1949.88 241.105 1949.7 241.946 1949.53C242.444 1949.44 242.951 1949.35 243.458 1949.26C246 1948.8 241.689 1949.44 244.342 1949.12C254.836 1947.9 265.501 1948.47 276.012 1949.19C302.032 1950.96 328.043 1954.65 354.174 1953.82C367.115 1953.41 380.031 1949.77 392.963 1950.56C398.408 1950.89 404.187 1952.43 408.438 1956.13C413.899 1960.9 416.192 1968.34 417.97 1975.25C422.401 1992.48 424.84 2010.29 425.647 2028.09C426.411 2044.82 426.239 2062.12 423.148 2078.61C420.64 2092 416.141 2105.75 405.896 2114.89C401.602 2118.73 396.604 2122.22 391.143 2123.77C384.41 2125.66 377.257 2126.16 370.396 2127.38C366.033 2128.16 361.68 2129.06 357.309 2129.78C356.776 2129.87 354.071 2130.27 355.892 2130.02C354.81 2130.17 353.719 2130.3 352.637 2130.42C349.975 2130.71 347.313 2130.94 344.642 2131.13C330.542 2132.1 316.33 2132.55 302.195 2132.3C279.705 2131.9 254.862 2128.7 235.617 2116.08C231.951 2113.68 228.773 2110.8 226.678 2107.09C226.395 2106.59 226.223 2106.05 225.965 2105.54C226.566 2106.75 226.523 2107.09 226.077 2105.67C225.63 2104.25 225.158 2102.71 224.789 2101.19C223.896 2097.58 223.303 2093.91 222.771 2090.23C222.573 2088.87 222.951 2091.71 222.771 2090.32C222.702 2089.81 222.642 2089.28 222.582 2088.76C222.453 2087.69 222.341 2086.61 222.23 2085.54C221.989 2083.12 221.783 2080.71 221.603 2078.28C220.023 2056.66 220.358 2034.83 221.646 2013.2C222.779 1994.18 223.518 1977.94 228.902 1959.9C229.271 1958.66 229.787 1957.45 230.139 1956.21C230.165 1956.11 229.228 1958.09 230.139 1956.29C230.405 1955.76 230.654 1955.23 230.937 1954.72C236.485 1944.76 221.654 1935.75 216.107 1945.71C212.715 1951.81 211.126 1959.05 209.821 1965.89C207.837 1976.25 206.627 1986.8 205.665 1997.31C203.518 2020.97 202.814 2044.91 203.879 2068.65C204.334 2078.89 205.15 2089.17 206.867 2099.27C208.129 2106.67 209.984 2114.06 214.475 2120.09C222.754 2131.21 235.961 2137.14 248.481 2141.44C260.358 2145.53 272.217 2148.18 284.72 2149.27C299.696 2150.58 314.776 2150.3 329.778 2149.71C342.006 2149.24 354.14 2148.44 366.197 2146.21C371.761 2145.18 377.317 2144.13 382.899 2143.24C390.67 2142.01 398.021 2140.96 405.063 2137.07C419.095 2129.32 428.936 2116.61 434.732 2101.43C440.717 2085.76 442.332 2068.43 442.942 2051.7C443.663 2031.78 442.255 2011.82 439.009 1992.17C436.226 1975.31 433.143 1954.2 419.636 1942.65C406.6 1931.51 389.494 1931.52 373.633 1934.13C347.201 1938.48 318.915 1934.94 292.028 1932.58C279.542 1931.49 266.987 1930.34 254.441 1930.59C244.634 1930.79 233.934 1931.63 225.184 1936.7C221.457 1938.86 218.357 1941.93 216.107 1945.7C210.259 1955.49 225.107 1964.47 230.937 1954.71V1954.74Z" fill="#DBA189"/>
<path d="M157.755 1870.32C139.003 1911.16 100.89 1891.69 8.89986 1897.74C-12.9776 1899.18 -116.695 1904.27 -133.276 1887.18C-142.915 1877.25 -147.948 1862.65 -151.986 1848.41C-164.723 1803.52 -170.973 1756.19 -170.393 1709.11C-169.95 1673.24 -163.99 1634.07 -140.564 1611.43C-128.864 1600.14 -121.867 1595.02 -106.918 1591.7C-64.6011 1582.31 -70.3263 1579.95 -24.4418 1574.92C6.4245 1571.54 54.9227 1567.02 85.1666 1575.77C96.4649 1579.03 132.033 1586.25 147.134 1608.46C168.97 1640.55 174.115 1834.67 157.741 1870.32H157.755Z" fill="#D38963"/>
<path d="M145.816 1863.07C144.502 1865.87 143.009 1868.52 141.363 1871.12C139.994 1873.28 141.377 1871.13 141.681 1870.76C141.156 1871.42 140.63 1872.1 140.063 1872.72C139.054 1873.8 138.03 1874.82 136.965 1875.84C135.209 1877.52 137.228 1875.64 137.546 1875.41C137.035 1875.77 136.537 1876.18 136.011 1876.51C134.933 1877.16 133.854 1877.82 132.775 1878.45C129.567 1880.37 133.826 1878.28 131.71 1879C130.134 1879.53 128.571 1880.11 126.967 1880.55C125.626 1880.93 124.257 1881.23 122.888 1881.5C121.906 1881.7 117.992 1882.27 121.104 1881.86C117.48 1882.32 113.83 1882.57 110.179 1882.71C101.909 1883.04 93.6115 1882.84 85.3418 1882.65C62.3443 1882.12 39.3882 1881.7 16.4045 1882.91C3.28079 1883.6 -9.82912 1884.42 -22.9666 1884.8C-40.6954 1885.31 -58.4656 1885.42 -76.1943 1884.62C-84.7268 1884.24 -93.2455 1883.62 -101.736 1882.6C-104.945 1882.21 -101.667 1882.7 -104.737 1882.16C-106.397 1881.88 -108.042 1881.6 -109.688 1881.27C-112.786 1880.65 -115.87 1879.94 -118.884 1878.96C-119.562 1878.74 -123.724 1877.07 -121.636 1878.02C-119.548 1878.97 -122.853 1877.28 -123.268 1877.07C-125.882 1875.75 -123.628 1876.38 -123.24 1877.22C-124.167 1875.22 -126.781 1873.19 -128.025 1871.18C-134.94 1860.03 -138.162 1846.82 -141.453 1834.16C-149.059 1804.8 -153.885 1774.75 -155.697 1744.4C-158.325 1700.31 -160.454 1637.86 -118.677 1611.42C-110.089 1605.98 -99.1919 1604.73 -89.1797 1602.27C-81.2834 1600.34 -73.4423 1598.12 -65.5737 1596.09C-47.5683 1591.44 -29.0652 1589.63 -10.6312 1587.83C12.9887 1585.53 36.9681 1583.84 60.6709 1585.91C77.2657 1587.36 94.7594 1592.19 110.262 1598.52C118.31 1601.8 126.732 1606.41 132.9 1613.01C134.531 1614.77 135.665 1616.22 136.799 1618.32C137.228 1619.13 137.546 1620.06 138.016 1620.84C139.123 1622.65 137.588 1619.74 137.505 1619.51C137.781 1620.29 138.099 1621.04 138.376 1621.82C142.483 1633.81 144.751 1646.41 146.604 1658.96C146.881 1660.79 147.13 1662.61 147.379 1664.44C147.434 1664.86 147.752 1667.24 147.434 1664.84C147.558 1665.81 147.669 1666.76 147.793 1667.72C148.333 1672.18 148.831 1676.65 149.273 1681.12C150.172 1690.1 150.891 1699.1 151.472 1708.1C152.689 1726.67 153.353 1745.27 153.519 1763.88C153.671 1781.5 153.408 1799.13 152.371 1816.72C151.942 1823.94 151.389 1831.16 150.601 1838.35C150.518 1839.07 149.923 1843.97 150.158 1842.24C150.421 1840.27 149.799 1844.72 149.716 1845.24C149.287 1848.01 148.817 1850.79 148.25 1853.53C147.766 1855.86 147.226 1858.19 146.563 1860.46C146.286 1861.38 145.968 1862.29 145.691 1863.23C144.599 1866.88 146.507 1861.47 145.802 1863.01C142.663 1870.06 143.894 1878.51 150.767 1882.68C156.741 1886.32 166.532 1884.6 169.685 1877.52C174.94 1865.74 176.585 1852.9 178.051 1840.13C179.973 1823.42 180.706 1806.57 181.038 1789.75C181.799 1750.54 180.388 1711.05 175.949 1672.09C172.575 1642.44 170.155 1606.44 145.774 1586.64C129.788 1573.64 110.289 1567.71 90.9564 1562.45C66.9908 1555.92 42.071 1555.59 17.4554 1556.89C-7.14632 1558.19 -31.9969 1560.58 -56.2944 1564.75C-73.788 1567.76 -90.8391 1573.31 -108.153 1577.25C-132.852 1582.87 -153.802 1599.57 -166.262 1622.55C-178.722 1645.53 -183.065 1674.43 -184.033 1701.33C-185.208 1734.11 -182.484 1767.15 -177.118 1799.46C-174.463 1815.48 -171.006 1831.36 -166.76 1847C-162.985 1860.92 -158.753 1875.56 -150.719 1887.56C-145.076 1895.98 -139.005 1901.72 -129.865 1905.36C-123.545 1907.88 -116.838 1909.17 -110.158 1910.18C-91.1849 1913.04 -72.0041 1913.82 -52.851 1913.92C-15.0979 1914.12 22.5307 1910.39 60.2699 1910.87C78.9113 1911.1 97.7879 1912.62 116.402 1911.08C131.392 1909.85 145.802 1906.22 157.225 1895.5C162.48 1890.56 166.615 1884.14 169.699 1877.55C172.976 1870.57 171.524 1862 164.734 1857.88C158.649 1854.18 149.107 1856.04 145.816 1863.04V1863.07Z" fill="#BA7556"/>
<path d="M485.25 1625.14C473.113 1651.57 448.445 1638.97 388.905 1642.89C374.745 1643.82 307.615 1647.12 296.883 1636.06C290.645 1629.63 287.387 1620.18 284.773 1610.96C276.53 1581.91 272.484 1551.27 272.86 1520.8C273.146 1497.59 277.004 1472.23 292.167 1457.58C299.739 1450.27 304.268 1446.96 313.943 1444.81C341.333 1438.73 337.627 1437.21 367.325 1433.95C387.303 1431.76 418.693 1428.84 438.268 1434.5C445.581 1436.61 468.602 1441.28 478.376 1455.65C492.509 1476.43 495.839 1602.07 485.241 1625.14H485.25Z" fill="#D38963"/>
<path d="M477.518 1620.45C476.667 1622.27 475.701 1623.98 474.636 1625.67C473.75 1627.06 474.645 1625.67 474.842 1625.43C474.501 1625.86 474.161 1626.3 473.794 1626.7C473.141 1627.4 472.479 1628.06 471.789 1628.72C470.653 1629.81 471.959 1628.59 472.165 1628.44C471.834 1628.67 471.512 1628.94 471.172 1629.16C470.474 1629.57 469.775 1630 469.077 1630.41C467.001 1631.65 469.758 1630.3 468.388 1630.77C467.368 1631.11 466.356 1631.48 465.318 1631.77C464.45 1632.01 463.564 1632.21 462.678 1632.39C462.042 1632.52 459.509 1632.88 461.523 1632.62C459.178 1632.92 456.815 1633.07 454.452 1633.17C449.099 1633.38 443.729 1633.25 438.377 1633.13C423.492 1632.79 408.633 1632.52 393.757 1633.3C385.263 1633.74 376.778 1634.28 368.275 1634.52C356.8 1634.85 345.299 1634.92 333.824 1634.41C328.301 1634.15 322.788 1633.75 317.292 1633.09C315.215 1632.84 317.337 1633.16 315.35 1632.81C314.275 1632.63 313.21 1632.45 312.145 1632.24C310.14 1631.84 308.144 1631.37 306.193 1630.74C305.754 1630.6 303.06 1629.52 304.412 1630.13C305.763 1630.75 303.624 1629.65 303.356 1629.52C301.664 1628.66 303.123 1629.07 303.374 1629.61C302.774 1628.32 301.082 1627.01 300.277 1625.7C295.801 1618.49 293.716 1609.94 291.586 1601.74C286.663 1582.74 283.539 1563.29 282.366 1543.64C280.666 1515.11 279.287 1474.69 306.327 1457.58C311.886 1454.06 318.939 1453.25 325.419 1451.66C330.53 1450.41 335.605 1448.97 340.698 1447.65C352.352 1444.65 364.328 1443.47 376.259 1442.31C391.547 1440.82 407.067 1439.72 422.409 1441.06C433.149 1442 444.472 1445.13 454.506 1449.23C459.715 1451.35 465.166 1454.34 469.158 1458.61C470.214 1459.74 470.948 1460.68 471.682 1462.04C471.959 1462.56 472.165 1463.17 472.47 1463.67C473.186 1464.84 472.192 1462.96 472.138 1462.82C472.317 1463.32 472.523 1463.8 472.702 1464.3C475.361 1472.07 476.829 1480.22 478.028 1488.35C478.207 1489.53 478.368 1490.71 478.529 1491.89C478.565 1492.16 478.771 1493.71 478.565 1492.15C478.646 1492.78 478.717 1493.39 478.798 1494.02C479.147 1496.9 479.469 1499.8 479.755 1502.69C480.337 1508.5 480.803 1514.33 481.179 1520.15C481.966 1532.17 482.396 1544.21 482.503 1556.26C482.602 1567.66 482.432 1579.07 481.76 1590.45C481.483 1595.13 481.125 1599.8 480.615 1604.45C480.561 1604.92 480.176 1608.09 480.328 1606.98C480.498 1605.7 480.096 1608.58 480.042 1608.91C479.764 1610.71 479.46 1612.5 479.093 1614.28C478.78 1615.79 478.431 1617.3 478.001 1618.77C477.822 1619.36 477.616 1619.95 477.437 1620.56C476.73 1622.92 477.965 1619.42 477.509 1620.42C475.477 1624.98 476.274 1630.45 480.722 1633.15C484.589 1635.5 490.926 1634.39 492.967 1629.81C496.368 1622.18 497.433 1613.87 498.382 1605.61C499.626 1594.79 500.1 1583.88 500.315 1573C500.807 1547.62 499.895 1522.06 497.021 1496.85C494.837 1477.65 493.271 1454.35 477.491 1441.54C467.144 1433.12 454.524 1429.29 442.011 1425.88C426.499 1421.66 410.37 1421.44 394.438 1422.28C378.514 1423.13 362.43 1424.67 346.704 1427.37C335.381 1429.32 324.345 1432.91 313.139 1435.46C297.153 1439.1 283.593 1449.91 275.528 1464.78C267.463 1479.65 264.653 1498.36 264.026 1515.77C263.266 1536.99 265.029 1558.37 268.502 1579.28C270.22 1589.65 272.458 1599.93 275.206 1610.06C277.649 1619.07 280.388 1628.54 285.589 1636.3C289.24 1641.76 293.17 1645.47 299.086 1647.83C303.177 1649.46 307.518 1650.29 311.841 1650.95C324.121 1652.8 336.536 1653.3 348.932 1653.37C373.368 1653.5 397.723 1651.09 422.149 1651.39C434.214 1651.54 446.432 1652.53 458.48 1651.53C468.182 1650.73 477.509 1648.39 484.902 1641.44C488.303 1638.25 490.98 1634.09 492.976 1629.83C495.097 1625.31 494.157 1619.76 489.762 1617.09C485.824 1614.7 479.648 1615.9 477.518 1620.43V1620.45Z" fill="#BA7556"/>
<path d="M203.596 973.403C182.128 974.346 177.054 950.754 144.847 907.017C137.188 896.615 101.529 846.87 102.562 834.462C103.165 827.248 107.02 821.14 111.063 815.61C123.812 798.171 139.586 783.317 157.491 771.884C171.13 763.174 187.808 756.356 203.947 762.244C212.001 765.188 216.204 767.355 222.318 773.881C239.619 792.357 238.643 788.954 255.466 810.269C266.78 824.609 284.258 847.338 290.808 864.389C293.255 870.759 302.111 890.049 298.669 903.003C293.696 921.732 222.333 972.577 203.592 973.397L203.596 973.403Z" fill="#D38963"/>
<path d="M202.432 965.727C200.949 965.779 199.468 965.703 197.953 965.542C196.696 965.405 197.952 965.552 198.192 965.609C197.772 965.515 197.346 965.425 196.929 965.3C196.195 965.071 195.478 964.822 194.747 964.553C193.543 964.108 194.909 964.632 195.099 964.731C194.797 964.569 194.478 964.428 194.182 964.252C193.588 963.882 192.988 963.516 192.399 963.143C190.636 962.041 192.806 963.617 191.847 962.756C191.134 962.113 190.409 961.487 189.72 960.809C189.142 960.242 188.583 959.644 188.035 959.039C187.64 958.606 186.156 956.821 187.319 958.251C185.967 956.584 184.688 954.849 183.446 953.089C180.631 949.104 178.007 944.973 175.387 940.859C168.105 929.415 160.793 918.021 152.861 907.017C148.331 900.735 143.757 894.491 139.342 888.122C133.38 879.531 127.56 870.816 122.09 861.9C119.46 857.607 116.921 853.263 114.543 848.833C113.645 847.158 114.527 848.892 113.729 847.249C113.297 846.362 112.864 845.484 112.453 844.592C111.678 842.915 110.945 841.219 110.333 839.493C110.193 839.106 109.467 836.644 109.789 837.907C110.111 839.17 109.674 837.122 109.615 836.868C109.263 835.253 109.758 836.519 109.57 836.917C110.021 835.964 109.933 834.174 110.286 833.061C112.23 826.886 116.154 822.012 119.845 817.243C128.42 806.193 138.153 796.342 148.986 787.895C164.722 775.628 187.523 759.039 211.066 773.005C215.906 775.875 219.922 780.924 224.105 785.236C227.399 788.64 230.788 791.942 234.111 795.307C241.717 803.007 248.419 811.656 255.093 820.275C263.643 831.32 272.083 842.691 279.016 854.865C283.869 863.388 287.742 873.195 290.405 882.394C291.79 887.169 292.793 892.46 292.316 897.137C292.187 898.376 292.009 899.295 291.588 900.375C291.424 900.787 291.176 901.176 291.037 901.6C290.715 902.595 291.309 901.117 291.368 901.019C291.166 901.349 290.988 901.691 290.786 902.021C287.61 907.026 283.607 911.277 279.486 915.313C278.889 915.904 278.283 916.481 277.677 917.058C277.538 917.189 276.743 917.939 277.543 917.185C277.221 917.486 276.9 917.777 276.578 918.078C275.076 919.453 273.555 920.811 272.016 922.142C268.932 924.817 265.779 927.412 262.581 929.938C255.991 935.157 249.205 940.116 242.257 944.829C235.679 949.288 228.959 953.547 222.004 957.415C219.148 959.001 216.252 960.526 213.29 961.928C212.992 962.066 210.954 962.994 211.68 962.68C212.506 962.319 210.632 963.119 210.41 963.207C209.226 963.687 208.029 964.146 206.811 964.551C205.777 964.893 204.725 965.208 203.654 965.447C203.218 965.54 202.773 965.609 202.332 965.705C200.602 966.077 203.257 965.67 202.449 965.706C198.776 965.916 195.995 968.626 196.662 973.045C197.237 976.888 201.071 981.274 204.759 981.064C210.901 980.717 216.268 978.33 221.55 975.873C228.463 972.659 235.043 968.824 241.477 964.803C256.48 955.416 270.879 944.894 284.094 933.014C294.153 923.974 306.91 913.824 306.428 896.904C306.119 885.806 302.004 874.741 297.695 863.922C292.354 850.51 284.371 838.171 275.875 826.387C267.379 814.612 258.395 802.984 248.921 792.072C242.099 784.216 234.462 777.211 227.347 769.676C217.195 758.928 204.097 752.779 191.396 752.371C178.696 751.962 166.407 757.021 155.973 763.238C143.254 770.821 131.711 780.383 121.298 791.065C116.134 796.358 111.285 802.01 106.779 807.993C102.77 813.314 98.6382 819.039 96.7395 825.976C95.4044 830.849 95.2206 835.263 96.8256 840.664C97.9348 844.399 99.6299 848.02 101.424 851.556C106.52 861.6 112.469 871.227 118.662 880.672C130.869 899.291 144.513 916.871 156.613 935.55C162.592 944.776 168.16 954.44 174.795 963.212C180.137 970.277 186.189 976.462 193.942 979.41C197.508 980.767 201.272 981.201 204.753 981.078C208.444 980.954 211.196 978.107 210.54 973.74C209.951 969.827 206.149 965.596 202.443 965.72L202.432 965.727Z" fill="#BA7556"/>
<path d="M521.708 2125.47C544.291 2149.5 679.345 2123.4 766.108 2132.67C789.133 2135.13 815.671 2135.12 832.183 2124.09C841.78 2117.67 846.191 2108.61 849.566 2099.81C860.2 2072.06 863.782 2043.1 860.117 2014.55C857.324 1992.81 848.459 1969.26 822.088 1956.48C808.922 1950.1 801.151 1947.26 785.04 1945.85C739.446 1941.84 745.378 1940.19 696.272 1938.96C663.248 1938.14 611.389 1937.34 579.804 1943.85C568.008 1946.28 530.656 1952.09 516.039 1966.16C494.894 1986.51 501.988 2104.5 521.695 2125.48L521.708 2125.47Z" fill="#D38963"/>
<path d="M511.93 2135.64C519.467 2143.29 530.073 2146.36 540.224 2147.93C554.73 2150.18 569.348 2150.49 583.992 2150.28C620.86 2149.73 657.646 2146.51 694.5 2145.39C712.989 2144.83 731.534 2144.67 750.009 2145.73C771.209 2146.95 791.786 2149.93 812.972 2146.29C834.725 2142.55 852.026 2130.07 860.835 2108.82C870.556 2085.33 875.687 2059.63 875.341 2034.04C875.065 2013.52 871.981 1991.83 861.429 1974.07C850.117 1955.03 831.877 1943.6 811.866 1936.55C793.958 1930.24 774.003 1930.57 755.32 1928.44C742.472 1926.97 729.667 1925.75 716.737 1925.2C676.467 1923.51 635.27 1922.08 595.166 1926.99C579.899 1928.86 564.521 1931.77 549.586 1935.6C534.651 1939.43 515.83 1944.78 505.029 1957.29C497.478 1966.04 494.256 1978.15 492.389 1989.5C489.9 2004.74 489.126 2020.23 489.388 2035.68C489.9 2064.55 492.293 2096.22 503.854 2122.87C505.887 2127.54 508.5 2131.87 511.902 2135.62C524.099 2149.15 543.64 2128.78 531.456 2115.29C530.06 2113.73 530.972 2114.6 531.774 2115.91C531.263 2115.09 530.709 2114.3 530.225 2113.45C529.769 2112.66 529.354 2111.85 528.953 2111.03C528.649 2110.43 527.142 2106.86 527.833 2108.6C528.525 2110.34 527.363 2107.22 527.183 2106.72C526.81 2105.61 526.436 2104.49 526.091 2103.37C525.206 2100.52 524.445 2097.64 523.74 2094.74C520.435 2081.03 519.107 2070.3 518.056 2057.06C516.936 2042.78 516.604 2028.4 517.378 2014.09C517.558 2010.84 517.793 2007.6 518.111 2004.37C518.25 2002.95 518.402 2001.51 518.568 2000.08C518.25 2002.69 518.927 1997.74 519.024 1997.12C519.868 1991.97 521.043 1986.95 522.606 1982.01C523.09 1980.44 523.657 1979.46 522.647 1981.66C523.09 1980.68 523.532 1979.71 524.03 1978.76C524.417 1978.02 524.984 1977.32 525.316 1976.57C525.247 1976.74 523.27 1978.14 525.261 1976.77C527.031 1975.56 527.736 1974.57 530.779 1972.8C533.987 1970.93 536.421 1969.84 539.795 1968.58C553.029 1963.59 566.886 1960.9 580.673 1958.21C614.942 1951.52 650.482 1952.34 685.207 1953.03C713.598 1953.6 741.394 1955.88 769.619 1958.72C787.582 1960.54 803.998 1962.09 820.025 1971.51C833.633 1979.49 841.391 1992.52 844.904 2007.94C849.398 2027.71 848.43 2049.42 844.171 2069.14C840.672 2085.32 836.122 2107.57 819.735 2114.7C802.366 2122.26 781.636 2119.75 763.437 2117.99C746.829 2116.4 730.137 2116.05 713.459 2116.21C678.458 2116.55 643.526 2119.2 608.553 2120.72C593.811 2121.36 579.028 2121.86 564.272 2121.36C558.437 2121.16 552.601 2120.78 546.793 2120.08C545.963 2119.98 548.48 2120.41 545.797 2119.9C544.525 2119.66 543.266 2119.46 542.008 2119.19C539.74 2118.7 537.513 2118.08 535.315 2117.37C534.471 2117.1 533.655 2116.75 532.825 2116.42C534.651 2117.14 534.706 2117.52 533.185 2116.45C532.535 2115.99 531.678 2115.37 530.972 2115.06C530.53 2114.86 533.461 2117.34 531.442 2115.27C518.706 2102.33 499.124 2122.65 511.888 2135.61L511.93 2135.64Z" fill="#D38963"/>
<path d="M175.933 1962.87C157.181 1938.04 119.068 1949.87 27.0777 1946.19C5.20024 1945.31 -98.517 1942.22 -115.098 1952.62C-124.737 1958.66 -129.77 1967.53 -133.808 1976.2C-146.545 2003.5 -152.796 2032.27 -152.215 2060.9C-151.772 2082.71 -145.812 2106.54 -122.386 2120.3C-110.686 2127.17 -103.689 2130.28 -88.7399 2132.29C-46.4233 2138 -52.1484 2139.44 -6.26393 2142.49C24.6023 2144.54 73.1005 2147.29 103.344 2141.97C114.643 2139.98 150.211 2135.58 165.312 2122.1C187.148 2102.58 192.292 1984.56 175.919 1962.87H175.933Z" fill="#BA7556"/>
<path d="M185.713 1952.7C170.612 1933.19 144.074 1932.25 121.975 1932.11C86.8359 1931.88 51.7933 1932.53 16.6539 1931.45C-12.622 1930.54 -41.9809 1930.13 -71.2568 1931.52C-84.4082 1932.14 -97.9606 1932.84 -110.835 1935.89C-128.329 1940.05 -139.544 1955.16 -146.846 1971.34C-157.785 1995.57 -164.519 2021.46 -165.847 2048.25C-166.87 2069 -164.727 2091.49 -153.429 2109.25C-142.13 2127.01 -121.677 2140.11 -101.335 2144.6C-85.1826 2148.15 -68.3113 2149.88 -51.9378 2152.32C-13.3965 2158.08 26.5416 2160.02 65.4425 2159.36C83.3786 2159.05 100.955 2156.97 118.629 2153.91C136.302 2150.84 154.266 2147.28 168.772 2137.25C191.729 2121.39 194.84 2085.63 197.495 2059.67C200.455 2030.75 202.087 1997.8 193.941 1969.57C192.545 1964.75 190.802 1959.66 187.884 1955.61C183.404 1949.41 175.936 1946.2 168.966 1950.45C163.089 1954.03 159.493 1963.88 164.002 1970.12C164.942 1971.43 165.578 1972.84 166.366 1974.22C166.297 1974.1 165.578 1971.67 166.408 1974.43C166.781 1975.68 167.21 1976.92 167.556 1978.19C168.192 1980.5 168.69 1982.86 169.146 1985.22C169.409 1986.61 169.644 1988.02 169.865 1989.43C169.962 1990.07 170.045 1990.7 170.142 1991.33C170.487 1993.7 169.782 1987.84 170.225 1992.09C171.704 2006.07 172.008 2020.15 171.552 2034.21C171.054 2049.47 169.865 2063.25 167.473 2076.85C166.38 2083.07 165.08 2089.25 163.352 2095.3C162.577 2098.04 161.664 2100.7 160.738 2103.37C159.811 2106.05 161.637 2101.57 160.489 2103.99C159.908 2105.2 159.383 2106.41 158.746 2107.58C158.249 2108.52 157.626 2109.4 157.129 2110.32C155.732 2112.95 158.484 2109.04 157.101 2110.35C155.179 2112.16 155.123 2112.34 152.178 2114.1C145.692 2117.95 138.487 2120.07 131.006 2122.01C118.145 2125.36 104.592 2127.83 91.4963 2129.17C52.623 2133.12 12.5882 2129.95 -26.2436 2126.58C-29.9221 2126.27 -33.5868 2125.92 -37.2514 2125.5C-38.5652 2125.36 -39.8651 2125.2 -41.1788 2125.04C-41.9947 2124.94 -42.8107 2124.83 -43.6127 2124.73C-42.3958 2124.88 -41.9394 2124.97 -43.4191 2124.76C-49.0752 2123.92 -54.7174 2122.94 -60.3734 2122.04C-77.2863 2119.32 -95.3469 2118.97 -110.739 2110.5C-126.13 2102.03 -135.05 2089.68 -137.608 2071.83C-140.526 2051.5 -137.166 2029.11 -131.496 2009.39C-128.37 1998.55 -124.415 1987.76 -119.077 1977.87C-117.058 1974.13 -114.832 1970.65 -111.707 1967.79C-110.42 1966.61 -109.01 1965.79 -107.641 1964.74C-105.401 1963.04 -109.936 1965.14 -108.083 1964.93C-103.962 1964.45 -99.7168 1962.77 -95.5405 1962.15C-98.0989 1962.54 -95.7756 1962.19 -94.6001 1962.05C-93.1481 1961.89 -91.696 1961.72 -90.244 1961.58C-87.091 1961.26 -83.938 1961.02 -80.7712 1960.8C-52.6016 1958.87 -24.2522 1959.2 3.95894 1959.84C34.922 1960.54 65.8158 1961.52 96.8065 1961.06C110.691 1960.86 124.658 1960.38 138.529 1961.39C141.004 1961.58 143.479 1961.81 145.941 1962.14C143.12 1961.76 145.72 1962.12 146.95 1962.38C148.25 1962.66 149.55 1962.91 150.836 1963.23C152.8 1963.73 154.681 1964.4 156.603 1965.04C158.871 1965.8 154.072 1963.49 156.907 1965.19C157.765 1965.7 158.664 1966.11 159.521 1966.64C160.378 1967.17 161.139 1967.76 161.969 1968.29C162.038 1968.34 160.212 1966.41 162.093 1968.48C163.462 1969.99 164.9 1971.38 166.159 1973.01C170.847 1979.06 180.831 1978.09 185.713 1973.01C191.466 1967.03 190.415 1958.74 185.713 1952.67V1952.7Z" fill="#BA7556"/>
<path d="M471.136 1257.82C460.562 1237.4 439.073 1247.13 387.205 1244.11C374.87 1243.38 316.39 1240.84 307.041 1249.39C301.606 1254.35 298.768 1261.65 296.491 1268.77C289.31 1291.21 285.785 1314.86 286.113 1338.4C286.362 1356.32 289.723 1375.9 302.932 1387.22C309.528 1392.87 313.474 1395.42 321.902 1397.07C345.762 1401.77 342.534 1402.95 368.406 1405.45C385.809 1407.14 413.155 1409.4 430.207 1405.03C436.578 1403.4 456.632 1399.78 465.147 1388.69C477.459 1372.65 480.36 1275.64 471.128 1257.82H471.136Z" fill="#BA7556"/>
<path d="M476.66 1249.46C468.146 1233.42 453.183 1232.65 440.722 1232.53C420.909 1232.34 401.151 1232.87 381.338 1231.99C364.831 1231.24 348.277 1230.9 331.77 1232.05C324.355 1232.55 316.714 1233.13 309.455 1235.64C299.591 1239.06 293.267 1251.48 289.15 1264.78C282.983 1284.69 279.185 1305.97 278.437 1327.99C277.86 1345.05 279.068 1363.54 285.439 1378.13C291.809 1392.73 303.341 1403.5 314.811 1407.19C323.919 1410.11 333.431 1411.53 342.663 1413.54C364.394 1418.27 386.913 1419.86 408.847 1419.32C418.96 1419.07 428.871 1417.35 438.836 1414.84C448.801 1412.32 458.929 1409.39 467.109 1401.15C480.052 1388.11 481.807 1358.71 483.304 1337.38C484.972 1313.61 485.892 1286.53 481.3 1263.32C480.512 1259.36 479.53 1255.18 477.885 1251.84C475.358 1246.75 471.148 1244.11 467.218 1247.6C463.904 1250.54 461.877 1258.64 464.419 1263.77C464.949 1264.85 465.307 1266.01 465.752 1267.14C465.713 1267.05 465.307 1265.05 465.775 1267.32C465.986 1268.35 466.228 1269.36 466.422 1270.4C466.781 1272.31 467.062 1274.24 467.319 1276.18C467.467 1277.33 467.6 1278.49 467.725 1279.65C467.779 1280.17 467.826 1280.69 467.881 1281.21C468.075 1283.16 467.678 1278.33 467.927 1281.83C468.762 1293.32 468.933 1304.9 468.676 1316.46C468.395 1329 467.725 1340.32 466.376 1351.5C465.76 1356.61 465.027 1361.69 464.052 1366.67C463.615 1368.91 463.101 1371.1 462.578 1373.3C462.056 1375.5 463.085 1371.82 462.438 1373.81C462.111 1374.8 461.814 1375.79 461.456 1376.76C461.175 1377.53 460.824 1378.25 460.543 1379.01C459.756 1381.17 461.307 1377.96 460.528 1379.03C459.444 1380.52 459.413 1380.68 457.752 1382.12C454.095 1385.29 450.033 1387.02 445.814 1388.62C438.563 1391.37 430.921 1393.41 423.537 1394.51C401.619 1397.76 379.046 1395.14 357.151 1392.38C355.077 1392.12 353.01 1391.83 350.944 1391.49C350.203 1391.37 349.47 1391.24 348.73 1391.11C348.27 1391.03 347.81 1390.94 347.357 1390.85C348.043 1390.98 348.301 1391.05 347.466 1390.88C344.277 1390.19 341.096 1389.39 337.907 1388.64C328.371 1386.41 318.188 1386.13 309.509 1379.16C300.831 1372.2 295.801 1362.05 294.359 1347.38C292.714 1330.66 294.608 1312.26 297.805 1296.05C299.567 1287.14 301.798 1278.28 304.807 1270.14C305.946 1267.07 307.201 1264.21 308.963 1261.86C309.688 1260.89 310.484 1260.21 311.256 1259.35C312.519 1257.96 309.961 1259.68 311.006 1259.5C313.33 1259.11 315.724 1257.73 318.078 1257.22C316.636 1257.54 317.946 1257.26 318.609 1257.14C319.427 1257.01 320.246 1256.87 321.065 1256.75C322.843 1256.49 324.62 1256.29 326.406 1256.11C342.289 1254.53 358.274 1254.8 374.18 1255.32C391.638 1255.9 409.058 1256.7 426.531 1256.32C434.36 1256.16 442.235 1255.77 450.056 1256.6C451.452 1256.75 452.847 1256.94 454.235 1257.21C452.645 1256.9 454.111 1257.2 454.804 1257.41C455.537 1257.64 456.27 1257.85 456.996 1258.11C458.103 1258.52 459.163 1259.07 460.247 1259.6C461.526 1260.23 458.82 1258.32 460.419 1259.72C460.902 1260.14 461.409 1260.47 461.892 1260.91C462.376 1261.35 462.805 1261.83 463.272 1262.27C463.311 1262.31 462.282 1260.72 463.343 1262.42C464.114 1263.67 464.925 1264.81 465.635 1266.15C468.278 1271.12 473.908 1270.32 476.66 1266.15C479.904 1261.23 479.311 1254.42 476.66 1249.43V1249.46Z" fill="#BA7556"/>
<path d="M442.123 1697.87C428.384 1670.58 400.462 1683.58 333.066 1679.54C317.038 1678.57 241.052 1675.18 228.904 1686.6C221.842 1693.24 218.154 1702.99 215.196 1712.52C205.865 1742.51 201.285 1774.13 201.711 1805.59C202.035 1829.54 206.402 1855.72 223.565 1870.85C232.136 1878.4 237.262 1881.81 248.215 1884.02C279.217 1890.3 275.023 1891.88 308.639 1895.23C331.253 1897.49 366.784 1900.51 388.942 1894.66C397.219 1892.48 423.278 1887.64 434.342 1872.82C450.339 1851.38 454.108 1721.7 442.112 1697.87H442.123Z" fill="#DBA189"/>
<path d="M449.29 1686.69C438.226 1665.25 418.783 1664.22 402.593 1664.06C376.849 1663.81 351.176 1664.52 325.431 1663.34C303.983 1662.34 282.473 1661.88 261.025 1663.42C251.39 1664.1 241.461 1664.87 232.028 1668.22C219.212 1672.79 210.995 1689.39 205.646 1707.17C197.632 1733.8 192.698 1762.24 191.725 1791.68C190.975 1814.48 192.546 1839.19 200.823 1858.71C209.101 1878.22 224.085 1892.62 238.989 1897.55C250.822 1901.45 263.183 1903.35 275.179 1906.03C303.415 1912.35 332.675 1914.49 361.175 1913.76C374.316 1913.43 387.193 1911.14 400.141 1907.77C412.522 1904.56 426.25 1900.49 436.878 1889.47C453.697 1872.04 455.976 1832.74 457.922 1804.22C460.09 1772.45 461.285 1736.25 455.318 1705.23C454.295 1699.93 453.018 1694.34 450.88 1689.88C447.598 1683.07 442.127 1679.55 437.02 1684.21C432.714 1688.15 430.08 1698.97 433.383 1705.83C434.072 1707.27 434.538 1708.81 435.116 1710.33C435.065 1710.2 434.538 1707.53 435.146 1710.57C435.419 1711.94 435.734 1713.3 435.987 1714.69C436.453 1717.24 436.818 1719.83 437.152 1722.42C437.344 1723.95 437.517 1725.5 437.679 1727.05C437.75 1727.74 437.811 1728.44 437.881 1729.13C438.135 1731.74 437.618 1725.29 437.942 1729.97C439.026 1745.33 439.249 1760.8 438.915 1776.25C438.55 1793.02 437.679 1808.16 435.926 1823.11C435.126 1829.93 434.173 1836.73 432.907 1843.38C432.339 1846.38 431.671 1849.3 430.992 1852.24C430.313 1855.18 431.651 1850.27 430.81 1852.92C430.384 1854.25 429.999 1855.58 429.533 1856.87C429.168 1857.9 428.712 1858.86 428.348 1859.88C427.324 1862.77 429.341 1858.47 428.327 1859.91C426.919 1861.9 426.879 1862.1 424.721 1864.03C419.969 1868.27 414.69 1870.59 409.209 1872.72C399.787 1876.4 389.858 1879.12 380.263 1880.59C351.783 1884.94 322.453 1881.44 294.003 1877.75C291.308 1877.4 288.623 1877.02 285.938 1876.56C284.976 1876.4 284.024 1876.23 283.061 1876.06C282.463 1875.95 281.866 1875.82 281.278 1875.71C282.17 1875.88 282.504 1875.98 281.42 1875.74C277.276 1874.82 273.142 1873.75 268.998 1872.75C256.608 1869.77 243.376 1869.39 232.099 1860.08C220.823 1850.77 214.288 1837.2 212.414 1817.59C210.276 1795.25 212.738 1770.64 216.892 1748.98C219.182 1737.07 222.079 1725.22 225.99 1714.34C227.469 1710.24 229.1 1706.41 231.39 1703.27C232.332 1701.97 233.366 1701.07 234.369 1699.92C236.01 1698.05 232.687 1700.36 234.045 1700.12C237.064 1699.6 240.174 1697.75 243.234 1697.07C241.36 1697.5 243.062 1697.12 243.923 1696.96C244.987 1696.79 246.051 1696.6 247.114 1696.44C249.424 1696.09 251.734 1695.83 254.054 1695.59C274.692 1693.47 295.462 1693.83 316.13 1694.53C338.815 1695.3 361.449 1696.38 384.154 1695.87C394.326 1695.65 404.559 1695.13 414.721 1696.24C416.534 1696.44 418.348 1696.69 420.151 1697.06C418.084 1696.65 419.989 1697.04 420.891 1697.33C421.843 1697.63 422.796 1697.91 423.738 1698.26C425.176 1698.81 426.554 1699.54 427.963 1700.25C429.624 1701.09 426.109 1698.54 428.186 1700.41C428.814 1700.98 429.472 1701.42 430.1 1702C430.729 1702.59 431.286 1703.24 431.894 1703.82C431.944 1703.87 430.607 1701.75 431.985 1704.03C432.988 1705.69 434.042 1707.22 434.964 1709C438.398 1715.66 445.713 1714.58 449.29 1709C453.504 1702.43 452.734 1693.33 449.29 1686.66V1686.69Z" fill="#EAC6B9"/>
<path d="M218.206 1010.07C203.711 1030.66 223.346 1053.19 245.331 1117.56C250.558 1132.87 276.179 1205.11 288.856 1213.28C296.223 1218.04 304.575 1218.74 312.5 1218.83C337.45 1219.12 361.813 1214.49 384.215 1205.22C401.272 1198.15 418.433 1186.67 422.939 1166.3C425.19 1156.12 425.745 1150.35 423.287 1139.45C416.338 1108.6 419.019 1112.09 409.009 1079.6C402.279 1057.75 391.324 1023.56 378.95 1004.43C374.33 997.276 361.241 974.193 346.528 967.997C325.246 959.04 230.866 992.102 218.209 1010.08L218.206 1010.07Z" fill="#DBA189"/>
<path d="M207.551 1006.5C196.261 1022.94 202.703 1041.47 208.568 1056.7C217.893 1080.92 227.882 1104.81 236.538 1129.29C243.744 1149.7 251.358 1170.01 260.376 1189.7C264.421 1198.54 268.643 1207.64 274.528 1215.54C282.534 1226.28 297.477 1229.3 312.198 1229.3C334.249 1229.31 356.466 1225.91 377.933 1218.51C394.56 1212.78 411.7 1204.33 422.637 1191.06C433.573 1177.79 438.362 1159.67 436.394 1144.29C434.824 1132.09 431.619 1119.96 429.116 1107.95C423.222 1079.67 413.948 1051.62 402.903 1025.09C397.813 1012.85 391.415 1001.42 384.221 990.222C377.349 979.512 369.357 967.783 357.535 960.921C338.828 950.061 309.808 959.013 288.638 965.237C265.053 972.171 238.653 981.266 218.615 995.618C215.198 998.072 211.658 1000.85 209.252 1004.11C205.581 1009.11 205.074 1015.24 210.302 1018.72C214.713 1021.64 223.447 1021.06 227.145 1016.03C227.922 1014.97 228.86 1014.1 229.735 1013.13C229.663 1013.21 227.942 1014.46 229.893 1013.04C230.778 1012.39 231.636 1011.71 232.54 1011.08C234.192 1009.93 235.916 1008.85 237.65 1007.81C238.678 1007.2 239.725 1006.6 240.776 1006.01C241.248 1005.75 241.724 1005.49 242.196 1005.23C243.972 1004.26 239.54 1006.56 242.774 1004.94C253.387 999.584 264.397 995.009 275.602 990.962C287.758 986.573 298.934 983.118 310.3 980.544C315.49 979.368 320.714 978.344 325.951 977.655C328.314 977.34 330.657 977.142 333.015 976.949C335.373 976.757 331.355 976.889 333.569 976.929C334.678 976.953 335.772 976.94 336.873 977.012C337.744 977.064 338.604 977.22 339.464 977.276C341.915 977.42 338.089 976.742 339.494 977.286C341.441 978.046 341.604 978.026 343.783 979.506C348.574 982.769 352.189 987.066 355.742 991.606C361.861 999.407 367.476 1007.95 372.073 1016.54C385.704 1042.03 394.03 1070.54 401.884 1098.27C402.63 1100.9 403.349 1103.52 404.012 1106.17C404.254 1107.12 404.481 1108.06 404.712 1109.01C404.853 1109.6 404.983 1110.2 405.121 1110.78C404.916 1109.9 404.861 1109.56 405.091 1110.64C405.964 1114.79 406.72 1118.97 407.536 1123.14C409.97 1135.6 414.584 1148.13 412.074 1161.33C409.564 1174.54 402.244 1184.5 388.876 1191.79C373.644 1200.1 355.094 1204.74 338.026 1206.95C328.637 1208.17 319.07 1208.79 309.83 1208.19C306.338 1207.96 302.994 1207.51 299.894 1206.25C298.617 1205.73 297.59 1205.02 296.392 1204.4C294.449 1203.39 297.33 1205.86 296.659 1204.65C295.17 1201.96 292.696 1199.57 291.079 1196.89C292.077 1198.53 291.177 1197.04 290.746 1196.27C290.228 1195.32 289.699 1194.38 289.193 1193.43C288.091 1191.36 287.045 1189.27 286.019 1187.16C276.88 1168.39 269.472 1148.8 262.339 1129.22C254.518 1107.72 246.931 1086.18 238.185 1065.02C234.27 1055.54 230.118 1046.09 227.159 1036.24C226.636 1034.48 226.148 1032.71 225.743 1030.92C226.211 1032.97 225.791 1031.07 225.662 1030.15C225.526 1029.17 225.378 1028.19 225.279 1027.21C225.145 1025.71 225.157 1024.21 225.147 1022.69C225.134 1020.89 224.608 1024.91 225.178 1022.43C225.354 1021.68 225.428 1020.94 225.615 1020.19C225.803 1019.43 226.061 1018.73 226.256 1017.99C226.271 1017.93 225.247 1019.78 226.37 1017.85C227.189 1016.44 227.899 1015.02 228.839 1013.65C232.341 1008.55 228.869 1001.99 223.549 1000.21C217.28 998.109 211.038 1001.4 207.528 1006.51L207.551 1006.5Z" fill="#EAC6B9"/>
<path d="M-242.462 -0.124058C-229.393 -42.0297 -47.9295 -28.6843 39.7738 -34.1634C63.0479 -35.6158 89.4475 -32.8979 104.286 -14.1885C112.901 -3.30221 115.971 11.1217 118.046 25.0567C124.587 68.99 123.923 114.059 116.11 157.763C110.149 191.054 97.9108 226.474 69.7965 243.544C55.7601 252.072 47.6148 255.638 31.3796 256.185C-14.5741 257.738 -19.4418 249.613 -67.7464 238.266C-99.9817 230.688 -143.266 219.298 -173.759 206.039C-185.14 201.078 -229.31 201.135 -237.912 176.084C-246.997 149.609 -252.985 33.6708 -242.448 -0.124058H-242.462Z" fill="#D38963"/>
<path d="M-229.132 3.70219C-228.454 1.6745 -229.823 5.28407 -229.837 5.31283C-229.643 5.06836 -229.505 4.24868 -229.256 4.13364C-229.063 4.04736 -227.057 0.81168 -228.869 3.32832C-230.681 5.84496 -224.693 -0.396324 -226.753 1.24309C-228.606 2.72431 -226.117 0.826046 -225.564 0.480907C-224.582 -0.123085 -223.628 -0.727097 -222.632 -1.28794C-221.706 -1.80565 -220.738 -2.23706 -219.797 -2.75477C-217.059 -4.23599 -221.913 -2.07889 -218.193 -3.44507C-206.632 -7.67302 -194.711 -10.204 -182.597 -12.016C-179.762 -12.433 -181.394 -12.1886 -182.016 -12.1023C-181.048 -12.2317 -180.08 -12.3612 -179.126 -12.4762C-177.398 -12.6919 -175.669 -12.9076 -173.94 -13.0946C-169.847 -13.5691 -165.74 -13.9718 -161.619 -14.3313C-153.142 -15.0791 -144.664 -15.64 -136.173 -16.0714C-118.251 -17.0061 -100.315 -17.4088 -82.3788 -17.6676C-47.917 -18.1422 -13.4413 -17.754 21.0066 -18.9044C38.0854 -19.4796 55.7173 -22.0538 72.4919 -17.6102C81.0935 -15.338 89.3909 -11.2251 94.7566 -3.58888C101.229 5.6292 103.054 17.896 104.7 28.883C108.821 56.379 109.595 84.5654 107.783 112.306C106.179 136.84 102.791 161.819 95.0469 185.145C88.8101 203.926 78.6042 221.542 61.7744 231.753C53.643 236.685 45.5254 240.712 36.011 241.56C25.501 242.481 14.6453 242.279 4.14911 241.345C-10.399 240.065 -27.5746 234.126 -43.146 229.783C-65.6042 223.513 -88.422 218.738 -110.866 212.396C-122.206 209.189 -133.477 205.767 -144.637 201.927C-153.916 198.734 -162.905 194.363 -172.226 191.4C-185.252 187.273 -199.012 186.813 -211.915 181.88C-217.018 179.924 -222.12 176.459 -224.25 172.705C-225.453 170.591 -224.278 173.108 -224.9 171.238C-225.19 170.361 -225.426 169.455 -225.674 168.564C-226.338 166.061 -226.878 163.502 -227.362 160.956C-228.744 153.723 -229.367 148.661 -229.948 143.613C-230.86 135.675 -231.566 127.708 -232.146 119.741C-234.622 85.874 -236.171 50.8137 -231.953 17.0332C-232.299 19.8087 -231.828 16.271 -231.676 15.3075C-231.469 13.9845 -231.248 12.6758 -230.985 11.3672C-230.487 8.77863 -229.878 6.21883 -229.118 3.70219C-223.78 -14.0006 -250.47 -21.5792 -255.794 -3.9484C-260.039 10.1448 -260.786 25.676 -261.409 40.3301C-262.238 59.4996 -261.948 78.7268 -261.09 97.8963C-260.233 117.066 -258.795 135.286 -256.333 153.838C-254.494 167.744 -252.738 182.499 -243.694 193.586C-232.299 207.564 -213.325 212.396 -196.758 215.589C-190.812 216.739 -184.575 217.401 -178.808 219.371C-167.952 223.095 -157.442 227.87 -146.531 231.494C-122.828 239.331 -98.6693 245.659 -74.4271 251.411C-54.3336 256.186 -34.6688 263.29 -14.4647 267.403C5.73941 271.516 31.6687 273.601 52.4398 267.547C75.2023 260.903 95.1023 244.58 107.714 224.045C120.451 203.322 126.729 178.76 130.601 154.729C135.455 124.673 137.377 94.143 135.759 63.7132C134.916 47.9375 133.27 32.133 130.643 16.573C128.513 3.94668 124.931 -9.0967 117.616 -19.6091C102.791 -40.8782 78.2585 -48.1406 54.0025 -48.8308C36.6748 -49.3198 19.1535 -47.5078 1.81201 -47.2058C-16.9677 -46.875 -35.7475 -46.8319 -54.541 -46.7169C-92.5569 -46.458 -130.766 -46.3142 -168.63 -42.4458C-193.826 -39.8716 -227.707 -37.5707 -247.179 -18.2285C-251.217 -14.2307 -253.969 -9.38434 -255.794 -3.9484C-258.242 3.3858 -253.001 11.7842 -246.141 13.74C-238.535 15.9115 -231.593 11.0652 -229.132 3.70219Z" fill="#D38963"/>
<path d="M-859.449 1562.42C-926.907 1563.76 -890.772 1668.18 -884.093 1685.74C-822.969 1846.44 -714.771 1938.02 -626.321 1997.18C-531.592 2060.53 -441.096 2069.24 -303.456 2069.3C-205.754 2069.34 -163.728 2066.7 -76.5364 2007.41C-38.5621 1981.58 39.0599 1930.84 66.7593 1896.85C125.228 1825.07 162.871 1770.91 188.33 1706.69C214.19 1641.46 195.991 1678.65 220.855 1613.04C227.397 1595.77 247.836 1552.07 149.858 1554.87L-859.449 1562.45V1562.42Z" fill="#7C4D3D"/>
<path d="M-859.448 1548.04C-885.114 1548.86 -905.844 1563.9 -911.445 1590.65C-916.271 1613.73 -912.261 1638.31 -906.466 1660.8C-900.354 1684.52 -890.936 1707.21 -880.883 1729.37C-864.592 1765.31 -844.9 1799.55 -822.096 1831.43C-782.172 1887.26 -733.798 1935.12 -679.989 1976.27C-628.089 2015.95 -572.773 2048.98 -509.755 2065.18C-437.001 2083.87 -360.665 2084.04 -286.168 2083.64C-253.117 2083.47 -219.761 2082.66 -187.291 2075.59C-155.194 2068.58 -124.991 2054.45 -96.7526 2037.36C-68.1682 2020.06 -40.5517 2000.55 -13.1703 1981.29C14.211 1962.04 42.2838 1942.13 66.277 1918.22C79.5943 1904.93 90.9202 1889.36 102.523 1874.47C115.633 1857.65 128.452 1840.53 140.608 1822.95C161.586 1792.6 180.421 1760.62 195.108 1726.46C204.511 1704.59 213.251 1682.37 219.474 1659.31C224.55 1640.51 233.4 1623.05 238.614 1604.36C243.205 1587.89 241.034 1569.84 227.938 1558.17C207.263 1539.73 175.388 1540.12 149.832 1540.48C140.677 1540.61 131.508 1540.62 122.354 1540.68C98.5815 1540.85 74.7957 1541.04 51.0237 1541.21C16.0917 1541.47 -18.8402 1541.73 -53.786 1542C-96.4207 1542.32 -139.055 1542.65 -181.69 1542.97C-228.57 1543.31 -275.437 1543.67 -322.317 1544.02C-369.972 1544.38 -417.626 1544.73 -465.281 1545.09C-510.46 1545.44 -555.653 1545.77 -600.832 1546.12C-639.636 1546.4 -678.44 1546.7 -717.245 1546.99L-804.823 1547.65C-820.948 1547.77 -837.073 1547.9 -853.197 1548.01C-855.271 1548.03 -857.36 1548.04 -859.434 1548.06C-877.218 1548.19 -877.259 1576.95 -859.434 1576.82C-851.303 1576.76 -843.157 1576.7 -835.026 1576.63C-812.623 1576.46 -790.22 1576.3 -767.817 1576.13C-734.586 1575.88 -701.369 1575.62 -668.138 1575.38C-627.011 1575.08 -585.897 1574.76 -544.77 1574.46C-499.383 1574.11 -453.996 1573.78 -408.61 1573.44C-361.757 1573.09 -314.905 1572.73 -268.052 1572.39C-223.426 1572.06 -178.8 1571.71 -134.174 1571.38C-94.5815 1571.08 -54.9891 1570.79 -15.4106 1570.49C15.5248 1570.26 46.4601 1570.03 77.4094 1569.8C96.7561 1569.66 116.089 1569.51 135.436 1569.37C154.782 1569.23 175.733 1567.79 194.375 1572.69C196.933 1573.37 199.409 1574.22 201.912 1575.08C204.415 1575.94 200.584 1574.3 202.88 1575.47C204.138 1576.1 205.382 1576.75 206.599 1577.48C207.429 1577.98 208.217 1578.57 209.033 1579.09C211.163 1580.44 207.402 1577.35 209.047 1579.12C209.614 1579.72 210.237 1580.36 210.845 1580.9C212.85 1582.7 210.97 1580.9 210.914 1580.79C211.343 1581.61 213.597 1585.58 212.532 1583.32C211.467 1581.06 212.975 1585.35 213.293 1586.35C214.164 1589.07 213.237 1585.46 213.237 1585.63C213.224 1586.32 213.362 1587.03 213.348 1587.72C213.307 1589.2 213.127 1590.74 213.141 1592.22C213.113 1588.22 213.307 1591.01 212.864 1593.14C212.56 1594.56 212.186 1595.97 211.785 1597.38C211.039 1599.99 210.126 1602.53 209.172 1605.05C204.719 1616.87 200.155 1628.66 196.186 1640.67C190.959 1656.47 186.879 1672.35 180.878 1687.95C167.865 1721.78 152.03 1753.86 132.767 1784.32C110.723 1819.15 85.4993 1851.63 59.6667 1883.46C40.3616 1907.23 15.5524 1925.67 -8.80042 1943.41C-33.1533 1961.16 -59.8154 1979.06 -85.5927 1996.46C-113.79 2015.49 -143.37 2033.08 -175.785 2042.99C-204.771 2051.86 -233.48 2053.94 -263.779 2054.63C-302.514 2055.51 -341.373 2055.24 -380.081 2053.54C-445.644 2050.67 -511.788 2041.58 -571.75 2012.27C-599.505 1998.71 -625.31 1981.38 -650.382 1963.11C-674.098 1945.84 -696.653 1927.46 -718.226 1907.3C-769.822 1859.08 -813.328 1802.42 -845.646 1738.5C-857.747 1714.57 -869.017 1689.78 -876.762 1663.92C-879.61 1654.42 -882.017 1644.74 -883.745 1634.93C-884.008 1633.44 -884.257 1631.94 -884.492 1630.44C-884.589 1629.85 -885.059 1626.42 -884.879 1627.83C-884.699 1629.24 -885.101 1625.78 -885.156 1625.18C-885.308 1623.67 -885.432 1622.15 -885.543 1620.62C-885.903 1615.33 -885.986 1609.99 -885.612 1604.69C-885.571 1604.13 -885.239 1600.62 -885.446 1602.33C-885.626 1603.91 -885.114 1600.26 -884.962 1599.5C-884.534 1597.21 -883.98 1594.95 -883.289 1592.75C-882.957 1591.67 -882.584 1590.61 -882.169 1589.57C-883.095 1591.9 -882.376 1590.12 -881.754 1589C-881.228 1588.05 -880.703 1587.11 -880.15 1586.18C-879.458 1585.02 -878.283 1583.78 -879.832 1585.6C-878.988 1584.61 -874.839 1580.69 -877.287 1582.6C-876.416 1581.92 -875.503 1581.29 -874.577 1580.72C-874.162 1580.46 -870.815 1578.69 -872.184 1579.32C-868.686 1577.71 -864.219 1577.02 -859.406 1576.86C-841.65 1576.3 -841.567 1547.54 -859.406 1548.1L-859.448 1548.04Z" fill="#60382D"/>
<g filter="url(#filter0_b_527_29404)">
<rect y="-1" width="3840" height="2161" fill="#241512" fill-opacity="0.2"/>
</g>
</g>
<defs>
<filter id="filter0_b_527_29404" x="-10" y="-11" width="3860" height="2181" filterUnits="userSpaceOnUse" color-interpolation-filters="sRGB">
<feFlood flood-opacity="0" result="BackgroundImageFix"/>
<feGaussianBlur in="BackgroundImageFix" stdDeviation="5"/>
<feComposite in2="SourceAlpha" operator="in" result="effect1_backgroundBlur_527_29404"/>
<feBlend mode="normal" in="SourceGraphic" in2="effect1_backgroundBlur_527_29404" result="shape"/>
</filter>
<clipPath id="clip0_527_29404">
<rect width="3840" height="2160" fill="white"/>
</clipPath>
</defs>
</svg>
