<?xml version="1.0" standalone="no"?>
<!DOCTYPE svg PUBLIC "-//W3C//DTD SVG 20010904//EN"
 "http://www.w3.org/TR/2001/REC-SVG-20010904/DTD/svg10.dtd">
<svg version="1.0" xmlns="http://www.w3.org/2000/svg"
 width="700.000000pt" height="700.000000pt" viewBox="0 0 700.000000 700.000000"
 preserveAspectRatio="xMidYMid meet">
<metadata>
Created by potrace 1.14, written by Peter Selinger 2001-2017
</metadata>
<g transform="translate(0.000000,700.000000) scale(0.100000,-0.100000)"
fill="#000000" stroke="none">
<path d="M705 6985 c-361 -69 -637 -353 -695 -715 -14 -90 -14 -5450 0 -5540
59 -374 356 -667 728 -720 55 -8 867 -10 2812 -8 2630 3 2737 4 2800 22 36 10
103 36 148 57 234 108 389 288 469 546 l28 88 3 2735 c2 1944 0 2757 -8 2812
-33 233 -171 455 -363 587 -64 43 -196 104 -277 127 -63 18 -168 19 -2820 21
-2255 1 -2768 -1 -2825 -12z m2802 -3156 l1278 -1692 3 1692 2 1691 190 0 190
0 2 -1847 c3 -1808 3 -1849 23 -1903 26 -73 102 -150 170 -174 28 -9 85 -20
128 -23 l77 -6 0 -43 0 -44 -364 0 -364 0 -1279 1687 -1278 1687 -3 -1687 -2
-1687 -190 0 -190 0 0 1815 c0 1305 -3 1829 -11 1867 -38 177 -153 257 -389
270 l-45 3 -3 43 -3 42 390 0 389 0 1279 -1691z"/>
</g>
</svg>
