<svg width="181" height="189" viewBox="0 0 181 189" fill="none" xmlns="http://www.w3.org/2000/svg">
<path d="M70.1866 28.8489C80.1321 7.9351 109.659 -0.760948 129.424 11.3936C148.723 23.2538 171.705 61.3769 173.028 83.9113C173.866 98.13 177.92 119.224 172.853 132.54C162.94 158.606 155.072 163.953 135.1 175.888C122.194 183.597 106.918 183.366 91.8782 183.875L79.9324 183.823C57.7208 181.424 37.3266 168.344 24.2023 150.335C11.0872 132.326 4.95575 109.789 5.01624 87.544C5.06289 68.4689 10.1699 48.2831 24.2186 35.3171C26.2742 33.1335 33.8213 25.6478 46.3068 23.9757C58.4709 22.3479 67.5511 27.2752 70.1775 28.8397L70.1866 28.8489Z" fill="#2780C4"/>
<path d="M74.1315 31.1675C75.0574 29.2439 76.139 27.4032 77.3852 25.6638C77.496 25.509 77.6159 25.3542 77.7267 25.1994L77.902 24.9717C78.1973 24.5893 78.1328 24.6621 77.7083 25.2084C77.9749 25.0999 78.4279 24.3163 78.6215 24.0887C79.3132 23.2878 80.0323 22.5053 80.7879 21.7594C81.5435 21.0136 82.2528 20.359 83.0264 19.7046C83.3948 19.3956 83.7723 19.0866 84.1406 18.7867C84.6931 18.3324 84.5074 18.834 84.0118 18.8775C84.2229 18.8602 84.6469 18.4052 84.831 18.2781C86.5245 17.0614 88.3092 15.9729 90.1577 15.0034C91.0221 14.5504 91.8956 14.134 92.7873 13.7359C93.0171 13.6365 93.4028 13.5468 93.5962 13.3923C93.0345 13.8466 92.8885 13.6724 93.3112 13.519C93.8626 13.3113 94.4049 13.0944 94.9562 12.9049C96.9779 12.1921 99.054 11.6164 101.157 11.1871C102.057 10.9992 103.185 11.0224 104.04 10.6973C103.011 11.0947 103.498 10.768 103.976 10.7061C104.169 10.6887 104.361 10.6621 104.554 10.6447C105.132 10.5833 105.72 10.5401 106.298 10.5061C108.381 10.3782 110.473 10.3965 112.546 10.5791C113.078 10.6271 113.601 10.6842 114.133 10.7413C114.472 10.7794 114.82 10.9727 113.775 10.685C114.05 10.7593 114.353 10.7697 114.637 10.8166C115.682 10.9856 116.727 11.2003 117.754 11.4606C118.688 11.6931 119.614 11.9621 120.53 12.2676C120.988 12.4157 121.446 12.5822 121.895 12.7486C122.17 12.8503 122.436 12.9519 122.71 13.0627C123.59 13.4137 122.856 13.3375 122.683 13.0444C122.829 13.3008 123.846 13.5793 124.13 13.7176C124.606 13.9572 125.082 14.1968 125.558 14.4547C126.418 14.9244 127.251 15.4305 128.074 15.9731C128.751 16.4237 129.419 16.8834 130.077 17.3704C130.361 17.5818 131.476 18.5276 130.361 17.5727C130.754 17.9124 131.175 18.2248 131.577 18.5555C134.722 21.1546 137.608 24.0632 140.311 27.1081C141.754 28.7314 143.15 30.4002 144.491 32.1053C144.692 32.3528 144.884 32.6003 145.075 32.857C145.121 32.912 145.76 33.7553 145.303 33.1503C144.847 32.5454 145.486 33.3978 145.531 33.4528C145.723 33.7094 145.915 33.9661 146.115 34.2227C146.827 35.1759 147.52 36.1382 148.213 37.1188C153.566 44.7156 158.228 52.8211 161.998 61.3063C162.235 61.8372 162.462 62.3681 162.689 62.8989C162.807 63.1644 163.143 63.8602 162.662 62.8166C162.789 63.1004 162.898 63.3932 163.016 63.6769C163.442 64.7202 163.851 65.7635 164.241 66.8158C164.957 68.7465 165.618 70.6953 166.197 72.6712C166.775 74.647 167.245 76.467 167.64 78.3873C167.819 79.2742 167.981 80.1611 168.124 81.0478C168.186 81.441 168.308 82.9215 168.168 81.313C168.212 81.7974 168.283 82.2727 168.318 82.7571C168.729 87.3176 169.067 91.8869 169.524 96.4476C170.043 101.639 170.525 106.83 170.686 112.047C170.757 114.542 170.765 117.036 170.635 119.529C170.575 120.671 170.487 121.812 170.372 122.945C170.334 123.283 170.296 123.611 170.257 123.949C170.162 124.789 170.285 123.849 170.295 123.721C170.265 124.36 170.097 125.026 169.975 125.656C169.533 127.984 168.854 130.21 168 132.417C167.555 133.557 167.109 134.697 166.646 135.828C166.423 136.366 166.201 136.904 165.969 137.442C165.514 138.527 166.367 136.539 165.904 137.597C165.774 137.898 165.635 138.208 165.505 138.509C163.81 142.311 161.931 146.039 159.695 149.556C159.242 150.267 158.771 150.977 158.282 151.669C158.042 152.006 157.802 152.343 157.562 152.671C157.414 152.871 157.276 153.063 157.128 153.254C156.667 153.864 156.962 153.454 157.257 153.099C156.151 154.419 155.071 155.739 153.864 156.976C152.74 158.141 151.551 159.241 150.317 160.295C149.691 160.831 149.056 161.349 148.411 161.858C148.255 161.985 148.098 162.103 147.942 162.221C147.223 162.785 148.844 161.549 148.107 162.094C147.721 162.385 147.325 162.676 146.929 162.966C143.901 165.164 140.727 167.16 137.534 169.11C135.51 170.344 133.486 171.623 131.408 172.756C130.258 173.381 129.081 173.942 127.886 174.485C126.691 175.028 128.75 174.169 127.546 174.63C127.307 174.72 127.068 174.82 126.82 174.91C126.094 175.181 125.368 175.443 124.624 175.677C121.923 176.56 119.149 177.215 116.348 177.705C115.705 177.821 115.063 177.919 114.42 178.017C114.163 178.052 113.906 178.088 113.649 178.132C112.354 178.327 114.622 178.027 113.318 178.176C111.886 178.344 110.445 178.493 109.004 178.605C101.056 179.246 93.0821 179.349 85.1183 179.314L81.0629 179.296C80.7326 179.295 80.4023 179.302 80.072 179.292C80.0262 179.292 79.9803 179.291 79.9344 179.291C79.5858 179.271 79.2191 179.215 78.8706 179.168C78.3571 179.102 77.8893 179.081 78.678 179.149C76.1191 178.946 73.498 178.249 71.0236 177.608C68.5491 176.967 66.2493 176.244 63.9226 175.384C63.3638 175.181 62.8142 174.968 62.2646 174.756C61.9349 174.626 61.6051 174.497 61.2754 174.359C61.2479 174.349 60.1673 173.888 60.845 174.183C61.5226 174.479 60.442 174.008 60.4146 173.989C60.0941 173.842 59.7644 173.703 59.4439 173.556C58.7938 173.261 58.1528 172.956 57.5211 172.643C55.2872 171.546 53.1088 170.34 50.9767 169.042C48.8445 167.745 46.7771 166.347 44.7742 164.859C44.4907 164.647 44.2072 164.427 43.9146 164.215C42.9817 163.517 44.4174 164.619 43.8505 164.169C43.3385 163.765 42.8265 163.352 42.3237 162.938C41.3088 162.112 40.3217 161.249 39.3529 160.377C35.5876 156.98 31.9615 153.237 28.9423 149.158C29.0336 149.277 29.5079 149.91 29.0062 149.241C28.7964 148.957 28.5774 148.672 28.3677 148.388C27.9937 147.875 27.6198 147.362 27.2551 146.84C26.4344 145.676 25.6505 144.494 24.885 143.294C23.4362 141.003 22.0794 138.65 20.8329 136.251C20.1778 134.987 19.5503 133.714 18.9503 132.433C18.6776 131.847 18.4141 131.261 18.1506 130.666C18.0507 130.428 17.9417 130.19 17.8418 129.952C17.7419 129.714 17.642 129.476 17.5329 129.238C17.7418 129.733 17.7418 129.742 17.542 129.257C16.5254 126.74 15.5915 124.196 14.7587 121.607C13.057 116.301 11.7778 110.869 10.8935 105.365C10.7954 104.725 10.6973 104.085 10.5992 103.445C10.5458 103.061 10.4924 102.678 10.439 102.294C10.4658 102.458 10.5542 103.235 10.448 102.348C10.2798 100.932 10.13 99.515 10.0078 98.0893C9.76334 95.2471 9.61978 92.4052 9.58636 89.5548C9.55158 87.0149 9.59938 84.4754 9.73893 81.9363C9.80862 80.685 9.9058 79.443 10.0213 78.201C10.0792 77.5526 10.1463 76.8952 10.2225 76.2469C10.2511 76.0095 10.2797 75.7721 10.3082 75.5347C10.3368 75.2973 10.5364 73.7085 10.3749 74.9777C11.002 70.0472 12.1795 65.1373 13.7598 60.4302C14.1689 59.2078 14.6146 57.9856 15.097 56.7909C15.1805 56.572 15.2732 56.3532 15.3567 56.1434C15.4587 55.8881 15.6742 54.8841 15.4401 55.9428C15.5897 55.304 16.0331 54.6207 16.311 54.0281C17.3666 51.8219 18.5503 49.6802 19.8714 47.6213C20.5273 46.5918 21.2198 45.5899 21.9489 44.6156C22.1242 44.388 22.2813 44.1329 22.4749 43.9236C21.7188 44.779 22.4934 43.9054 22.6225 43.7507C23.0653 43.2044 23.5172 42.6766 23.9782 42.1487C25.2415 40.7199 26.6234 39.4287 27.9597 38.0733C28.7984 37.2182 29.6827 36.409 30.6127 35.6457C30.9258 35.3821 31.248 35.1369 31.5611 34.8824C32.0215 34.5007 30.5762 35.609 31.2849 35.0913C31.4874 34.9461 31.6807 34.8007 31.8832 34.6554C32.684 34.0834 33.4937 33.5479 34.34 33.04C35.1864 32.5321 36.0417 32.0517 36.9245 31.6079C37.3935 31.3724 37.8624 31.1461 38.3404 30.9289C38.6346 30.7931 38.9289 30.6483 39.2321 30.54C38.0742 30.9643 39.1769 30.5763 39.3699 30.504C41.8697 29.5557 44.4598 28.9184 47.0949 28.5097C46.9113 28.5363 46.177 28.6061 47.1041 28.5097C47.5171 28.4658 47.9302 28.422 48.3524 28.3964C49.0224 28.3445 49.7015 28.3109 50.3805 28.2956C51.7844 28.2652 53.1788 28.317 54.582 28.451C54.9397 28.4891 55.2974 28.5272 55.6642 28.5654C55.9485 28.594 56.4718 28.5324 55.4991 28.5464C56.0405 28.5487 56.6544 28.7341 57.186 28.8461C58.3228 29.0703 59.4592 29.3585 60.5772 29.6831C61.5668 29.9798 62.5379 30.3129 63.4997 30.6825C63.8661 30.8212 65.1937 31.4573 63.7837 30.7843C64.1224 30.9502 64.4705 31.0888 64.8093 31.2455C65.8439 31.7342 66.86 32.2686 67.8392 32.8484C69.9075 34.0633 72.9565 33.4097 74.122 31.2406C75.2876 29.0714 74.7125 26.2825 72.507 24.9847C64.2706 20.1251 54.5528 18.3377 45.1059 19.6485C36.3567 20.8619 27.9978 25.1465 21.7683 31.359C18.3955 34.7153 15.2335 38.1456 12.5737 42.1171C9.56295 46.617 7.23836 51.5675 5.41784 56.6481C1.77707 66.7454 0.38026 77.7478 0.434202 88.5007C0.561829 111.788 7.21954 135.67 21.5154 154.333C34.6891 171.547 54.1383 184.605 75.8691 187.852C81.1414 188.642 86.5278 188.501 91.8588 188.433C97.6945 188.367 103.568 188.146 109.377 187.66C115.187 187.174 121.605 186.279 127.412 184.331C132.705 182.564 137.414 179.862 142.143 176.969C145.473 174.937 148.785 172.85 151.933 170.534C158.22 165.921 163.565 160.545 167.741 153.94C170.041 150.305 171.958 146.439 173.681 142.5C175.776 137.732 177.953 132.899 178.884 127.751C180.83 117.052 179.694 106.103 178.622 95.3728C178.173 90.8487 177.936 86.2981 177.424 81.7828C176.947 77.5692 176.066 73.4543 174.826 69.4109C171.995 60.208 167.795 51.3646 162.95 43.0483C158.105 34.7319 152.387 26.6675 145.84 19.5131C139.932 13.0649 133.167 7.34383 124.933 4.11037C107.832 -2.58771 86.6241 2.67312 73.924 15.6542C70.8182 18.829 68.1505 22.499 66.2338 26.4921C65.1968 28.6436 65.5421 31.5228 67.8488 32.7479C69.881 33.8257 73.0298 33.4375 74.1316 31.1401L74.1315 31.1675Z" fill="#2780C4"/>
<path d="M61.9933 35.9011C55.335 47.858 53.5109 62.1656 56.7468 75.4356C57.6753 79.2218 59.0722 82.8913 60.791 86.3886C61.8459 88.5401 65.0721 89.3216 67.0595 88.0513C69.2769 86.645 69.866 84.1078 68.7291 81.8098C68.5109 81.3612 68.2927 80.9035 68.0836 80.4549C68.0018 80.2718 67.3753 78.7709 67.7928 79.8233C67.4207 78.8898 67.0669 77.9564 66.75 77.0049C66.1521 75.23 65.6555 73.4098 65.269 71.5719C65.0622 70.5935 64.883 69.606 64.7314 68.6187C64.7046 68.445 64.4531 67.2197 64.6867 68.3445C64.5879 67.8598 64.5718 67.339 64.528 66.8546C64.353 64.9171 64.2972 62.9801 64.3424 61.0344C64.3649 60.0935 64.4149 59.1528 64.4924 58.2213C64.5313 57.719 64.5793 57.2259 64.6365 56.7237C64.665 56.5045 64.8007 54.8607 64.7128 56.0754C64.8584 54.2397 65.3805 52.3418 65.8562 50.5624C66.3319 48.783 66.9271 46.9585 67.6137 45.2166C67.6879 45.0251 68.3367 43.5388 67.8734 44.5691C68.0773 44.1132 68.2811 43.6573 68.5033 43.2015C68.9385 42.299 69.4011 41.4057 69.8912 40.5308C71.0564 38.4438 70.5006 35.454 68.2762 34.2749C66.0518 33.0959 63.2326 33.65 61.9934 35.8828L61.9933 35.9011Z" fill="#134872"/>
<path d="M105.796 169.648C106.163 171.687 106.531 173.735 106.898 175.774C107.033 176.368 107.306 176.89 107.708 177.331C108.027 177.825 108.456 178.22 108.987 178.515C109.509 178.855 110.077 179.031 110.691 179.061C111.296 179.201 111.911 179.176 112.517 178.987C113.629 178.635 114.706 177.955 115.27 176.898L115.733 175.813C115.957 175 115.961 174.197 115.744 173.383C115.377 171.344 115.009 169.296 114.642 167.257C114.507 166.662 114.234 166.14 113.832 165.7C113.513 165.205 113.084 164.811 112.553 164.516C112.032 164.176 111.463 164 110.849 163.97C110.244 163.83 109.629 163.855 109.023 164.044C107.911 164.395 106.835 165.076 106.27 166.133L105.807 167.218C105.583 168.03 105.579 168.834 105.796 169.648Z" fill="#134872"/>
<path d="M154.546 81.9478C154.764 82.3872 154.982 82.8267 155.182 83.2752C155.282 83.4949 155.718 84.5292 155.31 83.5316C155.637 84.3278 155.936 85.1331 156.217 85.9474C156.724 87.457 157.148 89.0027 157.472 90.5664C157.652 91.4076 157.795 92.2579 157.919 93.108C158.062 94.0588 157.84 92.3037 157.963 93.5376C158.007 93.9672 158.051 94.3967 158.077 94.8262C158.198 96.4803 158.228 98.1431 158.156 99.7964C158.125 100.591 158.067 101.395 157.99 102.189C157.951 102.618 157.894 103.048 157.847 103.468C157.799 103.815 157.818 103.714 157.885 103.166C157.847 103.413 157.809 103.65 157.771 103.897C157.498 105.531 157.124 107.146 156.658 108.743C156.435 109.509 156.184 110.266 155.914 111.023C155.747 111.489 155.571 111.945 155.395 112.401C155.302 112.629 154.848 113.641 155.293 112.665C154.579 114.233 153.793 115.756 152.896 117.232C151.658 119.282 152.342 122.336 154.511 123.488C156.681 124.639 159.472 124.057 160.794 121.88C168.927 108.477 169.442 91.3495 162.475 77.3689C161.411 75.2265 158.203 74.436 156.206 75.7062C153.998 77.1035 153.391 79.6497 154.537 81.9477L154.546 81.9478Z" fill="#134872"/>
<path d="M58.6104 17.359C58.4123 20.6927 58.4895 24.0367 58.8144 27.3543C58.9377 28.5425 59.2169 29.7314 60.1398 30.5942C61.0628 31.4569 62.1251 31.9184 63.3819 31.9421C65.5746 31.9974 67.7408 31.7876 69.9076 31.4591C70.7155 31.3347 71.5509 31.2287 72.3228 30.958C73.3153 30.6061 74.152 30.1895 74.9259 29.462C75.6998 28.7345 76.2178 27.7684 76.5433 26.774C76.748 26.1263 76.797 25.4048 76.8642 24.7291C76.8931 24.4094 76.9037 24.0806 76.8868 23.7608C76.8269 22.7739 76.703 21.7318 76.3768 20.7894C75.7335 18.923 74.7409 17.2011 73.3157 15.8063C71.7717 14.2921 69.7584 13.1048 67.641 12.6205C66.4495 12.3504 65.1829 12.4453 64.1067 13.0619C63.1501 13.615 62.237 14.6981 61.9845 15.7842C61.7133 16.9523 61.7627 18.2681 62.4279 19.3033C63.0567 20.2836 63.9888 21.1464 65.162 21.4165C65.5928 21.5189 66.0143 21.6486 66.4265 21.8148L65.3366 21.3533C65.9594 21.621 66.5451 21.9707 67.0846 22.3841L66.161 21.6675C66.6913 22.0901 67.1572 22.5672 67.5677 23.0988L66.8561 22.173C67.2575 22.7046 67.5853 23.2725 67.8396 23.8857L67.3856 22.7966C67.6125 23.3548 67.766 23.931 67.8459 24.5343L67.6861 23.3186C67.7478 23.8761 67.7455 24.4243 67.6788 24.9721L67.8493 23.7578C67.8022 24.0317 67.746 24.2872 67.6348 24.5517L68.0983 23.4666C68.052 23.5669 67.9873 23.6671 67.9135 23.7581L68.6332 22.8385C68.5686 22.9114 68.5041 22.9842 68.4213 23.0386L69.3511 22.3301C69.2222 22.4209 69.1118 22.4843 68.9739 22.5477L70.0678 22.0957C69.0659 22.5024 67.8818 22.616 66.8169 22.7575L68.0379 22.5984C66.5048 22.7836 64.9722 22.8591 63.431 22.825L67.9985 27.4127C67.6643 24.0859 67.5963 20.7511 67.7944 17.4174C67.8636 16.2849 67.2546 14.9667 66.469 14.1776C65.6834 13.3885 64.374 12.7798 63.2269 12.8296C60.6299 12.9371 58.7683 14.82 58.6195 17.3773L58.6104 17.359Z" fill="#20692E"/>
</svg>
