<svg width="273" height="270" viewBox="0 0 273 270" fill="none" xmlns="http://www.w3.org/2000/svg">
<path d="M82.4333 83.8161C28.7883 88.4239 28.8452 144.086 38.9138 155.563C41.6512 158.688 45.2802 161.014 48.0291 164.123C57.7112 175.065 53.8009 175.176 61.6212 187.432C65.1318 192.938 77.9972 202.507 81.6789 204.361C88.0006 207.547 99.0431 209.225 104.402 213.741C115.628 223.193 124.685 223.616 139.711 223.635C143.957 223.641 148.207 224.109 152.448 223.723C157.762 223.242 162.841 221.435 167.856 219.643C188.467 212.279 211.737 202.291 217.881 182.046C219.111 177.981 219.581 173.618 221.883 170C226.035 163.447 232.519 165.462 234.62 158.084C236.611 151.06 226.577 143.579 228.181 136.474C229.268 131.647 230.564 120.029 231.228 115.15C232.863 103.126 224.19 102.795 216.89 93.0059C212.174 86.6893 212.602 77.6239 207.358 71.7062C201.381 64.9735 195.943 67.789 187.734 63.7397C179.184 59.5263 182.656 55.9287 175.779 49.5058C168.905 43.0711 156.559 43.3968 148.976 39.4102C144.899 37.2621 133.585 39.8417 125.174 44.7278C118.74 48.4667 110.232 46.2232 103.3 49.0128C95.9097 51.9966 92.1178 59.7491 89.0035 66.8364C83.2286 79.9515 77.3578 94.4098 81.583 107.951C87.4027 126.594 109.231 135.127 123.121 149.232" fill="#EC691F"/>
<path d="M82.5891 79.4829C70.4661 80.5482 58.8459 84.1383 49.2686 91.6161C41.722 97.5136 36.3183 105.598 33.0364 114.304C30.1702 121.9 28.8944 130.202 29.285 138.232C29.4614 141.748 29.8736 145.298 30.7872 148.709C31.5103 151.403 32.4915 154.187 34.0688 156.527C35.646 158.866 37.6385 160.68 39.74 162.485C42.6547 164.992 45.2487 167.592 47.6372 170.576C48.1655 171.233 47.1493 169.917 47.7644 170.745C47.9555 171.009 48.1509 171.28 48.342 171.543C48.7077 172.06 49.0532 172.577 49.387 173.11C49.9183 173.972 50.4098 174.856 50.8334 175.765C51.6398 177.458 52.2584 179.221 52.997 180.94C55.1903 186.041 58.1077 190.885 62.124 194.84C66.1404 198.796 70.6475 202.303 75.2868 205.534C76.7874 206.572 78.3126 207.618 79.9785 208.401C83.1087 209.867 86.4308 210.906 89.737 211.954C91.3656 212.471 92.9985 212.995 94.6088 213.571C95.2806 213.807 96.2954 214.008 96.8642 214.427C96.777 214.364 95.9727 214.041 96.733 214.378C96.885 214.445 97.0371 214.512 97.1891 214.58C97.5877 214.753 97.9746 214.942 98.3658 215.139C99.0164 215.465 99.6518 215.818 100.272 216.199C100.561 216.381 100.852 216.582 101.138 216.776C101.511 217.032 101.284 217.142 100.905 216.603C101.007 216.747 101.243 216.888 101.38 217.002C102.792 218.177 104.259 219.302 105.776 220.352C110.407 223.567 115.778 225.827 121.427 226.826C127.551 227.917 133.74 227.918 139.952 227.977C143.924 228.01 147.896 228.408 151.86 228.101C156.099 227.765 160.163 226.813 164.197 225.481C170.962 223.254 177.685 220.733 184.219 217.918C196.434 212.661 208.526 205.693 216.345 194.956C218.286 192.289 219.827 189.39 221.072 186.372C222.317 183.354 222.962 180.062 223.841 176.873C224.061 176.076 224.302 175.298 224.583 174.517C224.727 174.135 224.88 173.748 225.042 173.376C224.682 174.218 225.206 173.082 225.355 172.815C225.569 172.445 225.795 172.079 226.042 171.731C226.1 171.651 226.267 171.325 226.367 171.282C226.019 171.417 225.941 171.735 226.309 171.362C226.579 171.091 226.832 170.808 227.119 170.548C227.237 170.446 227.351 170.336 227.477 170.23C227.555 170.168 228.354 169.607 227.708 170.018C227.062 170.43 228.049 169.798 228.203 169.706C228.489 169.535 228.775 169.364 229.069 169.208C229.677 168.875 230.298 168.565 230.914 168.248C232.343 167.52 233.723 166.689 234.943 165.667C237.682 163.366 239.45 159.538 239.38 156.063C239.31 152.806 238.03 149.805 236.496 146.96C235.848 145.764 235.157 144.602 234.509 143.407C234.186 142.819 233.874 142.235 233.583 141.63C233.421 141.291 233.272 140.956 233.111 140.617C233.05 140.492 232.88 140.03 233.112 140.656C233.392 141.386 233.071 140.53 233.04 140.438C232.838 139.864 232.669 139.274 232.555 138.673C232.531 138.558 232.53 138.41 232.493 138.292C232.363 137.897 232.545 138.747 232.534 138.783C232.621 138.48 232.499 137.973 232.524 137.654C232.536 137.529 232.548 137.404 232.56 137.28C232.596 136.669 232.711 137.545 232.499 137.628C232.555 137.598 232.636 137.013 232.638 136.962C232.753 136.418 232.852 135.862 232.947 135.319C233.957 129.574 234.635 123.79 235.361 118.018C235.734 115.068 236.104 112.239 235.679 109.268C235.254 106.298 233.733 103.603 231.749 101.312C230.081 99.3951 228.004 97.8336 226.073 96.1651C224.926 95.1658 223.806 94.142 222.765 93.0373C222.202 92.4479 221.664 91.8459 221.152 91.2194C220.933 90.9609 220.351 90.1356 220.84 90.8523C220.555 90.4413 220.266 90.0422 220.005 89.6185C219.547 88.885 219.148 88.1101 218.786 87.326C218.681 87.1053 218.588 86.8686 218.483 86.6479C218.445 86.5797 218.226 85.9951 218.417 86.4955C218.63 87.0337 218.346 86.2967 218.301 86.1627C218.193 85.8646 218.091 85.574 217.988 85.2834C217.421 83.6113 216.946 81.9198 216.428 80.2418C215.193 76.211 213.679 72.3785 210.955 69.0591C208.742 66.3662 205.761 64.3968 202.415 63.2423C199.945 62.3923 197.302 62.1473 194.756 61.5644C194.054 61.404 193.36 61.22 192.681 61.0081C192.317 60.8955 191.961 60.7786 191.596 60.6466C191.44 60.5911 191.28 60.528 191.124 60.4726C190.629 60.3111 191.828 60.7998 191.047 60.4448C190.265 60.0898 189.467 59.7045 188.716 59.2745C188.377 59.0793 188.047 58.8798 187.715 58.661C187.583 58.5735 187.463 58.4893 187.33 58.4017C186.531 57.869 187.783 58.8522 187.442 58.4901C187.056 58.0641 186.581 57.6844 186.17 57.271C185.508 56.5966 186.633 58.0315 186.252 57.415C186.107 57.1767 185.933 56.9434 185.787 56.7051C185.259 55.8309 184.863 54.8968 184.439 53.9678C183.163 51.2118 181.382 48.6947 179.144 46.5773C176.609 44.1736 173.58 42.575 170.298 41.2975C164.715 39.1201 158.623 38.5052 152.995 36.4307C152.822 36.3642 152.384 36.1034 152.203 36.1305C152.574 36.0721 153.004 36.4846 152.494 36.2423C152.326 36.1641 152.161 36.0934 151.993 36.0152C151.211 35.6408 150.453 35.2538 149.625 34.9628C148.343 34.5088 146.897 34.3489 145.535 34.3019C142.273 34.1879 138.902 34.8122 135.77 35.6553C132.04 36.6674 128.36 38.0771 124.935 39.8447C124.167 40.2421 123.429 40.6732 122.67 41.0857C122.32 41.2714 121.97 41.457 121.603 41.6123C121.547 41.6418 121.151 41.7634 121.136 41.8106C121.692 41.6046 121.804 41.5649 121.476 41.6798C121.372 41.7152 121.26 41.7549 121.156 41.7904C119.614 42.2827 117.926 42.6454 116.307 42.7451C117.228 42.6905 116.29 42.7342 115.915 42.7656C115.507 42.7945 115.099 42.8235 114.691 42.8524C113.815 42.9129 112.934 42.9657 112.058 43.0262C110.1 43.1675 108.134 43.3323 106.207 43.6741C102.204 44.3873 98.5516 46.1374 95.4741 48.717C89.5709 53.6637 86.5847 61.0677 83.6613 67.817C78.3089 80.1457 73.3181 93.8215 76.6273 107.207C80.2167 121.687 92.6362 131 104.318 139.579C105.722 140.61 107.125 141.641 108.52 142.676C108.865 142.937 109.218 143.194 109.563 143.455C108.79 142.878 109.799 143.635 109.982 143.775C110.664 144.301 111.35 144.835 112.028 145.372C114.749 147.539 117.372 149.807 119.816 152.269C121.438 153.904 124.539 154.025 126.209 152.32C127.879 150.615 128.075 147.937 126.336 146.186C121.289 141.091 115.424 136.814 109.621 132.554C108.222 131.53 106.819 130.499 105.431 129.46C105.086 129.199 104.742 128.938 104.397 128.677C105.099 129.202 104.23 128.548 103.989 128.36C103.258 127.801 102.534 127.238 101.827 126.667C99.2016 124.577 96.6619 122.383 94.3219 119.995C93.1854 118.832 92.0917 117.617 91.0731 116.352C90.9337 116.18 90.7697 116 90.6419 115.812C90.6548 115.834 91.1341 116.478 90.8323 116.056C90.5945 115.728 90.361 115.408 90.1232 115.081C89.6297 114.376 89.16 113.658 88.7221 112.924C87.8815 111.535 87.2049 110.089 86.5276 108.623C86.3134 108.155 86.6127 108.864 86.63 108.895C86.5339 108.689 86.4611 108.451 86.3809 108.238C86.2644 107.905 86.1478 107.572 86.0392 107.235C85.7812 106.435 85.5514 105.63 85.3577 104.815C85.1826 104.069 85.0313 103.311 84.9125 102.556C84.8509 102.174 84.8016 101.796 84.7523 101.417C84.7368 101.317 84.6693 100.761 84.7331 101.329C84.797 101.897 84.7242 101.186 84.7123 101.074C84.586 99.5032 84.5723 97.9124 84.6481 96.3334C84.7239 94.7544 84.904 93.268 85.1189 91.7336C85.1322 91.6476 85.2184 91.0889 85.1315 91.6282C85.0417 92.1987 85.1594 91.4951 85.1829 91.3544C85.2549 90.971 85.3268 90.5875 85.4067 90.1999C85.5709 89.4322 85.7429 88.6603 85.9315 87.8994C87.4794 81.6431 89.9422 75.6314 92.5252 69.7038C92.848 68.9604 93.1672 68.2289 93.4943 67.4931C93.6673 67.1054 93.8482 66.7135 94.0169 66.3182C94.0431 66.255 94.3076 65.7004 94.0925 66.1597C93.8774 66.6191 94.2095 65.9102 94.2473 65.831C95.0138 64.2111 95.8373 62.6004 96.7559 61.0477C97.1615 60.3591 97.5917 59.6771 98.0427 59.0137C98.2856 58.658 98.5328 58.3098 98.7843 57.9692C98.9662 57.7248 99.8145 56.7223 99.1829 57.4322C99.7363 56.8033 100.306 56.1853 100.926 55.6001C101.189 55.3522 101.46 55.1195 101.731 54.8867C101.912 54.7316 102.102 54.5916 102.291 54.4322C102.708 54.0923 102.438 54.2551 102.179 54.4912C102.76 53.9659 103.665 53.5549 104.374 53.2182C104.517 53.1423 105.256 52.7112 105.391 52.7676C105.268 52.7146 104.563 53.0395 105.224 52.8368C105.444 52.7692 105.66 52.6941 105.884 52.6341C106.658 52.4111 107.445 52.2302 108.238 52.0957C108.632 52.0246 109.035 51.9687 109.438 51.9128C109.611 51.89 109.785 51.8671 109.958 51.8442C110.816 51.7341 109.449 51.8775 110.006 51.8383C113.522 51.5611 117.086 51.4759 120.557 50.8474C122.452 50.5031 124.31 49.912 126.06 49.112C127.606 48.4099 129.044 47.4795 130.586 46.7504C131.326 46.3969 132.072 46.0703 132.835 45.7546C133.21 45.5951 133.651 45.3513 134.057 45.2642C134.02 45.2735 133.293 45.5411 133.801 45.3604C134.093 45.2549 134.385 45.1494 134.681 45.0514C136.265 44.5068 137.872 44.0389 139.503 43.667C140.262 43.4912 141.026 43.3424 141.791 43.2129C142.105 43.1646 142.419 43.1164 142.725 43.0724C142.809 43.0571 143.215 42.9701 143.334 42.9961C143.162 42.949 142.421 43.0658 143.056 43.0351C143.69 43.0043 144.336 42.9575 144.984 42.9688C145.276 42.972 145.571 42.9827 145.868 43.0128C145.986 43.0195 146.108 43.0337 146.229 43.0479C146.972 43.098 145.393 42.8505 145.88 42.9968C146.268 43.1162 146.748 43.286 147.154 43.3464C147.13 43.3397 146.092 42.8248 146.589 43.1336C146.7 43.2026 146.828 43.2632 146.951 43.3162C147.28 43.4769 147.605 43.63 147.938 43.7789C149.418 44.4342 150.931 45.0027 152.493 45.4759C155.295 46.3274 158.168 46.9235 161.014 47.6334C162.434 47.9846 163.856 48.3551 165.255 48.7965C165.946 49.0117 166.626 49.2429 167.299 49.4977C167.586 49.602 167.861 49.7416 168.152 49.8341C167.032 49.5013 168.177 49.8602 168.486 50.0024C169.119 50.2977 169.737 50.6208 170.332 50.9759C170.63 51.1535 170.919 51.3352 171.213 51.5246C171.333 51.6088 171.453 51.6929 171.582 51.7729C172.153 52.1407 171.483 51.5986 171.374 51.6071C171.77 51.5941 172.804 52.8505 173.047 53.0963C173.341 53.3944 173.634 53.6924 173.912 53.9989C174.026 54.1261 174.135 54.2457 174.241 54.377C174.342 54.5008 174.984 55.1761 174.476 54.6465C174.01 54.1539 174.706 54.9783 174.8 55.1256C174.95 55.3522 175.095 55.5711 175.236 55.8019C175.553 56.3241 175.839 56.8631 176.109 57.4105C176.548 58.3118 176.932 59.2425 177.395 60.1311C180.283 65.7607 186.737 68.7976 192.889 70.1009C195.405 70.6307 197.879 71.0342 200.326 71.8076C200.764 71.9404 199.879 71.6209 199.879 71.6209C199.942 71.6958 200.31 71.816 200.368 71.8446C200.611 71.9624 200.858 72.0878 201.093 72.2292C201.382 72.3916 201.664 72.5775 201.941 72.756C201.991 72.7888 202.3 72.9504 202.302 73.0085C201.836 72.644 201.732 72.5708 201.994 72.777C202.074 72.8435 202.161 72.9058 202.24 72.9723C202.806 73.4412 203.326 73.9548 203.826 74.4886C203.994 74.6755 204.15 74.8591 204.318 75.046C204.373 75.1058 204.758 75.6018 204.427 75.1656C204.067 74.6957 204.534 75.3357 204.611 75.4528C204.748 75.6566 204.884 75.8604 205.013 76.0684C205.463 76.8061 205.861 77.5616 206.211 78.3424C206.312 78.5555 206.773 79.7314 206.425 78.7914C206.599 79.2614 206.768 79.7238 206.93 80.1905C207.501 81.8507 207.975 83.5423 208.486 85.2245C209.574 88.7801 210.83 92.3946 213.107 95.4186C215.159 98.1378 217.483 100.535 220.096 102.768C221.948 104.351 223.857 105.873 225.45 107.711C226.136 108.501 224.984 107.001 225.39 107.624C225.544 107.858 225.701 108.081 225.847 108.319C225.993 108.557 226.123 108.804 226.252 109.051C226.313 109.157 226.357 109.272 226.405 109.374C226.626 109.8 226.393 109.973 226.302 109.084C226.352 109.61 226.646 110.164 226.749 110.691C226.778 110.814 226.963 111.614 226.907 111.643C226.883 111.656 226.852 110.745 226.857 111.245C226.866 111.497 226.887 111.753 226.891 111.997C226.931 114.472 226.441 116.98 226.128 119.435C225.771 122.248 225.425 125.065 225.035 127.876C224.85 129.227 224.661 130.57 224.452 131.914C224.402 132.227 224.356 132.528 224.306 132.84C224.286 132.969 224.266 133.098 224.242 133.219C224.151 133.771 224.397 132.328 224.298 132.864C224.199 133.4 224.115 133.908 224.007 134.429C223.723 135.823 223.394 137.21 223.491 138.639C223.596 140.171 223.867 141.596 224.414 143.032C225.472 145.824 226.974 148.341 228.399 150.959C228.719 151.539 229.034 152.131 229.322 152.729C229.465 153.017 229.593 153.315 229.732 153.616C230.152 154.537 229.532 152.972 229.758 153.661C229.952 154.239 230.146 154.817 230.267 155.413C230.306 155.609 230.44 156.574 230.359 155.848C230.277 155.122 230.347 156.229 230.333 156.404C230.329 156.524 230.309 156.653 230.305 156.774C230.29 157.275 230.056 156.827 230.382 156.417C230.25 156.586 230.214 157.069 230.152 157.269C230.075 157.498 229.993 157.719 229.916 157.947C229.883 158.053 229.625 158.545 229.883 158.053C230.142 157.561 229.875 158.038 229.829 158.121C229.695 158.341 229.564 158.548 229.43 158.767C228.892 159.605 229.906 158.367 229.365 158.871C229.133 159.082 228.906 159.302 228.674 159.513C228.608 159.578 228.401 159.688 228.363 159.767C228.363 159.767 229.211 159.219 228.806 159.453C228.504 159.633 228.216 159.836 227.902 160.012C225.242 161.541 222.412 162.717 220.258 164.955C217.53 167.803 216.003 171.345 215.023 175.031C214.191 178.156 213.545 181.3 212.271 184.304C212.207 184.446 212.147 184.596 212.083 184.739C211.892 185.185 211.785 184.907 212.162 184.569C211.978 184.736 211.864 185.191 211.75 185.409C211.397 186.099 211.027 186.779 210.633 187.451C209.903 188.697 209.093 189.896 208.222 191.058C208.006 191.351 207.785 191.636 207.551 191.917C207.423 192.074 207.275 192.232 207.163 192.399C207.171 192.395 207.727 191.735 207.392 192.11C206.873 192.691 206.363 193.287 205.828 193.857C204.812 194.929 203.75 195.956 202.638 196.931C201.526 197.905 200.348 198.875 199.145 199.78C198.841 200.01 198.533 200.233 198.229 200.463C197.344 201.11 198.692 200.149 198.008 200.62C197.375 201.055 196.742 201.489 196.088 201.905C190.742 205.372 184.977 208.194 179.091 210.695C177.567 211.345 176.034 211.962 174.496 212.57C173.809 212.836 173.126 213.11 172.427 213.372C172.051 213.512 171.688 213.656 171.312 213.796C171.2 213.836 170.652 214.037 171.244 213.822C171.92 213.572 170.996 213.914 170.861 213.966C167.579 215.185 164.285 216.399 160.949 217.449C159.063 218.045 157.15 218.577 155.208 218.966C154.336 219.142 153.462 219.28 152.588 219.399C152.435 219.421 151.733 219.478 152.532 219.409C152.326 219.429 152.124 219.438 151.918 219.458C151.373 219.501 150.827 219.524 150.277 219.54C146.493 219.654 142.709 219.333 138.924 219.319C135.888 219.312 132.844 219.289 129.814 219.111C128.476 219.032 127.144 218.929 125.803 218.773C125.482 218.736 125.157 218.692 124.836 218.655C123.82 218.523 125.512 218.77 124.754 218.639C124.136 218.533 123.509 218.432 122.897 218.302C121.634 218.045 120.384 217.722 119.153 217.339C118.6 217.169 118.048 216.979 117.511 216.78C117.219 216.668 116.924 216.549 116.633 216.437C116.19 216.277 117.072 216.628 117.064 216.613C116.946 216.498 116.6 216.415 116.443 216.34C113.94 215.212 111.596 213.782 109.4 212.176C108.495 211.511 109.792 212.501 109.159 211.988C108.855 211.745 108.551 211.501 108.248 211.258C107.436 210.594 106.628 209.937 105.774 209.325C104.596 208.49 103.305 207.804 101.982 207.204C98.787 205.752 95.4385 204.648 92.0832 203.587C90.4914 203.08 88.9039 202.581 87.331 202.034C86.6714 201.802 86.0155 201.559 85.3632 201.303C84.6086 201.013 86.0702 201.618 85.1456 201.211C84.7881 201.056 84.4343 200.888 84.0885 200.717C82.5444 199.948 81.118 198.948 79.7204 197.964C79.2394 197.627 78.7664 197.286 78.2934 196.945C78.0442 196.762 77.7951 196.578 77.546 196.395C77.2761 196.193 76.4198 195.414 77.3718 196.27C76.3866 195.392 75.2474 194.625 74.2232 193.788C72.1747 192.112 70.1726 190.373 68.308 188.512C67.4786 187.689 66.6846 186.838 65.9456 185.938C65.6753 185.608 65.373 184.93 66.0857 186.13C65.991 185.963 65.8565 185.817 65.7459 185.659C65.2646 184.957 64.8268 184.223 64.3889 183.489C63.0207 181.226 61.7956 178.887 60.7699 176.462C60.0609 174.776 59.4479 173.06 58.6593 171.416C57.5532 169.123 56.0703 167.059 54.5078 165.037C52.2677 162.132 49.8066 159.512 46.9926 157.108C45.5583 155.876 44.1124 154.661 42.8112 153.299C42.4753 152.945 42.1633 152.578 41.8433 152.215C41.4054 151.717 42.5495 153.221 42.2796 152.782C42.2107 152.661 42.1179 152.552 42.0331 152.44C41.4154 151.534 40.9083 150.551 40.4735 149.548C40.4162 149.411 40.3589 149.274 40.2973 149.129C39.9986 148.439 40.7023 150.206 40.5056 149.659C40.3983 149.361 40.2831 149.067 40.1794 148.757C39.9635 148.122 39.7635 147.479 39.5917 146.83C39.1944 145.384 38.8974 143.914 38.669 142.437C38.6125 142.082 38.5595 141.716 38.5188 141.352C38.492 141.16 38.4688 140.955 38.45 140.758C38.4275 140.572 38.3359 139.664 38.4225 140.545C38.5092 141.427 38.4325 140.599 38.4179 140.41C38.4034 140.22 38.3795 139.996 38.3686 139.795C38.3333 139.35 38.3058 138.901 38.2864 138.447C38.1117 134.861 38.2842 131.248 38.79 127.675C38.8593 127.214 38.9806 126.735 39.0052 126.269C38.9783 126.786 38.8427 127.203 38.9793 126.46C39.0307 126.186 39.0785 125.924 39.1299 125.65C39.3119 124.695 39.5307 123.751 39.7618 122.809C40.2537 120.852 40.8437 118.921 41.552 117.016C41.9043 116.07 42.2811 115.13 42.6868 114.205C42.7733 114.011 42.8757 113.809 42.9579 113.607C42.4992 114.876 42.7544 114.051 42.9055 113.734C43.1395 113.235 43.39 112.747 43.6406 112.259C44.5977 110.409 45.67 108.617 46.8583 106.902C47.4833 105.998 48.1536 105.12 48.8406 104.252C49.4383 103.501 48.2915 104.889 48.7667 104.341C48.9144 104.164 49.0622 103.987 49.2223 103.813C49.604 103.374 49.99 102.942 50.3926 102.521C51.9394 100.872 53.6193 99.33 55.4092 97.9267C55.831 97.5944 56.2534 97.2815 56.6838 96.9644C57.4731 96.3682 55.9599 97.457 56.6166 97.01C56.8936 96.8236 57.1663 96.6296 57.4476 96.4507C58.4412 95.7954 59.4644 95.1737 60.509 94.5899C61.5537 94.0061 62.6958 93.4298 63.8153 92.9049C64.3892 92.6399 64.9753 92.3783 65.562 92.1361C65.8612 92.0069 66.1568 91.8896 66.4602 91.7681C66.5881 91.72 66.724 91.6676 66.8476 91.6119C67.4307 91.3815 66.6842 91.6887 66.5037 91.7352C67.7951 91.3854 69.0395 90.8436 70.3383 90.4703C71.637 90.0969 72.953 89.7539 74.2789 89.4648C75.6048 89.1757 77.0685 88.8924 78.4699 88.6816C79.2309 88.5639 79.9883 88.458 80.7463 88.3716C80.8994 88.3495 81.6382 88.1746 81.7462 88.2554C81.7253 88.2369 80.6569 88.3598 81.5931 88.2774C81.8191 88.2562 82.045 88.235 82.271 88.2137C84.6236 88.0014 86.9644 86.4932 86.9393 83.9715C86.9194 81.8415 85.0851 79.3227 82.5708 79.5419L82.5891 79.4829Z" fill="#EC691F"/>
<path d="M80.7541 74.4728C77.5779 85.5908 74.9324 97.2716 77.8109 108.723C81.0005 121.405 90.2953 130.858 99.8367 139.399C105.101 144.112 110.476 148.747 115.114 154.078C116.636 155.824 119.869 155.8 121.452 154.149C123.212 152.321 123.182 149.821 121.551 147.953C113.575 138.789 103.401 131.767 95.3942 122.639C94.4888 121.608 93.6227 120.557 92.7874 119.469C93.4665 120.352 92.715 119.358 92.6176 119.221C92.3976 118.92 92.1855 118.615 91.9734 118.31C91.4811 117.596 91.0125 116.87 90.5674 116.131C89.8614 114.964 89.2062 113.759 88.6104 112.532C88.2798 111.851 87.9851 111.161 87.6981 110.467C88.0682 111.346 87.7333 110.548 87.6486 110.324C87.5051 109.922 87.3573 109.512 87.2216 109.106C86.773 107.74 86.4159 106.354 86.1303 104.95C86.0124 104.375 85.9145 103.798 85.8287 103.226C85.7797 102.882 85.7385 102.535 85.6895 102.192C85.631 101.704 85.636 101.732 85.6932 102.29C85.6686 102.063 85.6519 101.833 85.6352 101.602C85.4204 98.8818 85.4775 96.1348 85.7363 93.4189C85.7992 92.7459 85.8822 92.0721 85.9652 91.3983C86.0127 91.0631 86.0603 90.7279 86.1078 90.3927C86.1355 90.1681 86.1753 89.9469 86.2151 89.7258C86.1235 90.2745 86.1249 90.3136 86.2031 89.8321C86.4741 88.3979 86.7494 86.9714 87.0769 85.5467C87.7419 82.6421 88.5328 79.7794 89.3516 76.9116C89.9866 74.7022 88.6831 72.049 86.3109 71.4894C83.9388 70.9298 81.424 72.1247 80.7506 74.4847L80.7541 74.4728Z" fill="#9F490D"/>
<path d="M167.425 76.7487C159.662 75.4519 151.552 82.4867 152.104 90.035C152.375 93.7181 154.346 97.1701 154.262 100.864C154.233 102.034 154.003 103.251 154.421 104.351C155.448 107.07 159.548 107.184 162.264 105.881C167.485 103.377 170.41 97.979 172.65 92.8154C173.052 91.8825 173.459 90.8872 173.272 89.9017C172.949 88.1495 171.011 87.2149 169.705 85.9547C167.131 83.4636 167.155 78.9335 169.761 76.4168L167.408 76.7378L167.425 76.7487Z" fill="#9F490D"/>
<path d="M168.719 72.5809C162.489 71.6148 156.091 73.7763 151.982 78.5302C149.985 80.8427 148.415 83.4902 147.882 86.4857C147.253 90.0248 147.995 93.2612 148.973 96.6584C149.203 97.4637 149.42 98.2656 149.586 99.0853C149.658 99.4315 149.702 99.7828 149.759 100.137C149.745 100.076 149.73 99.4129 149.727 99.8982C149.728 100.193 149.751 100.487 149.745 100.786C149.699 102.892 149.545 104.916 150.623 106.85C152.663 110.532 157.271 111.54 161.288 110.76C164.915 110.059 168.255 107.596 170.576 104.905C173.2 101.856 175.003 98.4729 176.625 94.8607C177.547 92.8034 178.262 90.6191 177.542 88.3869C177.081 86.9744 176.257 85.7247 175.126 84.717C174.433 84.0982 173.643 83.5806 172.981 82.9256C172.884 82.8288 172.787 82.6932 172.679 82.6124C172.326 82.3557 173.174 83.4841 172.789 82.7514C172.69 82.577 172.245 81.6295 172.489 82.2789C172.734 82.9283 172.534 82.4129 172.506 82.2899C172.45 82.0633 172.389 81.8291 172.333 81.6025C172.32 81.5798 172.242 81.1872 172.262 81.1863C172.302 81.1653 172.271 82.1679 172.312 81.4559C172.319 81.3236 172.251 80.4028 172.39 80.3193C172.478 80.2729 172.116 81.1848 172.347 80.717C172.442 80.5189 172.497 80.2527 172.559 80.0327C172.631 79.7774 172.843 79.6947 172.55 80.0176C172.168 80.4374 172.539 80.053 172.647 79.897C172.755 79.7411 172.883 79.5843 172.967 79.4216C173.214 78.9648 172.245 80.209 172.902 79.5446C174.236 78.1956 174.789 75.9988 173.745 74.3432C172.642 72.6008 170.814 71.9525 168.752 72.2379L166.399 72.5589C164.046 72.88 162.397 75.6977 163.011 77.7985C163.721 80.2329 165.92 81.335 168.434 80.9877L170.787 80.6667L166.637 73.36C164.031 76.0049 162.977 79.4145 163.426 82.9738C163.592 84.2864 164.033 85.5911 164.692 86.7508C165.575 88.3046 166.816 89.3425 168.178 90.4646C168.465 90.697 168.717 90.958 168.996 91.1945C169.647 91.7568 169.002 91.0235 168.855 90.8551L168.786 90.6251C168.9 91.1171 168.899 91.0783 168.803 90.508C168.831 89.5559 168.812 90.4145 168.705 90.7178C168.477 91.3912 168.166 92.0292 167.873 92.6782C168.283 91.7604 167.767 92.8922 167.71 93.0111C167.491 93.4628 167.267 93.907 167.043 94.3512C166.409 95.5657 165.717 96.7516 164.929 97.8795C164.717 98.1796 164.492 98.4763 164.272 98.7806C163.564 99.7576 164.89 98.1567 164.062 99.0302C163.472 99.649 162.889 100.264 162.224 100.824C162.083 100.938 161.126 101.732 162.037 101.022C161.749 101.243 161.411 101.432 161.102 101.616C160.792 101.8 160.421 101.948 160.108 102.144C159.271 102.656 161.108 101.919 160.133 102.15C159.932 102.198 159.74 102.26 159.539 102.307L159.241 102.367C158.758 102.445 158.839 102.442 159.492 102.372C159.354 102.474 158.753 102.399 158.587 102.398C158.388 102.395 158.193 102.38 157.994 102.357C158.654 102.461 158.751 102.469 158.29 102.368C157.37 102.097 159.106 102.912 158.324 102.409C157.542 101.907 159.077 103.134 158.395 102.48C157.713 101.826 158.94 103.385 158.499 102.553L158.718 103.049C158.629 102.563 158.618 102.599 158.697 103.139C158.679 101.432 158.807 99.8352 158.571 98.1259C158.179 95.286 157.011 92.611 156.591 89.7762C156.728 90.7097 156.609 89.8453 156.603 89.6515C156.598 89.3878 156.601 89.1199 156.616 88.8553C156.624 88.7231 156.759 88.1779 156.686 88.0684L156.581 88.6473C156.615 88.4712 156.646 88.3068 156.693 88.1341C156.817 87.6243 156.974 87.117 157.159 86.624L157.256 86.3753C157.44 85.9523 157.391 86.0475 157.112 86.6686C157.267 86.5767 157.39 86.1368 157.489 85.9657C157.798 85.417 158.166 84.9163 158.537 84.4037C159.105 83.6189 157.822 85.1482 158.498 84.4636C158.753 84.2005 158.994 83.9341 159.257 83.6862C159.7 83.2638 160.328 82.9112 160.725 82.4635C160.031 83.2459 160.223 82.8186 160.655 82.5402C160.885 82.3985 161.123 82.2526 161.369 82.1218C161.616 81.9911 161.854 81.8645 162.097 81.7455C162.256 81.6612 162.424 81.592 162.6 81.5185C163.063 81.332 162.931 81.3726 162.235 81.6427C162.847 81.5352 163.453 81.2534 164.072 81.1223C164.341 81.0682 164.607 81.0259 164.88 80.9794C165.364 80.92 165.239 80.937 164.529 81.0175C164.707 81.0022 164.889 80.9945 165.075 80.9944C165.35 80.9866 165.621 80.9906 165.897 81.0022C166.193 81.013 167.474 81.1915 166.123 80.981C167.352 81.1773 168.413 81.206 169.566 80.5943C170.544 80.0755 171.473 79.0503 171.753 77.9944C172.29 75.934 171.195 73.0231 168.709 72.6356L168.719 72.5809Z" fill="#9F490D"/>
<path d="M118.883 95.7198C122.156 99.7735 129.561 99.7063 132.863 95.5941C134.472 93.5901 135.127 90.9616 136.922 89.1044C137.495 88.5148 138.188 87.9896 138.503 87.2525C139.277 85.416 137.278 83.5673 135.298 83.0449C131.49 82.048 127.463 83.5369 123.889 85.2075C123.245 85.51 122.57 85.8486 122.198 86.4296C121.531 87.4721 122.051 88.7886 122.112 90.0048C122.224 92.403 120.057 94.7135 117.551 94.8639L118.883 95.7198Z" fill="#9F490D"/>
<path d="M115.617 98.7514C118.691 102.416 124.106 103.657 128.799 102.732C131.167 102.263 133.511 101.097 135.255 99.4734C137.108 97.7518 138.045 95.5812 139.238 93.4617C139.428 93.1243 139.792 92.2721 140.14 92.0674C139.57 92.4094 139.769 92.4512 140.056 92.1911C140.314 91.9554 140.572 91.7003 140.823 91.4495C142.165 90.0479 143.079 88.5098 143.196 86.5874C143.367 83.6129 141.108 80.8545 138.451 79.5968C133.257 77.1266 127.316 78.8912 122.357 81.129C120.674 81.8943 119.134 82.8587 118.202 84.4558C117.185 86.1765 117.308 88.0112 117.573 89.8786L117.615 90.1712C117.664 90.5487 117.668 90.5563 117.624 90.1863C117.591 89.8197 117.583 89.8239 117.596 90.1914C117.559 90.6539 117.588 90.5597 117.675 89.913C117.63 89.9071 117.593 90.4782 117.511 90.4429C117.806 89.8531 117.84 89.7665 117.619 90.1788L117.466 90.4177C117.056 91.2061 118.19 89.8561 117.473 90.3942L117.261 90.5853C116.876 90.8884 116.967 90.8303 117.546 90.3949C117.608 90.431 117.044 90.6217 117.046 90.6604C117.737 90.4217 117.848 90.382 117.373 90.5263C116.899 90.6202 117.004 90.6234 117.688 90.5361C115.734 90.7164 113.734 91.6696 113.212 93.679C112.69 95.6885 113.474 97.4872 115.196 98.5912L116.53 99.4484C118.483 100.705 121.604 99.9056 122.729 97.9207C123.961 95.7608 123.298 93.3372 121.212 91.993L119.878 91.1359L117.386 99.191C119.976 98.9487 122.351 98.0918 124.108 96.1458C126.063 93.986 126.791 91.4835 126.474 88.6886C126.461 88.5381 126.236 87.6142 126.319 87.541C126.319 87.541 126.243 88.5358 126.364 87.6746C126.431 87.1566 126.213 88.2466 126.164 88.361C126.029 88.6689 125.73 88.887 125.589 89.1487C125.356 89.5576 125.595 89.195 125.877 89.0551C126.338 88.8301 126.808 88.6202 127.282 88.4179C127.68 88.2459 128.124 87.9906 128.553 87.891C127.326 88.1681 128.949 87.7695 129.213 87.6885C129.652 87.5534 130.089 87.4302 130.526 87.3263C130.898 87.2368 131.641 86.961 132.019 87.0456C131.384 86.91 131.439 87.0781 131.854 87.0643C132.129 87.0564 132.407 87.0368 132.69 87.044C132.908 87.0463 133.131 87.0562 133.353 87.066C133.515 87.0785 134.206 87.2039 133.608 87.0784C133.01 86.9529 134.278 87.2938 134.429 87.3222C134.974 87.4268 133.72 86.9109 134.163 87.2367C134.942 87.8077 134.097 87.0846 134.086 87.1006C134.101 87.0728 134.545 87.5458 134.595 87.5785C135.073 87.8564 134.097 86.829 134.359 87.2904C134.642 87.7896 134.081 86.3648 134.217 86.9129C134.33 87.3846 134.199 86.2629 134.226 86.1107C134.295 85.7398 134.501 85.5024 134.66 85.1819C134.894 84.7032 134.593 85.2467 134.448 85.3923C134.077 85.7568 133.713 86.1171 133.371 86.5152C131.858 88.2533 131.031 90.2177 129.868 92.1538C129.749 92.3448 129.638 92.5316 129.507 92.7193C129.376 92.907 129.173 93.4773 129.397 92.9255C129.583 92.4527 129.491 92.8362 129.295 93.0189C129.17 93.1443 129.037 93.274 128.908 93.3918C128.779 93.5097 128.62 93.6133 128.495 93.7387C128.08 94.1361 129.34 93.261 128.811 93.5122C128.437 93.6908 127.956 93.9167 127.612 94.1483C127.125 94.4558 128.545 93.8799 127.979 94.0125C127.759 94.0607 127.539 94.1476 127.323 94.2033C127.143 94.2497 126.966 94.2844 126.782 94.3233C126.641 94.3486 126.513 94.3774 126.376 94.3909C126.034 94.4443 126.191 94.4298 126.851 94.3551C126.533 94.2487 125.823 94.3991 125.467 94.3911C125.284 94.3795 125.098 94.3603 124.916 94.3488C124.126 94.305 125.597 94.5288 125.107 94.3755C124.727 94.2522 124.308 94.1694 123.92 94.0698C123.207 93.8872 124.144 94.1183 124.212 94.22C124.132 94.115 123.605 93.9322 123.485 93.8676C123.333 93.7811 123.18 93.6753 123.02 93.5931C122.234 93.1735 123.717 94.2567 123.074 93.6527C122.744 93.3453 122.427 93.0412 122.137 92.6934C120.663 90.9358 117.333 91.0393 115.755 92.6446C113.942 94.4923 114.044 96.8896 115.626 98.7665L115.617 98.7514Z" fill="#9F490D"/>
</svg>
