<svg width="149" height="115" viewBox="0 0 149 115" fill="none" xmlns="http://www.w3.org/2000/svg">
<path d="M32.7106 107.106C33.3995 107.303 34.0807 107.365 34.7885 107.262C35.4534 107.165 36.0524 106.84 36.5683 106.422L36.824 106.114C36.9391 105.946 37.0069 105.761 37.0246 105.56C37.082 105.24 37.0609 104.864 36.886 104.574C36.1435 103.326 35.3227 102.122 34.4362 100.974L34.1289 100.718L33.7702 100.552C33.4444 100.449 33.1025 100.469 32.7842 100.582C32.1904 100.797 31.8106 101.322 31.7566 101.95C31.6673 102.981 31.5752 104.013 31.4858 105.044C31.4138 105.853 32.1412 106.662 32.9546 106.669C33.8207 106.676 34.5039 106.063 34.5792 105.2C34.6686 104.169 34.7607 103.137 34.85 102.106C33.9545 102.432 33.0617 102.756 32.1676 103.084C32.456 103.458 32.7377 103.839 33.0097 104.228L32.7703 103.888C33.2534 104.576 33.7077 105.283 34.1386 106.005L34.4592 104.156C34.4154 104.193 34.3674 104.228 34.3222 104.262L34.6621 104.022C34.5168 104.119 34.367 104.2 34.2031 104.261L34.5944 104.12C34.3877 104.193 34.1806 104.238 33.9591 104.255L34.3577 104.222C34.121 104.237 33.8894 104.221 33.656 104.182L34.045 104.252C33.9061 104.227 33.7739 104.194 33.639 104.156C33.2493 104.044 32.8202 104.072 32.4574 104.26C32.1193 104.436 31.7951 104.793 31.6928 105.167C31.4792 105.959 31.8702 106.873 32.7024 107.11L32.7106 107.106Z" fill="white"/>
<path d="M35.4359 99.6463C36.4989 100.12 37.7079 100.351 38.8725 100.315C39.1439 100.307 39.4177 100.269 39.6623 100.142C39.9674 99.9835 40.1989 99.7236 40.3424 99.4152C40.6146 98.8305 40.4858 98.2062 40.0833 97.7137C39.3631 96.8312 38.6004 95.9812 37.8049 95.1623C37.529 94.8797 37.1437 94.689 36.7457 94.6688C36.3478 94.6486 35.8902 94.8026 35.616 95.0811C35.3418 95.3597 35.1246 95.7344 35.1225 96.1403C35.1205 96.5463 35.2393 96.9698 35.5349 97.27C36.3289 98.0863 37.0916 98.9362 37.8133 99.8215L39.0241 97.2202C38.5298 97.2362 38.036 97.1995 37.5469 97.1115L37.9359 97.1816C37.394 97.0792 36.8692 96.9155 36.3655 96.6919C36.0279 96.5392 35.4973 96.6333 35.184 96.7961C34.8459 96.9718 34.5216 97.3287 34.4194 97.703C34.3171 98.0772 34.3157 98.5248 34.5235 98.8845L34.7629 99.2244C34.9503 99.4238 35.1727 99.5631 35.4331 99.6477L35.4359 99.6463Z" fill="white"/>
<path d="M40.7949 96.3301C41.5606 97.374 42.5243 98.322 43.5968 99.0494C44.0757 99.3731 44.6836 99.5355 45.2555 99.4269C46.0816 99.27 46.6812 98.5292 46.721 97.6987C46.7413 97.3146 46.6421 96.9019 46.5739 96.5219C46.515 96.207 46.4519 95.8907 46.3806 95.5787C46.2229 94.8787 46.0349 94.1875 45.8165 93.505C45.6855 93.0983 45.5028 92.7534 45.1292 92.5181C44.8131 92.3193 44.3446 92.2171 43.9789 92.3129C43.5856 92.4159 43.1984 92.6381 42.992 93.0001C42.8045 93.3313 42.6673 93.7727 42.7867 94.1504C42.9833 94.7639 43.155 95.3833 43.3018 96.0087C43.4486 96.634 43.5896 97.2415 43.6589 97.8652L43.6264 97.4667C43.6287 97.5249 43.628 97.5706 43.6192 97.6276L43.6894 97.2385L43.6735 97.2887L43.8398 96.93L43.8155 96.9775L44.0713 96.6701C44.0509 96.6981 44.0264 96.7249 43.9976 96.7433L44.3375 96.5039L44.2935 96.5268C44.423 96.4804 44.5553 96.4326 44.6848 96.3863C44.6531 96.3993 44.6214 96.4053 44.5867 96.4058L44.9852 96.3733C44.9479 96.3753 44.9118 96.3731 44.8771 96.3667L45.2661 96.4369C45.1868 96.4187 45.1144 96.3935 45.0404 96.3586L45.3991 96.5249C45.1043 96.3673 44.8346 96.1304 44.5778 95.9183L44.8852 96.174C44.2002 95.6013 43.5888 94.9485 43.0594 94.2252C42.8443 93.932 42.3483 93.7499 42.0002 93.7317C41.6161 93.7113 41.1447 93.8655 40.8705 94.1441C40.5964 94.4226 40.3791 94.7973 40.3771 95.2033L40.4096 95.6018C40.4707 95.8807 40.5963 96.1226 40.7894 96.333L40.7949 96.3301Z" fill="white"/>
<path d="M50.7392 94.302C51.7495 95.0373 52.814 95.6955 53.9271 96.2657C54.5304 96.5737 55.1566 96.9325 55.8184 97.0844C56.7695 97.3024 57.7965 97.2366 58.5291 96.5035C59.0475 95.9828 59.123 95.3083 58.8496 94.6545C58.2538 93.2186 57.658 91.7828 57.0608 90.3442C56.9155 89.9973 56.5021 89.692 56.154 89.5796C55.8059 89.4672 55.3074 89.4888 54.9724 89.6838C54.6373 89.8788 54.318 90.1913 54.2078 90.5907C54.0976 90.99 54.1437 91.3744 54.312 91.7722C54.9078 93.2081 55.5036 94.6439 56.1008 96.0825L56.4213 94.2334C56.3681 94.2855 56.3175 94.3293 56.2573 94.3745L56.5971 94.1351C56.5354 94.1707 56.4762 94.198 56.4115 94.228L56.8028 94.0876C56.7105 94.1181 56.6221 94.1361 56.5267 94.1473L56.9252 94.1148C56.7729 94.1241 56.6273 94.1125 56.4787 94.0885L56.8677 94.1586C56.5842 94.1035 56.3167 94.0051 56.053 93.8872L56.4116 94.0535C54.9952 93.3965 53.6515 92.604 52.389 91.6856C51.7318 91.2067 50.647 91.477 50.2532 92.1703C49.8148 92.9391 50.0358 93.7947 50.7379 94.3061L50.7392 94.302Z" fill="white"/>
<path d="M65.9529 90.6308C67.6192 90.6936 69.2897 90.7578 70.956 90.8207C71.4551 90.8407 71.8994 90.6343 72.2149 90.254C72.4896 89.9228 72.703 89.3861 72.5466 88.9507C72.2496 88.1101 71.9142 87.2965 71.4493 86.5292C70.9844 85.7619 70.458 85.051 69.8549 84.4009C69.5239 84.0458 69.0711 83.8865 68.5978 83.9229C68.1495 83.9604 67.6198 84.1972 67.4103 84.6271C66.9242 85.6266 66.4395 86.622 65.9534 87.6215C65.7708 87.9956 65.6571 88.3479 65.7481 88.7719C65.8288 89.1488 66.0971 89.5645 66.4354 89.7588C66.7737 89.953 67.1925 90.0671 67.5857 89.964C67.979 89.861 68.3926 89.6426 68.5726 89.2768C69.0587 88.2773 69.5434 87.2819 70.0295 86.2824L67.5849 86.5087C67.9259 86.8761 68.2408 87.2605 68.5297 87.6689L68.2903 87.329C68.8486 88.1281 69.297 88.9913 69.6298 89.9075L69.4894 89.5161L69.5169 89.5961L71.1076 87.726C69.4413 87.6631 67.7708 87.5989 66.1045 87.536C65.2963 87.5056 64.4863 88.1638 64.4799 89.0048C64.4735 89.8459 65.0864 90.5957 65.9487 90.6294L65.9529 90.6308Z" fill="white"/>
<path d="M79.4423 84.2721C81.253 84.4449 83.0674 84.403 84.8779 84.2059C85.3564 84.1528 85.7575 83.749 85.9493 83.3387C86.1504 82.9061 86.1635 82.4071 85.9296 81.9771C85.1181 80.4822 83.9847 79.221 82.6075 78.2295C81.9377 77.7467 80.8836 78.029 80.4716 78.7142C79.9326 79.6051 79.6146 80.6325 79.592 81.6775C79.5726 82.4869 80.21 83.2973 81.0608 83.3021C81.9115 83.307 82.6655 82.6954 82.6854 81.8333C82.6913 81.5894 82.7167 81.3493 82.7587 81.1076L82.6885 81.4966C82.7591 81.1353 82.8674 80.7928 83.0174 80.4566L82.8511 80.8152C82.925 80.6617 83.0044 80.5122 83.0922 80.3653L80.9563 80.8501C81.1343 80.9775 81.304 81.1093 81.4737 81.248L81.1664 80.9923C81.7938 81.5146 82.3489 82.1128 82.8233 82.7775L82.5839 82.4376C82.8021 82.7501 83.0038 83.0712 83.1849 83.4064L84.2367 81.1775C83.9891 81.2049 83.7428 81.2281 83.4951 81.2486L83.8937 81.2161C82.4642 81.3269 81.0273 81.3159 79.5995 81.1814C78.792 81.1052 77.9804 81.841 77.975 82.6502C77.9704 83.5217 78.5835 84.1911 79.4438 84.2748L79.4423 84.2721Z" fill="white"/>
<path d="M88.7415 73.9779C90.5639 73.9248 92.3892 73.7829 94.1978 73.5554C94.7316 73.4876 95.1965 72.9982 95.3496 72.5068C95.5252 71.9513 95.3592 71.4301 95.0102 70.9866C94.1778 69.9355 93.1164 69.0278 91.9507 68.3697C91.5985 68.1687 91.2271 67.9847 90.8561 67.8283C90.0766 67.5037 89.1642 67.8102 88.6898 68.4895C88.4377 68.8508 88.3545 69.2954 88.2432 69.7128C88.1475 70.0662 88.0533 70.4223 87.9576 70.7757C87.7467 71.559 88.1352 72.4951 88.9672 72.7192C89.7478 72.9315 90.688 72.5443 90.9107 71.7096C91.0704 71.11 91.1937 70.4804 91.4035 69.8967L91.2373 70.2553C91.2532 70.2121 91.2762 70.1757 91.3076 70.142L91.0519 70.4494L91.1039 70.4084L90.764 70.6478L90.8218 70.6247L90.4305 70.7652L90.49 70.7587L90.0915 70.7912L90.1539 70.7972L89.7649 70.727C89.8567 70.7491 89.9376 70.7839 90.0213 70.8242L89.6627 70.6579C90.3815 71.0001 91.0517 71.4234 91.6663 71.9279L91.359 71.6721C91.8657 72.0966 92.3289 72.5716 92.74 73.0875L93.5523 70.5187C92.7558 70.6184 91.9619 70.7027 91.1607 70.7663L91.5592 70.7339C90.6708 70.8044 89.7849 70.8528 88.8944 70.879C88.472 70.8925 88.0815 70.9941 87.7647 71.2913C87.4915 71.545 87.2737 71.9723 87.2712 72.3506C87.2667 73.1348 87.8773 74.001 88.74 73.9751L88.7415 73.9779Z" fill="white"/>
<path d="M93.2988 62.2877C95.5237 62.1896 97.7723 62.0966 99.9419 61.5559C100.585 61.3963 101.162 60.8138 101.167 60.1169C101.171 59.4199 100.761 58.7848 100.087 58.5624C99.7122 58.4394 99.3483 58.2968 98.9871 58.1389C98.6677 58.0011 99.3026 58.2961 98.9871 58.1389C98.8977 58.0945 98.8125 58.0515 98.7232 58.0072C98.55 57.9156 98.3753 57.8214 98.2089 57.7228C97.8692 57.5258 97.543 57.3078 97.2235 57.0758C97.0778 56.97 96.9389 56.8571 96.7972 56.7457C96.706 56.6709 96.7454 56.7063 96.9179 56.8436C96.88 56.8109 96.8435 56.781 96.8056 56.7484C96.7186 56.6749 96.6356 56.5958 96.5499 56.5182C96.1423 56.1435 95.6514 55.9377 95.0922 56.0572C94.5329 56.1767 94.1165 56.578 93.9404 57.1058C93.6993 57.8175 93.5586 58.5748 93.5162 59.3264C93.4719 60.1348 94.1508 60.9445 94.985 60.951C95.8192 60.9575 96.562 60.3447 96.6096 59.4822C96.617 59.3352 96.6272 59.1868 96.6457 59.041C96.653 58.9744 96.6617 58.9105 96.6704 58.8467C96.6893 58.7217 96.7771 58.5749 96.6588 58.8981C96.7585 58.6264 96.7995 58.3224 96.8921 58.0438L94.2785 58.6301C95.6924 59.9272 97.3231 60.9162 99.1502 61.5169L99.2923 58.5248C98.293 58.7717 97.2744 58.9274 96.2479 59.0278C96.1386 59.0392 96.0279 59.0478 95.9186 59.0592C95.7485 59.0743 95.772 59.0726 95.9892 59.054C95.9159 59.0606 95.8411 59.0646 95.7678 59.0712C95.5118 59.0891 95.2515 59.1055 94.9941 59.1206C94.4792 59.1508 93.9627 59.1712 93.4477 59.1944C93.0212 59.2135 92.6403 59.3067 92.318 59.6068C92.0448 59.8604 91.8269 60.2877 91.8245 60.666C91.8185 61.4405 92.4293 62.3275 93.2933 62.2906L93.2988 62.2877Z" fill="white"/>
<path d="M97.5707 51.4479C99.3834 51.2079 101.192 50.9666 103.004 50.7265C103.611 50.6451 104.09 50.0475 104.195 49.4834C104.302 48.8832 104.044 48.2249 103.509 47.9021C102.897 47.5292 102.28 47.1549 101.667 46.782L100.744 46.2213C100.375 45.9943 100.008 45.7381 99.6012 45.5865C98.9546 45.3429 98.2165 45.461 97.6958 45.9235C97.294 46.2789 97.1418 46.8257 96.9608 47.3107C96.7094 47.9824 96.4579 48.654 96.2092 49.3243C95.9245 50.0866 96.4397 51.0581 97.2188 51.2677C98.0633 51.4957 98.8575 51.0692 99.1622 50.2581C99.3259 49.8206 99.4895 49.383 99.6532 48.9454C99.7357 48.728 99.8168 48.5079 99.8993 48.2904C99.9339 48.1957 99.9699 48.1037 100.004 48.0089C100.05 47.8877 100.256 47.4911 100.012 47.9423L99.756 48.2497L99.8091 48.1907L99.4692 48.4301L99.527 48.4001C99.396 48.4437 99.2638 48.4915 99.1342 48.5378L99.1949 48.5202L98.7964 48.5527C98.9045 48.5525 98.8836 48.5458 98.7323 48.5302C98.6034 48.5239 98.4863 48.4799 98.3771 48.4041C98.4236 48.4532 98.5127 48.4837 98.5701 48.5202L99.054 48.8134L99.9771 49.3741C100.605 49.7564 101.233 50.1388 101.865 50.5225L102.37 47.698C100.558 47.938 98.7491 48.1794 96.9364 48.4194C96.1331 48.5261 95.5454 49.4911 95.7443 50.257C95.971 51.1236 96.7205 51.565 97.5818 51.4492L97.5707 51.4479Z" fill="white"/>
<path d="M102.394 43.9127C104.006 45.2677 105.786 46.3222 107.78 47.0173C109.058 47.4603 110.233 45.9943 109.622 44.8247C108.722 43.1041 107.819 41.3806 106.916 39.6614C106.664 39.1776 106.165 38.8542 105.617 38.828C105.029 38.7983 104.57 39.0964 104.229 39.5492C103.777 40.1506 103.326 40.7547 102.877 41.3546C102.391 42.005 102.674 43.1007 103.362 43.4904C104.137 43.9356 104.976 43.7024 105.497 43.0057C105.949 42.4043 106.4 41.8002 106.849 41.2003L104.165 41.0867C105.066 42.8073 105.969 44.5307 106.872 46.25L108.714 44.0574C108.306 43.9168 107.911 43.7553 107.515 43.5841C107.365 43.5158 107.394 43.5319 107.603 43.6257C107.543 43.5975 107.483 43.5693 107.423 43.5412C107.334 43.4968 107.244 43.4525 107.155 43.4082C106.964 43.3086 106.775 43.2076 106.588 43.1024C106.215 42.8879 105.85 42.6622 105.495 42.4169C105.32 42.2949 105.144 42.1702 104.974 42.0384C104.894 41.9787 104.817 41.9176 104.74 41.8564C104.688 41.817 104.637 41.7735 104.584 41.7313C104.764 41.8824 104.793 41.9055 104.664 41.798C104.341 41.5259 104.046 41.3268 103.605 41.3045C103.221 41.2842 102.749 41.4383 102.475 41.7169C102.201 41.9954 101.984 42.3701 101.982 42.7761C101.98 43.1821 102.081 43.646 102.394 43.9058L102.394 43.9127Z" fill="white"/>
<path d="M107.095 37.0392C108.164 38.3832 109.232 39.7272 110.3 41.0712C110.676 41.5461 111.423 41.6537 111.955 41.4612C112.487 41.2687 113.002 40.708 112.982 40.0931C112.925 38.2486 112.642 36.4269 112.056 34.675C111.893 34.1871 111.668 33.8262 111.189 33.6036C110.748 33.3998 110.266 33.399 109.827 33.6233C109.389 33.8476 108.943 34.072 108.502 34.2977C107.779 34.6664 107.426 35.6666 107.842 36.3862C108.257 37.1057 109.158 37.4409 109.93 37.0466C110.371 36.8209 110.814 36.5979 111.255 36.3721L109.026 35.3204C109.471 36.6464 109.754 38.0178 109.87 39.4098L109.837 39.0112C109.861 39.3198 109.879 39.6285 109.888 39.9415C110.783 39.6159 111.676 39.2918 112.57 38.9634C111.502 37.6194 110.434 36.2754 109.365 34.9314C108.861 34.2964 107.732 34.2861 107.177 34.8503C106.55 35.4862 106.553 36.3576 107.095 37.0392Z" fill="white"/>
<path d="M114.149 32.2293C114.184 34.2737 114.335 36.3177 114.604 38.3461C114.682 38.9545 115.284 39.4342 115.847 39.5363C116.475 39.6499 117.066 39.3706 117.428 38.851C117.92 38.1451 118.413 37.442 118.905 36.7361C119.492 35.8971 119.891 34.971 119.523 33.9473C119.203 33.0627 118.491 32.6124 117.674 32.2482C117.559 32.1959 117.443 32.1479 117.328 32.0998C117.269 32.0744 117.211 32.0489 117.152 32.0235C116.913 31.9205 117.498 32.1997 117.285 32.0838C117.177 32.0245 117.072 31.9638 116.967 31.8961C116.756 31.765 117.266 32.2088 117.071 31.9818C117.026 31.9285 116.979 31.8793 116.937 31.8246L117.176 32.1645L117.144 32.1151C116.904 31.7613 116.66 31.4866 116.237 31.3505C115.873 31.2356 115.39 31.2597 115.055 31.4547C114.72 31.6497 114.401 31.9622 114.291 32.3615C114.19 32.7316 114.169 33.2099 114.395 33.5431C114.673 33.9572 114.925 34.2484 115.343 34.5343C115.63 34.7307 115.964 34.8641 116.281 35.0033C116.388 35.0487 116.496 35.0942 116.603 35.1396C116.652 35.1596 116.698 35.1811 116.747 35.2011C116.274 35.0103 116.495 35.0803 116.606 35.1382C116.692 35.184 116.811 35.2971 116.901 35.3165C116.845 35.3035 116.568 35.0044 116.755 35.2038C116.792 35.2406 116.824 35.2831 116.854 35.3269L116.615 34.987C116.653 35.0474 116.686 35.1106 116.713 35.1767L116.573 34.7854C116.573 34.7854 116.617 34.951 116.614 34.9524L116.592 34.702C116.583 34.8185 116.588 34.8018 116.609 34.6546C116.658 34.3851 116.605 34.6117 116.586 34.6771C116.541 34.7845 116.547 34.7706 116.606 34.6353C116.669 34.5013 116.673 34.4888 116.618 34.5907C116.439 34.8512 116.266 35.1157 116.084 35.3776C115.66 35.9855 115.237 36.5892 114.813 37.197L117.637 37.702C117.576 37.2346 117.519 36.7686 117.472 36.3011C117.447 36.0659 117.424 35.8335 117.404 35.5997C117.397 35.5333 117.394 35.4654 117.387 35.399C117.38 35.3096 117.38 35.3096 117.387 35.399C117.394 35.4885 117.394 35.4885 117.387 35.399C117.381 35.3326 117.377 35.2648 117.373 35.197C117.306 34.2614 117.265 33.3227 117.249 32.385C117.236 31.5747 116.653 30.7677 115.78 30.7604C114.988 30.7533 114.142 31.3635 114.156 32.2292L114.149 32.2293Z" fill="white"/>
<path d="M122.497 35.6968C121.854 36.7224 121.245 37.7681 120.677 38.8382C120.326 39.4989 119.902 40.1691 119.82 40.9241C119.76 41.4612 119.942 42.0472 120.318 42.4418C120.613 42.7531 121.072 42.9926 121.506 42.9942C121.94 42.9958 122.295 42.8532 122.636 42.5819C122.682 42.5438 122.729 42.5056 122.78 42.4688L122.44 42.7082C122.84 42.4305 123.31 42.2943 123.758 42.1073C124.356 41.8556 124.971 41.4318 125.284 40.8465C125.494 40.458 125.64 40.0471 125.656 39.5993C125.669 39.1211 125.56 38.7169 125.389 38.279C125.174 37.7378 124.792 37.2588 124.413 36.8241C123.88 36.2144 122.797 36.1591 122.224 36.7429C121.621 37.3563 121.573 38.2784 122.143 38.9319C122.278 39.0849 122.407 39.245 122.529 39.4122L122.289 39.0723C122.428 39.2724 122.553 39.4797 122.641 39.7097L122.501 39.3184C122.546 39.4452 122.577 39.5722 122.591 39.7077L122.559 39.3092C122.566 39.4033 122.562 39.4962 122.551 39.5892L122.621 39.2002C122.602 39.2975 122.575 39.3879 122.539 39.4799L122.706 39.1213C122.664 39.2092 122.615 39.2903 122.557 39.366L122.813 39.0587C122.727 39.1625 122.631 39.2471 122.522 39.325L122.862 39.0856C122.543 39.2997 122.182 39.4245 121.827 39.5602C121.351 39.7449 120.919 39.983 120.528 40.3188L122.048 39.9794L122 39.9663L122.358 40.1325C122.329 40.1233 122.302 40.1057 122.277 40.0839L122.584 40.3396L122.556 40.3054L122.796 40.6453C122.779 40.6192 122.764 40.5917 122.753 40.5628L122.893 40.9541C122.883 40.921 122.877 40.8893 122.872 40.8533L122.905 41.2518C122.899 41.1743 122.907 41.1008 122.919 41.0244L122.849 41.4134C122.867 41.3341 122.89 41.2631 122.918 41.1893L122.751 41.5479C123.426 40.098 124.262 38.7037 125.114 37.3536C125.547 36.668 125.357 35.6318 124.629 35.2177C123.901 34.8037 122.953 34.968 122.493 35.7024L122.497 35.6968Z" fill="white"/>
<path d="M22.9417 90.8663C20.5404 94.3408 20.2771 99.176 22.2867 102.89C23.211 104.602 24.7467 106.16 26.6786 106.378C28.0388 106.531 29.391 105.996 30.5561 105.275C31.761 104.531 32.9094 103.442 33.0677 102.033C33.2966 99.9943 31.4418 98.4061 29.8669 97.088C27.3727 95.0013 25.1383 92.6085 23.2272 89.978" fill="#598E44"/>
<path d="M21.6326 90.0388C19.9472 92.5061 19.213 95.5544 19.4515 98.5198C19.6899 101.485 20.9467 104.63 23.3667 106.574C24.6785 107.627 26.2912 108.078 27.9564 107.89C29.6216 107.702 31.178 106.841 32.4451 105.82C33.7123 104.798 34.6892 103.286 34.633 101.625C34.5735 99.8375 33.553 98.357 32.2959 97.16C31.6533 96.5479 30.9535 96.0004 30.289 95.4135C29.5587 94.7736 28.8556 94.1056 28.1743 93.4124C26.7962 92.0094 25.526 90.5051 24.3668 88.9186C23.887 88.2638 22.7166 88.2888 22.1779 88.8375C21.5299 89.4918 21.5816 90.3236 22.0967 91.0264C23.9581 93.5746 26.1111 95.9049 28.5133 97.9487C29.0384 98.395 29.573 98.8328 30.0722 99.31C30.317 99.5459 30.5549 99.7889 30.7764 100.047C30.8272 100.105 31.0957 100.36 31.0872 100.437C31.0872 100.437 30.9254 100.186 31.0235 100.348C31.0747 100.433 31.1328 100.518 31.184 100.603C31.2651 100.739 31.3379 100.88 31.4025 101.024C31.4269 101.078 31.481 101.175 31.4931 101.239C31.435 100.885 31.4466 101.095 31.4617 101.178C31.4693 101.22 31.5876 101.616 31.5519 101.634C31.5354 101.643 31.557 101.247 31.5414 101.587C31.5374 101.687 31.5376 101.788 31.5267 101.888C31.5206 101.944 31.4676 102.184 31.5225 101.974C31.5774 101.764 31.5223 101.96 31.5117 101.994C31.4827 102.085 31.4479 102.348 31.3698 102.406C31.4726 102.328 31.4896 102.18 31.3952 102.34C31.3587 102.405 31.3251 102.468 31.2845 102.531C31.198 102.673 31.0975 102.802 30.9998 102.937C30.8737 103.11 31.1948 102.734 31.0392 102.885C30.986 102.937 30.9356 102.994 30.8838 103.049C30.7788 103.156 30.6654 103.261 30.5533 103.361C30.4522 103.448 30.3496 103.533 30.2455 103.615C30.2127 103.639 30.113 103.736 30.062 103.752C30.232 103.636 30.2676 103.61 30.1703 103.678C30.1237 103.709 30.0771 103.741 30.0305 103.772C29.7698 103.942 29.4994 104.1 29.2259 104.246C29.072 104.326 28.9166 104.403 28.7611 104.473C28.6813 104.508 28.6015 104.542 28.5244 104.575C28.4473 104.608 28.1947 104.754 28.4914 104.592C28.2084 104.746 27.8099 104.779 27.499 104.832C27.4727 104.835 27.2599 104.869 27.4465 104.845C27.6456 104.819 27.3815 104.848 27.3302 104.85C27.1377 104.856 26.949 104.835 26.759 104.826C26.4748 104.809 26.7865 104.811 26.8175 104.844C26.7964 104.824 26.6437 104.805 26.6006 104.796C26.4602 104.761 26.3181 104.716 26.1816 104.668C26.1134 104.644 26.0464 104.616 25.9767 104.59C25.8234 104.53 25.8552 104.611 26.0368 104.618C25.9258 104.613 25.7503 104.463 25.6524 104.402C25.5251 104.325 25.4047 104.241 25.2828 104.154C25.2492 104.13 25.1331 104.061 25.1048 104.02C25.2353 104.217 25.2593 104.156 25.1567 104.059C24.9177 103.841 24.6926 103.616 24.4824 103.373C24.3836 103.257 24.2876 103.139 24.1943 103.02C24.1603 102.975 24.1264 102.929 24.091 102.882C23.9099 102.64 24.1302 102.91 24.1321 102.94C24.1208 102.838 23.9419 102.648 23.8879 102.558C23.7983 102.412 23.7157 102.267 23.6372 102.115C23.4931 101.845 23.3599 101.568 23.2406 101.285C23.1874 101.162 23.1397 101.037 23.0893 100.913C22.9798 100.642 23.1105 100.94 23.1112 100.982C23.1085 100.896 23.0298 100.738 23.0008 100.655C22.8158 100.071 22.6791 99.4715 22.5907 98.8647C22.5645 98.6933 22.5452 98.5218 22.526 98.3503C22.5196 98.2977 22.5019 98.0486 22.5163 98.2645C22.5324 98.4971 22.5107 98.1663 22.5086 98.122C22.4908 97.7786 22.4882 97.4309 22.5009 97.0858C22.5135 96.7406 22.54 96.3952 22.5818 96.0523C22.5953 95.9371 22.5853 95.5618 22.6658 95.4816C22.6658 95.4816 22.6092 95.7623 22.6481 95.5885C22.6688 95.494 22.6868 95.4009 22.7075 95.3064C22.8616 94.6154 23.0742 93.936 23.3495 93.2834C23.3708 93.2304 23.3964 93.1787 23.4177 93.1257C23.5701 92.7673 23.2684 93.4162 23.4446 93.0699C23.5226 92.9177 23.5991 92.7627 23.6841 92.6104C23.8606 92.2918 24.0526 91.9826 24.2585 91.6802C24.7164 91.0094 24.4825 89.9476 23.7738 89.5443C23.0246 89.1167 22.127 89.3107 21.638 90.029L21.6326 90.0388Z" fill="#598E44"/>
<path d="M22.9452 88.6362C24.1813 89.9942 25.4173 91.3523 26.652 92.7076C28.3334 94.5533 30.0625 96.4371 32.2791 97.586C33.1478 98.0353 34.1145 98.3709 35.0901 98.2934C36.0656 98.216 37.0491 97.6632 37.4146 96.7542C37.835 95.7155 37.3832 94.5435 36.8979 93.5355C34.9655 89.5267 32.3895 85.8313 29.2961 82.6317C28.7596 82.0761 28.0537 81.4899 27.3072 81.6857C26.7332 81.8373 26.3803 82.4011 26.0862 82.9169C25.3605 84.1875 24.639 85.4594 23.9132 86.7301L22.9479 88.6348L22.9452 88.6362Z" fill="#73B25F"/>
<path d="M21.8082 89.6891C23.1035 91.1141 24.3974 92.5363 25.6954 93.9599C26.9018 95.281 28.1354 96.567 29.5559 97.6687C30.9765 98.7703 32.5779 99.6558 34.3416 99.8321C36.2592 100.023 38.2772 98.9954 38.9284 97.1177C39.5386 95.3626 38.6559 93.5626 37.8742 92.0244C37.034 90.3734 36.0825 88.7769 35.0308 87.2497C33.9267 85.6486 32.7433 84.1096 31.4407 82.6639C30.1382 81.2183 28.5391 79.41 26.4617 80.3566C25.3556 80.8614 24.8164 82.0141 24.2473 83.0149C23.724 83.9361 23.1965 84.8559 22.6732 85.777C22.2968 86.4368 21.9751 87.1345 21.6323 87.8117C21.2666 88.5323 21.344 89.5078 22.117 89.9476C22.7907 90.3306 23.8616 90.2351 24.2528 89.4628C25.1711 87.6558 26.1623 85.9017 27.1672 84.1405C27.2657 83.9672 27.3614 83.7953 27.4613 83.6247C27.5099 83.5436 27.5558 83.4639 27.6086 83.3841C27.6032 83.3939 27.8733 83.0336 27.729 83.1994C27.6065 83.3398 27.8084 83.1372 27.8357 83.109C27.9665 82.9643 27.7297 83.1536 27.6983 83.1804L27.6293 83.2023C27.7633 83.178 27.7647 83.1739 27.6319 83.187C27.499 83.1932 27.4976 83.1974 27.6306 83.1981L27.4361 83.1596C27.4361 83.1596 27.6306 83.1981 27.6282 83.2203C27.6233 83.2578 27.3443 83.0501 27.5488 83.1883C27.6229 83.237 27.7012 83.2801 27.7741 83.3331C27.8189 83.3656 28.0136 83.5053 27.8356 83.3709C27.6576 83.2365 28.0015 83.529 28.0452 83.5727C28.1887 83.7146 28.3281 83.862 28.4634 84.0082C29.6184 85.2303 30.6996 86.5187 31.6987 87.8707C31.8161 88.0296 31.9336 88.1885 32.0483 88.3488C32.0355 88.331 32.3146 88.7271 32.187 88.542C32.0794 88.3885 32.2565 88.6421 32.2778 88.6764C32.5173 89.0232 32.7499 89.3701 32.9771 89.7268C33.4341 90.4319 33.8678 91.1526 34.2796 91.8847C34.6913 92.6167 35.0852 93.3616 35.4502 94.1179C35.5962 94.4191 35.7284 94.7274 35.8592 95.0329C35.9483 95.238 35.7731 94.753 35.8346 94.9654C35.8551 95.0385 35.8812 95.1088 35.9017 95.1819C35.9486 95.3461 35.9747 95.5105 36.0146 95.6748C36.0785 95.9523 36.0293 95.6358 36.0191 95.6027C36.0438 95.6771 36.0248 95.7952 36.0219 95.8769C36.0202 95.9476 36.0089 96.0199 36.0059 96.0947C35.9993 96.2971 36.092 95.8371 36.0159 96.0267C35.9906 96.0922 35.9668 96.1674 35.9471 96.2369C35.8961 96.4345 36.0934 96.0213 35.9712 96.1825C35.9278 96.24 35.8859 96.3072 35.8522 96.37C35.7645 96.5238 36.0666 96.1714 35.8562 96.3575C35.8015 96.4068 35.7427 96.4549 35.6894 96.5069C35.4369 96.7533 35.904 96.4025 35.7087 96.4969C35.5739 96.56 35.4393 96.6369 35.3045 96.6999C35.1092 96.7944 35.5875 96.6332 35.3733 96.6712C35.3001 96.6848 35.2257 96.7095 35.1511 96.7272C35.0766 96.745 35.0018 96.749 34.9273 96.7667C34.7602 96.8012 35.2059 96.7721 34.9148 96.7628C34.7332 96.7559 34.5514 96.7351 34.3697 96.7283C34.1521 96.7192 34.6118 96.791 34.399 96.7375C34.3183 96.7166 34.2405 96.7012 34.1598 96.6802C33.8204 96.5913 33.4997 96.4646 33.1776 96.3283C33.511 96.4728 32.9988 96.2327 32.9191 96.1868C32.764 96.1033 32.6088 96.0129 32.4564 95.921C32.1347 95.7251 31.8197 95.5152 31.5184 95.2913C31.339 95.1611 31.1665 95.0238 30.9898 94.8852C30.7583 94.7018 30.9463 94.8485 30.9898 94.8852C30.8887 94.7981 30.7876 94.711 30.6865 94.6239C30.369 94.342 30.0611 94.0517 29.76 93.7543C29.1564 93.1568 28.5773 92.5326 28.0023 91.9028C26.6901 90.4656 25.3794 89.0242 24.0686 87.5828C23.5231 86.9831 22.4621 86.9094 21.8796 87.5017C21.2972 88.094 21.2136 89.0485 21.7985 89.6906L21.8082 89.6891Z" fill="#73B25F"/>
<path d="M31.5273 77.4335C30.222 78.5828 30.0042 80.5356 31.0236 81.9468L37.9449 91.4937C38.7235 92.5692 39.5275 93.6666 40.7941 94.2233C41.2377 94.4187 41.7228 94.5193 42.2057 94.4813C44.3631 94.3136 45.0739 91.8988 44.8305 89.9587C44.578 87.9676 43.682 86.1152 42.6564 84.3895C40.9366 81.4956 38.8186 78.8364 36.383 76.5132C35.8416 75.9951 35.1974 75.4606 34.447 75.4944C34.202 75.5065 33.9675 75.5794 33.7418 75.6757C33.4418 75.8036 33.169 75.9907 32.923 76.2093L31.5315 77.4348L31.5273 77.4335Z" fill="#598E44"/>
<path d="M30.4773 76.3003C29.5223 77.1699 28.9301 78.3816 28.8462 79.6714C28.7622 80.9612 29.1901 82.02 29.8981 83.0066C30.2847 83.5492 30.6782 84.0849 31.0689 84.6219C32.6318 86.7771 34.1947 88.9323 35.759 91.0902C36.1129 91.5765 36.4626 92.0616 36.8165 92.548C37.5541 93.5646 38.3356 94.5583 39.4129 95.2344C40.7392 96.0673 42.3025 96.2745 43.7573 95.6548C44.9548 95.1445 45.7758 93.943 46.1408 92.7306C46.5242 91.4528 46.4909 90.1053 46.2132 88.8114C45.6355 86.1339 44.1582 83.6865 42.615 81.4617C41.7704 80.2459 40.8779 79.0654 39.9033 77.9486C39.0442 76.9602 38.1435 75.9655 37.1467 75.115C36.6019 74.651 36.0202 74.2166 35.307 74.0531C34.4379 73.8518 33.5659 73.9941 32.7871 74.4301C32.1085 74.8106 31.5355 75.3805 30.9532 75.8925L30.4857 76.3029C29.8774 76.8388 29.8193 77.9162 30.4046 78.4918C30.9898 79.0674 31.9415 79.1455 32.5935 78.5729C32.9694 78.2415 33.348 77.9087 33.7239 77.5773C33.7963 77.5152 33.8674 77.4504 33.9398 77.3883C33.9549 77.377 33.9685 77.3629 33.9849 77.3474C34.0725 77.274 34.3359 77.1092 34.097 77.2473C34.152 77.2188 34.415 77.0263 34.4708 77.0531C34.4792 77.0558 34.1783 77.1283 34.3675 77.0893C34.4268 77.076 34.4848 77.0598 34.5427 77.0437C34.8132 76.973 34.3511 77.0176 34.6066 77.0524C34.3109 77.014 34.5415 77.0548 34.6919 77.1023C34.8868 77.1617 34.4693 76.9561 34.632 77.0811C34.6741 77.1151 34.7312 77.1378 34.7761 77.1703C34.8012 77.1852 35.0603 77.3613 35.0549 77.371C35.0508 77.3766 34.8343 77.1749 34.9678 77.2976C35.0086 77.3357 35.0536 77.3752 35.0971 77.412C35.2081 77.5114 35.315 77.6164 35.4205 77.7187C35.8762 78.1591 36.321 78.6122 36.7535 79.0752C37.6185 80.0012 38.4385 80.9749 39.2037 81.9842C39.3805 82.217 39.5545 82.4512 39.7272 82.6896C39.7683 82.7486 39.8136 82.8088 39.8547 82.8678C39.8618 82.8815 40.0035 83.0802 39.9042 82.9363C39.7951 82.78 39.9681 83.0323 39.9936 83.0679C40.0488 83.1474 40.1055 83.2296 40.158 83.3106C40.5111 83.8357 40.8547 84.3694 41.1804 84.9157C41.7976 85.9425 42.3571 86.9993 42.7996 88.1133C42.8096 88.1325 42.8892 88.353 42.827 88.1794C42.7647 88.0058 42.8416 88.2276 42.8488 88.2483C42.9011 88.4027 42.9506 88.5585 42.996 88.7129C43.0808 89.004 43.1533 89.2979 43.2146 89.5907C43.243 89.7261 43.2659 89.8642 43.2888 90.0024C43.2996 90.0702 43.3675 90.5166 43.335 90.2996C43.3026 90.0826 43.3412 90.4325 43.3408 90.4921C43.3442 90.6264 43.3421 90.7567 43.3359 90.8926C43.3318 90.9855 43.3402 91.5326 43.2647 91.5753C43.2592 91.5782 43.3532 91.2082 43.268 91.5212C43.2536 91.5741 43.2406 91.6297 43.2249 91.6868C43.1894 91.8134 43.1525 91.9373 43.1046 92.0599C43.086 92.1115 43.0632 92.1617 43.0446 92.2133C42.9889 92.3748 43.0845 92.1087 43.0983 92.1016C43.0542 92.1175 42.9689 92.3364 42.9419 92.3853C42.8987 92.4566 42.7785 92.5679 42.7603 92.6472C42.7938 92.4832 42.9443 92.4504 42.8105 92.5757C42.7586 92.6236 42.7123 92.6756 42.659 92.7208C42.6207 92.7546 42.5768 92.7844 42.54 92.821C42.417 92.9337 42.655 92.7333 42.6647 92.7318C42.6009 92.73 42.4434 92.8502 42.383 92.8816C42.1328 93.0116 42.6426 92.8305 42.3581 92.8875C42.3015 92.8995 42.2463 92.9142 42.1883 92.9234C42.151 92.9323 42.1123 92.9384 42.0722 92.9418C41.9616 92.9574 41.9948 92.9541 42.1732 92.9347C42.142 92.9754 41.8641 92.9243 41.8127 92.9195C41.5312 92.9017 41.9981 92.9873 41.7293 92.9C41.6124 92.8631 41.4996 92.8274 41.3867 92.7848C41.3602 92.7741 41.1829 92.6882 41.3393 92.7675C41.4957 92.8468 41.2624 92.7202 41.2372 92.7054C41.1086 92.6325 40.9869 92.5527 40.8678 92.4714C40.7613 92.3941 40.5844 92.2416 40.7867 92.4228C40.5886 92.243 40.3945 92.0575 40.2114 91.8595C39.8463 91.4592 39.5237 91.0264 39.2052 90.588C38.8867 90.1495 38.5569 89.696 38.2341 89.2494C36.8014 87.2709 35.3673 85.2966 33.9346 83.3182L32.3787 81.1699C32.3263 81.0959 32.2697 81.0205 32.2173 80.9465C32.2088 80.93 32.196 80.9122 32.182 80.8986C32.1805 80.8958 32.1777 80.8903 32.1762 80.8876C32.1748 80.8848 32.3505 81.1357 32.3505 81.1357C32.3177 81.0724 32.2696 81.0136 32.2326 80.9491C32.1686 80.8392 32.1115 80.7293 32.0584 80.6137C32.037 80.5725 32.0248 80.502 31.9951 80.465C31.9994 80.4733 32.0871 80.7698 32.0499 80.6041C32.0276 80.5006 31.9942 80.4027 31.9745 80.2977C31.9654 80.2466 31.9563 80.1955 31.9472 80.1444C31.9081 79.9413 31.9654 80.1524 31.9472 80.2316C31.9954 80.0355 31.9566 79.766 31.9742 79.5579C31.9896 79.3928 31.9568 79.6856 31.9499 79.6927C31.9704 79.6716 31.9813 79.5716 31.9864 79.5411C32.0192 79.4228 32.059 79.3113 32.1002 79.1957C32.1931 78.931 31.9622 79.414 32.111 79.1761C32.1744 79.0699 32.2337 78.9623 32.307 78.8614C32.3233 78.839 32.3996 78.7574 32.4006 78.7325C32.4008 78.7463 32.1976 78.9531 32.3177 78.8349C32.4105 78.7448 32.495 78.652 32.5892 78.5647C33.189 78.0192 33.2626 76.9582 32.6703 76.3758C32.078 75.7933 31.1235 75.7097 30.4814 76.2946L30.4773 76.3003Z" fill="#598E44"/>
<path d="M39.5683 73.429C37.9353 74.8079 38.4746 77.9626 39.9396 79.5193C41.7074 81.397 42.1767 83.2546 43.1255 85.652C43.9645 87.7643 44.986 89.939 46.8353 91.2612C47.802 91.9528 48.9403 92.3633 50.0842 92.6906C51.3338 93.0467 52.668 93.3101 53.9292 92.983C55.1905 92.6559 56.3392 91.5949 56.3787 90.2933C56.3947 89.7195 56.2018 89.1599 55.9968 88.6242C54.2877 84.098 51.7743 79.8779 48.6073 76.2208C47.6763 75.1476 46.6724 74.1088 45.4368 73.4102C44.2013 72.7117 42.6917 72.3928 41.3393 72.8266L39.5627 73.4249L39.5683 73.429Z" fill="#73B25F"/>
<path d="M38.5117 72.293C37.0108 73.6103 36.742 75.8478 37.2555 77.6895C37.5298 78.6745 37.9719 79.5793 38.6242 80.3714C38.9236 80.7325 39.2461 81.0711 39.5331 81.4421C39.8201 81.8131 39.3667 81.169 39.6011 81.5394C39.672 81.6492 39.743 81.7589 39.8112 81.8701C39.9676 82.124 40.1102 82.385 40.2445 82.6503C41.2522 84.6506 41.803 86.8463 42.863 88.8264C43.4065 89.8391 44.0647 90.8306 44.8904 91.6339C45.8245 92.5449 46.9067 93.1835 48.1126 93.6636C50.2609 94.5198 52.8264 95.1244 55.0487 94.2282C55.9918 93.8465 56.8948 93.1051 57.388 92.2066C58.028 91.0399 58.0406 89.7941 57.6085 88.5525C55.9471 83.7956 53.2902 79.3464 50.0359 75.5077C48.2945 73.4523 46.2744 71.573 43.5136 71.1502C42.5887 71.0093 41.6439 71.1057 40.7576 71.402C40.2532 71.5733 39.7501 71.7405 39.2456 71.9117C38.4821 72.1688 37.8266 72.8758 38.0535 73.7493C38.2463 74.4834 39.071 75.2174 39.8911 74.9415C40.2921 74.8064 40.696 74.6699 41.0971 74.5349C41.2748 74.4739 41.4554 74.4116 41.6346 74.3534C41.7214 74.3257 41.8055 74.2995 41.8953 74.2773C42.0098 74.2492 42.1231 74.2253 42.2377 74.2041C42.3151 74.1918 42.3925 74.1796 42.4686 74.1715C42.2831 74.184 42.2457 74.186 42.3593 74.1828C42.5769 74.185 42.7901 74.1789 43.0038 74.2006C43.1134 74.21 43.2479 74.2134 43.355 74.245C43.0405 74.1501 43.2425 74.2232 43.3148 74.2415C43.543 74.3045 43.7753 74.3618 43.9996 74.4443C44.0943 74.4788 44.1863 74.5148 44.2756 74.5522C44.6409 74.7045 44.137 74.4601 44.4012 74.6126C44.8331 74.8595 45.232 75.1165 45.6328 75.411C45.9929 75.6742 45.4134 75.2038 45.7464 75.502C45.8139 75.5647 45.8827 75.6232 45.9529 75.6845C46.1904 75.8997 46.4197 76.1262 46.6408 76.3569C47.3702 77.1159 48.0478 77.9298 48.6994 78.7607C49.0357 79.1864 49.3625 79.6205 49.681 80.0589C49.7674 80.1781 49.8552 80.3001 49.9388 80.4207C49.7688 80.1809 49.9558 80.4468 49.9969 80.5057C50.1797 80.7703 50.3598 81.0363 50.5344 81.3051C51.7504 83.1622 52.8198 85.12 53.7227 87.1468C53.9423 87.6436 54.1537 88.1446 54.3555 88.6472C54.4463 88.8758 54.5344 89.1058 54.6239 89.3385C54.784 89.7475 54.5415 89.0253 54.6602 89.4488C54.7027 89.5978 54.7507 89.7439 54.7849 89.8972C54.8087 90.0035 54.8298 90.1112 54.8426 90.2232C54.8 89.8858 54.821 90.2554 54.8248 90.3233C54.8409 90.65 54.9325 90.0334 54.8278 90.3426C54.808 90.4053 54.7828 90.4777 54.7685 90.5375C54.6863 90.863 54.9458 90.2674 54.766 90.5528C54.7105 90.6409 54.6551 90.7291 54.6024 90.8158C54.4443 91.0759 54.6678 90.7469 54.6638 90.7525C54.658 90.8288 54.4238 91.0028 54.3664 91.0536C54.335 91.0804 54.1577 91.2632 54.1188 91.2555C54.2077 91.2722 54.4014 91.0738 54.1474 91.2232C54.0801 91.2617 53.6837 91.52 53.6179 91.4808L53.8095 91.4127C53.7433 91.4331 53.6743 91.455 53.6067 91.4727C53.5267 91.4933 53.4425 91.5126 53.3638 91.5291C53.2408 91.5545 53.1191 91.5689 52.9919 91.5861C53.3707 91.529 52.8534 91.5882 52.7703 91.5895C52.5611 91.59 52.3517 91.5766 52.1449 91.5549C52.0201 91.5429 51.8951 91.5241 51.7688 91.5094C51.4842 91.4723 51.7285 91.5059 51.7827 91.5161C51.2797 91.4214 50.7859 91.2905 50.2973 91.1429C49.8087 90.9953 49.37 90.8496 48.921 90.664C48.8806 90.6466 48.4815 90.463 48.7984 90.616C48.7188 90.5771 48.6392 90.5381 48.5624 90.4978C48.29 90.3565 48.0244 90.2013 47.7695 90.0265C47.6981 89.9763 47.6252 89.9234 47.5538 89.8733C47.5131 89.842 47.1845 89.559 47.45 89.7945C47.2533 89.6175 47.0621 89.4375 46.8831 89.2408C46.7324 89.0783 46.5899 88.9114 46.4542 88.7376C46.3722 88.6336 46.2957 88.5267 46.2151 88.4185C46.44 88.717 46.1809 88.3594 46.1526 88.3183C45.0356 86.5982 44.4011 84.631 43.6568 82.7347C43.2097 81.5986 42.6738 80.5401 41.9588 79.5467C41.65 79.1136 41.2963 78.7284 40.9521 78.3278C40.8914 78.2581 40.8363 78.1855 40.7811 78.1129C40.6074 77.8995 40.9885 78.445 40.7568 78.0662C40.6573 77.9015 40.566 77.7325 40.4844 77.5619C40.4429 77.4753 40.4027 77.3845 40.3667 77.295C40.3466 77.2496 40.3306 77.2055 40.3133 77.1586C40.2713 77.0443 40.2888 77.0981 40.3726 77.3198C40.3964 77.1573 40.2278 76.8261 40.1919 76.6562C40.1635 76.5209 40.1803 76.177 40.104 76.077L40.121 76.2846C40.1159 76.221 40.1135 76.1559 40.1125 76.0935C40.1125 75.9993 40.111 75.9024 40.1151 75.8095C40.1192 75.7166 40.126 75.6223 40.1343 75.5307C40.1403 75.4683 40.1477 75.4086 40.1578 75.3475C40.1142 75.5726 40.1039 75.6268 40.1285 75.5128C40.1866 75.329 40.2308 75.1385 40.2931 74.956C40.3951 74.6552 40.108 75.2651 40.2757 74.9965C40.3217 74.9237 40.362 74.8469 40.4108 74.7727C40.5395 74.5837 40.6004 74.6742 40.3683 74.8052C40.4549 74.7568 40.5415 74.628 40.6208 74.5589C41.2305 74.0257 41.2872 72.9456 40.7019 72.37C40.1167 71.7944 39.165 71.7163 38.513 72.2888L38.5117 72.293Z" fill="#73B25F"/>
<path d="M50.9804 69.8593C49.5374 70.6228 49.0069 72.5111 49.3227 74.1134C49.6384 75.7156 50.6102 77.0958 51.5604 78.4208C54.3118 82.2659 57.2893 86.2972 61.6646 88.0875C63.6194 88.8871 66.1148 89.0812 67.6173 87.5991C68.5794 86.649 68.9046 85.192 68.7438 83.8478C68.5831 82.5036 67.9874 81.2562 67.3264 80.0777C65.7434 77.2523 63.7154 74.679 61.344 72.4726C59.012 70.3086 55.9914 68.4115 52.8472 68.9104C51.8673 69.0669 50.9105 69.4627 50.1726 70.1253" fill="#598E44"/>
<path d="M50.2667 68.4853C48.1361 69.6655 47.3258 72.2785 47.8352 74.5761C48.3446 76.8736 50.0382 78.9713 51.4565 80.9085C53.9857 84.3593 56.8602 87.6483 60.85 89.4154C62.8993 90.323 65.5331 90.6826 67.5714 89.54C69.7376 88.3274 70.538 85.8835 70.2576 83.5229C69.9772 81.1622 68.5587 78.9355 67.2488 77.0189C65.8582 74.9872 64.2869 73.0912 62.4779 71.4165C60.8051 69.8629 58.9048 68.4694 56.7157 67.7496C54.152 66.9067 51.2106 67.1712 49.1189 68.9839C48.5051 69.5157 48.4567 70.5985 49.0378 71.1728C49.6526 71.7784 50.5705 71.8252 51.2267 71.2539C51.3319 71.1608 51.4414 71.0691 51.5551 70.9856C51.266 71.1951 51.6499 70.9398 51.6898 70.9156C51.8944 70.7988 52.109 70.7013 52.3279 70.612C52.0003 70.7473 52.4314 70.5827 52.4741 70.5709C52.5652 70.5446 52.6576 70.521 52.7488 70.5016C52.8854 70.469 53.0249 70.4419 53.1673 70.4203C53.2516 70.4079 53.7545 70.3142 53.3262 70.3901C53.6785 70.3292 54.081 70.3715 54.4361 70.4034C54.5457 70.4128 54.6568 70.4249 54.7665 70.4413C54.7887 70.4437 55.1403 70.5158 54.8984 70.46C54.6564 70.4042 55.0096 70.486 55.0305 70.4926C55.1737 70.5264 55.3184 70.563 55.4617 70.6037C55.8221 70.7062 56.1746 70.8337 56.5191 70.9794C56.586 71.0075 56.9456 71.1418 56.5748 70.9993C56.6794 71.0393 56.7815 71.1014 56.8806 71.1512C57.0845 71.2547 57.2857 71.3666 57.4856 71.4826C58.2127 71.9078 58.935 72.3912 59.5671 72.9495C59.2581 72.6772 59.702 73.0679 59.7848 73.1401C59.9646 73.298 60.1389 73.4588 60.3146 73.6223C60.7027 73.9863 61.0811 74.3586 61.4487 74.7437C62.1851 75.5095 62.8847 76.312 63.5406 77.1511C63.7187 77.3797 63.894 77.6098 64.0681 77.844C64.1261 77.9221 64.1841 78.0001 64.2394 78.0796C64.2606 78.107 64.5382 78.5004 64.337 78.2139C64.6686 78.6909 64.9865 79.1751 65.292 79.6691C65.8391 80.5543 66.3644 81.4647 66.7686 82.4241C66.8059 82.5095 66.8378 82.5976 66.8751 82.6829C67.0506 83.1014 66.7956 82.3821 66.9243 82.818C66.9915 83.0414 67.0573 83.262 67.112 83.4884C67.1684 83.7314 67.2604 84.0361 67.2435 84.2858C67.2646 83.9502 67.2357 84.1363 67.2356 84.2236C67.2338 84.3746 67.2417 84.5241 67.2343 84.678C67.2333 84.703 67.1932 85.2439 67.1779 85.2414L67.21 85.0746C67.1959 85.1483 67.1776 85.2206 67.1608 85.2957C67.1334 85.4042 67.1018 85.5113 67.0674 85.6199C67.045 85.691 67.0156 85.7621 66.9917 85.8303C66.8669 86.1814 67.1607 85.5575 66.9744 85.8777C66.8894 86.0231 66.7642 86.3465 66.6132 86.4389L66.7275 86.3027C66.6771 86.3603 66.628 86.4137 66.5748 86.4658C66.5039 86.5375 66.4301 86.6038 66.3521 86.6687L66.3056 86.7069C66.1632 86.8157 66.181 86.803 66.3592 86.6756C66.3117 86.7456 66.1299 86.8121 66.0557 86.8507C65.987 86.8864 65.914 86.9138 65.8467 86.9523C65.5087 87.1348 66.1697 86.8752 65.7999 86.9765C65.5695 87.0369 65.3432 87.0986 65.1054 87.1314C65.0308 87.1422 64.6568 87.2353 65.0267 87.1478C64.9177 87.1731 64.7733 87.1573 64.6611 87.1563C64.4546 87.1553 64.2494 87.1432 64.0441 87.1242C63.9192 87.1123 63.7969 87.092 63.6734 87.076C63.6026 87.0673 63.398 87.0095 63.6928 87.0798C63.4286 87.0146 63.1659 86.9591 62.9042 86.8786C62.4893 86.7521 62.0851 86.5921 61.6902 86.4097C62.0278 86.5625 61.651 86.3882 61.5994 86.3627C61.524 86.325 61.4528 86.2887 61.3801 86.2497C61.1259 86.1164 60.8729 85.9721 60.6254 85.8249C60.2744 85.6128 59.9313 85.3826 59.5965 85.1412C59.3961 84.9974 59.1999 84.8481 59.0049 84.6945C58.9404 84.6443 58.8772 84.5898 58.8127 84.5396C59.1213 84.7842 58.7004 84.4443 58.647 84.3953C57.2524 83.1824 56.0336 81.777 54.8972 80.3218C54.247 79.4867 53.6255 78.6332 53.0082 77.7741C52.8552 77.5603 52.7009 77.3438 52.5479 77.13C52.269 76.7409 52.7251 77.3905 52.4544 76.9971C52.3722 76.8792 52.2886 76.7586 52.2078 76.6365C51.8617 76.1182 51.5333 75.5801 51.2655 75.0176C51.214 74.9117 51.1666 74.8002 51.1206 74.6915C51.0932 74.6254 51.0659 74.5593 51.0385 74.4933C51.0952 74.6628 51.0951 74.6559 51.0356 74.4808C50.9566 74.2147 50.8833 73.9526 50.8361 73.6804C50.8194 73.5809 50.7827 73.4498 50.7922 73.3471C50.7554 73.7467 50.8018 73.3387 50.803 73.2403C50.805 73.0089 50.7965 72.7305 50.8665 72.5092C50.8533 72.5509 50.787 72.8332 50.8619 72.5674C50.9026 72.4241 50.9391 72.2794 50.9882 72.1387C50.9963 72.1206 51.1197 71.7737 51.0306 72.012C50.9481 72.2294 51.1237 71.8485 51.1493 71.8037C51.2061 71.7114 51.2684 71.6232 51.3308 71.5349C51.5259 71.252 51.0984 71.7394 51.3554 71.5151C51.4375 71.4446 51.5167 71.3686 51.5945 71.2967C51.7314 71.1907 51.7081 71.2063 51.5218 71.3449C51.5849 71.3052 51.6467 71.2696 51.7127 71.2353C52.4202 70.8433 52.7988 69.8857 52.3731 69.1469C51.9474 68.4081 51.043 68.0646 50.2847 68.4864L50.2667 68.4853Z" fill="#598E44"/>
<path d="M64.0902 61.8211C61.146 62.7118 59.9187 66.491 60.7708 69.4482C61.6229 72.4055 63.9317 74.6793 66.1986 76.7585C68.0242 78.4316 69.9023 80.0914 72.0939 81.2393C74.2854 82.3872 76.8511 82.9987 79.263 82.4473C80.6615 82.1292 82.1041 81.2507 82.3843 79.8415C82.5397 79.0521 82.3 78.2412 82.0154 77.4919C80.5253 73.5954 77.7008 70.3085 74.3945 67.7674C71.0882 65.2264 67.3049 63.373 63.4615 61.7532" fill="#73B25F"/>
<path d="M63.7689 60.3063C61.5533 61.007 59.9885 62.7589 59.3314 64.9748C58.6744 67.1906 58.9636 69.5885 59.9882 71.6952C61.1059 73.9944 62.9455 75.8558 64.7995 77.57C66.6534 79.2842 68.4633 80.9271 70.5969 82.1784C72.5446 83.3204 74.753 84.1244 77.0263 84.2001C79.2997 84.2757 81.8016 83.6357 83.2294 81.7141C84.8377 79.5487 83.5118 76.6874 82.3992 74.6195C81.2865 72.5516 79.696 70.4911 77.935 68.7879C74.3765 65.3446 70.0225 62.9639 65.5276 60.9705C64.9975 60.7362 64.4661 60.5061 63.9306 60.2817C63.1804 59.9663 62.1916 60.5358 61.9872 61.2913C61.7527 62.1636 62.1963 62.8966 62.9968 63.2347C63.51 63.4498 64.0191 63.6705 64.5311 63.8968C64.7431 63.9891 64.9538 64.0856 65.1672 64.1806C65.2942 64.2369 65.4198 64.2973 65.5468 64.3535C65.2537 64.2195 65.7687 64.4581 65.8189 64.4809C66.7847 64.9356 67.7356 65.4155 68.6745 65.9261C70.5455 66.9473 72.3505 68.097 74.0157 69.4277C74.1251 69.5174 74.2359 69.603 74.3426 69.6942C74.0844 69.4792 74.4395 69.7799 74.4648 69.8017C74.6797 69.9868 74.8918 70.1733 75.0984 70.3627C75.5157 70.7428 75.9195 71.137 76.3123 71.5438C77.0614 72.3205 77.7586 73.1451 78.3942 74.0192C78.4197 74.0549 78.6847 74.4373 78.4805 74.1384C78.5471 74.233 78.6124 74.3318 78.6762 74.4277C78.818 74.6403 78.9558 74.8585 79.0908 75.078C79.3836 75.5543 79.6558 76.0447 79.906 76.5465C80.1376 77.0057 80.3472 77.4763 80.5388 77.9527C80.5892 78.0766 80.6452 78.2046 80.6874 78.3328C80.5665 77.9522 80.6948 78.3673 80.7124 78.428C80.7883 78.6748 80.8364 78.922 80.886 79.172C80.9611 79.545 80.9275 78.8957 80.8904 79.2745C80.8783 79.3925 80.9014 79.5376 80.8615 79.649C80.9862 79.291 80.8487 79.6243 80.8275 79.6911L80.7917 79.79C80.7289 79.9448 80.7396 79.9183 80.8293 79.7146C80.8506 79.749 80.5822 80.1327 80.5436 80.1458L80.6646 79.9957C80.6183 80.0476 80.5678 80.0983 80.5159 80.1462C80.4791 80.1828 80.235 80.4387 80.1918 80.4228C80.2086 80.4281 80.4786 80.2424 80.2659 80.3704C80.1725 80.4259 80.0806 80.4841 79.983 80.5382C79.788 80.6466 79.5884 80.7328 79.3847 80.8177C79.0365 80.9671 79.7255 80.7279 79.3598 80.8236C79.2895 80.8427 79.2205 80.8645 79.1502 80.8836C78.8866 80.9542 78.6145 81.0083 78.345 81.0471C78.2247 81.0642 78.1058 81.0771 77.9855 81.0942C77.5997 81.1446 78.2085 81.0936 77.9647 81.0946C77.7431 81.098 77.523 81.1111 77.3013 81.1076C76.8148 81.0985 76.3347 81.0477 75.8541 80.9693C76.2277 81.03 75.8248 80.96 75.7665 80.9485C75.6483 80.9226 75.5287 80.894 75.4091 80.8653C75.2116 80.8144 75.0154 80.7592 74.8205 80.6999C74.3514 80.5561 73.8956 80.3775 73.4437 80.1864C73.0644 80.0274 73.7286 80.3316 73.3586 80.1503C73.2497 80.0952 73.1395 80.0442 73.0306 79.9891C72.7876 79.864 72.5472 79.7306 72.3096 79.5957C71.8259 79.3164 71.3556 79.0092 70.9017 78.6865C70.4829 78.3909 70.0735 78.08 69.6723 77.7578C69.5643 77.6708 69.4548 77.5811 69.3454 77.4913C69.3945 77.5321 69.5615 77.6723 69.3313 77.4777C69.0814 77.2654 68.8342 77.0517 68.5857 76.8353C66.938 75.3839 65.2663 73.8926 63.9093 72.1541C63.8216 72.0391 63.7367 71.9226 63.6504 71.8104C63.54 71.6583 63.5386 71.6555 63.6378 71.7995C63.5825 71.72 63.5314 71.6418 63.4762 71.5623C63.3201 71.3222 63.1709 71.0821 63.0313 70.8335C62.8675 70.5451 62.7202 70.2481 62.5839 69.9454C62.5264 69.8147 62.4745 69.6811 62.4185 69.5531C62.2746 69.2089 62.4628 69.7325 62.3663 69.4056C62.2873 69.1325 62.2056 68.8678 62.1514 68.5888C62.1123 68.3926 62.0236 68.1211 62.0524 67.9211C62.0012 68.2863 62.0588 67.9806 62.0544 67.8712C62.0493 67.7203 62.0469 67.5679 62.0529 67.4182C62.0577 67.1923 62.075 66.9634 62.102 66.7399C62.1142 66.6358 62.1164 66.5056 62.1508 66.4039C62.0239 66.7979 62.1732 66.326 62.1954 66.2411C62.2502 66.0241 62.312 65.807 62.3877 65.5967C62.4235 65.4908 62.4649 65.389 62.5048 65.2845C62.5329 65.2176 62.5622 65.1464 62.5917 65.0823C62.5033 65.2748 62.4925 65.2944 62.5677 65.1436C62.6837 64.9367 62.7941 64.7328 62.9282 64.5339C62.9797 64.4583 63.034 64.3882 63.0828 64.314C63.1874 64.1794 63.1697 64.1991 63.0282 64.3703C63.0731 64.3156 63.1221 64.2622 63.1684 64.2102C63.3252 64.0415 63.4945 63.8837 63.6738 63.7382C63.8955 63.5602 63.6558 63.6498 63.6353 63.7582C63.6482 63.6957 63.9413 63.5678 64.0018 63.5364C64.098 63.4864 64.1942 63.4365 64.2905 63.3934C64.3552 63.3633 64.424 63.3345 64.4915 63.3099C64.2724 63.3854 64.2462 63.3955 64.4144 63.343C65.1851 63.0997 65.8305 62.3665 65.6066 61.5054C65.4108 60.7589 64.5935 60.0525 63.769 60.3133L63.7689 60.3063Z" fill="#73B25F"/>
<path d="M69.5048 52.9703C67.1682 54.2713 66.054 57.0249 65.5515 59.6526C65.3272 60.8268 65.2029 62.1061 65.7637 63.1587C66.1932 63.9653 66.9653 64.5242 67.7268 65.0292C73.2284 68.6918 79.5409 71.1267 86.0775 72.1118C87.5884 72.3392 89.5038 72.2901 90.1766 70.9178C90.4923 70.2756 90.4181 69.5078 90.2231 68.8167C89.5015 66.2315 87.3384 64.3322 85.2114 62.6971C82.257 60.4235 79.1546 58.342 75.9335 56.4688C73.7134 55.1787 71.267 53.9502 68.712 54.2059" fill="#598E44"/>
<path d="M68.7902 51.5964C66.6354 52.8241 65.301 54.9589 64.5568 57.2759C63.7729 59.7112 63.2433 62.6427 65.0109 64.7753C65.8142 65.7438 66.9899 66.4211 68.0461 67.0767C69.0169 67.6824 70.0136 68.2503 71.0276 68.7777C73.1534 69.8864 75.3629 70.847 77.6291 71.628C79.8954 72.4089 82.0139 72.9525 84.2661 73.3638C85.5651 73.6 86.8281 73.8271 88.1508 73.7124C89.4735 73.5977 90.8164 72.9909 91.456 71.7964C92.8296 69.2397 91.0122 66.1311 89.283 64.2404C87.5538 62.3497 85.296 60.7719 83.1738 59.2738C81.0516 57.7757 78.9218 56.4107 76.7073 55.1246C74.6942 53.9574 72.5593 52.8917 70.2142 52.6578C69.6037 52.598 69.0002 52.6323 68.39 52.6875C67.5807 52.7623 67.0035 53.7813 67.1979 54.525C67.432 55.4192 68.1694 55.7971 69.0355 55.7172C68.6453 55.7523 69.0438 55.7198 69.1131 55.7188C69.2335 55.7155 69.3513 55.7137 69.4691 55.7188C69.7061 55.7248 69.9419 55.742 70.1778 55.766C70.2861 55.7796 70.4288 55.7788 70.5305 55.8132C70.1836 55.6897 70.5277 55.8146 70.6055 55.8301C70.8766 55.8882 71.1479 55.9602 71.4124 56.0393C71.8355 56.1685 72.2508 56.3228 72.6566 56.4924C72.7682 56.5392 72.8784 56.5901 72.99 56.6369C73.3652 56.8015 72.7051 56.4917 73.0723 56.6744C73.3264 56.8007 73.5833 56.9256 73.8347 57.0603C75.8421 58.1223 77.7758 59.3518 79.6644 60.6152C81.5893 61.9016 83.4778 63.2523 85.2765 64.7056C85.6441 65.0033 85.0503 64.5054 85.407 64.8158C85.5152 64.9097 85.6261 65.0022 85.7315 65.0976C85.945 65.2868 86.1572 65.4803 86.3626 65.6808C86.7705 66.0763 87.1592 66.4886 87.5152 66.932C87.6028 67.0401 87.6863 67.1538 87.7726 67.2661C88.0511 67.6276 87.6146 66.9956 87.852 67.3854C87.997 67.6242 88.1461 67.8575 88.2746 68.1049C88.4031 68.3523 88.5165 68.604 88.6203 68.8643C88.4848 68.5297 88.648 68.9581 88.6612 69.0036C88.7094 69.1636 88.7521 69.3264 88.7851 69.4907C88.8047 69.5888 88.8598 69.7487 88.8419 69.8487C88.8469 69.8112 88.845 69.512 88.8344 69.8073C88.8315 69.889 88.8595 70.0909 88.8163 70.1622L88.8457 70.0038C88.8289 70.0789 88.8065 70.1568 88.7813 70.2293C88.6873 70.5992 88.9171 69.9598 88.7422 70.295C88.586 70.5925 88.9724 70.1335 88.7109 70.3356L88.6276 70.4104C88.4893 70.5206 88.5126 70.505 88.6962 70.3677C88.6845 70.4192 88.3405 70.57 88.2878 70.5694L88.4572 70.5058C88.3814 70.5278 88.3055 70.5497 88.2282 70.5689C88.1109 70.5985 87.9893 70.6197 87.8691 70.6368C87.8041 70.6462 87.4026 70.6662 87.7737 70.6549C87.6463 70.6583 87.5203 70.6644 87.3943 70.6636C86.8899 70.6603 86.3902 70.5988 85.893 70.522C85.6374 70.4802 85.3818 70.4384 85.1263 70.3967C84.6984 70.3257 85.4292 70.4557 85.0068 70.375C84.8789 70.3506 84.7511 70.3263 84.6233 70.3019C84.1146 70.2031 83.6072 70.0932 83.1039 69.9777C82.0527 69.7349 81.0093 69.4531 79.975 69.1352C78.9406 68.8173 78.0032 68.491 77.0359 68.1208C76.5523 67.9357 76.0713 67.7423 75.5957 67.539C75.3977 67.4534 75.1996 67.3678 75.0015 67.2822C74.8829 67.2286 74.7658 67.1778 74.6472 67.1242C74.5886 67.0988 74.0904 66.8655 74.4183 67.0197C72.5035 66.1155 70.6491 65.0927 68.8772 63.9327C68.6141 63.7622 68.3537 63.5903 68.0973 63.4058C68.0245 63.3529 67.9487 63.2945 67.8731 63.2431C67.7315 63.1316 67.7273 63.1303 67.8578 63.2405C67.789 63.182 67.7188 63.1207 67.6514 63.0581C67.5501 62.964 67.4544 62.8671 67.3642 62.7674C67.305 62.7004 67.2471 62.6293 67.1892 62.5581C67.2955 62.7158 67.2997 62.7171 67.1975 62.5608C67.1376 62.4453 67.0776 62.3299 67.0204 62.213C66.954 62.045 66.957 62.0574 67.032 62.2488C67.0072 62.1675 66.9865 62.0874 66.9687 62.006C66.939 61.8817 66.9232 61.7573 66.9047 61.6343C66.8868 61.4586 66.8869 61.4655 66.905 61.655C66.9023 61.5692 66.8996 61.4833 66.9011 61.3988C66.902 61.0981 66.9264 60.7957 66.9661 60.4958C66.9772 60.4098 66.9883 60.3237 67.0037 60.2389C67.0162 60.1556 67.0301 60.0681 67.0454 59.9834C67.0149 60.1598 67.015 60.1667 67.0443 60.0014C67.1051 59.722 67.1617 59.4412 67.2336 59.163C67.3746 58.6011 67.5447 58.0485 67.7539 57.5104C67.7993 57.3961 67.8446 57.2818 67.8927 57.1661C67.9234 57.0908 67.9568 57.0141 67.9917 56.9401C67.9113 57.1145 67.9086 57.1229 67.981 56.9666C68.0927 56.7515 68.2029 56.5337 68.3271 56.3225C68.4703 56.0806 68.6232 55.8441 68.7887 55.6185C68.8579 55.5232 68.927 55.421 69.0073 55.3339C68.728 55.6361 69.0933 55.2508 69.1451 55.1959C69.3374 54.9948 69.5409 54.8088 69.7586 54.6364C69.8325 54.5771 70.0819 54.3114 69.8022 54.5928C69.9045 54.4873 70.0863 54.4138 70.2126 54.3412C70.9158 53.941 71.3016 52.9971 70.873 52.2528C70.4659 51.5497 69.5386 51.1623 68.7846 51.5924L68.7902 51.5964Z" fill="#598E44"/>
<path d="M73.4405 42.6621C72.5202 44.8751 71.7308 47.1387 71.0737 49.4419C70.8688 50.1627 70.6766 50.9083 70.7754 51.6494C71.0052 53.3416 72.6279 54.436 74.1003 55.3082C79.4279 58.4678 85.0491 61.7156 91.2385 61.9246C92.2046 61.9568 93.2069 61.9039 94.0731 61.4748C96.0062 60.5125 96.614 57.8859 95.9256 55.8419C95.2373 53.7979 93.5797 52.24 91.8881 50.8987C89.2482 48.8073 86.3679 47.0189 83.3225 45.578C80.4027 44.1976 77.2092 43.1234 73.9971 43.4446" fill="#73B25F"/>
<path d="M71.9633 42.1943C70.991 44.5425 70.1071 46.96 69.476 49.4207C69.1167 50.8255 69.0647 52.2977 69.8466 53.581C70.6284 54.8644 71.7244 55.6704 72.9231 56.4055C76.785 58.7731 80.8403 61.1031 85.1946 62.4295C87.3801 63.0953 89.7692 63.582 92.0645 63.4648C93.4766 63.3944 94.8553 63.0447 95.9165 62.0571C96.762 61.2723 97.3463 60.1729 97.5741 59.0458C97.8019 57.9186 97.8188 56.6881 97.4551 55.5645C96.9997 54.157 96.224 52.9193 95.2221 51.8306C94.3047 50.8306 93.2316 49.9744 92.1575 49.15C91.155 48.3827 90.1213 47.6561 89.055 46.9744C86.9435 45.6243 84.714 44.4438 82.4019 43.4737C80.2626 42.5744 77.965 41.9144 75.6321 41.8383C74.975 41.8166 74.3231 41.8586 73.6688 41.9227C72.8609 42.0003 72.2822 43.0165 72.4766 43.7603C72.7093 44.6517 73.4496 45.0351 74.3142 44.9525C74.7334 44.9127 73.9929 44.9588 74.4152 44.9454C74.5385 44.9407 74.6645 44.9346 74.7919 44.9312C75.0398 44.9246 75.2919 44.9262 75.5415 44.9362C76.0821 44.9556 76.6205 45.011 77.1566 45.0955C77.2108 45.1058 77.6235 45.1811 77.2594 45.1119C77.3831 45.135 77.504 45.1594 77.6291 45.1852C77.8765 45.2382 78.1199 45.2967 78.3619 45.3595C78.8905 45.4968 79.414 45.6577 79.9335 45.8381C80.4113 46.0053 80.8866 46.1877 81.3537 46.3814C81.5894 46.4789 81.8195 46.5792 82.0511 46.6823C82.1655 46.7346 82.2827 46.7854 82.3971 46.8377C82.5562 46.9087 82.5492 46.9088 82.3817 46.8282C82.4613 46.8672 82.5436 46.9047 82.6218 46.9409C83.6784 47.4427 84.7135 47.9906 85.7256 48.5748C87.7149 49.7231 89.611 51.028 91.3985 52.473C91.7702 52.7721 91.1765 52.2742 91.5346 52.5873C91.6442 52.684 91.7551 52.7765 91.8646 52.8732C92.081 53.0679 92.2946 53.2641 92.5014 53.4674C92.946 53.9066 93.3619 54.3712 93.73 54.8782C93.5205 54.5891 93.7911 54.9756 93.8124 55.0099C93.8891 55.1306 93.963 55.2528 94.03 55.3751C94.1697 55.6237 94.2831 55.8824 94.4007 56.1424C94.5844 56.5497 94.3486 55.9077 94.4441 56.2595C94.4721 56.3672 94.5056 56.4719 94.5322 56.5768C94.5885 56.8129 94.6719 57.1011 94.6591 57.3452C94.6791 56.9403 94.6487 57.3052 94.6514 57.391C94.6512 57.4644 94.6524 57.5406 94.6494 57.6155C94.6438 57.7929 94.6752 58.1222 94.5904 58.2814L94.6238 58.1105C94.6097 58.1842 94.5942 58.2551 94.5759 58.3274C94.5512 58.4344 94.5224 58.5402 94.4893 58.6446C94.4563 58.749 94.4219 58.8507 94.3819 58.9552C94.3539 59.0222 94.3286 59.0877 94.2978 59.156C94.389 58.962 94.3969 58.937 94.3216 59.0878C94.2109 59.271 94.1014 59.45 93.9767 59.6265C93.7734 59.9206 94.2226 59.401 93.9589 59.6393C93.881 59.7111 93.8102 59.7898 93.7281 59.8604L93.6488 59.9295C93.5119 60.0355 93.538 60.0185 93.7326 59.8825C93.7168 59.9326 93.4993 60.0246 93.4568 60.0502C93.3441 60.1088 93.2257 60.1632 93.1088 60.2135C93.4432 60.0712 92.9224 60.258 92.8479 60.2758C92.714 60.3069 92.5785 60.3284 92.4431 60.3499C92.4044 60.3561 91.9519 60.3922 92.291 60.3731C92.0128 60.3884 91.7343 60.39 91.4585 60.3832C90.918 60.3707 90.3743 60.3321 89.8372 60.2725C89.5929 60.2458 89.3458 60.2136 89.1028 60.1758C88.982 60.1582 88.8597 60.138 88.7375 60.1177C88.3278 60.0548 89.0502 60.1821 88.6416 60.1012C88.1178 59.9998 87.5964 59.8832 87.0816 59.7457C86.1246 59.4959 85.1846 59.1848 84.2578 58.832C83.7923 58.655 83.3308 58.4654 82.8733 58.2702C82.6431 58.1698 82.4157 58.068 82.1883 57.9663C81.8033 57.7963 82.4731 58.1046 82.0921 57.922C81.9399 57.851 81.7906 57.7785 81.6384 57.7074C79.7484 56.7973 77.9216 55.7601 76.1123 54.6964C75.6397 54.4183 75.1644 54.1416 74.6959 53.8579C74.4203 53.6904 74.1461 53.5187 73.88 53.3357C73.7652 53.2558 73.6504 53.1758 73.541 53.093C73.4667 53.0373 73.3924 52.9817 73.3209 52.9246C73.4514 53.0348 73.4473 53.0335 73.3166 52.9163C73.0833 52.7024 72.8747 52.4757 72.6646 52.2392C72.3926 51.9373 72.7907 52.5088 72.6023 52.1529C72.5367 52.0265 72.3758 51.8378 72.3639 51.6939L72.416 51.8413C72.3898 51.7572 72.3677 51.6744 72.347 51.5874C72.3262 51.5005 72.3124 51.4134 72.2986 51.3263C72.3097 51.509 72.3112 51.5118 72.3029 51.3346C72.3078 51.2029 72.3099 51.0726 72.3217 50.9408C72.3287 50.8534 72.3426 50.7659 72.3537 50.6799C72.3218 50.8535 72.3218 50.8535 72.3537 50.6799C72.9941 48.1027 73.9027 45.5781 74.9178 43.1309C75.229 42.3793 74.6678 41.3933 73.9082 41.1875C73.04 40.9543 72.296 41.3967 71.9648 42.1971L71.9633 42.1943Z" fill="#73B25F"/>
<path d="M75.337 34.1476C74.5775 35.8302 73.8942 37.6931 74.3334 39.4861C74.7743 41.2956 76.2637 42.6442 77.7823 43.7263C80.58 45.7182 83.7396 47.1975 87.0589 48.0772C89.9803 48.8494 93.004 49.1531 96.0138 49.4571C96.8061 49.5377 97.6703 49.6019 98.3397 49.1703C99.1271 48.6635 99.3989 47.6008 99.2281 46.6807C99.0573 45.7607 98.5363 44.9527 98.0227 44.1723C95.6309 40.5628 93.083 36.9819 89.7565 34.2071C86.43 31.4322 82.2105 29.5052 77.8828 29.7148L75.3384 34.1503L75.337 34.1476Z" fill="#598E44"/>
<path d="M73.8571 33.6802C72.7173 36.2166 72.0089 39.1398 73.5873 41.6744C74.4171 43.0096 75.5747 44.0419 76.8413 44.9547C77.9258 45.7387 79.0728 46.4414 80.2572 47.0618C82.7142 48.351 85.3227 49.3137 88.0362 49.8938C89.5041 50.2064 90.9901 50.4397 92.4796 50.6259C93.8636 50.797 95.2773 51.0121 96.6745 51.0542C97.4826 51.0777 98.3524 50.9714 99.0537 50.5408C99.7949 50.086 100.312 49.4157 100.603 48.5979C101.133 47.0906 100.648 45.4785 99.8543 44.1663C99.0609 42.8541 98.1802 41.6291 97.3048 40.3943C96.479 39.2281 95.6162 38.0845 94.6987 36.9904C91.3692 33.0337 87.0052 29.5586 81.8239 28.5082C80.5717 28.2547 79.2987 28.0956 78.0195 28.1598C76.9245 28.2155 76.611 28.8147 76.1604 29.6003L74.1826 33.0503C74.1314 33.1398 74.0801 33.2292 74.0289 33.3187C73.6255 34.0204 73.7658 35.0296 74.5136 35.4545C75.2181 35.8565 76.2205 35.7232 76.6494 34.9698C77.498 33.4922 78.3452 32.0119 79.1938 30.5343L77.8056 31.2555C78.7139 31.2165 79.6221 31.2648 80.5219 31.3977C80.6386 31.4139 80.7579 31.4287 80.8719 31.4532C80.491 31.3718 80.8817 31.4586 80.947 31.4701C81.1388 31.5101 81.3321 31.5528 81.524 31.5997C81.9843 31.7131 82.4408 31.846 82.8879 32.0012C83.303 32.1416 83.71 32.3002 84.1116 32.4685C84.2232 32.5153 84.3293 32.5649 84.4408 32.6117C84.8104 32.7722 84.1532 32.4679 84.5148 32.6466C84.7298 32.7513 84.9448 32.856 85.1571 32.9691C85.9728 33.3971 86.7548 33.881 87.5056 34.4125C87.8642 34.666 88.2147 34.9307 88.5584 35.2025C88.6117 35.2447 88.926 35.5003 88.62 35.2473C88.7295 35.337 88.8376 35.431 88.9457 35.5249C89.1606 35.71 89.3741 35.8993 89.5835 36.0941C90.3861 36.8326 91.1451 37.6217 91.8671 38.4404C92.5891 39.2592 93.2757 40.1172 93.9349 40.9896C94.2503 41.4086 94.5617 41.8333 94.8661 42.2581C94.9511 42.3746 95.0332 42.4924 95.114 42.6076C94.91 42.3156 95.182 42.7049 95.2019 42.7364C95.3663 42.9722 95.5264 43.2066 95.6881 43.4438C96.2948 44.3364 96.9625 45.2252 97.4417 46.1946C97.5059 46.3183 97.5592 46.4477 97.6125 46.5771C97.4888 46.2853 97.6053 46.5633 97.6316 46.6474C97.6624 46.7606 97.6891 46.8724 97.7103 46.987L97.7286 47.0962C97.7479 47.2677 97.7475 47.2469 97.7249 47.0353C97.7646 47.0984 97.7152 47.3056 97.7135 47.3763C97.7148 47.7282 97.7838 47.1757 97.7219 47.379C97.6941 47.4667 97.6665 47.5613 97.6457 47.6489C97.5844 47.8064 97.5952 47.7869 97.6809 47.5957C97.6486 47.6613 97.6108 47.7229 97.5702 47.7859C97.4128 48.0876 97.8041 47.591 97.5457 47.8126C97.2722 48.0454 97.799 47.7089 97.5665 47.8122C97.4866 47.8467 97.2287 48.0087 97.5408 47.857C97.4267 47.9128 97.2799 47.9192 97.1598 47.9432C96.7773 48.0267 97.4262 47.9724 97.0296 47.948C96.9173 47.94 96.8051 47.9459 96.6928 47.938C96.3961 47.9246 96.1018 47.8889 95.8077 47.8602C94.7253 47.7523 93.6443 47.6402 92.5657 47.5058C92.0507 47.4418 91.5356 47.3708 91.0204 47.2928C90.7857 47.2577 90.5538 47.2211 90.3204 47.1818C90.1801 47.1604 90.0412 47.1348 89.9022 47.1093C90.2093 47.1627 89.6493 47.0591 89.5965 47.0516C88.5515 46.8475 87.5141 46.5976 86.4979 46.2877C85.4817 45.9778 84.5537 45.6361 83.6081 45.2337C83.4017 45.1455 83.198 45.0558 82.9971 44.9647C82.5925 44.7839 83.2708 45.1018 82.8715 44.9043C82.75 44.8452 82.63 44.7889 82.5113 44.7284C82.0324 44.492 81.5588 44.2388 81.0948 43.9772C80.1248 43.427 79.1761 42.8237 78.2819 42.1573C78.1725 42.0745 78.0632 41.9916 77.9524 41.9061C77.8808 41.849 77.8093 41.7919 77.7363 41.7321C77.8669 41.8423 77.864 41.8368 77.7279 41.7225C77.5227 41.5359 77.3162 41.3534 77.1234 41.1569C76.8995 40.9276 76.6949 40.6883 76.493 40.4407C76.3023 40.2081 76.4577 40.3996 76.4932 40.4545C76.3926 40.3078 76.296 40.1555 76.2104 39.9975C76.1463 39.8808 76.0849 39.7626 76.0262 39.6429C75.9875 39.5618 75.9516 39.4792 75.9199 39.398C75.975 39.5578 75.9824 39.5854 75.9473 39.471C75.8739 39.2019 75.8172 38.9382 75.7631 38.6661C75.6864 38.2766 75.7597 38.982 75.7521 38.5845C75.7489 38.464 75.7456 38.3435 75.7493 38.2229C75.756 37.9402 75.7904 37.657 75.8304 37.3779C75.7766 37.7515 75.8397 37.3487 75.8526 37.2862C75.8812 37.1666 75.9098 37.047 75.9412 36.9259C76.0159 36.6463 76.1058 36.3692 76.2041 36.0948C76.3832 35.5863 76.5972 35.0911 76.8182 34.5959C77.1517 33.8536 76.5515 32.8529 75.8086 32.6524C74.9195 32.4127 74.2214 32.8696 73.8651 33.662L73.8571 33.6802Z" fill="#598E44"/>
<path d="M96.2061 16.9612C93.1797 17.5525 90.2208 18.4753 87.3941 19.7064C85.6944 20.4462 84.0026 21.3286 82.7757 22.7165C81.5489 24.1043 80.862 26.0948 81.4434 27.8523C81.7442 28.7537 82.3435 29.5244 82.9574 30.2492C87.7062 35.8493 94.0451 40.0822 101.035 42.3224C101.734 42.5457 102.463 42.7533 103.189 42.652C104.414 42.4834 105.383 41.446 105.8 40.2868C106.217 39.1276 106.179 37.8522 106.063 36.6209C105.535 30.975 103.54 25.5817 101.561 20.2672C101.123 19.088 100.648 17.8582 99.6999 17.0277C98.7519 16.1972 97.1782 15.9431 96.2704 16.8161" fill="#73B25F"/>
<path d="M95.8844 15.4458C92.8221 16.0488 89.8246 16.9846 86.9549 18.2136C84.0852 19.4426 81.5775 20.9652 80.2964 23.774C79.743 24.9866 79.5401 26.3765 79.8028 27.6887C80.1124 29.2522 81.1393 30.5235 82.1592 31.6936C83.9308 33.7264 85.9168 35.5605 88.0455 37.2123C90.1742 38.8641 92.3175 40.2012 94.6464 41.365C95.8905 41.9858 97.1615 42.5577 98.4577 43.0572C99.754 43.5567 101.102 44.1164 102.476 44.2198C104.153 44.3435 105.63 43.4575 106.583 42.1279C107.432 40.9468 107.71 39.413 107.694 37.9834C107.654 35.044 107.016 32.0696 106.238 29.2484C105.46 26.4271 104.399 23.4772 103.348 20.6408C102.814 19.204 102.339 17.7511 101.371 16.533C100.403 15.3149 98.8099 14.5997 97.2192 14.7698C96.475 14.8492 95.7778 15.187 95.2286 15.6887C94.6289 16.2342 94.5552 17.2952 95.1475 17.8776C95.7398 18.46 96.6943 18.5436 97.3364 17.9587C97.3719 17.9263 97.4885 17.8483 97.5033 17.8162C97.4898 17.8441 97.2409 17.963 97.3883 17.9108C97.741 17.7835 97.1629 17.9337 97.4418 17.8726C97.4956 17.8621 97.7282 17.846 97.7595 17.8123C97.7309 17.8446 97.3978 17.8082 97.6863 17.8259C97.7584 17.8303 97.8333 17.8333 97.9054 17.8377C97.9414 17.8399 98.1342 17.855 97.9316 17.8345C97.7291 17.8141 97.954 17.8439 98.011 17.8596C98.0472 17.8688 98.3897 17.9771 98.387 17.9854C98.3816 17.9952 98.13 17.8467 98.2851 17.9371C98.334 17.9641 98.3857 17.9896 98.4346 18.0166C98.5003 18.0557 98.5606 18.0977 98.6235 18.1383C98.8026 18.2478 98.6522 18.1129 98.5798 18.0877C98.8082 18.1646 99.0389 18.5683 99.1858 18.7503C99.3327 18.9323 99.0759 18.5387 99.1831 18.7517C99.2145 18.8122 99.2583 18.8697 99.2925 18.9288C99.3864 19.0894 99.4748 19.2529 99.5564 19.4235C99.8469 20.0161 100.073 20.6388 100.3 21.2574C100.527 21.876 100.768 22.522 101.002 23.1543C101.06 23.3128 101.118 23.4712 101.176 23.6296C101.198 23.6916 101.325 24.0444 101.277 23.9121C101.212 23.733 101.314 24.0154 101.328 24.0568C101.353 24.1243 101.377 24.1918 101.399 24.2607C101.463 24.444 101.528 24.6231 101.592 24.8064C102.04 26.0783 102.464 27.3588 102.85 28.6524C103.617 31.2244 104.227 33.8502 104.512 36.5225C104.527 36.6649 104.543 36.8102 104.555 36.9541C104.565 37.0398 104.57 37.1243 104.578 37.2073C104.575 37.1879 104.563 36.9498 104.571 37.127C104.585 37.4482 104.605 37.7693 104.6 38.0895C104.598 38.3666 104.584 38.6425 104.552 38.9173C104.541 39.0034 104.457 39.4134 104.534 39.0908C104.5 39.234 104.468 39.38 104.427 39.5233C104.386 39.6667 104.337 39.8004 104.287 39.9384C104.234 40.0916 104.307 40.0711 104.306 39.9076C104.305 39.9464 104.241 40.0319 104.221 40.0669C104.152 40.1898 104.079 40.3115 103.999 40.4264C103.965 40.4754 103.927 40.5231 103.893 40.5721C103.774 40.7457 104.072 40.3989 103.918 40.5385C103.812 40.6315 103.724 40.7368 103.619 40.8299C103.597 40.8482 103.434 40.9782 103.434 40.9782C103.423 40.9562 103.696 40.8245 103.528 40.9047C103.498 40.9204 103.166 41.1001 103.163 41.0946C103.16 41.0822 103.46 41.0138 103.279 41.0554C103.201 41.0746 103.127 41.0993 103.051 41.1144C103.007 41.1234 102.754 41.1675 102.946 41.1409C103.126 41.1174 102.921 41.1399 102.889 41.139C102.74 41.133 102.59 41.1132 102.441 41.1099C102.275 41.1056 102.486 41.1217 102.514 41.1282C102.429 41.1129 102.344 41.0907 102.261 41.0712C102.113 41.0361 101.966 40.994 101.821 40.9505C101.246 40.7779 100.681 40.583 100.116 40.377C99.5519 40.171 98.9972 39.9565 98.445 39.7267C98.1689 39.6119 97.8941 39.4928 97.6221 39.3723C97.5049 39.3215 97.3891 39.2665 97.2719 39.2156C97.23 39.1955 96.983 39.083 97.1617 39.1647C97.3277 39.2425 97.0821 39.1258 97.0514 39.1138C94.8922 38.0887 92.8242 36.8696 90.8824 35.4768C90.3977 35.1282 89.9183 34.7699 89.4498 34.3989C89.231 34.2263 89.0149 34.0523 88.8016 33.8769C89.043 34.0726 88.7511 33.8333 88.6696 33.7639C88.5391 33.6537 88.4113 33.5421 88.2807 33.4319C87.3777 32.6478 86.5129 31.823 85.6849 30.9616C85.2723 30.5302 84.8693 30.0903 84.4744 29.6392C84.2854 29.4232 84.0991 29.2058 83.9142 28.9842C83.8083 28.8542 83.7023 28.7242 83.5992 28.5928C83.5553 28.5353 83.5115 28.4778 83.4691 28.4231C83.2894 28.1848 83.5106 28.5097 83.4223 28.3531C83.2685 28.0839 83.1093 27.8246 82.9747 27.5454C82.9662 27.5289 82.8741 27.3114 82.939 27.4767C83.0039 27.6419 82.9229 27.4187 82.9111 27.376C82.8715 27.2325 82.8374 27.0861 82.8129 26.9383C82.8037 26.8802 82.7679 26.5358 82.7823 26.7517C82.7955 26.9787 82.7836 26.566 82.7841 26.5065C82.7862 26.3762 82.7953 26.2458 82.8085 26.1168C82.8146 26.0612 82.8207 26.0057 82.8295 25.9488C82.8574 25.6934 82.8318 26.007 82.8165 26.0044C82.8137 26.0058 83.0133 25.2948 83.0319 25.2432C83.0785 25.1178 83.1306 24.9965 83.1814 24.8724C83.2481 24.7051 83.1372 24.9756 83.1358 24.9728C83.1274 24.9633 83.2313 24.7871 83.2393 24.769C83.3645 24.5329 83.5079 24.3048 83.6638 24.0877C83.6977 24.0387 83.9503 23.705 83.8144 23.8803C83.688 24.0402 83.8063 23.8915 83.8321 23.8606C83.8948 23.7931 83.9561 23.7229 84.0188 23.6555C84.2396 23.422 84.4772 23.2008 84.7235 22.9961C84.8479 22.8931 84.9738 22.7928 85.1026 22.6979C85.1574 22.6555 85.2136 22.6159 85.2698 22.5762C85.1436 22.6627 85.1465 22.6682 85.2698 22.5762C85.8157 22.2228 86.3815 21.9009 86.9659 21.6148C87.5503 21.3286 88.1751 21.0529 88.7932 20.7982C89.1154 20.6657 89.4389 20.536 89.7612 20.4105C89.9003 20.3557 90.0408 20.3036 90.1786 20.253C90.2722 20.2183 90.3659 20.1836 90.4596 20.1489C90.5712 20.1084 90.6456 20.0837 90.4885 20.1374C91.8046 19.6806 93.1352 19.2721 94.4878 18.9394C95.1628 18.7738 95.8421 18.6233 96.5258 18.4881C97.32 18.3303 97.9271 17.4494 97.718 16.6505C97.5089 15.8515 96.7327 15.2914 95.8804 15.4583L95.8844 15.4458Z" fill="#73B25F"/>
<path d="M113.035 14.2673C109.431 13.3505 105.633 13.2015 101.97 13.8373C101.175 13.9743 100.361 14.1601 99.7144 14.6425C98.0379 15.8904 98.2046 18.4288 98.6946 20.4606C99.7134 24.6997 101.388 28.7831 103.639 32.5181C104.425 33.8235 105.327 35.1285 106.642 35.9007C107.958 36.6728 109.789 36.7511 110.901 35.7059C111.522 35.1213 111.832 34.2866 112.083 33.4722C113.998 27.287 115.81 20.1598 113.189 14.24" fill="#598E44"/>
<path d="M113.499 12.7893C111.225 12.2148 108.883 11.8992 106.537 11.8995C105.319 11.9003 104.099 11.9829 102.893 12.1346C101.687 12.2862 100.314 12.4585 99.2337 13.107C98.1533 13.7555 97.4515 14.6891 97.0967 15.8473C96.7763 16.8969 96.7777 17.9748 96.879 19.0566C96.9803 20.1385 97.2346 21.085 97.509 22.0769C97.8659 23.382 98.2917 24.6653 98.7603 25.9369C99.6324 28.3078 100.717 30.6033 101.993 32.7851C103.27 34.9669 104.72 37.1141 107.179 37.802C108.416 38.1472 109.747 38.1086 110.916 37.5502C112.15 36.9617 112.892 35.7906 113.351 34.5504C113.719 33.5527 113.996 32.5121 114.284 31.4893C114.573 30.4665 114.852 29.4037 115.094 28.3498C116.059 24.1064 116.586 19.504 115.221 15.2842C115.026 14.6873 114.808 14.0991 114.558 13.5238C114.23 12.7793 113.162 12.462 112.469 12.8634C111.702 13.3075 111.461 14.155 111.809 14.9518C111.908 15.1761 111.999 15.4047 112.088 15.6305C112.243 16.0147 111.985 15.3038 112.113 15.698C112.152 15.8138 112.191 15.9296 112.226 16.044C112.372 16.5059 112.494 16.9765 112.594 17.4515C112.689 17.8879 112.76 18.3287 112.819 18.7698C112.849 19.009 112.894 19.2577 112.896 19.4974C112.89 19.1095 112.898 19.5209 112.9 19.586C112.908 19.7078 112.915 19.8296 112.92 19.9528C113.007 21.9147 112.808 23.8754 112.47 25.8065C112.534 25.4452 112.459 25.8648 112.447 25.9163C112.424 26.0399 112.398 26.165 112.374 26.2929C112.322 26.543 112.271 26.7932 112.218 27.0407C112.111 27.5397 111.991 28.0348 111.868 28.5313C111.632 29.4743 111.374 30.4079 111.1 31.3391C110.96 31.8164 110.817 32.2925 110.669 32.7672C110.605 32.9677 110.546 33.1695 110.479 33.3687C110.438 33.4913 110.392 33.6125 110.347 33.7337C110.315 33.8132 110.283 33.8927 110.251 33.9721C110.33 33.8088 110.332 33.8046 110.252 33.961C110.187 34.0715 110.131 34.1846 110.061 34.291C110.058 34.2924 109.818 34.63 109.965 34.4421C110.111 34.2542 109.842 34.5617 109.835 34.5688L109.749 34.6449C109.611 34.7551 109.635 34.7423 109.82 34.6078C109.777 34.6722 109.599 34.7401 109.531 34.7758L109.432 34.8272C109.269 34.8906 109.294 34.8847 109.51 34.8038C109.442 34.881 108.873 34.8802 108.853 34.9428L109.027 34.929C108.952 34.933 108.876 34.9341 108.799 34.9326C108.684 34.933 108.569 34.9264 108.453 34.913C108.365 34.9033 108.018 34.9225 108.387 34.9126C108.287 34.9155 108.145 34.8568 108.049 34.8264C107.868 34.7738 107.67 34.7159 107.505 34.627C107.856 34.8183 107.515 34.6185 107.455 34.5834C107.305 34.4971 107.161 34.4009 107.021 34.2992C106.976 34.2666 106.649 33.9932 106.924 34.2342C106.843 34.1648 106.763 34.0912 106.685 34.0162C106.513 33.8513 106.349 33.6778 106.193 33.4974C106.02 33.3005 105.862 33.0896 105.702 32.8829C105.432 32.5379 105.88 33.1572 105.636 32.7952C105.562 32.6869 105.487 32.5759 105.416 32.4661C104.174 30.5457 103.126 28.4754 102.239 26.3707C102.007 25.8243 101.79 25.2707 101.58 24.7128C101.545 24.6191 101.512 24.5282 101.477 24.4345C101.308 23.9744 101.575 24.7295 101.418 24.2664C101.306 23.937 101.193 23.6118 101.087 23.2795C100.741 22.2098 100.433 21.1269 100.178 20.0308C100.081 19.6167 100.001 19.2009 99.9463 18.7792C99.9369 18.7073 99.9289 18.6381 99.9194 18.5662L99.9095 18.4597C99.8944 18.2895 99.8948 18.3172 99.9163 18.54C99.8413 18.3485 99.8955 18.0027 99.9006 17.7976C99.9049 17.6243 99.916 17.451 99.9356 17.2803C99.943 17.2206 99.9385 17.0239 99.9766 16.9762L99.9435 17.1679C99.9577 17.1012 99.9734 17.0372 99.989 16.9732C100.003 16.9204 100.188 16.4229 100.176 16.412C100.222 16.4542 99.9977 16.7279 100.154 16.465C100.212 16.3685 100.266 16.2707 100.329 16.1755C100.529 15.8828 100.372 16.1984 100.313 16.1799C100.33 16.1852 100.567 15.9294 100.599 15.9025C100.659 15.8504 100.914 15.7175 100.652 15.8574C100.776 15.7931 100.902 15.7274 101.026 15.6632C101.401 15.4579 100.752 15.7214 101.166 15.6042C101.35 15.5543 101.532 15.5016 101.72 15.4599C102.036 15.3898 102.354 15.3364 102.673 15.2858C103.241 15.1966 103.813 15.1296 104.385 15.0736C104.826 15.0294 104.073 15.0923 104.515 15.0619C104.646 15.053 104.781 15.0426 104.913 15.0364C105.222 15.0191 105.534 15.0074 105.841 15.0012C106.991 14.9765 108.144 15.0265 109.288 15.1515C109.861 15.2133 110.43 15.2946 110.996 15.3953C110.65 15.3341 111.086 15.4147 111.128 15.421C111.303 15.4556 111.475 15.4918 111.648 15.5279C111.951 15.5939 112.252 15.664 112.551 15.7425C113.336 15.9424 114.268 15.5732 114.495 14.7329C114.702 13.9622 114.324 12.9996 113.485 12.7895L113.499 12.7893Z" fill="#598E44"/>
<path d="M116.234 14.0503C115.418 14.4605 114.584 16.021 114.2 16.8527C112.513 20.5074 112.7 24.4489 112.34 28.4585C112.237 29.6045 112.194 30.7786 112.501 31.8864C112.808 32.9942 113.525 34.0388 114.582 34.4949C115.817 35.03 117.303 34.6593 118.388 33.8652C119.473 33.0712 120.236 31.9136 120.913 30.749C122.115 28.6758 123.136 26.4557 123.515 24.0876C123.894 21.7195 123.575 19.1765 122.267 17.1685C120.958 15.1604 118.565 13.7925 116.186 14.058" fill="#73B25F"/>
<path d="M115.52 12.6744C113.948 13.5259 113.044 15.5073 112.42 17.095C111.727 18.8583 111.399 20.7532 111.206 22.6335C111.013 24.5138 110.97 26.3377 110.81 28.187C110.622 30.3928 110.7 32.6112 112.091 34.4434C113.353 36.1058 115.569 36.6825 117.516 36.0165C119.648 35.2893 121.047 33.5816 122.154 31.6941C124.182 28.2323 125.696 24.3143 125.049 20.2385C124.703 18.0756 123.665 15.9553 121.979 14.5239C120.293 13.0924 118.14 12.3152 115.862 12.5458C115.052 12.6276 114.474 13.6369 114.669 14.3834C114.901 15.2721 115.641 15.6624 116.507 15.5756C116.08 15.6196 116.666 15.5731 116.776 15.5756C116.962 15.5769 117.146 15.5893 117.332 15.6113C117.363 15.6164 117.543 15.6482 117.553 15.6398C117.515 15.6805 117.268 15.5749 117.492 15.6296C117.715 15.6844 117.923 15.7338 118.137 15.8039C118.297 15.8568 118.453 15.9154 118.608 15.9781C118.716 16.0236 118.925 16.0439 118.605 15.9726C118.664 15.9842 118.757 16.0506 118.805 16.0748C119.137 16.2512 119.455 16.4527 119.754 16.6781C119.77 16.6903 120.06 16.9241 119.863 16.7609C119.667 16.5977 119.95 16.8413 119.964 16.8549C120.089 16.968 120.21 17.0866 120.327 17.2109C120.444 17.3352 120.558 17.4609 120.664 17.5908C120.724 17.6647 120.781 17.7359 120.838 17.8112C121.09 18.1412 120.727 17.6037 120.89 17.8852C121.09 18.2216 121.29 18.5538 121.455 18.9114C121.547 19.1081 121.633 19.3077 121.704 19.5116C121.685 19.4551 121.604 19.2042 121.692 19.4897C121.729 19.6138 121.77 19.7392 121.804 19.8648C121.912 20.2621 121.995 20.6696 122.051 21.0802C122.065 21.188 122.077 21.2973 122.091 21.4051C122.099 21.4674 122.112 21.7013 122.093 21.3968C122.109 21.6362 122.12 21.8785 122.12 22.1196C122.122 22.5338 122.102 22.9525 122.059 23.3661C122.038 23.5618 122.013 23.7561 121.982 23.9506C121.969 24.027 121.914 24.3174 121.974 24.0102C121.95 24.1381 121.923 24.2674 121.894 24.3939C121.713 25.221 121.454 26.0328 121.145 26.8217C121.073 27.0057 121 27.187 120.922 27.3669C120.879 27.4659 120.834 27.5664 120.791 27.6654C120.759 27.738 120.636 28.0045 120.766 27.724C120.579 28.1176 120.381 28.51 120.177 28.8955C119.781 29.6387 119.362 30.3767 118.89 31.0754C118.764 31.263 118.633 31.4465 118.494 31.6232C118.44 31.6933 118.383 31.7649 118.328 31.835C118.556 31.5599 118.263 31.897 118.232 31.9307C118.11 32.0601 117.985 32.1881 117.852 32.3093C117.752 32.3995 117.651 32.487 117.549 32.5717L117.442 32.6551C117.283 32.7725 117.3 32.764 117.489 32.6239C117.432 32.73 117.154 32.8258 117.049 32.88C116.939 32.9372 116.669 33.0009 116.583 33.0909C116.729 32.9349 116.812 33.014 116.599 33.0754C116.508 33.1018 116.418 33.124 116.325 33.1448C116.253 33.1612 116.18 33.1748 116.105 33.1856C116.03 33.1965 115.958 33.2059 115.882 33.214L116.059 33.1988C115.962 33.2599 115.617 33.1876 115.508 33.1782C115.202 33.1552 115.562 33.1954 115.572 33.1939C115.518 33.2113 115.362 33.1389 115.306 33.119C115.222 33.0926 115.119 33.0692 115.045 33.0205C115.336 33.2044 115.14 33.062 115.087 33.0268C115.01 32.9726 114.922 32.9102 114.839 32.8658C114.748 32.7979 114.775 32.8224 114.916 32.9408C114.857 32.8876 114.8 32.8373 114.742 32.78C114.628 32.6681 114.529 32.545 114.426 32.4274C114.171 32.1376 114.578 32.7188 114.392 32.3753C114.355 32.3038 114.31 32.2366 114.271 32.1693C114.187 32.0141 114.04 31.7975 114.021 31.626C114.025 31.6619 114.124 31.9666 114.043 31.6769C114.008 31.5486 113.972 31.4244 113.943 31.296C113.893 31.071 113.863 30.8456 113.829 30.6189C113.821 30.5636 113.805 30.3242 113.823 30.6079C113.816 30.493 113.811 30.3767 113.808 30.2632C113.796 29.802 113.818 29.3403 113.853 28.8784C113.98 27.2069 114.069 25.5305 114.198 23.8576C114.267 22.956 114.359 22.0568 114.503 21.1651C114.503 21.1651 114.57 20.7567 114.531 20.9901C114.498 21.1887 114.579 20.7344 114.588 20.6913C114.63 20.4884 114.676 20.2827 114.724 20.0796C114.832 19.6291 114.959 19.1865 115.104 18.7479C115.25 18.3092 115.384 17.8277 115.615 17.439C115.403 17.797 115.642 17.3901 115.691 17.284C115.784 17.0997 115.881 16.9167 115.981 16.7392C116.18 16.3842 116.408 16.0496 116.642 15.7148C116.776 15.5229 116.584 15.7379 116.586 15.7753C116.585 15.7448 116.769 15.5757 116.792 15.5532C116.843 15.5025 116.922 15.4542 116.966 15.3967C117.064 15.3176 117.009 15.3531 116.801 15.5031C116.845 15.4734 116.893 15.4449 116.941 15.4234C117.651 15.0369 118.024 14.0683 117.602 13.335C117.179 12.6017 116.276 12.261 115.513 12.6745L115.52 12.6744Z" fill="#73B25F"/>
<path d="M126.979 20.9601C125.26 25.7555 123.54 30.5481 121.822 35.3435C121.528 36.1627 121.231 37.0152 121.327 37.8796C121.424 38.7441 122.04 39.6143 122.904 39.6993C123.437 39.7506 123.954 39.5029 124.409 39.2216C127.606 37.2532 129.288 33.5765 130.547 30.0393C131.198 28.2143 131.791 26.2654 131.404 24.365C131.017 22.4646 129.308 20.6996 127.384 20.9344" fill="#598E44"/>
<path d="M125.502 20.4942C124.252 23.9814 123.002 27.4686 121.751 30.953L120.788 33.6419C120.51 34.422 120.188 35.2001 119.981 36.0055C119.533 37.7706 119.821 39.8624 121.547 40.847C123.393 41.9019 125.34 40.629 126.738 39.4173C127.951 38.3649 128.95 37.043 129.745 35.6563C130.539 34.2696 131.23 32.6684 131.805 31.1091C132.381 29.5499 132.883 28.05 133.038 26.4335C133.212 24.6048 132.775 22.8492 131.653 21.3896C130.532 19.9301 128.846 19.2316 127.062 19.4185C126.254 19.5031 125.675 20.5054 125.87 21.2561C126.1 22.142 126.843 22.5378 127.707 22.4482C127.273 22.4924 127.68 22.4556 127.799 22.4635C127.864 22.468 127.928 22.4767 127.992 22.4785C128.215 22.4917 127.905 22.5269 127.886 22.4566C127.891 22.4787 128.213 22.5485 128.255 22.5617C128.297 22.5749 128.347 22.6046 128.39 22.6136C128.561 22.647 128.108 22.4531 128.339 22.5881C128.45 22.6557 128.565 22.7148 128.673 22.788C128.727 22.8259 128.779 22.8653 128.834 22.9033C129.031 23.0346 128.731 22.8799 128.757 22.8352C128.757 22.8352 129.268 23.3551 129.316 23.414C129.311 23.4057 129.432 23.577 129.441 23.5755C129.374 23.5793 129.255 23.2847 129.375 23.4879C129.443 23.606 129.517 23.7212 129.583 23.8407C129.648 23.9602 129.706 24.084 129.757 24.2107C129.772 24.2382 129.819 24.3954 129.834 24.398C129.763 24.3686 129.731 24.0393 129.805 24.343C129.873 24.6218 129.929 24.8966 129.968 25.1801C130.007 25.4635 129.97 25.2105 129.967 25.1524C129.969 25.2355 129.977 25.3185 129.978 25.4016C129.981 25.5886 129.977 25.7757 129.966 25.9629C129.947 26.2763 129.902 26.5859 129.861 26.8969C129.909 26.5651 129.83 27.0318 129.811 27.1291C129.768 27.3154 129.721 27.5004 129.674 27.6854C129.499 28.342 129.279 28.9869 129.049 29.6264C128.819 30.2659 128.56 30.9626 128.286 31.618C128.162 31.9165 128.028 32.2164 127.898 32.5108C127.803 32.7242 128.003 32.2958 127.902 32.5051C127.872 32.5624 127.847 32.621 127.819 32.681C127.725 32.8764 127.629 33.0691 127.53 33.2604C127.214 33.868 126.869 34.4622 126.488 35.0306C126.31 35.2938 126.123 35.5516 125.929 35.8026C125.876 35.8686 125.823 35.9345 125.772 35.999C125.633 36.1799 125.94 35.8108 125.787 35.9808C125.661 36.1199 125.537 36.2645 125.409 36.4009C125.178 36.6427 124.937 36.8765 124.685 37.0979C124.574 37.1938 124.464 37.2897 124.347 37.3816C124.28 37.4339 124.216 37.4848 124.149 37.5371C124.012 37.6431 123.964 37.6923 124.13 37.5609C123.868 37.77 123.556 37.9217 123.266 38.0827C123.11 38.1711 123.206 38.1945 123.312 38.0834C123.285 38.1116 123.173 38.1244 123.136 38.1333C123.076 38.1466 122.834 38.1573 123.035 38.1611C123.153 38.1524 123.14 38.1484 122.992 38.1452L123.178 38.1811C123.189 38.1615 122.983 38.1425 122.984 38.1176C122.983 38.1287 123.282 38.2598 123.078 38.1425C122.873 38.0251 123.192 38.1809 123.148 38.2107C123.14 38.2149 122.994 38.0495 123.004 38.0619C122.83 37.8803 123.101 38.1338 123.057 38.1497C123.051 38.1526 122.944 37.9533 122.952 37.9671C122.927 37.9204 122.909 37.8708 122.884 37.824C122.799 37.6591 122.96 38.1443 122.904 37.8625C122.889 37.7935 122.877 37.723 122.864 37.6567C122.811 37.4151 122.866 37.6553 122.866 37.7079C122.872 37.5444 122.877 37.3808 122.887 37.2185C122.89 37.1506 122.937 36.931 122.875 37.2423C122.892 37.1603 122.91 37.081 122.931 37.0003C122.969 36.8377 123.019 36.6789 123.065 36.5189C123.548 34.9832 124.147 33.4749 124.69 31.9605C125.949 28.451 127.21 24.9373 128.469 21.4278C128.742 20.6644 128.247 19.6967 127.459 19.4844C126.623 19.259 125.808 19.679 125.516 20.494L125.502 20.4942Z" fill="#598E44"/>
<path d="M128.695 35.8496C128.456 37.1639 127.685 38.783 127.843 40.1355C128.01 41.5738 128.562 43.1932 129.859 43.7827C130.475 44.06 131.166 44.0535 131.803 43.9148C133.801 43.4738 135.33 41.782 136.067 39.8212C136.805 37.8605 136.854 35.6568 136.687 33.5091C136.541 31.6341 135.897 29.3469 134.133 28.8671C132.561 28.4412 131.134 29.8141 130.499 31.3064L128.696 35.8523L128.695 35.8496Z" fill="#73B25F"/>
<path d="M127.219 35.3803C126.893 37.0964 126.124 38.6683 126.331 40.4566C126.537 42.2448 127.305 44.167 128.932 45.0396C130.875 46.0792 133.161 45.3871 134.815 44.1298C136.248 43.0436 137.238 41.3809 137.749 39.6772C138.26 37.9735 138.377 36.0625 138.28 34.2421C138.191 32.6058 138.004 30.8561 137.118 29.4317C136.588 28.5795 135.91 27.9194 134.981 27.5223C134.052 27.1252 132.997 27.1776 132.051 27.5469C130.597 28.1139 129.576 29.4819 128.999 30.8846C128.388 32.3751 127.813 33.8817 127.218 35.3776C126.919 36.1331 127.459 37.1126 128.227 37.321C129.085 37.553 129.852 37.1157 130.171 36.3114C130.67 35.054 131.167 33.8007 131.666 32.5433C131.756 32.3147 131.854 32.086 131.938 31.8575C131.955 31.8101 131.986 31.6752 131.938 31.8436C131.88 32.0413 131.95 31.8199 131.978 31.7668C132.021 31.6816 132.068 31.5978 132.12 31.5152C132.209 31.3642 132.305 31.22 132.406 31.0799C132.484 30.9734 132.528 30.7898 132.404 31.0744C132.426 31.0242 132.528 30.9367 132.558 30.9071C132.663 30.8002 132.773 30.6974 132.888 30.6028C132.942 30.5576 133.017 30.5149 133.062 30.4671C132.866 30.6807 132.877 30.5877 132.995 30.5263C133.058 30.4934 133.119 30.4551 133.183 30.425C133.23 30.4007 133.278 30.3792 133.331 30.359C133.442 30.3116 133.394 30.3262 133.189 30.4083C133.261 30.4127 133.544 30.2656 133.6 30.3202C133.602 30.3229 133.273 30.3156 133.517 30.3353C133.517 30.3353 133.718 30.3322 133.731 30.35L133.56 30.3167C133.614 30.3269 133.667 30.3413 133.717 30.3572C133.782 30.3756 133.845 30.4092 133.909 30.4249C134.094 30.465 133.684 30.2593 133.821 30.3833C133.887 30.4432 133.995 30.4887 134.073 30.5387C134.374 30.728 133.901 30.3349 134.141 30.6014C134.166 30.6301 134.431 30.946 134.436 30.9474C134.411 30.9533 134.225 30.6029 134.37 30.8625C134.403 30.9257 134.443 30.9819 134.479 31.0437C134.567 31.2003 134.644 31.3625 134.715 31.5249C134.738 31.5758 134.766 31.6904 134.795 31.7273C134.77 31.6986 134.68 31.3717 134.765 31.6488C134.807 31.7909 134.854 31.9343 134.891 32.0792C134.976 32.4048 135.041 32.7377 135.09 33.0681C135.115 33.2298 135.134 33.3944 135.151 33.5604C135.156 33.6102 135.176 33.844 135.16 33.6392C135.142 33.422 135.163 33.7043 135.168 33.7541C135.194 34.1485 135.213 34.5472 135.219 34.942C135.232 35.7066 135.205 36.4746 135.115 37.2338C135.092 37.406 135.069 37.5753 135.042 37.7462C134.997 38.0351 135.032 37.7934 135.045 37.7378C135.025 37.8212 135.01 37.906 134.992 37.9922C134.905 38.3898 134.795 38.7822 134.658 39.1639C134.601 39.3227 134.54 39.4802 134.474 39.6364C134.456 39.6811 134.339 39.9198 134.429 39.7438C134.534 39.5358 134.345 39.8989 134.344 39.9031C134.168 40.2355 133.966 40.5532 133.742 40.8545C133.693 40.9218 133.64 40.9877 133.59 41.0522C133.623 41.0074 133.803 40.8162 133.605 41.027C133.493 41.1479 133.382 41.2688 133.263 41.3829C133.144 41.4969 133.022 41.6055 132.898 41.7086C132.884 41.7157 132.578 41.9726 132.779 41.8088C132.961 41.6619 132.69 41.8656 132.647 41.8912C132.51 41.9764 132.37 42.0562 132.226 42.1277C132.138 42.1734 132.044 42.215 131.953 42.2552C131.902 42.2781 131.658 42.3664 131.865 42.294C132.072 42.2215 131.825 42.3043 131.773 42.3176C131.676 42.3468 131.577 42.3705 131.477 42.3942C131.399 42.4106 131.317 42.4285 131.236 42.4395C131.187 42.4472 130.852 42.4607 131.067 42.4643C131.282 42.4679 131.007 42.4569 130.957 42.4549C130.912 42.4542 130.519 42.4104 130.722 42.4447C130.924 42.4789 130.662 42.4234 130.616 42.4089C130.453 42.3574 130.381 42.3737 130.577 42.415C130.498 42.3969 130.401 42.318 130.331 42.2706C130.048 42.0824 130.345 42.2496 130.331 42.2844C130.347 42.2482 129.967 41.9396 129.952 41.8636C129.985 42.0349 130.086 42.0735 129.997 41.9169C129.94 41.8139 129.878 41.7137 129.826 41.6078C129.789 41.5364 129.756 41.4662 129.724 41.3919C129.693 41.3176 129.509 40.9768 129.69 41.3329C129.523 41.0112 129.475 40.5686 129.413 40.2135C129.4 40.1361 129.387 40.056 129.377 39.9772C129.368 39.9191 129.361 39.8596 129.355 39.8002C129.366 40.0037 129.371 40.0465 129.367 39.9302C129.374 39.7625 129.368 39.5977 129.382 39.4298C129.392 39.3341 129.41 39.241 129.417 39.1467C129.433 38.9635 129.356 39.4191 129.419 39.1314C129.462 38.9381 129.508 38.7435 129.56 38.5487C129.76 37.7988 130.022 37.066 130.167 36.3031C130.245 35.8821 130.27 35.5201 130.062 35.1216C129.887 34.7835 129.53 34.4592 129.156 34.357C128.425 34.1604 127.375 34.5175 127.212 35.3666L127.219 35.3803Z" fill="#73B25F"/>
<path d="M21.2972 100.036C23.0237 102.11 25.5983 103.391 28.2732 103.628C29.082 103.7 29.8909 102.972 29.8978 102.159C29.9051 101.293 29.2891 100.611 28.429 100.534C28.2888 100.52 28.1486 100.505 28.0071 100.488C27.9363 100.48 27.8668 100.467 27.7987 100.457C27.6197 100.435 28.1935 100.538 27.896 100.476C27.6333 100.421 27.3747 100.359 27.1158 100.284C26.857 100.209 26.6048 100.121 26.3566 100.019C26.2911 99.9938 26.2269 99.9643 26.1614 99.939C25.9354 99.8399 26.1532 99.9433 26.2508 99.9833C26.1211 99.9285 25.9953 99.8612 25.8724 99.7924C25.396 99.5407 24.955 99.2427 24.5259 98.9141C24.282 98.7267 24.7422 99.1019 24.6059 98.9807C24.554 98.9344 24.4992 98.8896 24.4458 98.8405C24.3404 98.7452 24.2378 98.6484 24.1379 98.5502C23.9367 98.351 23.7478 98.142 23.5658 97.9259C23.0463 97.3021 21.9416 97.2721 21.3768 97.8447C20.7616 98.468 20.7395 99.3662 21.2957 100.034L21.2972 100.036Z" fill="#73B25F"/>
<path d="M32.4787 82.5784C34.1556 85.4771 36.0825 88.2321 38.231 90.8022C38.7505 91.4259 39.8524 91.4574 40.4199 90.8833C41.0351 90.26 41.06 89.3605 40.501 88.6944C39.9858 88.0789 39.4829 87.4535 38.995 86.8168C38.749 86.4978 38.5099 86.1787 38.2749 85.854C38.156 85.6923 38.0399 85.5293 37.921 85.3676C37.8616 85.2868 37.8049 85.2045 37.7482 85.1223C37.829 85.2374 37.8374 85.247 37.7723 85.1552C36.8751 83.8515 36.0219 82.5249 35.2304 81.1558C34.8247 80.4555 33.889 80.0655 33.142 80.4954C32.4417 80.9011 32.046 81.8327 32.4815 82.5839L32.4787 82.5784Z" fill="#73B25F"/>
<path d="M50.7098 76.4455C53.1292 79.9604 56.3565 82.8601 60.2065 84.7278C60.9338 85.0795 61.8973 85.0258 62.3424 84.243C62.7214 83.5818 62.6366 82.4845 61.8576 82.1072C60.981 81.683 60.1341 81.2084 59.3195 80.6751C58.9122 80.4085 58.513 80.1306 58.1247 79.8402C57.9299 79.6935 57.7378 79.5455 57.5484 79.396C57.4601 79.3267 57.3759 79.2588 57.2903 79.188C57.5625 79.4097 57.2215 79.1295 57.1934 79.1023C56.4562 78.4694 55.7571 77.7889 55.1058 77.0661C54.7943 76.7217 54.4951 76.3675 54.2055 76.0049C54.0543 75.8146 53.9058 75.6229 53.7587 75.4271C53.6795 75.3216 53.6016 75.212 53.5224 75.1066C53.3186 74.8285 53.6698 75.3232 53.4558 75.012C52.998 74.3457 52.1542 73.8974 51.3674 74.3516C50.7151 74.7288 50.2138 75.7258 50.707 76.44L50.7098 76.4455Z" fill="#73B25F"/>
<path d="M67.8185 63.4019C68.2923 64.6498 69.7986 65.2984 70.8901 65.9078C71.9816 66.5171 73.0681 67.0766 74.1834 67.6108C76.4711 68.7018 78.8163 69.6616 81.2241 70.4598C81.9956 70.7153 82.9513 70.2502 83.1675 69.4502C83.3838 68.6502 82.9796 67.7781 82.1579 67.5068C81.0494 67.1402 79.9557 66.7415 78.8725 66.3093C78.3525 66.1012 77.8365 65.8875 77.3218 65.6627C77.0652 65.5517 76.8098 65.4365 76.5545 65.3213C76.4276 65.2651 76.2992 65.2061 76.1708 65.1472C76.4555 65.2785 76.0145 65.0748 75.9587 65.0479C74.9259 64.5582 73.9092 64.0391 72.9073 63.488C72.4182 63.2185 71.929 62.942 71.4466 62.6585C71.2145 62.5208 70.9877 62.3664 70.7515 62.2342C70.6085 62.127 70.6086 62.1339 70.749 62.2495C70.6998 62.2087 70.6548 62.1623 70.6125 62.1145C70.5349 62.0256 70.5506 62.0559 70.6609 62.201C70.6196 62.1282 70.5824 62.0498 70.5576 61.9685C70.2701 61.2067 69.1352 60.9237 68.4692 61.308C67.6713 61.7679 67.501 62.5824 67.8087 63.3965L67.8185 63.4019Z" fill="#73B25F"/>
<path d="M76.9213 40.6402C80.338 43.9582 84.6604 46.0901 89.3496 46.8585C90.1511 46.9902 90.9695 46.1601 90.9742 45.3897C90.9794 44.4724 90.3611 43.907 89.5054 43.7651C89.4248 43.7511 89.3415 43.7385 89.2609 43.7245C89.4263 43.7538 89.4541 43.7603 89.3457 43.7398C89.2248 43.7154 89.1011 43.6924 88.9802 43.6679C88.7175 43.6124 88.4533 43.5541 88.1918 43.4875C87.7106 43.3675 87.2305 43.2295 86.7571 43.0775C86.2446 42.9108 85.7388 42.7233 85.241 42.5176C85.011 42.4242 84.7836 42.3224 84.5562 42.2207C84.8812 42.3625 84.5366 42.2099 84.4641 42.1778C84.3343 42.116 84.203 42.0516 84.0745 41.9857C83.1501 41.5164 82.2606 40.9802 81.4132 40.3837C80.9888 40.084 80.578 39.7704 80.1794 39.4399C80.4727 39.6819 80.1456 39.4085 80.1077 39.3759C80.0137 39.2956 79.9209 39.2111 79.8296 39.1294C79.6132 38.9346 79.4023 38.737 79.1928 38.5352C78.6132 37.9706 77.6122 37.8378 77.0039 38.4541C76.4391 39.0267 76.2982 40.0389 76.9227 40.643L76.9213 40.6402Z" fill="#73B25F"/>
<path d="M100.002 18.7963C100.247 22.7356 101.24 26.5621 103.018 30.0925C103.384 30.817 104.387 31.1686 105.107 30.7529C105.826 30.3372 106.156 29.4399 105.767 28.6645C105.378 27.8891 105.014 27.0801 104.696 26.2606C104.653 26.1505 104.613 26.0389 104.569 25.9287C104.461 25.6463 104.6 26.028 104.541 25.8529C104.471 25.6517 104.401 25.4505 104.334 25.2479C104.195 24.8178 104.066 24.3889 103.947 23.9516C103.717 23.1044 103.529 22.2456 103.384 21.3819C103.312 20.9618 103.253 20.5388 103.203 20.1142C103.175 19.8778 103.15 19.6426 103.129 19.406C103.119 19.2856 103.113 19.222 103.126 19.3797C103.115 19.2386 103.107 19.096 103.097 18.9548C103.047 18.1465 102.526 17.3385 101.628 17.3303C100.867 17.324 99.9499 17.9367 100.003 18.7991L100.002 18.7963Z" fill="#73B25F"/>
<path d="M24.7161 88.7594C26.658 91.7649 29.2836 94.286 32.4413 95.9967C33.1511 96.3819 34.1441 96.271 34.5771 95.5119C34.9696 94.8228 34.8553 93.7897 34.0924 93.3761C33.3882 92.9949 32.7056 92.5746 32.0514 92.1081C31.725 91.8763 31.4067 91.6332 31.0953 91.3831C30.9802 91.2893 30.9844 91.2906 31.0953 91.3831C31.0096 91.3124 30.9254 91.2375 30.8425 91.1653C30.6908 91.0347 30.5405 90.8998 30.3957 90.7621C29.8236 90.232 29.2843 89.671 28.779 89.0747C28.5194 88.7698 28.2693 88.4564 28.0288 88.1345C27.9623 88.0469 27.8972 87.955 27.8307 87.8674C27.733 87.7331 27.7584 87.7618 27.8379 87.8811C27.7145 87.6974 27.5869 87.5123 27.469 87.3257C27.029 86.6467 26.1537 86.2183 25.3806 86.6653C24.7091 87.0526 24.2476 88.0254 24.7202 88.7537L24.7161 88.7594Z" fill="#598E44"/>
<path d="M41.6634 78.3162C43.1481 82.8472 45.7679 86.9631 49.3689 90.1051C49.9771 90.6374 50.9262 90.825 51.5578 90.1862C52.0953 89.6417 52.2948 88.5676 51.6389 87.9973C50.8216 87.2839 50.0492 86.5228 49.3314 85.7123C48.9577 85.2886 48.5976 84.8508 48.2541 84.4045C48.0957 84.2005 47.9415 83.9909 47.79 83.7799C47.7489 83.7209 47.7065 83.6662 47.6654 83.6072C47.756 83.7347 47.7688 83.7525 47.7022 83.6579C47.6242 83.5414 47.542 83.4235 47.464 83.3069C46.8653 82.4032 46.327 81.4611 45.8492 80.4875C45.6103 80.0008 45.3879 79.5055 45.1834 79.0043C45.0755 78.7427 44.973 78.4783 44.8747 78.2152C44.7692 77.9314 44.9068 78.3172 44.85 78.1408C44.8005 77.985 44.7441 77.8293 44.6931 77.6708C44.4416 76.9043 43.7221 76.2518 42.8555 76.4786C42.1145 76.6716 41.3929 77.4932 41.6634 78.3162Z" fill="#598E44"/>
<path d="M62.7644 71.6163C65.7565 75.5214 69.8083 78.5233 74.3523 80.3761C75.1052 80.6831 76.0914 80.1289 76.2957 79.3665C76.5276 78.5025 76.0878 77.7501 75.2861 77.423C75.0031 77.3083 74.7214 77.1893 74.4423 77.062C74.3754 77.0339 74.0222 76.8648 74.3251 77.0112C74.2079 76.9534 74.0878 76.8971 73.9706 76.8393C73.4596 76.5881 72.9581 76.3216 72.466 76.0396C71.4805 75.473 70.5314 74.842 69.6285 74.1522C69.4196 73.9919 69.2161 73.8288 69.01 73.6671C68.8711 73.5543 68.8752 73.5556 69.0143 73.6754C68.9637 73.6318 68.9146 73.591 68.864 73.5475C68.7461 73.4482 68.6309 73.3474 68.5158 73.2467C68.0902 72.8709 67.6754 72.4824 67.2744 72.0799C66.4722 71.2749 65.726 70.4164 65.0331 69.5127C64.5382 68.8692 63.3925 68.8744 62.8442 69.4316C62.2085 70.076 62.2328 70.929 62.7631 71.6205L62.7644 71.6163Z" fill="#598E44"/>
<path d="M72.6595 52.6352C77.2532 55.8269 82.5481 58.0435 88.0516 59.0487C88.4753 59.1253 88.8318 59.153 89.2331 58.9445C89.5712 58.7689 89.8955 58.4119 89.9977 58.0377C90.1929 57.3114 89.8398 56.2487 88.9881 56.0942C86.3191 55.6063 83.7039 54.839 81.1968 53.8027C80.8956 53.6799 80.5971 53.5487 80.2986 53.4176C80.1396 53.3466 79.9805 53.2756 79.8242 53.2032C80.1535 53.3533 79.6511 53.1186 79.5953 53.0918C78.9895 52.7991 78.3903 52.4925 77.8007 52.1705C76.6004 51.513 75.4407 50.7925 74.3161 50.0118C73.6494 49.5483 72.5822 49.7921 72.1803 50.4966C71.7486 51.2514 71.9507 52.1377 72.665 52.6324L72.6595 52.6352Z" fill="#598E44"/>
<path d="M85.3619 27.8222C89.2816 31.954 93.7654 35.5658 98.6462 38.5037C99.3412 38.921 100.363 38.757 100.782 38.019C101.201 37.281 101.043 36.3302 100.297 35.8831C97.9338 34.458 95.6636 32.8833 93.5102 31.157C93.3797 31.0538 93.252 30.9491 93.1258 30.8471C93.0837 30.8131 92.6401 30.4431 92.8886 30.6526C92.6359 30.4418 92.3819 30.2282 92.1333 30.0118C91.6151 29.5654 91.1066 29.1105 90.6006 28.6473C89.5774 27.7057 88.5869 26.7263 87.6292 25.7159C87.0728 25.1287 86.0322 25.034 85.4402 25.6347C84.8482 26.2355 84.7606 27.1956 85.3591 27.8236L85.3619 27.8222Z" fill="#598E44"/>
<path d="M117.491 17.5344C115.617 20.7001 114.968 24.5035 115.711 28.1109C115.874 28.9022 116.742 29.5123 117.548 29.3031C118.354 29.0938 118.915 28.3135 118.74 27.4655C118.662 27.0801 118.597 26.6918 118.552 26.3032C118.539 26.205 118.534 26.1068 118.522 26.0113C118.5 25.8205 118.535 26.2979 118.524 26.0002C118.516 25.805 118.505 25.6084 118.501 25.4118C118.49 24.625 118.554 23.8412 118.674 23.0635C118.703 22.8774 118.657 22.9986 118.664 23.1066C118.66 23.011 118.715 22.8536 118.735 22.7591C118.778 22.5659 118.822 22.3754 118.873 22.1848C118.969 21.8245 119.08 21.4667 119.205 21.1156C119.27 20.9317 119.342 20.7477 119.415 20.5665C119.451 20.4745 119.488 20.3852 119.528 20.2946C119.531 20.2862 119.691 19.9485 119.591 20.1537C119.492 20.3589 119.641 20.0545 119.663 20.0154C119.707 19.926 119.753 19.8394 119.799 19.7528C119.898 19.5615 120.006 19.3728 120.117 19.1895C120.53 18.4932 120.374 17.4745 119.632 17.0537C118.89 16.6329 117.936 16.7932 117.496 17.5384L117.491 17.5344Z" fill="#598E44"/>
<path d="M135.03 38.8448C135.864 37.5005 136.345 35.8998 136.345 34.3148C136.345 33.8576 136.321 33.3883 136.245 32.9392C136.088 32.0189 135.293 31.3149 134.345 31.3919C133.775 31.4367 133.302 31.7558 132.995 32.233C132.766 32.5926 132.727 33.0144 132.66 33.4228C132.593 33.8311 132.537 34.213 132.487 34.6086C132.373 35.5304 132.311 36.4596 132.293 37.3867C132.278 38.1975 132.91 39.0037 133.762 39.0113C134.614 39.0189 135.371 38.4059 135.387 37.5425C135.413 36.122 135.551 34.7067 135.802 33.309L135.732 33.698C135.745 33.6355 135.759 33.5826 135.784 33.524L135.618 33.8827L135.648 33.8323L135.392 34.1397L135.429 34.0962L135.089 34.3356L135.133 34.3058L134.742 34.4463L134.794 34.433L134.396 34.4655L134.441 34.4662L134.052 34.396L134.094 34.4092L133.735 34.2429L133.772 34.2659L133.464 34.0102C133.488 34.0292 133.508 34.0539 133.524 34.0772L133.284 33.7373C133.3 33.7675 133.314 33.795 133.33 33.8253L133.189 33.434C133.243 33.6049 133.253 33.7918 133.268 33.9689L133.236 33.5704C133.285 34.2014 133.253 34.8323 133.14 35.4561L133.211 35.0671C133.097 35.6674 132.913 36.248 132.657 36.8034L132.823 36.4447C132.701 36.7001 132.568 36.9474 132.418 37.1895C131.991 37.8791 132.17 38.9099 132.902 39.3253C133.635 39.7407 134.584 39.5791 135.038 38.8406L135.03 38.8448Z" fill="#598E44"/>
<path d="M126.206 24.5603C125.034 27.5115 124.053 30.5346 123.268 33.6128C123.068 34.3973 123.437 35.3295 124.278 35.5562C125.05 35.7659 126.007 35.384 126.221 34.5466C127.006 31.4684 127.987 28.4453 129.159 25.4942C129.458 24.7386 128.918 23.7591 128.15 23.5507C127.293 23.3188 126.528 23.7546 126.206 24.5603Z" fill="#73B25F"/>
</svg>
