<svg width="149" height="110" viewBox="0 0 149 110" fill="none" xmlns="http://www.w3.org/2000/svg">
<path d="M118.485 102.357C117.807 102.59 117.13 102.687 116.418 102.621C115.749 102.558 115.134 102.264 114.597 101.873L114.326 101.579C114.202 101.418 114.125 101.236 114.097 101.036C114.023 100.72 114.024 100.343 114.184 100.044C114.861 98.7598 115.619 97.5153 116.445 96.3223L116.738 96.0511L117.088 95.8665C117.408 95.7468 117.75 95.7497 118.074 95.846C118.678 96.0293 119.085 96.5344 119.171 97.1593C119.314 98.184 119.459 99.2101 119.601 100.235C119.715 101.039 119.03 101.884 118.218 101.933C117.354 101.985 116.64 101.408 116.52 100.55C116.378 99.5255 116.232 98.4995 116.09 97.4747C117.001 97.7535 117.909 98.0311 118.819 98.3129C118.55 98.701 118.289 99.0959 118.037 99.4987L118.259 99.1469C117.812 99.8589 117.395 100.588 117.002 101.331L116.586 99.5014C116.632 99.5357 116.681 99.5686 116.728 99.6002L116.376 99.3786C116.527 99.4675 116.68 99.5409 116.847 99.5931L116.449 99.473C116.659 99.5347 116.869 99.5687 117.091 99.5746L116.691 99.5627C116.928 99.5652 117.158 99.5374 117.39 99.4861L117.005 99.5763C117.142 99.5436 117.272 99.5042 117.405 99.4592C117.789 99.3275 118.218 99.3327 118.591 99.5022C118.937 99.6601 119.28 99.9998 119.401 100.368C119.655 101.148 119.312 102.081 118.493 102.361L118.485 102.357Z" fill="white"/>
<path d="M115.374 95.0478C114.336 95.5761 113.141 95.869 111.976 95.8931C111.705 95.8988 111.429 95.8755 111.178 95.7612C110.866 95.6187 110.621 95.3711 110.462 95.0705C110.16 94.5007 110.256 93.8706 110.633 93.3579C111.306 92.4394 112.024 91.5512 112.776 90.6922C113.037 90.3958 113.412 90.1854 113.808 90.1447C114.205 90.104 114.67 90.2341 114.958 90.4981C115.246 90.7621 115.482 91.1251 115.505 91.5304C115.528 91.9357 115.432 92.3648 115.152 92.6799C114.401 93.536 113.683 94.4243 113.008 95.3456L111.665 92.8104C112.159 92.8008 112.651 92.7386 113.134 92.6255L112.75 92.7156C113.285 92.5853 113.801 92.3947 114.293 92.1454C114.622 91.9755 115.157 92.0421 115.478 92.1884C115.825 92.3464 116.167 92.6861 116.288 93.0546C116.41 93.4231 116.434 93.8699 116.245 94.24L116.024 94.5918C115.847 94.8006 115.632 94.9511 115.376 95.0491L115.374 95.0478Z" fill="white"/>
<path d="M109.858 92.0125C109.147 93.0945 108.234 94.091 107.2 94.8729C106.739 95.2209 106.14 95.4145 105.563 95.3356C104.73 95.2216 104.093 94.5127 104.011 93.6854C103.971 93.3029 104.048 92.8856 104.097 92.5026C104.139 92.185 104.186 91.8659 104.241 91.5506C104.362 90.8434 104.515 90.1434 104.697 89.4506C104.807 89.0377 104.972 88.6838 105.333 88.4295C105.638 88.2146 106.101 88.0884 106.471 88.1651C106.869 88.2477 107.267 88.4495 107.492 88.8004C107.696 89.1215 107.856 89.5552 107.756 89.9386C107.592 90.5614 107.452 91.1889 107.338 91.821C107.224 92.4531 107.114 93.067 107.077 93.6935L107.089 93.2938C107.09 93.352 107.093 93.3977 107.105 93.4541L107.015 93.0692L107.033 93.1184L106.848 92.7689L106.875 92.815L106.604 92.5213C106.626 92.5482 106.651 92.5736 106.681 92.5906L106.329 92.369L106.374 92.3896C106.243 92.35 106.108 92.3091 105.976 92.2695C106.009 92.2809 106.041 92.2852 106.075 92.284L105.676 92.2721C105.713 92.2722 105.749 92.2681 105.783 92.2599L105.398 92.3501C105.477 92.3279 105.548 92.2989 105.62 92.2603L105.27 92.4448C105.556 92.2723 105.814 92.0218 106.059 91.7966L105.765 92.0679C106.42 91.4606 106.997 90.7771 107.488 90.0273C107.688 89.7235 108.174 89.5159 108.52 89.4798C108.903 89.4396 109.381 89.5692 109.67 89.8332C109.958 90.0973 110.194 90.4602 110.217 90.8655L110.205 91.2652C110.159 91.5469 110.046 91.795 109.864 92.015L109.858 92.0125Z" fill="white"/>
<path d="M99.8176 90.5024C98.8466 91.2889 97.8175 92.0013 96.7354 92.6283C96.1489 92.967 95.542 93.3577 94.8889 93.5435C93.9504 93.8104 92.9214 93.7978 92.1518 93.1035C91.6072 92.6103 91.497 91.9406 91.7362 91.2735C92.257 89.8088 92.7778 88.3441 93.2999 86.8766C93.4271 86.5227 93.8242 86.1964 94.1661 86.0662C94.5079 85.9359 95.0068 85.9317 95.3514 86.1091C95.6961 86.2866 96.0312 86.5822 96.1619 86.9753C96.2926 87.3684 96.2664 87.7547 96.1189 88.1607C95.5981 89.6254 95.0772 91.09 94.5551 92.5576L94.1395 90.7276C94.1953 90.7768 94.2481 90.8179 94.3106 90.86L93.9588 90.6385C94.0224 90.6708 94.0829 90.695 94.149 90.7217L93.7509 90.6016C93.8448 90.6273 93.934 90.6408 94.0298 90.647L93.6302 90.6351C93.7827 90.6365 93.9276 90.6174 94.0747 90.5857L93.6899 90.6759C93.9701 90.6062 94.2322 90.4941 94.4895 90.3628L94.1399 90.5473C95.5205 89.8181 96.8214 88.9572 98.0348 87.9748C98.6664 87.4626 99.7637 87.6765 100.193 88.3485C100.67 89.0936 100.494 89.9595 99.8191 90.5065L99.8176 90.5024Z" fill="white"/>
<path d="M84.4359 87.6217C82.775 87.7706 81.1101 87.921 79.4492 88.0699C78.9519 88.1157 78.4975 87.9325 78.1627 87.569C77.8712 87.2524 77.6304 86.7274 77.7641 86.2845C78.0173 85.4298 78.3102 84.5999 78.7349 83.8096C79.1595 83.0193 79.6485 82.2822 80.2171 81.6017C80.5294 81.23 80.9733 81.0476 81.4478 81.0595C81.8975 81.0737 82.4388 81.2828 82.6702 81.7014C83.2072 82.6745 83.7428 83.6434 84.2798 84.6165C84.4816 84.9807 84.6133 85.3266 84.5443 85.7547C84.4832 86.1354 84.2367 86.5643 83.9089 86.7758C83.5811 86.9873 83.1688 87.1228 82.7707 87.0402C82.3727 86.9576 81.9483 86.7609 81.7496 86.4049C81.2126 85.4318 80.6771 84.4629 80.14 83.4898L82.593 83.5894C82.2715 83.974 81.9769 84.3742 81.7094 84.797L81.9309 84.4452C81.4147 85.272 81.0115 86.1572 80.7265 87.0893L80.8465 86.6913L80.8231 86.7725L79.1379 84.9872C80.7988 84.8383 82.4637 84.6878 84.1246 84.539C84.9301 84.4668 85.773 85.0822 85.8229 85.9219C85.8727 86.7615 85.2994 87.5419 84.44 87.6202L84.4359 87.6217Z" fill="white"/>
<path d="M70.6401 81.9672C68.8408 82.2334 67.0267 82.2853 65.2084 82.1821C64.7278 82.1537 64.3064 81.7711 64.0936 81.3713C63.8704 80.9497 63.8316 80.452 64.043 80.0105C64.7761 78.4757 65.8429 77.1576 67.1671 76.0963C67.8109 75.5795 68.8782 75.807 69.3251 76.47C69.9094 77.3319 70.2801 78.3415 70.3566 79.3839C70.4178 80.1912 69.8231 81.0334 68.9737 81.0822C68.1244 81.131 67.3398 80.5592 67.2754 79.6993C67.2569 79.456 67.2191 79.2176 67.1647 78.9783L67.2549 79.3632C67.1657 79.006 67.0399 78.6696 66.8727 78.3415L67.0573 78.6911C66.9756 78.5416 66.8886 78.3964 66.7933 78.2543L68.9514 78.628C68.7802 78.7645 68.6176 78.9049 68.4552 79.0522L68.749 78.7809C68.1494 79.335 67.6259 79.9611 67.1865 80.6493L67.408 80.2975C67.2062 80.6209 67.0214 80.9519 66.8578 81.2961L65.6923 79.1246C65.941 79.1391 66.1881 79.1496 66.4365 79.1572L66.0369 79.1453C67.4702 79.1821 68.9046 79.0969 70.3235 78.8888C71.126 78.771 71.9745 79.4639 72.0218 80.2717C72.0713 81.1419 71.4937 81.842 70.6389 81.9701L70.6401 81.9672Z" fill="white"/>
<path d="M60.8147 72.1671C58.9919 72.2082 57.1618 72.1609 55.3438 72.0271C54.8073 71.987 54.3177 71.5223 54.1394 71.0394C53.9353 70.4937 54.0742 69.9647 54.3999 69.5038C55.1767 68.411 56.1899 67.4497 57.32 66.7323C57.6614 66.5134 58.0228 66.3103 58.3851 66.135C59.1468 65.7706 60.0739 66.0295 60.5828 66.6834C60.8532 67.0312 60.9592 67.471 61.092 67.882C61.2058 68.23 61.3183 68.5808 61.4321 68.9288C61.6832 69.7001 61.3435 70.655 60.5242 70.9218C59.7557 71.1742 58.7967 70.836 58.5312 70.0139C58.3407 69.4234 58.1851 68.801 57.9453 68.2289L58.1299 68.5785C58.1117 68.5362 58.0869 68.501 58.0538 68.4689L58.3251 68.7627L58.271 68.7245L58.6228 68.946L58.5639 68.9259L58.9619 69.046L58.9022 69.0426L59.3019 69.0545L59.2398 69.0636L59.6247 68.9734C59.5342 69.0003 59.4552 69.0392 59.3736 69.0837L59.7232 68.8992C59.023 69.278 58.3756 69.7354 57.7878 70.271L58.0816 69.9997C57.5975 70.4497 57.1595 70.948 56.7755 71.4845L55.8316 68.9612C56.6321 69.0195 57.4294 69.0627 58.2328 69.0849L57.8331 69.073C58.724 69.0976 59.6113 69.1001 60.5019 69.0803C60.9244 69.0719 61.3196 69.1532 61.6514 69.4337C61.9373 69.6729 62.1769 70.0884 62.1989 70.466C62.2439 71.249 61.6789 72.1455 60.816 72.1643L60.8147 72.1671Z" fill="white"/>
<path d="M55.6631 60.7292C53.4361 60.7461 51.1857 60.7694 48.991 60.3416C48.3405 60.2155 47.7341 59.6635 47.6937 58.9677C47.6532 58.2719 48.0301 57.6165 48.6917 57.3596C49.0594 57.2174 49.4154 57.0561 49.7681 56.8798C50.0799 56.7257 49.461 57.0531 49.7681 56.8798C49.855 56.8309 49.9378 56.7835 50.0248 56.7346C50.193 56.6343 50.3626 56.5311 50.5237 56.4241C50.8527 56.2098 51.1672 55.9752 51.4743 55.727C51.6144 55.6138 51.7473 55.4939 51.883 55.3754C51.9702 55.296 51.9327 55.3334 51.7675 55.4794C51.8037 55.4448 51.8386 55.413 51.8748 55.3784C51.9579 55.3006 52.0367 55.2173 52.1182 55.1353C52.5059 54.7401 52.9855 54.5092 53.5502 54.5997C54.1149 54.6901 54.5514 55.0694 54.7546 55.5874C55.0322 56.2857 55.2118 57.0347 55.293 57.783C55.379 58.5881 54.7428 59.4318 53.9101 59.4814C53.0774 59.5309 52.3039 58.9573 52.2117 58.0985C52.1967 57.9521 52.1789 57.8044 52.1529 57.6598C52.1422 57.5936 52.1302 57.5303 52.1182 57.467C52.0929 57.3431 51.9976 57.201 52.1325 57.5177C52.0189 57.2515 51.9622 56.95 51.8553 56.6766L54.4957 57.1271C53.1507 58.4955 51.5732 59.5674 49.7797 60.2617L49.4832 57.281C50.4938 57.4759 51.5192 57.5788 52.5495 57.626C52.6592 57.6317 52.7702 57.6346 52.8799 57.6404C53.0507 57.6466 53.0271 57.6461 52.8092 57.6388C52.8828 57.6416 52.9576 57.6417 53.0312 57.6446C53.2878 57.6491 53.5485 57.6522 53.8064 57.6539C54.3222 57.6574 54.839 57.6512 55.3546 57.6477C55.7814 57.6447 56.1667 57.7181 56.5041 58.0012C56.79 58.2403 57.0296 58.6558 57.0516 59.0335C57.0977 59.8067 56.5334 60.724 55.6687 60.7318L55.6631 60.7292Z" fill="white"/>
<path d="M50.8348 50.1244C49.0121 49.9784 47.1936 49.8308 45.371 49.6847C44.7606 49.6348 44.252 49.0627 44.1181 48.5047C43.9801 47.9109 44.204 47.2402 44.7208 46.8901C45.3133 46.4861 45.91 46.0805 46.5025 45.6764L47.3954 45.0688C47.7524 44.8229 48.1057 44.5482 48.5042 44.3757C49.1374 44.0991 49.8805 44.1789 50.4244 44.6139C50.844 44.948 51.0243 45.4862 51.2301 45.9612C51.5159 46.619 51.8017 47.2768 52.0847 47.9333C52.4084 48.6798 51.9441 49.6767 51.1769 49.9263C50.3453 50.1976 49.5301 49.8127 49.1839 49.0184C48.9979 48.5899 48.8118 48.1614 48.6258 47.7328C48.5321 47.52 48.4398 47.3043 48.3461 47.0915C48.3067 46.9986 48.266 46.9086 48.2266 46.8158C48.1752 46.697 47.9491 46.3115 48.2159 46.7496L48.4872 47.0434L48.4311 46.9872L48.7829 47.2087L48.7237 47.1817C48.8567 47.2185 48.9912 47.2594 49.123 47.299L49.0615 47.2846L49.4611 47.2964C49.3532 47.3017 49.3737 47.294 49.524 47.2706C49.6524 47.2576 49.767 47.2077 49.8722 47.1263C49.8283 47.1778 49.7409 47.2128 49.6855 47.2522L49.2174 47.57L48.3245 48.1777C47.7171 48.592 47.1097 49.0063 46.4982 49.4221L45.848 46.6275C47.6706 46.7735 49.4891 46.9211 51.3117 47.0672C52.1195 47.1322 52.7563 48.0656 52.5973 48.8407C52.4156 49.7178 51.6899 50.1974 50.8237 50.1262L50.8348 50.1244Z" fill="white"/>
<path d="M45.6294 42.8484C44.0901 44.2849 42.3669 45.4299 40.4107 46.2272C39.158 46.7356 37.9081 45.3323 38.4579 44.1327C39.2686 42.3677 40.0807 40.6 40.8943 38.8364C41.1203 38.3402 41.6025 37.9915 42.1481 37.937C42.7337 37.877 43.208 38.1509 43.5717 38.5855C44.0542 39.1627 44.5354 39.7427 45.0151 40.3186C45.534 40.9431 45.308 42.0519 44.6414 42.4767C43.8896 42.9614 43.0399 42.7717 42.4834 42.1029C42.0009 41.5257 41.5196 40.9457 41.0399 40.3698L43.7145 40.1176C42.9037 41.8826 42.0917 43.6503 41.2781 45.4139L39.3253 43.3194C39.7256 43.158 40.1113 42.9763 40.4981 42.7848C40.645 42.7088 40.6166 42.7265 40.4124 42.8309C40.4709 42.7997 40.5294 42.7684 40.5878 42.7372C40.6748 42.6883 40.7617 42.6394 40.8487 42.5905C41.0346 42.4812 41.2178 42.3706 41.3994 42.2559C41.761 42.0224 42.114 41.7781 42.4551 41.5148C42.6237 41.384 42.7935 41.2503 42.9561 41.1099C43.0328 41.0461 43.1067 40.9811 43.1806 40.916C43.2304 40.874 43.2786 40.8279 43.3297 40.7831C43.158 40.9432 43.1298 40.9678 43.2532 40.8538C43.5616 40.5654 43.8463 40.3513 44.2855 40.3063C44.668 40.2661 45.1468 40.3957 45.435 40.6597C45.7232 40.9237 45.9595 41.2867 45.9826 41.692C46.0056 42.0973 45.9283 42.5659 45.6291 42.8415L45.6294 42.8484Z" fill="white"/>
<path d="M40.581 36.226C39.5836 37.6234 38.5863 39.0208 37.589 40.4182C37.2381 40.912 36.4976 41.058 35.9566 40.8932C35.4155 40.7285 34.8722 40.1951 34.8596 39.58C34.8219 37.735 35.0105 35.9011 35.5047 34.1213C35.642 33.6256 35.8489 33.2536 36.3154 33.0065C36.7453 32.7803 37.2267 32.7545 37.6762 32.9559C38.1257 33.1572 38.5821 33.3583 39.0345 33.5609C39.7756 33.8917 40.1799 34.8724 39.8019 35.6124C39.4239 36.3525 38.5423 36.7338 37.7504 36.3799C37.2981 36.1773 36.8445 35.9774 36.3921 35.7748L38.5637 34.6093C38.1883 35.9565 37.9765 37.3407 37.9328 38.7368L37.9447 38.3371C37.9365 38.6465 37.9352 38.9557 37.9424 39.2687C37.0312 38.9898 36.1229 38.7122 35.213 38.4305C36.2104 37.0331 37.2077 35.6357 38.2051 34.2383C38.676 33.5781 39.8033 33.5095 40.3869 34.0442C41.045 34.647 41.0876 35.5173 40.581 36.226Z" fill="white"/>
<path d="M33.2907 31.7873C33.3605 33.8309 33.3156 35.8799 33.1524 37.9194C33.1053 38.5311 32.5291 39.0413 31.9724 39.1723C31.3511 39.3182 30.746 39.0698 30.3578 38.5696C29.83 37.8901 29.3009 37.2134 28.7731 36.5339C28.1436 35.7263 27.6977 34.822 28.0121 33.7807C28.2858 32.8808 28.9738 32.3943 29.7714 31.9883C29.883 31.9302 29.9961 31.8762 30.1092 31.8222C30.1664 31.7938 30.2236 31.7654 30.2807 31.737C30.5136 31.6218 29.944 31.9308 30.1515 31.8041C30.2559 31.7393 30.3574 31.6732 30.4588 31.6002C30.6629 31.4584 30.1768 31.9279 30.3595 31.6912C30.4018 31.6356 30.4457 31.5841 30.4852 31.5272L30.2637 31.879L30.2937 31.828C30.5148 31.4624 30.7442 31.1754 31.1599 31.0176C31.5168 30.884 32.0006 30.8831 32.3453 31.0606C32.6899 31.238 33.025 31.5336 33.1557 31.9267C33.2756 32.2911 33.3206 32.7677 33.1127 33.1121C32.8565 33.54 32.6194 33.8439 32.2174 34.1509C31.9409 34.3619 31.6136 34.5124 31.3046 34.6678C31.1997 34.7187 31.0948 34.7696 30.9899 34.8206C30.9422 34.8431 30.8973 34.8669 30.8496 34.8894C31.3118 34.6745 31.0943 34.7558 30.9871 34.8193C30.903 34.8695 30.7909 34.9886 30.7016 35.0126C30.7565 34.9968 31.0182 34.6837 30.8414 34.8925C30.8068 34.9312 30.7765 34.9752 30.749 35.0206L30.9706 34.6688C30.9354 34.7311 30.9059 34.7959 30.882 34.8633L31.002 34.4653C31.002 34.4653 30.9665 34.6329 30.9693 34.6342L30.9782 34.383C30.9935 34.4988 30.9874 34.4824 30.9585 34.3365C30.8962 34.0699 30.9611 34.2935 30.9829 34.3578C31.0338 34.4627 31.0264 34.4491 30.9606 34.3171C30.8907 34.1865 30.8861 34.1742 30.9465 34.2732C31.1386 34.5241 31.3253 34.7793 31.5202 35.0315C31.9753 35.6166 32.4288 36.1976 32.8839 36.7828L30.0893 37.433C30.1263 36.9631 30.1593 36.4947 30.1824 36.0253C30.1947 35.7892 30.2056 35.556 30.2138 35.3214C30.2169 35.2547 30.2172 35.1868 30.2203 35.1202C30.2226 35.0304 30.2226 35.0304 30.2203 35.1202C30.218 35.2099 30.218 35.2099 30.2203 35.1202C30.2235 35.0535 30.2238 34.9856 30.2241 34.9176C30.2428 33.9799 30.2351 33.0403 30.2025 32.103C30.1732 31.2931 30.714 30.4571 31.5854 30.4047C32.3766 30.3566 33.2524 30.9224 33.2837 31.7876L33.2907 31.7873Z" fill="white"/>
<path d="M25.1309 35.6831C25.8266 36.674 26.4885 37.6869 27.1111 38.7262C27.4962 39.3679 27.9535 40.0153 28.0749 40.765C28.1622 41.2983 28.0104 41.893 27.6553 42.3065C27.3774 42.6326 26.9309 42.8955 26.4979 42.9195C26.0648 42.9435 25.7027 42.8194 25.3484 42.5661C25.2999 42.5304 25.2515 42.4948 25.199 42.4606L25.5508 42.6821C25.1367 42.4254 24.66 42.3138 24.2035 42.1501C23.5925 41.9297 22.9573 41.5382 22.6137 40.9698C22.3838 40.5928 22.2167 40.1899 22.1784 39.7436C22.1403 39.2667 22.2281 38.8574 22.3769 38.4112C22.5634 37.8596 22.9197 37.3615 23.2761 36.9078C23.777 36.2714 24.8556 36.1602 25.4579 36.7137C26.0917 37.2951 26.1873 38.2135 25.652 38.8955C25.5247 39.0554 25.4046 39.2219 25.2917 39.3951L25.5132 39.0433C25.3849 39.2503 25.2706 39.4638 25.1945 39.6981L25.3146 39.3C25.2763 39.4289 25.2518 39.5574 25.2443 39.6935L25.2561 39.2938C25.254 39.3882 25.2629 39.4807 25.2787 39.573L25.1885 39.1881C25.2128 39.2843 25.2438 39.3733 25.2845 39.4633L25.0999 39.1137C25.146 39.1994 25.1987 39.2779 25.261 39.3505L24.9897 39.0567C25.0806 39.156 25.1805 39.2356 25.2941 39.3077L24.9423 39.0862C25.271 39.2836 25.638 39.3895 25.9999 39.5067C26.4853 39.6665 26.9284 39.882 27.3363 40.1971L25.8006 39.9367L25.8486 39.9211L25.499 40.1057C25.5277 40.0949 25.5534 40.076 25.5775 40.0529L25.2838 40.3242L25.3102 40.2885L25.0887 40.6404C25.1043 40.6134 25.1172 40.5853 25.1272 40.5558L25.0072 40.9538C25.0156 40.9202 25.02 40.8882 25.0229 40.8521L25.011 41.2517C25.0124 41.174 25.0014 41.101 24.9848 41.0253L25.075 41.4102C25.0527 41.332 25.0266 41.2622 24.9949 41.1899L25.1795 41.5395C24.431 40.1263 23.524 38.7771 22.6035 37.4728C22.1359 36.8105 22.2713 35.7659 22.9772 35.3148C23.6831 34.8636 24.6382 34.9787 25.1352 35.6885L25.1309 35.6831Z" fill="white"/>
<path d="M127.403 85.6365C129.981 88.9823 130.494 93.7975 128.679 97.6102C127.844 99.3676 126.391 101.003 124.473 101.321C123.122 101.543 121.744 101.079 120.543 100.42C119.302 99.7381 118.099 98.7102 117.868 97.3115C117.534 95.2873 119.304 93.6054 120.809 92.2077C123.192 89.9949 125.3 87.4898 127.072 84.7641" fill="#598E44"/>
<path d="M128.666 84.7415C130.477 87.1184 131.368 90.1247 131.283 93.0985C131.198 96.0722 130.105 99.2779 127.789 101.344C126.533 102.464 124.946 102.997 123.273 102.895C121.601 102.794 120.002 102.014 118.684 101.06C117.365 100.105 116.312 98.6452 116.282 96.9842C116.249 95.1957 117.192 93.6645 118.385 92.4041C118.995 91.7596 119.666 91.1767 120.299 90.5563C120.995 89.8795 121.663 89.1761 122.308 88.4485C123.611 86.9763 124.802 85.4083 125.878 83.7641C126.323 83.0853 127.493 83.0499 128.06 83.57C128.741 84.1899 128.732 85.0233 128.254 85.7518C126.527 88.3927 124.497 90.8311 122.203 92.9963C121.702 93.4692 121.191 93.9341 120.717 94.4364C120.485 94.6846 120.26 94.9395 120.052 95.2091C120.004 95.269 119.749 95.5375 119.762 95.6146C119.762 95.6146 119.91 95.3556 119.821 95.5224C119.774 95.61 119.72 95.6979 119.674 95.7856C119.6 95.9255 119.534 96.0692 119.477 96.2169C119.455 96.2717 119.406 96.3719 119.398 96.436C119.437 96.0797 119.437 96.2904 119.426 96.374C119.42 96.4158 119.323 96.8171 119.359 96.8338C119.376 96.8415 119.334 96.448 119.367 96.7864C119.377 96.8859 119.382 96.9869 119.398 97.0861C119.407 97.1413 119.472 97.3787 119.406 97.1718C119.341 96.9648 119.406 97.1579 119.418 97.1907C119.452 97.281 119.5 97.5413 119.581 97.5952C119.474 97.5228 119.45 97.3753 119.552 97.531C119.592 97.5934 119.629 97.6544 119.673 97.7152C119.766 97.8532 119.874 97.9769 119.978 98.1061C120.113 98.2731 119.773 97.914 119.936 98.0564C119.992 98.1056 120.045 98.1606 120.1 98.2126C120.21 98.314 120.329 98.4123 120.446 98.5064C120.551 98.5886 120.658 98.6679 120.766 98.7444C120.8 98.7667 120.905 98.8585 120.957 98.8719C120.781 98.7646 120.744 98.741 120.845 98.8039C120.893 98.8326 120.941 98.8614 120.989 98.8901C121.258 99.0467 121.537 99.1905 121.817 99.3218C121.975 99.3937 122.134 99.4628 122.293 99.5249C122.375 99.5552 122.456 99.5856 122.535 99.6146C122.613 99.6436 122.873 99.7756 122.569 99.63C122.859 99.7692 123.259 99.781 123.572 99.8182C123.599 99.82 123.813 99.8428 123.625 99.8288C123.425 99.8124 123.69 99.8278 123.742 99.8273C123.934 99.8231 124.122 99.7928 124.311 99.7734C124.594 99.7424 124.283 99.7606 124.253 99.7949C124.273 99.7734 124.425 99.7471 124.467 99.7359C124.606 99.6934 124.745 99.6412 124.879 99.5865C124.946 99.5591 125.012 99.5276 125.08 99.4974C125.23 99.4296 125.202 99.5124 125.021 99.5287C125.132 99.5177 125.299 99.3592 125.394 99.2934C125.517 99.2099 125.633 99.1197 125.75 99.0268C125.783 99.0007 125.895 98.9259 125.921 98.8833C125.801 99.0873 125.774 99.0273 125.871 98.9253C126.099 98.6953 126.312 98.4589 126.509 98.205C126.602 98.0838 126.692 97.9613 126.779 97.8376C126.81 97.7907 126.842 97.7438 126.875 97.6941C127.043 97.444 126.837 97.7246 126.837 97.7551C126.843 97.6523 127.012 97.4535 127.061 97.3602C127.143 97.2103 127.218 97.0606 127.288 96.9056C127.418 96.6278 127.537 96.3449 127.642 96.0555C127.688 95.9304 127.729 95.8028 127.773 95.6765C127.869 95.3999 127.754 95.7049 127.755 95.7464C127.753 95.6605 127.824 95.4986 127.848 95.4145C128.003 94.8212 128.109 94.2157 128.165 93.6051C128.183 93.4326 128.193 93.2603 128.204 93.0881C128.207 93.0352 128.212 92.7856 128.209 93.0019C128.205 93.235 128.209 92.9035 128.209 92.8591C128.209 92.5153 128.194 92.168 128.163 91.8239C128.133 91.4798 128.088 91.1363 128.029 90.796C128.01 90.6817 128 90.3064 127.916 90.2304C127.916 90.2304 127.987 90.5079 127.939 90.3363C127.913 90.243 127.891 90.1509 127.865 90.0576C127.675 89.3755 127.428 88.708 127.119 88.0704C127.095 88.0186 127.067 87.9684 127.043 87.9166C126.872 87.5665 127.207 88.1989 127.013 87.8622C126.928 87.7142 126.843 87.5634 126.75 87.4156C126.558 87.1066 126.35 86.8077 126.129 86.5163C125.637 85.8702 125.816 84.7977 126.502 84.3583C127.229 83.8926 128.135 84.0399 128.66 84.732L128.666 84.7415Z" fill="#598E44"/>
<path d="M127.288 83.4067C126.124 84.8268 124.96 86.2469 123.797 87.6641C122.213 89.5943 120.584 91.5649 118.429 92.8268C117.585 93.3204 116.637 93.7055 115.659 93.6785C114.68 93.6516 113.67 93.1504 113.258 92.2615C112.784 91.2459 113.175 90.0521 113.607 89.0203C115.33 84.9171 117.712 81.0936 120.636 77.7383C121.143 77.1558 121.817 76.5339 122.573 76.6909C123.154 76.8126 123.536 77.3574 123.856 77.8573C124.646 79.0887 125.433 80.3217 126.223 81.5531L127.286 83.4054L127.288 83.4067Z" fill="#73B25F"/>
<path d="M128.476 84.3993C127.256 85.8894 126.037 87.3766 124.814 88.8653C123.678 90.247 122.512 91.595 121.151 92.7686C119.789 93.9421 118.235 94.9091 116.483 95.1764C114.578 95.4658 112.509 94.5441 111.762 92.7026C111.062 90.9813 111.851 89.1382 112.552 87.5616C113.306 85.8694 114.173 84.2258 115.145 82.6464C116.165 80.9903 117.267 79.3923 118.493 77.8812C119.719 76.3702 121.223 74.4818 123.346 75.3197C124.477 75.7667 125.075 76.8901 125.695 77.8601C126.265 78.753 126.84 79.6443 127.41 80.5372C127.82 81.1766 128.177 81.8568 128.554 82.5154C128.957 83.2161 128.93 84.1944 128.181 84.6734C127.528 85.0908 126.453 85.0507 126.023 84.2997C125.012 82.5425 123.932 80.842 122.837 79.135C122.73 78.967 122.625 78.8003 122.517 78.6351C122.464 78.5566 122.414 78.4794 122.357 78.4025C122.363 78.4119 122.075 78.0661 122.227 78.2242C122.357 78.3581 122.145 78.1662 122.116 78.1395C121.978 78.0017 122.224 78.1785 122.257 78.2037L122.327 78.222C122.192 78.2047 122.191 78.2006 122.324 78.2068C122.457 78.2062 122.458 78.2103 122.326 78.2179L122.518 78.1693C122.518 78.1693 122.326 78.2179 122.329 78.2399C122.336 78.2771 122.604 78.0553 122.407 78.2038C122.335 78.2563 122.259 78.3034 122.189 78.36C122.146 78.3949 121.959 78.5444 122.13 78.401C122.301 78.2576 121.972 78.5675 121.931 78.6134C121.795 78.7625 121.663 78.9169 121.536 79.0699C120.446 80.35 119.432 81.6926 118.504 83.0944C118.395 83.2591 118.286 83.4239 118.18 83.5899C118.192 83.5715 117.934 83.9814 118.051 83.79C118.151 83.6312 117.987 83.8936 117.968 83.9289C117.746 84.2877 117.532 84.6461 117.324 85.0141C116.904 85.7418 116.508 86.4839 116.134 87.2363C115.761 87.9887 115.406 88.7529 115.081 89.5271C114.95 89.8354 114.834 90.1501 114.72 90.462C114.641 90.6714 114.791 90.178 114.741 90.3933C114.724 90.4674 114.702 90.5389 114.685 90.613C114.646 90.7793 114.629 90.9449 114.597 91.111C114.548 91.3914 114.581 91.0728 114.589 91.0392C114.568 91.1148 114.594 91.2318 114.601 91.3133C114.606 91.3838 114.621 91.4553 114.628 91.5299C114.645 91.7317 114.529 91.2771 114.614 91.4625C114.643 91.5266 114.671 91.6005 114.694 91.6689C114.755 91.8636 114.537 91.4612 114.667 91.6159C114.713 91.671 114.759 91.7359 114.796 91.797C114.891 91.946 114.571 91.6096 114.791 91.7846C114.848 91.8311 114.909 91.876 114.965 91.9253C115.23 92.1583 114.746 91.832 114.945 91.9163C115.083 91.9723 115.222 92.0421 115.36 92.0981C115.56 92.1824 115.074 92.0461 115.289 92.0729C115.363 92.0827 115.439 92.1036 115.514 92.1175C115.59 92.1314 115.664 92.1314 115.74 92.1453C115.908 92.1711 115.462 92.1651 115.752 92.1407C115.933 92.1245 116.114 92.0944 116.295 92.0781C116.511 92.0578 116.056 92.1533 116.266 92.0889C116.345 92.0638 116.422 92.0444 116.502 92.0193C116.836 91.9129 117.15 91.7699 117.464 91.6171C117.139 91.7786 117.638 91.5124 117.715 91.4624C117.866 91.371 118.016 91.2727 118.164 91.1731C118.475 90.9608 118.779 90.735 119.068 90.4958C119.24 90.3564 119.406 90.2104 119.575 90.0629C119.796 89.8677 119.616 90.024 119.575 90.0629C119.671 89.9707 119.768 89.8785 119.864 89.7863C120.167 89.4884 120.459 89.1825 120.745 88.87C121.316 88.2421 121.863 87.5888 122.404 86.9301C123.64 85.4271 124.875 83.9199 126.109 82.4127C126.623 81.7855 127.679 81.6572 128.291 82.2186C128.904 82.78 129.036 83.7289 128.485 84.4004L128.476 84.3993Z" fill="#73B25F"/>
<path d="M118.135 72.6646C119.498 73.745 119.817 75.6839 118.872 77.1459L112.453 87.0376C111.731 88.1519 110.985 89.2893 109.748 89.9108C109.315 90.1289 108.836 90.2544 108.352 90.2414C106.189 90.1853 105.354 87.8105 105.497 85.8604C105.646 83.8589 106.445 81.9627 107.381 80.1863C108.949 77.2074 110.926 74.4423 113.239 71.9964C113.753 71.4511 114.368 70.884 115.119 70.8789C115.365 70.8784 115.603 70.939 115.833 71.0236C116.139 71.1359 116.421 71.3086 116.678 71.5142L118.131 72.6661L118.135 72.6646Z" fill="#598E44"/>
<path d="M119.123 71.4769C120.122 72.296 120.776 73.4755 120.927 74.7593C121.077 76.043 120.704 77.1225 120.048 78.1443C119.69 78.7062 119.325 79.2615 118.963 79.818C117.513 82.0511 116.064 84.2841 114.613 86.5199C114.285 87.0239 113.96 87.5264 113.632 88.0304C112.948 89.0838 112.219 90.1166 111.178 90.8474C109.896 91.7477 108.346 92.0354 106.861 91.4918C105.639 91.0439 104.757 89.8865 104.33 88.6946C103.881 87.4383 103.844 86.0908 104.055 84.7843C104.493 82.0806 105.842 79.5601 107.269 77.2586C108.049 76.0007 108.88 74.7757 109.795 73.61C110.602 72.5785 111.45 71.5387 112.402 70.6378C112.922 70.1462 113.48 69.6824 114.184 69.4823C115.042 69.2363 115.92 69.3334 116.72 69.7286C117.417 70.0735 118.019 70.6131 118.627 71.0943L119.115 71.48C119.75 71.9837 119.864 73.0567 119.309 73.6618C118.755 74.2668 117.808 74.394 117.127 73.8559C116.735 73.5443 116.34 73.2315 115.947 72.92C115.872 72.8617 115.797 72.8006 115.722 72.7424C115.706 72.7319 115.692 72.7185 115.675 72.7039C115.583 72.6351 115.312 72.4841 115.557 72.6097C115.501 72.584 115.228 72.4054 115.174 72.4351C115.166 72.4381 115.47 72.495 115.279 72.4659C115.219 72.4556 115.161 72.4425 115.102 72.4294C114.828 72.3728 115.292 72.3934 115.038 72.4414C115.332 72.3878 115.104 72.4404 114.956 72.4957C114.764 72.565 115.171 72.3382 115.015 72.4713C114.974 72.5075 114.918 72.5331 114.875 72.5679C114.851 72.584 114.601 72.7733 114.607 72.7828C114.612 72.7881 114.817 72.5755 114.69 72.7049C114.652 72.7451 114.609 72.7869 114.567 72.8258C114.462 72.9308 114.36 73.0412 114.26 73.1488C113.828 73.6122 113.407 74.0877 112.999 74.5724C112.183 75.5418 111.414 76.5567 110.702 77.6041C110.538 77.8457 110.376 78.0886 110.216 78.3356C110.178 78.3966 110.136 78.4591 110.098 78.5201C110.091 78.5342 109.96 78.74 110.052 78.5911C110.153 78.4294 109.993 78.6902 109.97 78.7271C109.918 78.8094 109.866 78.8945 109.818 78.978C109.492 79.5207 109.177 80.0714 108.88 80.6339C108.316 81.6912 107.812 82.7754 107.428 83.9108C107.419 83.9305 107.351 84.1548 107.404 83.9782C107.457 83.8016 107.392 84.0272 107.386 84.0482C107.341 84.205 107.3 84.3632 107.263 84.5198C107.193 84.8148 107.136 85.1121 107.09 85.4077C107.068 85.5443 107.053 85.6835 107.037 85.8227C107.03 85.8909 106.985 86.3402 107.006 86.1218C107.027 85.9034 107.007 86.2549 107.01 86.3144C107.014 86.4487 107.023 86.5787 107.036 86.7141C107.045 86.8066 107.065 87.3535 107.142 87.3922C107.148 87.3948 107.035 87.0302 107.136 87.3384C107.153 87.3904 107.169 87.4453 107.188 87.5015C107.23 87.6261 107.273 87.7479 107.327 87.8679C107.349 87.9185 107.374 87.9674 107.395 88.018C107.459 88.1764 107.35 87.9156 107.336 87.9092C107.381 87.9228 107.477 88.137 107.506 88.1844C107.553 88.2534 107.679 88.3584 107.701 88.4366C107.659 88.2745 107.507 88.2495 107.648 88.3678C107.702 88.413 107.751 88.4625 107.806 88.5049C107.846 88.5367 107.892 88.5642 107.93 88.5988C108.059 88.705 107.811 88.5172 107.801 88.5161C107.865 88.5111 108.028 88.623 108.09 88.6512C108.347 88.7681 107.828 88.6136 108.115 88.6559C108.173 88.6649 108.228 88.6767 108.287 88.6829C108.325 88.6899 108.364 88.694 108.404 88.6953C108.515 88.7051 108.482 88.7036 108.303 88.6934C108.336 88.7324 108.611 88.667 108.662 88.6596C108.942 88.6273 108.48 88.7369 108.744 88.6358C108.859 88.5929 108.97 88.5514 109.08 88.5031C109.106 88.491 109.279 88.3961 109.127 88.4834C108.975 88.5707 109.201 88.4322 109.225 88.416C109.35 88.3367 109.468 88.2506 109.582 88.1633C109.685 88.0806 109.853 87.9192 109.661 88.1105C109.849 87.9207 110.034 87.7255 110.206 87.5183C110.55 87.0996 110.85 86.6507 111.145 86.1964C111.441 85.7421 111.747 85.2722 112.046 84.8095C113.375 82.7596 114.705 80.7139 116.033 78.6641L117.476 76.4382C117.525 76.3616 117.577 76.2835 117.626 76.2069C117.633 76.1899 117.645 76.1715 117.659 76.1571C117.66 76.1543 117.662 76.1487 117.664 76.1459C117.665 76.143 117.503 76.4026 117.503 76.4026C117.532 76.3378 117.577 76.2765 117.611 76.2102C117.669 76.0972 117.72 75.9844 117.767 75.8663C117.787 75.824 117.795 75.753 117.823 75.7145C117.819 75.723 117.747 76.0236 117.775 75.8563C117.792 75.7517 117.821 75.6522 117.835 75.5464C117.841 75.4948 117.848 75.4433 117.854 75.3918C117.883 75.187 117.836 75.4008 117.859 75.479C117.8 75.2856 117.825 75.0144 117.797 74.8075C117.773 74.6434 117.821 74.9342 117.828 74.9408C117.806 74.9208 117.79 74.8216 117.784 74.7913C117.745 74.6749 117.699 74.5657 117.652 74.4523C117.546 74.1928 117.801 74.6632 117.641 74.4333C117.572 74.3305 117.507 74.2261 117.428 74.1291C117.411 74.1076 117.331 74.0301 117.328 74.0052C117.329 74.0191 117.542 74.2151 117.416 74.1032C117.319 74.018 117.23 73.9298 117.131 73.8474C116.504 73.3337 116.376 72.2779 116.937 71.6656C117.499 71.0534 118.448 70.9205 119.119 71.4715L119.123 71.4769Z" fill="#598E44"/>
<path d="M109.903 69.0774C111.605 70.3701 111.23 73.5484 109.847 75.1788C108.179 77.1453 107.806 79.0246 106.982 81.4679C106.254 83.6207 105.346 85.8452 103.567 87.2612C102.638 88.0019 101.522 88.4706 100.397 88.8566C99.1671 89.2768 97.8484 89.6088 96.5719 89.3473C95.2954 89.0858 94.0934 88.0855 93.9868 86.7877C93.9411 86.2155 94.1048 85.6467 94.2819 85.1011C95.7548 80.4926 98.0469 76.1483 101.021 72.3325C101.895 71.2126 102.844 70.1233 104.042 69.3619C105.24 68.6004 106.731 68.204 108.104 68.5673L109.909 69.0731L109.903 69.0774Z" fill="#73B25F"/>
<path d="M110.897 67.8894C112.464 69.1273 112.848 71.348 112.431 73.2137C112.208 74.2116 111.813 75.138 111.202 75.9627C110.922 76.3389 110.618 76.6937 110.35 77.079C110.083 77.4644 110.502 76.7977 110.287 77.1797C110.222 77.293 110.157 77.4062 110.094 77.5208C109.951 77.7824 109.823 78.0505 109.702 78.3224C108.799 80.372 108.362 82.5933 107.406 84.6255C106.916 85.6649 106.31 86.6891 105.526 87.534C104.641 88.492 103.593 89.1857 102.413 89.7275C100.312 90.6935 97.7814 91.4298 95.5158 90.6497C94.5542 90.3172 93.6142 89.6235 93.0752 88.7517C92.3758 87.6195 92.2988 86.3761 92.6662 85.1138C94.0795 80.2774 96.503 75.6969 99.5547 71.6952C101.188 69.5525 103.108 67.5714 105.843 67.0065C106.76 66.8181 107.708 66.8655 108.608 67.1156C109.121 67.2606 109.632 67.4015 110.145 67.5465C110.921 67.7638 111.612 68.436 111.43 69.3201C111.276 70.0631 110.49 70.8388 109.657 70.6056C109.249 70.4914 108.839 70.376 108.431 70.2618C108.251 70.2102 108.067 70.1572 107.885 70.1083C107.797 70.0852 107.712 70.0633 107.621 70.0458C107.505 70.0237 107.391 70.0057 107.275 69.9904C107.197 69.9822 107.119 69.9739 107.043 69.9697C107.229 69.9727 107.266 69.9727 107.153 69.9755C106.935 69.9889 106.722 69.9938 106.51 70.0265C106.401 70.0415 106.267 70.0519 106.161 70.089C106.471 69.978 106.273 70.0614 106.201 70.0834C105.977 70.1581 105.748 70.2274 105.528 70.3213C105.435 70.3607 105.345 70.4014 105.258 70.4433C104.901 70.6143 105.392 70.3442 105.136 70.5102C104.717 70.779 104.332 71.0563 103.947 71.3711C103.601 71.6526 104.155 71.1528 103.838 71.4679C103.774 71.534 103.708 71.596 103.641 71.6608C103.415 71.888 103.198 72.126 102.989 72.3678C102.3 73.1635 101.665 74.0113 101.057 74.8748C100.744 75.3173 100.44 75.7677 100.144 76.222C100.064 76.3455 99.9828 76.4718 99.9055 76.5966C100.063 76.3483 99.8899 76.6235 99.8519 76.6845C99.683 76.9582 99.5169 77.2331 99.3564 77.5106C98.2379 79.4281 97.2711 81.4385 96.4742 83.5092C96.2805 84.0167 96.0952 84.528 95.9197 85.0403C95.8408 85.2733 95.7648 85.5075 95.6874 85.7446C95.5486 86.1613 95.7536 85.4275 95.6568 85.8566C95.6221 86.0076 95.5817 86.156 95.5554 86.3108C95.5372 86.4182 95.5217 86.5269 95.5147 86.6394C95.5398 86.3003 95.538 86.6704 95.5377 86.7384C95.5384 87.0655 95.4151 86.4545 95.5356 86.7579C95.5586 86.8194 95.5875 86.8904 95.6049 86.9494C95.7039 87.2702 95.4139 86.6888 95.6082 86.9646C95.6682 87.0497 95.7281 87.1349 95.7852 87.2188C95.9565 87.4704 95.7163 87.1533 95.7206 87.1587C95.7303 87.2346 95.9732 87.3963 96.0332 87.444C96.066 87.4692 96.2524 87.6426 96.2909 87.6329C96.203 87.6541 95.9993 87.4661 96.2607 87.6021C96.3299 87.6371 96.7391 87.8745 96.8027 87.832L96.6079 87.7739C96.6751 87.7909 96.745 87.8092 96.8135 87.8233C96.8945 87.8398 96.9796 87.8547 97.059 87.8671C97.1831 87.8862 97.3054 87.8942 97.4333 87.9048C97.0521 87.8673 97.5717 87.8998 97.6548 87.8968C97.8637 87.8864 98.0722 87.8623 98.2776 87.8299C98.4017 87.8115 98.5255 87.7862 98.6509 87.7651C98.9332 87.7132 98.6909 87.7594 98.6373 87.7725C99.1347 87.6519 99.6212 87.4956 100.101 87.323C100.582 87.1503 101.012 86.9822 101.451 86.7736C101.491 86.7542 101.88 86.5502 101.571 86.7194C101.649 86.6764 101.726 86.6334 101.801 86.5891C102.065 86.4339 102.323 86.2652 102.568 86.0775C102.637 86.0237 102.707 85.9671 102.776 85.9133C102.815 85.88 103.128 85.5803 102.875 85.8293C103.063 85.6423 103.244 85.4528 103.413 85.247C103.555 85.0769 103.689 84.903 103.815 84.7223C103.892 84.6142 103.963 84.5035 104.037 84.3913C103.828 84.7011 104.069 84.3306 104.095 84.288C105.121 82.5125 105.653 80.5151 106.299 78.5829C106.686 77.4252 107.167 76.3404 107.83 75.3114C108.116 74.863 108.449 74.46 108.772 74.0422C108.829 73.9694 108.88 73.8941 108.932 73.8187C109.094 73.5966 108.742 74.1611 108.954 73.7708C109.044 73.6012 109.127 73.4277 109.2 73.2532C109.237 73.1645 109.272 73.0717 109.303 72.9805C109.321 72.9341 109.335 72.8892 109.35 72.8416C109.386 72.7252 109.371 72.7798 109.299 73.0056C109.267 72.8446 109.418 72.505 109.445 72.3335C109.466 72.1969 109.432 71.8544 109.503 71.7506L109.496 71.9588C109.498 71.8949 109.497 71.8298 109.495 71.7675C109.49 71.6734 109.487 71.5765 109.478 71.484C109.469 71.3914 109.457 71.2976 109.444 71.2066C109.435 71.1445 109.425 71.0853 109.411 71.0248C109.467 71.2473 109.48 71.3009 109.449 71.1884C109.382 71.0078 109.328 70.8199 109.256 70.6409C109.139 70.3457 109.457 70.94 109.275 70.6804C109.226 70.6101 109.181 70.5355 109.129 70.4639C108.991 70.2818 108.934 70.3753 109.173 70.4942C109.084 70.4503 108.991 70.3261 108.908 70.2612C108.272 69.7603 108.159 68.6845 108.714 68.0794C109.269 67.4743 110.215 67.3471 110.896 67.8853L110.897 67.8894Z" fill="#73B25F"/>
<path d="M98.3239 66.1058C99.8043 66.7938 100.432 68.6521 100.199 70.2685C99.9666 71.885 99.0674 73.3135 98.187 74.6858C95.6379 78.6679 92.8727 82.8477 88.5958 84.8616C86.6849 85.7612 84.2028 86.084 82.6257 84.6815C81.6159 83.7824 81.2158 82.3441 81.3069 80.9934C81.398 79.6427 81.9284 78.3662 82.5277 77.1551C83.9626 74.2517 85.8549 71.577 88.1092 69.2511C90.3262 66.9694 93.2448 64.9188 96.4106 65.2546C97.3972 65.3603 98.3732 65.7061 99.1443 66.3297" fill="#598E44"/>
<path d="M98.9632 64.6959C101.152 65.7643 102.096 68.3321 101.706 70.6529C101.316 72.9736 99.7331 75.1561 98.4168 77.1639C96.0693 80.7408 93.3686 84.1739 89.4754 86.1447C87.4757 87.157 84.864 87.6523 82.7693 86.6164C80.5435 85.5174 79.6179 83.1181 79.7759 80.7461C79.9339 78.3742 81.2355 76.0772 82.4446 74.0954C83.7284 71.9946 85.1997 70.02 86.9197 68.254C88.51 66.6161 90.3357 65.1263 92.4847 64.2943C95.0014 63.3201 97.9526 63.4322 100.135 65.1344C100.776 65.6338 100.88 66.7127 100.329 67.3162C99.7466 67.9528 98.8323 68.0469 98.1475 67.5103C98.0376 67.4228 97.9236 67.3368 97.8057 67.2593C98.1052 67.4536 97.7086 67.2185 97.6676 67.1964C97.4572 67.0904 97.2378 67.004 97.0146 66.9262C97.3488 67.0444 96.9097 66.9023 96.8664 66.8927C96.7741 66.8711 96.6806 66.8523 96.5886 66.8377C96.4504 66.8122 96.3097 66.7923 96.1664 66.7781C96.0815 66.7701 95.5745 66.7025 96.0062 66.7562C95.6511 66.7136 95.2514 66.7766 94.8984 66.8268C94.7894 66.8418 94.6792 66.8597 94.5704 66.8817C94.5484 66.8852 94.201 66.9755 94.4397 66.9072C94.6784 66.8389 94.3299 66.9389 94.3094 66.9466C94.1681 66.9877 94.0256 67.0317 93.8845 67.0798C93.5299 67.2008 93.1844 67.3464 92.848 67.5096C92.7826 67.5411 92.4304 67.6939 92.7933 67.5324C92.691 67.5777 92.5922 67.6451 92.4958 67.6998C92.2976 67.8138 92.1024 67.9359 91.9087 68.0621C91.2046 68.5243 90.5082 69.0444 89.9058 69.6346C90.2003 69.3467 89.7772 69.7598 89.6982 69.8362C89.5268 70.0032 89.3611 70.1728 89.194 70.3452C88.8253 70.7286 88.4666 71.1201 88.1195 71.5236C87.4236 72.3264 86.7663 73.164 86.1547 74.0359C85.9887 74.2734 85.8254 74.5122 85.6637 74.7551C85.6098 74.836 85.5559 74.917 85.5048 74.9993C85.4851 75.0277 85.2281 75.4349 85.4142 75.1384C85.1077 75.6319 84.8153 76.1318 84.5357 76.641C84.0351 77.5533 83.5575 78.4896 83.2035 79.4686C83.1706 79.5558 83.1433 79.6455 83.1105 79.7326C82.9568 80.1596 83.1743 79.4281 83.0683 79.87C83.0127 80.0966 82.9585 80.3203 82.9155 80.5492C82.8717 80.7948 82.7956 81.1039 82.8254 81.3523C82.7869 81.0183 82.8255 81.2026 82.83 81.2898C82.8396 81.4405 82.8395 81.5902 82.8548 81.7436C82.8571 81.7684 82.9251 82.3066 82.9402 82.3033L82.8996 82.1384C82.9175 82.2112 82.9395 82.2825 82.9602 82.3566C82.9932 82.4635 83.0302 82.5689 83.0701 82.6756C83.0962 82.7454 83.1293 82.8149 83.1566 82.8818C83.2994 83.226 82.9738 82.6181 83.1763 82.9282C83.2688 83.069 83.4105 83.3855 83.5661 83.47L83.4449 83.3399C83.4982 83.3948 83.5499 83.4456 83.6058 83.4949C83.6803 83.5629 83.7575 83.6252 83.8387 83.686L83.8871 83.7217C84.0349 83.8231 84.0165 83.8113 83.832 83.6932C83.883 83.7607 84.068 83.8177 84.1441 83.8524C84.2146 83.8845 84.2889 83.9082 84.3581 83.9431C84.7051 84.1079 84.0316 83.8828 84.406 83.9649C84.6393 84.0133 84.8684 84.0632 85.1076 84.0837C85.1827 84.0906 85.561 84.1643 85.1871 84.096C85.2973 84.1156 85.4406 84.0924 85.5527 84.0856C85.7588 84.0739 85.9631 84.0513 86.1672 84.0217C86.2913 84.0033 86.4123 83.9768 86.5349 83.9543C86.6051 83.9421 86.8064 83.8738 86.5156 83.9592C86.7762 83.8804 87.0357 83.8114 87.2929 83.7175C87.7006 83.5697 88.0961 83.389 88.481 83.1865C88.1517 83.3565 88.519 83.163 88.5693 83.1348C88.6426 83.0934 88.7119 83.0534 88.7824 83.0107C89.0294 82.8645 89.2746 82.7073 89.5142 82.5475C89.8538 82.3176 90.1844 82.0699 90.5064 81.8115C90.699 81.6576 90.8873 81.4983 91.0741 81.3349C91.1359 81.2813 91.1962 81.2237 91.258 81.1702C90.9625 81.4304 91.3653 81.0693 91.4161 81.0175C92.7461 79.7342 93.8906 78.2677 94.9504 76.7558C95.5566 75.8882 96.1331 75.0037 96.7053 74.1138C96.8469 73.8924 96.9899 73.6682 97.1316 73.4469C97.3901 73.0438 96.9681 73.7162 97.2181 73.3093C97.2941 73.1873 97.3714 73.0625 97.4458 72.9364C97.7646 72.4009 98.0648 71.8466 98.3031 71.271C98.3491 71.1626 98.3907 71.0488 98.4311 70.9379C98.455 70.8705 98.4789 70.803 98.5028 70.7356C98.4549 70.9079 98.4547 70.901 98.5051 70.7231C98.5702 70.4532 98.6298 70.1876 98.6629 69.9134C98.6745 69.8131 98.7043 69.6804 98.6896 69.5783C98.7469 69.9755 98.6796 69.5704 98.6732 69.4722C98.6593 69.2412 98.6534 68.9628 98.572 68.7453C98.5874 68.7863 98.6682 69.0648 98.5797 68.8032C98.5316 68.6622 98.4876 68.5196 98.4313 68.3817C98.4224 68.364 98.2811 68.0239 98.3825 68.2573C98.4761 68.4701 98.2811 68.0988 98.2532 68.0554C98.1917 67.9662 98.1249 67.8813 98.058 67.7963C97.8485 67.5239 98.3007 67.9886 98.0324 67.7779C97.9468 67.7117 97.8638 67.6398 97.7824 67.5721C97.6402 67.4733 97.6643 67.4876 97.8574 67.6165C97.7924 67.58 97.7288 67.5477 97.6612 67.5169C96.9344 67.162 96.5068 66.2251 96.8937 65.4653C97.2807 64.7055 98.1662 64.3158 98.9452 64.6979L98.9632 64.6959Z" fill="#598E44"/>
<path d="M84.8147 58.755C87.801 59.4924 89.2219 63.2031 88.5237 66.2004C87.8255 69.1978 85.6373 71.5879 83.4809 73.7814C81.7441 75.5466 79.9543 77.3012 77.825 78.5608C75.6957 79.8204 73.165 80.5636 70.7279 80.1376C69.3147 79.8922 67.8287 79.0893 67.4761 77.6965C67.2801 76.9162 67.4776 76.094 67.7231 75.331C69.0099 71.3628 71.6608 67.9342 74.8314 65.2258C78.002 62.5173 81.6845 60.4709 85.4391 58.6548" fill="#73B25F"/>
<path d="M85.0547 57.2251C87.3036 57.8104 88.9568 59.4791 89.7275 61.6581C90.4981 63.837 90.3332 66.2467 89.4188 68.4035C88.4214 70.7574 86.6804 72.7113 84.9175 74.519C83.1546 76.3267 81.432 78.0609 79.3659 79.4208C77.4799 80.6619 75.3159 81.5789 73.0495 81.7719C70.7831 81.9649 68.2515 81.4551 66.7263 79.6098C65.0083 77.5304 66.1845 74.6044 67.1889 72.4818C68.1932 70.3591 69.6752 68.2192 71.3458 66.4273C74.7217 62.8048 78.9468 60.2022 83.3327 57.9793C83.85 57.7179 84.3688 57.4607 84.892 57.2089C85.6249 56.8552 86.6418 57.3728 86.885 58.1167C87.1642 58.9757 86.7591 59.7307 85.9771 60.1097C85.4757 60.3511 84.9787 60.5978 84.4791 60.8502C84.2721 60.9533 84.0667 61.0606 83.8585 61.1665C83.7346 61.2292 83.6122 61.296 83.4884 61.3588C83.7741 61.2098 83.2722 61.4747 83.2232 61.5001C82.2822 62.0041 81.3573 62.5325 80.446 63.0909C78.6303 64.2074 76.8871 65.4488 75.2929 66.8637C75.1882 66.959 75.082 67.0502 74.9802 67.1467C75.227 66.9188 74.8878 67.2374 74.8637 67.2605C74.6587 67.4564 74.4565 67.6536 74.26 67.8535C73.8628 68.2546 73.48 68.6691 73.1087 69.0956C72.4007 69.91 71.7471 70.7696 71.1575 71.6754C71.1339 71.7123 70.889 72.1079 71.0774 71.7989C71.0158 71.8968 70.9557 71.9987 70.897 72.0979C70.7663 72.3175 70.64 72.5425 70.5165 72.7688C70.2487 73.2595 70.0022 73.7633 69.7782 74.2774C69.5707 74.7479 69.3857 75.2287 69.219 75.7143C69.175 75.8407 69.1257 75.9714 69.0902 76.1016C69.1913 75.7153 69.0846 76.1365 69.0702 76.198C69.0071 76.4484 68.9718 76.6978 68.9352 76.95C68.8795 77.3263 68.8795 76.6762 68.9362 77.0526C68.9543 77.1698 68.9388 77.3159 68.9843 77.4251C68.8413 77.074 68.9959 77.3997 69.0204 77.4654L69.0614 77.5623C69.132 77.7136 69.12 77.6877 69.0199 77.489C69.0004 77.5243 69.2882 77.8937 69.3274 77.9048L69.1989 77.7611C69.2478 77.8106 69.3008 77.8586 69.3551 77.9038C69.3938 77.9384 69.6508 78.1814 69.6931 78.1632C69.6767 78.1694 69.3974 77.9979 69.6165 78.1147C69.7126 78.1653 69.8074 78.2187 69.9076 78.2678C70.108 78.3658 70.3117 78.4416 70.5196 78.5159C70.875 78.6472 70.1746 78.4438 70.5447 78.5205C70.6159 78.536 70.6859 78.5542 70.7572 78.5697C71.024 78.6265 71.2985 78.6665 71.5697 78.6913C71.6907 78.7022 71.8102 78.7089 71.9312 78.7198C72.319 78.7501 71.7084 78.7307 71.9519 78.7191C72.1735 78.711 72.3939 78.7127 72.6152 78.6978C73.1005 78.6636 73.5774 78.5881 74.0533 78.4849C73.6833 78.5648 74.082 78.4741 74.1397 78.4596C74.2564 78.4276 74.3743 78.3929 74.4923 78.3581C74.6869 78.297 74.88 78.2318 75.0716 78.1624C75.5326 77.9946 75.9786 77.7927 76.42 77.5785C76.7906 77.4001 76.143 77.7383 76.5031 77.5381C76.609 77.4774 76.7165 77.4208 76.8224 77.3601C77.0586 77.2227 77.2918 77.077 77.5221 76.93C77.9907 76.6261 78.4445 76.295 78.8811 75.9492C79.2841 75.6325 79.6768 75.3008 80.0609 74.9583C80.1643 74.8659 80.269 74.7706 80.3736 74.6753C80.3267 74.7186 80.1671 74.8672 80.387 74.661C80.6256 74.4361 80.8613 74.2099 81.0984 73.9809C82.6688 72.4463 84.2613 70.8707 85.5267 69.0643C85.6083 68.9449 85.6871 68.8243 85.7674 68.7077C85.8698 68.5501 85.8711 68.5473 85.7795 68.6962C85.8306 68.6139 85.8775 68.5332 85.9286 68.4509C86.0721 68.2031 86.2087 67.9556 86.3353 67.7001C86.484 67.4036 86.6157 67.0994 86.7362 66.7901C86.7868 66.6566 86.8318 66.5205 86.8811 66.3898C87.007 66.0387 86.8461 66.5713 86.9256 66.2398C86.9904 65.963 87.0583 65.6944 87.098 65.413C87.1269 65.2151 87.2015 64.9393 87.1624 64.7411C87.2324 65.1031 87.159 64.8008 87.1578 64.6913C87.1551 64.5403 87.1496 64.3881 87.1359 64.2388C87.1194 64.0135 87.0904 63.7858 87.0518 63.564C87.0342 63.4607 87.0254 63.3307 86.9857 63.231C87.1328 63.6179 86.9594 63.1543 86.9328 63.0707C86.8668 62.8568 86.7939 62.6432 86.7074 62.437C86.6662 62.3332 86.6197 62.2337 86.5744 62.1313C86.5429 62.066 86.5099 61.9964 86.4771 61.9339C86.5754 62.1216 86.5872 62.1406 86.5042 61.9939C86.3777 61.7933 86.2569 61.5953 86.1127 61.4037C86.0574 61.3308 85.9995 61.2636 85.947 61.192C85.8356 61.063 85.8543 61.0817 86.0044 61.2454C85.9568 61.1931 85.905 61.1423 85.8561 61.0928C85.6909 60.9324 85.5136 60.7836 85.3271 60.6475C85.0965 60.4812 85.3405 60.5583 85.3665 60.6655C85.3504 60.6037 85.0511 60.4912 84.9891 60.4629C84.8904 60.418 84.7917 60.3731 84.6933 60.335C84.6272 60.3083 84.557 60.2831 84.4883 60.2621C84.711 60.3261 84.7377 60.3348 84.567 60.2911C83.7847 60.0879 83.1023 59.3891 83.2815 58.5176C83.4385 57.7619 84.2181 57.0143 85.055 57.2321L85.0547 57.2251Z" fill="#73B25F"/>
<path d="M78.9466 50.1943C81.3472 51.3729 82.6023 54.0652 83.2398 56.6635C83.5245 57.8245 83.7147 59.0957 83.209 60.1759C82.8218 61.0036 82.0796 61.6016 81.3452 62.1453C76.0402 66.0872 69.862 68.8451 63.385 70.1665C61.8878 70.4717 59.9725 70.5217 59.2296 69.1859C58.8812 68.5609 58.9157 67.7903 59.0747 67.0901C59.6618 64.471 61.7238 62.4625 63.7635 60.7196C66.5965 58.2965 69.5872 56.0575 72.7072 54.0204C74.8577 52.6172 77.2373 51.264 79.8021 51.3873" fill="#598E44"/>
<path d="M79.588 48.786C81.8033 49.9007 83.2463 51.9637 84.1091 54.2391C85.0178 56.6307 85.6982 59.531 84.0431 61.752C83.2909 62.7607 82.1518 63.4979 81.1309 64.2072C80.1926 64.8622 79.2267 65.4808 78.2412 66.0599C76.1755 67.277 74.0187 68.3504 71.7958 69.2475C69.5729 70.1445 67.4853 70.7968 65.2574 71.3239C63.9722 71.6269 62.7228 71.9189 61.3959 71.8727C60.069 71.8265 58.6966 71.2899 57.9961 70.13C56.4922 67.6478 58.1465 64.4494 59.7758 62.4719C61.405 60.4943 63.5783 58.802 65.6202 57.1963C67.6622 55.5905 69.7186 54.1173 71.8637 52.7185C73.8138 51.4488 75.8908 50.2743 78.2206 49.9196C78.8273 49.8283 79.4318 49.8313 80.0439 49.8549C80.8561 49.8878 81.4852 50.8756 81.3295 51.6284C81.1418 52.5335 80.425 52.949 79.5559 52.9139C79.9474 52.9289 79.5477 52.917 79.4785 52.9195C79.358 52.9225 79.2403 52.9268 79.1229 52.9379C78.8865 52.9562 78.6519 52.9855 78.4176 53.0217C78.3102 53.0409 78.1676 53.0474 78.0679 53.0871C78.4079 52.9458 78.0707 53.0883 77.9938 53.1078C77.7261 53.1798 77.4589 53.2658 77.1988 53.3584C76.7829 53.5093 76.3762 53.6848 75.9797 53.8752C75.8707 53.9277 75.7632 53.9843 75.6542 54.0367C75.288 54.2205 75.9312 53.877 75.5739 54.0785C75.3267 54.2177 75.0766 54.3557 74.8325 54.5032C72.8827 55.6675 71.015 56.9953 69.1943 58.3546C67.3384 59.7387 65.5222 61.1852 63.801 62.7294C63.4492 63.0458 64.0165 62.5178 63.6763 62.8462C63.5732 62.9456 63.4672 63.0437 63.3669 63.1444C63.1634 63.3444 62.9615 63.5486 62.7668 63.7594C62.3798 64.1755 62.0129 64.6074 61.6803 65.0686C61.5984 65.181 61.5209 65.2989 61.4405 65.4155C61.1811 65.7909 61.5843 65.1372 61.3674 65.5387C61.2349 65.7847 61.0981 66.0254 60.9825 66.2791C60.8669 66.5328 60.7667 66.7901 60.6765 67.0553C60.7945 66.7142 60.6536 67.1504 60.6428 67.1966C60.603 67.3588 60.5688 67.5236 60.5443 67.6895C60.5298 67.7884 60.483 67.9509 60.506 68.0499C60.4991 68.0127 60.4855 67.7138 60.5114 68.0081C60.5186 68.0896 60.501 68.2927 60.5478 68.3617L60.5103 68.205C60.531 68.2791 60.5573 68.3558 60.5862 68.4268C60.6992 68.7914 60.4367 68.1647 60.6287 68.4904C60.8 68.7795 60.3904 68.341 60.662 68.5294L60.7491 68.5997C60.8929 68.7026 60.8688 68.6883 60.6784 68.5607C60.6927 68.6115 61.0441 68.7443 61.0966 68.741L60.9242 68.6863C61.0011 68.7043 61.0779 68.7223 61.1561 68.7375C61.2748 68.7609 61.3973 68.7759 61.5183 68.7867C61.5837 68.7927 61.9857 68.792 61.6145 68.7999C61.7419 68.7966 61.868 68.7962 61.9939 68.7889C62.4974 68.7596 62.9933 68.6723 63.4858 68.5699C63.7389 68.515 63.992 68.4601 64.245 68.4051C64.6686 68.3122 63.9456 68.4798 64.3633 68.3773C64.4897 68.3464 64.6161 68.3155 64.7425 68.2845C65.2453 68.1596 65.7464 68.0236 66.243 67.8822C67.2803 67.5854 68.3078 67.2502 69.3243 66.8793C70.3408 66.5083 71.2602 66.134 72.207 65.7144C72.6804 65.5045 73.1508 65.2865 73.6152 65.0589C73.8086 64.9632 74.002 64.8675 74.1953 64.7718C74.311 64.7121 74.4254 64.6553 74.5411 64.5957C74.5983 64.5673 75.0838 64.3085 74.7642 64.4795C76.6298 63.4776 78.4288 62.3602 80.1385 61.1103C80.3924 60.9264 80.6435 60.7413 80.8901 60.5438C80.9601 60.4872 81.0327 60.425 81.1055 60.3697C81.2413 60.2511 81.2454 60.2496 81.1207 60.3664C81.1864 60.3044 81.2533 60.2396 81.3175 60.1735C81.4137 60.0743 81.5043 59.9726 81.5892 59.8684C81.6449 59.7984 81.699 59.7244 81.7532 59.6503C81.6551 59.8133 81.651 59.8148 81.745 59.6534C81.7989 59.535 81.8528 59.4166 81.904 59.2969C81.9615 59.1257 81.9592 59.1383 81.8942 59.3333C81.9148 59.2508 81.9312 59.1698 81.9449 59.0875C81.9681 58.9619 81.9774 58.8368 81.9895 58.713C81.9984 58.5366 81.9986 58.5436 81.9903 58.7338C81.9886 58.6479 81.9868 58.562 81.981 58.4777C81.9646 58.1774 81.9246 57.8767 81.8694 57.5793C81.8539 57.4939 81.8383 57.4085 81.8186 57.3247C81.8018 57.2421 81.7834 57.1554 81.7637 57.0716C81.8033 57.2462 81.8036 57.2531 81.7658 57.0895C81.6906 56.8136 81.6196 56.5362 81.5334 56.2621C81.3636 55.7082 81.1651 55.1651 80.9284 54.6386C80.8772 54.5267 80.826 54.4149 80.772 54.3018C80.7375 54.2282 80.7001 54.1533 80.6615 54.0813C80.7508 54.2513 80.7539 54.2595 80.6735 54.1072C80.5509 53.8981 80.4295 53.6863 80.2946 53.4819C80.1391 53.2477 79.9742 53.0194 79.7973 52.8026C79.7232 52.711 79.649 52.6125 79.5642 52.5297C79.8588 52.817 79.474 52.4511 79.4194 52.399C79.2171 52.2081 79.0042 52.0329 78.7779 51.872C78.7011 51.8165 78.4383 51.5641 78.7321 51.8306C78.6245 51.7306 78.4392 51.6666 78.3093 51.6006C77.5864 51.2373 77.1523 50.3145 77.5418 49.5491C77.9121 48.8259 78.8182 48.3911 79.5934 48.7817L79.588 48.786Z" fill="#598E44"/>
<path d="M74.4785 40.1036C75.512 42.2661 76.4172 44.4859 77.1924 46.752C77.4343 47.4613 77.6647 48.196 77.6044 48.9412C77.4623 50.643 75.8983 51.8198 74.4729 52.7669C69.3157 56.1975 63.8698 59.7314 57.6995 60.26C56.7363 60.342 55.7326 60.3409 54.8454 59.9572C52.8652 59.096 52.1226 56.5044 52.7044 54.4276C53.2862 52.3507 54.8611 50.7092 56.4811 49.2823C59.0094 47.0573 61.7935 45.1225 64.7604 43.5262C67.6049 41.9967 70.7387 40.759 73.9631 40.9138" fill="#73B25F"/>
<path d="M75.9344 39.5592C77.0267 41.854 78.0343 44.2226 78.7917 46.6474C79.2231 48.0318 79.3511 49.4994 78.6366 50.8213C77.9221 52.1433 76.8693 53.0049 75.7101 53.801C71.9757 56.365 68.0462 58.9013 63.7662 60.4509C61.6181 61.2288 59.2572 61.8383 56.9589 61.8398C55.5451 61.8425 54.1502 61.5645 53.0394 60.633C52.1545 59.893 51.5142 58.8252 51.2285 57.7114C50.9427 56.5975 50.8622 55.3694 51.1674 54.2286C51.5495 52.7995 52.2602 51.5233 53.2045 50.3843C54.069 49.3383 55.0965 48.4277 56.1265 47.549C57.088 46.7309 58.0828 45.9519 59.1124 45.2159C61.1514 43.7586 63.3169 42.4644 65.5759 41.3762C67.6658 40.3676 69.9262 39.5898 72.2521 39.3932C72.9071 39.3376 73.5604 39.3458 74.2171 39.3761C75.028 39.4119 75.6583 40.3968 75.5026 41.1496C75.3163 42.0519 74.5969 42.473 73.7291 42.4351C73.3084 42.4171 74.0504 42.4249 73.6279 42.4332C73.5045 42.4349 73.3784 42.4354 73.251 42.4386C73.0031 42.4448 72.7513 42.4595 72.5026 42.4823C71.9637 42.5296 71.4289 42.6127 70.8979 42.7248C70.8443 42.7379 70.4361 42.8344 70.7961 42.7465C70.6738 42.7759 70.5543 42.8066 70.4307 42.8388C70.1863 42.9045 69.9463 42.9756 69.7078 43.0507C69.187 43.2152 68.6726 43.4029 68.1631 43.6099C67.6945 43.8016 67.2293 44.0083 66.7728 44.2259C66.5425 44.3354 66.3179 44.4475 66.0919 44.5624C65.9803 44.6205 65.866 44.6774 65.7544 44.7355C65.5992 44.8146 65.6062 44.8143 65.7693 44.7252C65.6918 44.7682 65.6115 44.8099 65.5354 44.8501C64.5061 45.4059 63.5007 46.0065 62.5201 46.6422C60.5928 47.8917 58.7666 49.2928 57.0562 50.8284C56.7004 51.1462 57.2677 50.6183 56.9262 50.9495C56.8218 51.0517 56.7158 51.1498 56.6114 51.252C56.4054 51.4577 56.2021 51.6647 56.0061 51.8783C55.5848 52.34 55.1935 52.8255 54.8521 53.3507C55.0464 53.0512 54.7961 53.4512 54.7766 53.4865C54.7062 53.6111 54.6387 53.7369 54.5781 53.8625C54.4515 54.118 54.3516 54.3822 54.2475 54.6479C54.0852 55.0641 54.2875 54.4108 54.2103 54.7671C54.1879 54.8761 54.1599 54.9824 54.1387 55.0885C54.0947 55.3272 54.0263 55.6194 54.0517 55.8624C54.0108 55.4591 54.06 55.8219 54.0617 55.9078C54.0657 55.9811 54.0685 56.0573 54.0754 56.1319C54.0901 56.3088 54.0757 56.6392 54.1687 56.7939L54.1265 56.6249C54.1444 56.6977 54.1636 56.7677 54.1855 56.839C54.2157 56.9447 54.25 57.0488 54.2883 57.1514C54.3267 57.2539 54.3664 57.3537 54.4117 57.456C54.4431 57.5214 54.4718 57.5855 54.5061 57.6522C54.405 57.4632 54.3958 57.4386 54.4787 57.5853C54.5988 57.7625 54.7174 57.9357 54.8511 58.1055C55.0693 58.3887 54.5938 57.893 54.8695 58.1173C54.951 58.185 55.0258 58.2599 55.1114 58.3262L55.1941 58.3911C55.3363 58.4899 55.3094 58.4742 55.108 58.3485C55.1264 58.3977 55.3484 58.4784 55.3922 58.5017C55.5078 58.5544 55.6287 58.6027 55.7481 58.6469C55.4068 58.522 55.9366 58.6816 56.0119 58.6955C56.1473 58.7197 56.2836 58.7342 56.42 58.7487C56.459 58.7528 56.9127 58.7655 56.573 58.7639C56.8517 58.7649 57.1299 58.7521 57.405 58.731C57.9441 58.6907 58.4851 58.6239 59.0184 58.5367C59.261 58.4974 59.5061 58.4525 59.7468 58.4022C59.8666 58.3784 59.9876 58.3519 60.1086 58.3253C60.5145 58.2413 59.7996 58.4058 60.2035 58.3038C60.7214 58.1756 61.2361 58.0322 61.743 57.8682C62.6859 57.5693 63.6086 57.2101 64.5159 56.8099C64.9717 56.609 65.4228 56.3958 65.8695 56.1773C66.0942 56.0652 66.316 55.9518 66.5379 55.8384C66.9136 55.6487 66.2606 55.9912 66.6318 55.7892C66.78 55.7104 66.9254 55.6303 67.0737 55.5514C68.9141 54.5449 70.685 53.4147 72.4368 52.2589C72.8944 51.9568 73.3548 51.6559 73.8081 51.3484C74.0746 51.1668 74.3396 50.9812 74.5958 50.7848C74.7064 50.699 74.817 50.6132 74.9219 50.5248C74.9932 50.4654 75.0645 50.406 75.133 50.3453C75.0083 50.4621 75.0124 50.4606 75.1369 50.3368C75.3588 50.1112 75.5554 49.8739 75.753 49.6269C76.0091 49.3113 75.641 49.9027 75.8107 49.5375C75.8698 49.4078 76.0207 49.2111 76.0252 49.0668L75.9807 49.2167C76.0025 49.1313 76.0203 49.0475 76.0365 48.9596C76.0527 48.8717 76.062 48.784 76.0713 48.6963C76.0697 48.8794 76.0684 48.8822 76.0675 48.7048C76.0558 48.5735 76.0469 48.4436 76.0283 48.3125C76.0169 48.2256 75.9985 48.139 75.9829 48.0536C76.0238 48.2254 76.0238 48.2254 75.9829 48.0536C75.2102 45.5129 74.1724 43.0387 73.0322 40.6472C72.6826 39.9127 73.1921 38.8989 73.9401 38.6542C74.795 38.3765 75.5609 38.7798 75.9331 39.562L75.9344 39.5592Z" fill="#73B25F"/>
<path d="M72.1498 31.6983C72.9952 33.3394 73.7739 35.1646 73.4279 36.9778C73.0811 38.8077 71.6633 40.2314 70.2026 41.3906C67.5116 43.5244 64.4327 45.165 61.1632 46.215C58.2856 47.1371 55.2817 47.5966 52.2916 48.0557C51.5045 48.1771 50.6448 48.2859 49.954 47.8895C49.1414 47.424 48.8151 46.3768 48.9382 45.4491C49.0612 44.5214 49.5397 43.6876 50.0123 42.8817C52.2144 39.1534 54.5739 35.4458 57.7526 32.5027C60.9313 29.5597 65.0456 27.4172 69.3784 27.403L72.1485 31.7011L72.1498 31.6983Z" fill="#598E44"/>
<path d="M73.6 31.1542C74.8693 33.6283 75.7278 36.511 74.2824 39.1237C73.5227 40.5001 72.42 41.5908 71.2023 42.5678C70.1597 43.4068 69.0506 44.1678 67.8997 44.8486C65.5126 46.2631 62.9574 47.3593 60.2775 48.0788C58.8278 48.4668 57.3557 48.7765 55.8779 49.0394C54.5046 49.2818 53.1038 49.5696 51.7107 49.6839C50.9049 49.7491 50.0307 49.6879 49.3081 49.2941C48.5445 48.8782 47.993 48.2355 47.6604 47.4339C47.0538 45.956 47.4548 44.321 48.1793 42.9695C48.9038 41.618 49.7201 40.3492 50.5305 39.0708C51.2949 37.8634 52.0975 36.6769 52.9572 35.5368C56.0779 31.4134 60.2565 27.7174 65.3766 26.4008C66.6141 26.0828 67.8771 25.8583 69.1579 25.8562C70.2543 25.8553 70.5984 26.4375 71.089 27.1988L73.2423 30.542C73.2981 30.6286 73.3539 30.7153 73.4098 30.802C73.8489 31.482 73.7609 32.4971 73.036 32.9601C72.3533 33.3979 71.3453 33.3166 70.878 32.5863C69.9542 31.1546 69.0317 29.72 68.1079 28.2882L69.5315 28.9367C68.6224 28.9447 67.7179 29.0398 66.8261 29.2191C66.7105 29.2413 66.592 29.2622 66.4795 29.2926C66.8556 29.1917 66.47 29.2985 66.4053 29.3133C66.2159 29.3632 66.0251 29.4158 65.8358 29.4726C65.382 29.6097 64.933 29.7659 64.4944 29.944C64.0872 30.1057 63.6889 30.2851 63.2965 30.474C63.1875 30.5264 63.0842 30.5815 62.9752 30.6339C62.6143 30.8134 63.255 30.4755 62.9031 30.6726C62.6938 30.7883 62.4845 30.904 62.2783 31.0279C61.4858 31.4974 60.7299 32.0211 60.0075 32.5907C59.6625 32.8624 59.3261 33.1449 58.997 33.4341C58.946 33.4789 58.6453 33.7504 58.9377 33.4819C58.8331 33.5772 58.7299 33.6766 58.6268 33.776C58.4218 33.972 58.2183 34.172 58.0192 34.3775C57.2559 35.1564 56.5387 35.9837 55.86 36.8386C55.1812 37.6935 54.5398 38.5859 53.9267 39.4912C53.6333 39.926 53.3443 40.3662 53.0622 40.8061C52.9834 40.9268 52.9074 41.0488 52.8327 41.1679C53.0214 40.8658 52.7698 41.2686 52.7516 41.3012C52.5996 41.5451 52.4518 41.7875 52.3026 42.0327C51.7427 42.9554 51.1219 43.8776 50.6935 44.8704C50.6357 44.9972 50.5892 45.1292 50.5427 45.2612C50.6511 44.9634 50.5491 45.2471 50.5272 45.3325C50.5023 45.447 50.4814 45.5601 50.4662 45.6757L50.4535 45.7856C50.4431 45.9579 50.4424 45.9372 50.4541 45.7246C50.4176 45.7897 50.4777 45.9941 50.483 46.0646C50.4999 46.4161 50.4025 45.8679 50.4748 46.0677C50.5071 46.1538 50.5396 46.2469 50.5649 46.3333C50.6342 46.4875 50.6224 46.4685 50.527 46.282C50.5625 46.3459 50.6035 46.4054 50.6473 46.4662C50.8201 46.7594 50.4037 46.2837 50.6732 46.4916C50.9583 46.71 50.4148 46.4011 50.6524 46.4923C50.7339 46.5227 50.9999 46.6711 50.6803 46.5357C50.7972 46.5855 50.9441 46.5844 51.0653 46.6021C51.4516 46.6658 50.8007 46.645 51.1956 46.6002C51.3073 46.5864 51.4196 46.5865 51.5314 46.5728C51.827 46.5441 52.1191 46.4933 52.4114 46.4494C53.4867 46.2857 54.5604 46.1179 55.6307 45.928C56.1417 45.8374 56.6524 45.7399 57.1629 45.6354C57.3955 45.5882 57.6252 45.5397 57.8562 45.4883C57.9952 45.4597 58.1326 45.427 58.2701 45.3943C57.9662 45.4635 58.5201 45.3312 58.5724 45.321C59.6055 45.0631 60.6286 44.7599 61.6274 44.398C62.6263 44.036 63.5354 43.6468 64.4589 43.1961C64.6605 43.0973 64.8592 42.9972 65.0552 42.8959C65.4499 42.6944 64.789 43.0469 65.1775 42.8291C65.2958 42.7638 65.4127 42.7013 65.5281 42.6348C65.9941 42.3739 66.454 42.0966 66.9039 41.8114C67.8442 41.2118 68.7605 40.5603 69.6191 39.8486C69.724 39.7602 69.8289 39.6719 69.9351 39.5807C70.0036 39.52 70.0721 39.4593 70.1419 39.3958C70.0172 39.5126 70.0198 39.5069 70.1499 39.3858C70.3451 39.1888 70.5419 38.9959 70.7244 38.7897C70.936 38.5491 71.128 38.2996 71.3169 38.0418C71.4953 37.7997 71.35 37.999 71.3174 38.0557C71.4103 37.904 71.4989 37.7469 71.5762 37.5847C71.6342 37.4648 71.6894 37.3435 71.7418 37.221C71.7763 37.138 71.8079 37.0537 71.8354 36.9709C71.7886 37.1334 71.7826 37.1613 71.8117 37.0452C71.8711 36.7728 71.9142 36.5064 71.9541 36.2319C72.0106 35.8389 71.9739 36.5472 71.9609 36.1499C71.9579 36.0294 71.9549 35.9089 71.945 35.7886C71.9237 35.5066 71.8747 35.2256 71.8203 34.949C71.8933 35.3192 71.8096 34.9202 71.7935 34.8584C71.7587 34.7405 71.7239 34.6225 71.6863 34.5033C71.5973 34.2279 71.4932 33.9558 71.3809 33.6868C71.1757 33.1883 70.9364 32.7048 70.6902 32.2216C70.3188 31.4976 70.8664 30.4672 71.598 30.2286C72.4735 29.9432 73.1943 30.3635 73.591 31.1365L73.6 31.1542Z" fill="#598E44"/>
<path d="M50.422 15.6136C53.4749 16.0477 56.4776 16.8164 59.3641 17.8998C61.0997 18.5508 62.8349 19.3447 64.1318 20.6672C65.4287 21.9898 66.2175 23.9422 65.7277 25.7273C65.4739 26.6431 64.9152 27.4438 64.3395 28.1993C59.8864 34.0372 53.7747 38.592 46.91 41.1903C46.2236 41.4495 45.506 41.6945 44.776 41.6308C43.544 41.5258 42.5227 40.5397 42.0462 39.4037C41.5698 38.2676 41.5416 36.9919 41.5939 35.7563C41.8294 30.0906 43.5435 24.6015 45.2452 19.1918C45.6218 17.9916 46.0324 16.7388 46.9363 15.8605C47.8402 14.9821 49.3986 14.647 50.3503 15.472" fill="#73B25F"/>
<path d="M50.6627 14.0826C53.752 14.5266 56.7939 15.3063 59.7232 16.3854C62.6526 17.4645 65.2356 18.8555 66.66 21.5943C67.2754 22.7767 67.5499 24.1543 67.3553 25.4783C67.1268 27.0558 66.167 28.3783 65.209 29.5996C63.5448 31.7212 61.6562 33.6555 59.6156 35.4151C57.5751 37.1746 55.5038 38.6207 53.2381 39.9032C52.0278 40.5875 50.788 41.2243 49.5193 41.7901C48.2506 42.3559 46.9329 42.9845 45.5669 43.1587C43.8986 43.3689 42.3777 42.5604 41.3569 41.2819C40.448 40.1462 40.0908 38.6288 40.0335 37.2003C39.9215 34.2628 40.4046 31.2594 41.0358 28.4017C41.6669 25.544 42.5743 22.5433 43.4775 19.6563C43.936 18.1939 44.3358 16.7183 45.2395 15.4519C46.1432 14.1854 47.6974 13.3888 49.2947 13.4765C50.0419 13.5174 50.7557 13.8186 51.3301 14.2913C51.9572 14.8051 52.0856 15.8609 51.5242 16.4731C50.9628 17.0854 50.0138 17.2182 49.3424 16.6672C49.3052 16.6367 49.1848 16.5648 49.1684 16.5335C49.1833 16.5607 49.438 16.6665 49.2881 16.6221C48.9292 16.5131 49.5144 16.6333 49.2327 16.5866C49.1784 16.5789 48.9453 16.5749 48.9123 16.5428C48.9425 16.5736 49.2733 16.52 48.9861 16.5526C48.9143 16.5608 48.8397 16.5676 48.7679 16.5758C48.732 16.5798 48.5403 16.6048 48.7415 16.5739C48.9428 16.5431 48.7197 16.5844 48.6636 16.6031C48.6279 16.6141 48.2915 16.74 48.2945 16.7482C48.3004 16.7577 48.5441 16.5963 48.3938 16.6947C48.3464 16.7241 48.2961 16.7523 48.2486 16.7817C48.185 16.8242 48.127 16.8693 48.0663 16.9131C47.8931 17.0316 48.0363 16.8892 48.1073 16.8603C47.8832 16.9488 47.6737 17.364 47.5364 17.5533C47.399 17.7427 47.6352 17.3362 47.5392 17.5546C47.5109 17.6166 47.4701 17.6763 47.439 17.737C47.3535 17.9023 47.2737 18.0702 47.201 18.2447C46.9416 18.8516 46.7483 19.4851 46.5534 20.1146C46.3586 20.7441 46.1509 21.4017 45.9497 22.0453C45.9001 22.2065 45.8505 22.3677 45.8009 22.5289C45.7824 22.592 45.6734 22.9508 45.7143 22.8162C45.77 22.634 45.6834 22.9213 45.6711 22.9634C45.65 23.032 45.6289 23.1007 45.6107 23.1707C45.5564 23.357 45.5006 23.5393 45.4464 23.7256C45.0649 25.0189 44.7073 26.3197 44.3888 27.6315C43.7556 30.2397 43.282 32.8934 43.1352 35.5769C43.1279 35.72 43.1194 35.8658 43.1149 36.0102C43.1097 36.0963 43.1086 36.1809 43.1047 36.2642C43.1068 36.2447 43.1064 36.0063 43.1073 36.1837C43.1106 36.5052 43.1071 36.8269 43.1283 37.1464C43.1453 37.423 43.1733 37.6978 43.2192 37.9706C43.2348 38.056 43.3395 38.4612 43.2462 38.1429C43.2874 38.2842 43.3273 38.4283 43.3754 38.5694C43.4234 38.7104 43.4795 38.8415 43.537 38.9766C43.5979 39.1269 43.5239 39.1102 43.5166 38.9469C43.5193 38.9856 43.5875 39.0677 43.6095 39.1015C43.6845 39.2208 43.7636 39.3385 43.8494 39.4491C43.8858 39.4963 43.9263 39.5419 43.9626 39.5891C44.0907 39.7564 43.7751 39.4254 43.9365 39.5568C44.0464 39.6443 44.1402 39.7449 44.2501 39.8324C44.2729 39.8496 44.4422 39.971 44.4422 39.971C44.4525 39.9484 44.1724 39.8311 44.3441 39.9025C44.3751 39.9166 44.7164 40.0789 44.719 40.0733C44.7213 40.0607 44.4186 40.0079 44.6014 40.0401C44.6796 40.0553 44.7552 40.0761 44.8318 40.0872C44.8764 40.0939 45.1312 40.1249 44.9379 40.1083C44.7572 40.094 44.9628 40.106 44.9946 40.1035C45.1438 40.0897 45.2925 40.0622 45.4404 40.0513C45.6063 40.0383 45.3966 40.0653 45.3692 40.0733C45.453 40.0536 45.5366 40.027 45.6189 40.0032C45.7643 39.9605 45.9094 39.9109 46.0518 39.86C46.6169 39.6579 47.1716 39.4341 47.7245 39.1992C48.2775 38.9643 48.8204 38.7214 49.36 38.4634C49.6298 38.3344 49.898 38.2014 50.1635 38.067C50.2778 38.0102 50.3907 37.9492 50.5051 37.8924C50.5459 37.8701 50.7867 37.745 50.6125 37.8358C50.4507 37.9221 50.69 37.7928 50.72 37.7793C52.8233 36.644 54.8256 35.3197 56.6928 33.8284C57.1589 33.4553 57.6192 33.0726 58.0679 32.6779C58.2775 32.4943 58.4842 32.3094 58.6882 32.1231C58.4573 32.3311 58.7364 32.077 58.8142 32.0035C58.9389 31.8867 59.0607 31.7686 59.1854 31.6518C60.0467 30.8222 60.8677 29.9538 61.6501 29.0507C62.0399 28.5986 62.4197 28.1384 62.7908 27.6675C62.9683 27.4421 63.1431 27.2153 63.3163 26.9845C63.4154 26.8492 63.5145 26.7139 63.6107 26.5774C63.6515 26.5177 63.6923 26.458 63.7319 26.4011C63.8989 26.1538 63.6949 26.4898 63.775 26.3288C63.9147 26.0521 64.0602 25.7848 64.1802 25.4991C64.1879 25.4821 64.2686 25.2602 64.2123 25.4286C64.156 25.597 64.2254 25.3699 64.2349 25.3266C64.2671 25.1812 64.2936 25.0333 64.3104 24.8844C64.3166 24.826 64.3346 24.4801 64.3313 24.6965C64.3299 24.9239 64.3204 24.5112 64.3169 24.4517C64.308 24.3217 64.2922 24.192 64.2723 24.0638C64.2634 24.0086 64.2545 23.9535 64.2427 23.8971C64.2017 23.6435 64.2435 23.9553 64.2586 23.952C64.2614 23.9533 64.0254 23.2535 64.0041 23.2029C63.9512 23.0801 63.8928 22.9616 63.8357 22.8403C63.7605 22.6767 63.8851 22.9411 63.8864 22.9383C63.8944 22.9283 63.7814 22.7577 63.7725 22.74C63.6353 22.5107 63.4803 22.2904 63.3134 22.0816C63.277 22.0344 63.0076 21.7142 63.1523 21.8822C63.2867 22.0354 63.161 21.893 63.1336 21.8635C63.0675 21.7994 63.0027 21.7324 62.9366 21.6683C62.704 21.4466 62.4552 21.238 62.1988 21.0462C62.0691 20.9498 61.9382 20.8561 61.8047 20.768C61.7478 20.7285 61.6896 20.6918 61.6315 20.6551C61.7619 20.7349 61.7593 20.7406 61.6315 20.6551C61.068 20.3303 60.4863 20.0381 59.8879 19.7826C59.2895 19.527 58.6513 19.284 58.0209 19.0615C57.6923 18.9458 57.3625 18.833 57.0342 18.7243C56.8924 18.6768 56.7494 18.6321 56.6092 18.5886C56.5139 18.5588 56.4185 18.529 56.3232 18.4992C56.2096 18.4645 56.134 18.4436 56.2937 18.4892C54.9558 18.101 53.6058 17.7617 52.2378 17.4994C51.5552 17.3689 50.869 17.2537 50.1793 17.154C49.378 17.0374 48.7262 16.1891 48.8937 15.3804C49.0613 14.5718 49.8075 13.9722 50.6673 14.0949L50.6627 14.0826Z" fill="#73B25F"/>
<path d="M33.4724 13.7933C37.0242 12.6915 40.8099 12.3464 44.5009 12.7921C45.3014 12.8879 46.1245 13.0314 46.795 13.4798C48.5338 14.6394 48.4984 17.183 48.114 19.2374C47.3156 23.5234 45.8543 27.6879 43.7993 31.5342C43.0814 32.8785 42.2487 34.2284 40.9747 35.0675C39.7006 35.9065 37.8757 36.0794 36.7116 35.093C36.0609 34.5413 35.7083 33.7237 35.4159 32.9234C33.1843 26.8453 31.0057 19.8213 33.3178 13.774" fill="#598E44"/>
<path d="M32.9309 12.3411C35.1723 11.6499 37.4951 11.2137 39.8376 11.0928C41.0538 11.0307 42.2771 11.0501 43.4891 11.1393C44.7012 11.2284 46.0813 11.3295 47.1937 11.9213C48.3061 12.5131 49.0553 13.4092 49.4694 14.5475C49.8436 15.5792 49.8979 16.6557 49.8526 17.7414C49.8074 18.827 49.6023 19.7854 49.3795 20.7902C49.0906 22.112 48.7316 23.4156 48.3294 24.7096C47.5809 27.1224 46.6166 29.4709 45.4545 31.7157C44.2924 33.9605 42.9547 36.1798 40.5348 36.9939C39.3173 37.4026 37.9862 37.4328 36.7899 36.9355C35.5275 36.4115 34.7255 35.2803 34.2032 34.0655C33.7838 33.0881 33.4542 32.0632 33.1128 31.0567C32.7713 30.0502 32.4381 29.0032 32.1426 27.9632C30.9595 23.7753 30.1951 19.2063 31.3402 14.9216C31.504 14.3155 31.6916 13.7167 31.9115 13.1293C32.2 12.3689 33.2511 11.9968 33.963 12.3619C34.7525 12.7658 35.0364 13.5997 34.7305 14.4134C34.6431 14.6425 34.5642 14.8755 34.4866 15.1057C34.3525 15.4973 34.573 14.774 34.4655 15.1743C34.4324 15.292 34.3992 15.4096 34.3701 15.5257C34.2485 15.9945 34.1507 16.4708 34.0752 16.9504C34.0038 17.391 33.9548 17.835 33.9195 18.2784C33.9019 18.5189 33.8694 18.7696 33.8795 19.0091C33.8654 18.6214 33.8789 19.0326 33.8799 19.0978C33.8788 19.2198 33.8777 19.3418 33.8794 19.4651C33.8937 21.4289 34.1944 23.3767 34.631 25.2877C34.5487 24.9303 34.6455 25.3454 34.6598 25.3962C34.6892 25.5185 34.7214 25.6421 34.7523 25.7685C34.8167 26.0157 34.8811 26.2629 34.9468 26.5072C35.0798 27.0001 35.225 27.4883 35.373 27.9778C35.6576 28.9074 35.964 29.8264 36.2855 30.7421C36.4494 31.2117 36.6175 31.6797 36.7897 32.1461C36.8633 32.3431 36.9329 32.5415 37.0107 32.737C37.058 32.8572 37.1094 32.976 37.1609 33.0947C37.197 33.1724 37.233 33.2501 37.2691 33.3278C37.1816 33.1688 37.18 33.1647 37.2673 33.3168C37.3378 33.4238 37.4 33.5338 37.4758 33.6364C37.4786 33.6377 37.7357 33.9624 37.5795 33.7823C37.4232 33.6023 37.7083 33.8955 37.7155 33.9022L37.8054 33.9738C37.9492 34.0767 37.9238 34.0651 37.7321 33.9404C37.7787 34.0025 37.9597 34.0611 38.0302 34.0932L38.1316 34.1394C38.2972 34.1944 38.2721 34.1897 38.0519 34.1201C38.1239 34.1937 38.6926 34.1634 38.7156 34.225L38.5407 34.2202C38.6156 34.2203 38.6917 34.2175 38.7692 34.2119C38.884 34.2064 38.9986 34.1939 39.113 34.1745C39.2012 34.1602 39.5478 34.1616 39.1794 34.1707C39.2791 34.1685 39.4181 34.1025 39.5125 34.0672C39.6904 34.0053 39.8848 33.9372 40.0449 33.84C39.7045 34.0491 40.0349 33.832 40.0931 33.7939C40.238 33.6999 40.377 33.5964 40.5117 33.4876C40.5548 33.4527 40.8673 33.1628 40.6048 33.4177C40.6826 33.3442 40.7588 33.2665 40.8322 33.1876C40.9964 33.014 41.1506 32.8323 41.2976 32.644C41.4593 32.4385 41.6066 32.2197 41.7555 32.005C42.0073 31.6466 41.5925 32.2882 41.8174 31.9141C41.8854 31.8021 41.9547 31.6873 42.0199 31.574C43.161 29.592 44.1003 27.4703 44.8777 25.3226C45.0807 24.7649 45.2696 24.2008 45.45 23.6329C45.4798 23.5375 45.5084 23.445 45.5382 23.3497C45.6834 22.8814 45.4561 23.6493 45.5888 23.1787C45.6834 22.844 45.7796 22.5134 45.8685 22.176C46.1591 21.0898 46.4104 19.9925 46.6087 18.8847C46.6837 18.4661 46.742 18.0468 46.7751 17.6228C46.7808 17.5505 46.7852 17.481 46.7909 17.4087L46.7954 17.3018C46.8017 17.1311 46.8027 17.1588 46.7927 17.3823C46.8578 17.1873 46.7857 16.8447 46.77 16.6401C46.7568 16.4673 46.7367 16.2948 46.7084 16.1253C46.6979 16.0661 46.6922 15.8694 46.6517 15.8238L46.6946 16.0135C46.677 15.9476 46.6581 15.8845 46.6392 15.8214C46.622 15.7694 46.4117 15.2821 46.4237 15.2706C46.3796 15.3152 46.6178 15.5769 46.4478 15.3224C46.3848 15.229 46.3259 15.1341 46.2588 15.0423C46.0434 14.7604 46.2168 15.0674 46.2742 15.0459C46.2578 15.0521 46.0078 14.8088 45.975 14.7837C45.9122 14.7347 45.6501 14.6152 45.9194 14.7413C45.7925 14.6835 45.6629 14.6245 45.536 14.5667C45.1508 14.381 45.8121 14.6108 45.3927 14.515C45.2069 14.4746 45.0224 14.4314 44.8327 14.3995C44.5133 14.3459 44.1931 14.309 43.8717 14.2749C43.2998 14.2152 42.7245 14.1778 42.1511 14.1515C41.7081 14.1301 42.4631 14.154 42.0206 14.1465C41.8888 14.1443 41.7542 14.1409 41.6212 14.1416C41.312 14.1403 41.0003 14.1447 40.6929 14.1544C39.5436 14.1891 38.3942 14.2987 37.2586 14.4826C36.6894 14.5739 36.1251 14.6845 35.5656 14.8143C35.9079 14.7353 35.4764 14.8383 35.4351 14.8467C35.262 14.8904 35.0918 14.9354 34.9215 14.9804C34.6223 15.0619 34.3246 15.1476 34.0299 15.2414C33.2568 15.4815 32.3067 15.1611 32.0369 14.3336C31.7904 13.5745 32.118 12.5937 32.9448 12.3406L32.9309 12.3411Z" fill="#598E44"/>
<path d="M30.2684 13.7399C31.1051 14.1074 32.0181 15.6227 32.4453 16.4334C34.3183 19.9961 34.3351 23.942 34.9023 27.9276C35.0642 29.0668 35.1676 30.2372 34.9185 31.3593C34.6694 32.4815 34.0072 33.5618 32.9749 34.0719C31.7698 34.67 30.2662 34.3765 29.1416 33.6396C28.017 32.9027 27.1947 31.7861 26.4594 30.658C25.1515 28.6497 24.0168 26.4853 23.5159 24.14C23.0151 21.7946 23.2025 19.2386 24.4055 17.1656C25.6085 15.0926 27.9277 13.6029 30.3171 13.7451" fill="#73B25F"/>
<path d="M30.9101 12.33C32.5237 13.0991 33.5294 15.0311 34.2345 16.5844C35.0178 18.3096 35.4434 20.185 35.7329 22.0528C36.0223 23.9206 36.1603 25.7399 36.4155 27.5785C36.7167 29.7716 36.7542 31.991 35.459 33.8927C34.2851 35.6181 32.1018 36.3085 30.1226 35.7439C27.9559 35.1279 26.4703 33.4948 25.2673 31.6669C23.0638 28.3145 21.3487 24.48 21.785 20.3762C22.018 18.1984 22.9457 16.0272 24.5556 14.5106C26.1655 12.994 28.2751 12.1066 30.5623 12.2192C31.3746 12.2591 32.0048 13.2371 31.8478 13.9927C31.6627 14.8921 30.9435 15.3202 30.0742 15.2782C30.5034 15.3001 29.915 15.284 29.8058 15.2921C29.6205 15.303 29.4369 15.3249 29.2523 15.3565C29.222 15.3632 29.0433 15.4043 29.0333 15.3963C29.0735 15.4351 29.3146 15.3168 29.0938 15.3831C28.873 15.4493 28.6687 15.5094 28.4581 15.5905C28.3009 15.6516 28.1481 15.7181 27.9968 15.7888C27.8919 15.8397 27.6837 15.8708 27.9993 15.7831C27.9417 15.7977 27.8514 15.8689 27.8052 15.8955C27.4823 16.0888 27.1755 16.3065 26.8889 16.547C26.8728 16.56 26.5962 16.8085 26.784 16.6353C26.9718 16.4622 26.7011 16.7201 26.6878 16.7345C26.5688 16.8538 26.4541 16.9786 26.3437 17.1087C26.2334 17.2389 26.1259 17.3703 26.0268 17.5056C25.9714 17.5824 25.9172 17.6565 25.8646 17.7346C25.6303 18.0772 25.965 17.5217 25.8161 17.8113C25.6346 18.1575 25.4515 18.4996 25.3053 18.8653C25.2239 19.0664 25.1481 19.2702 25.0877 19.4775C25.1036 19.4201 25.172 19.1654 25.098 19.455C25.0679 19.5808 25.0337 19.7082 25.0064 19.8354C24.9184 20.2378 24.8571 20.6489 24.8221 21.0619C24.8136 21.1703 24.8078 21.28 24.7993 21.3885C24.7946 21.451 24.7934 21.6853 24.7962 21.3803C24.7924 21.6202 24.7943 21.8628 24.8072 22.1035C24.8263 22.5173 24.8678 22.9344 24.9326 23.3452C24.9632 23.5395 24.9979 23.7323 25.0395 23.9249C25.0561 24.0005 25.1261 24.2877 25.05 23.9841C25.0809 24.1105 25.1146 24.2382 25.1497 24.3631C25.3733 25.1798 25.6739 25.977 26.0235 26.749C26.1048 26.929 26.1875 27.1062 26.2743 27.2819C26.3221 27.3786 26.3728 27.4766 26.4207 27.5732C26.4565 27.644 26.5935 27.9038 26.4491 27.6304C26.6557 28.0139 26.8733 28.3955 27.0975 28.77C27.5312 29.4917 27.9883 30.2071 28.4951 30.8805C28.6305 31.0613 28.7714 31.2378 28.9189 31.4071C28.9768 31.4743 29.0375 31.5428 29.0954 31.61C28.8544 31.3471 29.164 31.6685 29.1971 31.7006C29.3249 31.8235 29.4568 31.9449 29.5954 32.0591C29.6997 32.144 29.8053 32.2261 29.9121 32.3054L30.0231 32.3832C30.1878 32.4923 30.1709 32.4846 29.9749 32.3544C30.0368 32.4576 30.3198 32.5388 30.4269 32.5876C30.5397 32.6389 30.8132 32.6886 30.9036 32.7741C30.7499 32.6258 30.6711 32.709 30.8864 32.7595C30.9787 32.7811 31.0694 32.7986 31.1643 32.8145C31.2368 32.8272 31.3107 32.837 31.3858 32.844C31.4609 32.8509 31.5332 32.8566 31.6096 32.8608L31.4319 32.8548C31.5324 32.9107 31.8729 32.8208 31.9818 32.8057C32.2854 32.767 31.9285 32.8257 31.9188 32.8246C31.9734 32.8393 32.1257 32.7589 32.1803 32.7361C32.2624 32.7055 32.3639 32.6768 32.4355 32.6243C32.1544 32.823 32.3429 32.6707 32.3942 32.6328C32.4683 32.5746 32.5533 32.5078 32.6333 32.4591C32.7208 32.3867 32.6954 32.4125 32.5599 32.538C32.6161 32.4819 32.671 32.4287 32.7256 32.3685C32.8337 32.2509 32.9261 32.1228 33.0228 32C33.2628 31.6975 32.8867 32.2989 33.0541 31.9462C33.0875 31.8729 33.1294 31.8035 33.1643 31.7343C33.2403 31.5749 33.3763 31.351 33.3867 31.1787C33.3839 31.2148 33.3008 31.5242 33.3664 31.2307C33.395 31.1008 33.4251 30.9749 33.4467 30.8452C33.4856 30.6179 33.5038 30.3912 33.526 30.1631C33.5309 30.1075 33.5347 29.8675 33.5311 30.1518C33.5325 30.0367 33.5311 29.9203 33.5283 29.8068C33.5172 29.3456 33.4714 28.8856 33.4118 28.4261C33.199 26.7635 33.0235 25.0939 32.8079 23.4299C32.6923 22.5331 32.5546 21.6398 32.3645 20.7567C32.3645 20.7567 32.2764 20.3524 32.3278 20.5834C32.3709 20.7801 32.2659 20.3306 32.2547 20.288C32.2031 20.0875 32.1458 19.8844 32.0872 19.6842C31.9561 19.2398 31.8072 18.8043 31.6392 18.3738C31.4711 17.9432 31.3125 17.4693 31.0618 17.093C31.292 17.4396 31.0324 17.0456 30.9774 16.9422C30.8752 16.763 30.769 16.5852 30.6601 16.4131C30.4425 16.0689 30.1979 15.7464 29.9465 15.4243C29.8025 15.2396 30.0054 15.4443 30.0054 15.4817C30.0057 15.4512 29.8127 15.2919 29.7884 15.2706C29.7354 15.2226 29.6534 15.1784 29.607 15.1233C29.5045 15.0493 29.5612 15.082 29.7769 15.2211C29.7316 15.1936 29.6821 15.1677 29.6329 15.1487C28.9036 14.7994 28.4811 13.8513 28.8655 13.0971C29.2498 12.343 30.1341 11.9561 30.917 12.3297L30.9101 12.33Z" fill="#73B25F"/>
<path d="M19.8918 21.1975C21.8558 25.8977 23.8212 30.5951 25.7852 35.2953C26.1207 36.0982 26.4615 36.9342 26.4098 37.8025C26.358 38.6707 25.7877 39.5717 24.9288 39.7012C24.3993 39.78 23.8701 39.5593 23.4019 39.3018C20.1068 37.5013 18.2372 33.9164 16.7975 30.4489C16.0534 28.66 15.3602 26.7444 15.6484 24.8265C15.9365 22.9086 17.5523 21.0577 19.4854 21.1928" fill="#598E44"/>
<path d="M21.3394 20.6551C22.7676 24.073 24.1959 27.491 25.6255 30.9061L26.726 33.5416C27.0448 34.3063 27.4064 35.0667 27.6542 35.8604C28.1927 37.6 28.0138 39.7038 26.3407 40.7764C24.5512 41.9252 22.5417 40.7546 21.0824 39.6167C19.817 38.6284 18.7508 37.3599 17.8856 36.0161C17.0205 34.6723 16.2485 33.1089 15.5929 31.5815C14.9374 30.0541 14.3587 28.5821 14.1203 26.9758C13.852 25.1585 14.198 23.3827 15.2424 21.8671C16.2867 20.3516 17.9342 19.5669 19.7259 19.6614C20.537 19.7041 21.1668 20.6752 21.0114 21.4349C20.8276 22.3315 20.1059 22.7652 19.2379 22.7204C19.6739 22.7421 19.2658 22.7263 19.1471 22.7404C19.0822 22.7482 19.0189 22.7602 18.9553 22.7653C18.733 22.79 19.0442 22.8092 19.0597 22.738C19.0563 22.7603 18.7378 22.8467 18.6968 22.862C18.6558 22.8774 18.6071 22.9096 18.5645 22.9209C18.3955 22.963 18.8382 22.746 18.6148 22.8927C18.5065 22.9659 18.3952 23.031 18.2913 23.1096C18.2387 23.1503 18.189 23.1923 18.1364 23.233C17.946 23.3744 18.2379 23.2044 18.21 23.1611C18.21 23.1611 17.7266 23.7067 17.6817 23.768C17.6855 23.7595 17.5741 23.9368 17.5644 23.9358C17.6323 23.9361 17.7351 23.6357 17.6262 23.8448C17.5641 23.9663 17.4963 24.0852 17.437 24.2079C17.3777 24.3307 17.3268 24.4573 17.2816 24.5865C17.2688 24.6146 17.2302 24.7741 17.215 24.7774C17.2845 24.7444 17.2989 24.4139 17.2407 24.721C17.1872 25.003 17.1459 25.2803 17.1216 25.5654C17.0973 25.8504 17.1213 25.5959 17.1206 25.5377C17.1236 25.6207 17.1197 25.7041 17.1227 25.7871C17.1295 25.974 17.1432 26.1607 17.1638 26.3471C17.1987 26.6591 17.2597 26.966 17.3166 27.2744C17.252 26.9455 17.3547 27.4075 17.379 27.5037C17.4314 27.6875 17.4879 27.8699 17.5444 28.0522C17.7536 28.6989 18.0066 29.3315 18.2691 29.9583C18.5317 30.5851 18.8267 31.2675 19.1341 31.9079C19.2736 32.1995 19.4228 32.4921 19.5677 32.7793C19.6736 32.9876 19.4519 32.57 19.5633 32.7739C19.5958 32.8296 19.6242 32.8868 19.6555 32.9453C19.7594 33.1356 19.8646 33.3231 19.9739 33.509C20.3211 34.0994 20.6954 34.675 21.1062 35.2229C21.297 35.4766 21.4972 35.7244 21.7042 35.9651C21.7605 36.0282 21.8169 36.0913 21.8704 36.1531C22.0195 36.3265 21.6934 35.9738 21.8545 36.1357C21.9882 36.2681 22.1194 36.4061 22.2544 36.5357C22.497 36.7653 22.7503 36.9862 23.0129 37.1944C23.1285 37.2844 23.244 37.3745 23.365 37.4602C23.4347 37.509 23.5015 37.5565 23.5712 37.6052C23.7134 37.7041 23.7636 37.7507 23.5915 37.6281C23.8633 37.8234 24.1829 37.9587 24.4807 38.1046C24.6416 38.1847 24.547 38.2131 24.435 38.1076C24.4637 38.1343 24.5763 38.1413 24.6139 38.1483C24.6739 38.1586 24.9164 38.1567 24.7159 38.1709C24.598 38.1683 24.6103 38.1637 24.7583 38.1528L24.5742 38.1982C24.5624 38.1793 24.7665 38.1497 24.7642 38.1248C24.766 38.1358 24.4746 38.2822 24.6724 38.1545C24.8701 38.0267 24.5603 38.1987 24.6057 38.2262C24.6141 38.2301 24.7506 38.0574 24.7414 38.0702C24.9064 37.8798 24.6485 38.147 24.6934 38.1607C24.699 38.1632 24.7956 37.9587 24.7892 37.9728C24.811 37.9249 24.8272 37.8744 24.849 37.8265C24.9261 37.6573 24.7901 38.1502 24.831 37.8659C24.8424 37.7962 24.8509 37.7252 24.8609 37.6583C24.9006 37.4143 24.8581 37.657 24.8614 37.7096C24.8472 37.5465 24.833 37.3835 24.8146 37.222C24.808 37.1543 24.7503 36.9373 24.828 37.245C24.807 37.164 24.7848 37.0858 24.7597 37.0063C24.7137 36.8458 24.6553 36.6899 24.6011 36.5324C24.0391 35.0238 23.3632 33.5484 22.7425 32.0641C21.3037 28.6243 19.8634 25.1805 18.4247 21.7407C18.112 20.9924 18.5571 20.0004 19.3325 19.7477C20.1559 19.4795 20.9916 19.8567 21.3255 20.6556L21.3394 20.6551Z" fill="#598E44"/>
<path d="M18.9555 36.156C19.2618 37.4563 20.1161 39.0333 20.0281 40.3922C19.9349 41.8373 19.4677 43.483 18.2023 44.1388C17.6022 44.4475 16.9115 44.4767 16.2686 44.371C14.2506 44.0338 12.6355 42.4233 11.798 40.5033C10.9604 38.5832 10.7976 36.385 10.8527 34.2316C10.9024 32.3515 11.427 30.0342 13.164 29.4639C14.7121 28.9573 16.2077 30.2546 16.9189 31.7121L18.9542 36.1588L18.9555 36.156Z" fill="#73B25F"/>
<path d="M20.4028 35.611C20.8177 37.308 21.6661 38.8381 21.5524 40.6346C21.4386 42.4311 20.7708 44.3905 19.1918 45.3459C17.3049 46.4845 14.9857 45.9114 13.2688 44.7413C11.7822 43.7305 10.7078 42.1212 10.1093 40.4462C9.51071 38.7712 9.29485 36.8688 9.29811 35.0458C9.30251 33.4071 9.39826 31.6501 10.2101 30.1818C10.6953 29.3034 11.3383 28.6091 12.2454 28.1646C13.1525 27.72 14.2087 27.7178 15.1727 28.0377C16.6543 28.5288 17.7443 29.8423 18.3928 31.2133C19.0805 32.6703 19.7328 34.1451 20.4041 35.6082C20.7413 36.3473 20.2524 37.3534 19.4962 37.6012C18.6523 37.8771 17.863 37.4802 17.5032 36.6934C16.9402 35.4634 16.3787 34.2375 15.8157 33.0076C15.7133 32.7839 15.6041 32.5606 15.5086 32.3367C15.4889 32.2903 15.4508 32.1572 15.5081 32.3228C15.5762 32.5172 15.4948 32.2997 15.4638 32.2482C15.4165 32.1654 15.365 32.084 15.3094 32.0043C15.2126 31.8581 15.1092 31.719 15.0003 31.5844C14.9176 31.482 14.8639 31.301 15.0029 31.5787C14.9776 31.5297 14.872 31.4476 14.8405 31.4196C14.7301 31.3183 14.6143 31.2213 14.4946 31.1328C14.4391 31.0904 14.3614 31.0516 14.314 31.0062C14.521 31.2094 14.5052 31.1171 14.384 31.0619C14.3191 31.0324 14.2568 30.9972 14.1907 30.9705C14.1428 30.9487 14.0936 30.9296 14.0403 30.9122C13.9265 30.8705 13.9755 30.8826 14.1846 30.9541C14.1128 30.9622 13.8224 30.83 13.7691 30.8873C13.7678 30.8902 14.0954 30.8658 13.8526 30.8982C13.8526 30.8982 13.6519 30.9055 13.6401 30.9239L13.8091 30.8817C13.7555 30.8948 13.7034 30.9119 13.6542 30.9303C13.5898 30.9521 13.5288 30.9889 13.4657 31.0078C13.2831 31.0574 13.6825 30.8309 13.5514 30.9618C13.4885 31.025 13.3836 31.076 13.3079 31.13C13.0173 31.3346 13.4694 30.9176 13.2438 31.1961C13.2199 31.2261 12.9713 31.5553 12.9672 31.5568C12.9923 31.5615 13.1595 31.2019 13.0277 31.4687C12.9982 31.5335 12.9615 31.5917 12.9291 31.6552C12.849 31.8162 12.7802 31.9822 12.7183 32.1481C12.698 32.2001 12.6758 32.3159 12.6481 32.3544C12.672 32.3244 12.7445 31.9932 12.6743 32.2744C12.6393 32.4185 12.6003 32.564 12.5709 32.7107C12.5025 33.0403 12.455 33.3761 12.4227 33.7086C12.4064 33.8713 12.3958 34.0367 12.388 34.2033C12.3856 34.2533 12.3775 34.4879 12.3825 34.2825C12.3899 34.0646 12.3835 34.3476 12.3811 34.3976C12.3747 34.7929 12.3767 35.1921 12.3909 35.5866C12.4172 36.3509 12.4838 37.1164 12.6137 37.87C12.6448 38.0407 12.6772 38.2087 12.7125 38.3779C12.7728 38.6641 12.7253 38.4246 12.7094 38.3697C12.7332 38.452 12.7529 38.5359 12.7754 38.621C12.8825 39.0136 13.0129 39.3998 13.1692 39.7739C13.2345 39.9296 13.3038 40.0837 13.3773 40.2363C13.3983 40.2799 13.5273 40.5123 13.4282 40.3412C13.3128 40.1388 13.5196 40.4918 13.5211 40.4959C13.7144 40.8188 13.9321 41.1256 14.1713 41.4149C14.2236 41.4796 14.2799 41.5427 14.3334 41.6045C14.2986 41.5614 14.109 41.3798 14.3173 41.5801C14.4351 41.6951 14.553 41.81 14.6775 41.9178C14.802 42.0256 14.9291 42.1277 15.0587 42.2242C15.0728 42.2306 15.392 42.4714 15.1827 42.3181C14.9934 42.1808 15.2747 42.3703 15.3185 42.3936C15.46 42.4717 15.604 42.5441 15.7518 42.608C15.8421 42.6491 15.9376 42.6859 16.0304 42.7213C16.0824 42.7416 16.3305 42.8172 16.1204 42.7555C15.9102 42.6938 16.1609 42.7637 16.2139 42.7743C16.3119 42.7984 16.4123 42.817 16.5128 42.8355C16.5923 42.8479 16.6746 42.8615 16.7566 42.8683C16.8053 42.8734 17.1406 42.8696 16.9263 42.8843C16.712 42.899 16.9855 42.8738 17.0352 42.8693C17.0809 42.8662 17.4709 42.8022 17.2701 42.8469C17.0693 42.8916 17.3288 42.8226 17.374 42.8057C17.534 42.7458 17.6065 42.7585 17.4129 42.8098C17.4911 42.7876 17.5837 42.7038 17.6512 42.6529C17.9239 42.4503 17.6366 42.6326 17.6517 42.6667C17.6338 42.6313 17.9976 42.3035 18.0087 42.2268C17.9844 42.3996 17.8862 42.4434 17.9663 42.2824C18.0179 42.1766 18.0752 42.0733 18.1212 41.9649C18.1545 41.8916 18.1838 41.8199 18.2116 41.744C18.2393 41.6682 18.4055 41.3184 18.2426 41.6833C18.3929 41.3535 18.4184 40.909 18.4622 40.5511C18.4705 40.4732 18.48 40.3924 18.4855 40.3132C18.4917 40.2548 18.4951 40.195 18.4985 40.1353C18.4975 40.3391 18.4949 40.3822 18.4935 40.2658C18.4777 40.0986 18.4745 39.9338 18.4518 39.7669C18.4373 39.6718 18.4146 39.5797 18.4028 39.4859C18.3768 39.3038 18.4777 39.7549 18.3995 39.4707C18.3469 39.28 18.2914 39.0879 18.229 38.8961C17.9901 38.1576 17.691 37.4393 17.5071 36.6849C17.4074 36.2685 17.3639 35.9083 17.5501 35.4995C17.708 35.1528 18.0477 34.8106 18.4162 34.6891C19.1355 34.4551 20.2027 34.7574 20.4092 35.5969L20.4028 35.611Z" fill="#73B25F"/>
<path d="M129.52 94.706C127.903 96.8661 125.398 98.2779 122.739 98.6529C121.935 98.7666 121.089 98.0819 121.04 97.27C120.988 96.4055 121.568 95.6928 122.423 95.5717C122.563 95.55 122.702 95.5283 122.842 95.5038C122.913 95.4916 122.981 95.4752 123.049 95.4617C123.226 95.4303 122.659 95.5631 122.953 95.486C123.212 95.417 123.467 95.3426 123.722 95.2543C123.977 95.1661 124.224 95.0642 124.466 94.9501C124.53 94.9214 124.593 94.8887 124.657 94.86C124.878 94.7494 124.666 94.8639 124.57 94.9089C124.697 94.8475 124.819 94.7738 124.938 94.6987C125.401 94.4227 125.826 94.1024 126.237 93.752C126.471 93.5522 126.031 93.9508 126.161 93.8227C126.211 93.7738 126.263 93.7261 126.314 93.6744C126.414 93.5737 126.511 93.4718 126.606 93.3685C126.797 93.1592 126.975 92.9407 127.145 92.7155C127.632 92.0658 128.734 91.9787 129.327 92.5214C129.974 93.1121 130.042 94.0078 129.521 94.7032L129.52 94.706Z" fill="#73B25F"/>
<path d="M117.452 77.8497C115.927 80.8313 114.145 83.6821 112.133 86.3597C111.646 87.0095 110.547 87.0978 109.951 86.5538C109.304 85.9632 109.233 85.0661 109.757 84.372C110.24 83.7307 110.709 83.0802 111.164 82.4192C111.393 82.0879 111.615 81.7568 111.833 81.4204C111.944 81.2528 112.051 81.084 112.161 80.9164C112.217 80.8326 112.269 80.7476 112.321 80.6625C112.247 80.7816 112.239 80.7916 112.299 80.6966C113.128 79.3482 113.911 77.9794 114.631 76.5713C115 75.8509 115.914 75.413 116.682 75.8038C117.403 76.1728 117.846 77.0827 117.45 77.8553L117.452 77.8497Z" fill="#73B25F"/>
<path d="M98.9326 72.6686C96.6981 76.3039 93.6249 79.3665 89.8765 81.4305C89.1684 81.8193 88.2034 81.8155 87.7185 81.0568C87.3057 80.416 87.3338 79.3158 88.0922 78.8988C88.9458 78.4298 89.767 77.9121 90.553 77.3374C90.946 77.0501 91.3302 76.752 91.703 76.4419C91.89 76.2854 92.0742 76.1276 92.2556 75.9686C92.3402 75.8948 92.4208 75.8226 92.5026 75.7475C92.2422 75.9829 92.5683 75.6855 92.595 75.6568C93.2985 74.9867 93.9615 74.271 94.5746 73.5155C94.8679 73.1555 95.1484 72.7863 95.4189 72.4092C95.56 72.2114 95.6984 72.0123 95.8352 71.8091C95.9088 71.6997 95.981 71.5862 96.0546 71.4768C96.2438 71.1885 95.9186 71.7008 96.1162 71.3789C96.539 70.6899 97.3585 70.1986 98.1678 70.6115C98.8386 70.9545 99.3908 71.9243 98.9352 72.663L98.9326 72.6686Z" fill="#73B25F"/>
<path d="M81.1676 60.5258C80.759 61.7965 79.2882 62.5221 78.2296 63.187C77.1711 63.8519 76.1149 64.4669 75.0287 65.0579C72.8005 66.2657 70.508 67.3454 68.1446 68.2669C67.3873 68.5619 66.4089 68.1468 66.1516 67.3591C65.8943 66.5713 66.2529 65.6795 67.0595 65.3661C68.1475 64.9427 69.2192 64.488 70.2787 64.0005C70.7872 63.7658 71.2914 63.5257 71.7938 63.2746C72.0444 63.1505 72.2934 63.0223 72.5425 62.894C72.6663 62.8313 72.7915 62.7658 72.9167 62.7003C72.6392 62.8462 73.069 62.6199 73.1234 62.5902C74.1295 62.0478 75.118 61.4769 76.0901 60.8747C76.5646 60.5803 77.0389 60.2789 77.506 59.9709C77.7306 59.8213 77.9492 59.6554 78.1782 59.5112C78.3155 59.3968 78.3157 59.4037 78.1816 59.5264C78.2285 59.4831 78.2711 59.4344 78.3109 59.3844C78.3838 59.2917 78.3696 59.3227 78.267 59.4734C78.3045 59.3985 78.3376 59.3183 78.3582 59.2358C78.6059 58.4602 79.7247 58.1189 80.4097 58.4684C81.2302 58.8864 81.4424 59.691 81.1771 60.5199L81.1676 60.5258Z" fill="#73B25F"/>
<path d="M70.9029 38.2641C67.6623 41.7542 63.4558 44.1065 58.8125 45.1162C58.0189 45.2891 57.1587 44.5024 57.1142 43.7333C57.0616 42.8175 57.6499 42.2209 58.4971 42.035C58.5768 42.0168 58.6594 42 58.7391 41.9819C58.5756 42.0197 58.5481 42.0276 58.6553 42.0015C58.7748 41.9709 58.8971 41.9415 59.0166 41.9108C59.2761 41.8418 59.5369 41.77 59.7946 41.6899C60.2689 41.5452 60.7413 41.3825 61.2062 41.2063C61.7094 41.0134 62.2048 40.8 62.6913 40.5689C62.9162 40.4637 63.1381 40.3503 63.3599 40.2369C63.0427 40.3954 63.3789 40.2251 63.4497 40.1893C63.5761 40.121 63.7039 40.0498 63.8288 39.9773C64.7277 39.461 65.5883 38.8795 66.4038 38.24C66.8122 37.9188 67.2062 37.5844 67.5872 37.2337C67.3068 37.4906 67.6193 37.2007 67.6555 37.1661C67.7452 37.081 67.8335 36.9919 67.9205 36.9056C68.1265 36.6999 68.3269 36.4916 68.5257 36.2792C69.0754 35.6854 70.0681 35.5011 70.7075 36.0851C71.3011 36.6278 71.4941 37.6314 70.9017 38.2669L70.9029 38.2641Z" fill="#73B25F"/>
<path d="M46.7252 17.6416C46.6839 21.5883 45.8899 25.461 44.2965 29.0786C43.9685 29.821 42.985 30.224 42.245 29.846C41.5049 29.468 41.1293 28.5889 41.4775 27.7945C41.8258 27 42.1479 26.1733 42.4227 25.3385C42.4602 25.2263 42.4949 25.1127 42.5324 25.0005C42.626 24.7129 42.5069 25.1012 42.5573 24.9233C42.6165 24.7188 42.6756 24.5143 42.7319 24.3085C42.8492 23.8717 42.9554 23.4367 43.0516 22.9938C43.2382 22.1359 43.3814 21.2685 43.4816 20.3985C43.5314 19.9753 43.5687 19.5498 43.5962 19.1232C43.6125 18.8856 43.6247 18.6495 43.6342 18.4121C43.6381 18.2913 43.64 18.2275 43.636 18.3857C43.6392 18.2442 43.6395 18.1014 43.6427 17.9599C43.6508 17.15 44.1294 16.3162 45.0256 16.2615C45.785 16.216 46.7328 16.7805 46.724 17.6444L46.7252 17.6416Z" fill="#73B25F"/>
<path d="M125.52 83.6207C123.736 86.7225 121.244 89.3759 118.179 91.2475C117.49 91.6689 116.493 91.6094 116.021 90.8737C115.594 90.2058 115.654 89.1681 116.395 88.7157C117.078 88.2987 117.738 87.8436 118.368 87.344C118.682 87.0956 118.987 86.8364 119.285 86.5705C119.395 86.4709 119.391 86.4724 119.285 86.5705C119.367 86.4955 119.447 86.4163 119.526 86.34C119.671 86.2017 119.814 86.0592 119.952 85.9142C120.496 85.3553 121.005 84.7671 121.479 84.1455C121.722 83.8276 121.956 83.5017 122.18 83.1678C122.241 83.0769 122.302 82.9818 122.364 82.8908C122.454 82.7517 122.43 82.7817 122.357 82.9049C122.471 82.7151 122.589 82.5237 122.697 82.3312C123.101 81.6304 123.953 81.1573 124.748 81.5638C125.439 81.9158 125.95 82.8635 125.516 83.6153L125.52 83.6207Z" fill="#598E44"/>
<path d="M108.06 74.0676C106.811 78.6693 104.408 82.9151 100.974 86.2389C100.394 86.8019 99.4558 87.0383 98.7921 86.433C98.2272 85.917 97.9724 84.8547 98.5979 84.2512C99.3774 83.4966 100.109 82.6965 100.784 81.8501C101.136 81.4076 101.473 80.9518 101.793 80.4883C101.94 80.2764 102.083 80.0591 102.224 79.8406C102.262 79.7796 102.301 79.7227 102.339 79.6617C102.255 79.7937 102.244 79.8121 102.305 79.7142C102.377 79.5938 102.453 79.4718 102.525 79.3514C103.076 78.4179 103.565 77.4493 103.992 76.4524C104.205 75.9539 104.402 75.4477 104.58 74.9367C104.675 74.6699 104.763 74.4005 104.848 74.1327C104.938 73.8439 104.821 74.2363 104.869 74.0571C104.91 73.899 104.958 73.7406 105.001 73.5796C105.213 72.8012 105.897 72.1124 106.775 72.2941C107.524 72.4485 108.288 73.2318 108.06 74.0676Z" fill="#598E44"/>
<path d="M86.6384 68.469C83.8521 72.5235 79.9607 75.7308 75.5186 77.8158C74.7826 78.1613 73.7691 77.6588 73.5256 76.9079C73.2494 76.0571 73.6497 75.2829 74.4335 74.9149C74.7102 74.7857 74.9854 74.6523 75.2575 74.5108C75.3229 74.4793 75.6668 74.2922 75.3719 74.454C75.486 74.3902 75.6029 74.3278 75.7171 74.264C76.2144 73.9868 76.7014 73.6947 77.1783 73.3877C78.1332 72.7709 79.0485 72.0917 79.9145 71.3562C80.1149 71.1853 80.3096 71.0119 80.5071 70.8398C80.64 70.7199 80.6359 70.7215 80.5033 70.8483C80.5515 70.8022 80.5985 70.7589 80.6467 70.7128C80.7593 70.6075 80.8691 70.5009 80.9789 70.3944C81.3846 69.9971 81.7787 69.5877 82.1584 69.165C82.9179 68.3196 83.6188 67.4237 84.264 66.4854C84.725 65.8172 85.8694 65.7633 86.4458 66.2913C87.1139 66.902 87.1338 67.7552 86.6399 68.4731L86.6384 68.469Z" fill="#598E44"/>
<path d="M75.7726 50.0231C71.3499 53.4479 66.1765 55.9351 60.7324 57.2233C60.3132 57.3216 59.9586 57.3677 59.547 57.1803C59.2003 57.0223 58.8581 56.6826 58.7366 56.3141C58.5041 55.5989 58.8019 54.5194 59.6444 54.3211C62.2847 53.6959 64.8567 52.7946 67.307 51.6301C67.6014 51.4919 67.8927 51.3455 68.1841 51.1991C68.3392 51.12 68.4944 51.0409 68.6467 50.9605C68.3256 51.1274 68.8152 50.8671 68.8696 50.8374C69.4595 50.5138 70.042 50.1767 70.6142 49.8246C71.7789 49.106 72.8999 48.3265 73.9826 47.4888C74.6245 46.9915 75.7028 47.1797 76.1406 47.8625C76.6107 48.594 76.4547 49.4897 75.7669 50.0205L75.7726 50.0231Z" fill="#598E44"/>
<path d="M61.8142 25.901C58.1132 30.2297 53.8219 34.0684 49.0995 37.2545C48.4269 37.7072 47.3985 37.5962 46.9414 36.8808C46.4844 36.1654 46.5939 35.2077 47.3152 34.7228C49.6019 33.1775 51.7877 31.4875 53.849 29.6523C53.974 29.5424 54.0961 29.4313 54.2169 29.3229C54.2572 29.2868 54.681 28.8944 54.4437 29.1165C54.6851 28.8929 54.9278 28.6664 55.1649 28.4374C55.6593 27.9648 56.1437 27.4843 56.625 26.9955C57.5982 26.0024 58.5368 24.9731 59.4411 23.9145C59.9663 23.2994 61.0006 23.1511 61.6229 23.7204C62.2451 24.2898 62.3823 25.2441 61.817 25.9022L61.8142 25.901Z" fill="#598E44"/>
<path d="M29.1922 17.2849C31.2273 20.3496 32.0721 24.1144 31.5165 27.7554C31.3943 28.5541 30.5585 29.2082 29.7429 29.0409C28.9273 28.8736 28.3262 28.1232 28.4574 27.2674C28.5154 26.8785 28.5608 26.4873 28.5855 26.0969C28.593 25.9982 28.5936 25.8998 28.5998 25.8039C28.6123 25.6122 28.6019 26.0908 28.5981 25.7929C28.5951 25.5975 28.5963 25.4006 28.5906 25.204C28.5607 24.4177 28.4562 23.6383 28.2966 22.8678C28.2581 22.6834 28.3095 22.8022 28.3079 22.9104C28.3072 22.8147 28.2447 22.6604 28.2192 22.567C28.1665 22.3762 28.1126 22.1883 28.0517 22.0006C27.9377 21.6457 27.8085 21.2941 27.6657 20.95C27.5913 20.7697 27.5099 20.5896 27.4272 20.4124C27.3865 20.3224 27.3446 20.2352 27.2998 20.1467C27.2967 20.1385 27.1198 19.8095 27.2296 20.0093C27.3395 20.2091 27.1749 19.9128 27.1513 19.8749C27.1024 19.7879 27.0522 19.7038 27.002 19.6197C26.8927 19.4337 26.7752 19.2508 26.6551 19.0736C26.2065 18.3995 26.3094 17.3741 27.0288 16.9156C27.7483 16.457 28.7088 16.5678 29.1868 17.2893L29.1922 17.2849Z" fill="#598E44"/>
<path d="M12.7768 39.474C11.8744 38.1746 11.3115 36.6008 11.2292 35.018C11.2057 34.5614 11.2053 34.0915 11.2582 33.639C11.3674 32.7119 12.125 31.9677 13.0756 31.9957C13.6473 32.011 14.1362 32.3052 14.4676 32.7659C14.7144 33.1132 14.7753 33.5324 14.8635 33.9368C14.9516 34.3411 15.0277 34.7196 15.0973 35.1121C15.2594 36.0267 15.3691 36.9515 15.4345 37.8765C15.4916 38.6854 14.9023 39.5232 14.0516 39.5748C13.201 39.6264 12.4136 39.0533 12.3533 38.1919C12.2535 36.7746 12.0431 35.3683 11.7199 33.9855L11.8101 34.3704C11.794 34.3086 11.7769 34.2565 11.7484 34.1993L11.933 34.5489L11.9007 34.5002L12.172 34.7939L12.1331 34.7524L12.4849 34.9739L12.4395 34.9464L12.8375 35.0665L12.7845 35.0559L13.1841 35.0678L13.1385 35.0708L13.5234 34.9806L13.4823 34.996L13.8319 34.8114L13.7968 34.8362L14.0905 34.565C14.0677 34.5852 14.0492 34.6108 14.0348 34.6349L14.2564 34.2831C14.2422 34.3141 14.2294 34.3423 14.2153 34.3733L14.3353 33.9753C14.2903 34.1488 14.2902 34.336 14.2841 34.5136L14.296 34.114C14.2801 34.7467 14.3444 35.375 14.4888 35.9922L14.3986 35.6074C14.5435 36.2009 14.7568 36.7713 15.0412 37.3127L14.8567 36.9631C14.9918 37.2119 15.1378 37.452 15.3001 37.6859C15.7623 38.3526 15.6364 39.3912 14.9264 39.8439C14.2164 40.2966 13.26 40.1843 12.7684 39.4702L12.7768 39.474Z" fill="#598E44"/>
<path d="M20.8536 24.7516C22.1767 27.6383 23.3128 30.6066 24.2558 33.6401C24.4959 34.4133 24.1755 35.3633 23.348 35.6331C22.5877 35.8825 21.6122 35.5505 21.355 34.7253C20.4119 31.6918 19.2758 28.7235 17.9528 25.8368C17.6155 25.0977 18.1044 24.0916 18.8606 23.8438C19.7045 23.5678 20.491 23.9635 20.8536 24.7516Z" fill="#73B25F"/>
</svg>
