<svg width="205" height="200" viewBox="0 0 205 200" fill="none" xmlns="http://www.w3.org/2000/svg">
<path d="M92.3328 34.5975C52.0408 8.75986 21.9032 48.0059 22.7745 61.5502C23.0089 65.2357 24.3044 68.8421 24.5557 72.5226C25.4446 85.4806 22.6292 83.4392 21.4946 96.3131C20.9826 102.095 24.8587 115.812 26.4472 119.114C29.1735 124.787 36.0434 131.955 37.3708 138.042C40.1553 150.788 46.3066 155.996 56.8823 164.156C59.8704 166.462 62.6108 169.096 65.8077 171.123C69.8129 173.665 74.3707 175.146 78.8754 176.602C97.3885 182.589 119.198 188.169 134.502 177.236C137.572 175.039 140.269 172.22 143.852 170.919C150.33 168.554 153.806 173.489 159.286 169.429C164.497 165.56 161.484 154.85 166.466 150.715C169.849 147.902 177.06 140.421 180.173 137.343C187.844 129.758 181.913 124.823 182.078 113.969C182.18 106.962 187.396 100.807 186.909 93.7945C186.349 85.8107 180.992 84.8464 177.404 77.5431C173.664 69.939 178.061 69.2867 176.698 61.0332C175.344 52.7734 166.469 46.3092 163.288 39.3892C161.581 35.6658 152.211 31.3489 143.636 30.2314C137.076 29.3772 132.299 23.1841 125.903 21.3913C119.078 19.4865 112.204 22.8925 106.167 26.1972C94.9883 32.3061 83.0136 39.3093 78.649 51.1399C72.6414 67.4295 83.3936 85.2753 85.5321 102.743" fill="#EC761F"/>
<path d="M94.7877 31.6259C85.6693 25.8038 75.5363 22.0331 64.7348 22.109C56.2208 22.1724 48.0305 24.9387 40.9988 29.2923C34.8608 33.0905 29.4611 38.2475 25.3832 44.1161C23.6009 46.6893 21.967 49.4134 20.7609 52.3123C19.8098 54.6023 18.9917 57.0956 18.8346 59.5989C18.6774 62.1022 19.098 64.4601 19.6 66.871C20.2938 70.2181 20.7121 73.4555 20.7769 76.853C20.7931 77.6021 20.7902 76.1245 20.7748 77.0412C20.7665 77.3305 20.7572 77.6275 20.7489 77.9168C20.7267 78.4787 20.6897 79.0303 20.6359 79.5869C20.5427 80.4825 20.4099 81.3714 20.2152 82.2419C19.8655 83.8719 19.3455 85.4493 18.9337 87.0609C17.714 91.8431 17.1429 96.8377 17.828 101.802C18.5132 106.766 19.7868 111.681 21.3039 116.472C21.798 118.017 22.3057 119.581 23.0548 121.036C24.4651 123.766 26.2423 126.299 28.0036 128.829C28.8707 130.076 29.7367 131.331 30.5589 132.61C30.9046 133.14 31.5103 133.832 31.6842 134.435C31.6566 134.344 31.265 133.681 31.6182 134.33C31.6888 134.46 31.7595 134.59 31.8301 134.719C32.0169 135.058 32.1869 135.401 32.3558 135.751C32.6377 136.334 32.8937 136.927 33.1239 137.532C33.2293 137.817 33.3247 138.116 33.4211 138.407C33.5452 138.79 33.3254 138.745 33.3509 138.16C33.3451 138.316 33.4344 138.543 33.4692 138.698C33.8274 140.291 34.2508 141.88 34.7507 143.442C36.2699 148.217 38.8288 152.722 42.2666 156.487C45.9902 160.577 50.3497 163.933 54.6937 167.342C57.4739 169.519 60.0565 171.953 63.0164 173.885C66.1842 175.947 69.5637 177.479 73.1282 178.729C79.1017 180.827 85.2044 182.696 91.3344 184.255C102.79 187.174 115.087 188.821 126.417 185.495C129.23 184.668 131.887 183.462 134.401 182.01C136.914 180.559 139.153 178.59 141.501 176.82C142.088 176.377 142.68 175.959 143.301 175.562C143.611 175.371 143.928 175.181 144.243 175.007C143.533 175.405 144.518 174.888 144.768 174.781C145.119 174.637 145.477 174.501 145.84 174.39C145.924 174.365 146.219 174.226 146.312 174.25C145.994 174.157 145.767 174.338 146.228 174.275C146.565 174.23 146.897 174.169 147.24 174.14C147.379 174.132 147.518 174.117 147.664 174.11C147.753 174.11 148.62 174.147 147.942 174.087C147.264 174.027 148.302 174.116 148.461 174.135C148.755 174.17 149.049 174.204 149.341 174.253C149.949 174.349 150.554 174.467 151.161 174.578C152.562 174.839 153.985 175.002 155.398 174.944C158.576 174.807 161.897 173.069 163.731 170.583C165.448 168.25 166.173 165.442 166.635 162.606C166.827 161.413 166.97 160.219 167.161 159.026C167.252 158.436 167.349 157.856 167.472 157.271C167.542 156.946 167.618 156.629 167.688 156.303C167.714 156.181 167.845 155.763 167.668 156.331C167.47 156.996 167.708 156.219 167.736 156.138C167.905 155.624 168.105 155.116 168.351 154.631C168.396 154.537 168.476 154.433 168.514 154.329C168.636 153.981 168.304 154.678 168.277 154.697C168.502 154.531 168.691 154.108 168.882 153.897C168.958 153.815 169.034 153.734 169.11 153.652C169.467 153.241 169.072 153.921 168.878 153.865C168.934 153.874 169.308 153.505 169.337 153.471C169.714 153.15 170.084 152.812 170.446 152.481C174.272 148.981 177.885 145.273 181.526 141.601C183.388 139.725 185.183 137.932 186.494 135.609C187.805 133.286 188.195 130.562 188.039 127.872C187.903 125.618 187.286 123.392 186.83 121.169C186.564 119.843 186.33 118.515 186.195 117.172C186.118 116.452 186.065 115.736 186.045 115.017C186.031 114.716 186.068 113.819 186.024 114.59C186.046 114.145 186.059 113.708 186.105 113.268C186.18 112.502 186.319 111.74 186.488 110.991C186.534 110.779 186.597 110.562 186.643 110.35C186.653 110.281 186.816 109.75 186.679 110.206C186.537 110.701 186.737 110.028 186.777 109.909C186.864 109.641 186.949 109.38 187.034 109.119C187.541 107.634 188.123 106.185 188.668 104.722C189.984 101.213 190.994 97.6917 190.875 93.8764C190.776 90.7796 189.743 87.7758 188.012 85.1483C186.733 83.2104 185.003 81.6047 183.526 79.814C183.119 79.3205 182.729 78.8144 182.365 78.297C182.17 78.0202 181.983 77.7448 181.797 77.4541C181.718 77.3306 181.639 77.1994 181.559 77.0759C181.298 76.6936 181.877 77.6877 181.52 77.0141C181.162 76.3405 180.808 75.6362 180.512 74.9259C180.379 74.6048 180.254 74.2851 180.14 73.9513C180.094 73.8178 180.055 73.6933 180.009 73.5598C179.735 72.7511 180.083 74.1225 180.04 73.683C179.998 73.1731 179.87 72.6484 179.805 72.1345C179.704 71.3002 179.719 72.9213 179.784 72.2803C179.811 72.0334 179.815 71.7748 179.841 71.5278C179.944 70.6259 180.171 69.7531 180.376 68.8685C180.971 66.2353 181.081 63.496 180.652 60.7911C180.17 57.7235 178.902 54.9547 177.283 52.2756C174.53 47.7147 170.571 43.9784 167.731 39.4656C167.645 39.3254 167.478 38.9042 167.336 38.825C167.628 38.9847 167.708 39.509 167.48 39.0617C167.404 38.9151 167.327 38.7763 167.25 38.6297C166.902 37.9421 166.578 37.2585 166.153 36.6049C165.496 35.5898 164.563 34.6929 163.629 33.9216C161.393 32.0727 158.68 30.685 156.016 29.5806C152.839 28.2715 149.482 27.2695 146.111 26.658C145.355 26.5218 144.601 26.4253 143.843 26.3044C143.495 26.2455 143.148 26.1866 142.806 26.0969C142.75 26.0876 142.405 25.9582 142.369 25.9836C142.872 26.1397 142.973 26.1725 142.679 26.0755C142.587 26.0441 142.486 26.0113 142.394 25.9799C141.041 25.491 139.655 24.8315 138.46 24.0236C139.138 24.4845 138.454 24.0069 138.173 23.8256C137.87 23.6249 137.567 23.4241 137.264 23.2234C136.614 22.7909 135.965 22.3508 135.314 21.9183C133.858 20.9561 132.384 20.0066 130.841 19.2025C127.634 17.5346 124.112 16.7875 120.545 16.9364C113.705 17.221 107.587 20.8183 101.868 23.9883C91.4129 29.7723 80.4824 36.7013 75.5566 47.926C70.2349 60.0735 73.936 73.3674 77.5152 85.745C77.9447 87.2322 78.3743 88.7194 78.796 90.2053C78.8974 90.5761 79.0068 90.9482 79.1083 91.319C78.8766 90.494 79.1775 91.5744 79.2305 91.7719C79.4256 92.5122 79.6196 93.2601 79.8057 94.0067C80.5479 97.0084 81.1664 100.028 81.5532 103.088C81.8095 105.119 83.9285 106.885 86.0296 106.59C88.1306 106.294 89.7211 104.513 89.4447 102.337C88.6517 96.0111 86.8384 89.8183 85.0592 83.6705C84.6286 82.191 84.199 80.7038 83.7852 79.2193C83.6838 78.8485 83.5823 78.4777 83.4808 78.1069C83.6906 78.8575 83.4335 77.926 83.3654 77.663C83.1531 76.8727 82.9487 76.0837 82.7601 75.2974C82.0434 72.4021 81.4435 69.4796 81.09 66.5281C80.9197 65.0928 80.8079 63.6438 80.776 62.2005C80.7714 62.0033 80.7531 61.7881 80.7653 61.5859C80.7621 61.6089 80.7509 62.322 80.7671 61.8612C80.7771 61.5014 80.7861 61.1494 80.7961 60.7897C80.8306 60.0255 80.8887 59.2654 80.9784 58.5106C81.1391 57.0764 81.4465 55.6907 81.7639 54.291C81.8668 53.8449 81.6932 54.5069 81.6889 54.5376C81.7327 54.3407 81.8101 54.1339 81.8697 53.9397C81.9679 53.6421 82.0662 53.3445 82.1724 53.0482C82.4245 52.3446 82.6992 51.6526 83.0044 50.9737C83.2852 50.3535 83.5897 49.7374 83.9157 49.1405C84.0792 48.8383 84.2496 48.5451 84.4199 48.2518C84.4633 48.1728 84.7172 47.7444 84.4543 48.1791C84.1915 48.6138 84.5257 48.0734 84.5781 47.988C85.3405 46.8131 86.1933 45.685 87.1027 44.6136C88.0122 43.5423 88.945 42.5927 89.9283 41.6282C89.9842 41.5749 90.3479 41.228 89.9943 41.5608C89.6217 41.914 90.0861 41.4821 90.179 41.3958C90.4375 41.1647 90.6961 40.9335 90.9625 40.7038C91.4944 40.2519 92.0341 39.8014 92.5795 39.3675C97.0619 35.799 102.056 32.8989 107.09 30.1232C107.72 29.7745 108.342 29.4322 108.971 29.0911C109.303 28.9118 109.643 28.7338 109.976 28.5467C110.029 28.5164 110.516 28.2691 110.115 28.4761C109.715 28.6831 110.333 28.3637 110.403 28.3284C111.821 27.6027 113.274 26.9144 114.763 26.3186C115.422 26.0533 116.095 25.8061 116.773 25.5832C117.137 25.4643 117.499 25.353 117.861 25.2494C118.122 25.1758 119.263 24.9295 118.433 25.0872C119.164 24.9441 119.901 24.8177 120.655 24.7414C120.974 24.7092 121.291 24.6923 121.609 24.6755C121.82 24.6643 122.03 24.6684 122.249 24.6585C122.728 24.6454 122.449 24.6139 122.139 24.6397C122.833 24.5847 123.693 24.7857 124.375 24.9329C124.517 24.9571 125.271 25.0536 125.336 25.1667C125.278 25.0626 124.605 24.909 125.18 25.1246C125.372 25.1964 125.565 25.2606 125.756 25.3402C126.422 25.6025 127.075 25.9018 127.706 26.2369C128.022 26.4006 128.336 26.5796 128.651 26.7586C128.785 26.8364 128.92 26.9143 129.054 26.9921C129.719 27.3799 128.678 26.7396 129.091 27.0141C131.719 28.7251 134.275 30.5969 137.062 32.0364C138.583 32.821 140.213 33.4119 141.879 33.7969C143.35 34.1408 144.867 34.2647 146.348 34.5869C147.062 34.7394 147.764 34.9137 148.473 35.1046C148.823 35.1956 149.266 35.2629 149.599 35.4216C149.569 35.4085 148.911 35.2026 149.367 35.3507C149.63 35.4346 149.893 35.5185 150.154 35.6101C151.566 36.0854 152.952 36.6271 154.302 37.2492C154.932 37.5368 155.551 37.8462 156.16 38.1695C156.408 38.3058 156.655 38.4421 156.895 38.577C156.962 38.6121 157.296 38.7708 157.365 38.8533C157.269 38.7271 156.684 38.4077 157.148 38.73C157.612 39.0523 158.092 39.3696 158.542 39.7289C158.746 39.8892 158.949 40.0571 159.141 40.2391C159.221 40.3075 159.299 40.3837 159.377 40.4598C159.873 40.8975 158.895 39.8672 159.158 40.2341C159.367 40.5289 159.613 40.9084 159.867 41.1715C159.853 41.1535 159.401 40.2282 159.583 40.7149C159.625 40.824 159.682 40.9358 159.74 41.04C159.885 41.3317 160.031 41.6158 160.184 41.9012C160.871 43.1649 161.629 44.3857 162.473 45.5661C163.985 47.6849 165.687 49.663 167.307 51.7058C168.117 52.7234 168.918 53.755 169.664 54.8246C170.035 55.351 170.388 55.8824 170.724 56.4266C170.869 56.6556 170.988 56.9036 171.143 57.1262C170.534 56.2843 171.146 57.1583 171.286 57.4256C171.572 57.9771 171.833 58.5398 172.059 59.1126C172.173 59.399 172.278 59.684 172.383 59.9767C172.422 60.1012 172.461 60.2257 172.508 60.3515C172.711 60.9203 172.532 60.175 172.451 60.1219C172.737 60.3276 172.785 61.7736 172.823 62.0786C172.868 62.4477 172.913 62.8168 172.943 63.1832C172.954 63.3344 172.966 63.4779 172.969 63.6277C172.973 63.7699 173.06 64.5938 172.989 63.9454C172.928 63.3457 172.971 64.3038 172.958 64.4586C172.94 64.6992 172.923 64.9321 172.898 65.1714C172.838 65.7113 172.747 66.2458 172.64 66.7777C172.462 67.6509 172.227 68.5147 172.072 69.3919C171.054 74.9234 173.955 80.5622 177.583 84.8159C179.067 86.5529 180.592 88.1789 181.897 90.0503C182.133 90.3812 181.683 89.6761 181.683 89.6761C181.687 89.7632 181.881 90.0477 181.906 90.0991C182.013 90.3137 182.119 90.536 182.209 90.7633C182.324 91.0343 182.422 91.318 182.52 91.594C182.538 91.6441 182.668 91.9255 182.638 91.9675C182.507 91.4582 182.474 91.3504 182.546 91.6378C182.566 91.7276 182.594 91.8187 182.614 91.9084C182.758 92.5459 182.846 93.1893 182.909 93.8364C182.926 94.0593 182.936 94.2732 182.953 94.4961C182.96 94.5679 182.962 95.1262 182.966 94.6396C182.967 94.1134 182.949 94.8175 182.939 94.9416C182.925 95.1592 182.911 95.3768 182.888 95.593C182.806 96.3568 182.676 97.1049 182.5 97.8449C182.455 98.0495 182.142 99.1278 182.407 98.277C182.275 98.7024 182.144 99.1201 182.004 99.5365C181.506 101.016 180.923 102.464 180.371 103.926C179.21 107.022 178.136 110.249 178.1 113.614C178.071 116.642 178.409 119.591 179.04 122.581C179.486 124.7 180.006 126.807 180.131 128.966C180.187 129.895 180.189 128.213 180.137 128.872C180.118 129.121 180.108 129.363 180.082 129.61C180.055 129.857 180.013 130.101 179.97 130.345C179.955 130.452 179.925 130.557 179.903 130.656C179.828 131.075 179.57 131.071 179.988 130.395C179.738 130.793 179.645 131.343 179.431 131.77C179.385 131.872 179.082 132.536 179.027 132.526C179.003 132.522 179.475 131.864 179.207 132.219C179.076 132.401 178.953 132.592 178.823 132.767C177.51 134.532 175.805 136.034 174.253 137.593C172.476 139.382 170.706 141.179 168.907 142.948C168.044 143.799 167.183 144.643 166.307 145.477C166.102 145.67 165.906 145.856 165.701 146.05C165.617 146.13 165.534 146.21 165.451 146.282C165.088 146.621 166.044 145.738 165.683 146.062C165.323 146.386 164.988 146.698 164.63 147.007C163.674 147.835 162.69 148.634 161.984 149.693C161.227 150.829 160.646 151.98 160.252 153.288C159.484 155.829 159.178 158.417 158.762 161.034C158.673 161.616 158.574 162.204 158.453 162.781C158.397 163.062 158.326 163.341 158.261 163.628C158.057 164.505 158.469 163.066 158.255 163.674C158.078 164.186 157.901 164.698 157.663 165.185C157.584 165.344 157.156 166.096 157.492 165.541C157.829 164.985 157.278 165.803 157.173 165.918C157.105 166.001 157.021 166.081 156.953 166.164C156.67 166.509 156.748 166.066 157.2 165.954C157.016 166.002 156.728 166.322 156.576 166.43C156.398 166.549 156.221 166.66 156.042 166.779C155.962 166.836 155.513 167.043 155.962 166.836C156.411 166.63 155.964 166.821 155.886 166.855C155.673 166.937 155.469 167.012 155.255 167.094C154.422 167.392 155.808 167.07 155.153 167.131C154.875 167.155 154.596 167.186 154.318 167.21C154.236 167.219 154.031 167.184 153.961 167.22C153.961 167.22 154.856 167.293 154.443 167.239C154.134 167.202 153.82 167.188 153.504 167.142C150.801 166.778 148.17 166.072 145.439 166.48C141.973 167.008 138.976 168.676 136.288 170.741C134.007 172.491 131.847 174.356 129.321 175.782C129.199 175.847 129.076 175.921 128.953 175.986C128.576 176.197 128.653 175.943 129.102 175.909C128.881 175.927 128.554 176.186 128.355 176.278C127.732 176.573 127.104 176.851 126.461 177.111C125.271 177.593 124.051 177.999 122.807 178.345C122.496 178.434 122.186 178.515 121.869 178.587C121.693 178.628 121.503 178.658 121.334 178.716C121.342 178.717 122.091 178.554 121.652 178.636C120.971 178.764 120.289 178.908 119.603 179.019C118.306 179.224 117.001 179.371 115.689 179.455C114.377 179.539 113.022 179.584 111.683 179.569C111.344 179.566 111.007 179.556 110.668 179.553C109.694 179.53 111.164 179.583 110.427 179.544C109.745 179.507 109.064 179.47 108.378 179.408C102.731 178.953 97.14 177.815 91.638 176.386C90.2115 176.018 88.7972 175.621 87.3839 175.216C86.7556 175.031 86.1263 174.854 85.4912 174.659C85.1505 174.554 84.8167 174.458 84.476 174.353C84.3756 174.321 83.8804 174.166 84.414 174.335C85.0254 174.525 84.1895 174.265 84.0654 174.229C81.093 173.308 78.1137 172.378 75.1943 171.309C73.5423 170.706 71.9067 170.043 70.3278 169.265C69.6174 168.916 68.9271 168.54 68.2468 168.149C68.127 168.082 67.6013 167.741 68.2016 168.126C68.0457 168.029 67.8986 167.925 67.7426 167.828C67.3356 167.563 66.9387 167.283 66.5428 166.996C63.8146 165.024 61.323 162.747 58.6641 160.685C56.529 159.034 54.396 157.368 52.3582 155.6C51.4581 154.818 50.5759 154.024 49.716 153.187C49.5098 152.987 49.3047 152.779 49.0985 152.579C48.4538 151.935 49.5123 153.027 49.0498 152.524C48.6711 152.114 48.2845 151.702 47.9238 151.28C47.1729 150.414 46.4679 149.508 45.8077 148.571C45.5112 148.152 45.2247 147.718 44.9539 147.287C44.8094 147.05 44.666 146.806 44.5215 146.569C44.2963 146.217 44.7277 146.942 44.7298 146.927C44.7098 146.782 44.51 146.536 44.4405 146.398C43.2883 144.246 42.4123 141.968 41.7364 139.646C41.4589 138.687 41.8361 140.087 41.6683 139.383C41.5862 139.047 41.5041 138.711 41.422 138.375C41.2101 137.467 40.9971 136.566 40.7267 135.672C40.3495 134.445 39.8127 133.261 39.2053 132.121C37.7419 129.366 35.9812 126.773 34.1926 124.207C33.346 122.987 32.4983 121.774 31.6864 120.536C31.3476 120.015 31.0177 119.488 30.6967 118.954C30.3224 118.341 31.0238 119.56 30.5931 118.771C30.4256 118.468 30.2671 118.158 30.1165 117.85C29.4456 116.471 28.9824 114.994 28.5317 113.542C28.3753 113.044 28.2269 112.548 28.0784 112.051C28.0024 111.787 27.9264 111.522 27.8504 111.258C27.7697 110.969 27.5886 109.956 27.7952 111.076C27.5772 109.923 27.1903 108.765 26.9228 107.62C26.3878 105.329 25.9203 103.018 25.6159 100.696C25.4775 99.6667 25.3796 98.6365 25.347 97.6016C25.3356 97.2226 25.4902 96.5809 25.3417 97.8129C25.3653 97.644 25.3496 97.4685 25.3575 97.297C25.3987 96.5418 25.4884 95.787 25.5781 95.0323C25.841 92.6962 26.2459 90.3842 26.8381 88.1197C27.2523 86.5478 27.7512 85.0061 28.0865 83.4209C28.5506 81.2053 28.6249 78.9472 28.6204 76.6757C28.6172 73.4145 28.3039 70.2341 27.6245 67.0152C27.2817 65.3699 26.9221 63.7295 26.7435 62.0649C26.6991 61.6331 26.6783 61.2053 26.6496 60.7761C26.6109 60.1881 26.6015 61.868 26.6493 61.4125C26.6665 61.2897 26.66 61.1629 26.6615 61.0374C26.7171 60.0647 26.8932 59.0967 27.1302 58.1548C27.1643 58.0271 27.1984 57.8993 27.2335 57.7638C27.3971 57.1158 26.9348 58.7424 27.0926 58.2506C27.1787 57.9823 27.2568 57.7128 27.3519 57.4382C27.5441 56.8737 27.7521 56.3118 27.9827 55.7617C28.487 54.5273 29.0748 53.3306 29.7146 52.1663C29.867 51.8858 30.0283 51.5989 30.1965 51.321C30.2823 51.1705 30.3769 51.0138 30.4705 50.8646C30.5552 50.7219 30.983 50.0323 30.5663 50.7002C30.1496 51.368 30.5441 50.7435 30.6366 50.6021C30.7291 50.4607 30.8338 50.2899 30.9353 50.1421C31.1516 49.8095 31.3757 49.4783 31.6077 49.1484C33.4292 46.5268 35.5095 44.0749 37.8029 41.832C38.1016 41.5449 38.4466 41.2734 38.717 40.9579C38.4175 41.3078 38.0959 41.5282 38.5951 41.0786C38.7797 40.9135 38.9555 40.7548 39.1402 40.5897C39.786 40.0158 40.4523 39.4689 41.1254 38.931C42.5334 37.8185 43.9958 36.7782 45.5274 35.8203C46.2888 35.3445 47.0637 34.8868 47.8512 34.4547C48.0173 34.365 48.1991 34.278 48.3662 34.1807C47.3549 34.8262 47.9825 34.3827 48.2608 34.2414C48.6961 34.0167 49.1372 33.8087 49.5783 33.6007C51.2552 32.8168 52.9822 32.1356 54.7495 31.5713C55.6797 31.2735 56.6282 31.018 57.5825 30.7793C58.4109 30.5742 56.8505 30.9301 57.4824 30.8016C57.6825 30.757 57.8826 30.7124 58.0895 30.6768C58.5966 30.5743 59.1026 30.4795 59.6143 30.4013C61.5982 30.0781 63.6178 29.9023 65.6396 29.884C66.1169 29.8786 66.5842 29.8872 67.0593 29.8972C67.9386 29.905 66.2823 29.8517 66.9873 29.8928C67.2835 29.9116 67.5808 29.9228 67.8759 29.9493C68.9313 30.0263 69.9891 30.143 71.0417 30.2981C72.0941 30.4532 73.2112 30.6664 74.2845 30.9035C74.8324 31.028 75.3872 31.1614 75.9319 31.3089C76.2127 31.3801 76.4845 31.4577 76.7642 31.5366C76.8804 31.572 77.0045 31.6088 77.1218 31.6366C77.6575 31.7904 76.965 31.6021 76.8126 31.537C77.9121 31.9907 79.0826 32.2837 80.2 32.7248C81.3174 33.1659 82.4305 33.6377 83.5213 34.1528C84.6122 34.668 85.797 35.262 86.8986 35.8732C87.4986 36.2029 88.0895 36.5389 88.6705 36.889C88.7902 36.9565 89.4056 37.2338 89.4379 37.3492C89.4332 37.3249 88.6138 36.8322 89.3181 37.2818C89.4888 37.3893 89.6595 37.4969 89.8302 37.6044C91.6027 38.7303 94.0696 38.9368 95.419 37.1466C96.5598 35.6352 96.6331 32.8662 94.7429 31.6575L94.7877 31.6259Z" fill="#EC761F"/>
<path d="M96.2118 27.0993C87.9464 33.2101 79.7497 40.0052 75.5693 49.6334C70.9409 60.2972 72.3643 71.9962 74.4557 83.1866C75.6094 89.3616 76.883 95.5404 77.2605 101.81C77.386 103.866 79.6765 105.602 81.687 105.297C83.9181 104.964 85.2526 103.186 85.1161 100.986C84.4655 90.2051 81.1046 79.742 80.4126 68.9701C80.3332 67.7535 80.2931 66.5433 80.2943 65.3239C80.2944 66.3138 80.3034 65.2066 80.3092 65.0571C80.3174 64.7259 80.3334 64.3959 80.3494 64.0659C80.3894 63.2964 80.4529 62.5307 80.54 61.7688C80.6756 60.5635 80.8672 59.3594 81.1126 58.172C81.2488 57.5132 81.4152 56.8672 81.5895 56.2226C81.3736 57.0426 81.5704 56.2986 81.6322 56.0949C81.749 55.7339 81.867 55.3651 81.9917 55.0053C82.4162 53.7997 82.9158 52.63 83.4758 51.486C83.7048 51.0166 83.9483 50.5574 84.1985 50.1073C84.3499 49.839 84.5092 49.572 84.6607 49.3037C84.8839 48.9284 84.8727 48.9503 84.6102 49.3747C84.7157 49.2018 84.8289 49.0302 84.9422 48.8587C86.2658 46.8257 87.7953 44.9213 89.4501 43.1483C89.8593 42.7083 90.283 42.2785 90.7068 41.8488C90.922 41.6384 91.1373 41.4281 91.3525 41.2177C91.4937 41.0745 91.6417 40.9402 91.7897 40.806C91.4276 41.1429 91.4074 41.1713 91.7235 40.8744C92.692 40.0109 93.6593 39.1552 94.6625 38.329C96.7058 36.6431 98.815 35.0551 100.947 33.4787C102.592 32.2663 103.112 29.6904 101.744 28.0101C100.376 26.3298 97.9568 25.8082 96.2029 27.1058L96.2118 27.0993Z" fill="#9F490D"/>
<path d="M156.039 75.6949C151.274 70.5727 141.746 71.1318 138.042 76.7491C136.237 79.4909 135.754 82.9916 133.691 85.5484C133.037 86.3565 132.215 87.0891 131.913 88.0907C131.163 90.5638 133.99 92.8663 136.609 93.421C141.645 94.4878 146.632 92.2703 151.01 89.8472C151.799 89.4075 152.625 88.9271 153.028 88.1312C153.75 86.7218 152.891 85.0126 152.655 83.4169C152.192 80.2664 154.665 77.0879 157.865 76.7276L156.034 75.6782L156.039 75.6949Z" fill="#9F490D"/>
<path d="M159.211 73.4595C155.346 69.4014 149.666 67.4553 144.194 68.5772C141.533 69.1233 138.992 70.1376 136.992 71.9588C134.631 74.1115 133.399 76.7936 132.246 79.7171C131.971 80.409 131.69 81.0919 131.362 81.7591C131.225 82.0423 131.066 82.3139 130.913 82.5944C130.937 82.5434 131.286 82.0684 131.02 82.4083C130.862 82.6171 130.718 82.8362 130.552 83.0437C129.378 84.5023 128.172 85.8454 127.883 87.7919C127.324 91.4919 130.024 94.7001 133.277 96.3286C136.212 97.8011 139.9 97.8772 142.994 97.2395C146.496 96.514 149.601 95.1082 152.702 93.4424C154.467 92.4927 156.154 91.3414 156.858 89.3787C157.299 88.1337 157.396 86.8066 157.145 85.4834C156.993 84.6718 156.716 83.8785 156.605 83.0582C156.59 82.9378 156.594 82.7893 156.562 82.6738C156.453 82.3017 156.438 83.5563 156.564 82.8313C156.589 82.6548 156.789 81.746 156.609 82.3361C156.43 82.9263 156.569 82.4549 156.615 82.3528C156.698 82.1627 156.783 81.9648 156.866 81.7747C156.869 81.7517 157.027 81.4328 157.042 81.4431C157.081 81.4498 156.516 82.1396 156.93 81.6599C157.008 81.5709 157.459 80.8854 157.602 80.9018C157.689 80.9166 156.94 81.363 157.356 81.1586C157.53 81.0703 157.714 80.9129 157.876 80.7912C158.065 80.6505 158.259 80.707 157.878 80.7759C157.381 80.8643 157.851 80.7949 158.012 80.7436C158.173 80.6923 158.348 80.6513 158.495 80.582C158.917 80.3943 157.559 80.7453 158.383 80.6336C160.054 80.4067 161.635 79.1585 161.797 77.4261C161.964 75.6003 161.028 74.1529 159.42 73.2357L157.588 72.1863C155.757 71.1368 153.068 72.2282 152.361 74.0411C151.542 76.1412 152.493 78.1098 154.453 79.228L156.284 80.2775L157.322 72.8795C154.052 73.3302 151.461 75.1611 149.848 77.9121C149.253 78.9269 148.856 80.0852 148.692 81.2594C148.471 82.8326 148.783 84.2369 149.134 85.7657C149.211 86.0851 149.246 86.4054 149.315 86.7235C149.468 87.4724 149.412 86.6064 149.4 86.4079L149.476 86.2087C149.289 86.617 149.309 86.589 149.551 86.135C150.087 85.4796 149.608 86.0739 149.368 86.2296C148.842 86.5804 148.278 86.8617 147.719 87.1597C148.506 86.7354 147.528 87.2531 147.424 87.3061C147.025 87.5054 146.626 87.697 146.228 87.8887C145.122 88.4003 143.992 88.8605 142.825 89.2283C142.513 89.3245 142.194 89.4118 141.874 89.5067C140.846 89.8115 142.647 89.4023 141.59 89.5686C140.839 89.6847 140.096 89.802 139.324 89.836C139.162 89.8399 138.057 89.8803 139.084 89.8739C138.761 89.8741 138.421 89.8242 138.103 89.7859C137.785 89.7477 137.444 89.6504 137.117 89.6186C136.249 89.5263 137.943 90.0024 137.131 89.6366C136.963 89.5611 136.794 89.5009 136.627 89.4254L136.385 89.3058C136.002 89.0994 136.061 89.1408 136.56 89.4454C136.407 89.443 136.024 89.0637 135.907 88.9732C135.769 88.8634 135.64 88.7472 135.512 88.6233C135.92 89.054 135.984 89.1121 135.714 88.7913C135.214 88.1012 135.995 89.6166 135.716 88.8386C135.437 88.0607 135.854 89.7577 135.728 88.9271C135.602 88.0965 135.621 89.8597 135.761 89.0349L135.647 89.5026C135.847 89.1123 135.82 89.1313 135.583 89.5547C136.496 88.3425 137.452 87.2869 138.212 85.9546C139.476 83.7413 140.103 81.2236 141.344 78.9986C140.934 79.7305 141.32 79.0573 141.42 78.9172C141.56 78.7288 141.707 78.5417 141.861 78.3636C141.938 78.2745 142.329 77.9637 142.337 77.8473L141.949 78.1978C142.069 78.0924 142.18 77.9934 142.306 77.897C142.67 77.6052 143.056 77.3328 143.454 77.0861L143.657 76.9634C144.016 76.7651 143.929 76.8054 143.396 77.0921C143.555 77.1112 143.88 76.8678 144.043 76.8011C144.558 76.5822 145.088 76.4286 145.628 76.2687C146.454 76.0239 144.72 76.4054 145.568 76.2901C145.89 76.2425 146.205 76.186 146.524 76.1538C147.065 76.0963 147.699 76.1881 148.222 76.0883C147.309 76.2633 147.675 76.0663 148.13 76.1043C148.369 76.1291 148.616 76.1552 148.861 76.1968C149.105 76.2383 149.342 76.2784 149.577 76.3263C149.735 76.3531 149.891 76.3952 150.054 76.4387C150.482 76.5584 150.367 76.5153 149.73 76.3287C150.22 76.5846 150.799 76.7144 151.306 76.9576C151.525 77.0655 151.735 77.1797 151.953 77.2953C152.326 77.5157 152.229 77.4599 151.685 77.132C151.819 77.2175 151.951 77.3106 152.082 77.4115C152.28 77.5551 152.469 77.705 152.657 77.8626C152.86 78.0305 153.666 78.8509 152.828 77.9701C153.587 78.7747 154.32 79.3704 155.464 79.5646C156.434 79.7293 157.644 79.5104 158.413 78.9182C159.909 77.7578 160.716 75.1134 159.174 73.4925L159.211 73.4595Z" fill="#9F490D"/>
<path d="M111.551 62.7395C111.659 67.3694 116.912 71.3372 121.468 70.2303C123.688 69.6905 125.574 68.1937 127.846 67.8585C128.57 67.7541 129.343 67.7598 129.964 67.411C131.505 66.5369 131.099 64.1504 129.987 62.7093C127.845 59.9424 124.2 58.8078 120.777 58.0474C120.159 57.9114 119.5 57.784 118.923 57.9915C117.888 58.3641 117.54 59.5737 116.924 60.4635C115.703 62.214 112.923 62.6667 111.076 61.414L111.551 62.7395Z" fill="#9F490D"/>
<path d="M107.607 63.1041C107.785 67.3522 110.928 71.1623 114.735 73.0546C116.658 74.008 118.942 74.458 121.05 74.2591C123.289 74.0509 125.126 73.0297 127.116 72.1834C127.433 72.049 128.151 71.6455 128.508 71.6903C127.921 71.6221 128.038 71.7597 128.381 71.7316C128.691 71.7058 129.011 71.666 129.323 71.6249C131.029 71.3654 132.507 70.7772 133.632 69.4862C135.364 67.4831 135.269 64.3152 134.079 61.9888C131.758 57.4322 126.616 55.4546 121.909 54.3426C120.309 53.9691 118.701 53.8141 117.179 54.4339C115.53 55.095 114.621 56.454 113.795 57.9132L113.666 58.1422C113.496 58.4348 113.495 58.4425 113.664 58.1576C113.84 57.8816 113.832 57.8803 113.642 58.1459C113.365 58.4517 113.437 58.4012 113.849 57.9928C113.82 57.9645 113.485 58.3466 113.446 58.2773C113.974 58.0219 114.044 57.979 113.665 58.1499L113.428 58.235C112.712 58.5682 114.243 58.2321 113.446 58.2224L113.193 58.2422C112.757 58.2466 112.852 58.255 113.496 58.2623C113.52 58.3213 113.02 58.1502 113 58.1782C113.616 58.3846 113.717 58.4173 113.303 58.2609C112.918 58.0702 112.991 58.1295 113.52 58.4388C112.046 57.5067 110.12 57.0938 108.663 58.2264C107.205 59.359 106.782 61.0513 107.397 62.7627L107.872 64.0898C108.567 66.0344 111.199 67.1629 113.068 66.3745C115.107 65.5209 115.954 63.4536 115.213 61.3758L114.738 60.0487L108.615 64.3726C110.571 65.6059 112.709 66.29 115.001 65.8714C117.55 65.41 119.42 64.0415 120.712 61.9009C120.784 61.7878 121.126 61.0148 121.224 61.0079C121.224 61.0079 120.632 61.6678 121.183 61.1264C121.512 60.7979 120.767 61.4478 120.671 61.502C120.409 61.6457 120.08 61.6369 119.839 61.7449C119.453 61.9069 119.817 61.7806 120.092 61.835C120.539 61.9265 120.984 62.0333 121.427 62.1477C121.801 62.2425 122.252 62.3033 122.608 62.4657C121.594 61.9956 122.953 62.5947 123.183 62.6807C123.566 62.8241 123.94 62.9738 124.305 63.1375C124.616 63.2765 125.288 63.4847 125.509 63.7495C125.135 63.3098 125.082 63.4576 125.383 63.6732C125.58 63.8165 125.787 63.9534 125.982 64.112C126.135 64.232 126.286 64.3596 126.438 64.4872C126.545 64.5838 126.964 65.0468 126.611 64.6341C126.257 64.2214 126.966 65.1491 127.056 65.2507C127.384 65.6198 126.78 64.5766 126.916 65.0465C127.155 65.871 126.952 64.9037 126.935 64.9087C126.961 64.8973 127.017 65.4714 127.035 65.5214C127.221 65.9763 127.09 64.7233 127.025 65.1904C126.954 65.6958 127.331 64.3878 127.129 64.8475C126.953 65.241 127.469 64.3799 127.571 64.2874C127.82 64.0631 128.094 64.0076 128.38 63.8679C128.804 63.6577 128.298 63.8775 128.117 63.9017C127.657 63.9571 127.206 64.0138 126.749 64.1088C124.741 64.5129 123.093 65.4486 121.224 66.1821C121.037 66.2523 120.857 66.3238 120.663 66.3849C120.469 66.4461 120.017 66.7379 120.474 66.4704C120.861 66.2382 120.588 66.4585 120.351 66.481C120.195 66.5015 120.031 66.5208 119.876 66.5337C119.721 66.5466 119.554 66.5338 119.398 66.5544C118.89 66.6094 120.252 66.6757 119.743 66.5659C119.383 66.4891 118.921 66.3873 118.553 66.3641C118.044 66.3169 119.356 66.6806 118.886 66.4675C118.704 66.3819 118.502 66.3242 118.32 66.2461C118.168 66.1811 118.024 66.1098 117.873 66.0371C117.761 65.9788 117.655 65.9295 117.551 65.8648C117.281 65.7172 117.4 65.7921 117.905 66.0974C117.738 65.8496 117.157 65.5706 116.91 65.372C116.788 65.2651 116.667 65.1504 116.545 65.0435C116.013 64.5847 116.927 65.5395 116.665 65.1658C116.464 64.873 116.214 64.5875 115.995 64.3073C115.592 63.792 116.126 64.4629 116.119 64.5715C116.12 64.4539 115.847 64.0392 115.798 63.929C115.738 63.7855 115.687 63.6279 115.619 63.4831C115.293 62.7613 115.75 64.3285 115.625 63.5546C115.559 63.1594 115.501 62.7731 115.485 62.3705C115.399 60.3334 112.997 58.601 111.015 58.8763C108.736 59.1954 107.508 60.9391 107.605 63.1194L107.607 63.1041Z" fill="#9F490D"/>
</svg>
