<svg width="296" height="296" viewBox="0 0 296 296" fill="none" xmlns="http://www.w3.org/2000/svg">
<path d="M184.734 78.877C164.986 25.9275 108.716 41.641 99.9431 55.0504C97.5533 58.6973 96.2218 63.0212 93.8515 66.6753C85.5102 79.5435 84.2976 75.6207 74.1048 86.9756C69.5244 92.0742 63.467 107.775 62.6275 112.02C61.1837 119.308 62.5928 130.946 59.534 137.635C53.1336 151.646 55.2531 160.923 59.4604 176.122C60.6485 180.418 61.3706 184.847 62.9534 189.027C64.9351 194.265 68.1906 198.893 71.4135 203.46C84.6568 222.231 101.301 242.952 123.501 243.47C127.958 243.57 132.502 242.819 136.808 244.128C144.602 246.484 144.388 253.608 152.44 253.657C160.103 253.694 164.845 241.444 172.48 241.068C177.668 240.809 189.78 238.852 194.901 238.151C207.519 236.422 205.414 227.559 213.26 217.424C218.321 210.879 227.608 208.762 232.117 201.794C237.244 193.856 232.867 189.15 234.653 179.71C236.509 169.879 241.123 172.378 245.684 163.617C250.257 154.857 246.455 142.464 248.353 133.674C249.379 128.948 243.588 118.233 236.281 111.102C230.691 105.647 230.567 96.4135 225.796 90.1888C220.7 83.5545 211.794 81.9007 203.752 80.745C188.866 78.5943 172.594 76.7244 160.09 84.8055C142.875 95.9341 140.386 120.407 130.03 138.42" fill="#E7B023"/>
<path d="M189.155 77.8119C184.668 65.8528 177.769 55.1124 167.514 47.5311C159.428 41.5588 149.732 38.3686 140.007 37.4984C131.519 36.7368 122.765 37.7818 114.756 40.4352C111.249 41.6027 107.776 43.0179 104.583 44.9012C102.062 46.3902 99.5232 48.1654 97.6012 50.4183C95.6792 52.6713 94.4058 55.1961 93.1718 57.8288C91.4556 61.4815 89.557 64.8356 87.2111 68.0902C86.6956 68.8092 87.7398 67.4116 87.0758 68.2664C86.863 68.5338 86.6438 68.8077 86.431 69.0751C86.0118 69.5901 85.5861 70.0848 85.141 70.5724C84.4183 71.3522 83.6632 72.0977 82.8625 72.7819C81.3774 74.0735 79.7686 75.1949 78.238 76.4252C73.6977 80.0777 69.6197 84.3902 66.7497 89.5641C63.8796 94.7379 61.6004 100.282 59.6387 105.882C59.0105 107.691 58.3824 109.528 58.059 111.433C57.4567 115.01 57.3405 118.662 57.2112 122.3C57.1465 124.092 57.0753 125.891 56.9458 127.681C56.8967 128.427 56.9784 129.509 56.7154 130.202C56.7538 130.096 56.8542 129.192 56.7278 130.056C56.7025 130.228 56.6772 130.401 56.6519 130.574C56.5888 131.026 56.5062 131.47 56.4172 131.921C56.2709 132.67 56.0923 133.412 55.8812 134.147C55.7788 134.491 55.657 134.841 55.5417 135.184C55.3878 135.633 55.2122 135.435 55.6507 134.9C55.5347 135.044 55.458 135.322 55.3809 135.493C54.5906 137.251 53.8652 139.051 53.2306 140.881C51.2818 146.468 50.5072 152.535 51.0861 158.527C51.7057 165.027 53.445 171.286 55.1326 177.583C56.216 181.609 56.9306 185.738 58.357 189.66C59.888 193.852 61.9941 197.693 64.4755 201.398C68.6307 207.612 73.0704 213.701 77.7553 219.517C86.5069 230.39 96.9534 240.658 110.01 245.544C113.253 246.757 116.618 247.499 120.02 247.91C123.422 248.32 126.932 248.046 130.403 248.038C131.271 248.036 132.127 248.061 132.995 248.125C133.422 248.164 133.857 248.21 134.278 248.268C133.325 248.141 134.621 248.352 134.933 248.427C135.367 248.539 135.801 248.665 136.223 248.817C136.32 248.853 136.696 248.931 136.768 249.02C136.533 248.706 136.19 248.716 136.671 248.983C137.021 249.18 137.378 249.357 137.722 249.574C137.858 249.664 138.001 249.748 138.144 249.846C138.228 249.908 139.021 250.558 138.423 250.02C137.825 249.483 138.742 250.303 138.878 250.433C139.132 250.674 139.385 250.915 139.626 251.168C140.133 251.69 140.621 252.23 141.115 252.765C142.253 254.004 143.481 255.166 144.858 256.112C147.955 258.235 152.324 258.946 155.818 257.898C159.092 256.911 161.765 254.772 164.212 252.421C165.238 251.43 166.219 250.404 167.245 249.413C167.749 248.92 168.252 248.441 168.782 247.976C169.079 247.717 169.376 247.472 169.673 247.214C169.782 247.117 170.202 246.816 169.634 247.226C168.975 247.714 169.75 247.15 169.834 247.092C170.357 246.727 170.907 246.389 171.482 246.105C171.592 246.048 171.741 246.006 171.851 245.935C172.213 245.692 171.405 246.116 171.366 246.115C171.696 246.118 172.174 245.851 172.505 245.787C172.634 245.764 172.763 245.741 172.893 245.718C173.521 245.583 172.667 245.945 172.524 245.755C172.569 245.803 173.184 245.72 173.236 245.708C173.819 245.671 174.408 245.615 174.984 245.558C181.078 244.964 187.117 244.022 193.158 243.133C196.246 242.681 199.211 242.258 202.095 240.993C204.979 239.728 207.277 237.432 209.036 234.781C210.504 232.555 211.499 230.016 212.643 227.594C213.331 226.153 214.051 224.733 214.875 223.369C215.313 222.635 215.77 221.921 216.26 221.228C216.46 220.933 217.131 220.112 216.544 220.809C216.879 220.405 217.201 220.001 217.556 219.617C218.169 218.948 218.841 218.327 219.532 217.739C219.725 217.571 219.938 217.411 220.132 217.243C220.19 217.184 220.72 216.799 220.268 217.133C219.783 217.5 220.449 217.005 220.571 216.922C220.843 216.729 221.108 216.544 221.373 216.358C222.904 215.314 224.481 214.359 226.032 213.362C229.761 210.981 233.21 208.371 235.8 204.683C237.901 201.688 239.054 198.12 239.28 194.411C239.445 191.675 238.949 188.933 238.823 186.195C238.788 185.44 238.778 184.686 238.802 183.94C238.813 183.54 238.831 183.147 238.862 182.741C238.874 182.568 238.893 182.388 238.905 182.215C238.929 181.669 238.772 183.019 238.912 182.129C239.051 181.239 239.216 180.324 239.439 179.443C239.542 179.046 239.65 178.655 239.778 178.259C239.83 178.1 239.881 177.955 239.932 177.796C240.246 176.838 239.604 178.38 239.874 177.935C240.196 177.424 240.447 176.837 240.749 176.305C241.245 175.446 240.111 176.988 240.627 176.429C240.827 176.214 241.014 175.973 241.214 175.758C241.949 174.979 242.782 174.316 243.603 173.625C246.031 171.56 248.075 169.051 249.586 166.193C251.304 162.953 252.069 159.44 252.437 155.763C253.069 149.505 251.977 143.171 252.492 136.896C252.51 136.704 252.651 136.187 252.573 136.012C252.736 136.37 252.44 136.922 252.542 136.338C252.573 136.145 252.598 135.959 252.63 135.767C252.789 134.871 252.967 133.995 253.028 133.077C253.127 131.652 252.882 130.145 252.546 128.755C251.744 125.424 250.165 122.191 248.431 119.26C246.358 115.773 243.898 112.449 241.147 109.483C240.529 108.818 239.886 108.193 239.255 107.542C238.969 107.24 238.683 106.938 238.423 106.611C238.377 106.563 238.143 106.196 238.091 106.195C238.455 106.698 238.527 106.801 238.319 106.501C238.254 106.406 238.182 106.304 238.117 106.209C237.185 104.788 236.344 103.184 235.788 101.574C236.102 102.49 235.794 101.554 235.657 101.183C235.513 100.779 235.369 100.375 235.225 99.9705C234.917 99.1014 234.616 98.2259 234.308 97.3567C233.615 95.4162 232.895 93.475 232.007 91.6223C230.16 87.7749 227.363 84.5741 223.889 82.1877C217.227 77.6098 208.9 76.6727 201.253 75.6149C187.281 73.6703 172.048 72.4702 159.443 79.5814C145.81 87.2838 139.887 102.462 134.498 116.688C133.85 118.396 133.202 120.105 132.547 121.808C132.381 122.23 132.22 122.659 132.053 123.081C132.419 122.137 131.938 123.371 131.848 123.595C131.508 124.432 131.161 125.276 130.808 126.113C129.382 129.474 127.827 132.764 126.024 135.928C124.827 138.028 125.577 141.197 127.771 142.407C129.965 143.616 132.729 143.061 134.009 140.81C137.742 134.274 140.417 127.14 143.093 120.073C143.734 118.371 144.382 116.662 145.043 114.967C145.21 114.545 145.377 114.122 145.544 113.7C145.21 114.558 145.627 113.496 145.749 113.199C146.109 112.302 146.475 111.413 146.854 110.536C148.228 107.294 149.732 104.109 151.489 101.071C152.346 99.5945 153.267 98.1468 154.259 96.7611C154.394 96.5716 154.53 96.3553 154.684 96.173C154.665 96.1924 154.149 96.858 154.491 96.4342C154.755 96.1016 155.013 95.7755 155.278 95.4429C155.852 94.7456 156.445 94.0688 157.064 93.4195C158.232 92.1788 159.504 91.0879 160.796 89.9908C161.209 89.6424 160.576 90.1446 160.55 90.1706C160.731 90.0157 160.951 89.8752 161.145 89.734C161.448 89.5225 161.752 89.3111 162.062 89.1065C162.799 88.6205 163.549 88.1617 164.318 87.7367C165.022 87.3499 165.747 86.9836 166.477 86.6509C166.846 86.4814 167.215 86.3251 167.583 86.1689C167.68 86.1249 168.223 85.9003 167.667 86.1246C167.111 86.3488 167.81 86.0753 167.92 86.0317C169.472 85.4623 171.077 85.001 172.695 84.6335C174.313 84.266 175.866 84.0301 177.478 83.8158C177.569 83.8051 178.158 83.7351 177.589 83.799C176.986 83.8685 177.731 83.7897 177.88 83.7739C178.288 83.7388 178.696 83.7037 179.11 83.6755C179.933 83.6255 180.762 83.5824 181.584 83.5591C188.346 83.3646 195.118 84.164 201.838 85.1088C202.681 85.2261 203.51 85.3431 204.346 85.4669C204.787 85.5328 205.234 85.6055 205.681 85.6649C205.752 85.6736 206.388 85.785 205.863 85.6968C205.338 85.6085 206.148 85.7449 206.239 85.7608C208.092 86.0803 209.953 86.46 211.781 86.9522C212.591 87.1686 213.402 87.4118 214.2 87.6812C214.628 87.8268 215.049 87.9788 215.464 88.1373C215.763 88.2525 217.015 88.8284 216.12 88.3894C216.911 88.7721 217.696 89.1746 218.462 89.6365C218.787 89.8325 219.099 90.0414 219.41 90.2504C219.618 90.3897 219.813 90.5419 220.027 90.6881C220.488 91.0147 220.248 90.7877 219.936 90.5921C220.631 91.0321 221.301 91.8314 221.841 92.4537C221.958 92.5771 222.602 93.2023 222.583 93.3552C222.602 93.2156 222.075 92.5937 222.465 93.2051C222.596 93.4089 222.733 93.6062 222.856 93.8165C223.299 94.536 223.704 95.2811 224.063 96.045C224.246 96.4237 224.415 96.8153 224.585 97.207C224.657 97.3758 224.729 97.5445 224.801 97.7133C225.154 98.5504 224.624 97.2081 224.82 97.7606C226.09 101.238 227.178 104.817 228.79 108.151C229.671 109.97 230.791 111.683 232.093 113.227C233.238 114.593 234.583 115.785 235.754 117.139C236.319 117.789 236.859 118.451 237.393 119.133C237.66 119.468 238.03 119.845 238.233 120.231C238.213 120.197 237.738 119.537 238.063 119.999C238.252 120.265 238.441 120.53 238.623 120.802C239.62 122.251 240.545 123.745 241.38 125.289C241.771 126.007 242.136 126.738 242.482 127.475C242.619 127.779 242.757 128.083 242.887 128.38C242.926 128.461 243.129 128.847 243.135 128.974C243.135 128.787 242.808 128.071 243.018 128.704C243.227 129.337 243.457 129.977 243.627 130.635C243.706 130.931 243.778 131.233 243.831 131.541C243.858 131.662 243.878 131.79 243.898 131.917C244.056 132.682 243.862 131.015 243.851 131.549C243.839 131.975 243.803 132.508 243.856 132.936C243.856 132.909 244.085 131.715 243.912 132.304C243.874 132.436 243.848 132.582 243.829 132.722C243.759 133.1 243.696 133.472 243.639 133.85C243.393 135.531 243.243 137.22 243.204 138.933C243.131 142.006 243.337 145.08 243.419 148.156C243.464 149.692 243.489 151.233 243.436 152.772C243.413 153.532 243.37 154.284 243.302 155.036C243.277 155.355 243.213 155.674 243.202 155.994C243.223 154.767 243.182 156.026 243.125 156.378C243.005 157.102 242.852 157.818 242.66 158.519C242.564 158.87 242.462 159.214 242.353 159.564C242.302 159.709 242.25 159.855 242.206 160.007C241.994 160.688 242.354 159.858 242.315 159.75C242.439 160.147 241.46 161.546 241.28 161.861C241.061 162.242 240.842 162.622 240.61 162.989C240.514 163.14 240.423 163.284 240.32 163.428C240.224 163.565 239.721 164.405 240.114 163.742C240.481 163.132 239.843 164.068 239.721 164.205C239.534 164.419 239.353 164.628 239.159 164.836C238.721 165.303 238.256 165.744 237.778 166.17C236.991 166.868 236.157 167.518 235.389 168.236C230.509 172.74 229.253 180.12 229.666 186.708C229.837 189.401 230.125 192.017 230.032 194.708C230.02 195.188 230.095 194.203 230.095 194.203C230.037 194.288 230.019 194.695 230.006 194.761C229.955 195.04 229.898 195.325 229.821 195.603C229.738 195.94 229.629 196.278 229.527 196.608C229.508 196.668 229.431 197.026 229.373 197.044C229.611 196.47 229.655 196.345 229.521 196.668C229.476 196.767 229.437 196.872 229.392 196.971C229.077 197.676 228.704 198.345 228.305 199.001C228.163 199.224 228.021 199.433 227.88 199.656C227.835 199.728 227.441 200.257 227.79 199.8C228.163 199.304 227.648 199.956 227.551 200.067C227.383 200.262 227.215 200.457 227.041 200.646C226.422 201.308 225.77 201.923 225.079 202.497C224.892 202.659 223.832 203.456 224.685 202.84C224.259 203.148 223.839 203.449 223.412 203.744C221.894 204.788 220.317 205.743 218.759 206.733C215.47 208.834 212.169 211.121 209.751 214.273C207.579 217.113 205.808 220.137 204.285 223.408C203.205 225.725 202.203 228.084 200.793 230.212C200.187 231.128 201.38 229.541 200.864 230.127C200.67 230.348 200.49 230.57 200.29 230.784C200.089 230.999 199.876 231.199 199.663 231.4C199.573 231.491 199.47 231.568 199.379 231.645C199.011 231.988 198.771 231.802 199.644 231.46C199.127 231.658 198.649 232.112 198.145 232.364C198.028 232.427 197.272 232.839 197.227 232.791C197.207 232.771 198.119 232.483 197.615 232.629C197.362 232.709 197.11 232.801 196.864 232.874C194.373 233.611 191.699 233.821 189.129 234.195C186.183 234.625 183.237 235.068 180.285 235.464C178.867 235.657 177.456 235.844 176.038 236.01C175.708 236.048 175.39 236.085 175.06 236.123C174.924 236.139 174.788 236.155 174.659 236.165C174.076 236.228 175.604 236.071 175.034 236.122C174.465 236.172 173.927 236.231 173.37 236.268C171.881 236.372 170.385 236.43 168.968 236.93C167.448 237.467 166.084 238.142 164.785 239.098C162.259 240.954 160.136 243.181 157.89 245.358C157.393 245.844 156.883 246.33 156.36 246.789C156.108 247.015 155.844 247.228 155.579 247.454C154.765 248.137 156.173 247.07 155.54 247.492C155.01 247.851 154.48 248.209 153.911 248.5C153.724 248.595 152.786 249.001 153.498 248.715C154.209 248.428 153.109 248.811 152.928 248.845C152.805 248.875 152.669 248.891 152.546 248.921C152.035 249.047 152.422 248.684 152.928 248.899C152.721 248.813 152.222 248.912 152.002 248.906C151.749 248.892 151.503 248.872 151.251 248.858C151.134 248.854 150.564 248.732 151.134 248.854C151.704 248.977 151.147 248.842 151.05 248.819C150.79 248.745 150.544 248.671 150.284 248.597C149.286 248.288 150.823 248.966 150.161 248.56C149.882 248.385 149.597 248.217 149.317 248.042C149.233 247.993 149.064 247.815 148.973 247.799C148.973 247.799 149.766 248.502 149.415 248.159C149.148 247.904 148.863 247.669 148.596 247.402C146.301 245.142 144.316 242.611 141.448 241.063C137.8 239.105 133.789 238.557 129.786 238.603C126.392 238.64 123.031 238.872 119.635 238.428C119.473 238.404 119.305 238.385 119.143 238.361C118.637 238.293 118.889 238.107 119.337 238.393C119.117 238.253 118.624 238.266 118.372 238.212C117.574 238.049 116.783 237.867 115.992 237.658C114.527 237.269 113.087 236.788 111.667 236.234C111.31 236.097 110.96 235.954 110.609 235.797C110.415 235.712 110.214 235.606 110.013 235.54C110.019 235.547 110.843 235.924 110.369 235.69C109.636 235.329 108.89 234.981 108.163 234.601C106.794 233.875 105.457 233.09 104.158 232.239C102.859 231.388 101.548 230.471 100.294 229.508C99.9757 229.266 99.6639 229.017 99.3456 228.774C98.4427 228.062 99.794 229.154 99.1248 228.594C98.5075 228.077 97.8903 227.559 97.2859 227.015C92.2757 222.584 87.801 217.548 83.6169 212.3C82.5303 210.942 81.4759 209.565 80.428 208.181C79.9659 207.561 79.4972 206.948 79.035 206.314C78.7877 205.974 78.5404 205.647 78.293 205.306C78.2214 205.204 77.8633 204.707 78.2474 205.245C78.6901 205.858 78.0846 205.02 77.9935 204.897C75.8387 201.922 73.6838 198.933 71.684 195.854C70.5506 194.115 69.4754 192.33 68.5359 190.476C68.1118 189.644 67.7266 188.799 67.3607 187.948C67.2954 187.8 67.0403 187.106 67.3346 187.894C67.2562 187.692 67.1906 187.49 67.1122 187.288C66.9159 186.749 66.739 186.203 66.5686 185.652C65.3889 181.856 64.6491 177.94 63.5988 174.109C62.752 171.037 61.9182 167.952 61.2461 164.838C60.9496 163.463 60.6791 162.088 60.4602 160.688C60.4072 160.353 60.3606 160.011 60.3075 159.676C60.1547 158.611 60.3814 160.392 60.3007 159.589C60.2336 158.934 60.1599 158.272 60.1187 157.617C60.0231 156.267 59.9987 154.912 60.0391 153.559C60.0563 152.953 60.093 152.341 60.1426 151.742C60.1738 151.416 60.2115 151.083 60.2427 150.757C60.2797 150.265 60.1732 151.256 60.1861 151.243C60.2698 151.092 60.2555 150.718 60.2872 150.539C60.7238 147.69 61.5104 144.918 62.5176 142.245C62.9346 141.143 62.2991 142.733 62.6396 141.949C62.8001 141.573 62.9607 141.197 63.1213 140.822C63.5645 139.814 64.0013 138.813 64.3797 137.776C64.8927 136.35 65.2241 134.853 65.4583 133.345C66.028 129.707 66.2024 126.01 66.3314 122.319C66.3963 120.567 66.4547 118.821 66.5649 117.077C66.6141 116.344 66.6762 115.613 66.7512 114.881C66.8324 114.036 66.6311 115.685 66.7827 114.635C66.8396 114.23 66.9093 113.825 66.9856 113.427C67.3289 111.65 67.938 109.926 68.5407 108.236C68.7459 107.655 68.9575 107.081 69.1692 106.506C69.2846 106.203 69.4001 105.899 69.5156 105.596C69.644 105.266 70.1906 104.181 69.5926 105.385C70.2034 104.142 70.6583 102.774 71.2172 101.503C72.335 98.96 73.5306 96.4463 74.8886 94.0372C75.4871 92.9671 76.1245 91.9248 76.8269 90.9244C77.0847 90.5582 77.6853 90.0618 76.6722 91.1201C76.8142 90.9774 76.9236 90.8004 77.0526 90.644C77.6266 89.9601 78.2461 89.3107 78.8655 88.6614C80.769 86.6414 82.7895 84.7447 84.9531 83.0255C86.458 81.8344 88.0215 80.7318 89.4614 79.4722C91.4694 77.7085 93.1395 75.6285 94.7445 73.4799C97.0522 70.3976 99.0095 67.1719 100.648 63.6504C101.49 61.8536 102.313 60.0495 103.324 58.3509C103.588 57.9116 103.871 57.4928 104.148 57.0672C104.528 56.4844 103.329 58.0643 103.697 57.6679C103.8 57.5641 103.884 57.4398 103.974 57.3223C104.716 56.443 105.568 55.6536 106.459 54.932C106.582 54.8354 106.705 54.7389 106.834 54.6358C107.447 54.1397 105.858 55.3484 106.356 54.9957C106.627 54.8034 106.892 54.6041 107.176 54.4121C107.758 54.0152 108.352 53.6319 108.96 53.2757C110.311 52.4671 111.714 51.7534 113.143 51.1071C113.486 50.9501 113.841 50.7934 114.197 50.6502C114.385 50.5688 114.585 50.4878 114.779 50.4133C114.96 50.3384 115.853 49.9903 114.986 50.3258C114.119 50.6613 114.934 50.351 115.122 50.283C115.31 50.2149 115.529 50.1278 115.73 50.0602C116.17 49.8993 116.616 49.7452 117.069 49.598C120.647 48.4126 124.349 47.5708 128.104 47.0773C128.589 47.0178 129.108 47.0058 129.586 46.8994C129.056 47.0177 128.596 46.998 129.386 46.927C129.677 46.902 129.956 46.8766 130.247 46.8515C131.264 46.767 132.28 46.7226 133.297 46.6915C135.415 46.6383 137.533 46.6919 139.659 46.8724C140.715 46.9624 141.771 47.0792 142.821 47.2291C143.041 47.262 143.275 47.3087 143.501 47.3351C142.089 47.2283 142.996 47.2541 143.359 47.3177C143.929 47.414 144.493 47.5301 145.057 47.6461C147.196 48.0938 149.31 48.6741 151.379 49.3932C152.468 49.771 153.545 50.2018 154.616 50.6524C155.543 51.0456 153.818 50.2762 154.505 50.6026C154.726 50.7022 154.947 50.8019 155.167 50.9148C155.719 51.1773 156.264 51.4462 156.803 51.735C158.905 52.8352 160.937 54.1002 162.86 55.5154C163.314 55.8485 163.749 56.1876 164.191 56.5337C165.016 57.164 163.489 55.9401 164.126 56.4785C164.393 56.7061 164.665 56.9273 164.925 57.1615C165.868 57.9819 166.784 58.8416 167.668 59.7338C168.552 60.626 169.456 61.6187 170.302 62.6032C170.731 63.1089 171.161 63.628 171.571 64.1532C171.785 64.4194 171.987 64.6853 172.196 64.958C172.28 65.0737 172.371 65.1964 172.462 65.3057C172.859 65.8305 172.339 65.1621 172.241 64.9926C172.958 66.2001 173.856 67.3061 174.599 68.5144C175.341 69.7227 176.058 70.9569 176.724 72.2163C177.389 73.4757 178.087 74.8761 178.695 76.234C179.028 76.9704 179.348 77.7065 179.648 78.4487C179.714 78.5972 180.098 79.2951 180.047 79.427C180.06 79.4007 179.635 78.3549 179.982 79.2785C180.067 79.501 180.152 79.7235 180.237 79.946C181.113 82.2652 183.297 84.208 185.839 83.4734C187.988 82.8542 190.019 80.2909 189.09 77.8101L189.155 77.8119Z" fill="#E7B023"/>
<path d="M193.702 74.5445C181.566 74.4597 169.01 75.07 158.24 81.2017C146.313 87.994 139.369 100.052 133.416 112.102C130.13 118.752 126.956 125.49 122.87 131.679C121.532 133.709 122.465 136.972 124.581 138.108C126.923 139.374 129.443 138.641 130.873 136.466C137.897 125.823 142.136 113.56 149.114 102.896C149.901 101.691 150.721 100.519 151.586 99.3684C150.885 100.303 151.678 99.2641 151.789 99.1269C152.031 98.8199 152.28 98.5196 152.529 98.2193C153.112 97.5208 153.715 96.8426 154.337 96.1848C155.319 95.1425 156.353 94.1411 157.426 93.1935C158.021 92.6678 158.636 92.1756 159.258 91.6902C158.473 92.3117 159.186 91.7485 159.388 91.5999C159.754 91.3417 160.127 91.0769 160.5 90.8255C161.755 89.9876 163.056 89.2368 164.395 88.5532C164.944 88.272 165.499 88.0109 166.054 87.763C166.387 87.6169 166.727 87.4776 167.06 87.3315C167.537 87.1352 167.511 87.148 166.962 87.3628C167.184 87.2743 167.413 87.1925 167.641 87.1107C170.332 86.1284 173.126 85.4135 175.945 84.9113C176.643 84.7857 177.348 84.68 178.052 84.5744C178.405 84.5282 178.757 84.482 179.109 84.4358C179.344 84.4006 179.579 84.3787 179.814 84.3567C179.233 84.4184 179.194 84.4309 179.703 84.3745C181.229 84.2451 182.749 84.1222 184.282 84.0527C187.406 83.9081 190.523 83.9027 193.654 83.9241C196.066 83.9448 198.383 81.8804 198.281 79.3243C198.18 76.7682 196.264 74.5614 193.689 74.5442L193.702 74.5445Z" fill="#9F490D"/>
<path d="M215.775 162.822C214.903 154.608 205.508 148.385 198.031 151.067C194.383 152.377 191.447 155.341 187.687 156.295C186.496 156.594 185.201 156.704 184.207 157.436C181.746 159.24 182.784 163.418 184.865 165.797C188.865 170.373 195.147 171.812 200.998 172.625C202.055 172.769 203.175 172.9 204.119 172.434C205.8 171.615 206.2 169.392 207.107 167.717C208.902 164.414 213.49 163.164 216.768 165.091L215.781 162.802L215.775 162.822Z" fill="#9F490D"/>
<path d="M220.358 162.959C219.583 156.388 215.598 150.526 209.635 147.709C206.735 146.339 203.616 145.497 200.437 145.8C196.682 146.16 193.618 147.82 190.457 149.764C189.708 150.223 188.958 150.669 188.176 151.067C187.846 151.237 187.503 151.381 187.16 151.538C187.219 151.506 187.885 151.305 187.393 151.438C187.096 151.523 186.805 151.628 186.5 151.706C184.359 152.252 182.268 152.666 180.616 154.299C177.466 157.398 177.743 162.341 179.662 166.183C181.391 169.654 184.82 172.339 188.194 173.929C192.016 175.725 195.944 176.597 200.053 177.22C202.392 177.574 204.802 177.682 206.857 176.327C208.156 175.464 209.188 174.279 209.889 172.852C210.319 171.977 210.62 171.032 211.097 170.179C211.167 170.054 211.277 169.917 211.328 169.785C211.489 169.356 210.586 170.531 211.219 169.935C211.367 169.786 212.2 169.069 211.612 169.5C211.024 169.93 211.489 169.583 211.606 169.519C211.819 169.399 212.039 169.272 212.252 169.151C212.272 169.132 212.647 168.942 212.653 168.962C212.686 168.997 211.663 169.248 212.394 169.088C212.53 169.059 213.442 168.731 213.566 168.848C213.637 168.924 212.614 168.814 213.152 168.916C213.379 168.956 213.663 168.938 213.903 168.938C214.182 168.939 214.325 169.13 213.916 168.925C213.384 168.656 213.877 168.924 214.065 168.989C214.253 169.055 214.448 169.14 214.636 169.179C215.167 169.301 213.637 168.67 214.493 169.148C216.233 170.118 218.61 170.059 219.99 168.537C221.442 166.931 221.583 164.901 220.714 162.896L219.728 160.607C218.742 158.318 215.429 157.444 213.477 158.655C211.215 160.058 210.719 162.592 211.777 165.036L212.764 167.325L218.985 161.073C215.577 159.182 211.833 159.075 208.36 160.531C207.08 161.068 205.885 161.881 204.897 162.873C203.574 164.202 202.874 165.75 202.122 167.442C201.968 167.798 201.775 168.126 201.614 168.475C201.229 169.291 201.789 168.433 201.918 168.237L202.131 168.103C201.666 168.356 201.705 168.344 202.254 168.086C203.225 167.847 202.351 168.069 202.014 168.046C201.269 168.005 200.537 167.871 199.798 167.756C200.842 167.913 199.552 167.709 199.416 167.686C198.897 167.591 198.385 167.49 197.873 167.388C196.466 167.088 195.073 166.722 193.711 166.243C193.347 166.112 192.984 165.969 192.614 165.832C191.428 165.391 193.419 166.281 192.303 165.689C191.511 165.267 190.726 164.851 189.973 164.336C189.817 164.225 188.746 163.481 189.72 164.202C189.415 163.973 189.128 163.685 188.855 163.424C188.582 163.163 188.329 162.829 188.043 162.567C187.289 161.865 188.551 163.515 188.043 162.594C187.938 162.404 187.821 162.227 187.717 162.038L187.573 161.753C187.358 161.287 187.384 161.368 187.639 162.009C187.496 161.898 187.403 161.268 187.357 161.1C187.305 160.899 187.265 160.698 187.232 160.49C187.312 161.186 187.332 161.286 187.304 160.792C187.32 159.785 186.984 161.77 187.272 160.838C187.56 159.906 186.751 161.803 187.221 160.93C187.69 160.056 186.459 161.735 187.176 161.055L186.737 161.416C187.202 161.189 187.163 161.188 186.639 161.42C188.361 160.922 190.011 160.602 191.673 159.883C194.434 158.687 196.811 156.754 199.559 155.532C198.654 155.933 199.495 155.57 199.689 155.509C199.954 155.43 200.226 155.357 200.498 155.298C200.633 155.269 201.223 155.252 201.313 155.148L200.698 155.204C200.886 155.189 201.061 155.174 201.248 155.173C201.799 155.155 202.356 155.171 202.907 155.22L203.185 155.248C203.665 155.315 203.555 155.292 202.848 155.185C202.985 155.316 203.464 155.316 203.665 155.368C204.307 155.527 204.917 155.758 205.539 155.989C206.493 156.343 204.585 155.475 205.468 155.967C205.805 156.15 206.143 156.319 206.467 156.515C207.019 156.844 207.552 157.38 208.117 157.656C207.13 157.174 207.617 157.248 208.019 157.606C208.227 157.799 208.442 157.999 208.643 158.211C208.845 158.424 209.04 158.629 209.229 158.841C209.359 158.978 209.476 159.128 209.599 159.285C209.918 159.701 209.84 159.579 209.372 158.952C209.652 159.54 210.108 160.073 210.414 160.662C210.545 160.919 210.662 161.176 210.786 161.44C210.982 161.912 210.93 161.791 210.649 161.096C210.714 161.271 210.773 161.453 210.826 161.641C210.911 161.917 210.983 162.192 211.049 162.474C211.121 162.777 211.301 164.122 211.134 162.697C211.281 163.995 211.551 165.076 212.494 166.07C213.293 166.913 214.591 167.564 215.738 167.55C217.972 167.513 220.608 165.587 220.3 162.964L220.358 162.959Z" fill="#9F490D"/>
<path d="M182.95 119.079C179.771 123.528 181.922 130.998 187.009 133.18C189.488 134.243 192.33 134.166 194.713 135.459C195.47 135.873 196.196 136.426 197.03 136.537C199.105 136.803 200.412 134.261 200.383 132.113C200.321 127.982 197.682 124.328 194.988 121.184C194.501 120.618 193.968 120.031 193.276 119.818C192.034 119.436 190.849 120.333 189.637 120.736C187.243 121.524 184.297 119.983 183.44 117.491L182.95 119.079Z" fill="#9F490D"/>
<path d="M178.967 116.632C176.126 120.771 176.395 126.596 178.65 131.08C179.79 133.343 181.628 135.386 183.761 136.692C186.023 138.082 188.481 138.419 190.96 139.029C191.355 139.127 192.319 139.255 192.624 139.55C192.117 139.069 192.131 139.283 192.475 139.499C192.786 139.694 193.116 139.883 193.44 140.066C195.235 141.029 197.048 141.521 199.025 141.098C202.08 140.434 204.234 137.374 204.759 134.334C205.796 128.386 202.34 122.876 198.683 118.49C197.435 117.004 196.027 115.718 194.15 115.225C192.124 114.681 190.303 115.321 188.49 116.114L188.206 116.239C187.838 116.395 187.831 116.401 188.193 116.252C188.554 116.116 188.548 116.109 188.18 116.225C187.702 116.318 187.805 116.321 188.484 116.227C188.477 116.18 187.889 116.303 187.902 116.21C188.581 116.343 188.678 116.352 188.199 116.245L187.914 116.157C187.002 115.965 188.686 116.732 187.94 116.158L187.687 115.998C187.272 115.693 187.357 115.769 187.96 116.232C187.941 116.304 187.589 115.789 187.551 115.801C187.986 116.432 188.058 116.534 187.778 116.093C187.55 115.641 187.576 115.748 187.857 116.415C187.125 114.491 185.599 112.736 183.42 112.773C181.241 112.81 179.643 114.109 179.011 116.161L178.519 117.751C177.798 120.08 179.484 123.01 181.808 123.59C184.338 124.228 186.602 122.876 187.375 120.388L187.867 118.798L179.02 118.544C179.994 121.095 181.528 123.256 183.99 124.485C186.724 125.855 189.459 125.887 192.197 124.78C192.345 124.725 193.216 124.237 193.313 124.3C193.313 124.3 192.286 124.503 193.191 124.383C193.734 124.305 192.57 124.392 192.441 124.375C192.091 124.325 191.786 124.083 191.482 124.014C191.003 123.894 191.437 124.033 191.658 124.279C192.015 124.682 192.359 125.098 192.697 125.52C192.983 125.875 193.366 126.252 193.588 126.658C192.962 125.495 193.822 127.024 193.978 127.268C194.238 127.675 194.486 128.081 194.714 128.494C194.909 128.846 195.397 129.519 195.418 129.925C195.376 129.245 195.221 129.347 195.352 129.764C195.437 130.039 195.535 130.315 195.608 130.603C195.667 130.824 195.719 131.052 195.772 131.28C195.805 131.447 195.873 132.181 195.831 131.541C195.79 130.901 195.802 132.279 195.815 132.439C195.863 133.02 196.032 131.607 195.827 132.147C195.469 133.095 195.963 132.038 195.943 132.03C195.976 132.038 195.622 132.62 195.603 132.68C195.457 133.241 196.221 131.965 195.828 132.36C195.403 132.787 196.686 131.819 196.17 132.11C195.725 132.357 196.822 131.909 196.984 131.894C197.378 131.859 197.676 132 198.045 132.071C198.595 132.173 197.96 132.022 197.773 131.917C197.299 131.643 196.833 131.377 196.334 131.143C194.151 130.102 191.932 129.818 189.647 129.187C189.421 129.12 189.2 129.061 188.974 128.981C188.747 128.901 188.113 128.856 188.734 128.928C189.265 128.983 188.851 128.997 188.611 128.851C188.449 128.76 188.281 128.662 188.125 128.564C187.97 128.466 187.82 128.336 187.658 128.244C187.14 127.937 188.379 128.964 187.976 128.5C187.69 128.172 187.327 127.749 186.996 127.466C186.548 127.061 187.529 128.334 187.236 127.8C187.126 127.59 186.976 127.393 186.859 127.19C186.761 127.02 186.676 126.852 186.585 126.676C186.52 126.541 186.455 126.419 186.403 126.285C186.253 125.954 186.311 126.109 186.573 126.755C186.591 126.403 186.239 125.727 186.147 125.365C186.107 125.178 186.074 124.984 186.035 124.796C185.857 123.986 186.044 125.535 186.061 124.997C186.079 124.578 186.045 124.131 186.037 123.711C186.021 122.939 186.051 123.951 185.967 124.049C186.051 123.938 186.087 123.353 186.119 123.215C186.163 123.036 186.227 122.852 186.265 122.666C186.469 121.754 185.79 123.558 186.22 122.738C186.439 122.318 186.657 121.912 186.927 121.52C188.29 119.536 187.248 116.198 185.181 115.054C182.803 113.741 180.407 114.517 178.954 116.645L178.967 116.632Z" fill="#9F490D"/>
</svg>
