<svg width="240" height="241" viewBox="0 0 240 241" fill="none" xmlns="http://www.w3.org/2000/svg">
<path d="M146.161 62.7192C165.803 54.2124 191.643 66.1188 198.007 86.5998C204.225 106.592 197.033 147.104 184.248 163.593C176.183 173.998 166.175 191.145 154.549 197.331C131.796 209.444 123.068 208.379 101.909 204.539C88.2371 202.055 77.746 192.603 66.968 183.81L58.6855 176.508C44.6856 161.329 38.4469 139.821 40.2659 119.304C42.0912 98.7933 51.5313 79.3784 65.1033 63.9327C76.7376 50.685 92.5694 39.7419 110.233 39.2623C112.992 38.9928 122.798 38.3731 132.505 44.8033C141.961 51.0688 145.284 60.0209 146.16 62.7073L146.161 62.7192Z" fill="#2780C4"/>
<path d="M147.497 66.7328C149.311 65.9571 151.183 65.3338 153.109 64.8811C153.28 64.8408 153.458 64.806 153.629 64.7656L153.889 64.7138C154.328 64.6273 154.238 64.6387 153.611 64.7607C153.862 64.8474 154.654 64.5775 154.927 64.5369C155.896 64.4001 156.872 64.2928 157.852 64.2333C158.831 64.1738 159.723 64.1496 160.66 64.1647C161.104 64.1736 161.555 64.1882 161.993 64.2035C162.654 64.2233 162.22 64.4595 161.848 64.1884C162.006 64.3047 162.578 64.246 162.783 64.2695C164.702 64.4526 166.606 64.7806 168.482 65.2301C169.359 65.4406 170.221 65.682 171.083 65.9473C171.304 66.0178 171.627 66.19 171.855 66.2001C171.188 66.1747 171.192 65.9647 171.58 66.115C172.09 66.3058 172.599 66.4846 173.098 66.6881C174.939 67.4216 176.734 68.2837 178.459 69.2639C179.2 69.6805 179.971 70.383 180.763 70.6766C179.805 70.3271 180.343 70.3964 180.713 70.6436C180.858 70.7487 181.008 70.8475 181.153 70.9526C181.593 71.2616 182.028 71.5889 182.451 71.9169C183.979 73.0949 185.424 74.3799 186.755 75.7678C187.096 76.1247 187.425 76.4824 187.761 76.8457C187.974 77.0785 188.098 77.4246 187.546 76.589C187.692 76.8079 187.897 76.9993 188.066 77.2048C188.691 77.9582 189.288 78.7432 189.844 79.5487C190.353 80.2791 190.833 81.0292 191.285 81.799C191.514 82.1808 191.732 82.5752 191.943 82.964C192.072 83.202 192.195 83.4343 192.319 83.6785C192.718 84.4576 192.253 83.9583 192.311 83.649C192.257 83.9161 192.795 84.7287 192.909 84.9975C193.094 85.4538 193.28 85.9101 193.454 86.3791C193.767 87.2293 194.039 88.0881 194.282 88.9665C194.479 89.6919 194.664 90.418 194.827 91.1575C194.895 91.477 195.096 92.8136 194.901 91.4707C194.968 91.9462 195.071 92.4196 195.149 92.8943C195.757 96.6161 195.997 100.396 196.026 104.159C196.043 106.166 196 108.177 195.897 110.18C195.886 110.474 195.868 110.763 195.846 111.058C195.844 111.124 195.776 112.099 195.826 111.401C195.877 110.702 195.803 111.684 195.801 111.75C195.778 112.045 195.755 112.34 195.739 112.641C195.654 113.737 195.551 114.829 195.437 115.933C194.542 124.476 192.857 132.953 190.321 141.152C190.162 141.665 189.997 142.172 189.832 142.68C189.753 142.937 189.564 143.625 189.864 142.606C189.78 142.881 189.677 143.151 189.587 143.42C189.249 144.406 188.899 145.38 188.53 146.35C187.854 148.129 187.129 149.888 186.33 151.615C185.531 153.342 184.751 154.894 183.858 156.471C183.444 157.198 183.016 157.913 182.577 158.617C182.381 158.929 181.565 160.033 182.446 158.829C182.182 159.193 181.943 159.567 181.672 159.925C179.185 163.349 176.641 166.735 174.185 170.187C171.389 174.116 168.567 178.022 165.505 181.751C164.038 183.53 162.526 185.271 160.919 186.927C160.183 187.685 159.428 188.426 158.659 189.145C158.427 189.356 158.2 189.562 157.968 189.774C157.391 190.301 158.049 189.721 158.133 189.638C157.723 190.065 157.201 190.426 156.733 190.79C155.01 192.142 153.183 193.278 151.247 194.295C150.243 194.817 149.24 195.34 148.23 195.845C147.747 196.084 147.265 196.323 146.777 196.557C145.801 197.035 147.603 196.171 146.637 196.625C146.364 196.755 146.079 196.887 145.805 197.017C142.313 198.632 138.737 200.084 135.042 201.172C134.295 201.391 133.535 201.599 132.774 201.783C132.402 201.872 132.03 201.96 131.663 202.043C131.439 202.092 131.226 202.141 131.007 202.184C130.315 202.328 130.769 202.223 131.191 202.155C129.618 202.401 128.064 202.663 126.471 202.79C124.98 202.916 123.484 202.959 121.984 202.942C121.222 202.935 120.464 202.909 119.706 202.871C119.52 202.864 119.339 202.851 119.159 202.838C118.316 202.794 120.195 202.919 119.351 202.851C118.905 202.818 118.453 202.779 118.001 202.741C114.557 202.428 111.133 201.887 107.725 201.303C105.567 200.93 103.38 200.59 101.244 200.114C100.064 199.85 98.9031 199.525 97.7411 199.176C96.579 198.827 98.5345 199.481 97.4163 199.07C97.1951 198.987 96.9683 198.911 96.7407 198.823C96.0706 198.57 95.4061 198.311 94.7457 198.021C92.3282 196.993 89.9994 195.762 87.7521 194.399C87.2342 194.089 86.7275 193.766 86.2208 193.443C86.0203 193.312 85.8199 193.18 85.6138 193.055C84.594 192.403 86.3551 193.573 85.3569 192.884C84.2584 192.13 83.1648 191.357 82.0935 190.559C76.1713 186.171 70.5596 181.392 65.0379 176.524L62.2262 174.045C61.9972 173.843 61.7626 173.648 61.5392 173.44C61.5074 173.412 61.4756 173.384 61.4438 173.355C61.2132 173.13 60.9923 172.867 60.7785 172.623C60.4613 172.264 60.1481 171.965 60.6561 172.492C58.9985 170.794 57.598 168.715 56.2657 166.764C54.9335 164.813 53.7724 162.911 52.6759 160.898C52.4107 160.416 52.1575 159.934 51.9042 159.452C51.7534 159.161 51.6026 158.871 51.4573 158.574C51.4438 158.551 50.9724 157.572 51.2644 158.19C51.5565 158.807 51.0907 157.823 51.0827 157.793C50.9494 157.495 50.8042 157.199 50.6709 156.901C50.3979 156.3 50.1369 155.698 49.8878 155.096C49.0002 152.974 48.2177 150.809 47.5229 148.61C46.8281 146.41 46.2392 144.18 45.7507 141.925C45.682 141.606 45.6188 141.28 45.5437 140.955C45.3192 139.901 45.6478 141.542 45.527 140.884C45.4165 140.291 45.3116 139.692 45.213 139.098C45.0095 137.906 44.8474 136.705 44.7035 135.509C44.1488 130.854 43.9017 126.044 44.2811 121.369C44.2721 121.507 44.2176 122.236 44.2753 121.465C44.3021 121.14 44.3226 120.809 44.3494 120.483C44.4013 119.899 44.4532 119.314 44.517 118.729C44.6537 117.419 44.827 116.12 45.0242 114.819C45.4088 112.344 45.896 109.881 46.4876 107.453C46.8002 106.175 47.1375 104.907 47.4994 103.651C47.666 103.077 47.8389 102.509 48.0174 101.935C48.0926 101.708 48.1614 101.476 48.2366 101.25C48.3119 101.023 48.3871 100.797 48.4559 100.565C48.3007 101.036 48.2951 101.042 48.4511 100.583C49.2743 98.2134 50.1715 95.8749 51.1666 93.5664C53.2094 88.8384 55.6231 84.2796 58.355 79.9113C58.676 79.4063 58.9969 78.9012 59.3178 78.3961C59.5142 78.0964 59.7105 77.7968 59.9069 77.4971C59.8255 77.6279 59.4144 78.2224 59.8797 77.5407C60.6244 76.4524 61.3818 75.3753 62.1639 74.3087C63.7225 72.1818 65.351 70.1165 67.0615 68.1123C68.5821 66.3234 70.1599 64.585 71.8014 62.9027C72.6109 62.0742 73.434 61.2688 74.2698 60.4747C74.7044 60.0587 75.151 59.6419 75.5984 59.237C75.7626 59.0892 75.9269 58.9413 76.0912 58.7934C76.2555 58.6456 77.3607 57.6613 76.4764 58.4463C79.9117 55.3961 83.7175 52.6951 87.6803 50.3802C88.7085 49.7782 89.7621 49.1986 90.8244 48.6605C91.0157 48.559 91.2133 48.463 91.399 48.3678C91.6254 48.2522 92.3859 47.6844 91.5791 48.279C92.0718 47.9253 92.796 47.7195 93.3498 47.476C95.4263 46.5825 97.5529 45.8119 99.7246 45.1824C100.807 44.8649 101.899 44.5887 102.999 44.3541C103.259 44.3023 103.524 44.2203 103.786 44.1923C102.739 44.3279 103.81 44.1909 103.994 44.1617C104.634 44.0509 105.269 43.9583 105.911 43.8714C107.66 43.6453 109.407 43.5871 111.161 43.4565C112.265 43.3715 113.373 43.3462 114.484 43.3805C114.862 43.3875 115.236 43.4128 115.609 43.4261C116.161 43.4405 114.481 43.3328 115.289 43.4036C115.519 43.4256 115.742 43.442 115.971 43.4641C116.876 43.553 117.765 43.6728 118.663 43.834C119.561 43.9953 120.449 44.1812 121.333 44.4092C121.803 44.5305 122.267 44.6582 122.732 44.7978C123.019 44.8823 123.312 44.9604 123.589 45.0695C122.525 44.6605 123.528 45.0612 123.706 45.1283C126.023 45.9887 128.213 47.1205 130.296 48.4387C130.152 48.3455 129.598 47.9475 130.302 48.4443C130.617 48.665 130.931 48.8857 131.24 49.1247C131.738 49.4961 132.231 49.8858 132.713 50.2881C133.709 51.1208 134.648 52.005 135.543 52.9517C135.768 53.1958 135.994 53.4398 136.226 53.6895C136.407 53.8824 136.808 54.1577 136.123 53.5759C136.498 53.9068 136.813 54.4092 137.115 54.8105C137.77 55.6579 138.385 56.5497 138.966 57.4556C139.474 58.264 139.948 59.0865 140.392 59.9287C140.563 60.2481 141.1 61.4983 140.528 60.1723C140.663 60.4938 140.821 60.8019 140.961 61.1171C141.384 62.0865 141.766 63.0764 142.095 64.0755C142.796 66.1791 145.315 67.5787 147.446 66.7778C149.576 65.977 150.872 63.6862 150.127 61.4415C147.35 53.0497 141.674 45.8951 134.301 41.0616C127.474 36.5847 119.05 34.4827 110.936 35.0176C106.547 35.3022 102.26 35.7665 97.9931 36.9129C93.1608 38.2136 88.5319 40.2453 84.1747 42.6741C75.4993 47.4874 67.8353 54.2954 61.3327 61.8122C47.2577 78.0977 37.3657 98.769 35.9645 120.453C34.6632 140.447 40.2578 161.364 53.4076 176.841C56.5963 180.598 60.4309 183.776 64.1827 186.971C68.2843 190.475 72.5064 193.893 76.8458 197.088C81.1852 200.283 86.1958 203.564 91.4223 205.74C96.181 207.729 101.102 208.713 106.153 209.575C109.707 210.187 113.281 210.749 116.881 211.052C124.062 211.664 131.052 211.174 137.976 209.117C141.788 207.986 145.472 206.461 149.068 204.768C153.426 202.723 157.881 200.684 161.66 197.667C169.521 191.404 175.391 183.093 181.17 174.972C183.61 171.551 186.213 168.24 188.603 164.785C190.833 161.562 192.723 158.163 194.32 154.595C197.946 146.467 200.402 137.758 202.088 129.023C203.774 120.288 204.699 111.198 204.494 102.236C204.304 94.1546 203.075 86.0584 199.311 78.7997C191.483 63.7369 173.522 54.499 156.788 55.8094C152.695 56.13 148.606 57.0618 144.844 58.6751C142.813 59.5418 141.303 61.7558 142.163 64.0115C142.922 65.9976 145.349 67.6425 147.514 66.7138L147.497 66.7328Z" fill="#2780C4"/>
<path d="M136.164 62.6436C124.257 66.9158 114.286 75.7644 108.467 86.9684C106.81 90.1683 105.55 93.5719 104.62 97.0514C104.045 99.1905 105.815 101.697 107.971 102.021C110.37 102.391 112.323 100.984 112.929 98.6927C113.05 98.2478 113.177 97.7965 113.304 97.3571C113.359 97.18 113.835 95.7542 113.486 96.7406C113.795 95.8646 114.116 94.9998 114.474 94.1448C115.138 92.5458 115.899 90.9769 116.748 89.4626C117.199 88.6559 117.675 87.8597 118.17 87.0803C118.257 86.9431 118.827 85.9373 118.306 86.8622C118.532 86.4648 118.837 86.0926 119.101 85.7288C120.158 84.2739 121.297 82.8918 122.512 81.5651C123.1 80.9239 123.707 80.2995 124.328 79.6983C124.66 79.3724 124.994 79.0584 125.339 78.7437C125.492 78.6085 126.586 77.5469 125.786 78.3389C127.004 77.1498 128.522 76.1464 129.935 75.1973C131.348 74.2482 132.872 73.3404 134.41 72.5456C134.578 72.4574 135.933 71.8176 134.984 72.2529C135.404 72.0596 135.823 71.8663 136.255 71.6842C137.106 71.3207 137.972 70.9804 138.845 70.6696C140.925 69.9257 142.357 67.5068 141.526 65.3332C140.695 63.1597 138.396 61.8306 136.175 62.631L136.164 62.6436Z" fill="#134872"/>
<path d="M85.3042 182.372C84.3197 184.015 83.3297 185.664 82.3452 187.306C82.0777 187.802 81.9502 188.331 81.9621 188.882C81.8832 189.42 81.942 189.956 82.1323 190.484C82.2883 191.038 82.5766 191.506 82.9861 191.901C83.3221 192.366 83.7651 192.723 84.3022 192.96C85.2897 193.392 86.4528 193.573 87.4886 193.18L88.4712 192.707C89.1209 192.278 89.6123 191.72 89.9566 191.022C90.941 189.38 91.9311 187.731 92.9155 186.088C93.1831 185.593 93.3105 185.063 93.2987 184.513C93.3776 183.974 93.3187 183.438 93.1285 182.91C92.9725 182.356 92.6842 181.888 92.2747 181.493C91.9386 181.028 91.4957 180.672 90.9586 180.434C89.9711 180.003 88.808 179.822 87.7722 180.214L86.7896 180.688C86.1399 181.117 85.6485 181.674 85.3042 182.372Z" fill="#134872"/>
<path d="M172.578 150.983C172.462 151.421 172.347 151.86 172.213 152.294C172.149 152.508 171.823 153.492 172.146 152.55C171.889 153.303 171.608 154.045 171.308 154.783C170.743 156.142 170.098 157.476 169.372 158.761C168.985 159.456 168.568 160.135 168.138 160.802C167.659 161.551 168.572 160.194 167.907 161.128C167.676 161.454 167.446 161.779 167.202 162.094C166.281 163.319 165.29 164.494 164.235 165.601C163.73 166.135 163.2 166.659 162.663 167.165C162.375 167.441 162.075 167.705 161.786 167.968C161.542 168.181 161.616 168.122 161.996 167.781C161.82 167.93 161.649 168.072 161.473 168.221C160.289 169.192 159.046 170.089 157.751 170.917C157.129 171.314 156.494 171.689 155.846 172.052C155.446 172.274 155.046 172.484 154.646 172.694C154.443 172.796 153.511 173.225 154.414 172.816C152.964 173.474 151.491 174.055 149.969 174.537C147.86 175.21 146.478 177.752 147.288 179.873C148.098 181.994 150.395 183.287 152.639 182.575C166.451 178.193 177.227 166.586 180.881 152.618C181.443 150.48 179.692 147.979 177.529 147.649C175.143 147.278 173.171 148.681 172.571 150.977L172.578 150.983Z" fill="#134872"/>
<path d="M145.091 47.6795C142.926 49.8792 140.945 52.2536 139.154 54.7603C138.517 55.6622 137.988 56.6595 138.106 57.8213C138.223 58.9832 138.682 59.9504 139.542 60.7314C141.035 62.1035 142.67 63.275 144.378 64.3642C145.016 64.7691 145.662 65.2034 146.364 65.4845C147.268 65.8432 148.104 66.0621 149.085 66.0265C150.066 65.9909 151.015 65.6336 151.846 65.1395C152.382 64.8131 152.855 64.3408 153.313 63.9113C153.528 63.7065 153.735 63.484 153.918 63.2511C154.476 62.5278 155.024 61.7272 155.37 60.8729C156.057 59.1826 156.414 57.3805 156.27 55.5429C156.117 53.55 155.438 51.499 154.258 49.8742C153.593 48.9614 152.654 48.2571 151.53 48.0317C150.528 47.8348 149.234 48.0333 148.397 48.6356C147.498 49.2837 146.732 50.2295 146.565 51.3546C146.407 52.4193 146.531 53.5868 147.183 54.4883C147.421 54.8216 147.635 55.1682 147.821 55.5346L147.343 54.5505C147.614 55.1156 147.809 55.7152 147.933 56.3311L147.726 55.2706C147.838 55.8873 147.872 56.5027 147.834 57.1224L147.902 56.0452C147.858 56.6594 147.741 57.254 147.545 57.8354L147.891 56.8012C147.71 57.3278 147.466 57.8222 147.155 58.2907L147.783 57.3473C147.487 57.773 147.152 58.153 146.772 58.4938L147.629 57.7523C147.43 57.9143 147.236 58.058 146.997 58.1744L147.98 57.7011C147.887 57.7427 147.781 57.7731 147.674 57.7916L148.734 57.5893C148.645 57.6007 148.556 57.6121 148.465 57.5996L149.543 57.672C149.398 57.6569 149.283 57.6339 149.148 57.5941L150.184 57.9448C149.24 57.6185 148.347 56.9774 147.519 56.4282L148.466 57.0601C147.286 56.2565 146.174 55.3769 145.122 54.4157L145.51 60.3869C147.301 57.8682 149.282 55.5058 151.448 53.3061C152.185 52.5599 152.562 51.2721 152.496 50.245C152.429 49.218 151.888 47.998 151.059 47.3349C149.186 45.8301 146.745 46.0084 145.086 47.6978L145.091 47.6795Z" fill="#20692E"/>
</svg>
