<svg width="504" height="323" viewBox="0 0 504 323" fill="none" xmlns="http://www.w3.org/2000/svg">
<g clip-path="url(#clip0_323_4819)">
<path d="M297.217 87.079C281.34 111.475 282.51 140.393 289.166 168.601C295.823 196.822 315.196 223.049 342.446 239.047C354.167 245.925 367.107 250.884 380.147 255.332C392.204 259.444 404.721 263.206 417.475 263.181C438.801 263.144 457.764 252.691 475.146 242.187C482.699 237.627 490.45 232.743 494.805 225.591C499.16 218.439 499.073 208.322 492.093 202.666C486.942 198.492 479.464 197.694 472.657 198.118C461.098 198.841 449.9 202.529 440.755 208.646C432.928 213.879 426.471 220.869 417.562 224.532C402.295 230.799 382.959 225.367 370.441 214.664C357.924 203.974 351.155 189.047 346.838 174.221C342.52 159.394 340.268 144.143 334.856 129.578C328.174 111.624 316.689 94.9658 301.646 81.4473L297.229 87.0914L297.217 87.079Z" fill="white"/>
<path d="M291.843 83.9394C279.313 103.351 276.551 126.85 279.4 149.402C280.781 160.329 282.809 171.343 286.592 181.722C290.076 191.266 294.754 200.361 300.602 208.671C313.12 226.451 330.004 240.493 349.576 249.875C360.688 255.195 372.359 259.444 384.08 263.219C395.975 267.044 408.48 270.034 421.059 269.337C433.639 268.639 444.663 265.013 455.625 259.967C465.753 255.32 475.632 249.638 484.902 243.446C489.543 240.343 494.06 236.88 497.531 232.469C501.202 227.809 503.442 222.663 503.927 216.72C504.338 211.736 502.994 206.267 500.02 202.205C496.387 197.259 491.099 194.094 485.126 192.786C479.602 191.589 473.928 191.627 468.341 192.325C462.369 193.072 456.521 194.355 450.897 196.548C445.273 198.741 440.258 201.32 435.505 204.759C433.066 206.516 430.727 208.397 428.375 210.266C427.903 210.64 427.442 211.014 426.969 211.375C426.758 211.55 425.091 212.833 426.21 211.973C425.128 212.796 424.045 213.618 422.926 214.39C420.673 215.96 418.322 217.343 415.846 218.539C415.759 218.589 414.962 218.951 415.634 218.651C416.306 218.352 415.423 218.739 415.249 218.801C414.751 219 414.241 219.175 413.731 219.349C412.486 219.76 411.23 220.097 409.948 220.371C409.425 220.483 408.89 220.583 408.355 220.67C408.069 220.72 407.733 220.795 407.435 220.807C407.609 220.807 408.865 220.657 407.708 220.757C406.464 220.857 405.232 220.956 403.988 220.969C402.818 220.981 401.636 220.944 400.467 220.869C399.919 220.832 399.372 220.782 398.824 220.732C398.538 220.707 398.177 220.695 397.879 220.62C399.359 220.969 398.239 220.67 397.879 220.608C395.44 220.221 393.026 219.636 390.674 218.901C389.455 218.514 388.248 218.091 387.054 217.617C386.83 217.53 386.606 217.43 386.382 217.343C385.548 217.019 387.352 217.792 386.543 217.406C385.896 217.094 385.237 216.807 384.59 216.496C382.388 215.412 380.247 214.191 378.207 212.82C377.746 212.509 377.299 212.197 376.851 211.886C376.602 211.699 376.353 211.512 376.092 211.338C375.096 210.603 376.154 211.45 376.241 211.462C375.893 211.413 375.084 210.515 374.81 210.291C374.275 209.843 373.752 209.369 373.242 208.908C371.214 207.052 369.323 205.046 367.568 202.94C367.183 202.479 366.822 202.018 366.449 201.557C365.876 200.834 367.021 202.354 366.498 201.607C366.299 201.333 366.1 201.059 365.901 200.785C365.105 199.688 364.346 198.579 363.624 197.445C362.218 195.253 360.924 192.985 359.742 190.667C359.17 189.546 358.622 188.412 358.1 187.266C357.826 186.655 357.552 186.045 357.278 185.434C357.179 185.21 357.079 184.973 356.98 184.737C357.577 186.132 356.918 184.562 356.843 184.375C352.525 173.635 350.099 162.285 347.436 151.046C344.637 139.197 341.302 127.585 335.989 116.608C331.099 106.504 324.729 97.1589 317.4 88.674C313.854 84.5748 310.046 80.7124 306.015 77.0742C303.75 75.0309 299.383 74.3207 297.218 77.0742C295.75 78.9556 294.269 80.837 292.801 82.7184C291.743 84.0765 290.984 85.3224 290.984 87.129C290.984 88.6615 291.656 90.4806 292.801 91.5397C295.041 93.5955 299.458 94.2808 301.598 91.5397C303.066 89.6583 304.547 87.7769 306.015 85.8955H297.218C301.237 89.5337 305.057 93.3962 308.603 97.4953C309.462 98.4921 310.32 99.5013 311.141 100.535C311.527 101.009 311.913 101.495 312.286 101.981C312.398 102.118 313.082 103.002 312.609 102.392C312.137 101.781 313.082 103.027 313.082 103.015C314.65 105.108 316.156 107.251 317.587 109.432C320.473 113.83 323.074 118.415 325.351 123.149C325.911 124.308 326.446 125.467 326.956 126.638C327.055 126.875 327.155 127.112 327.267 127.336C327.342 127.51 327.765 128.519 327.454 127.772C327.167 127.074 327.491 127.872 327.528 127.971C327.715 128.445 327.914 128.918 328.101 129.392C329.146 132.058 330.091 134.762 330.95 137.49C337.768 159.195 339.884 182.457 351.941 202.255C357.54 211.45 365.043 219.611 374.325 225.143C383.607 230.675 393.797 233.653 404.212 233.466C409.288 233.379 414.465 232.506 419.193 230.6C424.804 228.333 429.595 225.031 434.348 221.33C435.356 220.545 436.351 219.748 437.359 218.951C437.832 218.577 438.292 218.203 438.765 217.842C438.964 217.68 439.163 217.53 439.362 217.368C439.362 217.368 440.607 216.409 439.947 216.907C439.312 217.381 440.184 216.733 440.333 216.621C440.607 216.421 440.88 216.209 441.154 216.01C441.639 215.661 442.125 215.3 442.61 214.963C443.73 214.179 444.887 213.418 446.056 212.708C448.296 211.35 450.623 210.167 452.999 209.095C454.082 208.609 453.186 209.008 452.962 209.095C453.286 208.958 453.609 208.833 453.945 208.696C454.517 208.472 455.102 208.248 455.675 208.036C457.006 207.55 458.362 207.114 459.718 206.715C462.294 205.968 464.919 205.382 467.57 204.946C468.005 204.871 469.56 204.672 468.316 204.821C469.038 204.734 469.747 204.647 470.469 204.585C471.837 204.46 473.219 204.36 474.587 204.323C475.744 204.298 476.902 204.311 478.059 204.36C478.718 204.398 479.378 204.46 480.037 204.51C480.174 204.522 481.008 204.622 480.186 204.51C479.253 204.385 480.634 204.597 480.821 204.622C482.016 204.834 483.198 205.133 484.355 205.507C484.852 205.669 486.084 206.005 484.877 205.644C485.462 205.818 486.047 206.192 486.569 206.491C487.017 206.74 487.864 207.089 488.162 207.5C488.087 207.401 487.154 206.616 488 207.388C488.162 207.538 488.336 207.675 488.498 207.837C488.871 208.185 489.207 208.559 489.556 208.933C490.377 209.818 489.394 208.671 489.382 208.671C489.593 208.734 489.867 209.369 489.966 209.544C490.228 209.955 490.439 210.391 490.676 210.814C491.285 211.886 490.514 210.441 490.551 210.453C490.613 210.478 490.85 211.251 490.837 211.226C490.987 211.687 491.123 212.148 491.235 212.609C491.285 212.808 491.335 213.007 491.372 213.207C491.41 213.406 491.447 213.618 491.484 213.817C491.559 214.303 491.534 214.091 491.41 213.182C491.397 213.182 491.509 215.848 491.497 216.085C491.484 216.359 491.459 216.645 491.435 216.92C491.397 217.468 491.099 217.642 491.497 216.508C491.323 217.019 491.298 217.63 491.173 218.153C490.949 219.088 490.439 220.034 490.277 220.956C490.464 219.872 490.638 220.147 490.402 220.62C490.277 220.869 490.153 221.118 490.029 221.368C489.755 221.878 489.456 222.389 489.145 222.875C488.797 223.436 488.399 223.959 488.025 224.495C488.71 223.511 487.938 224.595 487.602 224.968C486.731 225.978 485.798 226.925 484.828 227.834C483.857 228.744 482.924 229.504 481.941 230.301C482.862 229.541 481.704 230.476 481.356 230.725C480.796 231.136 480.236 231.535 479.664 231.921C475.259 234.961 470.618 237.665 466.014 240.356C461.411 243.047 456.471 245.776 451.519 248.143C450.299 248.729 449.068 249.302 447.836 249.85C447.587 249.962 447.338 250.074 447.089 250.174C446.927 250.249 445.882 250.697 446.591 250.398C447.301 250.099 446.255 250.535 446.094 250.61C445.683 250.785 445.26 250.947 444.837 251.121C442.324 252.118 439.785 253.015 437.197 253.8C434.609 254.585 431.996 255.257 429.346 255.793C428.015 256.055 426.683 256.279 425.339 256.479C424.381 256.628 426.347 256.379 425.377 256.479C425.103 256.503 424.829 256.541 424.568 256.578C423.747 256.665 422.938 256.74 422.117 256.802C419.28 257.002 416.443 257.027 413.606 256.877C412.138 256.802 410.682 256.665 409.214 256.503C408.828 256.454 408.43 256.416 408.044 256.366C408.156 256.379 408.977 256.516 408.243 256.391C407.372 256.242 406.501 256.117 405.63 255.968C393.934 253.899 382.562 249.85 371.463 245.701C368.775 244.704 366.1 243.658 363.462 242.561C363.114 242.412 362.753 242.275 362.405 242.125C362.641 242.225 363.438 242.561 362.318 242.088C361.708 241.826 361.098 241.552 360.489 241.29C359.182 240.717 357.888 240.119 356.594 239.509C351.48 237.092 346.491 234.413 341.725 231.36C339.647 230.027 337.594 228.632 335.603 227.161C335.143 226.825 334.683 226.476 334.222 226.127C334.061 226.015 333.227 225.367 333.874 225.866C334.484 226.327 333.824 225.828 333.725 225.753C332.704 224.944 331.684 224.121 330.676 223.286C326.894 220.109 323.31 216.695 319.963 213.057C318.283 211.226 316.653 209.357 315.086 207.425C314.737 206.989 314.389 206.553 314.04 206.117C313.916 205.955 313.281 205.145 313.792 205.806C314.264 206.429 313.779 205.781 313.692 205.681C312.933 204.659 312.174 203.638 311.44 202.604C308.665 198.679 306.139 194.58 303.887 190.343C302.755 188.213 301.697 186.033 300.714 183.827C300.49 183.329 300.279 182.83 300.067 182.332C299.769 181.672 300.229 182.743 300.242 182.756C300.154 182.706 299.955 182.045 299.893 181.896C299.433 180.75 298.985 179.603 298.562 178.432C296.907 173.909 295.625 169.287 294.58 164.59C293.983 161.936 293.435 159.27 292.95 156.578C292.714 155.245 292.477 153.912 292.266 152.566C292.166 151.943 292.079 151.32 291.98 150.697C291.93 150.336 291.88 149.987 291.83 149.626C291.681 148.629 292.017 151.133 291.805 149.414C291.146 144.044 290.735 138.649 290.723 133.242C290.723 130.625 290.81 128.009 290.997 125.392C291.096 124.096 291.208 122.801 291.358 121.505C291.395 121.156 291.445 120.82 291.482 120.471C291.494 120.346 291.619 119.486 291.507 120.271C291.382 121.119 291.544 120.022 291.581 119.81C291.644 119.387 291.718 118.951 291.781 118.527C292.627 113.406 293.933 108.36 295.75 103.501C295.999 102.84 296.26 102.205 296.509 101.545C296.596 101.308 296.982 100.448 296.484 101.582C296.583 101.345 296.695 101.096 296.795 100.859C297.33 99.6508 297.902 98.4547 298.5 97.2711C299.719 94.8539 301.075 92.524 302.543 90.2564C304.31 87.5153 303.19 83.2541 300.316 81.7341C297.218 80.1019 293.697 81.0363 291.805 83.9643L291.843 83.9394Z" fill="white"/>
<path d="M44.5798 150.262C48.9596 177.187 45.6249 192.699 56.2509 217.817C58.7643 223.748 62.1985 236.22 78.0877 254.099C97.4733 275.903 105.81 281.099 126.701 290.929L186.438 314.216C156.613 315.786 101.691 300.274 74.9521 289.21C49.5692 278.706 48.9471 272.763 29.6611 253.165C15.153 238.412 13.5728 228.669 9.75292 208.31C5.93304 187.951 2.93437 146.387 13.4857 128.57C19.6697 118.128 34.6381 74.9937 55.7905 71.2559L44.5798 150.274V150.262Z" fill="#ECCA39"/>
<path d="M38.5831 151.919C38.8444 153.514 39.0684 155.108 39.3048 156.703C39.4541 157.787 39.1181 155.208 39.3296 156.952C39.367 157.314 39.4167 157.663 39.4665 158.024C39.5785 158.896 39.678 159.781 39.7776 160.653C40.0886 163.469 40.3499 166.297 40.5863 169.138C41.0218 174.483 41.3578 179.84 41.9053 185.173C43.1246 197.059 45.6629 208.435 50.2542 219.487C52.9045 225.866 55.3059 232.258 58.7774 238.263C64.9365 248.928 73.1362 258.285 81.622 267.132C88.3659 274.171 95.6449 280.713 103.894 285.946C107.615 288.313 111.509 290.406 115.453 292.387C118.713 294.019 121.986 295.714 125.37 297.059C135.013 300.884 144.694 304.585 154.349 308.36C164.005 312.135 174.245 316.322 184.273 320.022C184.448 320.085 184.622 320.159 184.796 320.222L186.451 307.986C180.59 308.285 174.718 307.961 168.894 307.363C167.252 307.201 165.622 307.015 163.992 306.803C163.606 306.753 163.096 306.765 162.735 306.641C163.905 307.052 163.644 306.765 163.134 306.691C162.138 306.554 161.155 306.404 160.16 306.255C156.651 305.719 153.155 305.121 149.671 304.46C135.25 301.719 120.99 298.056 106.943 293.795C100.659 291.889 94.413 289.845 88.2291 287.64C85.5664 286.681 82.9036 285.696 80.2658 284.662C79.0464 284.189 77.8271 283.69 76.6201 283.192C76.421 283.117 74.8035 282.419 76.1846 283.018C75.7243 282.818 75.2639 282.619 74.8035 282.419C73.9325 282.046 73.0615 281.659 72.203 281.261C69.2541 279.915 66.355 278.457 63.5554 276.825C62.3733 276.14 61.2037 275.405 60.0715 274.645C59.6235 274.346 59.1756 274.034 58.7401 273.723C58.4788 273.536 58.23 273.349 57.9687 273.162C57.8069 273.037 57.6327 272.913 57.471 272.788C56.9608 272.402 57.135 272.539 57.9935 273.199C57.3341 272.327 56.0276 271.617 55.194 270.87C54.2857 270.072 53.4022 269.237 52.5437 268.39C50.7022 266.583 48.9353 264.69 47.1934 262.796C42.515 257.687 37.7868 252.654 32.9964 247.645C31.8019 246.387 30.6323 245.116 29.5124 243.783C28.9401 243.11 28.3926 242.437 27.8451 241.752C26.9244 240.593 28.6415 242.861 27.7954 241.677C27.4718 241.241 27.1483 240.805 26.8373 240.356C25.1326 237.927 23.6146 235.36 22.3579 232.669C22.134 232.183 21.4247 230.077 22.0344 231.996C21.8229 231.311 21.487 230.638 21.2381 229.965C20.728 228.57 20.2676 227.162 19.857 225.741C18.9611 222.651 18.2519 219.499 17.6049 216.347C16.8832 212.821 16.2113 209.27 15.5767 205.731C15.3403 204.448 15.1288 203.177 14.9297 201.881C14.8426 201.308 14.7555 200.735 14.6684 200.174C14.5813 199.614 14.2205 196.785 14.4942 198.966C12.8767 185.547 11.931 172.041 12.7274 158.522C12.8145 156.965 12.9389 155.407 13.0758 153.85C13.1504 153.015 13.2375 152.193 13.3371 151.358C13.3868 150.947 13.4366 150.536 13.4864 150.125C13.5237 149.85 13.5486 149.589 13.5859 149.315C13.449 150.299 13.4366 150.448 13.5237 149.763C13.9841 146.711 14.5315 143.671 15.3279 140.68C15.6638 139.422 16.0371 138.163 16.4601 136.93C16.6841 136.282 16.9081 135.647 17.1569 135.024C17.3311 134.588 17.891 133.578 17.0325 135.298C17.1818 135.011 17.2938 134.7 17.4307 134.413C18.227 132.706 19.2224 131.111 20.0809 129.442C24.6598 120.521 28.4548 111.238 33.3074 102.454C34.7508 99.838 36.2563 97.2589 37.8739 94.7545C38.5955 93.6207 39.3545 92.4994 40.126 91.3905C40.5366 90.7924 40.9596 90.2068 41.3951 89.6212C41.6066 89.3346 41.8306 89.0481 42.0421 88.7615C42.7016 87.8769 41.0965 89.9576 42.1541 88.612C43.8463 86.4814 45.6629 84.4381 47.6537 82.5941C48.0519 82.2327 48.4501 81.8714 48.8482 81.5225C49.0846 81.3107 49.3335 81.1114 49.5823 80.912C50.4907 80.1645 49.8312 81.1114 49.3086 81.1114C49.6321 81.1114 50.5031 80.2392 50.8017 80.0399C51.3865 79.6536 51.9713 79.2923 52.581 78.9434C53.0041 78.7067 53.4396 78.4824 53.875 78.2706C54.1115 78.1585 54.4474 78.0588 54.6589 77.9093C53.4396 78.7939 53.5515 78.3454 54.2234 78.1086C55.2935 77.7473 56.3511 77.4234 57.4585 77.224L49.8063 69.5614C48.5496 78.445 47.2929 87.3162 46.0238 96.1998C44.0081 110.416 41.9924 124.62 39.9767 138.836C39.5163 142.088 39.0559 145.34 38.5955 148.58C38.3467 150.311 38.2969 151.807 39.2177 153.376C39.9767 154.672 41.4573 155.906 42.938 156.242C45.8745 156.915 50.1049 155.345 50.5902 151.894C51.8469 143.01 53.1036 134.139 54.3728 125.255C56.3885 111.039 58.4042 96.8353 60.4199 82.619C60.8802 79.367 61.3406 76.1151 61.801 72.8757C62.1245 70.5956 61.9254 68.5397 60.1959 66.8203C58.4664 65.1009 56.376 64.8019 54.1488 65.2131C42.4279 67.381 33.8798 78.146 27.7331 87.5405C21.5865 96.9349 16.7837 107.426 11.9808 117.705C10.3259 121.243 8.33513 124.607 6.6927 128.146C3.99266 133.965 2.44978 140.132 1.54147 146.474C-0.499119 160.703 -0.300037 175.156 1.00644 189.447C1.59124 195.801 2.38756 202.155 3.49496 208.435C4.68945 215.213 5.88394 222.066 7.77521 228.694C9.5545 234.936 12.1799 240.979 15.8878 246.324C20.4418 252.89 26.1903 258.348 31.6028 264.166C39.4167 272.564 46.6957 281.248 56.6746 287.204C62.7964 290.855 69.4159 293.658 76.0229 296.287C81.7465 298.567 87.5696 300.623 93.4176 302.554C107.266 307.139 121.364 311.051 135.598 314.229C149.832 317.406 163.83 319.935 178.139 320.458C180.914 320.558 183.689 320.558 186.451 320.421C189.562 320.259 192.137 318.166 192.56 315.014C192.983 311.861 191.03 309.32 188.106 308.173C179.782 304.934 171.458 301.682 163.134 298.442C152.196 294.181 141.247 289.92 130.31 285.646C129.812 285.46 129.327 285.26 128.829 285.073C127.473 284.55 130.26 285.734 129.003 285.123C124.711 283.005 120.368 280.999 116.175 278.694C112.517 276.688 108.958 274.483 105.574 272.028C105.176 271.742 104.79 271.455 104.404 271.169C104.205 271.019 104.019 270.87 103.82 270.732C102.799 269.96 104.728 271.455 104.056 270.919C103.173 270.197 102.289 269.499 101.418 268.764C99.6638 267.281 97.9467 265.736 96.2794 264.154C92.1609 260.242 88.2664 256.093 84.459 251.869C82.1695 249.327 79.9174 246.76 77.7897 244.094C77.5658 243.807 77.3418 243.521 77.1054 243.234C76.5081 242.487 77.6653 243.969 77.1054 243.234C76.6326 242.611 76.1722 242.001 75.7118 241.365C74.8533 240.194 74.0072 238.998 73.1984 237.79C70.6974 234.077 68.4329 230.214 66.4794 226.177C66.0937 225.38 65.7204 224.57 65.3471 223.76C65.1729 223.361 64.9987 222.963 64.8121 222.552C64.2024 221.169 65.2974 223.748 64.8494 222.651C64.3268 221.368 63.8167 220.072 63.3065 218.776C61.7139 214.665 59.9844 210.615 58.653 206.404C56.9733 201.096 55.7663 195.664 54.9576 190.169C54.8953 189.708 54.746 187.877 54.8705 189.596C54.8331 188.998 54.7211 188.413 54.6465 187.815C54.4847 186.481 54.3479 185.148 54.2234 183.815C53.9746 181.186 53.7631 178.557 53.564 175.916C53.1409 170.296 52.7054 164.665 52.046 159.07C51.6354 155.569 51.1501 152.081 50.5902 148.604C50.0676 145.377 45.8869 143.297 42.938 144.256C39.4416 145.39 38.0356 148.467 38.5955 151.919H38.5831Z" fill="#ECCA39"/>
<path d="M44.9913 116.334C44.1701 129.055 48.102 141.677 53.639 153.152C70.1627 187.49 101.891 214.141 138.535 224.47C163.943 231.634 200.686 222.763 225.409 213.518C233.31 210.565 236.931 211.612 244.608 211.263C252.298 210.914 260.46 205.22 260.236 197.52C260.049 191.017 257.187 193.471 257.138 186.967C257.088 180.787 256.316 172.651 258.021 166.72C265.723 139.796 263.981 131.921 259.091 109.531C251.078 72.8756 214.82 22.8258 214.646 22.3398C230 63.7428 197.376 101.757 162.81 122.302C126.291 144.007 89.399 158.435 45.0162 116.309L44.9913 116.334Z" fill="#ECCA39"/>
<path d="M38.7727 116.333C38.1381 127.049 40.552 137.826 44.5212 147.744C47.9802 156.391 52.2978 164.664 57.4864 172.401C67.4156 187.203 79.9826 199.949 94.5155 210.241C101.483 215.175 108.912 219.448 116.676 222.987C124.44 226.525 132.851 229.852 141.362 231.559C159.603 235.234 178.764 232.755 196.719 228.656C205.367 226.675 213.89 224.195 222.264 221.267C224.242 220.57 226.208 219.81 228.186 219.124C229.269 218.75 230.376 218.427 231.496 218.165C232.031 218.04 232.566 217.928 233.101 217.828C233.325 217.791 233.549 217.754 233.761 217.716C234.619 217.567 232.541 217.828 233.4 217.779C237.531 217.529 241.749 217.866 245.855 217.392C255.797 216.271 265.203 209.68 266.373 199.177C266.609 196.996 266.398 194.542 265.701 192.473C265.153 190.866 264.419 189.844 263.561 188.486C263.399 188.225 262.976 187.303 263.424 188.374C263.872 189.446 263.499 188.424 263.424 188.137C263.038 186.804 263.424 189.234 263.399 188.013C263.399 187.44 263.362 186.867 263.349 186.293C263.312 183.976 263.212 181.671 263.163 179.366C263.113 177.061 263.113 174.719 263.299 172.414C263.324 172.152 263.262 171.093 263.436 170.918C263.399 170.956 263.187 172.426 263.411 171.13C263.449 170.894 263.486 170.657 263.536 170.42C263.76 169.236 264.096 168.078 264.432 166.919C265.713 162.359 266.883 157.774 267.779 153.126C269.185 145.788 269.906 138.337 269.197 130.886C268.451 123.012 266.721 115.249 265.004 107.537C263.387 100.31 260.91 93.2833 258.086 86.4431C252.076 71.8904 244.636 58.0105 236.486 44.5542C231.533 36.3684 226.308 28.3569 220.87 20.495C220.596 20.0963 220.223 19.6851 220.012 19.2365C218.718 16.4332 214.848 15.5859 212.247 16.6823C209.647 17.7788 207.569 21.1055 208.652 24.0335C210.157 28.1326 211.152 32.2816 211.899 36.5677C212.023 37.2779 211.837 36.1192 211.837 36.0818C211.787 36.2811 211.924 36.7795 211.949 37.0162C211.999 37.4772 212.048 37.9507 212.086 38.4117C212.185 39.4957 212.247 40.5672 212.285 41.6512C212.347 43.6322 212.322 45.6258 212.185 47.6068C212.123 48.5911 212.036 49.5754 211.924 50.5473C211.75 52.0673 212.061 49.7872 211.887 50.9086C211.799 51.4319 211.725 51.9552 211.638 52.4785C211.289 54.4845 210.841 56.478 210.306 58.4341C209.771 60.3903 209.187 62.2094 208.515 64.0534C208.179 64.9878 207.805 65.8974 207.445 66.8194C207.183 67.4797 207.606 66.3957 207.631 66.3833C207.557 66.4082 207.395 66.9315 207.357 67.0187C207.109 67.5794 206.86 68.1401 206.598 68.6883C204.857 72.4012 202.841 75.9771 200.589 79.4035C199.469 81.1104 198.299 82.78 197.08 84.4246C196.968 84.5742 195.923 85.9322 196.42 85.3093C196.918 84.6863 196.022 85.8076 195.885 85.9821C195.189 86.8542 194.479 87.7139 193.77 88.5612C188.271 95.0526 182.062 100.921 175.405 106.229C174.969 106.578 174.546 106.951 174.086 107.275C174.969 106.665 174.26 107.138 173.825 107.475C172.929 108.148 172.033 108.82 171.125 109.468C169.395 110.727 167.628 111.935 165.849 113.119C162.514 115.324 159.08 117.368 155.609 119.374C149.176 123.086 142.606 126.588 135.8 129.578C135.427 129.74 135.041 129.902 134.668 130.064C133.66 130.5 135.813 129.603 134.456 130.151C133.573 130.512 132.702 130.861 131.806 131.21C130.176 131.833 128.534 132.431 126.866 132.979C123.532 134.088 120.147 135.023 116.713 135.758C114.971 136.119 113.229 136.393 111.475 136.68C110.778 136.792 112.196 136.593 112.159 136.593C111.973 136.593 111.761 136.642 111.574 136.667C111.114 136.717 110.666 136.767 110.206 136.817C109.297 136.904 108.377 136.991 107.456 137.041C103.959 137.265 100.438 137.216 96.9419 136.892C96.5437 136.854 96.1455 136.817 95.7349 136.767C95.5358 136.742 95.3368 136.717 95.1377 136.692C94.5155 136.63 94.64 136.343 95.5856 136.755C94.8639 136.443 93.7441 136.48 92.9602 136.331C91.1063 135.994 89.2772 135.583 87.4606 135.097C85.644 134.611 83.7278 134.013 81.8988 133.353C81.0651 133.054 80.2314 132.743 79.3978 132.406C79.1863 132.319 78.9747 132.232 78.7757 132.157C77.6309 131.696 78.9747 132.182 79.0121 132.257C78.9001 132.02 77.8051 131.721 77.5438 131.609C73.6369 129.827 69.8668 127.734 66.2584 125.404C64.2551 124.108 62.3017 122.75 60.3855 121.33C59.95 121.006 59.5021 120.669 59.0666 120.333C58.5067 119.909 59.1412 120.395 59.2283 120.458C58.9297 120.221 58.6435 119.997 58.3449 119.76C57.2997 118.925 56.267 118.065 55.2467 117.206C53.2559 115.511 51.3148 113.754 49.4236 111.96C47.0595 109.717 42.941 109.431 40.6266 111.96C38.3123 114.489 38.1008 118.377 40.6266 120.769C54.326 133.714 70.8124 144.94 89.6629 148.354C105.067 151.133 120.595 148.803 135.116 143.221C142.606 140.343 149.835 136.842 156.853 132.967C163.871 129.092 171.398 124.631 178.167 119.673C192.8 108.945 206.138 95.7503 214.935 79.7274C223.732 63.7045 227.228 45.2769 222.724 27.3975C222.152 25.1423 221.455 22.9246 220.659 20.7441L209.286 25.541C210.033 27.1608 211.439 28.6808 212.447 30.1511C215.122 34.0758 217.735 38.0379 220.285 42.0374C227.888 53.9612 235.017 66.2338 241.201 78.9674C242.881 82.4311 244.287 86.0319 245.992 89.4832C245.457 88.4117 245.842 89.1219 246.116 89.7822C246.278 90.1809 246.44 90.5796 246.601 90.9783C246.975 91.9003 247.336 92.8223 247.696 93.7568C248.343 95.4513 248.978 97.1582 249.563 98.8652C252.014 105.955 253.619 113.231 255.1 120.57C255.448 122.289 255.784 124.021 256.07 125.753C256.207 126.575 256.344 127.385 256.456 128.207C256.481 128.394 256.506 128.581 256.531 128.768C256.643 129.466 256.431 127.971 256.431 128.033C256.481 128.519 256.556 129.005 256.605 129.491C256.966 132.668 257.128 135.857 257.028 139.047C256.979 140.692 256.867 142.336 256.692 143.981C256.643 144.442 256.593 144.903 256.531 145.376C256.394 146.56 256.717 144.155 256.531 145.352C256.381 146.348 256.232 147.333 256.058 148.317C255.299 152.628 254.266 156.877 253.134 161.1C252.512 163.43 251.74 165.723 251.379 168.115C250.994 170.669 250.745 173.211 250.708 175.79C250.67 178.108 250.732 180.425 250.807 182.73C250.869 184.786 250.795 186.892 251.031 188.947C251.28 191.153 251.74 193.246 253.009 195.115C253.271 195.501 253.557 195.9 253.831 196.286C254.403 197.096 253.644 196.149 253.656 195.713C253.656 195.999 253.893 196.498 253.967 196.784C254.316 198.13 253.967 195.763 253.992 197.059C253.992 197.507 253.992 197.968 254.005 198.429C254.03 199.55 254.316 197.32 254.017 198.379C253.967 198.554 253.582 199.924 253.569 199.912C253.507 199.874 254.167 198.765 253.806 199.339C253.706 199.501 253.632 199.7 253.532 199.874C253.345 200.223 253.109 200.56 252.91 200.908C252.387 201.818 253.719 200.099 252.761 201.095C252.425 201.444 252.101 201.806 251.753 202.13C251.454 202.404 251.068 202.64 250.807 202.952C251.74 201.88 251.006 202.765 250.508 203.076C250.148 203.301 249.774 203.525 249.401 203.724C249.214 203.824 249.028 203.924 248.829 204.023C248.617 204.123 247.485 204.497 248.393 204.235C249.302 203.974 247.945 204.372 247.721 204.447C247.311 204.584 246.9 204.696 246.489 204.808C246.29 204.858 245.083 205.219 245.021 205.12C245.009 205.095 246.34 204.995 245.618 205.045C245.332 205.07 245.059 205.095 244.772 205.12C240.766 205.369 236.722 204.995 232.728 205.481C228.012 206.067 223.794 207.624 219.34 209.194C215.408 210.577 211.439 211.86 207.432 213.044C198.847 215.573 190.124 217.667 181.29 219.112C180.282 219.274 179.262 219.436 178.254 219.585C177.993 219.623 176.251 219.872 177.06 219.76C177.869 219.648 176.998 219.76 176.873 219.785C176.537 219.822 176.201 219.872 175.865 219.909C173.688 220.171 171.51 220.395 169.32 220.57C164.99 220.906 160.648 221.043 156.306 220.894C154.19 220.819 152.063 220.682 149.947 220.47C149.487 220.42 149.027 220.37 148.566 220.32C147.334 220.183 149.624 220.482 148.404 220.295C147.359 220.133 146.327 219.972 145.294 219.772C141.337 219.012 137.467 217.841 133.648 216.545C131.644 215.86 129.666 215.137 127.7 214.365C126.854 214.028 125.883 213.754 125.087 213.306C126.17 213.916 125.137 213.318 124.627 213.094C124.117 212.87 123.619 212.645 123.121 212.421C119.339 210.702 115.643 208.82 112.047 206.764C108.451 204.709 104.93 202.491 101.521 200.111C99.8534 198.94 98.211 197.744 96.5935 196.51C96.2824 196.274 95.6976 196.074 96.7428 196.622C96.5437 196.523 96.3571 196.323 96.1829 196.186C95.8096 195.9 95.4487 195.601 95.0755 195.302C94.2169 194.616 93.3708 193.919 92.5372 193.209C86.2039 187.851 80.3434 181.92 75.0678 175.504C74.4705 174.781 73.8857 174.046 73.3009 173.311C73.164 173.136 72.965 172.949 72.8654 172.75C73.3756 173.759 73.2263 173.223 72.9774 172.9C72.6415 172.463 72.3179 172.027 71.982 171.591C70.7253 169.897 69.4935 168.165 68.3114 166.421C66.0344 163.044 63.9192 159.555 61.9657 155.98C60.9579 154.123 59.9873 152.242 59.0666 150.335C58.5315 149.239 58.0214 148.13 57.5237 147.009C57.2873 146.485 57.0633 145.962 56.8394 145.439C56.8891 145.538 57.1753 146.274 56.914 145.601C56.7771 145.239 56.6278 144.891 56.4785 144.542C54.5997 139.844 53.0692 135.01 52.0738 130.051C51.9494 129.403 51.825 128.743 51.713 128.095C51.6632 127.821 51.6259 127.534 51.5761 127.248C51.5637 127.161 51.4144 126.226 51.5264 126.949C51.6383 127.672 51.5015 126.737 51.489 126.65C51.4517 126.363 51.4268 126.089 51.3895 125.803C51.3148 125.142 51.2651 124.482 51.2153 123.822C51.0411 121.367 51.0287 118.9 51.178 116.433C51.3646 113.169 48.1793 110.054 44.9567 110.203C41.423 110.365 38.9469 112.944 38.7354 116.433L38.7727 116.333Z" fill="#ECCA39"/>
<path d="M149.211 0.148828C129.315 -0.349552 121.539 -0.0131448 105.015 7.89864C88.491 15.8104 74.7668 28.5316 62.3367 41.9878C52.7434 52.379 43.6354 63.5428 38.1856 76.6003C32.7481 89.6579 31.3297 104.946 37.1155 117.854C44.805 134.998 64.004 144.841 82.7425 145.888C101.481 146.934 119.846 140.567 136.905 132.743C156.9 123.573 176.174 112.06 191.329 96.0994C206.484 80.1388 217.309 59.3314 218.267 37.328C218.566 30.3507 220.022 21.1555 214.398 17.0314C195.149 2.85254 183.739 -0.249876 165.61 0.223585L149.211 0.148828Z" fill="#F4E39A"/>
<path d="M46.4349 142.66C62.2121 151.93 80.3161 154.023 98.1836 151.431C111.821 149.463 124.773 144.628 137.278 138.997C168.123 125.129 198.683 105.418 213.327 73.5967C217.595 64.3393 220.358 54.6458 221.253 44.4664C221.627 40.2052 222.075 35.832 222.099 31.5583C222.124 26.4749 221.092 21.1048 217.931 16.9932C216.898 15.6476 215.916 14.601 214.211 14.1275C212.718 13.7163 210.739 13.9032 209.42 14.7505C206.882 16.3827 205.066 20.5192 207.193 23.2728C207.79 24.0453 208.251 24.8676 208.749 25.7024C209.508 26.9982 208.438 24.4938 208.848 25.9267C208.973 26.3752 209.134 26.7988 209.246 27.2474C209.358 27.6959 209.433 28.1444 209.532 28.593C209.868 30.113 209.445 27.1975 209.545 28.7674C209.607 29.6894 209.657 30.6114 209.657 31.5459C209.644 35.1716 209.172 38.7973 208.96 42.4106C208.898 43.4322 208.823 44.4539 208.711 45.4756C208.661 45.974 208.637 46.5097 208.537 46.9957C208.811 45.675 208.599 46.5596 208.549 46.8586C208.214 49.039 207.815 51.2194 207.305 53.3625C206.36 57.3495 205.066 61.212 203.572 65.0121C203.149 66.1085 203.523 65.1492 203.61 64.9373C203.411 65.4108 203.199 65.8843 203 66.3453C202.577 67.2797 202.154 68.2142 201.694 69.1362C200.798 70.9802 199.827 72.7993 198.807 74.581C196.754 78.1569 194.44 81.5583 191.988 84.885C190.968 86.268 192.785 83.9132 191.702 85.2588C191.379 85.6575 191.068 86.0686 190.744 86.4674C190.097 87.2648 189.438 88.0622 188.766 88.8347C187.422 90.4046 186.016 91.9246 184.585 93.4073C181.624 96.4723 178.488 99.3754 175.216 102.104C174.531 102.677 173.847 103.238 173.163 103.799C172.752 104.135 172.329 104.459 171.906 104.795C170.512 105.904 172.901 104.06 171.483 105.119C169.704 106.452 167.912 107.773 166.083 109.032C162.636 111.411 159.103 113.654 155.494 115.785C148.502 119.896 141.247 123.522 133.869 126.898C131.654 127.92 129.427 128.917 127.175 129.889C126.963 129.976 126.752 130.063 126.553 130.163C125.371 130.674 127.959 129.577 126.752 130.076C126.092 130.35 125.42 130.624 124.749 130.898C123.343 131.471 121.924 132.019 120.506 132.555C114.085 134.96 107.516 136.966 100.797 138.349C98.8307 138.747 96.8523 139.084 94.8739 139.383C93.2812 139.632 96.2799 139.221 94.6748 139.408C94.0527 139.483 93.4306 139.557 92.796 139.62C91.6886 139.732 90.5936 139.831 89.4863 139.906C85.3055 140.18 81.0875 140.155 76.9068 139.769C76.4215 139.719 75.9238 139.669 75.4386 139.62C75.1151 139.582 74.7791 139.545 74.4556 139.495C75.2893 139.607 75.3515 139.62 74.6422 139.507C73.4975 139.321 72.3404 139.134 71.1956 138.897C69.0431 138.461 66.9029 137.913 64.8126 137.265C63.7425 136.928 62.6849 136.567 61.6273 136.181C61.2167 136.031 60.8061 135.869 60.4079 135.72C60.0844 135.595 59.7609 135.458 59.4374 135.321C60.1093 135.608 60.1217 135.608 59.4623 135.321C57.1604 134.262 54.9083 133.128 52.7184 131.845C49.9063 130.2 45.7754 131.11 44.2076 134.075C42.6399 137.04 43.4362 140.841 46.4349 142.597V142.66Z" fill="white"/>
<path d="M198.875 316.693C228.04 317.74 272.286 306.726 300.904 294.266C309.403 290.566 348.186 264.363 348.186 264.363C315.835 290.528 277.263 296.758 247.401 299.25C223.312 301.256 167.943 309.292 126.708 290.528C113.021 284.298 164.036 315.447 198.875 316.693Z" fill="white"/>
<path d="M198.878 322.924C212.615 323.385 226.451 321.528 239.926 319.012C254.372 316.308 268.644 312.57 282.579 307.898C292.297 304.633 302.077 301.157 310.911 295.912C319.024 291.102 326.925 285.919 334.814 280.736C340.338 277.11 345.85 273.447 351.337 269.747C348.824 266.482 346.31 263.218 343.797 259.966C343.362 260.315 342.926 260.651 342.503 261C342.329 261.137 341.57 261.723 342.453 261.037C341.732 261.598 340.997 262.146 340.263 262.682C338.808 263.754 337.339 264.788 335.846 265.809C332.984 267.741 330.06 269.56 327.062 271.279C324.063 272.999 321.152 274.519 318.128 275.976C316.598 276.712 315.055 277.422 313.499 278.107C312.877 278.381 312.268 278.643 311.645 278.904C313.051 278.306 311.484 278.967 311.272 279.054C310.812 279.241 310.339 279.428 309.879 279.615C298.282 284.237 286.175 287.452 273.907 289.669C270.958 290.205 267.997 290.679 265.035 291.102C264.587 291.165 262.199 291.563 264.077 291.239C263.43 291.351 262.783 291.414 262.136 291.488C260.643 291.675 259.163 291.85 257.669 292.024C252.991 292.548 248.288 292.921 243.597 293.357C234.14 294.242 224.697 295.201 215.215 295.787C203.233 296.522 191.201 296.734 179.206 296.011C176.058 295.824 172.91 295.563 169.762 295.226C168.294 295.077 166.565 295.102 165.146 294.678C166.366 295.039 165.743 294.765 165.345 294.703C164.86 294.628 164.375 294.566 163.89 294.491C163.081 294.367 162.272 294.242 161.463 294.117C155.105 293.096 148.809 291.7 142.638 289.844C139.614 288.934 136.628 287.913 133.691 286.766C132.945 286.48 132.173 286.206 131.452 285.857C132.87 286.517 130.842 285.583 130.506 285.433C129.461 284.972 128.428 284.499 127.37 284.075C126.425 283.701 125.604 283.465 124.509 283.465C119.706 283.477 116.657 288.86 119.109 292.984C120.303 295.002 122.617 296.248 124.571 297.419C127.234 299.014 129.983 300.484 132.733 301.905C141.48 306.415 150.514 310.414 159.721 313.866C170.111 317.766 180.787 320.856 191.811 322.288C194.15 322.6 196.502 322.812 198.866 322.899C202.126 323.023 205.236 319.946 205.087 316.669C204.925 313.18 202.35 310.576 198.866 310.439C197.385 310.377 195.917 310.277 194.449 310.14C193.702 310.066 192.943 309.916 192.184 309.879C194.038 309.966 192.769 309.953 192.308 309.879C191.798 309.804 191.288 309.729 190.778 309.642C187.63 309.131 184.494 308.458 181.396 307.673C174.901 306.041 168.531 303.936 162.26 301.556C160.766 300.983 159.273 300.397 157.793 299.799C157.059 299.5 156.337 299.201 155.615 298.902C155.267 298.752 154.01 298.167 155.665 298.927C155.205 298.715 154.719 298.528 154.259 298.329C151.584 297.17 148.934 295.974 146.296 294.728C142.003 292.697 137.76 290.567 133.617 288.249C132.186 287.452 130.755 286.629 129.374 285.745C128.951 285.471 128.54 285.172 128.117 284.885C127.657 284.586 129.685 286.28 128.976 285.533C129.672 286.268 130.817 288.162 130.643 289.707L129.797 292.847C129.797 292.847 124.384 295.899 124.546 295.899C124.496 295.899 122.754 295.463 123.078 295.712C123.14 295.762 123.426 295.849 123.501 295.849C123.712 295.849 124.932 296.435 123.426 295.799C122.008 295.201 123.464 295.824 123.787 295.974C127.955 297.843 132.211 299.537 136.553 300.958C144.691 303.612 153.089 305.418 161.55 306.614C178.273 308.982 195.145 309.281 211.993 308.396C224.497 307.736 236.928 306.378 249.395 305.281C265.396 303.873 281.397 301.543 296.876 297.133C314.395 292.136 331.342 284.511 346.087 273.734C348.289 272.126 350.454 270.457 352.569 268.737C354.983 266.794 354.771 262.782 353.054 260.552C351.337 258.321 347.617 257.2 345.029 258.944C332.698 267.28 320.281 275.553 307.577 283.315C304.69 285.084 301.791 286.878 298.755 288.374C298.17 288.66 297.573 288.922 296.963 289.183C296.652 289.321 295.271 289.844 296.876 289.221C296.602 289.321 296.341 289.445 296.08 289.557C295.196 289.919 294.313 290.28 293.429 290.641C290.381 291.862 287.295 293.021 284.209 294.117C270.61 298.964 256.637 302.839 242.502 305.792C238.52 306.627 234.526 307.374 230.507 308.022C228.516 308.346 226.513 308.645 224.51 308.932C224.199 308.982 223.303 309.131 224.746 308.907C224.124 309.007 223.49 309.069 222.855 309.144C221.922 309.256 220.989 309.368 220.055 309.468C213.025 310.24 205.946 310.664 198.866 310.427C195.606 310.315 192.495 313.367 192.644 316.657C192.794 320.12 195.382 322.774 198.866 322.886L198.878 322.924Z" fill="white"/>
<path d="M322.059 77.4727C342.901 82.3692 352.73 97.2459 368.097 112.172C375.189 119.05 381.697 126.675 386.251 135.447C400.46 162.808 399.303 211.25 380.539 235.708C354.858 269.174 289.261 296.336 292.197 294.268C363.12 244.43 345.7 153.476 345.7 153.476C338.546 127.547 333.556 118.626 317.592 93.5329C315.689 90.5302 309.617 79.9646 305.884 77.4727H322.059Z" fill="#ECCA39"/>
<path d="M320.407 83.4784C321.876 83.8272 323.344 84.2259 324.775 84.6994C325.546 84.9486 326.305 85.2227 327.064 85.5093C327.363 85.6214 327.661 85.746 327.96 85.8581C329.179 86.3316 326.927 85.3722 328.221 85.9703C330.785 87.1664 333.273 88.4746 335.65 90.0196C336.782 90.7547 337.877 91.5272 338.959 92.3371C339.258 92.5613 340.154 93.122 338.947 92.3121C339.183 92.4741 339.42 92.6859 339.644 92.8728C340.228 93.3463 340.801 93.8197 341.373 94.3057C343.563 96.1746 345.666 98.1556 347.706 100.187C351.912 104.373 355.919 108.759 360.074 112.995C364.678 117.68 369.431 122.178 373.55 127.323C373.774 127.597 373.998 127.884 374.222 128.171C373.475 127.224 374.222 128.171 374.396 128.407C374.881 129.055 375.354 129.703 375.827 130.363C376.859 131.834 377.842 133.329 378.776 134.861C380.157 137.154 381.413 139.534 382.508 141.988C382.633 142.275 382.757 142.574 382.894 142.86C383.267 143.658 382.297 141.378 382.795 142.611C382.981 143.097 383.18 143.571 383.367 144.056C383.84 145.29 384.288 146.523 384.698 147.769C385.495 150.162 386.179 152.579 386.764 155.033C387.349 157.488 387.896 160.129 388.319 162.696C388.431 163.406 388.543 164.116 388.655 164.826C388.692 165.113 388.717 165.4 388.779 165.686C388.755 165.537 388.593 164.191 388.73 165.325C388.904 166.77 389.066 168.215 389.203 169.661C389.688 175.105 389.825 180.575 389.601 186.045C389.489 188.774 389.29 191.515 388.991 194.231C388.916 194.891 388.842 195.552 388.767 196.199C388.73 196.486 388.705 196.785 388.655 197.072C388.941 195.477 388.73 196.536 388.655 196.935C388.456 198.305 388.232 199.676 387.983 201.034C387.025 206.242 385.706 211.4 383.902 216.396C383.491 217.555 383.006 218.676 382.583 219.823C382.297 220.608 383.093 218.701 382.745 219.449C382.608 219.748 382.484 220.059 382.347 220.371C382.073 220.981 381.799 221.579 381.513 222.177C380.455 224.395 379.273 226.551 377.967 228.619C377.394 229.516 376.81 230.401 376.188 231.273C375.864 231.721 375.503 232.145 375.192 232.606C376.25 230.999 375.167 232.619 374.831 233.042C373.351 234.861 371.795 236.618 370.19 238.325C366.881 241.826 363.322 245.09 359.639 248.193C358.718 248.965 357.785 249.738 356.839 250.498C356.367 250.884 355.894 251.258 355.408 251.632C355.16 251.831 354.886 252.13 354.612 252.255L355.222 251.781C355.01 251.943 354.786 252.118 354.575 252.28C352.621 253.775 350.643 255.233 348.64 256.653C340.515 262.422 332.016 267.667 323.331 272.539C316.314 276.476 309.159 280.164 301.893 283.59C299.367 284.786 296.829 285.945 294.253 287.042C294.017 287.141 293.78 287.266 293.531 287.353C293.842 287.241 295.286 286.618 294.278 287.042C293.842 287.216 293.407 287.403 292.971 287.577C292.387 287.814 291.802 288.051 291.217 288.238C291.068 288.288 290.894 288.312 290.757 288.387C290.719 288.4 290.62 288.387 290.595 288.425C291.018 288.001 293.395 288.3 293.78 288.425L296.53 290.032C297.065 290.941 297.6 291.863 298.135 292.773L298.359 294.418L297.513 297.557C297.127 298.392 296.095 299.264 295.373 299.7C295.895 299.377 296.393 298.978 296.891 298.617C298.434 297.495 299.952 296.336 301.47 295.165C303.709 293.421 305.899 291.614 308.027 289.733C312.071 286.145 315.891 282.295 319.437 278.208C326.218 270.383 332.116 261.799 336.869 252.591C345.305 236.232 350.22 218.514 352.509 200.299C354.04 188.063 354.301 175.641 353.219 163.356C352.907 159.892 352.509 156.441 351.949 153.015C351.862 152.442 351.75 151.906 351.613 151.345C350.071 145.564 348.304 139.833 346.276 134.201C342.617 124.059 337.802 114.503 332.265 105.27C329.105 99.9996 325.745 94.8539 322.523 89.6209C320.121 85.7335 317.757 81.8088 314.97 78.1706C313.203 75.8656 311.486 73.8222 309.085 72.1402L305.949 83.7525H322.124C325.384 83.7525 328.495 80.8868 328.346 77.5227C328.196 74.1587 325.608 71.293 322.124 71.293H305.949C303.324 71.293 300.549 73.2117 299.952 75.8656C299.305 78.7188 300.449 81.2606 302.814 82.9052C303.61 83.4659 301.719 81.9209 302.241 82.4567C302.403 82.6187 302.59 82.7682 302.764 82.9301C303.1 83.2541 303.423 83.6029 303.734 83.9518C304.083 84.3381 304.406 84.7492 304.755 85.1479C305.414 85.9329 304.518 84.8738 304.468 84.7741C304.63 85.0981 304.941 85.4096 305.165 85.7086C306.658 87.752 308.027 89.8701 309.371 92.0131C312.282 96.6605 315.206 101.295 318.093 105.955C320.98 110.615 324.066 115.711 326.778 120.757C327.96 122.963 329.092 125.193 330.15 127.46C330.673 128.569 331.183 129.703 331.668 130.824C331.767 131.061 331.879 131.298 331.979 131.547C332.402 132.531 331.83 131.248 331.805 131.148C331.917 131.784 332.39 132.556 332.626 133.167C334.679 138.325 336.409 143.62 337.976 148.953C338.648 151.208 339.445 153.476 339.868 155.806C340.042 156.74 340.154 157.687 340.291 158.634C339.88 155.781 340.253 158.397 340.365 159.332C340.477 160.266 340.564 161.163 340.664 162.085C341.821 174.084 341.684 186.244 340.328 198.218C340.228 199.127 340.116 200.037 340.005 200.947C339.793 202.616 340.216 199.451 339.98 201.133C339.905 201.644 339.83 202.168 339.756 202.678C339.457 204.684 339.121 206.678 338.748 208.671C337.964 212.845 337.018 216.982 335.886 221.081C334.704 225.392 333.323 229.641 331.743 233.827C331.332 234.899 330.921 235.97 330.486 237.042C330.312 237.465 329.503 239.185 330.337 237.415C330.075 237.964 329.851 238.549 329.602 239.11C328.644 241.278 327.637 243.408 326.566 245.514C324.327 249.925 321.838 254.211 319.101 258.335C317.695 260.441 316.227 262.484 314.709 264.515C314.373 264.963 314.261 265.586 314.821 264.378C314.734 264.577 314.447 264.864 314.323 265.013C313.95 265.499 313.564 265.973 313.178 266.446C312.307 267.518 311.424 268.564 310.528 269.598C306.969 273.685 303.15 277.535 299.093 281.111C298.036 282.045 296.966 282.955 295.883 283.852C295.423 284.238 294.95 284.612 294.489 284.986C294.191 285.223 293.905 285.459 293.606 285.696C293.432 285.833 293.245 285.983 293.071 286.12C293.668 285.659 293.793 285.571 293.432 285.846C292.262 286.718 291.093 287.602 289.911 288.45C288.729 289.297 287.584 290.007 286.825 291.303C283.951 296.199 288.741 301.794 293.954 300.485C294.303 300.398 294.639 300.286 294.975 300.161C297.09 299.401 299.143 298.479 301.196 297.595C307.442 294.879 313.589 291.888 319.636 288.761C337.553 279.479 355.048 268.776 370.327 255.494C377.805 249.003 384.972 241.639 389.974 233.005C395.449 223.548 398.734 212.795 400.476 202.043C404.071 179.728 402.578 155.419 392.886 134.737C389.999 128.582 386.092 122.987 381.787 117.742C377.519 112.546 372.617 107.986 367.938 103.177C359.502 94.4925 351.464 85.1853 341.075 78.7313C335.774 75.4295 329.876 73.0124 323.817 71.5546C320.656 70.7946 316.923 72.5514 316.164 75.903C315.405 79.2546 317.123 82.7557 320.507 83.5656L320.407 83.4784Z" fill="#ECCA39"/>
<path d="M109.514 92.0116C104.985 104.135 101.24 116.644 97.9429 129.153C97.159 132.119 96.4124 135.097 95.8276 138.112C95.218 141.301 96.7235 144.989 100.17 145.774C103.243 146.472 107.163 144.84 107.822 141.426C108.942 135.583 110.597 129.839 112.252 124.132C114.205 117.379 116.283 110.664 118.498 103.998C119.456 101.095 120.439 98.204 121.509 95.3383C122.654 92.2857 120.24 88.3735 117.167 87.6757C113.633 86.8659 110.734 88.7473 109.514 92.0241V92.0116Z" fill="white"/>
<path d="M131.293 90.5793C134.192 95.4634 136.792 100.522 139.605 105.468C142.566 110.664 145.627 116.071 149.695 120.507C151.898 122.912 156.29 122.912 158.492 120.507C160.856 117.928 160.844 114.265 158.492 111.698C158.132 111.299 157.771 110.888 157.435 110.465C157.149 110.103 156.601 109.206 157.671 110.776C157.497 110.514 157.285 110.265 157.099 110.004C156.352 108.969 155.631 107.898 154.934 106.826C153.254 104.21 151.686 101.531 150.143 98.815C147.406 93.9932 144.868 89.0592 142.043 84.2872C140.388 81.4838 136.369 80.2254 133.533 82.057C130.696 83.8885 129.526 87.5765 131.305 90.5793H131.293Z" fill="white"/>
<path d="M149.939 80.9854C155.638 81.9198 161.399 82.5054 167.122 83.2032C170.656 83.6268 174.177 84.0629 177.698 84.5239C178.084 84.5737 178.457 84.6235 178.843 84.6734C179.03 84.6983 179.216 84.7232 179.403 84.7481C180.224 84.8603 178.047 84.5612 178.868 84.6734C179.689 84.7855 180.573 84.9101 181.419 85.0222C182.937 85.2341 184.455 85.4583 185.973 85.7075C188.486 86.1062 191.037 86.4925 193.488 87.2027C196.611 88.1122 200.406 86.0938 201.14 82.8543C201.874 79.6148 200.145 76.1635 196.798 75.1917C191.311 73.5969 185.425 73.0861 179.789 72.3385C173.057 71.4414 166.301 70.6564 159.557 69.8217C158.101 69.6472 156.645 69.4479 155.19 69.261C157.678 69.5725 155.351 69.2859 154.742 69.1862C154.244 69.1115 153.759 69.0367 153.261 68.962C150.063 68.4387 146.405 69.7967 145.609 73.3103C144.925 76.3131 146.517 80.4122 149.951 80.9729L149.939 80.9854Z" fill="white"/>
<path d="M154.735 64.1647C169.629 54.4837 184.373 44.5784 199.193 34.7852C202.614 32.5176 206.048 30.2624 209.483 28.0322C212.208 26.2629 213.589 22.4254 211.71 19.5099C209.955 16.7812 206.123 15.3733 203.199 17.2796C188.305 26.9606 173.561 36.866 158.742 46.6591C155.32 48.9267 151.886 51.1819 148.452 53.4122C145.727 55.1814 144.346 59.0189 146.224 61.9345C147.979 64.6631 151.811 66.071 154.735 64.1647Z" fill="white"/>
<path d="M138.622 51.5812C139.455 48.9273 140.475 46.3357 141.508 43.7566C142.18 42.0746 142.864 40.405 143.549 38.7354C143.711 38.3616 143.86 37.9879 144.022 37.6141C144.121 37.3649 144.233 37.1032 144.345 36.854C144.009 37.639 143.935 37.8259 144.121 37.3898C144.507 36.4927 144.88 35.5956 145.266 34.711C147.804 28.7928 150.367 22.8496 153.242 17.0808C154.685 14.1653 154.113 10.2032 151.014 8.55853C148.202 7.06339 144.046 7.6739 142.504 10.7888C139.567 16.6821 136.954 22.7499 134.366 28.8052C131.629 35.1969 128.742 41.6385 126.639 48.2794C125.656 51.3818 127.796 55.2193 130.982 55.942C134.379 56.7145 137.576 54.9203 138.634 51.5936L138.622 51.5812Z" fill="white"/>
<path d="M118.399 49.4012C115.649 44.4797 112.576 39.7576 109.478 35.0479C106.952 31.2104 104.426 27.3479 102.46 23.174C101.066 20.2211 96.5994 19.2243 93.9492 20.9437C90.9132 22.8999 90.2288 26.3013 91.7219 29.466C93.6754 33.64 96.2013 37.5024 98.7396 41.3399C101.838 46.0496 104.911 50.7593 107.661 55.6933C109.254 58.5465 113.385 59.7302 116.172 57.9235C118.959 56.1169 120.104 52.4414 118.399 49.4012Z" fill="white"/>
<path d="M101.826 60.0293C93.6638 60.3907 85.5014 61.0136 77.3764 61.8235C69.2514 62.6334 61.7112 63.356 54.1336 65.2374C50.9732 66.0224 48.7709 69.7602 49.7912 72.9C50.8115 76.0398 54.059 78.0831 57.4434 77.2484C60.5789 76.4759 63.7891 75.965 66.9868 75.504C67.0988 75.4916 68.1564 75.4542 68.2062 75.3296C67.2481 75.4542 67.1113 75.4791 67.808 75.3794C68.0942 75.3421 68.368 75.3047 68.6541 75.2673C69.6744 75.1427 70.6823 75.0181 71.7026 74.8935C73.7432 74.6568 75.7962 74.4325 77.8368 74.2332C85.8125 73.4358 93.8131 72.8377 101.826 72.4764C105.074 72.3269 108.197 69.7104 108.047 66.2466C107.898 62.9947 105.31 59.8674 101.826 60.0169V60.0293Z" fill="white"/>
<path d="M93.7168 79.5647C78.7483 90.4667 64.9744 102.851 51.3995 115.423C48.9981 117.641 48.9856 122.014 51.3995 124.232C53.9627 126.587 57.6457 126.599 60.1964 124.232C66.7163 118.189 73.2736 112.184 80.005 106.365C83.3396 103.487 86.7116 100.646 90.1333 97.8926C90.967 97.2198 91.813 96.547 92.6467 95.8866C93.1071 95.5253 93.5675 95.164 94.0278 94.8026C94.3638 94.541 94.3389 94.5659 93.9283 94.8774L94.3887 94.5161C96.2426 93.0957 98.109 91.7002 100 90.3172C102.626 88.4109 104.181 84.8226 102.228 81.7949C100.548 79.1909 96.5288 77.5089 93.7168 79.5647Z" fill="white"/>
<path d="M44.1958 134.126C38.9699 145.539 36.4689 157.886 37.2155 170.445C37.8625 181.397 40.5625 192.125 44.5068 202.329C47.9037 211.101 52.0844 219.511 56.402 227.859C61.6403 238.013 67.8989 247.433 75.1405 256.266C82.2701 264.976 90.2707 272.95 98.7814 280.301C107.977 288.25 118.13 294.28 129.515 298.529C137.428 301.482 145.653 303.401 153.79 305.593C159.937 307.251 166.133 308.758 172.392 309.954C193.159 313.904 214.236 314.627 235.177 311.724C246.276 310.191 257.176 307.437 267.901 304.248C278.03 301.245 288.009 297.395 297.054 291.888C316.602 279.977 330.749 261.275 338.513 239.882C341.026 232.967 342.781 225.84 344.237 218.639C346.675 206.615 347.472 194.305 346.352 182.082C345.369 171.405 343.179 160.914 340.429 150.572C338.625 143.782 336.759 137.029 335.141 130.189C333.772 124.407 332.217 118.676 329.965 113.169C326.643 105.02 322.363 97.4077 317.41 90.1438C313.989 85.1227 310.318 80.2884 306.56 75.5164C304.532 72.9497 299.854 73.2363 297.764 75.5164C295.263 78.245 295.599 81.5842 297.764 84.3252C298.274 84.9607 298.771 85.6086 299.282 86.2565C299.381 86.3811 300.003 87.2034 299.406 86.406C299.58 86.6427 299.767 86.867 299.941 87.1037C300.849 88.2998 301.758 89.5084 302.641 90.717C304.209 92.86 305.739 95.028 307.232 97.2333C309.708 100.921 312.048 104.697 314.163 108.596C315.046 110.241 315.905 111.911 316.701 113.605C317.062 114.365 317.41 115.125 317.746 115.898C317.945 116.359 318.493 117.791 317.746 115.898C317.896 116.284 318.07 116.67 318.219 117.069C319.339 119.86 320.297 122.713 321.131 125.591C322.674 130.949 323.769 136.406 325.15 141.801C327.352 150.435 329.953 158.945 331.732 167.692C332.242 170.184 332.69 172.688 333.088 175.192C333.175 175.766 333.262 176.351 333.349 176.924C333.524 178.108 333.362 176.974 333.337 176.762C333.387 177.099 333.424 177.435 333.461 177.771C333.636 179.13 333.772 180.475 333.909 181.833C334.419 187.34 334.581 192.872 334.345 198.392C334.22 201.332 333.984 204.273 333.623 207.201C333.598 207.375 333.449 208.584 333.548 207.824C333.636 207.126 333.511 208.098 333.499 208.16C333.387 208.945 333.262 209.73 333.138 210.528C332.877 212.135 332.578 213.73 332.254 215.337C331.632 218.414 330.96 221.479 330.201 224.52C329.243 228.332 328.123 232.095 326.817 235.808C326.469 236.792 326.095 237.789 325.722 238.761C325.535 239.234 325.361 239.695 325.175 240.169C325.063 240.443 324.951 240.704 324.851 240.979C324.416 242.062 325.199 240.194 324.876 240.916C323.918 243.084 322.935 245.227 321.852 247.333C319.488 251.905 316.776 256.291 313.702 260.415C313.491 260.702 313.279 260.976 313.068 261.25C313.217 261.063 313.802 260.328 313.068 261.25C312.682 261.736 312.284 262.234 311.886 262.708C310.953 263.829 309.995 264.938 309.012 266.022C307.033 268.203 304.943 270.283 302.765 272.264C301.733 273.199 300.688 274.108 299.617 274.993C299.132 275.392 298.622 275.79 298.137 276.189C299.033 275.466 298.311 276.064 298.124 276.189C297.764 276.451 297.415 276.725 297.054 276.986C294.902 278.569 292.674 280.052 290.385 281.435C288.096 282.818 285.931 283.989 283.629 285.123C282.546 285.658 281.439 286.182 280.331 286.68C279.821 286.904 279.299 287.129 278.789 287.353C277.967 287.714 279.784 286.942 278.95 287.278C278.577 287.428 278.216 287.577 277.843 287.727C268.909 291.327 259.54 293.844 250.208 296.187C244.26 297.682 238.251 298.84 232.179 299.7C231.942 299.738 230.947 299.85 232.141 299.7C231.855 299.738 231.581 299.775 231.295 299.812C230.549 299.899 229.814 299.987 229.068 300.074C227.6 300.236 226.131 300.385 224.663 300.51C221.901 300.747 219.126 300.921 216.364 301.021C206.472 301.395 196.543 300.946 186.726 299.725C186.228 299.663 185.743 299.6 185.245 299.538C184.387 299.426 186.502 299.713 185.643 299.588C185.369 299.551 185.096 299.513 184.822 299.476C183.752 299.326 182.669 299.164 181.599 298.99C179.633 298.678 177.668 298.33 175.714 297.956C172.28 297.308 168.871 296.56 165.474 295.75C159.352 294.28 153.268 292.598 147.171 290.978C142.791 289.82 138.436 288.549 134.156 287.016C133.111 286.643 132.078 286.256 131.058 285.845C130.46 285.608 129.851 285.384 129.266 285.123C130.585 285.733 128.631 284.836 128.27 284.674C125.857 283.59 123.48 282.394 121.166 281.098C118.702 279.715 116.301 278.208 113.986 276.575C113.439 276.189 112.904 275.803 112.369 275.404C112.058 275.18 111.747 274.943 111.448 274.706C111.66 274.868 112.282 275.367 111.324 274.607C110.129 273.66 108.959 272.675 107.802 271.679C103.647 268.09 99.6027 264.353 95.733 260.453C91.8634 256.553 88.143 252.504 84.6342 248.28C83.8379 247.333 83.0664 246.361 82.295 245.389C82.1084 245.152 80.8517 243.533 81.6355 244.554C81.2001 243.994 80.777 243.433 80.354 242.86C78.6618 240.592 77.0318 238.287 75.4765 235.92C70.3252 228.133 66.0823 219.748 62.0011 211.362C61.043 209.394 60.1098 207.413 59.214 205.407C59.0896 205.12 57.6338 202.155 57.7582 202.068C57.7582 202.068 58.2186 203.164 57.9324 202.491C57.8204 202.205 57.696 201.918 57.5716 201.631C57.3103 200.984 57.0365 200.323 56.7877 199.675C54.9462 194.991 53.3535 190.206 52.1093 185.334C51.4871 182.892 50.9521 180.438 50.529 177.946C50.4171 177.273 50.3175 176.6 50.2055 175.94C50.1558 175.653 50.0065 174.719 50.2055 176.077C50.1558 175.741 50.1184 175.404 50.0811 175.055C49.9194 173.685 49.7949 172.327 49.7078 170.956C49.5336 168.352 49.4963 165.736 49.5958 163.119C49.6456 161.699 49.7452 160.291 49.8945 158.883C49.9194 158.621 49.9442 158.347 49.9816 158.085C50.0065 157.886 50.1309 156.765 50.0313 157.575C49.9318 158.335 50.0562 157.438 50.0687 157.338C50.1558 156.802 50.2304 156.266 50.33 155.731C50.7903 153.089 51.4 150.473 52.1839 147.906C52.5945 146.536 53.0549 145.177 53.5526 143.832C53.8263 143.097 54.1125 142.374 54.4111 141.651C54.3614 141.764 54.0627 142.436 54.3614 141.776C54.5729 141.327 54.772 140.866 54.9711 140.418C56.3273 137.465 55.9042 133.565 52.7438 131.896C50.0065 130.45 45.6764 130.974 44.2331 134.126H44.1958Z" fill="white"/>
<path d="M139.116 163.006C140.298 165.149 141.779 167.143 143.384 168.987C144.989 170.831 146.893 172.388 148.884 173.846C149.593 174.307 150.364 174.544 151.198 174.581C152.019 174.768 152.853 174.731 153.674 174.469C154.483 174.282 155.192 173.908 155.789 173.36C156.461 172.924 156.996 172.338 157.394 171.616C158.153 170.17 158.539 168.414 158.017 166.819L157.394 165.336C156.847 164.402 156.1 163.654 155.167 163.106C154.968 162.969 154.781 162.819 154.595 162.67L155.852 163.642C154.11 162.284 152.542 160.714 151.186 158.969L152.156 160.228C151.31 159.119 150.539 157.96 149.867 156.739C149.12 155.394 147.615 154.285 146.146 153.873C145.325 153.612 144.491 153.574 143.67 153.761C142.837 153.799 142.065 154.048 141.356 154.496C140.025 155.356 138.855 156.627 138.494 158.222C138.133 159.817 138.295 161.511 139.116 163.019V163.006Z" fill="white"/>
<path d="M122.943 188.537C124.66 194.542 129.612 199.501 135.684 201.059C137.264 201.457 139.056 201.258 140.475 200.436C141.196 200.049 141.781 199.514 142.217 198.828C142.764 198.23 143.137 197.52 143.324 196.71C143.685 195.115 143.61 193.321 142.702 191.913C141.793 190.505 140.574 189.459 138.981 189.048C138.422 188.911 137.887 188.724 137.351 188.499L138.832 189.122C137.887 188.724 137.016 188.2 136.207 187.577L137.463 188.549C136.655 187.914 135.933 187.191 135.298 186.381L136.269 187.64C135.647 186.83 135.124 185.945 134.726 184.998L135.348 186.481C135.174 186.07 135.025 185.646 134.9 185.21C134.465 183.69 133.407 182.282 132.038 181.485C131.329 181.024 130.558 180.787 129.724 180.75C128.903 180.563 128.069 180.6 127.248 180.862C125.743 181.348 124.287 182.282 123.528 183.727C122.769 185.173 122.433 186.892 122.906 188.524L122.943 188.537Z" fill="white"/>
<path d="M166.64 219.909C170.709 220.034 174.778 220.158 178.846 220.295C180.414 220.345 182.156 219.56 183.251 218.476C184.346 217.392 185.142 215.623 185.068 214.066C184.918 210.602 182.33 207.948 178.846 207.836C174.778 207.711 170.709 207.587 166.64 207.45C165.072 207.4 163.33 208.185 162.236 209.269C161.141 210.353 160.344 212.122 160.419 213.679C160.568 217.143 163.156 219.797 166.64 219.909Z" fill="white"/>
<path d="M171.207 195.289C173.459 195.899 175.711 196.51 177.963 197.133C178.785 197.394 179.618 197.432 180.439 197.245C181.273 197.207 182.045 196.958 182.754 196.51C183.475 196.124 184.06 195.588 184.496 194.902C185.043 194.304 185.417 193.594 185.603 192.784L185.827 191.127C185.827 190.006 185.541 188.959 184.981 187.987C184.098 186.629 182.853 185.558 181.261 185.122C179.009 184.511 176.756 183.901 174.504 183.278C173.683 183.016 172.849 182.979 172.028 183.166C171.195 183.203 170.423 183.452 169.714 183.901C168.992 184.287 168.407 184.823 167.972 185.508C167.425 186.106 167.051 186.816 166.865 187.626L166.641 189.283C166.641 190.405 166.927 191.451 167.487 192.423C168.37 193.781 169.614 194.853 171.207 195.289Z" fill="white"/>
</g>
<defs>
<clipPath id="clip0_323_4819">
<rect width="504" height="323" fill="white"/>
</clipPath>
</defs>
</svg>
