<svg width="651" height="607" viewBox="0 0 651 607" fill="none" xmlns="http://www.w3.org/2000/svg">
<path d="M538.192 352.753C533.352 357.866 528.513 362.966 523.659 368.077C522.727 369.06 521.658 370.11 520.209 370.103C519.233 370.096 518.282 369.619 517.304 369.387C514.621 368.738 512.134 369.998 509.582 370.585C507.03 371.171 503.545 370.626 502.376 368.054C501.319 365.633 499.141 363.592 496.673 362.7C497.165 361.668 497.657 360.636 498.148 359.618C491.495 356.028 485.541 350.852 481.018 344.728L484.139 344.192C480.676 339.592 477.726 334.651 475.345 329.509C475.775 328.645 476.714 328.097 477.733 328.1C476.637 324.9 473.962 322.307 472.553 319.202C471.16 316.085 471.987 311.647 475.249 311.634C476.139 311.635 477.048 311.976 477.927 311.946C480.608 311.866 481.634 308.566 481.041 305.864C480.447 303.161 478.829 300.622 478.523 297.917C478.217 295.212 480.117 292.175 482.786 292.947C483.565 293.173 484.322 293.702 485.078 293.629C486.397 293.521 486.717 291.861 486.613 290.52C486.286 286.004 484.299 281.557 483.626 277.043C482.954 272.53 484.093 267.38 488.131 265.858C489.347 265.403 490.861 265.229 491.532 264.142C492.771 262.111 490.105 258.694 491.635 256.885C492.349 256.046 493.661 256.007 494.64 255.482C498.148 253.582 496.296 246.339 500.32 245.569C503.053 245.039 505.4 248.227 506.804 250.883C512.062 260.85 519.69 272.317 530.441 272.998C528.24 268.907 525.987 264.649 525.579 260.212C525.171 255.775 527.145 251.103 531.281 249.982C532.275 244.84 529.138 237.657 533.432 234.921C536.687 232.848 541.726 235.483 545.296 233.919C547.429 232.982 548.546 230.768 550.283 229.274C552.707 227.187 556.158 226.646 559.229 225.552C562.299 224.458 565.386 222.347 565.558 218.985C568.982 221.923 573.736 223.174 577.717 222.156C579.285 221.757 580.762 221.028 582.422 220.959C584.63 220.865 586.85 221.922 589.075 222.435C597.739 224.401 604.786 217.961 610.298 211.998C602.832 218.591 606.381 231.92 612.571 241.282C613.378 242.509 614.251 243.78 614.48 245.164C615.052 248.8 610.985 251.562 611.963 255.168C612.915 258.628 617.946 260.336 618.536 263.822C618.907 265.968 617.35 268.008 618.175 270.079C618.776 271.594 620.475 272.556 621.121 274.053C621.619 275.221 621.389 276.469 621.154 277.631C620.131 282.528 619.108 287.425 618.084 292.321C617.608 294.589 617.758 297.901 620.122 298.572C618.722 301.377 617.323 304.169 615.937 306.977C625.585 305.886 634.892 303.397 643.528 299.616C645.917 305.193 639.839 312.198 644.513 316.259C645.467 317.086 646.77 317.619 647.274 318.732C647.768 319.801 647.308 320.925 646.866 321.898C643.275 329.632 639.685 337.365 636.108 345.102C635.287 346.868 634.454 348.743 634.663 350.795C634.787 352.085 635.33 353.361 635.382 354.648C635.531 358.225 632.102 360.313 630.201 363.097C628.147 366.098 627.861 370.077 626.491 373.491C625.121 376.905 621.791 380.01 617.979 378.814C619.412 380.217 618.376 382.478 616.861 383.408C615.346 384.338 613.379 384.712 612.378 386.17C611.722 387.121 611.57 388.443 610.707 389.205C609.923 389.902 608.737 389.971 607.642 390.006C599 390.341 590.372 390.68 581.73 391.016C576.561 389.625 571.407 388.237 566.238 386.846C565.207 386.574 564.122 386.262 563.301 385.535C562.35 384.694 561.919 383.444 561.509 382.269C557.633 371.018 552.238 360.123 545.517 350.005C528.749 368.777 516.899 391.988 511.153 417.317" fill="#6D8443"/>
<path d="M535.375 350.325C532.153 353.735 528.918 357.128 525.696 360.538C524.078 362.242 522.487 363.965 520.856 365.652C520.612 365.902 520.103 366.58 519.684 366.607C518.874 366.653 517.535 365.93 516.671 365.824C514.336 365.523 512.205 366.069 510.079 366.7C508.786 367.08 507.245 367.612 505.895 367.11C505.221 366.853 505.894 367.25 505.383 366.569C504.711 365.668 504.313 364.636 503.567 363.759C502.051 361.958 500.152 360.487 497.996 359.627L499.959 364.404C500.452 363.372 500.944 362.34 501.434 361.322C502.227 359.676 501.173 357.48 499.471 356.545C493.337 353.189 487.998 348.538 483.778 342.905L482.448 348.093L485.569 347.557C487.767 347.181 488.179 344.1 486.899 342.369C483.625 337.996 480.852 333.391 478.57 328.511L478.175 331.945C478.612 331.265 478.562 331.575 478.285 331.608C480.578 331.408 481.803 329.374 480.945 327.098C479.891 324.273 477.93 321.974 476.389 319.383C475.848 318.471 475.582 317.918 475.46 317.105C475.342 316.377 475.436 315.811 475.762 315.104C475.74 315.169 475.622 315.449 475.79 315.111C475.843 315.152 476.009 314.701 475.79 315.111C475.616 315 475.916 315.141 475.944 315.147C477.463 315.423 478.937 315.59 480.343 315.11C482.901 314.217 484.321 311.739 484.669 309.091C485.019 306.303 483.967 303.59 482.913 300.89C482.559 299.98 482.016 298.578 482.009 297.89C482.002 297.202 482.219 296.442 482.746 296.23C481.768 296.615 484.688 297.082 485.087 297.106C486.745 297.176 488.122 296.564 489.07 295.318C490.73 293.121 490.209 289.791 489.62 287.047C488.574 282.165 485.822 276.501 487.508 271.832C488.227 269.832 489.429 269.374 491.318 268.687C494.197 267.632 495.737 265.35 495.365 262.097C495.26 261.134 495.035 259.975 494.742 259.024C494.626 258.66 494.806 258.717 494.746 258.744C494.746 258.744 494.42 259.451 494.409 259.421C494.445 259.611 494.67 259.399 495 259.281C495.33 259.162 495.612 259.075 495.916 258.937C498.134 258.006 499.451 256.175 500.132 253.872C500.438 252.838 500.66 251.785 500.896 250.734C501.038 250.124 500.947 250.41 501.097 249.984C501.18 249.765 501.262 249.547 501.345 249.328C501.563 248.806 501.289 249.315 501.476 249.065C501.748 248.696 501.426 249.123 501.389 249.073L501.513 248.99C501.7 248.866 501.684 248.877 501.468 249.007C501.456 248.99 501.515 249.102 501.555 249.126C502.452 249.814 503.115 250.923 503.651 251.876C509.829 262.831 517.501 275.414 531.064 276.495C533.212 276.667 534.776 273.943 533.723 271.985C531.203 267.301 527.682 261.329 529.674 256.381C530.015 255.538 530.479 254.752 531.166 254.144C532.297 253.18 533.944 253.219 534.596 251.679C535.639 249.224 534.955 245.688 534.75 242.979C534.626 241.311 534.243 238.77 535.677 237.919C537.266 236.965 540.168 237.834 542.039 237.926C545.094 238.089 547.689 237.247 549.782 235.292C551.521 233.659 552.696 231.683 555.028 230.765C557.918 229.614 561.04 229.065 563.744 227.534C566.601 225.928 568.775 223.264 569.114 219.816L563.518 221.516C567.781 225.031 573.153 226.652 578.156 225.736C580.165 225.371 582.053 224.193 584.219 224.594C586.765 225.056 589.132 226.078 591.724 226.272C600.868 226.937 607.796 220.273 613.207 214.441C614.419 213.145 613.962 210.755 612.486 209.481C610.814 208.036 608.879 208.376 607.563 209.577C602.663 214.088 601.826 221.479 603.408 228.322C604.214 231.803 605.484 235.24 607.205 238.504C608.029 240.085 608.944 241.618 609.919 243.123C610.627 244.214 611.308 245.034 610.974 246.187C610.567 247.603 609.638 248.811 609.107 250.183C608.432 251.928 608.173 253.799 608.709 255.76C609.603 258.968 612.227 260.751 614.475 263.061C614.732 263.318 614.973 263.599 615.103 263.84C614.948 263.565 615.203 264.466 615.145 263.976C615.171 264.248 615.193 264.183 615.098 264.637C614.685 266.597 614.178 268.508 614.883 270.621C615.471 272.37 616.696 273.206 617.644 274.704C618.399 275.877 617.585 277.589 617.332 278.789C616.399 283.273 615.12 287.773 614.521 292.35C613.997 296.399 615.439 300.464 619.795 302.055L616.921 296.95C615.521 299.755 614.122 302.547 612.736 305.355C611.654 307.522 613.984 310.859 616.559 310.573C626.516 309.414 636.093 306.947 645.013 303.065L640.373 300.707C640.65 301.417 640.698 302.128 640.633 302.939C640.535 304.162 640.27 305.345 640.006 306.515C639.517 308.766 638.928 311.133 639.397 313.554C639.662 314.863 640.175 316.147 640.993 317.278C641.401 317.851 641.941 318.399 642.461 318.872C642.722 319.101 643.88 320.146 644.195 320.15C644.425 320.149 644.55 320.808 644.21 319.776C643.891 318.804 643.955 319.617 643.762 320.048C643.427 320.836 643.052 321.602 642.689 322.384C641.905 324.075 641.123 325.752 640.34 327.443C638.829 330.712 637.302 333.991 635.791 337.26C634.28 340.529 632.55 343.452 631.631 346.819C631.162 348.528 631.032 350.276 631.423 352.119C631.666 353.254 632.116 354.341 631.723 355.382C631.33 356.423 630.394 357.322 629.639 358.137C628.537 359.347 627.493 360.556 626.668 361.985C624.912 365.014 624.606 368.666 623.273 371.893C622.476 373.819 620.8 376.153 618.419 375.505C615.548 374.742 613.162 378.252 615.274 380.74C614.629 379.985 615.835 379.864 615.056 380.268C615.04 380.278 614.636 380.547 614.497 380.626C613.449 381.246 612.232 381.588 611.234 382.276C610.001 383.132 609.191 384.299 608.588 385.669C608.116 386.775 608.129 386.54 606.786 386.6C599.86 386.88 592.922 387.142 585.997 387.408C584.555 387.459 582.958 387.739 581.491 387.504C579.726 387.24 577.854 386.532 576.101 386.047C572.814 385.157 569.402 384.476 566.154 383.371C565.186 383.044 565.223 382.605 564.851 381.592C564.287 380.003 563.737 378.417 563.128 376.844C561.979 373.856 560.725 370.899 559.365 367.987C556.198 361.189 552.478 354.582 548.294 348.257C546.937 346.2 544.056 346.148 542.72 347.652C529.473 362.538 519.174 380.138 512.551 399.363C510.614 404.968 509.018 410.723 507.67 416.565C507.264 418.345 509.025 420.386 510.773 420.8C512.828 421.286 514.253 420.013 514.661 418.219C520.326 393.46 532.001 370.893 548.35 352.513L542.776 351.908C546.908 358.178 550.523 364.704 553.579 371.462C555.171 374.976 556.598 378.548 557.878 382.155C559.157 385.762 560.756 388.717 564.813 390.027C568.871 391.337 572.709 392.175 576.624 393.227C578.435 393.712 580.453 394.525 582.283 394.594C584.328 394.672 586.395 394.433 588.415 394.351C592.511 394.2 596.595 394.032 600.691 393.881C602.51 393.808 604.328 393.734 606.144 393.674C607.961 393.613 609.777 393.679 611.368 393.089C613.528 392.284 614.13 390.676 615.175 388.837C615.843 387.651 617.47 387.364 618.635 386.73C621.732 385.026 623.631 380.505 620.722 377.086L617.577 382.321C621.115 383.27 624.313 382.066 626.681 379.84C629.048 377.614 630.119 374.549 630.96 371.36C631.415 369.661 631.842 367.942 632.596 366.384C633.235 365.079 634.258 364.047 635.226 363.002C637.446 360.559 639.286 357.802 638.794 354.087C638.596 352.57 637.915 351.12 638.259 349.634C638.666 347.84 639.723 346.144 640.471 344.514C642.132 340.945 643.778 337.372 645.439 333.802C647.099 330.232 648.943 326.818 650.351 323.189C651.76 319.56 650.265 316.084 646.62 313.807C645.883 313.352 646.341 313.489 646.442 313.611C646.754 314.021 646.263 313.289 646.225 313.125C646.361 313.69 646.22 312.914 646.221 312.788C646.215 312.465 646.185 312.976 646.207 312.407C646.266 311.021 646.606 309.687 646.901 308.371C647.597 305.203 648.063 302.023 646.752 298.688C646.086 296.99 643.729 295.635 642.112 296.33C633.737 299.963 624.762 302.446 615.402 303.536L619.225 308.753C620.625 305.948 622.023 303.156 623.409 300.348C624.475 298.206 622.605 295.985 620.536 295.243C619.916 295.013 621.357 295.718 621.399 295.728C621.763 295.814 621.299 296.222 621.491 295.805C621.608 295.539 621.394 294.648 621.421 294.417C621.589 292.706 622.054 291.038 622.402 289.384C623.173 285.688 624 281.991 624.729 278.285C625.048 276.638 625.127 274.823 624.376 273.119C623.681 271.54 622.208 270.618 621.44 269.176C621.38 269.078 621.475 269.87 621.484 269.172C621.481 268.821 621.578 268.48 621.646 268.133C621.809 267.345 622.026 266.584 622.104 265.777C622.254 263.978 621.793 262.244 620.789 260.607C619.482 258.491 616.802 256.821 615.643 255.16C615.322 254.706 615.264 254.581 615.495 253.823C615.93 252.414 616.83 251.213 617.361 249.84C618.675 246.413 617.813 243.296 615.654 239.971C613.885 237.242 612.398 234.44 611.294 231.434C609.074 225.392 608.598 218.671 613.143 214.496L607.499 209.632C603.368 214.073 597.722 220.2 590.543 219.313C588.546 219.065 586.613 218.145 584.63 217.774C582.184 217.321 580.057 217.7 577.852 218.397C574.423 219.49 570.843 219.147 567.67 216.519C565.532 214.754 562.336 215.566 562.074 218.22C561.654 222.489 555.015 222.892 551.892 224.198C549.403 225.233 547.51 226.703 545.772 228.701C544.381 230.304 543.443 231.09 541.141 231.007C538.838 230.924 536.394 230.444 534.072 230.903C531.59 231.38 529.543 232.94 528.509 235.187C526.521 239.477 528.57 244.639 527.797 249.231L529.87 246.697C525.164 248.146 522.379 252.625 522.071 257.551C521.726 263.294 524.434 268.835 527.25 274.066L529.909 269.557C525.156 269.174 520.935 265.669 517.856 261.972C515.951 259.687 514.278 257.247 512.758 254.731C511.238 252.215 510.043 249.496 508.368 247.084C506.407 244.281 503.453 241.874 500.066 242.095C497.448 242.259 495.538 244.006 494.654 246.317C494.263 247.345 494.035 248.453 493.794 249.544C493.554 250.635 493.547 250.942 493.072 251.949C493.072 251.949 492.837 252.37 492.727 252.456C493.041 252.222 491.982 252.686 491.892 252.72C490.35 253.266 488.908 254.059 488.201 255.586C487.648 256.771 487.602 258.174 487.819 259.528C487.902 260.051 488.045 260.561 488.159 261.064C488.209 261.258 488.239 261.741 488.345 261.948C489.169 263.642 488.158 262.072 488.456 262.227C488.199 262.096 489.296 261.921 488.66 261.953C488.805 261.945 488.119 262.161 488.254 262.109C487.773 262.303 487.258 262.405 486.764 262.582C485.397 263.099 484.233 263.86 483.224 264.881C479.481 268.7 479.509 274.952 480.83 280.319C481.615 283.473 482.72 286.605 483.098 289.803C483.111 289.946 483.103 291.008 483.13 291.028C483.116 291.025 483.212 290.81 483.239 290.83L484.719 290.2L483.81 289.859C482.331 289.355 480.858 289.301 479.493 289.804C476.914 290.748 475.333 293.384 475.075 296.123C474.771 299.258 476.367 302.24 477.383 305.267C477.747 306.347 477.912 307.282 477.588 308.101C477.483 308.385 477.3 308.607 477.27 308.614C477.73 308.485 476.717 308.428 476.504 308.405C473.17 307.924 470.386 309.156 469.138 312.137C468.111 314.568 468.257 317.669 469.402 320.32C470.763 323.471 473.384 326.023 474.582 329.219L477.241 324.71C475.066 324.895 472.998 325.89 472.131 327.925C471.265 329.961 473.169 332.763 474.218 334.748C476.333 338.707 478.725 342.507 481.437 346.145L482.767 340.957L479.646 341.493C477.449 341.869 477.037 344.95 478.317 346.681C483.295 353.334 489.656 358.843 496.883 362.808L494.919 358.031C494.427 359.062 493.935 360.094 493.444 361.112C492.742 362.598 493.609 365.169 495.408 365.889C497.206 366.609 498.41 367.636 499.314 369.39C500.535 371.751 502.606 373.347 505.112 374.038C507.326 374.646 509.529 374.467 511.601 373.935C513.673 373.403 515.519 372.468 517.835 373.184C520.513 374 522.906 373.796 524.919 372.158C526.805 370.616 528.378 368.678 530.06 366.92C533.722 363.053 537.4 359.177 541.062 355.311C543.973 352.233 538.327 347.383 535.418 350.447L535.375 350.325Z" fill="#6D8443"/>
<path d="M592.24 232.635C587.916 246.88 581.5 260.314 575.069 273.506C567.749 288.524 559.945 303.247 552.089 317.929C548.467 324.683 544.831 331.433 541.263 338.214C540.43 339.8 541.54 342.12 543.223 342.989C545.094 343.959 546.966 343.204 547.814 341.607C554.688 328.56 561.765 315.63 568.614 302.55C576.334 287.807 583.909 272.947 590.59 257.612C593.655 250.574 596.559 243.442 598.807 236.018C599.341 234.278 598.746 232.232 596.847 231.242C595.22 230.4 592.791 230.871 592.256 232.624L592.24 232.635Z" fill="#5B6E30"/>
<path d="M489.726 335.344C494.148 344.864 501.64 352.971 510.832 358.149C512.513 359.091 514.78 358.43 515.403 356.764C516.05 355.006 515.253 352.994 513.452 351.981C511.14 350.68 510.249 350.092 508.232 348.48C506.422 347.044 504.716 345.464 503.137 343.773C503.404 344.061 503.251 343.898 503.073 343.702C502.846 343.438 502.618 343.188 502.392 342.91C502.014 342.47 501.651 342.02 501.288 341.57C500.601 340.706 499.958 339.825 499.333 338.92C499.003 338.435 498.7 337.957 498.384 337.475C498.227 337.228 498.083 336.984 497.926 336.736C497.938 336.753 497.448 335.921 497.639 336.247C497.841 336.604 497.401 335.826 497.368 335.748C497.226 335.49 497.098 335.235 496.968 334.994C496.675 334.434 496.412 333.867 496.148 333.299C495.347 331.566 493.274 330.307 491.525 330.95C489.879 331.56 488.87 333.472 489.728 335.331L489.726 335.344Z" fill="#5B6E30"/>
<path d="M501.866 289.654C506.274 300.932 512.487 311.721 520.147 321.403C521.398 322.973 523.55 323.576 525.086 322.561C526.516 321.605 526.898 319.308 525.648 317.725C518.338 308.489 512.506 298.365 508.295 287.611C506.594 283.254 500.167 285.284 501.868 289.641L501.866 289.654Z" fill="#5B6E30"/>
<path d="M616.05 320.524C601.181 329.072 583.985 333.755 566.067 334.292C561.616 334.426 562.677 341.449 567.155 341.322C586.307 340.752 604.556 335.627 620.42 326.513C624.129 324.391 619.744 318.399 616.051 320.51L616.05 320.524Z" fill="#5B6E30"/>
<path d="M597.307 365.067C595.8 365.598 594.26 366.051 592.7 366.429C591.862 366.626 591.025 366.808 590.176 366.974C590.045 366.999 589.126 367.149 589.767 367.047C589.345 367.116 588.908 367.182 588.486 367.237C585.259 367.687 581.954 367.809 578.626 367.645C576.791 367.551 575.351 369.489 575.701 371.286C576.096 373.305 577.749 374.593 579.712 374.689C586.769 375.028 593.737 374.024 600.147 371.793C601.802 371.212 602.791 369.224 601.942 367.408C601.094 365.592 599.095 364.448 597.322 365.057L597.307 365.067Z" fill="#5B6E30"/>
<path d="M541.412 251.042C542.365 259.623 544.595 268.209 547.928 276.45C548.662 278.277 550.85 279.336 552.564 278.797C554.278 278.258 555.101 276.248 554.366 274.422C551.236 266.663 549.278 258.94 548.36 250.801C548.151 248.901 546.163 247.356 544.334 247.405C542.388 247.469 541.19 249.124 541.398 251.038L541.412 251.042Z" fill="#5B6E30"/>
<path d="M600.642 282.084C594.181 286.661 587.436 290.848 580.438 294.625C578.909 295.459 578.704 297.966 579.876 299.463C581.213 301.152 583.177 301.501 584.812 300.621C591.812 296.83 598.557 292.643 605.016 288.08C606.422 287.076 606.838 284.843 605.578 283.242C604.317 281.64 602.155 281.021 600.642 282.084Z" fill="#5B6E30"/>
<path d="M361.816 565.157C392.314 565.157 417.038 544.076 417.038 518.071C417.038 492.066 392.314 470.984 361.816 470.984C331.318 470.984 306.594 492.066 306.594 518.071C306.594 544.076 331.318 565.157 361.816 565.157Z" fill="#8076B6"/>
<path d="M318.874 508.468C317.877 521.897 325.73 534.379 336.357 541.623C348.236 549.722 363.469 551.004 377.288 549.425C379.718 549.146 381.822 547.493 381.822 544.781C381.822 542.478 379.737 539.859 377.288 540.137C365.392 541.493 352.552 540.936 342.07 534.361C333.383 528.9 327.144 519.13 327.942 508.468C328.124 505.96 325.73 503.824 323.408 503.824C320.797 503.824 319.056 505.96 318.874 508.468Z" fill="#A09BCC"/>
<path d="M465.73 606.909C496.228 606.909 520.952 585.828 520.952 559.823C520.952 533.818 496.228 512.736 465.73 512.736C435.232 512.736 410.508 533.818 410.508 559.823C410.508 585.828 435.232 606.909 465.73 606.909Z" fill="#8076B6"/>
<path d="M422.789 550.22C421.791 563.649 429.644 576.131 440.271 583.375C452.15 591.474 467.383 592.755 481.202 591.177C483.633 590.898 485.736 589.245 485.736 586.533C485.736 584.23 483.651 581.611 481.202 581.889C469.306 583.245 456.466 582.688 445.984 576.113C437.297 570.652 431.058 560.882 431.856 550.22C432.038 547.712 429.644 545.576 427.322 545.576C424.711 545.576 422.97 547.712 422.789 550.22Z" fill="#A09BCC"/>
<path d="M423.062 515.356C451.457 515.356 474.476 498.392 474.476 477.464C474.476 456.537 451.457 439.572 423.062 439.572C394.667 439.572 371.648 456.537 371.648 477.464C371.648 498.392 394.667 515.356 423.062 515.356Z" fill="#775CA3"/>
<path d="M398.482 457.813C397.611 460.209 396.07 462.661 395.272 465.243C394.474 467.825 394.383 470.555 394.764 473.23C395.489 478.208 398.264 482.87 401.873 486.251C405.899 490.058 410.977 492.343 416.254 493.717C418.757 494.368 421.314 494.813 423.871 495.222C425.249 495.445 426.646 495.631 428.024 495.835C428.623 495.928 429.203 496.002 429.801 496.095C430.092 496.132 430.4 496.188 430.69 496.262C431.651 496.615 431.343 496.281 429.747 495.278C431.18 497.302 433.682 498.305 435.949 496.949C437.908 495.779 439.014 492.64 437.582 490.597C435.714 487.959 433.41 487.309 430.436 486.863C427.97 486.492 425.485 486.158 423.037 485.712C418.394 484.857 413.697 483.669 409.762 480.901C406.969 478.932 404.539 475.607 403.777 472.208C403.777 472.134 403.578 470.722 403.632 471.484C403.578 470.908 403.578 470.332 403.596 469.756C403.632 468.995 403.759 468.345 404.213 467.156C405.029 464.964 406.389 462.605 407.241 460.265C408.093 457.924 406.28 455.175 404.067 454.544C401.528 453.819 399.352 455.435 398.482 457.794V457.813Z" fill="#9C8AC0"/>
<path d="M293.528 400.086C316.614 400.086 335.329 383.224 335.329 362.425C335.329 341.625 316.614 324.764 293.528 324.764C270.442 324.764 251.727 341.625 251.727 362.425C251.727 383.224 270.442 400.086 293.528 400.086Z" fill="#85B726"/>
<path d="M349.034 402.38C369.681 402.38 386.419 385.353 386.419 364.35C386.419 343.347 369.681 326.32 349.034 326.32C328.386 326.32 311.648 343.347 311.648 364.35C311.648 385.353 328.386 402.38 349.034 402.38Z" fill="#80A02A"/>
<path d="M323.717 537.405C345.575 537.405 363.294 519.38 363.294 497.146C363.294 474.911 345.575 456.887 323.717 456.887C301.86 456.887 284.141 474.911 284.141 497.146C284.141 519.38 301.86 537.405 323.717 537.405Z" fill="#80A02A"/>
<path d="M359.565 512.933C383.971 512.933 403.755 492.808 403.755 467.981C403.755 443.155 383.971 423.029 359.565 423.029C335.16 423.029 315.375 443.155 315.375 467.981C315.375 492.808 335.16 512.933 359.565 512.933Z" fill="#85B726"/>
<path d="M278.197 496.375C298.999 496.375 315.862 475.371 315.862 449.462C315.862 423.552 298.999 402.549 278.197 402.549C257.395 402.549 240.531 423.552 240.531 449.462C240.531 475.371 257.395 496.375 278.197 496.375Z" fill="#80A02A"/>
<path d="M463.626 512.934C487.676 512.934 507.173 493.101 507.173 468.636C507.173 444.171 487.676 424.338 463.626 424.338C439.575 424.338 420.078 444.171 420.078 468.636C420.078 493.101 439.575 512.934 463.626 512.934Z" fill="#A0C528"/>
<path d="M449.373 455.328C467.243 439.08 466.103 408.122 446.825 386.182C427.547 364.241 397.432 359.627 379.561 375.875C361.69 392.123 362.831 423.081 382.109 445.022C401.387 466.962 431.502 471.576 449.373 455.328Z" fill="#80A02A"/>
<path d="M363.071 490.212C391.911 483.719 410.967 458.585 405.634 434.074C400.301 409.563 372.598 394.957 343.758 401.45C314.918 407.943 295.862 433.077 301.195 457.588C306.528 482.099 334.231 496.705 363.071 490.212Z" fill="#A0C528"/>
<path d="M442.67 392.023C467.021 392.023 486.761 373.556 486.761 350.775C486.761 327.995 467.021 309.527 442.67 309.527C418.319 309.527 398.578 327.995 398.578 350.775C398.578 373.556 418.319 392.023 442.67 392.023Z" fill="#85B726"/>
<path d="M512.846 464.33C529.116 449.537 528.176 421.466 510.748 401.63C493.32 381.795 466.002 377.707 449.732 392.499C433.463 407.292 434.402 435.363 451.83 455.198C469.258 475.034 496.576 479.122 512.846 464.33Z" fill="#85B726"/>
<path d="M526.209 484.692C554.9 484.692 578.159 465.377 578.159 441.55C578.159 417.723 554.9 398.408 526.209 398.408C497.517 398.408 474.258 417.723 474.258 441.55C474.258 465.377 497.517 484.692 526.209 484.692Z" fill="#A0C528"/>
<path d="M543.183 499.822C569.065 487.573 582.376 460.872 572.914 440.184C563.452 419.495 534.8 412.654 508.918 424.903C483.036 437.152 469.725 463.853 479.187 484.541C488.649 505.229 517.301 512.071 543.183 499.822Z" fill="#85B726"/>
<path d="M448.312 563.299C473.764 563.299 494.397 547.068 494.397 527.046C494.397 507.024 473.764 490.793 448.312 490.793C422.86 490.793 402.227 507.024 402.227 527.046C402.227 547.068 422.86 563.299 448.312 563.299Z" fill="#80A02A"/>
<path d="M324.824 351.111C322.665 358.988 323.671 367.704 327.823 374.743C331.645 381.213 337.84 385.973 344.925 388.135C350.017 389.694 352.192 381.598 347.117 380.056C342.042 378.514 337.643 375.112 334.941 370.519C331.843 365.29 331.184 359.106 332.766 353.34C334.199 348.144 326.257 345.915 324.824 351.111Z" fill="#A0C528"/>
<path d="M418.103 454.741C424.825 456.283 432.207 454.976 437.792 450.786C438.682 450.116 439.374 449.412 439.687 448.289C439.951 447.283 439.835 445.942 439.275 445.054C438.171 443.311 435.485 442.154 433.64 443.545C432.487 444.417 431.251 445.121 429.949 445.758C429.537 445.942 429.62 445.909 430.196 445.657C430.032 445.724 429.867 445.791 429.702 445.858C429.455 445.959 429.191 446.043 428.944 446.127C428.269 446.361 427.577 446.546 426.885 446.696C426.539 446.78 426.176 446.831 425.83 446.898C425.385 446.965 425.484 446.948 426.127 446.864C425.945 446.881 425.764 446.914 425.599 446.931C424.973 446.998 424.347 447.032 423.721 447.032C423.013 447.032 422.304 446.981 421.579 446.931C421.118 446.881 421.217 446.898 421.876 446.981C421.694 446.948 421.53 446.931 421.348 446.898C421.002 446.831 420.64 446.763 420.294 446.68C418.201 446.194 415.73 447.333 415.219 449.613C414.741 451.741 415.845 454.255 418.103 454.775V454.741Z" fill="#A0C528"/>
<path d="M410.559 410.894C415.683 409.301 420.033 405.933 422.999 401.407C423.576 400.536 423.674 399.161 423.411 398.172C423.147 397.184 422.406 396.144 421.516 395.675C419.44 394.569 417.15 395.223 415.881 397.184C415.65 397.536 415.403 397.888 415.156 398.223L415.799 397.368C414.843 398.625 413.722 399.765 412.487 400.754L413.327 400.1C412.042 401.106 410.641 401.944 409.142 402.597L410.131 402.178C409.554 402.43 408.961 402.631 408.368 402.832C407.363 403.15 406.44 403.821 405.913 404.759C405.385 405.698 405.171 406.989 405.501 407.994C406.176 410.106 408.368 411.614 410.575 410.927L410.559 410.894Z" fill="#A0C528"/>
<path d="M295.573 500.716C293.744 508.326 297.632 515.667 303.498 520.226C309.364 524.784 316.729 525.991 323.682 527.366C325.791 527.785 328.229 526.762 328.757 524.432C329.218 522.354 328.147 519.723 325.873 519.27C322.808 518.667 319.744 518.114 316.729 517.276C313.713 516.438 311.604 515.7 308.886 513.89C308.622 513.706 308.358 513.521 308.111 513.337C307.765 513.069 308.424 513.639 307.897 513.136C307.37 512.633 306.843 512.164 306.365 511.644C306.151 511.409 305.936 511.158 305.722 510.907C304.931 509.985 306.101 511.527 305.426 510.504C305.063 509.968 304.717 509.432 304.421 508.845C304.239 508.51 304.075 508.158 303.91 507.806C304.157 508.359 303.943 507.856 303.844 507.571C303.613 506.918 303.465 506.247 303.333 505.56C303.465 506.163 303.35 505.761 303.333 505.376C303.317 505.057 303.3 504.756 303.3 504.437C303.3 504.337 303.399 503.096 303.284 504.052C303.333 503.666 303.432 503.297 303.514 502.929C304.025 500.8 302.855 498.286 300.631 497.766C298.407 497.247 296.116 498.42 295.556 500.699L295.573 500.716Z" fill="#A0C528"/>
<path d="M417.301 518.935C414.895 529.31 420.316 539.467 428.521 545.434C432.756 548.518 437.781 550.479 442.807 551.752C445.344 552.389 447.914 552.859 450.485 553.244C453.368 553.663 456.351 554.283 458.97 552.54C463.386 549.607 459.267 542.35 454.818 545.3C454.851 545.333 454.884 545.35 454.933 545.35C455.148 545.367 454.983 545.367 454.439 545.35C454.077 545.35 453.681 545.283 453.335 545.232C452.33 545.115 451.325 544.931 450.32 544.763C448.343 544.428 446.366 544.009 444.438 543.506C440.434 542.45 436.628 540.925 433.201 538.528C427.731 534.724 423.776 527.634 425.292 521.148C426.511 515.901 418.57 513.672 417.35 518.918L417.301 518.935Z" fill="#A0C528"/>
<path d="M266.071 422.744C266.17 422.476 266.269 422.191 266.368 421.923L265.956 422.929C266.368 421.957 266.879 421.068 267.505 420.23L266.862 421.085C267.571 420.163 268.378 419.342 269.284 418.621L268.444 419.275C269.367 418.571 270.339 417.984 271.41 417.515L270.421 417.934C271.426 417.515 272.464 417.213 273.552 417.063L272.464 417.213C272.975 417.146 273.486 417.113 273.997 417.113C276.155 417.096 278.215 415.202 278.116 412.923C278.017 410.643 276.303 408.716 273.997 408.733C266.829 408.8 260.453 413.694 258.13 420.532C257.421 422.61 258.937 425.208 261.013 425.694C263.303 426.231 265.33 424.99 266.088 422.761L266.071 422.744Z" fill="#A0C528"/>
<path d="M535.334 568.442C558.737 580.448 584.21 576.572 592.229 559.784C600.249 542.996 587.778 519.653 564.375 507.646C540.972 495.64 515.499 499.516 507.479 516.304C499.46 533.092 511.931 556.435 535.334 568.442Z" fill="#85B726"/>
<path d="M523.959 510.641C517.823 517.088 515.809 526.864 518.158 535.522C520.894 545.662 530.415 551.204 538.981 555.505C540.982 556.517 543.511 555.364 544.371 553.344C545.273 551.187 544.203 548.795 542.202 547.783C535.685 544.513 528.17 540.653 525.921 533.004C525.654 532.073 525.405 530.253 525.355 528.856C525.313 527.638 525.502 525.88 525.784 524.436C526.44 521.215 528.058 518.36 530.375 515.935C531.92 514.311 531.335 511.352 529.717 510.012C527.843 508.459 525.501 508.993 523.957 510.618L523.959 510.641Z" fill="#3483CC" fill-opacity="0.5"/>
<path d="M264.153 352.35C262.506 361.837 265.982 371.793 273.199 378.095C280.91 384.816 291.06 386.911 300.929 385.402C303.137 385.067 304.34 382.235 303.813 380.24C303.17 377.843 300.962 376.972 298.738 377.307C292.164 378.296 284.288 376.737 279.032 372.145C276.511 369.949 274.451 367.133 273.331 364.284C273.001 363.463 272.738 362.591 272.507 361.736C272.392 361.267 272.276 360.798 272.177 360.312C272.161 360.194 271.996 359.256 272.062 359.742C271.831 358.066 271.897 355.77 272.111 354.563C272.49 352.334 271.518 350.054 269.228 349.401C267.234 348.847 264.549 350.088 264.153 352.334V352.35Z" fill="#A7CB69"/>
<path d="M416.854 334.083C412.34 343.536 413.196 355.168 419.523 363.598C426.74 373.219 439.707 377.392 451.241 377.174C456.53 377.074 456.546 368.694 451.241 368.794C442.442 368.945 432.112 366.179 426.328 358.922C421.814 353.24 420.891 344.759 423.972 338.29C424.944 336.262 424.516 333.764 422.489 332.558C420.677 331.485 417.826 332.021 416.854 334.066V334.083Z" fill="#A7CB69"/>
<path d="M452.3 411.214C449.368 425.209 455.167 439.909 466.717 448.021C468.546 449.311 471.298 448.373 472.352 446.512C473.555 444.434 472.715 442.071 470.87 440.78C469.815 440.043 469.222 439.557 468.167 438.534C467.212 437.629 466.108 436.389 465.449 435.534C464.839 434.746 463.966 433.389 463.373 432.316C462.78 431.243 462.005 429.668 461.725 428.93C461.231 427.64 460.819 426.299 460.489 424.958C460.324 424.288 460.176 423.6 460.061 422.913C460.061 422.829 459.896 421.891 459.962 422.427C459.913 422.125 459.896 421.807 459.863 421.505C459.731 420.047 459.682 418.589 459.764 417.114C459.797 416.427 459.847 415.723 459.929 415.036C459.863 415.472 459.962 414.902 459.978 414.784C460.061 414.332 460.143 413.879 460.242 413.427C460.703 411.214 459.6 408.901 457.359 408.264C455.299 407.695 452.762 408.968 452.284 411.198L452.3 411.214Z" fill="#A7CB69"/>
<path d="M494.414 451.39C491.695 461.815 489.405 473.783 496.539 483.001C499.604 486.956 504.003 489.32 508.6 490.962C513.197 492.605 518.766 494.666 523.528 492.454C525.554 491.515 526.049 488.532 525.011 486.722C523.791 484.61 521.402 484.275 519.376 485.213C518.634 485.565 516.41 484.576 515.553 484.342C513.691 483.822 511.829 483.286 510.017 482.599C507.068 481.476 504.135 479.733 502.372 476.984C497.89 470.028 500.444 460.977 502.372 453.62C503.739 448.407 495.781 446.178 494.43 451.39H494.414Z" fill="#3483CC" fill-opacity="0.5"/>
<path d="M315.418 438.097C313.375 449.997 315.978 463.707 325.403 471.87C334.004 479.312 347.564 481.49 357.104 474.501C358.9 473.177 359.773 470.848 358.587 468.769C357.549 466.959 354.764 465.937 352.952 467.261C346.377 472.071 336.936 471.116 330.857 465.601C324.002 459.383 321.844 449.21 323.376 440.326C323.755 438.097 322.783 435.818 320.493 435.164C318.499 434.611 315.813 435.851 315.418 438.097Z" fill="#7EA33E"/>
<path d="M435.797 474.736C438.285 477.954 442.041 480.2 445.699 481.809C450.609 483.971 455.734 485.362 461.039 486.099C463.164 486.401 465.57 485.58 466.114 483.166C466.559 481.189 465.521 478.339 463.23 478.004C460.709 477.652 458.205 477.166 455.75 476.512C454.63 476.211 453.526 475.876 452.422 475.507C451.894 475.322 451.367 475.138 450.856 474.937C450.576 474.836 450.296 474.719 450.016 474.602C449.851 474.535 449.077 474.199 449.851 474.551C448.072 473.747 446.342 472.859 444.727 471.752C444.529 471.618 444.332 471.467 444.134 471.333C443.755 471.065 443.557 471.199 444.167 471.384C443.87 471.3 443.442 470.78 443.244 470.579C442.651 470.026 442.107 469.439 441.613 468.803C440.278 467.076 437.164 467.277 435.78 468.803C434.116 470.646 434.347 472.875 435.78 474.736H435.797Z" fill="#7EA33E"/>
<path d="M360.425 253.765C358.717 290.633 382.011 316.224 390.891 348.379C393.334 357.234 394.788 366.794 393.743 376.24C393.461 378.779 394.209 381.374 396.214 382.118C397.88 382.729 400.265 381.355 400.562 378.779C402.609 360.325 397.767 342.902 391.103 327.063C384.439 311.224 376.449 297.885 371.395 281.607C368.642 272.753 367.06 263.402 367.498 253.765C367.78 247.639 360.722 247.658 360.439 253.765H360.425Z" fill="#80A02A"/>
<path d="M369.959 298.565C360.907 306.058 354.897 314.187 351.155 322.697C347.186 331.693 345.088 340.68 348.452 349.807C350.305 354.837 353.82 359.708 358.904 364.159C361.89 366.772 370.054 364.43 367.068 361.808C358.677 354.454 355.502 346.009 356.182 337.628C356.522 333.392 358.034 329.239 359.773 325.096C361.512 320.952 363.477 317.191 366.199 313.365C369.279 309.017 373.361 304.883 378.143 300.926C381.261 298.341 373.097 295.989 369.978 298.574L369.959 298.565Z" fill="#80A02A"/>
<path d="M429.766 304.613C430.905 310.394 432.099 316.359 434.672 321.224C437.376 326.34 441.302 329.982 445.701 333.121C447.258 334.227 449.885 332.948 451.104 330.866C452.455 328.558 451.982 326.158 450.426 325.052C449.327 324.278 448.259 323.48 447.227 322.594C447.593 322.917 447.1 322.476 446.973 322.359C446.746 322.161 446.528 321.947 446.314 321.756C445.893 321.358 445.495 320.951 445.093 320.521C444.354 319.72 443.655 318.877 443.016 317.961C442.704 317.518 442.425 317.074 442.134 316.622C441.76 316.034 442.266 316.872 442.051 316.486C441.932 316.243 441.791 316.009 441.672 315.766C440.662 313.81 439.891 311.668 439.259 309.456C438.82 307.92 438.73 307.543 438.421 306.148C438.067 304.576 437.748 303.002 437.438 301.412C437.017 299.258 435.315 297.98 433.133 298.891C431.188 299.703 429.367 302.451 429.788 304.604L429.766 304.613Z" fill="#80A02A"/>
<path d="M329.325 314.558C341.481 328.001 344.323 345.615 345.09 361.496C345.315 366.019 354.665 366.033 354.441 361.496C353.618 344.445 350.457 325.436 337.404 311.007C334.038 307.286 325.921 310.795 329.325 314.558Z" fill="#80A02A"/>
<path d="M242.658 231.656C231.183 254.729 238.285 281.592 258.519 291.654C278.754 301.717 304.459 291.17 315.934 268.097C327.409 245.023 320.308 218.161 300.073 208.098C279.838 198.035 254.133 208.582 242.658 231.656Z" fill="#775CA3"/>
<path d="M183.736 316.718C174.33 335.629 182.523 358.827 202.035 368.53C221.546 378.233 244.987 370.768 254.392 351.856C263.798 332.944 255.605 309.747 236.093 300.044C216.582 290.341 193.141 297.806 183.736 316.718Z" fill="#5E4696"/>
<path d="M279.185 192.52C269.719 211.555 275.981 233.916 293.171 242.465C310.362 251.014 331.972 242.514 341.438 223.479C350.904 204.444 344.642 182.083 327.452 173.534C310.261 164.985 288.651 173.485 279.185 192.52Z" fill="#8076B6"/>
<path d="M330.737 186.167C323.608 180.939 314.275 180.685 306.739 184.723C299.202 188.762 294.49 197.586 293.727 206.051C293.546 208.146 294.686 210.222 296.949 210.688C298.919 211.095 301.395 209.76 301.597 207.658C302.165 201.282 304.843 195.14 310.449 191.771C312.754 190.386 315.398 189.724 318.275 189.715C319.545 189.723 320.74 189.918 322.275 190.334C322.683 190.451 322.971 190.559 323.74 190.924C324.143 191.125 324.532 191.318 324.921 191.546C325.583 191.91 324.841 191.454 325.512 191.944C327.26 193.23 329.632 193.369 331.155 191.716C332.466 190.27 332.528 187.474 330.766 186.181L330.737 186.167Z" fill="#A09BCC"/>
<path d="M189.364 199.999C166.259 211.076 154.604 234.817 163.334 253.025C172.063 271.234 197.87 277.016 220.976 265.939C244.082 254.862 255.736 231.122 247.007 212.913C238.277 194.704 212.47 188.922 189.364 199.999Z" fill="#8076B6"/>
<path d="M238.73 218.709C234.06 209.506 223.718 205.427 214.156 205.128C203.685 204.801 193.538 208.311 185.541 214.978C181.701 218.174 186.905 224.287 190.752 221.071C196.913 215.925 204.905 212.949 212.986 213.067C219.836 213.17 228.254 215.212 231.729 222.065C234.057 226.67 241.065 223.329 238.73 218.709Z" fill="#3483CC" fill-opacity="0.5"/>
<path d="M131.604 298.789C119.977 322.17 126.883 349.246 147.031 359.265C167.178 369.285 192.936 358.453 204.564 335.073C216.191 311.692 209.285 284.616 189.138 274.596C168.99 264.577 143.232 275.408 131.604 298.789Z" fill="#8076B6"/>
<path d="M191.893 287.712C181.869 281.773 169.205 282.984 159.541 288.34C148.738 294.326 141.937 305.511 137.892 316.713C137.181 318.683 137.66 320.933 139.761 321.978C141.546 322.865 144.37 322.276 145.087 320.291C148.572 310.649 153.899 301.02 162.99 295.518C170.533 290.962 180.48 289.944 188.436 294.663C190.31 295.769 192.877 294.756 193.762 292.977C194.758 290.975 193.767 288.817 191.893 287.712Z" fill="#A09BCC"/>
<path d="M238.724 164.408C226.875 188.234 235.471 216.6 257.922 227.766C280.374 238.931 308.181 228.668 320.03 204.842C331.879 181.016 323.283 152.65 300.832 141.484C278.38 130.318 250.573 140.581 238.724 164.408Z" fill="#775CA3"/>
<path d="M299.174 150.099C290.44 145.825 280.193 145.965 271.747 150.245C262.585 154.88 257.469 164.336 252.99 172.981C250.692 177.422 257.887 181.001 260.186 176.56C263.917 169.381 267.881 161.554 275.237 157.374C281.363 153.9 289.307 153.914 295.732 157.057C300.379 159.334 303.836 152.382 299.189 150.106L299.174 150.099Z" fill="#3483CC" fill-opacity="0.5"/>
<path d="M237.282 276.198C228.308 294.242 243.106 319.847 270.335 333.388C297.563 346.929 326.911 343.279 335.885 325.234C344.858 307.19 330.06 281.585 302.831 268.044C275.603 254.503 246.255 258.154 237.282 276.198Z" fill="#5E4696"/>
<path d="M304.962 292.137C305.495 292.437 306.014 292.764 306.533 293.092C305.855 292.651 306.569 293.127 306.7 293.227C306.952 293.404 307.198 293.596 307.436 293.767C308.412 294.512 309.338 295.32 310.202 296.182C310.637 296.607 311.058 297.059 311.479 297.511C311.094 297.094 311.451 297.497 311.632 297.709C311.822 297.942 312.025 298.182 312.208 298.429C312.966 299.395 313.653 300.396 314.298 301.445C314.613 301.966 314.907 302.494 315.194 303.035C315.334 303.295 315.408 303.471 315.231 303.106C315.393 303.429 315.548 303.766 315.689 304.097C316.156 305.144 316.566 306.232 316.898 307.333C317.078 307.909 317.237 308.491 317.375 309.08C317.429 309.332 317.538 309.872 317.429 309.332C317.484 309.619 317.546 309.928 317.594 310.229C317.799 311.476 317.912 312.728 317.947 313.994C318.008 316.036 320.194 317.886 322.246 317.693C324.484 317.488 325.97 315.764 325.906 313.582C325.549 302.029 318.621 291.092 308.391 285.206C306.561 284.158 303.87 285.057 303.065 286.893C302.162 288.924 302.981 291.031 304.934 292.158L304.962 292.137Z" fill="#8974B3"/>
<path d="M105.054 158.005C95.4737 177.27 108.549 203.253 134.26 216.039C159.97 228.825 188.579 223.573 198.16 204.308C207.741 185.043 194.665 159.061 168.955 146.274C143.244 133.488 114.635 138.74 105.054 158.005Z" fill="#8076B6"/>
<path d="M172.178 161.116C163.7 151.42 149.42 150.214 137.932 154.039C127.134 157.634 118.468 165.568 115.065 176.309C114.426 178.315 116.339 180.532 118.287 180.946C120.614 181.427 122.289 179.936 122.935 177.916C125.401 170.143 132.409 164.35 140.061 161.67C147.712 158.989 159.522 158.377 165.58 165.326C166.998 166.95 169.18 167.758 171.123 166.522C172.727 165.499 173.625 162.755 172.193 161.123L172.178 161.116Z" fill="#3483CC" fill-opacity="0.5"/>
<path d="M288.744 353.859C278.19 375.082 287.377 401.111 309.265 411.996C331.152 422.881 357.452 414.5 368.007 393.277C378.561 372.054 369.374 346.026 347.486 335.14C325.598 324.255 299.299 332.636 288.744 353.859Z" fill="#8076B6"/>
<path d="M343.721 338.841C337.157 337.207 330.411 337.164 323.879 338.424C320.741 339.032 317.487 339.98 314.868 341.816C313.457 342.814 312.284 343.982 311.3 345.383C310.944 345.882 310.602 346.389 310.282 346.888C309.808 347.589 310.541 346.584 309.982 347.311C309.786 347.561 309.598 347.831 309.387 348.074C309.289 348.198 308.396 349.02 308.904 348.613C307.289 349.874 306.455 352.165 307.834 354.012C309.016 355.606 311.665 356.559 313.378 355.208C314.907 354.01 315.971 352.7 317.045 351.119C317.261 350.793 317.477 350.467 317.693 350.14C317.372 350.605 317.763 350.071 317.889 349.891C318.085 349.642 318.288 349.378 318.512 349.143C318.526 349.115 319.391 348.314 318.87 348.749C319.363 348.335 319.936 348.013 320.488 347.698C321.492 347.122 319.905 347.894 320.99 347.445C321.288 347.315 321.6 347.193 321.905 347.085C323.282 346.59 324.697 346.236 326.134 345.945C326.312 345.912 327.023 345.78 326.511 345.872C326.902 345.807 327.308 345.749 327.7 345.683C328.355 345.593 329.039 345.517 329.695 345.461C331.156 345.338 332.654 345.286 334.125 345.324C334.461 345.334 334.796 345.345 335.132 345.356C335.325 345.365 336.039 345.409 335.503 345.367C336.304 345.419 337.112 345.526 337.92 345.633C339.394 345.846 340.848 346.135 342.288 346.487C344.33 347 346.647 345.481 346.936 343.457C347.237 341.301 345.899 339.37 343.713 338.82L343.721 338.841Z" fill="#3483CC" fill-opacity="0.5"/>
<path d="M218.009 274.281C205.492 299.451 211.555 327.916 231.551 337.861C251.547 347.805 277.904 335.462 290.421 310.293C302.939 285.123 296.876 256.657 276.88 246.713C256.884 236.769 230.526 249.111 218.009 274.281Z" fill="#775CA3"/>
<path d="M284.64 267.448C280.22 262.441 275.318 258.148 268.31 257.766C262.731 257.472 257.117 259.483 252.237 261.825C242.626 266.462 234.511 274.947 232.985 285.703C232.287 290.645 240.136 292.294 240.841 287.303C242.026 278.892 248.259 272.749 255.635 268.96C259.253 267.1 263.54 265.591 267.693 265.54C272.802 265.48 276.289 269.694 279.379 273.19C280.818 274.808 283.723 274.38 285.021 272.962C286.592 271.246 286.065 269.058 284.632 267.427L284.64 267.448Z" fill="#3483CC" fill-opacity="0.5"/>
<path d="M80.1887 244.97C67.6714 270.14 73.7343 298.606 93.7304 308.55C113.727 318.494 140.084 306.152 152.601 280.982C165.118 255.812 159.056 227.347 139.059 217.402C119.063 207.458 92.706 219.801 80.1887 244.97Z" fill="#775CA3"/>
<path d="M146.82 238.138C142.399 233.13 137.498 228.837 130.49 228.456C124.911 228.161 119.297 230.173 114.417 232.515C104.806 237.151 96.6909 245.636 95.1651 256.392C94.4666 261.334 102.316 262.983 103.021 257.993C104.206 249.582 110.438 243.438 117.815 239.65C121.432 237.79 125.719 236.28 129.873 236.23C134.982 236.17 138.469 240.384 141.559 243.88C142.998 245.497 145.903 245.069 147.201 243.651C148.772 241.935 148.244 239.748 146.812 238.116L146.82 238.138Z" fill="#3483CC" fill-opacity="0.5"/>
<path d="M135.429 344.177C125.849 363.442 138.924 389.425 164.635 402.211C190.345 414.997 218.954 409.745 228.535 390.48C238.116 371.215 225.04 345.232 199.33 332.446C173.619 319.66 145.01 324.912 135.429 344.177Z" fill="#8076B6"/>
<path d="M202.553 347.288C194.075 337.592 179.795 336.386 168.307 340.211C157.509 343.806 148.843 351.739 145.44 362.481C144.801 364.487 146.714 366.704 148.662 367.118C150.989 367.599 152.664 366.108 153.31 364.088C155.776 356.314 162.784 350.522 170.436 347.842C178.087 345.161 189.897 344.549 195.955 351.498C197.373 353.122 199.555 353.93 201.498 352.694C203.102 351.671 204 348.927 202.568 347.295L202.553 347.288Z" fill="#A09BCC"/>
<path d="M219.983 357.515C209.157 379.283 213.524 403.466 229.737 411.529C245.95 419.592 267.87 408.482 278.695 386.714C289.521 364.945 285.154 340.762 268.94 332.699C252.727 324.636 230.808 335.747 219.983 357.515Z" fill="#775CA3"/>
<path d="M273.933 360.846C272.409 359.255 271.097 357.129 269.401 355.523C267.705 353.916 265.624 352.795 263.407 352.056C259.274 350.694 254.604 351.025 250.609 352.489C246.124 354.109 242.418 357.121 239.341 360.637C237.883 362.305 236.563 364.094 235.271 365.897C234.573 366.868 233.897 367.867 233.213 368.844C232.913 369.267 232.634 369.684 232.334 370.107C232.195 370.315 232.034 370.53 231.866 370.724C231.226 371.324 231.602 371.217 232.988 370.38C230.873 370.698 229.142 372.23 229.328 374.491C229.488 376.443 231.498 378.501 233.627 378.189C236.383 377.774 237.765 376.258 239.244 374.15C240.472 372.402 241.679 370.627 242.957 368.921C245.389 365.691 248.101 362.549 251.746 360.598C254.336 359.216 257.838 358.634 260.762 359.359C260.819 359.388 261.989 359.779 261.378 359.527C261.845 359.707 262.291 359.929 262.731 360.165C263.307 360.486 263.762 360.834 264.51 361.64C265.897 363.11 267.206 365.061 268.694 366.616C270.183 368.172 273.004 367.84 274.337 366.388C275.866 364.72 275.443 362.429 273.948 360.853L273.933 360.846Z" fill="#9C8AC0"/>
<path d="M111.805 370.112C101.571 390.69 110.478 415.927 131.698 426.48C152.918 437.033 178.416 428.906 188.65 408.328C198.884 387.75 189.977 362.513 168.757 351.96C147.537 341.407 122.039 349.534 111.805 370.112Z" fill="#775CA3"/>
<path d="M123.615 370.831C121.275 373.622 119.657 376.84 118.814 380.375C117.972 383.91 118.129 387.491 118.943 391.052C119.151 391.97 120.165 392.926 120.986 393.333C121.863 393.77 123.115 393.924 124.037 393.585C124.96 393.246 125.892 392.6 126.312 391.647C126.753 390.652 126.724 389.736 126.485 388.664C126.739 389.778 126.484 388.594 126.437 388.362C126.375 388.019 126.333 387.669 126.307 387.326C126.238 386.633 126.206 385.941 126.216 385.235C126.213 385.06 126.225 384.892 126.222 384.718C126.188 385.29 126.182 385.374 126.218 384.941C126.248 384.592 126.278 384.243 126.323 383.901C126.412 383.252 126.531 382.617 126.685 381.982C126.758 381.69 126.832 381.397 126.92 381.111C126.968 380.944 127.015 380.777 127.077 380.617C126.879 381.195 126.859 381.271 127.002 380.874C127.256 380.22 127.517 379.587 127.828 378.961C128.139 378.336 128.487 377.745 128.848 377.162C129.085 376.794 129.044 376.878 128.702 377.384C128.807 377.246 128.912 377.107 129.016 376.968C129.226 376.691 129.45 376.421 129.667 376.165C130.977 374.614 131.021 372.035 129.279 370.63C127.637 369.311 125.044 369.184 123.636 370.859L123.615 370.831Z" fill="#9C8AC0"/>
<path d="M62.5632 375.346C71.7643 393.007 99.0283 395.539 123.459 381.002C147.89 366.464 160.236 340.363 151.035 322.702C141.834 305.041 114.57 302.509 90.1391 317.047C65.7083 331.584 53.3622 357.686 62.5632 375.346Z" fill="#5E4696"/>
<path d="M94.5661 332.362C87.1898 337.219 79.8506 342.799 77.5713 351.535C75.4448 359.696 76.8939 367.946 77.5651 375.863C77.7418 377.941 80.2164 379.032 82.208 378.436C84.5077 377.743 85.6079 375.581 85.4387 373.482C85.1135 369.743 84.7382 366.016 84.5344 362.257C84.3978 359.93 84.4909 355.907 85.0093 353.606C85.7582 350.371 87.0845 347.919 89.4575 345.519C92.0846 342.847 94.8603 341.04 98.0255 338.966C99.9218 337.716 100.869 335.368 99.9041 333.517C99.0084 331.798 96.4913 331.095 94.5805 332.353L94.5661 332.362Z" fill="#8974B3"/>
<path d="M181.041 120.755C166.236 134.072 170.587 161.105 190.761 181.136C210.935 201.166 239.292 206.608 254.098 193.291C268.904 179.973 264.552 152.94 244.378 132.91C224.204 112.88 195.847 107.438 181.041 120.755Z" fill="#5E4696"/>
<path d="M230.66 141.027C224.116 135.096 216.881 129.381 207.852 129.354C199.419 129.332 191.791 132.794 184.293 135.419C182.325 136.109 181.885 138.777 182.96 140.557C184.204 142.611 186.572 143.137 188.563 142.45C192.103 141.201 195.618 139.908 199.208 138.773C201.427 138.06 205.346 137.146 207.703 137.074C211.022 136.992 213.728 137.664 216.644 139.363C219.887 141.24 222.33 143.477 225.128 146.025C226.812 147.549 229.321 147.88 230.874 146.484C232.315 145.188 232.367 142.575 230.672 141.039L230.66 141.027Z" fill="#3483CC" fill-opacity="0.5"/>
<path d="M136.983 258.384C127.463 277.526 135.75 301.003 155.491 310.821C175.233 320.638 198.954 313.08 208.474 293.937C217.994 274.795 209.707 251.318 189.965 241.5C170.223 231.683 146.502 239.241 136.983 258.384Z" fill="#5E4696"/>
<path d="M158.839 252.805C152.212 254.4 147.069 259.941 145.66 266.419C145.228 268.407 146.793 270.711 148.882 271.057C151.079 271.403 153.058 270.168 153.53 268.027C153.597 267.713 153.677 267.406 153.758 267.1C153.994 266.263 153.457 267.886 153.765 267.086C153.991 266.487 154.26 265.91 154.572 265.354C154.717 265.062 154.899 264.806 155.073 264.528C155.379 264.021 154.835 264.826 154.836 264.861C154.821 264.819 155.052 264.57 155.094 264.521C155.478 264.001 155.899 263.517 156.356 263.068C156.559 262.874 156.77 262.667 156.974 262.474C157.467 262.025 156.389 262.928 156.77 262.632C156.883 262.549 156.988 262.446 157.101 262.363C157.587 261.998 158.096 261.661 158.612 261.346C158.888 261.188 159.178 261.038 159.468 260.887C159.886 260.661 158.696 261.214 159.142 261.037C159.32 260.969 159.483 260.894 159.639 260.833C160.242 260.595 160.874 260.407 161.5 260.267C163.519 259.78 164.713 257.235 163.947 255.346C163.093 253.239 161.015 252.292 158.853 252.812L158.839 252.805Z" fill="#3483CC" fill-opacity="0.5"/>
<path d="M352.581 348.974C368.389 346.47 382.055 335.596 387.13 320.811C389.759 313.159 389.45 304.448 395.324 298.216C399.939 293.322 406.514 290.483 412.543 287.587C419.655 284.173 426.332 280.549 432.008 275.085C437.683 269.621 442.372 262.574 446.699 255.789C451.027 249.005 455.262 242.186 460.589 236.07C466.298 229.505 472.761 223.609 478.804 217.347C485.813 210.069 492.16 202.158 496.296 192.979C500.634 183.35 502.715 172.95 502.547 162.416C502.511 160.321 500.261 158.667 498.204 158.806C495.915 158.964 494.516 160.859 494.533 162.966C494.662 171.595 492.999 180.257 489.625 188.207C486.251 196.157 481.3 202.947 475.472 209.283C469.644 215.619 463.429 221.247 457.644 227.448C451.985 233.501 447.231 240.124 442.808 247.064C438.675 253.523 434.727 260.128 429.682 265.967C424.638 271.806 419.099 275.636 412.427 278.977C406.228 282.077 399.66 284.711 394.081 288.833C391.368 290.838 388.907 293.145 386.955 295.866C384.388 299.481 382.945 303.551 381.985 307.825C381.026 312.099 380.38 316.782 378.475 320.952C376.883 324.439 374.754 327.57 372.114 330.379C366.855 335.972 359.657 340.001 351.888 341.232C349.758 341.578 348.028 343.157 348.217 345.392C348.38 347.337 350.417 349.329 352.559 349.001L352.581 348.974Z" fill="#6B832A"/>
<path d="M439.552 253.017C424.626 255.202 410.242 249.296 397.01 242.734C383.778 236.171 370.673 228.595 356.067 225.302C347.9 223.461 339.56 223.232 331.503 225.139C329.427 225.633 328.39 228.151 329.056 230.061C329.818 232.209 332.059 233.08 334.15 232.594C347.653 229.407 361.706 234.211 374.039 239.911C387.759 246.249 400.693 254.241 415.28 258.583C423.363 260.99 431.931 262.06 440.234 260.848C442.364 260.537 444.073 258.977 443.894 256.737C443.734 254.785 441.724 252.727 439.595 253.038L439.552 253.017Z" fill="#6B832A"/>
<path d="M382.963 240.177C375.518 245.509 367.533 250.053 358.973 253.513C354.725 255.233 350.374 256.728 345.97 258.076C341.567 259.423 337.277 260.29 333.082 261.759C320.362 266.185 311.738 277.139 300.709 284.192C297.763 286.074 295.909 287.059 292.504 287.915C292.425 287.928 291.265 288.131 292.084 288.001C291.614 288.08 291.144 288.123 290.659 288.159C290.417 288.178 290.181 288.182 289.946 288.186C289.796 288.198 288.339 288.133 289.197 288.213C288.475 288.148 287.745 288.028 287.042 287.852C286.677 287.757 286.311 287.662 285.953 287.553C286.756 287.814 285.299 287.28 285.155 287.208C280.432 285.155 276.947 292.092 281.698 294.16C295.405 300.127 307.428 289.632 317.042 281.667C322.192 277.413 327.443 272.845 333.614 270.001C333.012 270.273 334.224 269.749 334.196 269.769C334.564 269.606 334.94 269.463 335.331 269.328C335.948 269.098 336.587 268.895 337.212 268.721C339.763 267.995 342.365 267.347 344.923 266.607C349.598 265.255 354.249 263.771 358.782 262.054C368.998 258.186 378.602 253.095 387.401 246.772C391.48 243.84 387.027 237.238 382.927 240.176L382.963 240.177Z" fill="#6B832A"/>
<path d="M450.605 241.896C435.817 217.998 411.9 201.231 387.029 188.55C382.516 186.254 377.838 184.257 373.367 181.877C370.142 180.169 367.007 178.315 363.858 176.455C355.456 171.513 347.124 166.468 338.659 161.616C334.366 159.169 330.044 156.742 325.604 154.517C322.367 152.907 318.985 151.225 315.438 150.38C310.422 149.169 308.989 156.815 314.019 158.033C314.292 158.099 314.543 158.172 314.815 158.238C314.973 158.282 315.87 158.572 315.174 158.347C314.478 158.122 315.432 158.441 315.612 158.513C315.956 158.65 316.301 158.787 316.646 158.923C318.169 159.542 319.665 160.251 321.14 160.968C324.996 162.851 328.777 164.921 332.515 167.041C340.899 171.765 349.13 176.726 357.41 181.624C364.191 185.638 370.967 189.302 378.053 192.739C390.232 198.64 402.144 205.293 413.017 213.388C425.218 222.455 436.019 233.22 443.984 246.078C446.695 250.443 453.294 246.234 450.598 241.875L450.605 241.896Z" fill="#6B832A"/>
<path d="M395.364 199.256C395.14 199.491 394.893 199.698 394.654 199.926C395.308 199.332 394.703 199.863 394.386 200.105C393.744 200.566 393.065 200.991 392.365 201.389C390.413 202.499 389.853 202.723 387.753 203.552C383.228 205.325 378.487 206.591 373.707 207.613C362.689 209.954 351.077 210.926 339.744 210.11C336.9 209.91 334.067 209.542 331.261 209.013C328.662 208.536 325.315 207.686 323.319 206.971C321.324 206.256 319.003 206.628 317.993 208.658C317.143 210.368 317.809 213.179 319.862 213.923C331.292 218.081 343.757 218.644 355.686 217.9C367.615 217.156 378.799 215.313 389.427 211.338C393.72 209.745 398.107 207.782 401.366 204.547C404.928 200.995 398.883 195.717 395.35 199.249L395.364 199.256Z" fill="#6B832A"/>
<path d="M387.741 290.678C377.696 285.319 367.077 280.922 356.254 278.089C345.431 275.255 334.464 273.911 323.757 273.199C317.3 272.78 319.14 281.187 325.597 281.606C335.457 282.244 345.43 283.423 355.45 286.047C365.469 288.672 375.018 292.675 384.284 297.63C390.361 300.878 393.799 293.917 387.741 290.678Z" fill="#6B832A"/>
</svg>
