<svg width="428" height="485" viewBox="0 0 428 485" fill="none" xmlns="http://www.w3.org/2000/svg">
<g clip-path="url(#clip0_291_52277)">
<g opacity="0.56">
<path d="M25.5166 99.5247C58.7366 174.125 82.7866 216.565 123.507 280.355C100.127 321.085 79.3566 374.165 77.3566 423.855C77.2366 426.945 77.1666 430.145 78.1366 433.005C79.1566 435.995 81.1866 438.265 83.1966 440.375C113.477 472.185 162.157 479.965 203.867 484.435C244.047 488.745 279.877 476.255 312.287 447.735C317.667 443.005 322.987 437.675 325.967 430.445C331.967 415.895 326.967 398.485 321.927 383.405C314.317 360.625 306.707 337.835 299.087 315.055C295.687 304.885 292.227 293.875 294.297 283.175C296.267 273.005 309.987 245.285 314.547 236.435C330.057 206.295 338.917 183.345 351.207 154.635C367.417 116.745 376.677 96.7047 391.847 58.8447C393.617 54.4247 395.337 49.3347 393.867 44.7547C392.467 40.3947 388.657 38.0447 385.097 36.3047C369.657 28.7347 353.167 25.0547 336.807 21.4147C326.007 19.0147 315.197 16.6147 304.397 14.2047C294.467 11.9947 284.507 9.78467 274.427 9.18467C262.117 8.45467 242.997 4.81467 230.667 4.80467C211.347 4.78467 192.597 3.94467 172.857 4.80467C148.327 5.87467 130.677 7.30467 106.357 11.3747C70.7366 17.3447 33.8566 24.7047 4.22656 49.5747L25.5066 99.5247H25.5166Z" fill="#C0C6BD"/>
<path d="M22.2761 101.414C33.6461 126.934 45.5161 152.244 58.4161 177.034C70.0161 199.344 82.4861 221.194 95.5461 242.684C103.626 255.974 111.906 269.134 120.266 282.244V278.454C98.7061 316.104 81.8661 357.834 75.7561 400.974C74.9861 406.384 74.3661 411.814 73.9761 417.274C73.5861 422.734 72.8261 428.444 74.3961 433.594C75.8761 438.434 79.5361 442.134 83.0761 445.584C86.6161 449.034 90.1061 451.924 93.8961 454.764C109.066 466.144 127.056 473.384 145.266 478.274C163.476 483.164 182.326 485.804 201.096 487.864C219.866 489.924 240.076 488.884 258.826 483.014C278.136 476.974 295.676 466.524 311.146 453.604C319.036 447.014 326.626 439.824 330.146 429.904C333.666 419.984 332.566 408.194 330.076 397.774C327.366 386.444 323.196 375.434 319.516 364.394C315.606 352.704 311.706 341.014 307.796 329.324C304.106 318.284 299.286 306.974 297.756 295.364C296.686 287.224 298.646 280.324 301.616 272.894C307.256 258.754 314.346 245.264 321.146 231.664C330.786 212.384 339.226 192.564 347.576 172.704C355.926 152.844 364.556 133.094 373.106 113.324C376.986 104.354 380.836 95.3641 384.606 86.3341C386.666 81.4141 388.696 76.4941 390.706 71.5641C392.886 66.2341 395.406 60.8941 397.046 55.3641C398.576 50.2041 398.776 44.3741 395.536 39.7941C392.736 35.8341 388.416 33.6641 384.116 31.6941C373.546 26.8641 362.416 23.5541 351.136 20.8341C339.856 18.1141 327.416 15.4741 315.556 12.8341C303.696 10.1941 291.936 7.25414 279.886 5.89414C275.176 5.36414 270.446 5.15414 265.736 4.61414C260.686 4.03414 255.646 3.34414 250.596 2.71414C240.486 1.45414 230.586 1.08414 220.406 0.964139C196.636 0.684139 172.996 0.604139 149.276 2.37414C127.826 3.97414 106.516 7.16414 85.4261 11.3241C64.3361 15.4841 45.4661 20.6641 27.1861 29.9841C18.0261 34.6441 9.46609 40.3341 1.57609 46.9141C0.186089 48.0741 0.376089 50.0041 0.986089 51.4541C7.19609 66.0341 13.4061 80.6041 19.6161 95.1841C20.4961 97.2541 21.3861 99.3341 22.2661 101.404C23.0561 103.264 25.8061 103.684 27.3961 102.754C29.3161 101.614 29.5461 99.5041 28.7461 97.6241C22.5361 83.0441 16.3261 68.4741 10.1161 53.8941C9.23609 51.8241 8.34609 49.7441 7.46609 47.6741L6.87609 52.2141C38.2761 26.0541 80.5661 18.6641 119.866 13.0441C141.436 9.95414 163.356 8.50414 185.146 8.21414C196.906 8.05414 208.656 8.34414 220.416 8.48414C230.326 8.60414 239.986 8.91414 249.836 10.1341C259.096 11.2841 268.326 12.3241 277.616 13.1741C289.296 14.2441 300.766 17.2341 312.186 19.7741C323.606 22.3141 335.136 24.7841 346.576 27.4641C357.336 29.9941 368.116 32.8741 378.296 37.2741C382.036 38.8941 387.056 40.6041 389.456 44.1441C392.396 48.4741 389.586 54.4641 387.886 58.7241C383.926 68.6141 379.876 78.4641 375.746 88.2841C368.206 106.184 360.366 123.954 352.676 141.794C344.306 161.204 336.366 180.794 327.776 200.114C320.546 216.384 312.276 232.114 304.566 248.154C301.176 255.214 297.896 262.334 294.936 269.594C292.156 276.404 289.816 283.114 289.936 290.584C290.116 302.034 294.456 312.984 298.036 323.694C301.796 334.934 305.546 346.174 309.306 357.424C313.066 368.674 316.926 379.584 320.376 390.764C323.416 400.614 326.176 411.334 324.546 421.694C322.946 431.864 316.526 439.084 309.026 445.634C301.436 452.254 293.306 458.244 284.626 463.364C268.536 472.854 250.566 479.124 231.936 480.914C213.496 482.684 194.846 480.074 176.646 477.174C158.446 474.274 140.516 470.234 123.656 463.064C115.356 459.534 107.366 455.204 100.016 449.984C96.3861 447.414 92.9561 444.584 89.7161 441.534C86.4761 438.484 82.5161 435.204 81.4461 430.814C80.2961 426.074 81.2461 420.444 81.6361 415.634C82.0561 410.424 82.6561 405.234 83.4561 400.074C85.0861 389.444 87.4161 378.924 90.2661 368.554C95.9561 347.884 103.706 327.804 112.976 308.484C117.256 299.574 121.866 290.824 126.776 282.244C127.426 281.114 127.496 279.584 126.776 278.454C112.506 256.094 98.4861 233.564 85.2961 210.534C72.6061 188.374 60.7561 165.744 49.6561 142.744C42.4461 127.824 35.5361 112.754 28.7961 97.6241C27.9761 95.7841 25.2761 95.3241 23.6661 96.2741C21.7661 97.3941 21.4861 99.5441 22.3161 101.404L22.2761 101.414Z" fill="#C0C6BD"/>
</g>
<g opacity="0.56">
<path d="M122.414 265.254C112.494 249.654 105.084 236.774 95.1041 218.814C84.9441 200.534 83.5741 200.384 75.4141 183.384C111.454 174.054 151.724 166.134 206.794 165.074C259.274 164.064 296.124 171.214 331.414 178.564C328.954 186.134 332.174 178.484 326.324 192.304C324.874 195.734 319.754 207.694 305.144 236.734C290.894 265.044 288.674 270.104 286.644 280.974C284.754 291.094 287.914 301.514 291.024 311.144C297.984 332.704 304.934 354.274 311.894 375.834C316.494 390.104 321.074 406.594 315.584 420.364C312.864 427.204 307.994 432.254 303.084 436.724C273.464 463.714 240.724 475.534 203.994 471.464C165.874 467.234 121.384 459.874 93.7141 429.764C91.8741 427.764 90.0141 425.614 89.0941 422.784C88.2041 420.084 88.2641 417.044 88.3841 414.124C90.2141 367.094 111.064 316.804 132.434 278.254L122.434 265.254H122.414Z" fill="#C0C6BD"/>
<path d="M125.654 263.364C118.194 251.624 111.114 239.654 104.284 227.534C98.5237 217.314 92.6537 207.184 86.7637 197.044C83.8237 191.984 81.1937 186.764 78.6637 181.494L76.4237 187.004C90.7937 183.294 105.264 179.964 119.864 177.284C136.414 174.254 152.934 172.074 169.704 170.684C189.454 169.044 209.324 168.384 229.134 168.884C246.294 169.324 263.804 170.744 280.554 173.104C295.504 175.204 310.334 178.034 325.114 181.084C326.884 181.444 328.654 181.814 330.424 182.184L327.804 177.574C327.324 179.054 326.974 180.554 326.544 182.044C326.354 182.714 326.054 183.354 325.794 183.994C325.504 184.704 325.204 185.414 324.904 186.134C325.144 185.564 324.884 186.184 324.844 186.264C324.704 186.594 324.564 186.924 324.424 187.254C324.094 188.044 323.764 188.824 323.424 189.614C321.884 193.244 320.284 196.844 318.634 200.424C309.924 219.324 300.074 237.664 291.214 256.484C288.634 261.964 286.104 267.544 284.484 273.404C283.814 275.844 283.264 278.334 282.864 280.824C281.744 287.844 282.594 294.874 284.314 301.734C286.034 308.594 288.414 315.314 290.584 322.054C292.774 328.854 294.974 335.654 297.164 342.454C301.544 356.014 306.184 369.524 310.234 383.194C313.604 394.594 316.624 407.624 312.044 419.134C309.964 424.354 306.184 428.634 302.164 432.454C297.784 436.614 293.134 440.534 288.284 444.134C270.314 457.464 249.264 466.454 227.044 468.164C215.894 469.024 204.894 467.924 193.844 466.534C183.484 465.224 172.524 463.474 162.034 461.074C141.144 456.284 120.294 448.604 103.974 434.514C101.934 432.754 99.9737 430.914 98.1037 428.984C96.2337 427.054 94.2837 425.174 93.1037 422.794C91.7837 420.134 91.9937 417.014 92.1037 414.134C92.2237 410.954 92.4337 407.784 92.7237 404.614C93.8737 391.974 96.3137 379.474 99.5437 367.214C106.064 342.464 115.794 318.634 127.334 295.824C130.004 290.544 132.774 285.324 135.634 280.154C136.224 279.084 136.434 277.414 135.634 276.364C132.304 272.034 128.964 267.694 125.634 263.364C124.404 261.764 122.404 260.904 120.504 262.014C118.924 262.934 117.914 265.534 119.154 267.144C122.484 271.474 125.824 275.814 129.154 280.144V276.354C116.634 298.984 105.774 322.654 97.6537 347.234C93.4937 359.834 90.0737 372.684 87.7637 385.754C86.5937 392.344 85.6937 398.994 85.1237 405.664C84.5537 412.334 83.4737 419.544 86.1837 425.644C87.4437 428.484 89.5537 430.844 91.6637 433.094C93.5637 435.114 95.5537 437.054 97.6237 438.894C101.844 442.644 106.384 446.054 111.144 449.084C120.694 455.164 131.184 459.744 141.924 463.294C152.664 466.844 163.374 469.254 174.334 471.154C185.334 473.064 196.504 474.654 207.634 475.574C230.914 477.494 254.154 472.604 274.744 461.614C285.664 455.784 295.714 448.374 304.904 440.104C309.394 436.064 313.714 431.694 316.764 426.424C320.044 420.754 321.564 414.304 321.784 407.794C322.224 394.264 317.504 381.124 313.414 368.434C308.904 354.444 304.384 340.454 299.874 326.474C297.624 319.504 295.294 312.554 293.154 305.554C291.204 299.134 289.544 292.534 289.824 285.784C290.054 280.214 291.734 274.514 293.724 269.324C293.974 268.664 294.244 267.994 294.514 267.344C294.644 267.034 294.774 266.724 294.904 266.414C294.494 267.384 295.034 266.114 295.154 265.844C295.874 264.184 296.634 262.534 297.394 260.894C299.524 256.344 301.754 251.834 304.004 247.334C309.474 236.374 315.004 225.454 320.304 214.404C322.984 208.804 325.634 203.184 328.134 197.504C328.874 195.804 329.604 194.104 330.324 192.394C331.484 189.654 332.974 186.864 333.784 183.984C334.204 182.514 334.554 181.034 335.024 179.574C335.614 177.734 334.324 175.364 332.404 174.964C317.724 171.904 303.014 168.974 288.184 166.714C271.064 164.114 253.824 162.364 236.514 161.644C216.494 160.814 196.404 161.264 176.414 162.674C158.834 163.914 141.314 166.004 123.944 168.974C109.034 171.524 94.2437 174.754 79.5737 178.454C77.8537 178.884 76.1337 179.324 74.4137 179.774C71.9137 180.424 71.1537 183.164 72.1737 185.284C76.4037 194.074 81.2637 202.384 86.1937 210.784C93.2837 222.834 99.8437 235.184 106.954 247.224C110.914 253.934 114.994 260.574 119.164 267.144C120.254 268.854 122.504 269.534 124.294 268.494C125.994 267.494 126.734 265.084 125.644 263.364H125.654Z" fill="#C0C6BD"/>
</g>
<path d="M122.63 330.664C119.96 341.684 111.81 348.844 104.42 346.664C97.0304 344.484 93.2004 333.784 95.8604 322.774C98.5304 311.754 106.68 304.594 114.07 306.774C121.46 308.954 125.29 319.654 122.63 330.664Z" fill="#717F67"/>
<path d="M105.048 386.214C102.088 398.454 93.0277 406.404 84.8177 403.984C76.6077 401.564 72.3477 389.684 75.3077 377.444C78.2677 365.204 87.3277 357.254 95.5377 359.674C103.748 362.094 108.008 373.974 105.038 386.214H105.048Z" fill="#717F67"/>
<path d="M150.459 401.203C149.209 415.053 140.789 425.433 131.649 424.393C122.509 423.343 116.109 411.263 117.359 397.413C118.609 383.563 127.029 373.183 136.169 374.233C145.309 375.283 151.709 387.363 150.459 401.213V401.203Z" fill="#717F67"/>
<path d="M163.347 343.893C160.647 355.753 152.107 363.593 144.277 361.413C136.447 359.233 132.287 347.863 134.987 336.003C137.687 324.143 146.227 316.303 154.057 318.483C161.887 320.663 166.047 332.033 163.347 343.893Z" fill="#717F67"/>
<path d="M214.919 410.223C214.899 424.153 205.979 435.363 194.979 435.263C183.989 435.163 175.089 423.793 175.109 409.863C175.129 395.933 184.049 384.723 195.049 384.823C206.039 384.923 214.939 396.293 214.919 410.223Z" fill="#717F67"/>
<path d="M216.636 346.304C216.626 357.514 209.436 366.544 200.586 366.464C191.736 366.384 184.576 357.234 184.586 346.014C184.596 334.804 191.786 325.774 200.636 325.854C209.486 325.934 216.646 335.084 216.636 346.304Z" fill="#717F67"/>
<path d="M282.909 331.994C285.039 343.184 292.839 350.924 300.319 349.284C307.799 347.644 312.139 337.244 310.009 326.054C307.879 314.864 300.079 307.124 292.599 308.764C285.119 310.404 280.779 320.804 282.909 331.994Z" fill="#717F67"/>
<path d="M297.791 388.714C300.161 401.144 308.811 409.744 317.131 407.914C325.441 406.094 330.261 394.534 327.891 382.104C325.521 369.674 316.861 361.074 308.551 362.904C300.241 364.724 295.421 376.284 297.791 388.714Z" fill="#717F67"/>
<path d="M251.731 400.414C252.311 414.334 260.221 425.304 269.391 424.914C278.571 424.524 285.531 412.934 284.951 399.014C284.371 385.094 276.461 374.124 267.281 374.514C258.101 374.904 251.141 386.494 251.721 400.414H251.731Z" fill="#717F67"/>
<path d="M241.618 342.264C243.748 354.294 251.888 362.744 259.818 361.134C267.738 359.524 272.438 348.464 270.318 336.434C268.188 324.404 260.048 315.954 252.118 317.564C244.198 319.174 239.498 330.224 241.618 342.254V342.264Z" fill="#717F67"/>
<path d="M149.656 333.303C151.396 335.643 154.296 341.583 152.026 346.583" stroke="#E1E1E1" stroke-width="7" stroke-linecap="round"/>
<path d="M111.277 317.494C112.427 320.234 113.887 326.754 110.547 330.974" stroke="#E1E1E1" stroke-width="7" stroke-linecap="round"/>
<path d="M201.555 335.664C203.295 338.004 206.195 343.944 203.925 348.944" stroke="#E1E1E1" stroke-width="7" stroke-linecap="round"/>
<path d="M256.344 329.824C258.084 332.164 260.984 338.104 258.714 343.104" stroke="#E1E1E1" stroke-width="7" stroke-linecap="round"/>
<path d="M294.227 319.434C296.447 321.234 300.617 326.184 299.577 331.654" stroke="#E1E1E1" stroke-width="7" stroke-linecap="round"/>
<path d="M310.461 374.023C312.881 375.473 317.621 379.783 317.271 385.363" stroke="#E1E1E1" stroke-width="7" stroke-linecap="round"/>
<path d="M267.539 386.373C269.959 387.823 274.699 392.133 274.349 397.713" stroke="#E1E1E1" stroke-width="7" stroke-linecap="round"/>
<path d="M200.117 398.145C201.847 400.495 204.727 406.445 202.427 411.435" stroke="#E1E1E1" stroke-width="7" stroke-linecap="round"/>
<path d="M134.749 386.744C135.889 389.484 137.329 396.014 133.969 400.224" stroke="#E1E1E1" stroke-width="7" stroke-linecap="round"/>
<path d="M93.405 377.684C94.545 380.424 95.985 386.954 92.625 391.164" stroke="#E1E1E1" stroke-width="7" stroke-linecap="round"/>
<g opacity="0.91">
<path d="M6.6973 59.534C14.1473 67.064 23.6573 70.604 33.5073 73.834C44.7173 77.514 55.9973 80.994 67.3673 84.184C89.8373 90.494 112.647 95.674 135.767 98.934C158.887 102.194 180.197 103.494 202.497 102.414C223.597 101.394 244.647 98.204 265.027 92.574C285.407 86.944 306.727 78.214 325.907 67.424C328.397 66.024 330.867 64.574 333.327 63.094C337.457 60.604 333.687 54.114 329.537 56.614C310.967 67.814 291.157 76.804 270.427 83.174C250.877 89.184 230.657 92.914 210.267 94.424C188.727 96.024 167.057 95.244 145.627 92.704C123.157 90.044 100.937 85.364 79.0773 79.584C67.8973 76.634 56.8073 73.374 45.7873 69.894C40.5273 68.234 35.2673 66.564 30.0673 64.764C25.7673 63.274 21.5973 61.524 17.7873 59.014C15.6873 57.624 13.7973 56.004 12.0273 54.214C8.6273 50.774 3.3273 56.084 6.7273 59.514L6.6973 59.534Z" fill="#68775E"/>
</g>
<g opacity="0.91">
<path d="M90.1576 192.675C118.828 202.325 147.838 211.975 178.168 214.605C193.628 215.945 209.168 215.145 224.558 213.405C239.948 211.665 255.038 209.285 270.078 206.165C286.708 202.705 303.138 198.255 319.128 192.505C321.028 191.815 322.318 189.955 321.748 187.895C321.238 186.055 319.048 184.585 317.138 185.275C289.028 195.395 259.468 201.535 229.938 205.265C214.668 207.195 199.248 208.365 183.858 207.515C168.468 206.665 154.778 204.015 140.428 200.365C124.098 196.205 108.108 190.835 92.1476 185.455C90.2876 184.825 87.9676 186.175 87.5376 188.075C87.0676 190.145 88.1676 192.015 90.1576 192.685V192.675Z" fill="#68775E"/>
</g>
</g>
<defs>
<clipPath id="clip0_291_52277">
<rect width="427" height="484" fill="white" transform="translate(0.523438 0.810547)"/>
</clipPath>
</defs>
</svg>
