<svg width="544" height="536" viewBox="0 0 544 536" fill="none" xmlns="http://www.w3.org/2000/svg">
<path d="M238.587 245.195C240.87 250.689 243.156 256.171 245.452 261.667C245.892 262.724 246.42 263.874 247.567 264.304C248.339 264.593 249.233 264.502 250.076 264.614C252.389 264.908 253.973 266.651 255.812 267.882C257.651 269.113 260.566 269.731 262.263 268.051C263.826 266.458 266.16 265.502 268.377 265.54C268.299 264.577 268.22 263.615 268.139 262.663C274.472 261.83 280.73 259.535 286.144 256.059L283.841 254.698C287.959 252.107 291.775 249.094 295.202 245.75C295.123 244.939 294.546 244.223 293.74 243.919C295.568 241.723 298.46 240.48 300.507 238.452C302.545 236.41 303.227 232.657 300.656 231.666C299.952 231.398 299.132 231.394 298.447 231.106C296.354 230.237 296.537 227.322 297.819 225.367C299.1 223.412 301.142 221.894 302.197 219.85C303.253 217.806 302.666 214.837 300.326 214.643C299.644 214.588 298.886 214.778 298.312 214.492C297.302 214.01 297.549 212.603 298.035 211.576C299.652 208.108 302.559 205.195 304.447 201.834C306.336 198.472 306.986 194.064 304.256 191.646C303.432 190.922 302.289 190.329 302.087 189.269C301.719 187.292 304.852 185.396 304.189 183.508C303.877 182.631 302.854 182.205 302.238 181.496C300.04 178.94 303.681 173.778 300.735 171.96C298.737 170.719 295.925 172.53 294.018 174.205C286.867 180.493 277.395 187.252 268.701 184.556C271.669 181.987 274.729 179.303 276.387 175.923C278.044 172.542 277.891 168.26 274.962 166.13C275.724 161.771 280.362 157.043 277.795 153.591C275.849 150.975 271.077 151.539 268.729 149.231C267.327 147.849 267.111 145.765 266.188 144.063C264.903 141.686 262.34 140.22 260.245 138.433C258.15 136.646 256.348 134.049 257.224 131.343C253.636 132.633 249.506 132.191 246.669 130.189C245.551 129.402 244.604 128.382 243.314 127.828C241.599 127.09 239.528 127.257 237.618 126.992C230.185 125.938 226.559 118.733 224 112.367C227.912 119.819 221.099 129.275 213.395 134.805C212.389 135.531 211.317 136.271 210.721 137.296C209.175 139.994 211.555 143.399 209.698 145.952C207.905 148.397 203.419 148.232 201.904 150.807C200.966 152.39 201.581 154.469 200.307 155.857C199.377 156.871 197.746 157.12 196.785 158.108C196.041 158.88 195.847 159.934 195.683 160.923C195.018 165.097 194.352 169.271 193.687 173.445C193.381 175.379 192.266 177.949 190.198 177.768C190.459 180.404 190.724 183.028 190.973 185.663C183.684 181.898 177.084 177.134 171.403 171.55C167.839 175.235 170.53 182.595 165.618 184.394C164.617 184.761 163.427 184.789 162.695 185.517C161.983 186.212 162.008 187.238 162.064 188.139C162.572 195.326 163.081 202.512 163.577 209.697C163.694 211.338 163.788 213.07 163.006 214.627C162.52 215.607 161.707 216.452 161.278 217.452C160.085 220.232 162.164 222.912 162.827 225.682C163.547 228.669 162.575 231.897 162.63 235.005C162.684 238.113 164.38 241.566 167.75 241.769C166.196 242.446 166.334 244.543 167.25 245.732C168.166 246.922 169.607 247.81 169.959 249.262C170.19 250.21 169.913 251.3 170.365 252.161C170.775 252.947 171.69 253.358 172.544 253.715C179.267 256.58 185.977 259.444 192.7 262.308C197.199 262.765 201.686 263.22 206.186 263.677C207.082 263.772 208.032 263.852 208.899 263.525C209.904 263.147 210.62 262.29 211.297 261.486C217.742 253.769 225.28 246.789 233.63 240.822C241.222 260.688 243.596 282.581 240.512 304.308" fill="#6D8443"/>
<path d="M241.54 244.126C243.058 247.788 244.591 251.441 246.109 255.102C246.874 256.934 247.612 258.774 248.392 260.596C248.51 260.867 248.708 261.555 249.031 261.703C249.656 261.983 250.931 261.815 251.645 261.991C253.579 262.456 255.097 263.528 256.586 264.666C257.493 265.355 258.55 266.239 259.766 266.249C260.376 266.248 259.725 266.359 260.333 265.975C261.135 265.466 261.76 264.771 262.613 264.303C264.352 263.337 266.294 262.747 268.255 262.716L265.267 265.897C265.189 264.935 265.111 263.972 265.03 263.021C264.899 261.482 266.392 260.065 268.017 259.839C273.87 259.035 279.485 256.969 284.511 253.79L284.001 258.287L281.698 256.925C280.076 255.967 280.677 253.41 282.208 252.429C286.109 249.961 289.684 247.159 292.954 243.992L292.233 246.823C292.092 246.154 292.038 246.414 292.247 246.523C290.497 245.676 290.142 243.701 291.504 242.163C293.186 240.249 295.426 239.024 297.422 237.442C298.123 236.884 298.5 236.528 298.841 235.923C299.153 235.383 299.249 234.908 299.204 234.252C299.202 234.31 299.211 234.566 299.18 234.249C299.126 234.265 299.13 233.859 299.18 234.249C299.351 234.213 299.072 234.234 299.048 234.231C297.765 233.992 296.551 233.68 295.586 232.878C293.834 231.404 293.458 229.02 293.98 226.824C294.543 224.518 296.19 222.692 297.834 220.878C298.388 220.266 299.238 219.321 299.45 218.781C299.663 218.24 299.721 217.574 299.368 217.248C300.024 217.846 297.579 217.336 297.256 217.236C295.926 216.792 295.023 215.895 294.649 214.626C293.999 212.391 295.413 209.919 296.703 207.93C298.998 204.39 302.875 200.746 302.948 196.551C302.982 194.756 302.171 194.033 300.887 192.922C298.931 191.223 298.401 188.958 299.673 186.502C300.046 185.773 300.573 184.925 301.09 184.262C301.291 184.01 301.132 184 301.171 184.04C301.171 184.04 301.215 184.697 301.233 184.676C301.148 184.815 301.034 184.58 300.809 184.387C300.584 184.195 300.387 184.041 300.189 183.841C298.718 182.438 298.229 180.596 298.384 178.573C298.453 177.665 298.595 176.766 298.725 175.866C298.796 175.341 298.782 175.595 298.792 175.213C298.792 175.015 298.793 174.818 298.793 174.621C298.778 174.142 298.841 174.627 298.769 174.373C298.665 174 298.791 174.434 298.836 174.406L298.762 174.303C298.652 174.149 298.661 174.162 298.793 174.33C298.808 174.32 298.727 174.391 298.688 174.398C297.773 174.671 296.916 175.347 296.206 175.939C288.032 182.73 278.189 190.357 267.155 187.13C265.407 186.619 264.992 183.998 266.413 182.769C269.811 179.828 274.388 176.172 274.304 171.667C274.288 170.898 274.158 170.138 273.798 169.451C273.196 168.35 271.883 167.885 271.832 166.473C271.747 164.221 273.351 161.634 274.328 159.557C274.928 158.278 275.994 156.387 275.118 155.284C274.15 154.052 271.598 153.865 270.093 153.375C267.632 152.585 265.836 151.139 264.772 148.966C263.89 147.153 263.556 145.239 261.992 143.813C260.056 142.035 257.756 140.662 256.081 138.64C254.309 136.512 253.394 133.755 254.164 130.93L258.071 133.956C253.647 135.449 248.918 135.113 245.244 132.884C243.767 131.992 242.63 130.494 240.8 130.159C238.65 129.758 236.474 129.853 234.37 129.226C226.95 127 223.484 119.654 220.966 113.421C220.399 112.034 221.479 110.284 223.028 109.722C224.783 109.084 226.208 109.935 226.886 111.279C229.398 116.315 227.835 122.402 224.527 127.329C222.843 129.836 220.806 132.167 218.466 134.226C217.34 135.227 216.156 136.162 214.933 137.057C214.046 137.706 213.262 138.147 213.179 139.158C213.074 140.399 213.444 141.632 213.451 142.876C213.459 144.456 213.1 146.012 212.087 147.399C210.416 149.663 207.808 150.281 205.338 151.429C205.057 151.554 204.783 151.704 204.608 151.855C204.813 151.684 204.34 152.319 204.534 151.949C204.431 152.156 204.433 152.099 204.372 152.485C204.108 154.158 203.934 155.818 202.742 157.275C201.751 158.479 200.532 158.771 199.333 159.669C198.384 160.367 198.512 161.964 198.351 162.988C197.738 166.809 197.394 170.746 196.49 174.54C195.686 177.895 193.324 180.671 189.406 180.617L193.211 177.451C193.473 180.087 193.737 182.712 193.987 185.346C194.19 187.382 191.346 189.316 189.399 188.315C181.885 184.405 175.066 179.576 169.191 173.827L173.564 173.362C173.131 173.839 172.88 174.386 172.687 175.046C172.396 176.041 172.25 177.055 172.106 178.058C171.815 179.982 171.568 182.028 170.47 183.799C169.866 184.752 169.075 185.611 168.089 186.259C167.595 186.588 167.003 186.858 166.451 187.075C166.176 187.178 164.947 187.654 164.697 187.563C164.515 187.493 164.218 187.976 164.798 187.263C165.342 186.592 165.047 187.215 165.07 187.613C165.097 188.336 165.163 189.053 165.214 189.78C165.324 191.351 165.437 192.91 165.547 194.481C165.756 197.517 165.975 200.565 166.185 203.601C166.394 206.637 166.881 209.465 166.593 212.4C166.45 213.891 166.026 215.31 165.163 216.647C164.63 217.471 163.948 218.193 163.945 219.133C163.942 220.074 164.411 221.065 164.761 221.936C165.267 223.222 165.728 224.491 165.949 225.868C166.425 228.787 165.567 231.763 165.65 234.712C165.699 236.472 166.32 238.819 168.395 239.024C170.892 239.285 171.72 242.775 169.304 244.104C170.04 243.702 169.125 243.244 169.618 243.797C169.627 243.81 169.866 244.143 169.951 244.248C170.592 245.052 171.45 245.689 172.032 246.532C172.748 247.579 173.036 248.744 173.1 250.007C173.14 251.022 173.2 250.833 174.242 251.285C179.627 253.589 185.026 255.884 190.413 258.177C191.537 258.651 192.714 259.352 193.943 259.608C195.416 259.931 197.107 259.934 198.637 260.079C201.5 260.365 204.399 260.854 207.296 260.959C208.158 260.992 208.262 260.634 208.86 259.947C209.783 258.861 210.695 257.774 211.648 256.716C213.455 254.702 215.335 252.745 217.284 250.854C221.83 246.44 226.755 242.342 231.961 238.607C233.652 237.391 235.942 238.217 236.545 239.806C242.525 255.545 245.362 272.54 244.807 289.712C244.651 294.72 244.18 299.744 243.487 304.762C243.272 306.29 241.267 307.372 239.763 307.173C237.994 306.938 237.252 305.504 237.469 303.965C240.445 282.712 238.016 261.382 230.637 241.95L235.22 243.15C230.071 246.858 225.253 250.923 220.807 255.339C218.493 257.634 216.292 260.025 214.196 262.488C212.101 264.952 209.95 266.804 206.352 266.617C202.754 266.431 199.471 265.938 196.064 265.591C194.488 265.429 192.65 265.464 191.184 264.968C189.546 264.414 187.986 263.604 186.416 262.931C183.227 261.58 180.053 260.219 176.864 258.867C175.451 258.262 174.037 257.656 172.621 257.062C171.205 256.468 169.751 255.974 168.673 255.03C167.209 253.744 167.217 252.294 166.946 250.527C166.775 249.39 165.577 248.673 164.848 247.822C162.915 245.545 162.776 241.404 166.102 239.58L167.01 244.659C163.93 244.344 161.768 242.432 160.568 239.962C159.368 237.492 159.445 234.75 159.74 231.978C159.893 230.5 160.072 229.014 159.946 227.558C159.834 226.335 159.336 225.212 158.887 224.096C157.869 221.499 157.246 218.769 158.751 215.983C159.365 214.845 160.338 213.906 160.514 212.628C160.732 211.089 160.407 209.432 160.307 207.921C160.07 204.603 159.845 201.286 159.608 197.968C159.371 194.65 158.942 191.4 158.922 188.11C158.901 184.821 161.128 182.526 164.69 181.825C165.409 181.688 165.006 181.658 164.89 181.724C164.521 181.954 165.128 181.523 165.207 181.406C164.93 181.811 165.274 181.241 165.312 181.141C165.414 180.888 165.284 181.3 165.438 180.844C165.808 179.732 165.941 178.577 166.104 177.448C166.508 174.738 167.096 172.087 169.134 169.848C170.171 168.708 172.44 168.347 173.508 169.382C179.027 174.77 185.367 179.431 192.429 183.107L187.841 186.077C187.58 183.441 187.315 180.816 187.066 178.181C186.869 176.169 189.014 174.978 190.87 175.015C191.429 175.02 190.079 175.143 190.043 175.138C189.73 175.097 189.973 175.559 189.947 175.172C189.935 174.926 190.372 174.287 190.42 174.096C190.802 172.695 190.937 171.238 191.159 169.828C191.663 166.677 192.122 163.51 192.662 160.364C192.905 158.968 193.389 157.511 194.495 156.391C195.518 155.354 196.959 155.069 197.999 154.161C198.076 154.102 197.762 154.699 197.966 154.145C198.073 153.869 198.099 153.571 198.15 153.275C198.258 152.605 198.316 151.939 198.497 151.277C198.92 149.812 199.806 148.582 201.091 147.591C202.759 146.314 205.378 145.802 206.793 144.839C207.183 144.577 207.266 144.495 207.312 143.828C207.392 142.584 207.043 141.365 207.036 140.122C207.03 137.02 208.648 134.819 211.354 132.843C213.571 131.22 215.588 129.455 217.364 127.414C220.935 123.312 223.333 118.148 221 113.484L226.92 111.341C228.845 116.091 231.46 122.627 237.395 124.087C239.046 124.491 240.85 124.347 242.527 124.65C244.595 125.029 246.16 125.968 247.692 127.181C250.07 129.076 253 129.882 256.296 128.762C258.515 128.011 260.794 129.613 260.203 131.788C259.25 135.285 264.37 137.601 266.443 139.571C268.097 141.138 269.149 142.868 269.921 144.968C270.537 146.652 271.041 147.555 272.884 148.182C274.727 148.81 276.801 149.166 278.496 150.226C280.313 151.35 281.459 153.197 281.6 155.283C281.878 159.268 278.708 162.727 277.937 166.585L277.063 163.961C280.342 166.521 281.193 170.896 279.955 174.877C278.5 179.516 274.694 183.077 270.897 186.359L270.154 181.999C274.022 183.127 278.409 181.629 281.953 179.636C284.145 178.406 286.199 176.982 288.156 175.453C290.113 173.924 291.875 172.136 293.924 170.735C296.315 169.113 299.372 168.101 301.979 169.294C303.997 170.212 304.98 172.165 304.982 174.256C304.982 175.185 304.829 176.128 304.69 177.062C304.552 177.996 304.465 178.24 304.537 179.179C304.537 179.179 304.596 179.582 304.657 179.683C304.48 179.404 305.176 180.088 305.237 180.143C306.29 181.037 307.19 182.097 307.289 183.515C307.369 184.618 306.983 185.739 306.404 186.743C306.181 187.131 305.915 187.491 305.674 187.854C305.576 187.992 305.407 188.364 305.261 188.496C304.101 189.585 305.371 188.65 305.089 188.682C305.332 188.656 304.518 188.189 305.011 188.405C304.899 188.355 305.375 188.732 305.284 188.65C305.606 188.948 305.982 189.184 306.319 189.472C307.242 190.291 307.933 191.242 308.422 192.352C310.228 196.494 308.326 201.421 305.668 205.262C304.099 207.516 302.285 209.656 301.024 212.067C300.971 212.177 300.657 213.018 300.63 213.026C300.642 213.027 300.631 212.828 300.604 212.836L299.625 211.894L300.445 211.898C301.764 211.945 302.943 212.345 303.87 213.153C305.622 214.674 306.078 217.231 305.457 219.472C304.754 222.038 302.597 223.912 300.884 225.997C300.272 226.74 299.86 227.429 299.869 228.173C299.867 228.428 299.945 228.659 299.966 228.674C299.641 228.433 300.459 228.693 300.634 228.739C303.411 229.362 305.239 231.172 305.327 233.902C305.406 236.13 304.359 238.535 302.657 240.284C300.634 242.362 297.797 243.588 295.89 245.751L295.147 241.391C296.809 242.192 298.142 243.599 298.214 245.467C298.285 247.335 295.939 248.975 294.513 250.226C291.652 252.716 288.621 254.997 285.385 257.053L285.896 252.557L288.198 253.919C289.82 254.877 289.219 257.434 287.688 258.415C281.755 262.17 275.076 264.607 268.176 265.563L271.164 262.382C271.242 263.344 271.32 264.307 271.401 265.258C271.509 266.643 270.051 268.412 268.414 268.439C266.777 268.467 265.519 268.915 264.277 270.028C262.602 271.525 260.487 272.162 258.3 271.954C256.37 271.768 254.684 270.964 253.208 269.921C251.732 268.877 250.556 267.584 248.512 267.452C246.152 267.291 244.324 266.41 243.227 264.511C242.202 262.726 241.543 260.722 240.744 258.828C239.015 254.674 237.278 250.507 235.549 246.352C234.177 243.046 240.094 240.915 241.469 244.21L241.54 244.126Z" fill="#6D8443"/>
<path d="M232.047 134.094C231.176 146.642 232.2 159.18 233.309 171.531C234.57 185.591 236.302 199.563 238.088 213.519C238.916 219.941 239.757 226.365 240.534 232.792C240.714 234.295 239.139 235.793 237.55 235.973C235.78 236.176 234.529 235.016 234.34 233.5C232.838 221.131 231.14 208.793 229.667 196.404C228.008 182.442 226.497 168.43 225.836 154.312C225.532 147.833 225.385 141.328 225.844 134.789C225.946 133.255 227.031 131.819 228.828 131.609C230.367 131.433 232.142 132.535 232.038 134.081L232.047 134.094Z" fill="#5B6E30"/>
<path d="M282.084 246.032C275.729 252.218 267.374 256.365 258.559 257.687C256.949 257.926 255.358 256.722 255.367 255.219C255.384 253.637 256.619 252.287 258.346 252.03C260.563 251.698 261.443 251.501 263.521 250.836C265.382 250.247 267.204 249.512 268.96 248.652C268.662 248.799 268.832 248.717 269.031 248.615C269.29 248.475 269.546 248.346 269.807 248.195C270.239 247.961 270.661 247.715 271.083 247.469C271.885 246.994 272.657 246.491 273.423 245.965C273.83 245.681 274.212 245.395 274.607 245.11C274.806 244.961 274.993 244.812 275.191 244.664C275.177 244.673 275.814 244.164 275.565 244.364C275.298 244.585 275.879 244.103 275.929 244.052C276.119 243.891 276.297 243.728 276.471 243.577C276.871 243.222 277.25 242.854 277.629 242.485C278.783 241.358 280.798 240.987 281.986 242.021C283.102 242.998 283.324 244.811 282.087 246.02L282.084 246.032Z" fill="#5B6E30"/>
<path d="M286.244 206.303C279.371 213.882 271.219 220.531 262.258 225.871C260.798 226.735 258.918 226.563 258.01 225.3C257.169 224.115 257.559 222.187 259.021 221.312C267.572 216.219 275.223 209.98 281.783 202.756C284.436 199.828 288.9 203.364 286.247 206.292L286.244 206.303Z" fill="#5B6E30"/>
<path d="M186.806 196.326C195.974 207.548 208.143 216.419 222.129 222.233C225.603 223.678 222.652 228.904 219.155 227.456C204.204 221.244 191.337 211.708 181.553 199.739C179.264 196.948 184.528 193.537 186.809 196.314L186.806 196.326Z" fill="#5B6E30"/>
<path d="M188.205 237.132C189.235 238.005 190.315 238.826 191.433 239.593C192.036 240.001 192.641 240.397 193.262 240.783C193.358 240.843 194.038 241.237 193.563 240.963C193.876 241.145 194.201 241.329 194.517 241.499C196.93 242.825 199.502 243.916 202.18 244.788C203.657 245.265 204.211 247.229 203.394 248.542C202.474 250.017 200.781 250.537 199.203 250.023C193.529 248.167 188.329 245.278 183.939 241.588C182.807 240.632 182.625 238.765 183.841 237.586C185.057 236.407 186.98 236.105 188.196 237.119L188.205 237.132Z" fill="#5B6E30"/>
<path d="M266.637 163.918C263.303 170.408 258.959 176.516 253.848 182.02C252.719 183.241 250.673 183.419 249.482 182.478C248.291 181.537 248.246 179.702 249.375 178.481C254.181 173.297 258.05 167.788 261.223 161.638C261.96 160.201 263.995 159.579 265.424 160.168C266.941 160.804 267.389 162.471 266.649 163.92L266.637 163.918Z" fill="#5B6E30"/>
<path d="M210.533 170.609C214.257 176.167 218.323 181.502 222.713 186.59C223.669 187.709 223.077 189.75 221.701 190.579C220.137 191.511 218.481 191.195 217.455 190.008C213.069 184.909 209.003 179.574 205.276 174.028C204.468 172.812 204.811 170.924 206.288 170.039C207.765 169.153 209.659 169.315 210.533 170.609Z" fill="#5B6E30"/>
<path d="M313.942 465.967C289.861 456.792 276.682 432.709 284.506 412.176C292.33 391.643 318.193 382.436 342.273 391.611C366.354 400.787 379.533 424.87 371.709 445.403C363.886 465.935 338.022 475.143 313.942 465.967Z" fill="#8076B6"/>
<path d="M364.903 434.125C361.65 445.029 351.695 452.522 341.124 455.044C329.309 457.865 316.895 454.294 306.459 448.89C304.624 447.939 303.461 446.001 304.276 443.859C304.969 442.041 307.404 440.6 309.253 441.557C318.239 446.207 328.544 449.629 338.799 447.591C347.301 445.893 355.166 440.055 357.743 431.397C358.354 429.363 360.887 428.396 362.72 429.095C364.782 429.88 365.514 432.091 364.903 434.125Z" fill="#A09BCC"/>
<path d="M219.332 467.668C195.252 458.493 182.073 434.41 189.897 413.877C197.72 393.344 223.583 384.137 247.664 393.312C271.744 402.488 284.923 426.571 277.1 447.104C269.276 467.637 243.413 476.844 219.332 467.668Z" fill="#8076B6"/>
<path d="M270.293 435.826C267.041 446.73 257.085 454.223 246.515 456.745C234.7 459.566 222.286 455.995 211.85 450.591C210.015 449.64 208.851 447.702 209.667 445.56C210.36 443.742 212.795 442.301 214.644 443.258C223.629 447.908 233.935 451.331 244.189 449.292C252.691 447.594 260.556 441.757 263.134 433.098C263.745 431.064 266.278 430.097 268.111 430.796C270.173 431.582 270.905 433.792 270.293 435.826Z" fill="#A09BCC"/>
<path d="M280.567 408.221C258.147 399.678 245.076 379.358 251.372 362.835C257.668 346.311 280.947 339.841 303.366 348.384C325.786 356.926 338.857 377.246 332.561 393.77C326.265 410.293 302.987 416.763 280.567 408.221Z" fill="#775CA3"/>
<path d="M317.287 370.18C317.253 372.334 317.733 374.733 317.586 377.012C317.439 379.29 316.689 381.474 315.584 383.471C313.514 387.183 309.92 390.03 306.054 391.613C301.729 393.408 297.033 393.685 292.452 393.182C290.281 392.943 288.128 392.525 285.986 392.079C284.83 391.84 283.672 391.566 282.522 391.313C282.022 391.206 281.541 391.09 281.041 390.984C280.8 390.926 280.54 390.877 280.289 390.848C279.424 390.838 279.768 390.667 281.33 390.355C279.589 391.522 277.311 391.561 275.929 389.809C274.735 388.296 274.806 385.484 276.552 384.302C278.82 382.781 280.834 382.961 283.317 383.504C285.376 383.953 287.438 384.436 289.505 384.821C293.428 385.543 297.494 386.017 301.434 385.016C304.232 384.302 307.151 382.407 308.775 379.953C308.797 379.894 309.379 378.839 309.107 379.424C309.324 378.986 309.497 378.531 309.656 378.071C309.856 377.459 309.951 376.908 309.951 375.833C309.966 373.857 309.602 371.585 309.633 369.48C309.664 367.376 311.923 365.751 313.86 365.918C316.083 366.11 317.315 368.041 317.292 370.165L317.287 370.18Z" fill="#9C8AC0"/>
<path d="M417.522 356.176C399.294 349.23 389.59 330.287 395.848 313.864C402.105 297.441 421.955 289.758 440.183 296.704C458.411 303.649 468.115 322.593 461.857 339.015C455.6 355.438 435.75 363.121 417.522 356.176Z" fill="#85B726"/>
<path d="M373.006 341.289C356.703 335.078 348.61 316.599 354.928 300.015C361.247 283.431 379.585 275.023 395.888 281.235C412.19 287.447 420.284 305.926 413.965 322.51C407.646 339.093 389.308 347.501 373.006 341.289Z" fill="#80A02A"/>
<path d="M352.372 455.516C335.113 448.94 326.546 429.377 333.235 411.822C339.924 394.266 359.337 385.365 376.595 391.941C393.853 398.517 402.421 418.079 395.732 435.635C389.043 453.19 369.63 462.091 352.372 455.516Z" fill="#80A02A"/>
<path d="M331.429 425.41C312.159 418.067 302.592 396.224 310.061 376.622C317.53 357.02 339.206 347.082 358.476 354.424C377.746 361.767 387.312 383.609 379.844 403.211C372.375 422.813 350.699 432.752 331.429 425.41Z" fill="#85B726"/>
<path d="M400.658 436.815C384.234 430.557 377.238 408.9 385.032 388.442C392.827 367.985 412.461 356.475 428.885 362.733C445.31 368.991 452.306 390.648 444.511 411.105C436.717 431.563 417.083 443.073 400.658 436.815Z" fill="#80A02A"/>
<path d="M249.267 394.104C230.277 386.868 220.85 365.343 228.21 346.026C235.57 326.709 256.931 316.915 275.921 324.151C294.911 331.386 304.338 352.911 296.978 372.228C289.617 391.546 268.256 401.339 249.267 394.104Z" fill="#A0C528"/>
<path d="M277.848 352.906C268.626 334.701 278.84 310.6 300.662 299.076C322.484 287.553 347.65 292.969 356.872 311.175C366.094 329.38 355.88 353.481 334.058 365.004C312.236 376.528 287.07 371.112 277.848 352.906Z" fill="#80A02A"/>
<path d="M335.495 406.415C314.677 392.612 307.192 367.034 318.777 349.286C330.362 331.537 356.629 328.339 377.447 342.142C398.265 355.945 405.749 381.523 394.165 399.271C382.58 417.02 356.312 420.218 335.495 406.415Z" fill="#A0C528"/>
<path d="M302.189 304.94C282.962 297.614 272.931 277.094 279.785 259.107C286.638 241.12 307.78 232.478 327.007 239.804C346.234 247.13 356.264 267.65 349.411 285.636C342.558 303.623 321.415 312.266 302.189 304.94Z" fill="#85B726"/>
<path d="M225.028 340.918C216.632 324.344 225.818 302.462 245.547 292.044C265.275 281.626 288.074 286.616 296.47 303.191C304.866 319.765 295.679 341.647 275.951 352.065C256.222 362.483 233.423 357.493 225.028 340.918Z" fill="#85B726"/>
<path d="M208.351 352.976C185.697 344.344 173.144 322.096 180.312 303.283C187.48 284.471 211.655 276.217 234.309 284.849C256.963 293.481 269.517 315.729 262.349 334.542C255.181 353.355 231.005 361.608 208.351 352.976Z" fill="#A0C528"/>
<path d="M190.397 359.816C173.647 342.358 171.17 317.272 184.865 303.783C198.559 290.295 223.24 293.514 239.991 310.972C256.741 328.43 259.218 353.516 245.524 367.004C231.829 380.493 207.148 377.274 190.397 359.816Z" fill="#85B726"/>
<path d="M246.206 438.478C226.109 430.821 214.701 411.798 220.725 395.989C226.748 380.18 247.923 373.572 268.019 381.229C288.115 388.886 299.523 407.909 293.5 423.718C287.476 439.527 266.302 446.135 246.206 438.478Z" fill="#80A02A"/>
<path d="M407.543 308.09C406.877 314.959 403.461 321.538 398.065 325.847C393.101 329.805 386.777 331.7 380.533 331.275C376.044 330.974 376.762 323.928 381.233 324.237C385.704 324.547 390.201 323.184 393.716 320.371C397.735 317.174 400.116 312.489 400.601 307.461C401.033 302.927 407.974 303.556 407.543 308.09Z" fill="#3483CC" fill-opacity="0.5"/>
<path d="M302.715 361.851C296.944 361.046 291.509 357.793 288.359 352.804C287.858 352.007 287.524 351.243 287.614 350.263C287.709 349.389 288.203 348.365 288.913 347.832C290.309 346.788 292.777 346.683 293.816 348.337C294.464 349.372 295.228 350.299 296.064 351.194C296.334 351.463 296.279 351.412 295.899 351.04C296.009 351.143 296.119 351.245 296.229 351.348C296.394 351.501 296.577 351.647 296.747 351.787C297.21 352.176 297.701 352.53 298.202 352.857C298.45 353.027 298.721 353.176 298.974 353.333C299.305 353.52 299.232 353.477 298.75 353.217C298.888 353.285 299.021 353.366 299.146 353.429C299.62 353.67 300.104 353.885 300.599 354.073C301.158 354.286 301.733 354.46 302.32 354.638C302.7 354.737 302.616 354.721 302.071 354.589C302.224 354.617 302.359 354.653 302.512 354.681C302.806 354.732 303.112 354.789 303.41 354.826C305.209 355.072 306.817 356.716 306.535 358.669C306.272 360.494 304.644 362.146 302.705 361.878L302.715 361.851Z" fill="#3483CC" fill-opacity="0.5"/>
<path d="M321.861 329.502C318.294 326.703 315.873 322.734 314.893 318.269C314.7 317.407 315.035 316.292 315.541 315.591C316.047 314.889 316.945 314.292 317.788 314.189C319.76 313.94 321.372 315.145 321.784 317.075C321.86 317.423 321.949 317.775 322.044 318.114L321.793 317.246C322.17 318.526 322.711 319.763 323.39 320.915L322.923 320.146C323.635 321.327 324.489 322.41 325.476 323.377L324.821 322.749C325.201 323.121 325.609 323.458 326.017 323.795C326.715 324.349 327.241 325.156 327.375 326.056C327.509 326.956 327.29 328.039 326.727 328.734C325.559 330.198 323.375 330.73 321.838 329.523L321.861 329.502Z" fill="#3483CC" fill-opacity="0.5"/>
<path d="M385.63 435.015C384.785 441.573 379.506 446.2 373.504 448.035C367.501 449.869 361.322 448.606 355.419 447.6C353.628 447.296 352.01 445.755 352.294 443.757C352.555 441.977 354.193 440.222 356.124 440.549C358.725 440.994 361.312 441.48 363.944 441.725C366.577 441.97 368.464 442.023 371.155 441.411C371.419 441.345 371.683 441.279 371.933 441.208C372.287 441.1 371.595 441.352 372.163 441.113C372.73 440.875 373.288 440.663 373.822 440.396C374.061 440.276 374.306 440.142 374.551 440.007C375.453 439.518 374.065 440.383 374.906 439.779C375.354 439.465 375.788 439.145 376.199 438.771C376.443 438.561 376.679 438.333 376.915 438.104C376.553 438.467 376.874 438.134 377.037 437.939C377.416 437.492 377.735 437.008 378.046 436.505C377.76 436.941 377.972 436.659 378.101 436.359C378.21 436.113 378.314 435.879 378.41 435.628C378.44 435.549 378.735 434.539 378.539 435.329C378.615 435.009 378.648 434.688 378.694 434.372C378.931 432.538 380.611 430.905 382.524 431.164C384.437 431.423 385.892 433.038 385.648 435.007L385.63 435.015Z" fill="#A0C528"/>
<path d="M284.04 412.777C282.818 421.693 275.482 428.082 267.208 430.324C262.937 431.485 258.379 431.522 254.028 431.016C251.833 430.755 249.662 430.352 247.517 429.883C245.114 429.347 242.573 428.939 241.029 426.775C238.425 423.13 243.86 418.64 246.485 422.307C246.449 422.324 246.418 422.327 246.379 422.312C246.205 422.261 246.335 422.31 246.77 422.461C247.056 422.57 247.388 422.636 247.677 422.7C248.505 422.91 249.354 423.067 250.198 423.237C251.86 423.567 253.548 423.831 255.221 424.014C258.7 424.385 262.164 424.326 265.591 423.464C271.055 422.106 276.31 417.698 277.064 412.12C277.68 407.611 284.621 408.24 284.006 412.749L284.04 412.777Z" fill="#A0C528"/>
<path d="M432.382 382.326C432.385 382.085 432.393 381.83 432.395 381.588L432.418 382.506C432.385 381.615 432.249 380.76 432.007 379.91L432.257 380.778C431.975 379.837 431.585 378.946 431.086 378.104L431.553 378.873C431.036 378.04 430.445 377.284 429.741 376.591L430.395 377.219C429.727 376.586 428.999 376.036 428.185 375.589L428.999 376.036C428.616 375.829 428.222 375.649 427.819 375.495C426.12 374.833 425.063 372.718 425.827 370.948C426.591 369.178 428.524 368.171 430.34 368.878C435.979 371.088 439.541 376.87 439.318 382.968C439.253 384.823 437.274 386.418 435.489 386.177C433.519 385.911 432.292 384.322 432.364 382.334L432.382 382.326Z" fill="#A0C528"/>
<path d="M175.954 416.359C153.864 418.799 134.917 408.075 133.636 392.406C132.354 376.738 149.224 362.059 171.314 359.62C193.405 357.181 212.351 367.905 213.633 383.573C214.914 399.241 198.045 413.92 175.954 416.359Z" fill="#85B726"/>
<path d="M202.325 374.144C205.231 381.08 203.88 389.405 199.42 395.534C194.21 402.717 185.025 404.229 176.967 405.047C175.083 405.244 173.433 403.573 173.362 401.719C173.298 399.745 174.863 398.178 176.747 397.981C182.876 397.36 189.972 396.574 194.049 391.21C194.539 390.555 195.283 389.194 195.743 388.106C196.143 387.157 196.522 385.712 196.734 384.487C197.185 381.746 196.767 379.005 195.666 376.393C194.936 374.646 196.288 372.486 197.968 371.914C199.915 371.252 201.603 372.378 202.334 374.126L202.325 374.144Z" fill="#A7CB69"/>
<path d="M455.075 327.323C453.522 335.309 447.782 342.124 440.188 344.928C432.077 347.915 423.433 346.516 416.094 342.356C414.452 341.427 414.354 338.829 415.371 337.412C416.599 335.713 418.605 335.689 420.26 336.623C425.153 339.382 431.841 340.521 437.372 338.476C440.023 337.501 442.497 335.897 444.239 333.984C444.746 333.435 445.216 332.826 445.655 332.221C445.888 331.885 446.12 331.549 446.344 331.195C446.393 331.107 446.805 330.416 446.607 330.78C447.293 329.526 447.932 327.693 448.126 326.676C448.497 324.801 449.951 323.294 451.956 323.467C453.696 323.63 455.444 325.417 455.08 327.31L455.075 327.323Z" fill="#3483CC" fill-opacity="0.5"/>
<path d="M340.005 266.958C340.725 275.78 336.549 284.707 329.017 289.46C320.425 294.885 308.931 294.279 299.89 290.637C295.744 288.966 298.252 282.345 302.411 284.02C309.313 286.786 318.302 287.711 325.051 283.72C330.325 280.592 333.605 274.174 333.119 268.139C332.961 266.245 334.051 264.402 336.014 264.059C337.768 263.757 339.857 265.038 340.01 266.945L340.005 266.958Z" fill="#3483CC" fill-opacity="0.5"/>
<path d="M288.813 317.196C286.918 329.128 277.917 338.989 266.356 341.92C264.524 342.388 262.634 340.819 262.361 339.033C262.037 337.03 263.411 335.417 265.256 334.953C266.311 334.688 266.925 334.483 268.066 333.993C269.092 333.566 270.337 332.919 271.115 332.442C271.833 332.004 272.931 331.194 273.722 330.526C274.513 329.857 275.599 328.846 276.042 328.348C276.82 327.478 277.549 326.543 278.212 325.584C278.544 325.104 278.868 324.606 279.166 324.098C279.191 324.032 279.603 323.34 279.39 323.744C279.52 323.521 279.629 323.274 279.745 323.046C280.288 321.934 280.766 320.798 281.145 319.609C281.325 319.056 281.498 318.485 281.64 317.918C281.561 318.282 281.654 317.802 281.676 317.705C281.747 317.323 281.819 316.94 281.877 316.553C282.178 314.668 283.745 313.174 285.706 313.345C287.504 313.515 289.124 315.284 288.831 317.188L288.813 317.196Z" fill="#3483CC" fill-opacity="0.5"/>
<path d="M243.474 336.247C242.484 345.296 240.692 355.434 232.286 360.566C228.676 362.768 224.491 363.31 220.368 363.224C216.244 363.138 211.226 363.09 208.132 359.911C206.815 358.56 207.322 356.056 208.686 354.939C210.284 353.638 212.271 354.092 213.589 355.443C214.069 355.944 216.122 355.832 216.869 355.905C218.496 356.055 220.127 356.191 221.765 356.194C224.431 356.195 227.272 355.701 229.491 354.061C235.122 349.917 235.828 342.003 236.52 335.613C237.008 331.086 243.962 331.72 243.461 336.242L243.474 336.247Z" fill="#3483CC" fill-opacity="0.5"/>
<path d="M388.798 379.602C386.831 389.613 380.65 399.654 370.753 403.264C361.724 406.552 350.361 404.193 344.932 395.804C343.912 394.219 343.923 392.116 345.485 390.832C346.849 389.715 349.356 389.746 350.388 391.337C354.132 397.112 361.874 399.198 368.333 396.674C375.616 393.826 380.381 386.443 381.843 378.968C382.215 377.094 383.668 375.586 385.673 375.759C387.414 375.922 389.161 377.71 388.798 379.602Z" fill="#3483CC" fill-opacity="0.5"/>
<path d="M282.729 372.317C279.796 374.109 276.154 374.752 272.782 374.922C268.255 375.152 263.791 374.709 259.38 373.695C257.611 373.294 255.958 371.922 256.255 369.853C256.499 368.157 258.176 366.22 260.085 366.644C262.181 367.125 264.305 367.494 266.44 367.717C267.415 367.816 268.388 367.883 269.37 367.924C269.842 367.937 270.314 367.95 270.778 367.945C271.029 367.95 271.286 367.942 271.542 367.933C271.692 367.93 272.405 367.898 271.687 367.943C273.334 367.843 274.968 367.662 276.575 367.275C276.772 367.228 276.973 367.169 277.17 367.122C277.55 367.025 277.665 367.19 277.129 367.152C277.388 367.175 277.883 366.894 278.099 366.794C278.734 366.536 279.34 366.237 279.922 365.882C281.495 364.921 283.893 366.017 284.527 367.637C285.286 369.594 284.433 371.284 282.742 372.322L282.729 372.317Z" fill="#7EA33E"/>
<path d="M423.622 315.832C430.045 306.965 427.912 294.277 418.974 284.539C413.816 278.904 408.449 273.597 407.193 266.863C406.036 260.714 407.531 255.015 408.908 249.36C410.285 243.705 411.133 238.371 409.826 232.394C408.439 226.093 405.589 219.86 402.8 213.688C400.011 207.516 397.181 200.921 395.555 194.402C393.85 187.56 392.952 180.732 391.445 173.902C389.811 166.475 387.309 159.151 382.685 152.115C378.371 145.553 372.57 139.431 365.678 134.307C364.017 133.076 363.249 131.229 364.4 129.896C365.4 128.735 367.999 128.439 369.689 129.682C383.348 139.855 392.857 152.754 397.078 166.53C399.23 173.53 400.211 180.542 401.586 187.539C402.962 194.536 404.893 201.094 407.814 207.852C410.581 214.258 413.79 220.615 415.915 227.107C418.041 233.6 418.734 239.903 417.633 246.033C416.583 251.851 414.416 257.447 414.436 263.52C414.438 266.132 414.953 268.864 416.401 271.454C418.194 274.648 421.065 277.411 423.722 280.245C429.542 286.451 433.49 293.217 434.612 300.436C435.734 307.655 434.263 314.357 430.188 319.99C429.23 321.307 426.585 321.28 424.898 320.205C423.022 319.005 422.672 317.127 423.62 315.793L423.622 315.832Z" fill="#80A02A"/>
<path d="M408.721 220.517C398.978 250.141 372.887 263.339 356.202 286.056C351.61 292.312 347.585 299.424 345.568 307.196C345.028 309.285 343.656 311.109 341.849 311.094C340.35 311.075 338.88 309.272 339.421 307.149C343.356 291.963 352.421 279.663 362.448 269.162C372.474 258.66 382.796 250.532 391.684 239.2C396.522 233.037 400.583 226.13 403.137 218.389C404.757 213.467 410.325 215.606 408.71 220.513L408.721 220.517Z" fill="#80A02A"/>
<path d="M387.718 253.021C392.611 261.662 394.911 269.887 395.305 277.733C395.732 286.03 394.685 293.757 389.283 299.951C386.308 303.365 382.067 306.154 376.713 308.139C373.57 309.304 367.828 304.998 370.975 303.826C379.812 300.544 384.86 294.831 386.844 288.01C387.85 284.562 387.905 280.829 387.779 277.034C387.653 273.239 387.232 269.679 386.235 265.839C385.111 261.479 383.131 256.986 380.546 252.424C378.862 249.445 386.016 250.044 387.7 253.023L387.718 253.021Z" fill="#80A02A"/>
<path d="M400.703 208.941C378.179 208.412 358.13 214.699 340.673 223.413C331.3 228.086 322.281 233.339 314.145 239.247C305.652 245.427 298.759 252.866 294.528 261.753C289.83 271.596 288.088 282.782 289.863 294.187C290.12 295.864 289.274 297.376 287.085 297.485C285.271 297.584 282.684 296.254 282.416 294.56C278.963 272.424 286.824 252.014 304.029 237.75C312.183 230.995 321.762 225.292 331.595 220.12C340.781 215.274 350.564 210.988 361.1 207.88C372.803 204.414 385.538 202.411 398.829 202.723C400.872 202.775 402.96 203.864 403.497 205.648C403.965 207.216 402.78 208.994 400.718 208.947L400.703 208.941Z" fill="#80A02A"/>
<path d="M322.271 232.71C324.582 237.12 326.953 241.68 327.834 246.246C328.762 251.046 328.104 255.523 326.869 259.919C326.429 261.472 324.022 262.02 322.117 261.294C320.006 260.489 319.046 258.659 319.486 257.106C319.8 256.015 320.08 254.924 320.291 253.794C320.221 254.201 320.312 253.649 320.334 253.505C320.378 253.254 320.408 252.998 320.449 252.759C320.515 252.274 320.562 251.795 320.599 251.3C320.662 250.381 320.676 249.456 320.612 248.514C320.583 248.057 320.531 247.617 320.483 247.165C320.419 246.58 320.529 247.4 320.467 247.032C320.416 246.809 320.385 246.58 320.335 246.357C319.964 244.534 319.338 242.716 318.583 240.924C318.06 239.68 317.919 239.384 317.384 238.302C316.785 237.079 316.162 235.874 315.524 234.662C314.662 233.021 315.105 231.279 317.025 230.724C318.735 230.229 321.389 231.074 322.252 232.715L322.271 232.71Z" fill="#80A02A"/>
<path d="M414.989 277.874C401.347 284.831 393.804 297.883 388.42 310.192C386.882 313.696 379.495 310.894 381.037 307.379C386.817 294.164 395.031 280.105 409.679 272.639C413.456 270.715 418.809 275.927 414.989 277.874Z" fill="#80A02A"/>
</svg>
