<svg width="543" height="111" viewBox="0 0 543 111" fill="none" xmlns="http://www.w3.org/2000/svg">
<rect width="543" height="111" rx="21" fill="white"/>
<path fill-rule="evenodd" clip-rule="evenodd" d="M50 82.5C38.9543 82.5 30 73.5457 30 62.5L30 48.5C30 37.4543 38.9543 28.5 50 28.5H64C75.0457 28.5 84 37.4543 84 48.5V62.5C84 73.5457 75.0457 82.5 64 82.5H50ZM52.3587 55.4516C52.2522 55.5505 52.2522 55.7191 52.3587 55.818L61.0195 63.8602C61.323 64.142 61.3406 64.6166 61.0588 64.9201C60.7769 65.2236 60.3024 65.2412 59.9988 64.9594L51.338 56.9172C50.5924 56.2248 50.5924 55.0447 51.338 54.3524L59.9988 46.3102C60.3024 46.0283 60.7769 46.0459 61.0588 46.3494C61.3406 46.653 61.323 47.1275 61.0195 47.4094L52.3587 55.4516Z" fill="#242424"/>
<path d="M101.244 71.5V39.3H113.296C116.025 39.3 118.371 39.7447 120.334 40.634C122.297 41.4927 123.799 42.75 124.842 44.406C125.915 46.0313 126.452 48.0093 126.452 50.34C126.452 52.6093 125.915 54.572 124.842 56.228C123.799 57.8533 122.297 59.1107 120.334 60C118.371 60.8587 116.025 61.288 113.296 61.288H103.13L104.648 59.724V71.5H101.244ZM123.232 71.5L114.952 59.816H118.632L126.958 71.5H123.232ZM104.648 60L103.13 58.39H113.204C116.424 58.39 118.862 57.6847 120.518 56.274C122.205 54.8633 123.048 52.8853 123.048 50.34C123.048 47.764 122.205 45.7707 120.518 44.36C118.862 42.9493 116.424 42.244 113.204 42.244H103.13L104.648 40.634V60ZM144.054 71.73C141.54 71.73 139.332 71.2087 137.43 70.166C135.529 69.0927 134.042 67.636 132.968 65.796C131.895 63.9253 131.358 61.794 131.358 59.402C131.358 57.01 131.864 54.894 132.876 53.054C133.919 51.214 135.33 49.7727 137.108 48.73C138.918 47.6567 140.942 47.12 143.18 47.12C145.45 47.12 147.458 47.6413 149.206 48.684C150.985 49.696 152.38 51.1373 153.392 53.008C154.404 54.848 154.91 56.9793 154.91 59.402C154.91 59.5553 154.895 59.724 154.864 59.908C154.864 60.0613 154.864 60.23 154.864 60.414H133.842V57.976H153.116L151.828 58.942C151.828 57.194 151.445 55.6453 150.678 54.296C149.942 52.916 148.93 51.8427 147.642 51.076C146.354 50.3093 144.867 49.926 143.18 49.926C141.524 49.926 140.037 50.3093 138.718 51.076C137.4 51.8427 136.372 52.916 135.636 54.296C134.9 55.676 134.532 57.2553 134.532 59.034V59.54C134.532 61.38 134.931 63.0053 135.728 64.416C136.556 65.796 137.691 66.8847 139.132 67.682C140.604 68.4487 142.276 68.832 144.146 68.832C145.618 68.832 146.983 68.5713 148.24 68.05C149.528 67.5287 150.632 66.7313 151.552 65.658L153.392 67.774C152.319 69.062 150.97 70.0433 149.344 70.718C147.75 71.3927 145.986 71.73 144.054 71.73ZM169.194 71.73C166.925 71.73 165.177 71.1167 163.95 69.89C162.723 68.6633 162.11 66.9307 162.11 64.692V42.014H165.376V64.508C165.376 65.9187 165.729 67.0073 166.434 67.774C167.17 68.5407 168.213 68.924 169.562 68.924C171.003 68.924 172.199 68.51 173.15 67.682L174.3 70.028C173.656 70.6107 172.874 71.04 171.954 71.316C171.065 71.592 170.145 71.73 169.194 71.73ZM157.786 50.064V47.35H172.736V50.064H157.786ZM189.236 71.73C186.905 71.73 184.805 71.2087 182.934 70.166C181.094 69.0927 179.637 67.636 178.564 65.796C177.491 63.9253 176.954 61.794 176.954 59.402C176.954 56.9793 177.491 54.848 178.564 53.008C179.637 51.168 181.094 49.7267 182.934 48.684C184.774 47.6413 186.875 47.12 189.236 47.12C191.628 47.12 193.744 47.6413 195.584 48.684C197.455 49.7267 198.911 51.168 199.954 53.008C201.027 54.848 201.564 56.9793 201.564 59.402C201.564 61.794 201.027 63.9253 199.954 65.796C198.911 67.636 197.455 69.0927 195.584 70.166C193.713 71.2087 191.597 71.73 189.236 71.73ZM189.236 68.832C190.984 68.832 192.533 68.4487 193.882 67.682C195.231 66.8847 196.289 65.7807 197.056 64.37C197.853 62.9287 198.252 61.2727 198.252 59.402C198.252 57.5007 197.853 55.8447 197.056 54.434C196.289 53.0233 195.231 51.9347 193.882 51.168C192.533 50.3707 190.999 49.972 189.282 49.972C187.565 49.972 186.031 50.3707 184.682 51.168C183.333 51.9347 182.259 53.0233 181.462 54.434C180.665 55.8447 180.266 57.5007 180.266 59.402C180.266 61.2727 180.665 62.9287 181.462 64.37C182.259 65.7807 183.333 66.8847 184.682 67.682C186.031 68.4487 187.549 68.832 189.236 68.832ZM218.214 71.73C216.159 71.73 214.365 71.3467 212.832 70.58C211.298 69.8133 210.102 68.6633 209.244 67.13C208.416 65.5967 208.002 63.68 208.002 61.38V47.35H211.268V61.012C211.268 63.588 211.896 65.5353 213.154 66.854C214.442 68.142 216.236 68.786 218.536 68.786C220.222 68.786 221.679 68.4487 222.906 67.774C224.163 67.0687 225.114 66.0567 225.758 64.738C226.432 63.4193 226.77 61.84 226.77 60V47.35H230.036V71.5H226.908V64.876L227.414 66.072C226.647 67.8507 225.451 69.246 223.826 70.258C222.231 71.2393 220.36 71.73 218.214 71.73ZM239.138 71.5V47.35H242.266V53.928L241.944 52.778C242.619 50.938 243.753 49.5427 245.348 48.592C246.943 47.6107 248.921 47.12 251.282 47.12V50.294C251.159 50.294 251.037 50.294 250.914 50.294C250.791 50.2633 250.669 50.248 250.546 50.248C248.001 50.248 246.007 51.03 244.566 52.594C243.125 54.1273 242.404 56.32 242.404 59.172V71.5H239.138ZM284.774 71.5V66.164L284.636 65.29V56.366C284.636 54.3113 284.053 52.732 282.888 51.628C281.753 50.524 280.051 49.972 277.782 49.972C276.218 49.972 274.731 50.2327 273.32 50.754C271.909 51.2753 270.713 51.9653 269.732 52.824L268.26 50.386C269.487 49.3433 270.959 48.546 272.676 47.994C274.393 47.4113 276.203 47.12 278.104 47.12C281.232 47.12 283.639 47.902 285.326 49.466C287.043 50.9993 287.902 53.3453 287.902 56.504V71.5H284.774ZM276.448 71.73C274.639 71.73 273.059 71.4387 271.71 70.856C270.391 70.2427 269.379 69.4147 268.674 68.372C267.969 67.2987 267.616 66.072 267.616 64.692C267.616 63.4347 267.907 62.3 268.49 61.288C269.103 60.2453 270.085 59.4173 271.434 58.804C272.814 58.16 274.654 57.838 276.954 57.838H285.28V60.276H277.046C274.715 60.276 273.09 60.69 272.17 61.518C271.281 62.346 270.836 63.3733 270.836 64.6C270.836 65.98 271.373 67.084 272.446 67.912C273.519 68.74 275.022 69.154 276.954 69.154C278.794 69.154 280.373 68.74 281.692 67.912C283.041 67.0533 284.023 65.8267 284.636 64.232L285.372 66.486C284.759 68.0807 283.685 69.3533 282.152 70.304C280.649 71.2547 278.748 71.73 276.448 71.73ZM277.966 43.578L270.514 37.874H274.884L281.186 43.578H277.966ZM308.812 71.5V37.368H312.078V71.5H308.812ZM336.299 71.5V66.164L336.161 65.29V56.366C336.161 54.3113 335.579 52.732 334.413 51.628C333.279 50.524 331.577 49.972 329.307 49.972C327.743 49.972 326.256 50.2327 324.845 50.754C323.435 51.2753 322.239 51.9653 321.257 52.824L319.785 50.386C321.012 49.3433 322.484 48.546 324.201 47.994C325.919 47.4113 327.728 47.12 329.629 47.12C332.757 47.12 335.165 47.902 336.851 49.466C338.569 50.9993 339.427 53.3453 339.427 56.504V71.5H336.299ZM327.973 71.73C326.164 71.73 324.585 71.4387 323.235 70.856C321.917 70.2427 320.905 69.4147 320.199 68.372C319.494 67.2987 319.141 66.072 319.141 64.692C319.141 63.4347 319.433 62.3 320.015 61.288C320.629 60.2453 321.61 59.4173 322.959 58.804C324.339 58.16 326.179 57.838 328.479 57.838H336.805V60.276H328.571C326.241 60.276 324.615 60.69 323.695 61.518C322.806 62.346 322.361 63.3733 322.361 64.6C322.361 65.98 322.898 67.084 323.971 67.912C325.045 68.74 326.547 69.154 328.479 69.154C330.319 69.154 331.899 68.74 333.217 67.912C334.567 67.0533 335.548 65.8267 336.161 64.232L336.897 66.486C336.284 68.0807 335.211 69.3533 333.677 70.304C332.175 71.2547 330.273 71.73 327.973 71.73ZM370.641 80.654C368.433 80.654 366.317 80.332 364.293 79.688C362.269 79.044 360.629 78.124 359.371 76.928L361.027 74.444C362.162 75.456 363.557 76.2533 365.213 76.836C366.9 77.4493 368.679 77.756 370.549 77.756C373.616 77.756 375.87 77.0353 377.311 75.594C378.753 74.1833 379.473 71.9753 379.473 68.97V62.944L379.933 58.804L379.611 54.664V47.35H382.739V68.556C382.739 72.7267 381.712 75.778 379.657 77.71C377.633 79.6727 374.628 80.654 370.641 80.654ZM370.043 70.58C367.743 70.58 365.673 70.0893 363.833 69.108C361.993 68.096 360.537 66.7007 359.463 64.922C358.421 63.1433 357.899 61.104 357.899 58.804C357.899 56.504 358.421 54.48 359.463 52.732C360.537 50.9533 361.993 49.5733 363.833 48.592C365.673 47.6107 367.743 47.12 370.043 47.12C372.19 47.12 374.122 47.5647 375.839 48.454C377.557 49.3433 378.921 50.662 379.933 52.41C380.945 54.158 381.451 56.2893 381.451 58.804C381.451 61.3187 380.945 63.45 379.933 65.198C378.921 66.946 377.557 68.28 375.839 69.2C374.122 70.12 372.19 70.58 370.043 70.58ZM370.365 67.682C372.144 67.682 373.723 67.314 375.103 66.578C376.483 65.8113 377.572 64.7687 378.369 63.45C379.167 62.1007 379.565 60.552 379.565 58.804C379.565 57.056 379.167 55.5227 378.369 54.204C377.572 52.8853 376.483 51.858 375.103 51.122C373.723 50.3553 372.144 49.972 370.365 49.972C368.617 49.972 367.038 50.3553 365.627 51.122C364.247 51.858 363.159 52.8853 362.361 54.204C361.595 55.5227 361.211 57.056 361.211 58.804C361.211 60.552 361.595 62.1007 362.361 63.45C363.159 64.7687 364.247 65.8113 365.627 66.578C367.038 67.314 368.617 67.682 370.365 67.682ZM406.961 71.5V66.164L406.823 65.29V56.366C406.823 54.3113 406.241 52.732 405.075 51.628C403.941 50.524 402.239 49.972 399.969 49.972C398.405 49.972 396.918 50.2327 395.507 50.754C394.097 51.2753 392.901 51.9653 391.919 52.824L390.447 50.386C391.674 49.3433 393.146 48.546 394.863 47.994C396.581 47.4113 398.39 47.12 400.291 47.12C403.419 47.12 405.827 47.902 407.513 49.466C409.231 50.9993 410.089 53.3453 410.089 56.504V71.5H406.961ZM398.635 71.73C396.826 71.73 395.247 71.4387 393.897 70.856C392.579 70.2427 391.567 69.4147 390.861 68.372C390.156 67.2987 389.803 66.072 389.803 64.692C389.803 63.4347 390.095 62.3 390.677 61.288C391.291 60.2453 392.272 59.4173 393.621 58.804C395.001 58.16 396.841 57.838 399.141 57.838H407.467V60.276H399.233C396.903 60.276 395.277 60.69 394.357 61.518C393.468 62.346 393.023 63.3733 393.023 64.6C393.023 65.98 393.56 67.084 394.633 67.912C395.707 68.74 397.209 69.154 399.141 69.154C400.981 69.154 402.561 68.74 403.879 67.912C405.229 67.0533 406.21 65.8267 406.823 64.232L407.559 66.486C406.946 68.0807 405.873 69.3533 404.339 70.304C402.837 71.2547 400.935 71.73 398.635 71.73ZM418.96 71.5V37.368H422.226V71.5H418.96ZM441.572 71.73C439.057 71.73 436.849 71.2087 434.948 70.166C433.046 69.0927 431.559 67.636 430.486 65.796C429.412 63.9253 428.876 61.794 428.876 59.402C428.876 57.01 429.382 54.894 430.394 53.054C431.436 51.214 432.847 49.7727 434.626 48.73C436.435 47.6567 438.459 47.12 440.698 47.12C442.967 47.12 444.976 47.6413 446.724 48.684C448.502 49.696 449.898 51.1373 450.91 53.008C451.922 54.848 452.428 56.9793 452.428 59.402C452.428 59.5553 452.412 59.724 452.382 59.908C452.382 60.0613 452.382 60.23 452.382 60.414H431.36V57.976H450.634L449.346 58.942C449.346 57.194 448.962 55.6453 448.196 54.296C447.46 52.916 446.448 51.8427 445.16 51.076C443.872 50.3093 442.384 49.926 440.698 49.926C439.042 49.926 437.554 50.3093 436.236 51.076C434.917 51.8427 433.89 52.916 433.154 54.296C432.418 55.676 432.05 57.2553 432.05 59.034V59.54C432.05 61.38 432.448 63.0053 433.246 64.416C434.074 65.796 435.208 66.8847 436.65 67.682C438.122 68.4487 439.793 68.832 441.664 68.832C443.136 68.832 444.5 68.5713 445.758 68.05C447.046 67.5287 448.15 66.7313 449.07 65.658L450.91 67.774C449.836 69.062 448.487 70.0433 446.862 70.718C445.267 71.3927 443.504 71.73 441.572 71.73ZM459.075 71.5V47.35H462.203V53.928L461.881 52.778C462.556 50.938 463.691 49.5427 465.285 48.592C466.88 47.6107 468.858 47.12 471.219 47.12V50.294C471.097 50.294 470.974 50.294 470.851 50.294C470.729 50.2633 470.606 50.248 470.483 50.248C467.938 50.248 465.945 51.03 464.503 52.594C463.062 54.1273 462.341 56.32 462.341 59.172V71.5H459.075ZM477.179 71.5V47.35H480.445V71.5H477.179ZM478.835 42.014C478.16 42.014 477.593 41.784 477.133 41.324C476.673 40.864 476.443 40.312 476.443 39.668C476.443 39.024 476.673 38.4873 477.133 38.058C477.593 37.598 478.16 37.368 478.835 37.368C479.51 37.368 480.077 37.5827 480.537 38.012C480.997 38.4413 481.227 38.978 481.227 39.622C481.227 40.2967 480.997 40.864 480.537 41.324C480.108 41.784 479.54 42.014 478.835 42.014ZM499.791 71.73C497.276 71.73 495.068 71.2087 493.167 70.166C491.265 69.0927 489.778 67.636 488.705 65.796C487.631 63.9253 487.095 61.794 487.095 59.402C487.095 57.01 487.601 54.894 488.613 53.054C489.655 51.214 491.066 49.7727 492.845 48.73C494.654 47.6567 496.678 47.12 498.917 47.12C501.186 47.12 503.195 47.6413 504.943 48.684C506.721 49.696 508.117 51.1373 509.129 53.008C510.141 54.848 510.647 56.9793 510.647 59.402C510.647 59.5553 510.631 59.724 510.601 59.908C510.601 60.0613 510.601 60.23 510.601 60.414H489.579V57.976H508.853L507.565 58.942C507.565 57.194 507.181 55.6453 506.415 54.296C505.679 52.916 504.667 51.8427 503.379 51.076C502.091 50.3093 500.603 49.926 498.917 49.926C497.261 49.926 495.773 50.3093 494.455 51.076C493.136 51.8427 492.109 52.916 491.373 54.296C490.637 55.676 490.269 57.2553 490.269 59.034V59.54C490.269 61.38 490.667 63.0053 491.465 64.416C492.293 65.796 493.427 66.8847 494.869 67.682C496.341 68.4487 498.012 68.832 499.883 68.832C501.355 68.832 502.719 68.5713 503.977 68.05C505.265 67.5287 506.369 66.7313 507.289 65.658L509.129 67.774C508.055 69.062 506.706 70.0433 505.081 70.718C503.486 71.3927 501.723 71.73 499.791 71.73Z" fill="black"/>
</svg>
