<svg width="112" height="111" viewBox="0 0 112 111" fill="none" xmlns="http://www.w3.org/2000/svg">
<rect width="112" height="111" rx="21" transform="matrix(-1 0 0 1 112 0)" fill="white"/>
<path d="M62.2105 34.1342C62.2105 32.4619 60.2802 31.5281 58.9691 32.5661L43.4298 44.8681C43.0764 45.1478 42.639 45.3 42.1884 45.3L32.5 45.3001C31.1193 45.3001 30 46.4194 30 47.8001V63.2001C30 64.5808 31.1193 65.7001 32.5 65.7001H42.1885C42.6391 65.7001 43.0765 65.8523 43.4299 66.132L58.9691 78.4339C60.2802 79.4719 62.2105 78.5381 62.2105 76.8658V55.5V34.1342Z" fill="#242424" stroke="#242424" stroke-width="3"/>
<path d="M70.2627 62.8811C71.9482 60.8254 72.9469 58.2702 72.9469 55.5013C72.9469 52.7324 71.9482 50.1772 70.2627 48.1216" stroke="#242424" stroke-width="3" stroke-linecap="round"/>
<path d="M75.6318 70.2602C79.0028 66.1489 81.0003 61.0385 81.0003 55.5007C81.0003 49.9629 79.0028 44.8525 75.6318 40.7412" stroke="#242424" stroke-width="3" stroke-linecap="round"/>
</svg>
