<svg width="112" height="111" viewBox="0 0 112 111" fill="none" xmlns="http://www.w3.org/2000/svg">
<rect width="112" height="111" rx="21" transform="matrix(-1 0 0 1 112 0)" fill="white"/>
<path d="M31 51.125C31 49.866 31.5928 48.6804 32.6 47.925L54.1 31.8C55.5222 30.7333 57.4778 30.7333 58.9 31.8L80.4 47.925C81.4072 48.6804 82 49.866 82 51.125V77C82 79.2091 80.2091 81 78 81H65.5526C65.0003 81 64.5526 80.5523 64.5526 80V67.7C64.5526 66.5954 63.6572 65.7 62.5526 65.7H50.4474C49.3428 65.7 48.4474 66.5954 48.4474 67.7V80C48.4474 80.5523 47.9997 81 47.4474 81H35C32.7909 81 31 79.2091 31 77L31 51.125Z" fill="#242424" stroke="#242424" stroke-width="1.5"/>
</svg>
