<svg width="112" height="111" viewBox="0 0 112 111" fill="none" xmlns="http://www.w3.org/2000/svg">
<rect width="112" height="111" rx="21" transform="matrix(-1 0 0 1 112 0)" fill="white"/>
<path d="M66.1406 32.0729L46.8038 44.9641C46.4753 45.1831 46.0893 45.3 45.6944 45.3L33.5 45.3001C32.1193 45.3001 31 46.4194 31 47.8001V63.2001C31 64.5808 32.1193 65.7001 33.5 65.7001H43.1015C43.523 65.7001 43.9338 65.5669 44.2751 65.3195L69.25 47.2194V33.737C69.25 32.1396 67.4697 31.1869 66.1406 32.0729Z" fill="#A8A8A8"/>
<path d="M69.25 77.263V60.749V57.0794C69.25 57.0711 69.2404 57.0665 69.2339 57.0715L53.4077 69.2852C53.3582 69.3234 53.3555 69.3972 53.4022 69.4389L57.775 73.35L66.1406 78.9271C67.4697 79.8131 69.25 78.8604 69.25 77.263Z" fill="#A8A8A8"/>
<path d="M66.1406 32.0729L46.8038 44.9641C46.4753 45.1831 46.0893 45.3 45.6944 45.3L33.5 45.3001C32.1193 45.3001 31 46.4194 31 47.8001V63.2001C31 64.5808 32.1193 65.7001 33.5 65.7001H43.1015C43.523 65.7001 43.9338 65.5669 44.2751 65.3195L69.25 47.2194V33.737C69.25 32.1396 67.4697 31.1869 66.1406 32.0729Z" stroke="#A8A8A8" stroke-width="3"/>
<path d="M69.25 77.263V60.749V57.0794C69.25 57.0711 69.2404 57.0665 69.2339 57.0715L53.4077 69.2852C53.3582 69.3234 53.3555 69.3972 53.4022 69.4389L57.775 73.35L66.1406 78.9271C67.4697 79.8131 69.25 78.8604 69.25 77.263Z" stroke="#A8A8A8" stroke-width="3"/>
<path d="M82 38.1525L34.1875 75.0513" stroke="#A8A8A8" stroke-width="3" stroke-linecap="round" stroke-linejoin="round"/>
</svg>
