<svg width="51" height="50" viewBox="0 0 51 50" fill="none" xmlns="http://www.w3.org/2000/svg">
<path d="M0 20.125C0 18.866 0.592777 17.6804 1.6 16.925L23.1 0.8C24.5222 -0.266667 26.4778 -0.266667 27.9 0.8L49.4 16.925C50.4072 17.6804 51 18.866 51 20.125V46C51 48.2091 49.2091 50 47 50H34.5526C34.0003 50 33.5526 49.5523 33.5526 49V36.7C33.5526 35.5954 32.6572 34.7 31.5526 34.7H19.4474C18.3428 34.7 17.4474 35.5954 17.4474 36.7V49C17.4474 49.5523 16.9997 50 16.4474 50H4C1.79086 50 0 48.2091 0 46L0 20.125Z" fill="#242424"/>
</svg>
