<svg width="52" height="51" viewBox="0 0 52 51" fill="none" xmlns="http://www.w3.org/2000/svg">
<path fill-rule="evenodd" clip-rule="evenodd" d="M0.5 13.6395C0.5 6.10663 6.60663 0 14.1395 0H37.8605C45.3934 0 51.5 6.10663 51.5 13.6395V37.3605C51.5 44.8934 45.3934 51 37.8605 51H14.1395C6.60663 51 0.5 44.8934 0.5 37.3605V13.6395ZM18.3016 26.0821L23.0458 30.8263C24.0221 31.8026 25.605 31.8026 26.5813 30.8263L36.0697 21.3379C37.046 20.3616 37.046 18.7787 36.0697 17.8024C35.0934 16.8261 33.5104 16.8261 32.5341 17.8024L24.8135 25.523L21.8371 22.5466C20.8608 21.5703 19.2779 21.5703 18.3016 22.5466C17.3253 23.5229 17.3253 25.1058 18.3016 26.0821Z" fill="#003B5C"/>
</svg>
