<svg width="52" height="51" viewBox="0 0 52 51" fill="none" xmlns="http://www.w3.org/2000/svg">
<path fill-rule="evenodd" clip-rule="evenodd" d="M14.1395 0C6.60663 0 0.5 6.10663 0.5 13.6395V37.3605C0.5 44.8934 6.60663 51 14.1395 51H37.8605C45.3934 51 51.5 44.8934 51.5 37.3605V13.6395C51.5 6.10663 45.3934 0 37.8605 0H14.1395ZM29.5357 25.3018L37.8838 16.9538C38.8601 15.9775 38.8601 14.3946 37.8838 13.4183C36.9075 12.442 35.3245 12.442 34.3482 13.4183L26.5002 21.2663L18.0819 12.848C17.1056 11.8717 15.5227 11.8717 14.5464 12.848C13.5701 13.8244 13.5701 15.4073 14.5464 16.3836L22.4647 24.3019L14.5403 32.2262C13.564 33.2025 13.564 34.7854 14.5403 35.7617C15.5166 36.738 17.0996 36.738 18.0759 35.7617L25.5002 28.3374L33.7385 36.5757C34.7148 37.552 36.2977 37.552 37.274 36.5757C38.2503 35.5993 38.2503 34.0164 37.274 33.0401L29.5357 25.3018Z" fill="white"/>
</svg>
